<svg width="148" height="142" viewBox="0 0 148 142" fill="none" xmlns="http://www.w3.org/2000/svg">
<path d="M134.948 7.67051V91.3379C134.948 92.8912 134.332 94.3809 133.237 95.4793C132.142 96.5776 130.657 97.1947 129.108 97.1947H6.12664C4.5779 97.1947 3.09259 96.5776 1.99747 95.4793C0.902346 94.3809 0.287109 92.8912 0.287109 91.3379V7.67051C0.287109 6.11719 0.902346 4.62749 1.99747 3.52913C3.09259 2.43077 4.5779 1.81372 6.12664 1.81372H129.108C130.657 1.81372 132.142 2.43077 133.237 3.52913C134.332 4.62749 134.948 6.11719 134.948 7.67051Z" fill="white"/>
<path d="M129.109 97.4893H6.12703C4.50197 97.4859 2.94454 96.8365 1.79604 95.6834C0.64755 94.5303 0.00168749 92.9676 0 91.3378V7.67034C0.00168749 6.04048 0.64755 4.47777 1.79604 3.32468C2.94454 2.17159 4.50197 1.52219 6.12703 1.5188H129.109C130.734 1.52219 132.292 2.17138 133.442 3.32428C134.591 4.47719 135.239 6.03989 135.242 7.67034V91.3378C135.239 92.9682 134.591 94.5309 133.442 95.6838C132.292 96.8367 130.734 97.4859 129.109 97.4893ZM6.12703 2.10191C4.65565 2.10361 3.24511 2.69103 2.20529 3.73513C1.16546 4.77923 0.581394 6.19461 0.581395 7.67034V91.3378C0.581394 92.8135 1.16546 94.2289 2.20529 95.273C3.24511 96.3171 4.65565 96.9045 6.12703 96.9062H129.109C130.581 96.9045 131.992 96.3173 133.033 95.2734C134.073 94.2294 134.659 92.8141 134.661 91.3378V7.67034C134.659 6.19403 134.073 4.77866 133.033 3.73474C131.992 2.69083 130.581 2.10361 129.109 2.10191H6.12703Z" fill="#231F20"/>
<path d="M134.948 7.67051V81.9632H0.287109V7.67051C0.287109 6.11719 0.902346 4.62749 1.99747 3.52913C3.09259 2.43077 4.5779 1.81372 6.12664 1.81372H129.108C130.657 1.81372 132.142 2.43077 133.237 3.52913C134.332 4.62749 134.948 6.11719 134.948 7.67051Z" fill="#231F20"/>
<path d="M127.818 8.75928H5.81396V76.4391H127.818V8.75928Z" fill="#1DC9B7"/>
<path d="M65.9533 92.7028C65.3366 92.7028 64.7338 92.5194 64.2211 92.1758C63.7084 91.8322 63.3088 91.3438 63.0728 90.7724C62.8368 90.201 62.7751 89.5723 62.8954 88.9657C63.0157 88.3591 63.3126 87.8019 63.7486 87.3646C64.1847 86.9273 64.7402 86.6295 65.345 86.5088C65.9498 86.3882 66.5767 86.4501 67.1464 86.6868C67.7161 86.9234 68.2031 87.3242 68.5456 87.8385C68.8882 88.3527 69.0711 88.9573 69.0711 89.5758C69.0694 90.4046 68.7404 91.199 68.156 91.785C67.5717 92.3711 66.7797 92.7011 65.9533 92.7028ZM65.9533 87.0959C65.4627 87.0959 64.9832 87.2419 64.5754 87.5154C64.1676 87.7889 63.8499 88.1775 63.6624 88.6322C63.475 89.0869 63.4263 89.5871 63.5225 90.0696C63.6186 90.552 63.8554 90.995 64.2027 91.3425C64.55 91.6899 64.9923 91.9262 65.4736 92.0214C65.9549 92.1166 66.4535 92.0665 66.9063 91.8773C67.3592 91.6882 67.7459 91.3685 68.0175 90.9588C68.2892 90.5491 68.4335 90.0678 68.4322 89.5758C68.4305 88.9175 68.1686 88.2867 67.7039 87.8219C67.2392 87.357 66.6096 87.0959 65.9533 87.0959Z" fill="#D1D3D4"/>
<path d="M83.5227 107.799C82.2449 105.877 82.0085 97.1816 82.0085 97.1816H53.2198C53.2198 97.1816 53.0089 105.896 51.712 107.799C50.415 109.703 45.323 112.81 45.323 113.913C45.323 115.015 46.0769 115.412 49.7506 115.412H85.4969C89.1706 115.412 89.9245 115.015 89.9245 113.913C89.9245 112.81 84.8197 109.722 83.5227 107.799Z" fill="white"/>
<path d="M85.4962 115.72H49.7691C46.5043 115.72 45.0476 115.464 45.0476 113.926C45.0476 113.234 46.1593 112.304 48.1207 110.722C49.4816 109.626 50.8871 108.498 51.4685 107.64C52.7016 105.833 52.9252 97.2716 52.9316 97.1819C52.9333 97.1066 52.9643 97.0348 53.018 96.9821C53.0718 96.9294 53.144 96.9 53.2191 96.9H82.0078C82.0456 96.8991 82.0832 96.9057 82.1184 96.9195C82.1536 96.9332 82.1857 96.9537 82.213 96.9799C82.2403 97.0061 82.2622 97.0374 82.2774 97.072C82.2927 97.1067 82.3009 97.144 82.3017 97.1819C82.3017 97.2716 82.5317 105.833 83.7648 107.64C84.3462 108.498 85.7518 109.626 87.1126 110.722C89.0741 112.298 90.1857 113.227 90.1857 113.926C90.1857 115.489 88.7291 115.72 85.4962 115.72ZM53.5513 97.4895C53.5002 99.0402 53.2063 106.204 51.9988 107.979C51.3599 108.908 49.9224 110.068 48.5296 111.183C47.3285 112.151 45.6737 113.477 45.6737 113.926C45.6737 114.656 45.9676 115.137 49.8138 115.137H85.4962C89.3296 115.137 89.6299 114.656 89.6299 113.926C89.6299 113.477 87.9815 112.151 86.7804 111.183C85.3876 110.068 83.9437 108.908 83.3112 107.979C82.1037 106.204 81.8098 99.0402 81.7587 97.4895H53.5513Z" fill="#231F20"/>
<path d="M81.5037 106.633H53.7308C53.6461 106.633 53.5649 106.6 53.5049 106.54C53.445 106.48 53.4114 106.398 53.4114 106.313C53.4114 106.228 53.445 106.147 53.5049 106.087C53.5649 106.026 53.6461 105.993 53.7308 105.993H81.5037C81.5884 105.993 81.6697 106.026 81.7296 106.087C81.7895 106.147 81.8232 106.228 81.8232 106.313C81.8215 106.398 81.7873 106.478 81.7278 106.538C81.6682 106.598 81.5879 106.632 81.5037 106.633Z" fill="#D1D3D4"/>
<path d="M124.777 123.819C130.469 122.288 135.171 123.14 139.094 123.986C144.525 125.158 147.489 127.228 147.553 130.298C147.617 133.367 142.493 134.008 137.095 133.405C131.696 132.803 119.717 128.407 119.205 126.523C118.95 125.492 122.483 124.409 124.777 123.819Z" fill="white"/>
<path d="M140.558 133.867C139.39 133.863 138.224 133.795 137.063 133.662C131.952 133.091 119.519 128.76 118.938 126.568C118.753 125.876 119.289 124.966 124.688 123.505C130.297 121.993 134.91 122.755 139.146 123.672C144.845 124.896 147.765 127.113 147.835 130.259C147.847 130.643 147.775 131.025 147.622 131.377C147.47 131.729 147.241 132.043 146.954 132.297C145.599 133.546 142.916 133.867 140.558 133.867ZM131.16 123.236C129.031 123.234 126.91 123.514 124.854 124.069C119.43 125.536 119.475 126.331 119.5 126.421C119.935 128.048 131.639 132.47 137.134 133.085C141.657 133.585 145.19 133.13 146.57 131.861C146.799 131.667 146.98 131.423 147.1 131.147C147.219 130.871 147.274 130.572 147.26 130.272C147.203 127.433 144.436 125.402 139.038 124.242C136.456 123.622 133.814 123.285 131.16 123.236Z" fill="#231F20"/>
<path d="M141.081 133.988C138.826 133.988 137.152 133.187 135.446 132.226C134.807 131.861 134.002 131.374 133.082 130.81C130.259 129.074 126.387 126.696 123.735 126.094C120.464 125.357 119.474 126.651 119.461 126.664C119.414 126.723 119.347 126.761 119.273 126.772C119.199 126.782 119.123 126.764 119.062 126.721C119.001 126.677 118.958 126.612 118.944 126.539C118.929 126.465 118.942 126.388 118.982 126.325C119.033 126.261 120.17 124.691 123.863 125.524C126.61 126.164 130.527 128.548 133.389 130.31C134.303 130.868 135.095 131.355 135.734 131.714C138.251 133.136 140.519 134.117 144.774 132.758C144.811 132.746 144.85 132.742 144.889 132.745C144.927 132.748 144.965 132.759 144.999 132.777C145.034 132.795 145.064 132.819 145.089 132.849C145.114 132.879 145.133 132.913 145.145 132.95C145.167 133.024 145.159 133.104 145.123 133.172C145.088 133.24 145.026 133.292 144.953 133.316C143.705 133.739 142.399 133.966 141.081 133.988Z" fill="#231F20"/>
<path d="M117.105 137.052H18.1394L29.1604 123.115H109.278L117.105 137.052Z" fill="white"/>
<path d="M117.103 137.346H18.1379C18.0833 137.346 18.03 137.33 17.9839 137.301C17.9377 137.271 17.9007 137.23 17.8768 137.18C17.8529 137.131 17.8432 137.076 17.8487 137.022C17.8542 136.967 17.8747 136.915 17.9079 136.872L28.9289 122.929C28.9566 122.894 28.9917 122.867 29.0315 122.848C29.0713 122.829 29.1149 122.819 29.1589 122.82H109.277C109.327 122.82 109.377 122.834 109.421 122.86C109.465 122.885 109.501 122.923 109.526 122.967L117.352 136.904C117.378 136.949 117.391 137 117.391 137.051C117.391 137.103 117.378 137.154 117.352 137.199C117.327 137.243 117.291 137.28 117.248 137.306C117.204 137.332 117.154 137.346 117.103 137.346ZM18.7129 136.757H116.598L109.136 123.403H29.2739L18.7129 136.757Z" fill="#231F20"/>
<path d="M117.105 137.051H18.1394V139.454H117.105V137.051Z" fill="#231F20"/>
<path d="M117.104 139.775H18.1392C18.0544 139.775 17.9732 139.741 17.9133 139.681C17.8534 139.621 17.8197 139.54 17.8197 139.455V137.052C17.8197 136.967 17.8534 136.885 17.9133 136.825C17.9732 136.765 18.0544 136.731 18.1392 136.731H117.104C117.189 136.731 117.27 136.765 117.33 136.825C117.39 136.885 117.424 136.967 117.424 137.052V139.455C117.424 139.54 117.39 139.621 117.33 139.681C117.27 139.741 117.189 139.775 117.104 139.775ZM18.4586 139.134H116.804V137.372H18.4586V139.134Z" fill="#231F20"/>
<path d="M79.3956 135.18H50.3896C50.3633 135.18 50.3374 135.173 50.3141 135.161C50.2907 135.149 50.2706 135.131 50.2554 135.109C50.2446 135.086 50.239 135.061 50.239 135.036C50.239 135.01 50.2446 134.985 50.2554 134.962L51.1435 132.502C51.154 132.47 51.1736 132.443 51.1999 132.424C51.2262 132.404 51.2578 132.393 51.2905 132.393H79.172C79.2111 132.394 79.2483 132.41 79.2766 132.437C79.3049 132.464 79.3222 132.501 79.3253 132.54L79.5745 135.001C79.575 135.047 79.5592 135.093 79.5297 135.129C79.5136 135.148 79.4928 135.163 79.4693 135.172C79.4458 135.181 79.4204 135.184 79.3956 135.18ZM50.6452 134.86H79.2486L79.0378 132.713H51.3863L50.6452 134.86Z" fill="#D1D3D4"/>
<path d="M49.4577 135.18H42.219C42.1911 135.18 42.1638 135.172 42.1393 135.159C42.1148 135.146 42.0939 135.126 42.0784 135.103C42.0656 135.08 42.0588 135.053 42.0588 135.026C42.0588 134.999 42.0656 134.973 42.0784 134.949L43.2796 132.482C43.2941 132.456 43.3153 132.433 43.3411 132.418C43.3669 132.402 43.3963 132.393 43.4265 132.393H50.3586C50.385 132.392 50.4111 132.399 50.4345 132.411C50.4579 132.423 50.4779 132.441 50.4927 132.463C50.505 132.486 50.5115 132.511 50.5115 132.537C50.5115 132.563 50.505 132.588 50.4927 132.61L49.5727 135.077C49.5628 135.102 49.5472 135.125 49.5272 135.142C49.5073 135.16 49.4835 135.173 49.4577 135.18ZM42.4746 134.86H49.3491L50.1477 132.713H43.516L42.4746 134.86Z" fill="#D1D3D4"/>
<path d="M58.932 132.207H52.0319C52.0062 132.207 51.9808 132.201 51.9576 132.19C51.9344 132.179 51.914 132.163 51.8978 132.143C51.8855 132.121 51.879 132.095 51.879 132.069C51.879 132.044 51.8855 132.018 51.8978 131.996L52.6836 129.753C52.6941 129.722 52.7137 129.695 52.74 129.675C52.7663 129.656 52.7979 129.645 52.8306 129.644H59.4815C59.5051 129.645 59.5282 129.652 59.5491 129.663C59.57 129.674 59.5884 129.689 59.6029 129.708C59.6188 129.726 59.63 129.748 59.6356 129.771C59.6411 129.795 59.6409 129.819 59.6348 129.843L59.1046 132.085C59.0968 132.124 59.0746 132.158 59.0425 132.181C59.0104 132.203 58.9709 132.213 58.932 132.207ZM52.2556 131.887H58.8043L59.2579 129.964H52.9136L52.2556 131.887Z" fill="#D1D3D4"/>
<path d="M66.7066 132.207H59.8001C59.7767 132.207 59.7537 132.201 59.7327 132.191C59.7117 132.18 59.6932 132.165 59.6786 132.147C59.6639 132.129 59.6535 132.107 59.648 132.085C59.6425 132.062 59.6421 132.038 59.6468 132.015L60.1387 129.772C60.1473 129.736 60.1677 129.704 60.1966 129.681C60.2255 129.657 60.2614 129.644 60.2985 129.644H66.9686C67.0142 129.644 67.0578 129.663 67.09 129.695C67.1176 129.732 67.1312 129.778 67.1283 129.823L66.8855 132.066C66.8831 132.087 66.8766 132.108 66.8663 132.126C66.856 132.145 66.8421 132.161 66.8255 132.174C66.8088 132.187 66.7897 132.197 66.7693 132.203C66.7489 132.208 66.7276 132.21 66.7066 132.207ZM59.9982 131.887H66.5597L66.7641 129.964H60.4262L59.9982 131.887Z" fill="#D1D3D4"/>
<path d="M74.476 132.207H67.6079C67.5623 132.207 67.5186 132.188 67.4865 132.156C67.471 132.14 67.4595 132.121 67.4528 132.1C67.4462 132.078 67.4446 132.056 67.4482 132.034L67.6526 129.791C67.6558 129.751 67.6741 129.714 67.7037 129.686C67.7333 129.659 67.7721 129.644 67.8124 129.644H74.4569C74.4992 129.644 74.5399 129.661 74.5698 129.691C74.5998 129.721 74.6166 129.762 74.6166 129.804L74.6677 132.041C74.6688 132.063 74.6653 132.085 74.6577 132.106C74.65 132.127 74.6382 132.146 74.623 132.162C74.6031 132.18 74.5797 132.193 74.5544 132.201C74.529 132.208 74.5023 132.211 74.476 132.207ZM67.7485 131.887H74.3099L74.2716 129.964H67.9273L67.7485 131.887Z" fill="#D1D3D4"/>
<path d="M82.2523 132.207H75.3458C75.305 132.206 75.2662 132.189 75.2367 132.161C75.2072 132.133 75.1892 132.094 75.1861 132.053L75.103 129.811C75.1021 129.789 75.1056 129.768 75.1133 129.748C75.121 129.728 75.1328 129.71 75.1478 129.695C75.1625 129.679 75.1803 129.667 75.2 129.658C75.2198 129.649 75.2411 129.644 75.2628 129.644H81.9073C81.9456 129.644 81.9828 129.657 82.0121 129.682C82.0414 129.706 82.0609 129.741 82.067 129.779L82.4057 132.021C82.4098 132.044 82.4085 132.068 82.4018 132.09C82.3952 132.112 82.3833 132.133 82.3673 132.15C82.3545 132.168 82.3372 132.183 82.3172 132.193C82.2971 132.203 82.2748 132.208 82.2523 132.207ZM75.4992 131.887H82.0606L81.7731 129.964H75.4289L75.4992 131.887Z" fill="#D1D3D4"/>
<path d="M90.0204 132.207H83.1139C83.0768 132.206 83.0411 132.192 83.0131 132.168C82.9851 132.143 82.9665 132.109 82.9606 132.073L82.59 129.83C82.5852 129.807 82.5856 129.784 82.5911 129.761C82.5966 129.739 82.6071 129.718 82.6219 129.7C82.6366 129.682 82.6552 129.668 82.6763 129.658C82.6973 129.648 82.7203 129.644 82.7434 129.644H89.3943C89.4286 129.645 89.4618 129.657 89.4892 129.677C89.5167 129.698 89.5371 129.727 89.5476 129.759L90.1865 132.002C90.1977 132.024 90.2036 132.048 90.2036 132.073C90.2036 132.097 90.1977 132.121 90.1865 132.143C90.1677 132.169 90.1421 132.188 90.1127 132.199C90.0833 132.211 90.0513 132.213 90.0204 132.207ZM83.2545 131.887H89.8096L89.2729 129.964H82.9414L83.2545 131.887Z" fill="#D1D3D4"/>
<path d="M97.7889 132.207H90.8888C90.8543 132.207 90.8206 132.196 90.793 132.175C90.7653 132.154 90.7452 132.125 90.7355 132.092L90.0966 129.849C90.0842 129.828 90.0778 129.803 90.0778 129.779C90.0778 129.754 90.0842 129.73 90.0966 129.708C90.1115 129.688 90.1308 129.672 90.1529 129.661C90.1751 129.65 90.1996 129.644 90.2244 129.644H96.8689C96.9008 129.644 96.9318 129.654 96.958 129.673C96.9842 129.691 97.0043 129.717 97.0158 129.747L97.9358 131.989C97.9481 132.012 97.9546 132.037 97.9546 132.063C97.9546 132.089 97.9481 132.114 97.9358 132.137C97.9204 132.161 97.8985 132.181 97.8725 132.193C97.8465 132.206 97.8175 132.21 97.7889 132.207ZM91.0102 131.887H97.5525L96.7667 129.964H90.4416L91.0102 131.887Z" fill="#D1D3D4"/>
<path d="M46.8497 129.503H39.7515C39.7229 129.503 39.695 129.495 39.6704 129.48C39.6457 129.465 39.6253 129.445 39.611 129.42C39.5986 129.395 39.5922 129.368 39.5922 129.34C39.5922 129.312 39.5986 129.285 39.611 129.26L40.7738 127.216C40.7865 127.191 40.8057 127.17 40.8294 127.155C40.853 127.141 40.8802 127.133 40.908 127.132H47.8017C47.8291 127.131 47.8564 127.137 47.8802 127.151C47.9041 127.164 47.9234 127.185 47.9358 127.209C47.9482 127.233 47.9546 127.259 47.9546 127.286C47.9546 127.313 47.9482 127.339 47.9358 127.363L47.003 129.407C46.9902 129.437 46.9686 129.462 46.9412 129.479C46.9139 129.496 46.882 129.505 46.8497 129.503ZM40.0263 129.183H46.7475L47.5333 127.453H41.0293L40.0263 129.183Z" fill="#D1D3D4"/>
<path d="M54.8299 129.503H47.7445C47.7179 129.504 47.6916 129.498 47.6681 129.485C47.6446 129.473 47.6247 129.455 47.6103 129.432C47.598 129.409 47.5916 129.382 47.5916 129.356C47.5916 129.329 47.598 129.302 47.6103 129.279L48.5111 127.228C48.5236 127.2 48.5442 127.175 48.5703 127.158C48.5964 127.141 48.6269 127.132 48.6581 127.132H55.4688C55.4935 127.133 55.5178 127.139 55.5399 127.15C55.562 127.161 55.5813 127.177 55.5965 127.196C55.6074 127.219 55.613 127.244 55.613 127.27C55.613 127.295 55.6074 127.32 55.5965 127.344L54.9576 129.394C54.9479 129.422 54.9309 129.447 54.9085 129.466C54.886 129.485 54.8589 129.498 54.8299 129.503ZM47.9745 129.183H54.7149L55.2643 127.452H48.7475L47.9745 129.183Z" fill="#D1D3D4"/>
<path d="M62.8355 129.503H55.7373C55.7125 129.503 55.6881 129.497 55.6659 129.486C55.6437 129.475 55.6244 129.459 55.6096 129.439C55.5988 129.417 55.5933 129.393 55.5933 129.368C55.5933 129.344 55.5988 129.32 55.6096 129.298L56.2485 127.247C56.2581 127.214 56.2783 127.185 56.3059 127.164C56.3336 127.143 56.3672 127.132 56.4018 127.132H63.1997C63.2229 127.132 63.2457 127.138 63.2667 127.147C63.2877 127.157 63.3062 127.172 63.3211 127.19C63.3368 127.208 63.3484 127.23 63.355 127.253C63.3616 127.276 63.3631 127.3 63.3594 127.324L62.9952 129.368C62.9869 129.405 62.9668 129.438 62.9379 129.463C62.9091 129.487 62.8731 129.501 62.8355 129.503ZM55.9482 129.183H62.7013L63.008 127.452H56.4721L55.9482 129.183Z" fill="#D1D3D4"/>
<path d="M70.8022 129.503H63.7296C63.7064 129.503 63.6836 129.498 63.6626 129.488C63.6416 129.478 63.6231 129.463 63.6083 129.445C63.5927 129.428 63.5811 129.408 63.5745 129.386C63.5678 129.363 63.5663 129.34 63.5699 129.317L63.9021 127.267C63.9094 127.229 63.9293 127.196 63.9583 127.171C63.9874 127.147 64.0239 127.133 64.0619 127.132H70.9109C70.9325 127.132 70.9538 127.137 70.9736 127.146C70.9934 127.155 71.0112 127.167 71.0259 127.183C71.0409 127.198 71.0526 127.216 71.0603 127.236C71.068 127.256 71.0715 127.277 71.0706 127.299L70.9875 129.349C70.9869 129.372 70.9814 129.394 70.9715 129.415C70.9615 129.436 70.9472 129.454 70.9297 129.468C70.9121 129.483 70.8917 129.493 70.8697 129.499C70.8477 129.505 70.8247 129.507 70.8022 129.503ZM63.8894 129.183H70.6745L70.7447 127.452H64.196L63.8894 129.183Z" fill="#D1D3D4"/>
<path d="M78.8213 129.503H71.7231C71.7015 129.503 71.6801 129.498 71.6604 129.489C71.6406 129.48 71.6228 129.468 71.6081 129.452C71.5928 129.437 71.5808 129.419 71.5731 129.399C71.5654 129.379 71.5621 129.358 71.5634 129.336L71.6145 127.292C71.6145 127.25 71.6313 127.209 71.6613 127.179C71.6912 127.149 71.7319 127.132 71.7742 127.132H78.6169C78.6571 127.132 78.6959 127.147 78.7255 127.174C78.7551 127.202 78.7734 127.239 78.7766 127.279L78.981 129.324C78.9852 129.37 78.9715 129.416 78.9427 129.452C78.9106 129.484 78.8669 129.503 78.8213 129.503ZM71.8892 129.183H78.6424L78.4763 127.452H71.9276L71.8892 129.183Z" fill="#D1D3D4"/>
<path d="M86.8138 129.503H79.7476C79.7088 129.502 79.6715 129.487 79.6423 129.462C79.6131 129.436 79.5939 129.401 79.5879 129.362L79.3515 127.312C79.3505 127.289 79.3539 127.267 79.3616 127.246C79.3692 127.225 79.381 127.206 79.3962 127.19C79.409 127.171 79.4263 127.156 79.4464 127.146C79.4665 127.136 79.4888 127.131 79.5112 127.132H86.3283C86.3637 127.133 86.3979 127.145 86.4257 127.167C86.4535 127.189 86.4731 127.219 86.4816 127.254L86.9672 129.304C86.9769 129.326 86.9819 129.348 86.9819 129.372C86.9819 129.395 86.9769 129.418 86.9672 129.439C86.9495 129.462 86.926 129.48 86.8991 129.492C86.8721 129.503 86.8428 129.507 86.8138 129.503ZM79.8562 129.183H86.6094L86.2005 127.453H79.6582L79.8562 129.183Z" fill="#D1D3D4"/>
<path d="M94.6906 129.503H87.5925C87.5568 129.504 87.5219 129.492 87.4939 129.47C87.4659 129.448 87.4465 129.416 87.4391 129.381L86.9216 127.331C86.9155 127.307 86.9153 127.283 86.9209 127.259C86.9264 127.236 86.9377 127.214 86.9536 127.196C86.9674 127.177 86.9856 127.161 87.0067 127.15C87.0278 127.139 87.0511 127.133 87.0749 127.132H93.9239C93.9558 127.132 93.9869 127.142 94.0131 127.161C94.0392 127.179 94.0594 127.205 94.0709 127.235L94.8375 129.285C94.8488 129.308 94.8547 129.333 94.8547 129.359C94.8547 129.384 94.8488 129.41 94.8375 129.432C94.8211 129.456 94.799 129.475 94.7733 129.487C94.7475 129.499 94.7191 129.505 94.6906 129.503ZM87.7138 129.183H94.4414L93.8025 127.452H87.2794L87.7138 129.183Z" fill="#D1D3D4"/>
<path d="M102.684 129.503H95.5854C95.5533 129.503 95.5218 129.494 95.4955 129.475C95.4691 129.457 95.4492 129.431 95.4385 129.4L94.6398 127.35C94.629 127.327 94.6234 127.302 94.6234 127.276C94.6234 127.251 94.629 127.226 94.6398 127.203C94.655 127.181 94.6751 127.163 94.6984 127.151C94.7218 127.139 94.7477 127.132 94.774 127.132H101.623C101.652 127.133 101.681 127.141 101.706 127.157C101.731 127.173 101.751 127.195 101.764 127.222L102.811 129.266C102.825 129.29 102.833 129.318 102.833 129.346C102.833 129.374 102.825 129.402 102.811 129.426C102.798 129.449 102.78 129.468 102.757 129.481C102.735 129.495 102.71 129.502 102.684 129.503ZM95.694 129.183H102.422L101.534 127.452H95.0168L95.694 129.183Z" fill="#D1D3D4"/>
<path d="M110.677 129.503H103.578C103.55 129.503 103.521 129.495 103.497 129.481C103.472 129.466 103.452 129.445 103.438 129.42L102.352 127.369C102.339 127.344 102.333 127.317 102.333 127.289C102.333 127.261 102.339 127.234 102.352 127.209C102.367 127.187 102.386 127.168 102.41 127.155C102.433 127.141 102.459 127.134 102.486 127.132H109.335C109.362 127.132 109.389 127.139 109.412 127.152C109.436 127.166 109.455 127.185 109.469 127.209L110.804 129.253C110.82 129.278 110.829 129.307 110.829 129.336C110.829 129.366 110.82 129.395 110.804 129.42C110.792 129.443 110.773 129.463 110.751 129.478C110.729 129.492 110.703 129.501 110.677 129.503ZM103.649 129.183H110.415L109.29 127.452H102.748L103.649 129.183Z" fill="#D1D3D4"/>
<path d="M35.2798 127.023H28.8588C28.8278 127.023 28.7976 127.013 28.7717 126.996C28.7457 126.979 28.725 126.955 28.7119 126.927C28.6967 126.902 28.6886 126.873 28.6886 126.844C28.6886 126.815 28.6967 126.786 28.7119 126.761L30.2261 124.883C30.2396 124.863 30.2577 124.847 30.2789 124.836C30.3 124.825 30.3236 124.819 30.3475 124.819H36.5448C36.5741 124.82 36.6026 124.829 36.6274 124.845C36.6522 124.86 36.6725 124.882 36.6861 124.908C36.6997 124.934 36.7062 124.963 36.705 124.993C36.7037 125.022 36.6947 125.051 36.6789 125.075L35.4011 126.953C35.388 126.974 35.3701 126.991 35.349 127.003C35.3278 127.015 35.3041 127.022 35.2798 127.023ZM29.1911 126.703H35.1903L36.2637 125.139H30.4433L29.1911 126.703Z" fill="#D1D3D4"/>
<path d="M42.9221 127.023H36.1306C36.1015 127.022 36.0734 127.012 36.0488 126.997C36.0242 126.981 36.004 126.959 35.99 126.934C35.9746 126.91 35.9664 126.882 35.9664 126.854C35.9664 126.825 35.9746 126.797 35.99 126.774L37.2678 124.89C37.2822 124.867 37.3021 124.849 37.3256 124.837C37.3491 124.824 37.3755 124.818 37.402 124.819H43.9699C43.9977 124.82 44.0248 124.828 44.0484 124.842C44.0721 124.857 44.0913 124.878 44.104 124.902C44.1197 124.925 44.1281 124.952 44.1281 124.979C44.1281 125.007 44.1197 125.034 44.104 125.056L43.0754 126.94C43.0613 126.968 43.0391 126.991 43.0117 127.006C42.9843 127.021 42.953 127.027 42.9221 127.023ZM36.4309 126.703H42.8198L43.6696 125.14H37.4659L36.4309 126.703Z" fill="#D1D3D4"/>
<path d="M50.5688 127.023H43.7773C43.7495 127.023 43.7224 127.015 43.6988 127C43.6751 126.986 43.6559 126.965 43.6432 126.94C43.6291 126.917 43.6216 126.89 43.6216 126.863C43.6216 126.836 43.6291 126.809 43.6432 126.786L44.6462 124.909C44.6586 124.882 44.6784 124.859 44.7033 124.843C44.7282 124.827 44.7572 124.819 44.7868 124.819H51.3483C51.3743 124.821 51.3997 124.828 51.4229 124.84C51.446 124.852 51.4663 124.869 51.4824 124.89C51.4934 124.914 51.4991 124.94 51.4991 124.966C51.4991 124.993 51.4934 125.019 51.4824 125.043L50.7158 126.921C50.703 126.95 50.6825 126.975 50.6566 126.993C50.6307 127.011 50.6003 127.021 50.5688 127.023ZM44.0457 126.703H50.4347L51.0735 125.139H44.8443L44.0457 126.703Z" fill="#D1D3D4"/>
<path d="M58.2167 127.023H51.4252C51.3992 127.022 51.3739 127.015 51.3513 127.002C51.3288 126.989 51.3095 126.97 51.2952 126.949C51.2809 126.927 51.2719 126.902 51.269 126.876C51.2661 126.85 51.2692 126.824 51.2783 126.799L52.0194 124.922C52.0316 124.892 52.0519 124.867 52.0779 124.849C52.104 124.831 52.1347 124.82 52.1664 124.819H58.7278C58.7526 124.82 58.7769 124.826 58.799 124.837C58.8211 124.848 58.8404 124.864 58.8556 124.883C58.8668 124.905 58.8727 124.929 58.8727 124.954C58.8727 124.978 58.8668 125.002 58.8556 125.024L58.3509 126.902C58.3427 126.933 58.3256 126.961 58.3018 126.982C58.278 127.004 58.2484 127.018 58.2167 127.023ZM51.6616 126.703H58.0953L58.517 125.139H52.275L51.6616 126.703Z" fill="#D1D3D4"/>
<path d="M65.8647 127.023H59.0732C59.0494 127.023 59.0261 127.017 59.005 127.006C58.9839 126.995 58.9657 126.979 58.9518 126.959C58.9411 126.937 58.9355 126.913 58.9355 126.889C58.9355 126.864 58.9411 126.84 58.9518 126.818L59.431 124.941C59.4404 124.907 59.4604 124.877 59.4879 124.855C59.5155 124.833 59.5492 124.821 59.5843 124.819H66.1458C66.169 124.819 66.1919 124.825 66.2129 124.835C66.2338 124.844 66.2524 124.859 66.2672 124.877C66.2832 124.894 66.2951 124.914 66.3017 124.936C66.3084 124.959 66.3097 124.982 66.3056 125.005L66.0564 126.882C66.0542 126.905 66.0473 126.926 66.0362 126.946C66.0251 126.966 66.01 126.982 65.9919 126.996C65.9738 127.009 65.9531 127.018 65.9312 127.023C65.9093 127.028 65.8867 127.028 65.8647 127.023ZM59.2777 126.703H65.7305L65.935 125.139H59.6802L59.2777 126.703Z" fill="#D1D3D4"/>
<path d="M73.5182 127.023H66.7203C66.6979 127.024 66.6756 127.019 66.6555 127.009C66.6354 126.999 66.6181 126.984 66.6053 126.966C66.5901 126.949 66.5784 126.93 66.5707 126.909C66.563 126.888 66.5596 126.866 66.5606 126.844L66.7842 124.96C66.7888 124.922 66.8067 124.887 66.8349 124.861C66.863 124.835 66.8994 124.82 66.9376 124.819H73.4991C73.5414 124.819 73.582 124.836 73.612 124.866C73.642 124.896 73.6588 124.937 73.6588 124.979V126.857C73.6585 126.878 73.6538 126.9 73.645 126.92C73.6362 126.94 73.6235 126.957 73.6077 126.972C73.585 126.999 73.5532 127.018 73.5182 127.023ZM66.8992 126.703H73.3585V125.139H67.0973L66.8992 126.703Z" fill="#D1D3D4"/>
<path d="M81.0256 127.023H74.2597C74.2174 127.023 74.1767 127.007 74.1468 126.976C74.1168 126.946 74.1 126.906 74.1 126.863L74.0617 124.986C74.0607 124.964 74.0642 124.943 74.0719 124.923C74.0796 124.903 74.0914 124.885 74.1064 124.87C74.1211 124.854 74.1389 124.842 74.1586 124.833C74.1784 124.824 74.1998 124.819 74.2214 124.819H80.7829C80.8217 124.82 80.859 124.835 80.8882 124.861C80.9174 124.886 80.9366 124.922 80.9426 124.96L81.2109 126.838C81.2141 126.86 81.2124 126.884 81.2057 126.906C81.1991 126.928 81.1878 126.948 81.1726 126.966C81.1541 126.986 81.1313 127.002 81.1058 127.012C81.0803 127.022 81.0529 127.026 81.0256 127.023ZM74.3875 126.703H80.8404L80.6168 125.139H74.3556L74.3875 126.703Z" fill="#D1D3D4"/>
<path d="M88.6923 127.023H81.9072C81.8684 127.022 81.8311 127.008 81.8019 126.982C81.7727 126.956 81.7535 126.921 81.7475 126.882L81.4472 125.005C81.444 124.982 81.4458 124.959 81.4524 124.937C81.459 124.915 81.4703 124.894 81.4856 124.877C81.517 124.842 81.5606 124.822 81.607 124.819H88.1684C88.2035 124.821 88.2373 124.833 88.2649 124.855C88.2924 124.877 88.3123 124.907 88.3218 124.941L88.8521 126.818C88.8628 126.84 88.8683 126.864 88.8683 126.889C88.8683 126.913 88.8628 126.937 88.8521 126.959C88.8338 126.984 88.8093 127.002 88.7811 127.014C88.7529 127.025 88.7223 127.028 88.6923 127.023ZM82.035 126.703H88.4815L88.0407 125.139H81.7922L82.035 126.703Z" fill="#D1D3D4"/>
<path d="M97.3679 127.023H89.5542C89.5199 127.022 89.4867 127.011 89.4592 126.99C89.4318 126.97 89.4114 126.941 89.4008 126.908L88.8386 125.031C88.8198 124.983 88.8198 124.93 88.8386 124.883C88.8538 124.864 88.8732 124.848 88.8953 124.837C88.9174 124.826 88.9417 124.82 88.9664 124.819H96.5118C96.5429 124.819 96.5735 124.828 96.5996 124.845C96.6257 124.862 96.6462 124.887 96.6587 124.915L97.4893 126.793C97.5002 126.817 97.5059 126.843 97.5059 126.87C97.5059 126.896 97.5002 126.922 97.4893 126.947C97.4757 126.967 97.4579 126.985 97.4369 126.998C97.416 127.012 97.3924 127.02 97.3679 127.023ZM89.7011 126.703H97.1443L96.4607 125.139H89.2092L89.7011 126.703Z" fill="#D1D3D4"/>
<path d="M109.053 127.023H98.0132C97.9821 127.023 97.9515 127.014 97.9254 126.997C97.8993 126.98 97.8788 126.956 97.8663 126.927L96.9974 125.043C96.9851 125.019 96.9786 124.993 96.9786 124.966C96.9786 124.94 96.9851 124.913 96.9974 124.889C97.011 124.866 97.0305 124.846 97.0541 124.833C97.0777 124.819 97.1044 124.812 97.1316 124.813H107.859C107.885 124.814 107.912 124.822 107.935 124.835C107.958 124.848 107.978 124.867 107.993 124.889L109.213 126.767C109.229 126.791 109.237 126.819 109.237 126.847C109.237 126.875 109.229 126.903 109.213 126.927C109.199 126.957 109.176 126.983 109.148 127C109.119 127.017 109.087 127.025 109.053 127.023ZM98.1155 126.703H108.76L107.744 125.139H97.4127L98.1155 126.703Z" fill="#D1D3D4"/>
<path d="M112.44 132.207H98.6591C98.6279 132.208 98.5974 132.199 98.5713 132.181C98.5452 132.164 98.5246 132.14 98.5122 132.111L97.5666 129.869C97.5543 129.845 97.5479 129.818 97.5479 129.792C97.5479 129.765 97.5543 129.739 97.5666 129.715C97.5814 129.693 97.6014 129.675 97.6248 129.663C97.6482 129.65 97.6743 129.644 97.7008 129.644H110.964C110.992 129.643 111.019 129.649 111.043 129.663C111.067 129.676 111.086 129.697 111.098 129.721L112.562 131.958C112.577 131.982 112.586 132.011 112.586 132.041C112.586 132.07 112.577 132.099 112.562 132.124C112.549 132.147 112.532 132.166 112.511 132.181C112.49 132.195 112.466 132.204 112.44 132.207ZM98.7677 131.887H112.146L110.868 129.965H97.9563L98.7677 131.887Z" fill="#D1D3D4"/>
<path d="M41.324 135.18H36.462C36.4334 135.18 36.4054 135.172 36.3808 135.157C36.3562 135.142 36.3357 135.122 36.3214 135.097C36.3091 135.072 36.3026 135.045 36.3026 135.017C36.3026 134.989 36.3091 134.962 36.3214 134.937L37.7526 132.476C37.7653 132.451 37.7845 132.43 37.8081 132.416C37.8318 132.401 37.8589 132.393 37.8867 132.393H42.5571C42.5854 132.391 42.6135 132.398 42.6385 132.411C42.6636 132.424 42.6847 132.444 42.6996 132.468C42.7146 132.492 42.7229 132.52 42.7236 132.548C42.7244 132.577 42.7176 132.605 42.704 132.63L41.4646 135.09C41.4511 135.116 41.431 135.138 41.4063 135.154C41.3816 135.17 41.3532 135.179 41.324 135.18ZM36.7431 134.86H41.2154L42.2951 132.713H37.9762L36.7431 134.86Z" fill="#D1D3D4"/>
<path d="M98.2752 135.18H91.6562C91.6219 135.179 91.5888 135.167 91.5613 135.147C91.5338 135.126 91.5134 135.097 91.5029 135.065L90.7809 132.598C90.7702 132.576 90.7646 132.552 90.7646 132.527C90.7646 132.503 90.7702 132.479 90.7809 132.457C90.7961 132.437 90.8155 132.421 90.8376 132.41C90.8597 132.399 90.884 132.393 90.9087 132.393H97.2977C97.3294 132.394 97.3601 132.404 97.3861 132.422C97.4121 132.44 97.4325 132.466 97.4446 132.495L98.4221 134.956C98.4331 134.98 98.4388 135.006 98.4388 135.033C98.4388 135.059 98.4331 135.085 98.4221 135.109C98.4057 135.133 98.3836 135.152 98.3579 135.164C98.3321 135.176 98.3037 135.182 98.2752 135.18ZM91.7776 134.86H98.0388L97.1891 132.713H91.1451L91.7776 134.86Z" fill="#D1D3D4"/>
<path d="M106.326 135.18H99.7067C99.6748 135.18 99.6438 135.17 99.6176 135.151C99.5914 135.133 99.5713 135.107 99.5598 135.077L98.5248 132.617C98.5138 132.593 98.5082 132.566 98.5082 132.54C98.5082 132.513 98.5138 132.487 98.5248 132.463C98.54 132.441 98.5601 132.424 98.5834 132.412C98.6067 132.399 98.6326 132.393 98.659 132.393H105.048C105.077 132.392 105.106 132.401 105.131 132.417C105.156 132.433 105.176 132.455 105.188 132.482L106.466 134.943C106.48 134.967 106.488 134.995 106.488 135.023C106.488 135.051 106.48 135.079 106.466 135.103C106.452 135.128 106.432 135.148 106.407 135.161C106.382 135.175 106.354 135.181 106.326 135.18ZM99.8154 134.86H106.064L104.939 132.713H98.9145L99.8154 134.86Z" fill="#D1D3D4"/>
<path d="M114.376 135.18H107.757C107.729 135.18 107.701 135.173 107.678 135.158C107.654 135.143 107.635 135.122 107.623 135.097L106.268 132.63C106.254 132.607 106.247 132.58 106.247 132.553C106.247 132.526 106.254 132.499 106.268 132.476C106.281 132.451 106.3 132.43 106.324 132.416C106.347 132.401 106.375 132.393 106.402 132.393H112.791C112.818 132.394 112.844 132.402 112.867 132.415C112.891 132.428 112.911 132.447 112.925 132.469L114.529 134.93C114.545 134.955 114.554 134.984 114.554 135.013C114.554 135.043 114.545 135.072 114.529 135.097C114.514 135.124 114.492 135.146 114.465 135.161C114.438 135.176 114.407 135.182 114.376 135.18ZM107.853 134.86H114.082L112.683 132.713H106.683L107.853 134.86Z" fill="#D1D3D4"/>
<path d="M90.0207 135.18H81.14C81.1019 135.179 81.0655 135.164 81.0373 135.138C81.0092 135.112 80.9913 135.077 80.9867 135.039L80.6736 132.572C80.67 132.55 80.6716 132.528 80.6783 132.507C80.6849 132.485 80.6965 132.466 80.712 132.45C80.7262 132.432 80.7446 132.417 80.7657 132.407C80.7868 132.397 80.81 132.392 80.8334 132.393H89.3627C89.3981 132.393 89.4323 132.405 89.4601 132.427C89.4878 132.449 89.5075 132.48 89.516 132.514L90.1549 134.975C90.1661 134.997 90.1719 135.021 90.1719 135.046C90.1719 135.07 90.1661 135.094 90.1549 135.116C90.139 135.136 90.1186 135.153 90.0953 135.164C90.0721 135.175 90.0465 135.181 90.0207 135.18ZM81.2806 134.86H89.8163L89.2413 132.713H81.025L81.2806 134.86Z" fill="#D1D3D4"/>
<path d="M35.4266 135.18H29.4273C29.3968 135.181 29.3668 135.173 29.3407 135.157C29.3147 135.141 29.2937 135.118 29.2803 135.09C29.2664 135.065 29.259 135.036 29.259 135.007C29.259 134.978 29.2664 134.949 29.2803 134.924L30.9798 132.463C30.995 132.442 31.0151 132.424 31.0384 132.412C31.0618 132.399 31.0877 132.393 31.114 132.393H36.8641C36.892 132.392 36.9195 132.4 36.9433 132.415C36.967 132.429 36.9861 132.451 36.9982 132.476C37.0136 132.5 37.0218 132.528 37.0218 132.556C37.0218 132.584 37.0136 132.612 36.9982 132.636L35.5352 135.103C35.523 135.122 35.5072 135.139 35.4885 135.152C35.4699 135.166 35.4488 135.175 35.4266 135.18ZM29.7276 134.86H35.3371L36.6149 132.713H31.1907L29.7276 134.86Z" fill="#D1D3D4"/>
<path d="M28.3025 135.18H22.3033C22.2725 135.181 22.2421 135.173 22.2157 135.157C22.1893 135.141 22.1681 135.118 22.1546 135.09C22.1411 135.062 22.1359 135.031 22.1396 135.001C22.1433 134.97 22.1558 134.941 22.1755 134.917L24.1561 132.457C24.1706 132.438 24.1889 132.423 24.2099 132.411C24.2308 132.4 24.2538 132.394 24.2775 132.393H30.0275C30.058 132.392 30.0881 132.4 30.1141 132.416C30.1401 132.432 30.1611 132.455 30.1745 132.482C30.1885 132.508 30.1958 132.536 30.1958 132.566C30.1958 132.595 30.1885 132.623 30.1745 132.649L28.4303 135.11C28.4158 135.13 28.3967 135.147 28.3745 135.16C28.3524 135.172 28.3278 135.179 28.3025 135.18ZM22.6355 134.86H28.2195L29.74 132.713H24.3541L22.6355 134.86Z" fill="#D1D3D4"/>
<path d="M40.4995 132.207H24.6868C24.6572 132.207 24.6282 132.199 24.6033 132.183C24.5784 132.167 24.5585 132.144 24.5462 132.117C24.5289 132.092 24.5197 132.062 24.5197 132.031C24.5197 132 24.5289 131.97 24.5462 131.944L26.3415 129.702C26.3749 129.666 26.4208 129.646 26.4693 129.644H41.6942C41.7211 129.645 41.7474 129.653 41.7708 129.666C41.7941 129.679 41.8139 129.698 41.8284 129.721C41.8424 129.745 41.8498 129.773 41.8498 129.801C41.8498 129.829 41.8424 129.857 41.8284 129.881L40.6145 132.124C40.603 132.146 40.5867 132.165 40.5667 132.179C40.5468 132.194 40.5238 132.203 40.4995 132.207ZM25.019 131.887H40.4037L41.4451 129.964H26.5651L25.019 131.887Z" fill="#D1D3D4"/>
<path d="M38.8065 129.503H26.8591C26.8299 129.502 26.8015 129.493 26.7768 129.477C26.7521 129.461 26.732 129.439 26.7186 129.413C26.7013 129.388 26.692 129.358 26.692 129.327C26.692 129.296 26.7013 129.266 26.7186 129.24L28.3605 127.19C28.394 127.154 28.4398 127.134 28.4883 127.132H39.9885C40.0172 127.132 40.0454 127.14 40.0702 127.154C40.0949 127.169 40.1153 127.19 40.129 127.215C40.1414 127.24 40.1479 127.268 40.1479 127.295C40.1479 127.323 40.1414 127.351 40.129 127.376L38.9087 129.426C38.8857 129.464 38.8492 129.491 38.8065 129.503ZM27.1914 129.183H38.6915L39.7201 127.452H28.5842L27.1914 129.183Z" fill="#D1D3D4"/>
<path d="M50.9964 132.207H41.0551C41.028 132.207 41.0012 132.2 40.9777 132.187C40.9541 132.173 40.9345 132.154 40.9209 132.13C40.9069 132.106 40.8995 132.078 40.8995 132.05C40.8995 132.022 40.9069 131.994 40.9209 131.97L42.1093 129.727C42.1241 129.702 42.1456 129.68 42.1714 129.666C42.1973 129.651 42.2266 129.644 42.2562 129.644H51.8397C51.866 129.644 51.8919 129.651 51.9153 129.663C51.9386 129.675 51.9587 129.693 51.9739 129.715C51.9852 129.737 51.991 129.763 51.991 129.788C51.991 129.814 51.9852 129.839 51.9739 129.862L51.1561 132.105C51.1439 132.137 51.1218 132.164 51.093 132.182C51.0643 132.201 51.0304 132.209 50.9964 132.207ZM41.3362 131.887H50.8878L51.5905 129.964H42.3457L41.3362 131.887Z" fill="#D1D3D4"/>
<path d="M32.6034 66.2957C32.5604 66.295 32.5182 66.2849 32.4795 66.2661C32.4409 66.2473 32.4068 66.2202 32.3798 66.1868C32.3554 66.1571 32.3372 66.1228 32.3263 66.086C32.3154 66.0492 32.3119 66.0105 32.316 65.9723C32.3202 65.9341 32.3319 65.8971 32.3506 65.8635C32.3692 65.8299 32.3943 65.8004 32.4245 65.7767L98.0712 13.4886C98.1006 13.4587 98.136 13.4355 98.1751 13.4204C98.2141 13.4054 98.2559 13.3989 98.2977 13.4014C98.3395 13.4039 98.3802 13.4152 98.4172 13.4348C98.4543 13.4543 98.4867 13.4816 98.5124 13.5147C98.5381 13.5478 98.5564 13.586 98.5662 13.6268C98.5759 13.6676 98.5769 13.71 98.569 13.7512C98.5611 13.7924 98.5445 13.8315 98.5204 13.8657C98.4963 13.9 98.4651 13.9287 98.429 13.9499L32.7887 66.2316C32.736 66.2736 32.6706 66.2962 32.6034 66.2957Z" fill="white"/>
<path d="M68.8099 70.3522C68.7493 70.3514 68.6904 70.3318 68.6413 70.2961C68.5922 70.2604 68.5554 70.2103 68.5358 70.1527C68.5162 70.0952 68.5148 70.033 68.5319 69.9746C68.5489 69.9163 68.5835 69.8646 68.631 69.8268L107.725 39.6266C107.787 39.5803 107.865 39.5604 107.941 39.5712C108.018 39.582 108.087 39.6226 108.134 39.6842C108.158 39.7143 108.176 39.7489 108.186 39.786C108.197 39.8231 108.2 39.8619 108.195 39.9001C108.19 39.9383 108.178 39.9752 108.158 40.0086C108.139 40.0419 108.114 40.0711 108.083 40.0943L68.9824 70.2946C68.9324 70.3316 68.872 70.3518 68.8099 70.3522Z" fill="white"/>
<path d="M30.8719 33.4683C30.8118 33.4662 30.7538 33.4456 30.7058 33.4094C30.6577 33.3732 30.6218 33.3231 30.603 33.2659C30.5842 33.2086 30.5834 33.1469 30.6006 33.0891C30.6178 33.0314 30.6523 32.9803 30.6994 32.9428L45.8349 21.4471C45.8969 21.4009 45.9746 21.381 46.0512 21.3918C46.1277 21.4026 46.1969 21.4432 46.2438 21.5048C46.2678 21.5349 46.2855 21.5695 46.296 21.6065C46.3064 21.6436 46.3093 21.6824 46.3046 21.7206C46.2998 21.7589 46.2875 21.7958 46.2682 21.8291C46.249 21.8625 46.2233 21.8916 46.1927 21.9149L31.0508 33.4106C30.9985 33.4477 30.936 33.4679 30.8719 33.4683Z" fill="white"/>
</svg>
