<svg width="148" height="111" viewBox="0 0 148 111" fill="none" xmlns="http://www.w3.org/2000/svg">
<path d="M96.1775 4.96163H92.9465L93.3178 1.73071H95.8062L96.1775 4.96163Z" fill="#231F20"/>
<path d="M96.177 5.21259H92.9461C92.9112 5.21201 92.8767 5.20429 92.8449 5.18989C92.8131 5.17549 92.7845 5.15473 92.761 5.12888C92.7375 5.10302 92.7195 5.07263 92.7082 5.03957C92.6969 5.00652 92.6925 4.97149 92.6952 4.93666L93.0665 1.70073C93.0749 1.63997 93.1049 1.58427 93.1509 1.54375C93.197 1.50323 93.256 1.4806 93.3174 1.47998H95.8258C95.8871 1.4806 95.9462 1.50323 95.9922 1.54375C96.0383 1.58427 96.0682 1.63997 96.0767 1.70073L96.4479 4.93666C96.4507 4.97149 96.4462 5.00652 96.4349 5.03957C96.4236 5.07263 96.4057 5.10302 96.3822 5.12888C96.3587 5.15473 96.3301 5.17549 96.2983 5.18989C96.2664 5.20429 96.232 5.21201 96.1971 5.21259H96.177ZM93.227 4.7109H95.8961L95.575 1.98168H93.5281L93.227 4.7109Z" fill="#231F20"/>
<path d="M112.954 4.96163H109.723L110.094 1.73071H112.582L112.954 4.96163Z" fill="#231F20"/>
<path d="M112.954 5.2126H109.723C109.688 5.21202 109.653 5.2043 109.621 5.1899C109.59 5.1755 109.561 5.15474 109.538 5.12888C109.514 5.10303 109.496 5.07264 109.485 5.03958C109.474 5.00652 109.469 4.9715 109.472 4.93667L109.848 1.70073C109.854 1.63997 109.883 1.58371 109.928 1.5429C109.974 1.5021 110.033 1.47967 110.094 1.47999H112.602C112.664 1.47954 112.724 1.5018 112.77 1.54251C112.816 1.58323 112.846 1.63955 112.853 1.70073L113.225 4.93667C113.229 4.97091 113.226 5.00574 113.216 5.03868C113.205 5.07163 113.188 5.10189 113.164 5.12731C113.138 5.15711 113.106 5.18037 113.069 5.19519C113.033 5.21001 112.993 5.21598 112.954 5.2126ZM110.004 4.7109H112.678L112.362 1.97667H110.315L110.004 4.7109Z" fill="#231F20"/>
<path d="M136.182 19.6262H39.9421C34.8549 19.6262 30.731 23.7502 30.731 28.8373V80.8531C30.731 85.9403 34.8549 90.0642 39.9421 90.0642H136.182C141.269 90.0642 145.393 85.9403 145.393 80.8531V28.8373C145.393 23.7502 141.269 19.6262 136.182 19.6262Z" fill="white"/>
<path d="M136.183 90.315H39.9424C37.4338 90.3123 35.0286 89.3146 33.2548 87.5407C31.4809 85.7668 30.4831 83.3616 30.4805 80.853V28.8372C30.4831 26.3286 31.4809 23.9234 33.2548 22.1495C35.0286 20.3756 37.4338 19.3779 39.9424 19.3752H136.183C138.691 19.3779 141.096 20.3756 142.87 22.1495C144.644 23.9234 145.642 26.3286 145.645 28.8372V80.853C145.642 83.3616 144.644 85.7668 142.87 87.5407C141.096 89.3146 138.691 90.3123 136.183 90.315ZM39.9424 19.8769C37.5668 19.8796 35.2893 20.8245 33.6095 22.5043C31.9297 24.1841 30.9848 26.4616 30.9822 28.8372V80.853C30.9848 83.2286 31.9297 85.5061 33.6095 87.1859C35.2893 88.8657 37.5668 89.8106 39.9424 89.8133H136.183C138.558 89.8106 140.836 88.8657 142.516 87.1859C144.195 85.5061 145.14 83.2286 145.143 80.853V28.8372C145.14 26.4616 144.195 24.1841 142.516 22.5043C140.836 20.8245 138.558 19.8796 136.183 19.8769H39.9424Z" fill="#231F20"/>
<path d="M135.52 63.8907H128.732C128.665 63.8907 128.601 63.8643 128.554 63.8173C128.507 63.7702 128.481 63.7064 128.481 63.6399V56.5861C128.482 56.5199 128.509 56.4569 128.556 56.4101C128.603 56.3633 128.666 56.3365 128.732 56.3352H135.52C136.461 56.3365 137.364 56.7112 138.03 57.377C138.696 58.0429 139.07 58.9456 139.072 59.8872V60.3337C139.072 60.8006 138.981 61.263 138.803 61.6946C138.624 62.1261 138.363 62.5182 138.033 62.8486C137.703 63.179 137.311 63.4411 136.88 63.6199C136.449 63.7987 135.986 63.8907 135.52 63.8907ZM128.998 63.389H135.52C136.328 63.389 137.103 63.0684 137.675 62.4974C138.247 61.9264 138.569 61.1519 138.57 60.3438V59.8972C138.569 59.0887 138.247 58.3136 137.675 57.7418C137.103 57.1701 136.328 56.8483 135.52 56.8469H128.998V63.389Z" fill="#D1D3D4"/>
<path d="M145.393 28.8373V29.1835H67.8464L62.9548 35.2039H30.731V28.8373C30.731 26.3944 31.7014 24.0515 33.4288 22.3241C35.1563 20.5967 37.4991 19.6262 39.9421 19.6262H136.182C138.625 19.6262 140.968 20.5967 142.696 22.3241C144.423 24.0515 145.393 26.3944 145.393 28.8373Z" fill="#584475"/>
<path d="M62.9652 35.4295H30.7313C30.6648 35.4295 30.601 35.4031 30.5539 35.356C30.5069 35.309 30.4805 35.2452 30.4805 35.1786V28.8372C30.4831 26.3286 31.4809 23.9234 33.2548 22.1495C35.0286 20.3756 37.4338 19.3779 39.9424 19.3752H136.183C138.691 19.3779 141.096 20.3756 142.87 22.1495C144.644 23.9234 145.642 26.3286 145.645 28.8372V29.1834C145.645 29.2499 145.618 29.3137 145.571 29.3608C145.524 29.4078 145.46 29.4342 145.394 29.4342H67.9822L63.1609 35.3392C63.1381 35.369 63.1084 35.3928 63.0743 35.4086C63.0402 35.4243 63.0027 35.4315 62.9652 35.4295ZM30.9922 34.9278H62.8448L67.6661 29.0279C67.6882 28.9981 67.7169 28.974 67.7501 28.9574C67.7832 28.9409 67.8197 28.9323 67.8568 28.9325H145.143V28.8372C145.14 26.4616 144.195 24.1841 142.516 22.5043C140.836 20.8245 138.558 19.8796 136.183 19.8769H39.9424C37.5668 19.8796 35.2893 20.8245 33.6095 22.5043C31.9297 24.1841 30.9848 26.4616 30.9822 28.8372L30.9922 34.9278Z" fill="#231F20"/>
<path d="M95.1435 3.40674H110.756C113.794 3.40695 116.724 4.53682 118.975 6.57672C121.226 8.61661 122.639 11.4208 122.937 14.444L124.944 35.159H80.9456L82.9523 14.444C83.2513 11.419 84.6651 8.61348 86.9185 6.57335C89.1719 4.53322 92.1038 3.40446 95.1435 3.40674Z" fill="#584475"/>
<path d="M124.95 35.4297H80.9509C80.916 35.4302 80.8814 35.4234 80.8494 35.4095C80.8174 35.3957 80.7887 35.3752 80.7653 35.3494C80.7423 35.3235 80.7247 35.2934 80.7135 35.2606C80.7023 35.2279 80.6977 35.1933 80.7 35.1588L82.7068 14.4388C82.9952 11.3441 84.4317 8.46964 86.7336 6.38132C89.0355 4.293 92.0359 3.14223 95.1438 3.15563H110.757C113.86 3.15091 116.854 4.30598 119.15 6.39428C121.446 8.48259 122.88 11.3535 123.169 14.4438L125.175 35.1638C125.178 35.1983 125.173 35.2329 125.162 35.2657C125.151 35.2984 125.133 35.3286 125.11 35.3544C125.068 35.3986 125.011 35.4254 124.95 35.4297ZM81.2268 34.928H124.674L122.667 14.4839C122.388 11.5196 121.012 8.76623 118.809 6.76349C116.606 4.76075 113.734 3.65299 110.757 3.65733H95.1438C92.163 3.64798 89.2863 4.75349 87.0789 6.75671C84.8714 8.75994 83.4927 11.5161 83.2135 14.4839L81.2268 34.928Z" fill="#231F20"/>
<path d="M113.09 13.1295H93.1221C92.8068 13.1299 92.4957 13.0575 92.213 12.9179C91.9304 12.7784 91.6837 12.5754 91.4924 12.3248C91.3011 12.0742 91.1702 11.7829 91.11 11.4734C91.0499 11.1639 91.062 10.8448 91.1454 10.5407L91.7374 8.35836C91.8562 7.92544 92.1141 7.54359 92.4713 7.27163C92.8285 6.99966 93.2651 6.85266 93.7141 6.85327H112.498C112.946 6.8535 113.383 7.00082 113.74 7.27265C114.097 7.54449 114.355 7.92586 114.474 8.35836L115.066 10.5407C115.149 10.8447 115.16 11.1635 115.099 11.4726C115.039 11.7816 114.908 12.0725 114.717 12.3228C114.526 12.5731 114.279 12.7761 113.997 12.916C113.715 13.0558 113.404 13.1289 113.09 13.1295Z" fill="#231F20"/>
<path d="M113.089 13.38H93.1219C92.7682 13.3802 92.4193 13.2987 92.1023 13.142C91.7853 12.9853 91.5087 12.7575 91.2941 12.4764C91.0795 12.1953 90.9327 11.8685 90.8651 11.5214C90.7975 11.1743 90.811 10.8162 90.9044 10.4751L91.4964 8.29277C91.6303 7.80723 91.9196 7.37897 92.3201 7.0736C92.7207 6.76823 93.2102 6.60259 93.7139 6.60205H112.497C113.001 6.60259 113.491 6.76823 113.891 7.0736C114.292 7.37897 114.581 7.80723 114.715 8.29277L115.307 10.4751C115.399 10.8162 115.412 11.1739 115.344 11.5206C115.276 11.8673 115.129 12.1936 114.915 12.4745C114.7 12.7553 114.424 12.983 114.108 13.1401C113.791 13.2971 113.443 13.3792 113.089 13.38ZM93.7139 7.09873C93.3194 7.09895 92.936 7.22866 92.6224 7.46794C92.3088 7.70721 92.0824 8.04281 91.978 8.4232L91.386 10.6006C91.3136 10.8675 91.3036 11.1474 91.3569 11.4188C91.4101 11.6902 91.5251 11.9456 91.6929 12.1654C91.8608 12.3852 92.077 12.5633 92.3248 12.6861C92.5726 12.8088 92.8454 12.8729 93.1219 12.8732H113.089C113.366 12.8729 113.639 12.8088 113.886 12.6861C114.134 12.5633 114.35 12.3852 114.518 12.1654C114.686 11.9456 114.801 11.6902 114.854 11.4188C114.908 11.1474 114.898 10.8675 114.825 10.6006L114.233 8.4232C114.129 8.0423 113.903 7.70605 113.589 7.46594C113.276 7.22582 112.892 7.09507 112.497 7.09371L93.7139 7.09873Z" fill="#231F20"/>
<path d="M101.651 83.8734C118.145 83.8734 131.517 70.502 131.517 54.0075C131.517 37.513 118.145 24.1416 101.651 24.1416C85.1561 24.1416 71.7847 37.513 71.7847 54.0075C71.7847 70.502 85.1561 83.8734 101.651 83.8734Z" fill="white"/>
<path d="M101.651 84.1241C95.6972 84.1241 89.8774 82.3587 84.9272 79.051C79.977 75.7434 76.1188 71.0422 73.8404 65.5418C71.5621 60.0414 70.966 53.989 72.1275 48.1498C73.289 42.3107 76.1559 36.9471 80.3657 32.7373C84.5755 28.5275 89.9391 25.6605 95.7783 24.4991C101.617 23.3376 107.67 23.9337 113.17 26.212C118.671 28.4904 123.372 32.3486 126.679 37.2988C129.987 42.249 131.753 48.0688 131.753 54.0224C131.739 62.0018 128.564 69.6506 122.921 75.2929C117.279 80.9352 109.63 84.1108 101.651 84.1241ZM101.651 24.4224C95.7965 24.4224 90.0736 26.1584 85.2059 29.4109C80.3382 32.6634 76.5443 37.2862 74.3039 42.6949C72.0636 48.1036 71.4774 54.0552 72.6195 59.7971C73.7617 65.5389 76.5808 70.8131 80.7204 74.9528C84.8601 79.0924 90.1343 81.9115 95.8761 83.0536C101.618 84.1958 107.57 83.6096 112.978 81.3692C118.387 79.1289 123.01 75.335 126.262 70.4673C129.515 65.5996 131.251 59.8767 131.251 54.0224C131.246 46.1713 128.126 38.6429 122.577 33.089C117.028 27.5351 109.502 24.4092 101.651 24.3973V24.4224Z" fill="#231F20"/>
<path d="M101.651 80.3767C96.4351 80.3776 91.3364 78.832 86.9994 75.9351C82.6623 73.0382 79.2818 68.9203 77.2852 64.102C75.2886 59.2838 74.7657 53.9817 75.7826 48.8663C76.7995 43.7508 79.3105 39.0518 82.9981 35.3635C86.6856 31.6753 91.3842 29.1633 96.4994 28.1455C101.615 27.1276 106.917 27.6495 111.735 29.6452C116.554 31.6409 120.673 35.0206 123.57 39.3571C126.468 43.6936 128.015 48.792 128.015 54.0075C128.007 60.9978 125.227 67.6995 120.284 72.6428C115.342 77.586 108.641 80.3674 101.651 80.3767ZM101.651 28.1451C96.5341 28.1442 91.5322 29.6605 87.2776 32.5025C83.0229 35.3445 79.7067 39.3844 77.7482 44.1112C75.7897 48.8381 75.277 54.0396 76.275 59.0578C77.2729 64.0761 79.7367 68.6857 83.3546 72.3036C86.9725 75.9215 91.5821 78.3852 96.6004 79.3832C101.619 80.3811 106.82 79.8684 111.547 77.91C116.274 75.9515 120.314 72.6352 123.156 68.3806C125.998 64.1259 127.514 59.1241 127.513 54.0075C127.505 47.1509 124.778 40.5773 119.929 35.7289C115.081 30.8805 108.507 28.1531 101.651 28.1451Z" fill="#D1D3D4"/>
<path d="M101.651 76.2275C113.923 76.2275 123.871 66.2793 123.871 54.0074C123.871 41.7356 113.923 31.7874 101.651 31.7874C89.3791 31.7874 79.4308 41.7356 79.4308 54.0074C79.4308 66.2793 89.3791 76.2275 101.651 76.2275Z" fill="#231F20"/>
<path d="M101.65 76.4785C97.2057 76.4795 92.8607 75.1624 89.1647 72.6939C85.4687 70.2254 82.5878 66.7162 80.8863 62.6103C79.1847 58.5044 78.739 53.986 79.6055 49.6268C80.472 45.2675 82.6117 41.2631 85.7541 38.12C88.8966 34.9769 92.9005 32.8362 97.2596 31.9688C101.619 31.1013 106.137 31.546 110.243 33.2466C114.35 34.9473 117.859 37.8274 120.329 41.5229C122.798 45.2183 124.116 49.563 124.116 54.0076C124.11 59.9643 121.741 65.6753 117.529 69.8878C113.317 74.1003 107.607 76.4705 101.65 76.4785ZM101.65 32.0383C97.305 32.0373 93.0569 33.325 89.4435 35.7384C85.83 38.1518 83.0133 41.5826 81.3498 45.5968C79.6862 49.6111 79.2504 54.0285 80.0975 58.2905C80.9447 62.5524 83.0366 66.4674 86.1089 69.5404C89.1811 72.6133 93.0957 74.7062 97.3574 75.5543C101.619 76.4024 106.037 75.9676 110.051 74.305C114.066 72.6423 117.497 69.8265 119.912 66.2135C122.326 62.6006 123.615 58.3529 123.615 54.0076C123.608 48.1839 121.292 42.6005 117.174 38.4821C113.057 34.3636 107.474 32.0463 101.65 32.0383Z" fill="#231F20"/>
<path d="M101.651 70.7694C98.3352 70.7704 95.094 69.7882 92.3369 67.947C89.5798 66.1058 87.4307 63.4883 86.1613 60.4256C84.8918 57.3629 84.5592 53.9926 85.2054 50.7408C85.8516 47.489 87.4476 44.5019 89.7915 42.1572C92.1355 39.8126 95.1221 38.2157 98.3737 37.5685C101.625 36.9214 104.996 37.253 108.059 38.5215C111.122 39.79 113.74 41.9384 115.582 44.695C117.424 47.4515 118.407 50.6924 118.407 54.0077C118.402 58.4507 116.635 62.7103 113.494 65.8524C110.353 68.9945 106.094 70.7628 101.651 70.7694ZM101.651 39.2579C98.7319 39.2569 95.8785 40.1215 93.4513 41.7425C91.0241 43.3634 89.1322 45.6677 88.0148 48.364C86.8974 51.0603 86.6048 54.0274 87.174 56.8901C87.7431 59.7527 89.1485 62.3822 91.2123 64.446C93.2761 66.5098 95.9056 67.9152 98.7683 68.4844C101.631 69.0535 104.598 68.7609 107.294 67.6435C109.991 66.5261 112.295 64.6342 113.916 62.207C115.537 59.7798 116.401 56.9264 116.4 54.0077C116.395 50.0975 114.839 46.3489 112.074 43.5839C109.309 40.8189 105.561 39.2632 101.651 39.2579Z" fill="#D1D3D4"/>
<path d="M97.7026 54.6144C100.526 54.6144 102.815 52.3256 102.815 49.5022C102.815 46.6787 100.526 44.3899 97.7026 44.3899C94.8792 44.3899 92.5903 46.6787 92.5903 49.5022C92.5903 52.3256 94.8792 54.6144 97.7026 54.6144Z" fill="white"/>
<path d="M109.944 57.5493C111.9 57.5493 113.486 55.9635 113.486 54.0073C113.486 52.0511 111.9 50.4653 109.944 50.4653C107.988 50.4653 106.402 52.0511 106.402 54.0073C106.402 55.9635 107.988 57.5493 109.944 57.5493Z" fill="white"/>
<path d="M139.217 40.2261C140.483 40.2261 141.51 39.1996 141.51 37.9334C141.51 36.6671 140.483 35.6406 139.217 35.6406C137.951 35.6406 136.924 36.6671 136.924 37.9334C136.924 39.1996 137.951 40.2261 139.217 40.2261Z" fill="#584475"/>
<path d="M47.3018 15.8484H61.0081C61.6308 15.8484 62.228 16.0958 62.6684 16.5361C63.1087 16.9764 63.356 17.5736 63.356 18.1963V19.6211H44.9539V18.2013C44.9532 17.8926 45.0134 17.5867 45.1311 17.3013C45.2488 17.0158 45.4217 16.7564 45.6398 16.5379C45.8579 16.3193 46.1169 16.1459 46.4021 16.0276C46.6873 15.9093 46.993 15.8484 47.3018 15.8484Z" fill="#231F20"/>
<path d="M63.3563 19.8771H44.9541C44.888 19.8758 44.8249 19.849 44.7781 19.8022C44.7314 19.7554 44.7045 19.6924 44.7032 19.6263V18.2014C44.7046 17.5122 44.9786 16.8514 45.4656 16.3635C45.9525 15.8756 46.6127 15.6003 47.302 15.5977H61.0083C61.6976 15.6003 62.3579 15.8756 62.8448 16.3635C63.3317 16.8514 63.6058 17.5122 63.6071 18.2014V19.6263C63.6058 19.6924 63.579 19.7554 63.5322 19.8022C63.4855 19.849 63.4224 19.8758 63.3563 19.8771ZM45.2049 19.3754H63.1054V18.2014C63.1054 17.6448 62.8846 17.1109 62.4915 16.7168C62.0984 16.3227 61.565 16.1007 61.0083 16.0994H47.302C46.7454 16.1007 46.212 16.3227 45.8189 16.7168C45.4257 17.1109 45.2049 17.6448 45.2049 18.2014V19.3754Z" fill="#231F20"/>
<path d="M69.3417 15.8484H76.6715C77.2689 15.8484 77.8419 16.0857 78.2643 16.5082C78.6868 16.9306 78.9241 17.5036 78.9241 18.101V19.6061H67.0891V18.101C67.0891 17.8052 67.1474 17.5123 67.2606 17.239C67.3738 16.9657 67.5397 16.7173 67.7489 16.5082C67.9581 16.299 68.2064 16.1331 68.4797 16.0199C68.753 15.9067 69.0459 15.8484 69.3417 15.8484Z" fill="white"/>
<path d="M78.9238 19.877H67.0889C67.0223 19.877 66.9585 19.8505 66.9115 19.8035C66.8644 19.7564 66.838 19.6926 66.838 19.6261V18.121C66.838 17.4557 67.1023 16.8177 67.5727 16.3473C68.0432 15.8768 68.6812 15.6125 69.3465 15.6125H76.6763C77.3415 15.6125 77.9796 15.8768 78.45 16.3473C78.9204 16.8177 79.1847 17.4557 79.1847 18.121V19.6261C79.1848 19.6599 79.1779 19.6934 79.1647 19.7245C79.1515 19.7556 79.1321 19.7837 79.1077 19.8071C79.0834 19.8306 79.0545 19.8488 79.0229 19.8608C78.9913 19.8728 78.9576 19.8783 78.9238 19.877ZM67.3397 19.3753H78.673V18.101C78.673 17.5687 78.4616 17.0583 78.0852 16.6819C77.7089 16.3056 77.1985 16.0942 76.6662 16.0942H69.3415C68.8092 16.0942 68.2988 16.3056 67.9225 16.6819C67.5461 17.0583 67.3347 17.5687 67.3347 18.101L67.3397 19.3753Z" fill="#231F20"/>
<path d="M51.3456 26.5446C52.2572 26.5446 52.9962 25.8056 52.9962 24.894C52.9962 23.9824 52.2572 23.2434 51.3456 23.2434C50.4341 23.2434 49.6951 23.9824 49.6951 24.894C49.6951 25.8056 50.4341 26.5446 51.3456 26.5446Z" fill="white"/>
<path d="M72.7382 24.1465H56.2324C55.8195 24.1465 55.4849 24.4812 55.4849 24.894C55.4849 25.3069 55.8195 25.6415 56.2324 25.6415H72.7382C73.151 25.6415 73.4857 25.3069 73.4857 24.894C73.4857 24.4812 73.151 24.1465 72.7382 24.1465Z" fill="white"/>
<path d="M12.494 69.7658C12.494 69.7658 19.3973 15.3569 27.0833 9.24628C28.2924 8.28303 48.5007 5.19259 49.6596 4.96181C52.9557 4.31462 66.3661 7.67598 66.5567 8.93022C66.7474 10.1845 65.8493 15.5175 60.6768 15.8486C55.5044 16.1797 47.3618 15.8486 47.3618 15.8486L38.2159 20.2184L37.5888 40.226" fill="white"/>
<path d="M12.4945 70.0166H12.4644C12.4316 70.0129 12.3998 70.0026 12.371 69.9864C12.3422 69.9701 12.317 69.9482 12.2968 69.922C12.2767 69.8958 12.262 69.8658 12.2538 69.8337C12.2455 69.8017 12.2438 69.7684 12.2487 69.7357C12.2487 69.6002 14.0047 55.9641 16.6636 41.7561C20.2357 22.6315 23.6874 11.6544 26.9283 9.05059C27.8364 8.32815 37.7047 6.65248 47.237 5.11228C48.4912 4.9116 49.3993 4.76611 49.615 4.72096C52.6252 4.12394 64.2143 6.84313 66.3967 8.37831C66.5939 8.48566 66.7414 8.66563 66.8081 8.88001C66.8699 10.6702 66.2958 12.4245 65.1876 13.8317C64.6428 14.5115 63.9569 15.065 63.1774 15.4539C62.3978 15.8428 61.5431 16.0579 60.6724 16.0844C55.7808 16.4004 48.1601 16.1195 47.3925 16.0844L38.4422 20.3588L37.8201 40.2109C37.8163 40.2774 37.7871 40.34 37.7386 40.3857C37.6901 40.4314 37.6259 40.4568 37.5593 40.4567C37.5263 40.4554 37.4939 40.4476 37.464 40.4338C37.434 40.42 37.4071 40.4004 37.3848 40.3762C37.3624 40.352 37.345 40.3236 37.3336 40.2926C37.3223 40.2617 37.3171 40.2288 37.3184 40.1958L37.9456 20.1932C37.9458 20.1469 37.9591 20.1017 37.984 20.0626C38.0088 20.0236 38.0442 19.9923 38.086 19.9725L47.2319 15.6027C47.2718 15.5957 47.3125 15.5957 47.3523 15.6027C47.4326 15.6027 55.535 15.9338 60.6372 15.6027C61.4356 15.5783 62.2192 15.3808 62.9338 15.0239C63.6484 14.667 64.277 14.1593 64.7762 13.5357C65.7982 12.2397 66.331 10.6251 66.2813 8.97533C65.9502 8.07228 53.182 4.52529 49.6802 5.21262C49.4595 5.25777 48.5965 5.39824 47.2871 5.60896C42.5511 6.37655 28.1424 8.70442 27.2193 9.44693C19.724 15.4472 12.7956 69.254 12.7454 69.7959C12.737 69.8566 12.707 69.9123 12.661 69.9528C12.6149 69.9933 12.5559 70.016 12.4945 70.0166Z" fill="#231F20"/>
<path d="M46.0683 109.435L48.2005 95.8487C48.2005 95.8487 61.074 92.0459 59.303 66.0832C62.9051 73.6989 73.6464 74.2909 75.5328 71.1754C77.4192 68.0598 76.9727 60.7652 70.0142 58.5327C70.0142 58.5327 74.9258 59.6866 75.2569 55.9439C75.588 52.2013 75.6482 48.5339 71.0627 47.5957C71.0627 47.5957 75.4074 48.1275 75.5278 44.3899C75.6482 40.6522 68.8051 35.9513 65.4738 33.5081C62.1426 31.0648 57.4467 29.3892 54.2609 30.0966C51.0752 30.804 20.9785 39.408 13.453 46.3063C6.56978 50.947 1.36218 109.018 1.36218 109.018L6.43432 109.47L46.0683 109.435Z" fill="white"/>
<path d="M46.0678 109.686H6.43389L1.33666 109.229C1.27094 109.224 1.20983 109.193 1.16609 109.144C1.12545 109.091 1.1058 109.025 1.1109 108.958C1.32161 106.585 6.4088 50.7267 13.3121 46.076C20.9881 39.0272 51.7169 30.3779 54.1953 29.8261C57.2506 29.1488 61.9465 30.5686 65.6139 33.2777L66.4216 33.8748C69.9686 36.4685 75.8986 40.8132 75.7832 44.4104C75.7896 44.8831 75.6944 45.3518 75.504 45.7845C75.3135 46.2173 75.0324 46.6041 74.6795 46.9188C74.0783 47.3995 73.3561 47.7051 72.5924 47.8018C75.8083 49.1815 75.8233 52.4475 75.5123 55.9644C75.4945 56.4074 75.3781 56.8408 75.1715 57.2331C74.9649 57.6254 74.6734 57.9667 74.3183 58.2321C73.5439 58.7313 72.6353 58.9816 71.7145 58.9495C73.7571 59.9545 75.3357 61.7055 76.1244 63.841C77.2181 66.7559 76.7214 69.6908 75.7481 71.3062C74.9655 72.5956 72.8132 73.313 70.1341 73.1776C66.7376 73.007 62.107 71.3263 59.5985 67.2074C59.9798 74.5372 59.3427 84.2048 54.5816 90.8473C51.9025 94.5999 49.0629 95.794 48.3856 96.0398L46.2785 109.475C46.2698 109.528 46.2448 109.577 46.207 109.614C46.1692 109.652 46.1205 109.677 46.0678 109.686ZM1.62263 108.763L6.44894 109.194H45.8571L47.9542 95.8191C47.9622 95.7727 47.9828 95.7295 48.0138 95.694C48.0448 95.6586 48.0849 95.6325 48.1298 95.6184C48.2552 95.5833 60.7825 91.5396 59.0517 66.1087C59.0476 66.051 59.064 65.9937 59.0979 65.9469C59.1319 65.9002 59.1812 65.8668 59.2373 65.8528C59.294 65.8368 59.3545 65.8416 59.408 65.8665C59.4614 65.8914 59.5041 65.9346 59.5283 65.9883C61.7307 70.644 66.6323 72.5103 70.1592 72.6909C72.6175 72.8163 74.6394 72.1892 75.3166 71.0554C76.1996 69.5955 76.6813 66.7709 75.6578 64.0317C75.1821 62.771 74.4173 61.6395 73.4249 60.728C72.4324 59.8166 71.24 59.1508 69.9435 58.7839C69.877 58.766 69.8203 58.7223 69.7859 58.6626C69.7516 58.6028 69.7424 58.5319 69.7604 58.4653C69.7783 58.3988 69.822 58.3421 69.8817 58.3078C69.9415 58.2735 70.0124 58.2643 70.0789 58.2822C70.0789 58.2822 72.5874 58.8542 74.0223 57.8207C74.3222 57.5989 74.5682 57.3123 74.742 56.9822C74.9157 56.6521 75.0127 56.287 75.0257 55.9142C75.3768 52.0161 75.3116 48.7149 71.0121 47.8369C70.9456 47.8263 70.886 47.7896 70.8465 47.7351C70.807 47.6805 70.7907 47.6125 70.8014 47.5459C70.812 47.4794 70.8487 47.4198 70.9032 47.3803C70.9578 47.3408 71.0258 47.3246 71.0924 47.3352C71.0924 47.3352 73.1343 47.566 74.3534 46.5225C74.6524 46.2518 74.8895 45.9199 75.0488 45.5494C75.2081 45.1789 75.2858 44.7784 75.2765 44.3752C75.3819 41.049 69.5873 36.8047 66.1206 34.2711L65.3128 33.6741C61.801 31.0803 57.1753 29.6605 54.2755 30.3077C51.8122 30.8545 21.2289 39.4536 13.583 46.4573C7.10616 50.8571 2.00894 104.604 1.62263 108.763Z" fill="#231F20"/>
<path d="M31.629 50.7214C31.5721 50.7216 31.5168 50.7025 31.4722 50.6672C31.4276 50.632 31.3964 50.5826 31.3835 50.5271C31.3707 50.4717 31.3771 50.4136 31.4016 50.3623C31.4262 50.311 31.4674 50.2696 31.5186 50.2448C32.231 49.8886 49.103 41.5353 54.1701 41.8564C59.2373 42.1775 70.6809 47.1493 71.1676 47.3751C71.228 47.4025 71.2752 47.4527 71.2987 47.5147C71.3222 47.5768 71.3201 47.6457 71.293 47.7062C71.2805 47.7364 71.262 47.7638 71.2386 47.7866C71.2152 47.8094 71.1874 47.8273 71.1569 47.839C71.1264 47.8507 71.0938 47.8561 71.0611 47.8549C71.0285 47.8536 70.9964 47.8457 70.9669 47.8316C70.8465 47.7815 59.1068 42.6742 54.14 42.3682C49.1732 42.0621 31.9149 50.616 31.7393 50.7013C31.705 50.7176 31.6669 50.7246 31.629 50.7214Z" fill="#231F20"/>
<path d="M75.2615 62.8525C75.2187 62.8533 75.1767 62.8411 75.1411 62.8174C74.9805 62.7271 58.9564 53.7066 56.8994 53.2501C55.2388 52.8688 47.7937 56.3907 45.0694 57.7653C45.0399 57.7809 45.0075 57.7903 44.9742 57.7932C44.9409 57.796 44.9074 57.7922 44.8757 57.7819C44.8439 57.7716 44.8145 57.7551 44.7892 57.7333C44.7639 57.7115 44.7432 57.6849 44.7283 57.655C44.6999 57.5955 44.6955 57.5274 44.716 57.4647C44.7366 57.4021 44.7805 57.3499 44.8387 57.3188C45.245 57.1131 54.8324 52.2718 57.0098 52.7534C59.1872 53.235 74.7246 62.0047 75.3869 62.3759C75.4437 62.4095 75.4854 62.4638 75.5031 62.5273C75.5209 62.5909 75.5134 62.6589 75.4822 62.7171C75.4617 62.758 75.4301 62.7923 75.3911 62.8162C75.3521 62.8402 75.3072 62.8527 75.2615 62.8525Z" fill="#231F20"/>
<path d="M90.177 98.9895C91.5667 102.501 92.9162 106.299 93.9798 109.435H146.658C143.853 95.0913 137.532 62.461 137.346 58.4124C137.111 53.1997 135.365 36.102 130.368 35.6404C125.371 35.1789 125.135 42.0621 126.108 48.2982C127.082 54.5343 125.677 66.0181 120.695 70.6337C107.676 82.7195 98.1188 79.8197 91.0048 76.2175C73.1243 67.187 80.0126 41.6006 78.0259 39.4282C73.6712 34.6872 65.7344 39.7092 67.3097 50.4655C67.3097 50.4655 60.0803 55.5778 64.3246 72.5401C69.0957 91.5895 87.0464 91.153 90.177 98.9895Z" fill="white"/>
<path d="M146.653 109.686H93.975C93.9219 109.686 93.8701 109.67 93.8268 109.639C93.7836 109.609 93.7511 109.565 93.7342 109.515C92.3896 105.557 91.1153 102.045 89.9363 99.0848C88.7924 96.195 85.4712 94.409 81.6282 92.347C75.1363 88.8603 67.0791 84.5256 64.0689 72.5903C60.0905 56.6916 66.0506 51.1478 67.0339 50.3602C66.1158 43.793 68.7497 39.4031 71.79 37.9583C72.8506 37.4252 74.0597 37.2645 75.2227 37.502C76.3857 37.7395 77.435 38.3614 78.2017 39.2677C78.7686 39.8848 78.7034 41.7762 78.6181 44.8967C78.3572 53.4255 77.8756 69.3042 91.1103 76.0018C98.6106 79.7996 107.967 82.1074 120.515 70.4832C125.456 65.8926 126.801 54.4891 125.843 48.3634C125.205 44.2696 124.91 38.8964 127.122 36.5435C127.535 36.1103 128.045 35.7819 128.611 35.5856C129.176 35.3893 129.78 35.3307 130.373 35.4147C136.393 35.9715 137.572 58.2017 137.582 58.4274C137.768 62.4711 144.155 95.4325 146.889 109.415C146.896 109.451 146.895 109.488 146.886 109.523C146.877 109.558 146.861 109.592 146.839 109.62C146.814 109.643 146.784 109.661 146.752 109.672C146.721 109.683 146.687 109.688 146.653 109.686ZM94.1606 109.184H146.337C143.568 95.0261 137.266 62.4711 137.081 58.4224C136.846 54.011 136.277 49.6236 135.38 45.2981C134.075 39.3279 132.33 36.0769 130.328 35.8913C129.812 35.814 129.284 35.8616 128.79 36.0301C128.296 36.1985 127.85 36.483 127.488 36.8595C125.306 39.1824 125.833 45.0021 126.339 48.2631C127.313 54.4941 125.923 66.1184 120.856 70.8394C108.118 82.6744 98.5454 80.3264 90.8895 76.4533C77.3739 69.6102 77.8455 53.5208 78.1264 44.8816C78.2067 42.3029 78.2719 40.0754 77.8404 39.6088C77.1438 38.7797 76.1875 38.2102 75.1267 37.9926C74.0658 37.7749 72.9625 37.9219 71.9957 38.4098C69.1009 39.7894 66.6025 44.0388 67.5406 50.4505C67.5479 50.4958 67.5418 50.5422 67.5231 50.5841C67.5044 50.6259 67.4739 50.6615 67.4353 50.6863C67.365 50.7415 60.4115 55.934 64.5455 72.4799C67.4804 84.2045 75.4474 88.479 81.849 91.9156C85.7823 94.0277 89.1788 95.8539 90.3778 98.9393C91.5618 101.824 92.8311 105.286 94.1606 109.184Z" fill="#231F20"/>
<path d="M84.5385 84.1246C84.4881 84.1243 84.4391 84.1085 84.398 84.0794C68.9357 73.7395 67.0945 50.7167 67.0795 50.4659C67.0767 50.4332 67.0806 50.4002 67.0908 50.3691C67.101 50.3379 67.1173 50.309 67.1388 50.2842C67.1603 50.2595 67.1866 50.2392 67.216 50.2248C67.2454 50.2103 67.2775 50.2019 67.3103 50.2C67.376 50.1958 67.4407 50.2177 67.4905 50.2609C67.5402 50.304 67.571 50.3651 67.5761 50.4307C67.5761 50.6615 69.4224 73.4385 84.679 83.643C84.7343 83.6807 84.7726 83.7386 84.7858 83.8042C84.7989 83.8699 84.7858 83.9381 84.7492 83.9941C84.7276 84.0317 84.6971 84.0632 84.6603 84.086C84.6235 84.1087 84.5817 84.122 84.5385 84.1246Z" fill="#231F20"/>
</svg>
