<svg width="160" height="120" viewBox="0 0 160 120" fill="none" xmlns="http://www.w3.org/2000/svg">
<path d="M76.1782 115.2C117.808 115.2 151.556 112.707 151.556 109.631C151.556 106.556 117.808 104.062 76.1782 104.062C34.548 104.062 0.800049 106.556 0.800049 109.631C0.800049 112.707 34.548 115.2 76.1782 115.2Z" fill="#D1D3D4"/>
<path d="M126.011 34.5831C127.121 34.5644 128.223 34.7648 129.256 35.1727C130.288 35.5806 131.23 36.1881 132.028 36.9603C132.825 37.7325 133.462 38.6544 133.903 39.6731C134.344 40.6919 134.58 41.7876 134.597 42.8975V100.919C134.564 102.844 133.769 104.677 132.387 106.017C131.005 107.357 129.148 108.095 127.224 108.069H45.481C43.5561 108.095 41.6994 107.357 40.3174 106.017C38.9354 104.677 38.1409 102.844 38.1077 100.919V32.958C38.1409 31.0332 38.9354 29.2 40.3174 27.8599C41.6994 26.5197 43.5561 25.7818 45.481 25.8078H77.0119C82.0132 25.8078 86.0637 29.7419 86.0637 34.5879H126.011V34.5831Z" fill="#231F20"/>
<path d="M127.209 108.312H45.4814C43.4918 108.339 41.5726 107.576 40.1449 106.19C38.7172 104.804 37.8974 102.909 37.8655 100.919V32.9579C37.8974 30.9684 38.7172 29.0728 40.1449 27.6869C41.5726 26.301 43.4918 25.5379 45.4814 25.5652H77.0123C82.0524 25.5652 86.1708 29.4847 86.3018 34.3501H126.011C130.862 34.3501 134.82 38.1872 134.82 42.9023V100.919C134.789 102.908 133.969 104.803 132.543 106.188C131.116 107.574 129.198 108.338 127.209 108.312ZM45.4814 26.0454C43.6196 26.0182 41.8231 26.7307 40.4862 28.0267C39.1493 29.3227 38.3812 31.0962 38.3506 32.9579V100.919C38.3825 102.78 39.1511 104.552 40.4879 105.847C41.8247 107.142 43.6205 107.854 45.4814 107.827H127.209C129.07 107.854 130.866 107.142 132.203 105.847C133.54 104.552 134.308 102.78 134.34 100.919V42.8974C134.34 38.4492 130.605 34.8255 126.011 34.8255H86.0883C86.024 34.8255 85.9623 34.8 85.9168 34.7545C85.8713 34.709 85.8458 34.6473 85.8458 34.583C85.8458 29.8776 81.8923 26.0454 77.0365 26.0454H45.4814Z" fill="#231F20"/>
<path d="M51.4038 98.5519V8.20386H111.637L125.715 22.286V96.9851L51.4038 98.5519Z" fill="#1DC9B7"/>
<path d="M118.261 26.9577H57.5762C57.5446 26.9578 57.5133 26.9515 57.4842 26.9392C57.455 26.927 57.4286 26.909 57.4064 26.8864C57.3843 26.8638 57.3669 26.8371 57.3552 26.8077C57.3436 26.7783 57.3379 26.7468 57.3386 26.7152C57.3385 26.6517 57.3634 26.5907 57.4079 26.5454C57.4523 26.5 57.5128 26.4739 57.5762 26.4727H118.261C118.324 26.4739 118.385 26.5 118.429 26.5454C118.474 26.5907 118.499 26.6517 118.499 26.7152C118.499 26.7468 118.494 26.7783 118.482 26.8077C118.47 26.8371 118.453 26.8638 118.431 26.8864C118.409 26.909 118.382 26.927 118.353 26.9392C118.324 26.9515 118.293 26.9578 118.261 26.9577Z" fill="white"/>
<path d="M118.26 36.6492H57.5754C57.5111 36.6492 57.4494 36.6236 57.4039 36.5781C57.3584 36.5326 57.3329 36.4709 57.3329 36.4066C57.3329 36.3423 57.3584 36.2806 57.4039 36.2351C57.4494 36.1896 57.5111 36.1641 57.5754 36.1641H118.26C118.325 36.1641 118.386 36.1896 118.432 36.2351C118.477 36.2806 118.503 36.3423 118.503 36.4066C118.503 36.4709 118.477 36.5326 118.432 36.5781C118.386 36.6236 118.325 36.6492 118.26 36.6492Z" fill="white"/>
<path d="M118.261 46.3415H57.5762C57.5128 46.3403 57.4523 46.3141 57.4079 46.2688C57.3634 46.2235 57.3385 46.1625 57.3386 46.099C57.3379 46.0674 57.3436 46.0359 57.3552 46.0065C57.3669 45.9771 57.3843 45.9504 57.4064 45.9278C57.4286 45.9052 57.455 45.8872 57.4842 45.875C57.5133 45.8627 57.5446 45.8564 57.5762 45.8564H118.261C118.293 45.8564 118.324 45.8627 118.353 45.875C118.382 45.8872 118.409 45.9052 118.431 45.9278C118.453 45.9504 118.47 45.9771 118.482 46.0065C118.494 46.0359 118.499 46.0674 118.499 46.099C118.499 46.1625 118.474 46.2235 118.429 46.2688C118.385 46.3141 118.324 46.3403 118.261 46.3415Z" fill="white"/>
<path d="M118.26 56.029H57.5754C57.5111 56.029 57.4494 56.0035 57.4039 55.958C57.3584 55.9125 57.3329 55.8508 57.3329 55.7865C57.3329 55.7222 57.3584 55.6605 57.4039 55.615C57.4494 55.5695 57.5111 55.5439 57.5754 55.5439H118.26C118.325 55.5439 118.386 55.5695 118.432 55.615C118.477 55.6605 118.503 55.7222 118.503 55.7865C118.503 55.8508 118.477 55.9125 118.432 55.958C118.386 56.0035 118.325 56.029 118.26 56.029Z" fill="white"/>
<path d="M65.7491 15.31H57.75C57.6857 15.31 57.624 15.2845 57.5785 15.239C57.533 15.1935 57.5074 15.1318 57.5074 15.0675C57.5087 15.0036 57.5346 14.9426 57.5799 14.8974C57.6251 14.8521 57.6861 14.8262 57.75 14.825H65.7491C65.8126 14.8262 65.8731 14.8523 65.9175 14.8977C65.9619 14.943 65.9868 15.004 65.9868 15.0675C65.9875 15.0991 65.9818 15.1305 65.9701 15.1599C65.9585 15.1894 65.9411 15.2161 65.9189 15.2387C65.8968 15.2613 65.8704 15.2792 65.8412 15.2915C65.8121 15.3037 65.7808 15.31 65.7491 15.31Z" fill="white"/>
<path d="M30.1677 51.595C29.1539 51.9831 27.4803 52.3469 27.0486 50.9353C26.9792 50.6845 26.9578 50.4228 26.9855 50.164C27.0215 49.7838 27.0897 49.4073 27.1893 49.0386C27.4592 48.0008 27.8179 46.9881 28.2613 46.0117C28.368 45.7643 28.5766 45.4684 28.8289 45.5557C29.0811 45.643 29.0811 45.9146 29.0763 46.1378C29.0763 46.7781 28.9695 47.4233 28.9841 48.0781C30.3326 47.7337 31.1816 46.3076 32.4622 46.002C32.826 45.9146 33.2626 45.8904 33.3014 46.3561C33.3499 46.9333 32.307 47.3893 31.9577 47.6901C32.3471 47.3526 32.7963 47.091 33.282 46.9188C33.4172 46.8579 33.5663 46.8345 33.7137 46.8509C33.787 46.8598 33.8553 46.8927 33.9079 46.9445C33.9606 46.9962 33.9946 47.0639 34.0048 47.1371C33.9955 47.2596 33.94 47.374 33.8495 47.4572C33.6513 47.6831 33.4302 47.888 33.1898 48.0684C33.4304 47.7869 33.7583 47.5939 34.1212 47.5203C34.2108 47.4904 34.3072 47.4873 34.3986 47.5114C34.4899 47.5356 34.5722 47.5859 34.6354 47.6561C34.7809 47.9035 34.4947 48.1752 34.2473 48.3158C34.4452 48.1407 34.6864 48.0218 34.9459 47.9714C35.0754 47.9496 35.2083 47.9781 35.3175 48.0511C35.4266 48.1242 35.5037 48.2363 35.5328 48.3643C35.5267 48.4663 35.4988 48.5658 35.4511 48.6561C35.4034 48.7465 35.337 48.8256 35.2563 48.8882C33.9272 50.1834 31.8752 50.9353 30.1677 51.595Z" fill="white"/>
<path d="M28.5422 52.1869C28.2278 52.1941 27.9158 52.1293 27.6302 51.9977C27.434 51.9021 27.26 51.7664 27.1196 51.5993C26.9792 51.4321 26.8755 51.2373 26.8153 51.0275C26.7367 50.7469 26.712 50.4539 26.7425 50.1641C26.782 49.7712 26.8518 49.382 26.9511 48.9998C27.2271 47.9494 27.5906 46.9239 28.0377 45.9341C28.2414 45.449 28.5761 45.2355 28.906 45.3471C29.1 45.4102 29.3329 45.6091 29.3183 46.1669C29.3183 46.4386 29.3183 46.7151 29.2747 46.9916C29.231 47.2681 29.2359 47.4767 29.2262 47.7483C29.7275 47.5134 30.1917 47.2061 30.6038 46.8363C31.1156 46.3506 31.7309 45.9873 32.4035 45.774C32.5482 45.7224 32.7021 45.7022 32.8552 45.7148C33.0083 45.7273 33.1569 45.7723 33.2912 45.8468C33.3657 45.9047 33.4268 45.978 33.4704 46.0617C33.5139 46.1454 33.5388 46.2376 33.5435 46.3318C33.5511 46.4234 33.5412 46.5156 33.5144 46.6035C33.5947 46.5914 33.6765 46.5914 33.7569 46.6035C33.8833 46.6233 33.9995 46.6846 34.0874 46.7777C34.1752 46.8707 34.2296 46.9903 34.242 47.1177C34.2448 47.1613 34.2448 47.2051 34.242 47.2487C34.3582 47.2347 34.476 47.2526 34.5828 47.3004C34.6896 47.3483 34.7814 47.4243 34.8483 47.5203C34.8824 47.5822 34.9054 47.6495 34.9163 47.7192C35.1371 47.6967 35.3581 47.761 35.5323 47.8987C35.5984 47.9522 35.653 48.0184 35.693 48.0934C35.733 48.1684 35.7575 48.2506 35.7652 48.3353C35.7651 48.4731 35.7341 48.6091 35.6745 48.7334C35.6149 48.8576 35.5282 48.9669 35.4208 49.0532C34.1159 50.3387 32.1852 51.0809 30.4777 51.7358L30.2497 51.8231C29.7062 52.0434 29.1283 52.1666 28.5422 52.1869ZM28.7411 45.7837C28.6829 45.7837 28.5664 45.9147 28.484 46.1039C28.0472 47.0686 27.6919 48.0681 27.4216 49.092C27.3292 49.4506 27.2627 49.8153 27.2227 50.1835C27.1994 50.4115 27.2192 50.6419 27.2809 50.8626C27.3175 51.0133 27.3869 51.154 27.4842 51.2748C27.5814 51.3955 27.7042 51.4933 27.8437 51.5611C28.5082 51.8861 29.5318 51.5611 30.0799 51.3671L30.3079 51.2798C31.9718 50.6395 33.8539 49.9167 35.086 48.7039C35.1782 48.6118 35.2995 48.4808 35.2898 48.3741C35.2871 48.3536 35.2801 48.3339 35.2692 48.3164C35.2583 48.2988 35.2439 48.2837 35.2267 48.2722C35.1911 48.2429 35.1501 48.221 35.1059 48.2077C35.0618 48.1944 35.0155 48.1899 34.9696 48.1946C34.838 48.2177 34.7135 48.2708 34.6058 48.3498C34.5303 48.41 34.4509 48.4651 34.3681 48.5148C34.314 48.5448 34.2507 48.5535 34.1905 48.5391C34.1304 48.5247 34.0778 48.4884 34.0431 48.4371C34.0097 48.3849 33.9971 48.322 34.0079 48.2609C34.0187 48.1998 34.052 48.145 34.1013 48.1073L34.3099 47.9569C34.3649 47.9164 34.407 47.8608 34.4312 47.7968C34.4069 47.7386 34.3099 47.7144 34.1692 47.7435C34.0188 47.7719 33.8744 47.8261 33.7423 47.9035C33.6114 48.0248 33.4755 48.1412 33.3349 48.248C33.2877 48.2869 33.2275 48.3066 33.1663 48.303C33.1052 48.2994 33.0477 48.2729 33.0054 48.2287C32.963 48.1845 32.939 48.1259 32.938 48.0647C32.937 48.0035 32.9592 47.9442 33.0002 47.8987C33.1289 47.7493 33.2793 47.6202 33.4464 47.5155C33.5241 47.4427 33.5968 47.3651 33.6696 47.2826C33.7423 47.2002 33.7617 47.1468 33.7617 47.1371C33.7617 47.1274 33.7229 47.0837 33.6696 47.074C33.563 47.0695 33.4568 47.0894 33.3591 47.1322C33.1928 47.1924 33.0308 47.2637 32.874 47.3457C32.7431 47.4427 32.6072 47.53 32.4763 47.6125C32.3538 47.6867 32.2356 47.7677 32.1221 47.855C32.0718 47.8949 32.0082 47.9142 31.9442 47.9087C31.8802 47.9033 31.8206 47.8737 31.7777 47.8259C31.7333 47.7806 31.7084 47.7196 31.7084 47.6561C31.7084 47.5927 31.7333 47.5317 31.7777 47.4864C32.0257 47.2716 32.2975 47.086 32.5878 46.9334C32.8401 46.749 33.0729 46.5404 33.039 46.3561C33.039 46.2494 32.9953 46.2203 32.9856 46.2154C32.9759 46.2106 32.8352 46.1378 32.5005 46.2154C31.8995 46.4147 31.3508 46.7462 30.8949 47.1856C30.3621 47.6858 29.7263 48.0633 29.0321 48.2916C28.9963 48.3003 28.959 48.3009 28.9229 48.2934C28.8868 48.2858 28.8528 48.2703 28.8235 48.248C28.7949 48.2261 28.7714 48.1983 28.7547 48.1665C28.7379 48.1347 28.7283 48.0996 28.7265 48.0636C28.723 47.6847 28.7392 47.3058 28.775 46.9285C28.775 46.6617 28.8138 46.3949 28.8187 46.1281C28.8235 45.8613 28.7799 45.7934 28.7362 45.7837C28.6926 45.774 28.7459 45.7837 28.7411 45.7837Z" fill="#231F20"/>
<path d="M29.047 48.1216C29.3541 48.4927 29.5253 48.9574 29.5324 49.4391C29.5394 49.9207 29.3819 50.3903 29.0858 50.7702H29.2216" fill="white"/>
<path d="M29.0864 51.013C29.0405 51.0138 28.9954 51.0014 28.9564 50.9771C28.9174 50.9529 28.8863 50.9178 28.8669 50.8763C28.8474 50.8347 28.8403 50.7884 28.8466 50.743C28.8528 50.6975 28.8721 50.6548 28.9021 50.6201C29.1609 50.2836 29.2984 49.8695 29.2922 49.4451C29.2861 49.0206 29.1366 48.6107 28.8681 48.2819C28.8234 48.2358 28.7983 48.174 28.7983 48.1097C28.7983 48.0454 28.8234 47.9837 28.8681 47.9375C28.8918 47.9164 28.9195 47.9003 28.9495 47.8901C28.9796 47.8799 29.0114 47.8758 29.043 47.878C29.0747 47.8803 29.1055 47.8889 29.1338 47.9033C29.1621 47.9176 29.1872 47.9375 29.2077 47.9618C29.5212 48.337 29.7106 48.8003 29.7497 49.2877C29.7888 49.7752 29.6757 50.2627 29.426 50.6831C29.431 50.7055 29.431 50.7287 29.426 50.751C29.4287 50.8151 29.4064 50.8777 29.3639 50.9256C29.3214 50.9736 29.2619 51.0032 29.198 51.0081H29.0476L29.0864 51.013Z" fill="#231F20"/>
<path d="M96.6029 37.3068L31.4054 31.052L26.8752 78.2722L92.0728 84.527L96.6029 37.3068Z" fill="white"/>
<path d="M92.0787 84.7804L26.8535 78.5276C26.7873 78.5203 26.7268 78.4871 26.685 78.4353C26.6432 78.3835 26.6235 78.3173 26.6304 78.2511L31.1562 31.0179C31.1624 30.9518 31.1944 30.8908 31.2452 30.8481C31.2961 30.8054 31.3617 30.7845 31.4279 30.7899L96.6289 37.0427C96.6616 37.0451 96.6936 37.0541 96.7228 37.0692C96.752 37.0844 96.7778 37.1053 96.7987 37.1307C96.8196 37.1561 96.8351 37.1855 96.8442 37.217C96.8534 37.2486 96.856 37.2817 96.852 37.3144L92.3261 84.5379C92.3235 84.5711 92.3139 84.6033 92.298 84.6326C92.2822 84.6618 92.2603 84.6874 92.2339 84.7077C92.192 84.749 92.1373 84.7746 92.0787 84.7804ZM27.1494 78.0716L91.8507 84.2759L96.3329 37.5472L31.6316 31.3283L27.1494 78.0716Z" fill="#231F20"/>
<path d="M86.9761 80.2784H86.9519L32.7285 75.0782C32.6959 75.0752 32.6643 75.0657 32.6354 75.0504C32.6066 75.0351 32.581 75.0142 32.5603 74.9889C32.5395 74.9637 32.524 74.9345 32.5145 74.9032C32.5051 74.8719 32.502 74.8391 32.5053 74.8066L36.2696 35.5143C36.2723 35.4811 36.2818 35.4489 36.2977 35.4196C36.3136 35.3904 36.3354 35.3648 36.3618 35.3445C36.3863 35.3233 36.4148 35.3072 36.4456 35.2972C36.4765 35.2872 36.509 35.2835 36.5413 35.2863L90.7744 40.4865C90.8069 40.4895 90.8385 40.4989 90.8674 40.5143C90.8963 40.5296 90.9218 40.5505 90.9426 40.5758C90.9633 40.601 90.9789 40.6301 90.9883 40.6614C90.9977 40.6927 91.0009 40.7256 90.9975 40.7581L87.2332 80.0504C87.2309 80.0836 87.2215 80.116 87.2056 80.1453C87.1897 80.1746 87.1677 80.2001 87.141 80.2202C87.0955 80.2598 87.0365 80.2807 86.9761 80.2784ZM33.0195 74.6028L86.7481 79.7545L90.4542 40.9764L36.7353 35.8247L33.0195 74.6028Z" fill="#D1D3D4"/>
<path d="M6.79587 106.857L6.38354 109.874C6.38354 109.874 14.7853 110.747 14.4651 110.019C13.8459 108.972 13.169 107.96 12.4375 106.988" fill="white"/>
<path d="M12.6792 110.572C10.865 110.572 8.20185 110.334 6.37306 110.14C6.3405 110.138 6.30886 110.128 6.28036 110.112C6.25186 110.096 6.22721 110.074 6.20813 110.048C6.18733 110.023 6.1722 109.995 6.16381 109.964C6.15543 109.933 6.15399 109.9 6.15962 109.868L6.57195 106.846C6.5804 106.783 6.61374 106.725 6.66466 106.686C6.71558 106.647 6.77993 106.629 6.8436 106.638C6.90724 106.646 6.96493 106.68 7.00403 106.73C7.04313 106.781 7.06045 106.846 7.05219 106.909L6.67382 109.684C9.94818 110.014 13.4651 110.213 14.1927 110.009C13.761 109.199 12.2524 107.181 12.2524 107.157C12.2293 107.132 12.2117 107.102 12.2008 107.07C12.1899 107.037 12.186 107.003 12.1892 106.969C12.1925 106.935 12.2028 106.903 12.2196 106.873C12.2364 106.843 12.2593 106.817 12.2867 106.797C12.3142 106.777 12.3455 106.763 12.3788 106.755C12.4121 106.748 12.4466 106.748 12.48 106.755C12.5133 106.762 12.5449 106.776 12.5725 106.796C12.6002 106.816 12.6233 106.841 12.6404 106.871C13.3844 107.854 14.0696 108.881 14.6924 109.946C14.7185 109.999 14.7291 110.058 14.7231 110.116C14.7171 110.174 14.6947 110.23 14.6584 110.276C14.4935 110.465 13.7319 110.572 12.6792 110.572Z" fill="#231F20"/>
<path d="M27.5201 51.9879C27.5201 51.9879 32.9677 55.6164 35.0827 54.5298C36.3342 53.8846 37.3335 52.963 38.4783 52.1723C39.566 51.4586 40.6092 50.6794 41.6023 49.839C41.7159 49.7439 41.817 49.6346 41.903 49.514C41.976 49.385 42.0346 49.2483 42.0777 49.1065C42.263 48.5534 42.4934 48.0163 42.7665 47.5009C42.8608 47.2933 43.0211 47.1227 43.2225 47.0158C44.343 46.5743 43.6397 48.8979 43.4117 49.3102C44.2751 48.5001 45.1677 47.6852 46.1088 46.9527C46.1541 46.907 46.2088 46.8716 46.2691 46.849C46.3293 46.8264 46.3938 46.8171 46.458 46.8217C46.5246 46.8488 46.579 46.8992 46.6111 46.9635C46.6433 47.0277 46.6509 47.1015 46.6327 47.171C46.5943 47.3087 46.5207 47.4341 46.4192 47.5348L44.9154 49.3054C45.3444 48.7847 45.8131 48.2982 46.3174 47.8501C46.4968 47.6852 47.0062 47.2001 47.2875 47.3941C47.7387 47.7337 46.1282 49.5576 45.8323 49.8584C46.2581 49.2747 46.7588 48.7496 47.3215 48.2964C47.4706 48.148 47.6693 48.0599 47.8793 48.049C47.9909 48.1606 47.8793 48.3498 47.7872 48.471L46.7394 49.6789C47.2681 49.0968 47.8551 48.4807 48.6264 48.3352C48.6652 48.4613 48.573 48.5875 48.4857 48.6893C46.9431 50.489 45.3957 52.2644 43.7706 53.9865C41.6071 56.2761 39.2593 58.9199 36.179 59.8076C32.5262 60.8748 29.2567 58.7113 26.254 56.8534" fill="white"/>
<path d="M34.2087 60.3025C31.3952 60.3025 28.8096 58.6968 26.4763 57.2512L26.1222 57.033C26.0675 56.9989 26.0286 56.9444 26.0141 56.8817C25.9995 56.8189 26.0105 56.7529 26.0446 56.6982C26.0787 56.6436 26.1331 56.6047 26.1959 56.5901C26.2587 56.5756 26.3246 56.5865 26.3793 56.6206L26.7334 56.8389C29.644 58.658 32.7 60.5402 36.1054 59.5457C38.9432 58.7114 41.2134 56.3005 43.2119 54.1758L43.5903 53.7731C45.1911 52.0802 46.7337 50.3048 48.058 48.7622C47.6284 49.0493 47.2427 49.3974 46.9132 49.7954C46.8906 49.8181 46.8638 49.8362 46.8343 49.8485C46.8047 49.8608 46.773 49.8672 46.741 49.8672C46.709 49.8672 46.6773 49.8608 46.6477 49.8485C46.6181 49.8362 46.5913 49.8181 46.5688 49.7954C46.5243 49.7501 46.4994 49.6891 46.4994 49.6256C46.4994 49.5621 46.5243 49.5012 46.5688 49.4558L47.408 48.4857C47.1891 48.6649 46.9802 48.856 46.7822 49.0581C46.5057 49.417 46.2147 49.7469 46.0255 49.9555C45.9804 49.9985 45.9204 50.0225 45.8581 50.0225C45.7958 50.0225 45.7359 49.9985 45.6908 49.9555C45.6438 49.9158 45.6133 49.86 45.6052 49.799C45.5971 49.738 45.6121 49.6762 45.6471 49.6256C45.8777 49.3118 46.1289 49.0136 46.399 48.7331C46.7393 48.3788 46.986 47.9453 47.1169 47.4718C46.896 47.5865 46.6946 47.7355 46.5203 47.9133C46.1566 48.2396 45.8117 48.5862 45.487 48.9514L45.1135 49.3928C45.0934 49.4174 45.0685 49.4377 45.0404 49.4525C45.0123 49.4673 44.9815 49.4763 44.9499 49.4791C44.9182 49.4818 44.8863 49.4781 44.8561 49.4683C44.8259 49.4585 44.798 49.4427 44.7739 49.4219C44.7247 49.3812 44.6935 49.3227 44.6871 49.2591C44.6808 49.1955 44.6998 49.132 44.74 49.0823C44.8661 48.9319 44.9922 48.7767 45.1232 48.6312L46.2486 47.3117C46.3206 47.2392 46.3754 47.1513 46.4087 47.0546C46.4172 47.0311 46.4172 47.0054 46.4087 46.9819C46.4087 46.9819 46.3796 46.9819 46.2826 47.0741C45.3124 47.8356 44.381 48.6846 43.6 49.417C43.5579 49.4552 43.5037 49.4774 43.4469 49.4797C43.3901 49.482 43.3343 49.4642 43.2892 49.4296C43.2442 49.3949 43.2127 49.3455 43.2004 49.29C43.188 49.2346 43.1955 49.1765 43.2216 49.126C43.4254 48.7573 43.7795 47.4185 43.5515 47.1565C43.5127 47.1129 43.372 47.1565 43.3332 47.1565C43.1843 47.2456 43.0698 47.3824 43.0082 47.5446C42.7412 48.05 42.5142 48.5755 42.3291 49.1163C42.286 49.2865 42.219 49.4499 42.1302 49.6014C42.0343 49.742 41.9182 49.8679 41.7858 49.9749C40.8728 50.7566 39.9121 51.4808 38.9092 52.1432L38.6424 52.3276C38.2592 52.5944 37.8857 52.8806 37.5218 53.1571C36.8027 53.7385 36.0332 54.2547 35.2225 54.6997C33.0056 55.8396 27.6406 52.2985 27.4174 52.1432C27.3906 52.1261 27.3675 52.1037 27.3494 52.0774C27.3314 52.0511 27.3189 52.0215 27.3125 51.9903C27.3062 51.9591 27.3062 51.9269 27.3126 51.8957C27.3189 51.8644 27.3315 51.8348 27.3495 51.8085C27.3851 51.7554 27.4402 51.7184 27.5029 51.7057C27.5656 51.693 27.6307 51.7055 27.6842 51.7406C29.1686 52.7108 33.3695 55.1071 35.0042 54.2679C35.79 53.8362 36.5352 53.3346 37.2308 52.769C37.5946 52.4877 37.973 52.2015 38.3659 51.9298L38.6327 51.7455C39.6186 51.0932 40.5631 50.3803 41.4608 49.6111C41.5603 49.5332 41.6485 49.4417 41.7227 49.3394C41.7818 49.2351 41.829 49.1244 41.8634 49.0096C42.0565 48.4369 42.295 47.8805 42.5765 47.3457C42.6894 47.0765 42.8962 46.8576 43.1586 46.7296C43.2788 46.6602 43.419 46.6335 43.5564 46.6538C43.6937 46.674 43.8202 46.7401 43.9153 46.8412C44.1918 47.1565 44.1191 47.8356 43.9735 48.4129C44.5945 47.8453 45.2736 47.2487 45.9867 46.6957C46.0586 46.6253 46.1463 46.5732 46.2425 46.5436C46.3387 46.5141 46.4406 46.508 46.5397 46.5259C46.6538 46.5609 46.7526 46.6338 46.8197 46.7326C46.8867 46.8314 46.918 46.9502 46.9083 47.0692C46.9925 47.0292 47.0857 47.0122 47.1786 47.0199C47.2714 47.0276 47.3606 47.0596 47.4371 47.1129C47.488 47.15 47.5301 47.198 47.5603 47.2534C47.5905 47.3087 47.6081 47.3701 47.6117 47.433C47.6187 47.5539 47.5988 47.6748 47.5535 47.7871C47.6692 47.7355 47.7956 47.7122 47.9222 47.7192C47.981 47.7238 48.0362 47.7496 48.0774 47.792C48.1217 47.8348 48.1553 47.8873 48.1755 47.9455C48.1957 48.0036 48.202 48.0657 48.1938 48.1267C48.3271 48.0732 48.4652 48.0326 48.6061 48.0054C48.6656 47.9959 48.7265 48.0084 48.7774 48.0405C48.8283 48.0727 48.8657 48.1223 48.8826 48.1801C48.9018 48.2844 48.8945 48.3919 48.8615 48.4928C48.8285 48.5936 48.7707 48.6845 48.6935 48.7573C47.3158 50.3678 45.6762 52.2597 43.9687 54.0642L43.5952 54.462C41.5529 56.6352 39.2294 59.0994 36.2703 59.9677C35.6028 60.1779 34.9084 60.2906 34.2087 60.3025Z" fill="#231F20"/>
<path d="M25.5934 65.9588L30.9391 107.39L25.2005 107.24L18.0648 77.9551L12.9811 107.313L6.53906 106.857L10.1578 64.0039L25.5934 65.9588Z" fill="#231F20"/>
<path d="M16.2358 50.3192C16.3959 46.8605 15.6974 39.8461 15.6974 39.8461C15.6974 39.8461 20.102 40.0984 21.5864 37.9785C23.4006 39.3998 23.7741 43.4067 23.4443 44.6048C22.7846 46.9672 19.7139 46.4482 19.7139 46.4482L20.1069 50.7752L16.2358 50.3192Z" fill="white"/>
<path d="M20.117 51.0178H20.0879L16.2072 50.557C16.1463 50.5497 16.0905 50.5196 16.0509 50.4728C16.0113 50.426 15.9909 50.366 15.9938 50.3047C16.1538 46.9091 15.465 39.9384 15.4553 39.8704C15.4527 39.8352 15.4573 39.7997 15.469 39.7663C15.4807 39.733 15.4992 39.7023 15.5232 39.6764C15.548 39.6519 15.5776 39.6327 15.6102 39.6202C15.6427 39.6077 15.6776 39.602 15.7124 39.6036C15.7561 39.6036 20.0006 39.8219 21.388 37.8428C21.4065 37.8149 21.4309 37.7914 21.4593 37.7739C21.4878 37.7563 21.5197 37.745 21.5529 37.7409C21.6183 37.7323 21.6845 37.7498 21.7372 37.7894C23.6388 39.2786 24.0268 43.4019 23.6776 44.668C23.1003 46.749 20.8204 46.783 19.9812 46.7199L20.3499 50.751C20.3526 50.7874 20.3475 50.824 20.3349 50.8583C20.3224 50.8926 20.3027 50.9238 20.2771 50.9499C20.234 50.9915 20.1769 51.0157 20.117 51.0178ZM16.4982 50.1058L19.8502 50.4988L19.4816 46.4725C19.4788 46.4357 19.4844 46.3987 19.4978 46.3643C19.5112 46.3299 19.5322 46.2989 19.5592 46.2736C19.5854 46.2473 19.6177 46.2278 19.6532 46.2168C19.6887 46.2058 19.7264 46.2037 19.7629 46.2106C19.8793 46.2106 22.6298 46.6617 23.2167 44.5419C23.4981 43.528 23.2167 39.8365 21.6305 38.3327C20.1752 40.0354 16.9542 40.113 15.9744 40.0984C16.0956 41.3985 16.6001 47.0255 16.4934 50.1058H16.4982Z" fill="#231F20"/>
<path d="M19.7179 46.4484C19.0255 46.3653 18.3694 46.0935 17.8212 45.6626C17.8212 45.6626 18.6555 47.7582 19.9507 48.088L19.7179 46.4484Z" fill="#231F20"/>
<path d="M19.9506 48.2918H19.8972C18.5098 47.9571 17.6512 45.8372 17.6124 45.7499C17.5933 45.7023 17.5915 45.6494 17.6075 45.6006C17.6235 45.5518 17.6561 45.5102 17.6997 45.4831C17.7417 45.4541 17.7927 45.4411 17.8434 45.4465C17.8941 45.4518 17.9412 45.4751 17.9762 45.5122C18.4907 45.908 19.1024 46.1577 19.7468 46.235C19.7949 46.2411 19.8395 46.263 19.8738 46.2972C19.908 46.3315 19.9299 46.3762 19.936 46.4242L20.1689 48.0444C20.1739 48.0798 20.1704 48.1159 20.1586 48.1497C20.1468 48.1835 20.127 48.2139 20.1009 48.2384C20.0589 48.2738 20.0055 48.2927 19.9506 48.2918ZM18.3837 46.2981C18.6783 46.8897 19.1254 47.3921 19.6789 47.7534L19.5237 46.6619C19.1307 46.5858 18.7481 46.4637 18.3837 46.2981Z" fill="#231F20"/>
<path d="M23.027 48.5386L33.0878 54.054L30.6623 61.0927C30.6623 61.0927 18.0209 54.3985 17.9336 52.5891C17.8463 50.7797 23.027 48.5386 23.027 48.5386Z" fill="#584475"/>
<path d="M26.2383 69.7857C26.2383 69.7857 26.6507 60.7 25.7533 55.233C25.37 52.9046 25.5204 51.2698 24.7491 50.0086C22.1587 45.7786 12.0689 47.0398 10.6039 49.9746C9.13892 52.9094 7.98926 69.873 7.98926 69.873L26.2383 69.7857Z" fill="#584475"/>
<path d="M16.4202 42.3057C16.3649 42.0338 16.2355 41.7825 16.0463 41.5796C15.8571 41.3767 15.6155 41.2301 15.3481 41.156C15.2283 41.1165 15.1014 41.103 14.9759 41.1163C14.8505 41.1297 14.7293 41.1697 14.6205 41.2336C14.4943 41.342 14.3982 41.4811 14.3413 41.6374C14.2844 41.7937 14.2686 41.962 14.2955 42.1262C14.3372 42.6509 14.5743 43.1408 14.9601 43.499C15.3487 43.8517 15.8566 44.044 16.3814 44.0374" fill="white"/>
<path d="M16.3462 44.2797C15.7639 44.2812 15.2027 44.0617 14.7759 43.6656C14.3492 43.2694 14.0886 42.7261 14.0468 42.1453C14.0162 41.9381 14.0404 41.7265 14.117 41.5316C14.1936 41.3367 14.3199 41.1653 14.4834 41.0344C14.6202 40.9489 14.7739 40.8943 14.9339 40.8741C15.0939 40.854 15.2563 40.869 15.4099 40.918C15.7205 41.0056 16.0009 41.1767 16.2208 41.4128C16.4407 41.6489 16.5914 41.9409 16.6566 42.2569C16.663 42.2881 16.6632 42.3202 16.6571 42.3515C16.6511 42.3828 16.6389 42.4126 16.6213 42.4392C16.6038 42.4657 16.5811 42.4886 16.5547 42.5064C16.5283 42.5243 16.4987 42.5367 16.4674 42.5431C16.4038 42.5545 16.3383 42.5406 16.2848 42.5044C16.2313 42.4681 16.1942 42.4123 16.1812 42.349C16.134 42.121 16.0255 41.9102 15.8673 41.7392C15.7092 41.5683 15.5075 41.4437 15.2838 41.3789C15.1982 41.3484 15.107 41.337 15.0165 41.3454C14.9261 41.3537 14.8385 41.3817 14.7599 41.4274C14.6715 41.5139 14.6048 41.62 14.5652 41.7372C14.5256 41.8544 14.5142 41.9792 14.5319 42.1016C14.5683 42.5639 14.7779 42.9953 15.1189 43.3095C15.4613 43.6211 15.9075 43.794 16.3704 43.7946C16.4344 43.7958 16.4953 43.8218 16.5406 43.867C16.5858 43.9122 16.6117 43.9732 16.613 44.0371C16.613 44.1015 16.5874 44.1632 16.5419 44.2086C16.4964 44.2541 16.4348 44.2797 16.3704 44.2797H16.3462Z" fill="#231F20"/>
<path d="M21.8491 40.6111C21.9616 40.576 22.0004 40.3796 21.9358 40.1725C21.8712 39.9653 21.7275 39.8259 21.615 39.861C21.5025 39.8961 21.4637 40.0925 21.5283 40.2996C21.5929 40.5068 21.7366 40.6463 21.8491 40.6111Z" fill="#231F20"/>
<path d="M25.2007 107.24C25.2007 107.24 25.0406 109.743 25.3656 110.15C25.6906 110.558 33.748 111.057 33.3453 110.087C32.9427 109.117 30.4348 107.065 30.4348 107.065" fill="white"/>
<path d="M30.399 110.893C28.1385 110.893 25.4268 110.616 25.1746 110.296C24.8205 109.855 24.9175 107.837 24.9563 107.225C24.9624 107.161 24.993 107.102 25.0418 107.059C25.0905 107.017 25.1537 106.995 25.2182 106.997C25.2501 107 25.2812 107.009 25.3097 107.023C25.3382 107.038 25.3636 107.058 25.3843 107.082C25.405 107.106 25.4208 107.134 25.4306 107.165C25.4404 107.195 25.444 107.227 25.4414 107.259C25.3686 108.419 25.3929 109.796 25.553 109.995C26.8088 110.244 28.0855 110.372 29.3658 110.378C31.7379 110.461 32.8633 110.286 33.0961 110.131C32.7323 109.365 30.9666 107.803 30.302 107.254C30.2769 107.234 30.2561 107.209 30.2408 107.181C30.2255 107.153 30.2159 107.121 30.2128 107.089C30.2096 107.057 30.2129 107.025 30.2224 106.994C30.2318 106.963 30.2474 106.935 30.268 106.91C30.3088 106.861 30.3673 106.83 30.4308 106.823C30.4944 106.817 30.5579 106.836 30.6076 106.876C30.7143 106.963 33.1446 108.981 33.5667 109.995C33.6077 110.098 33.6075 110.213 33.5659 110.316C33.5243 110.419 33.4447 110.502 33.3435 110.548C32.9263 110.796 31.7573 110.893 30.399 110.893Z" fill="#231F20"/>
<path d="M22.6924 40.3411C22.6924 40.3411 24.463 42.359 24.0264 42.7956C23.5899 43.2322 22.5712 43.0139 22.5712 43.0139" fill="white"/>
<path d="M23.1331 43.3096C22.9264 43.309 22.7202 43.2895 22.517 43.2514C22.4857 43.2445 22.4561 43.2315 22.4299 43.2131C22.4036 43.1947 22.3813 43.1713 22.3642 43.1443C22.347 43.1172 22.3354 43.087 22.33 43.0554C22.3246 43.0239 22.3255 42.9915 22.3327 42.9603C22.339 42.9292 22.3515 42.8997 22.3694 42.8735C22.3873 42.8473 22.4102 42.825 22.4369 42.8078C22.4636 42.7906 22.4934 42.7789 22.5247 42.7735C22.5559 42.768 22.5879 42.7689 22.6189 42.776C22.8517 42.8245 23.589 42.9021 23.8558 42.6256C23.9383 42.417 23.298 41.4032 22.5121 40.5009C22.4889 40.4791 22.4705 40.4528 22.4578 40.4236C22.4452 40.3944 22.4386 40.3629 22.4386 40.3311C22.4386 40.2993 22.4452 40.2678 22.4578 40.2386C22.4705 40.2094 22.4889 40.1831 22.5121 40.1613C22.5347 40.1386 22.5615 40.1206 22.5911 40.1083C22.6206 40.0959 22.6523 40.0896 22.6844 40.0896C22.7164 40.0896 22.7481 40.0959 22.7776 40.1083C22.8072 40.1206 22.834 40.1386 22.8566 40.1613C23.5745 40.9811 24.6999 42.4267 24.1809 42.9458C23.8905 43.1957 23.5159 43.3258 23.1331 43.3096Z" fill="#231F20"/>
<path d="M30.6675 61.3356C30.6284 61.3359 30.5899 61.3258 30.5559 61.3065C30.4832 61.2726 23.527 57.5568 20.9948 56.1791C20.9663 56.1644 20.941 56.144 20.9205 56.1192C20.9 56.0945 20.8848 56.0658 20.8757 56.035C20.8667 56.0041 20.864 55.9718 20.8677 55.9399C20.8715 55.9079 20.8818 55.8771 20.8978 55.8493C20.9126 55.8214 20.9327 55.7967 20.9571 55.7766C20.9815 55.7566 21.0097 55.7416 21.04 55.7326C21.0702 55.7236 21.102 55.7206 21.1334 55.724C21.1648 55.7274 21.1952 55.737 21.2228 55.7523C23.7598 57.1299 30.7112 60.8408 30.7839 60.8797C30.812 60.8949 30.8368 60.9155 30.8569 60.9404C30.877 60.9652 30.892 60.9938 30.901 61.0244C30.91 61.0551 30.9129 61.0872 30.9094 61.119C30.906 61.1507 30.8963 61.1815 30.8809 61.2095C30.8604 61.2481 30.8296 61.2804 30.792 61.3026C30.7543 61.3249 30.7112 61.3363 30.6675 61.3356Z" fill="#231F20"/>
<path d="M18.0651 78.197C18.0355 78.1976 18.0062 78.1924 17.9787 78.1815C17.9512 78.1707 17.9262 78.1545 17.905 78.1339C17.8613 78.0951 16.8427 77.1347 15.79 73.5935C15.7731 73.5311 15.7808 73.4647 15.8115 73.4078C15.8422 73.3509 15.8935 73.308 15.9549 73.2879C16.0167 73.2712 16.0825 73.279 16.1385 73.3098C16.1946 73.3405 16.2366 73.3918 16.2557 73.4528C17.2598 76.8485 18.1961 77.7701 18.23 77.775C18.2527 77.7975 18.2708 77.8244 18.2831 77.8539C18.2954 77.8835 18.3018 77.9152 18.3018 77.9472C18.3018 77.9792 18.2954 78.0109 18.2831 78.0405C18.2708 78.07 18.2527 78.0968 18.23 78.1194C18.209 78.1425 18.1836 78.1613 18.1553 78.1746C18.127 78.188 18.0963 78.1956 18.0651 78.197Z" fill="white"/>
<path d="M75.223 64.862C75.187 64.8624 75.1513 64.8548 75.1186 64.8397C75.0858 64.8246 75.0569 64.8023 75.0338 64.7746C74.8398 64.5564 55.9019 42.8728 53.5201 41.175C52.6033 40.5153 46.9229 42.7516 35.043 51.5996C34.9894 51.6328 34.9252 51.6447 34.8633 51.6329C34.8013 51.6211 34.746 51.5866 34.7082 51.536C34.6705 51.4855 34.653 51.4226 34.6593 51.3599C34.6656 51.2971 34.6952 51.239 34.7422 51.197C34.7859 51.1679 38.8849 48.1167 43.2313 45.3225C52.1521 39.5791 53.4182 40.4716 53.8111 40.7675C56.2366 42.4993 74.6263 63.5668 75.4073 64.4448C75.4539 64.492 75.4799 64.5556 75.4799 64.6218C75.4799 64.6881 75.4539 64.7517 75.4073 64.7989C75.356 64.8424 75.2902 64.8649 75.223 64.862Z" fill="#D1D3D4"/>
<path d="M88.9555 61.2096C88.9119 61.2096 88.8689 61.1985 88.8307 61.1773C88.7925 61.156 88.7603 61.1254 88.7373 61.0883C84.7838 54.5784 80.2142 47.7726 79.409 47.6513C78.594 47.7677 71.9192 53.1183 67.9075 56.4606C67.8555 56.4973 67.7916 56.513 67.7285 56.5046C67.6654 56.4962 67.6078 56.4642 67.5673 56.4151C67.5268 56.366 67.5064 56.3034 67.5101 56.2399C67.5138 56.1763 67.5414 56.1165 67.5873 56.0725C68.6594 55.1799 78.1041 47.3409 79.3556 47.1517C79.7679 47.0838 81.5579 48.3111 89.169 60.8312C89.2028 60.8886 89.2126 60.9569 89.1963 61.0214C89.1799 61.0859 89.1387 61.1414 89.0817 61.1756C89.0437 61.1988 89 61.2106 88.9555 61.2096Z" fill="#D1D3D4"/>
<path d="M69.2224 47.302C68.8116 47.302 68.41 47.1801 68.0684 46.9518C67.7269 46.7234 67.4608 46.3989 67.3038 46.0192C67.1468 45.6396 67.106 45.2219 67.1865 44.819C67.267 44.4161 67.4652 44.0462 67.7561 43.756C68.0469 43.4659 68.4173 43.2685 68.8204 43.189C69.2234 43.1094 69.641 43.1512 70.0203 43.3091C70.3996 43.467 70.7235 43.7338 70.9511 44.0759C71.1786 44.418 71.2996 44.8199 71.2986 45.2307C71.2973 45.7805 71.078 46.3073 70.6888 46.6957C70.2996 47.084 69.7722 47.302 69.2224 47.302ZM69.2224 43.6542C68.9106 43.6542 68.6058 43.7466 68.3465 43.9198C68.0873 44.0931 67.8852 44.3393 67.7659 44.6274C67.6466 44.9155 67.6153 45.2324 67.6762 45.5383C67.737 45.8441 67.8872 46.125 68.1076 46.3455C68.3281 46.566 68.609 46.7161 68.9149 46.7769C69.2207 46.8378 69.5377 46.8066 69.8257 46.6872C70.1138 46.5679 70.36 46.3658 70.5333 46.1066C70.7065 45.8473 70.799 45.5425 70.799 45.2307C70.799 44.8126 70.6329 44.4116 70.3372 44.1159C70.0415 43.8203 69.6405 43.6542 69.2224 43.6542Z" fill="#D1D3D4"/>
<path d="M20.0188 43.5764C20.1258 43.8427 20.3043 44.0742 20.5345 44.2454C20.7648 44.4166 21.0379 44.5208 21.3237 44.5466C21.6063 44.5639 21.8892 44.5179 22.1518 44.4122C22.4144 44.3065 22.6502 44.1436 22.842 43.9354" fill="white"/>
<path d="M21.4646 44.7696H21.2997C20.9719 44.7426 20.6579 44.6261 20.3918 44.4327C20.1258 44.2394 19.9179 43.9767 19.7911 43.6733C19.7679 43.6128 19.7697 43.5456 19.7961 43.4865C19.8225 43.4273 19.8713 43.3811 19.9317 43.3579C19.9922 43.3348 20.0594 43.3366 20.1185 43.363C20.1776 43.3894 20.2239 43.4382 20.247 43.4986C20.3397 43.7183 20.491 43.9082 20.6843 44.0477C20.8777 44.1871 21.1057 44.2707 21.3433 44.2893C21.5897 44.3029 21.836 44.2621 22.0649 44.1699C22.2937 44.0777 22.4995 43.9363 22.6676 43.7557C22.6902 43.733 22.717 43.7149 22.7466 43.7026C22.7761 43.6903 22.8078 43.684 22.8398 43.684C22.8719 43.684 22.9036 43.6903 22.9331 43.7026C22.9627 43.7149 22.9895 43.733 23.0121 43.7557C23.0346 43.7779 23.0526 43.8043 23.0648 43.8334C23.0771 43.8626 23.0834 43.8939 23.0834 43.9255C23.0834 43.9571 23.0771 43.9884 23.0648 44.0176C23.0526 44.0467 23.0346 44.0732 23.0121 44.0953C22.8121 44.3052 22.5722 44.473 22.3065 44.5888C22.0407 44.7046 21.7545 44.7661 21.4646 44.7696Z" fill="#231F20"/>
<path d="M14.4891 46.1862C13.5133 46.1865 12.5511 45.9572 11.6804 45.5168C11.2474 45.3246 10.8835 45.0047 10.6375 44.6C10.5044 44.3539 10.4518 44.0723 10.4871 43.7947C10.0961 43.8516 9.69722 43.7837 9.34712 43.6007C8.83955 43.3156 8.40462 42.9171 8.07618 42.4365C7.95874 42.302 7.89335 42.1299 7.89185 41.9514C7.91134 41.7799 7.99235 41.6214 8.11984 41.5051L8.44485 41.151C9.0431 40.5487 9.56598 39.8759 10.002 39.1476C10.2655 38.6225 10.483 38.0755 10.652 37.5128C10.7927 37.0908 10.9382 36.6542 11.1371 36.237C12.4468 33.278 14.8674 32.7977 17.0698 32.7153C18.4571 32.6667 20.3053 33.1033 21.1445 34.4858C21.1993 34.445 21.2598 34.4123 21.324 34.3888C21.5873 34.2916 21.8784 34.302 22.1341 34.4179C22.4962 34.6226 22.7859 34.9344 22.9636 35.3105C23.7826 36.7894 24.1502 38.4758 24.0211 40.1614C24.0193 40.1935 24.011 40.2249 23.9967 40.2538C23.9824 40.2826 23.9624 40.3082 23.9379 40.3291C23.9134 40.3499 23.8849 40.3656 23.8542 40.3751C23.8235 40.3847 23.7911 40.3879 23.7591 40.3845C23.6956 40.3796 23.6366 40.3498 23.5949 40.3017C23.5531 40.2536 23.532 40.191 23.536 40.1274C23.6553 38.5431 23.3097 36.9584 22.5416 35.5676C22.4043 35.2855 22.1843 35.052 21.9109 34.8982C21.7741 34.8426 21.6209 34.8426 21.4841 34.8982C21.4438 34.9118 21.4067 34.9335 21.3751 34.9618C21.3434 34.9901 21.3178 35.0246 21.2997 35.0631C21.2811 35.1057 21.2507 35.1421 21.212 35.1679C21.1733 35.1937 21.128 35.2078 21.0814 35.2086C21.0344 35.2076 20.9885 35.1934 20.9491 35.1677C20.9097 35.142 20.8782 35.1058 20.8583 35.0631C20.2277 33.6515 18.4329 33.2003 17.0746 33.2586C14.135 33.3653 12.539 34.3015 11.5737 36.4893C11.401 36.892 11.2488 37.3032 11.1177 37.7214C10.932 38.3001 10.6967 38.8616 10.4143 39.3998C9.96099 40.1639 9.41339 40.8679 8.78441 41.4954L8.46425 41.8495C8.41989 41.8909 8.38369 41.9403 8.35753 41.995C8.38121 42.0634 8.42117 42.125 8.47395 42.1745C8.75617 42.5964 9.13117 42.9482 9.57026 43.2029C9.76954 43.3127 9.99431 43.3678 10.2218 43.3627C10.4492 43.3576 10.6713 43.2924 10.8654 43.1738C10.9165 43.1392 10.9789 43.1253 11.0399 43.1351C11.1009 43.1448 11.1558 43.1774 11.1935 43.2263C11.2313 43.2752 11.249 43.3366 11.243 43.398C11.237 43.4595 11.2078 43.5163 11.1614 43.557C11.0554 43.668 10.989 43.8109 10.9723 43.9634C10.9556 44.116 10.9897 44.2698 11.0692 44.4011C11.2771 44.7034 11.5664 44.9405 11.9035 45.0851C12.803 45.5411 13.8073 45.7503 14.8141 45.6914C14.8461 45.6888 14.8783 45.6926 14.9088 45.7028C14.9392 45.7129 14.9673 45.7292 14.9914 45.7505C15.0154 45.7718 15.0348 45.7977 15.0486 45.8268C15.0623 45.8558 15.07 45.8873 15.0712 45.9194C15.0731 45.9513 15.0688 45.9832 15.0584 46.0134C15.048 46.0436 15.0317 46.0714 15.0106 46.0953C14.9894 46.1192 14.9637 46.1387 14.935 46.1526C14.9063 46.1665 14.8751 46.1747 14.8432 46.1765L14.4891 46.1862Z" fill="#231F20"/>
<path d="M70.7456 50.8774H154.089C157.713 50.8774 159.638 53.3951 158.382 56.4996L139.638 102.879C138.387 105.984 134.428 108.501 130.805 108.501H47.4564C43.8328 108.501 41.9118 105.984 43.1682 102.879L61.9072 56.4996C63.1636 53.3951 67.1171 50.8774 70.7456 50.8774Z" fill="white"/>
<path d="M130.805 108.753H47.4568C45.5504 108.753 43.9836 108.055 43.1589 106.813C42.4313 105.721 42.3294 104.266 42.9164 102.811L61.6554 56.4315C62.9458 53.2444 66.9914 50.6541 70.7266 50.6541H154.089C156.001 50.6541 157.567 51.3526 158.387 52.5702C159.139 53.681 159.222 55.1217 158.615 56.6207L139.871 102.995C138.586 106.158 134.516 108.753 130.805 108.753ZM70.746 51.1294C67.2194 51.1294 63.3581 53.5549 62.1405 56.5964L43.4015 102.971C42.863 104.31 42.9164 105.586 43.581 106.556C44.3086 107.633 45.7202 108.254 47.4617 108.254H130.805C134.332 108.254 138.188 105.799 139.411 102.787L158.15 56.4072C158.693 55.0684 158.635 53.7974 157.975 52.8273C157.247 51.7455 155.831 51.1294 154.094 51.1294H70.746Z" fill="#231F20"/>
<path d="M125.716 22.5187H111.648C111.615 22.5194 111.583 22.5134 111.552 22.5013C111.521 22.4892 111.494 22.471 111.47 22.448C111.447 22.425 111.428 22.3975 111.415 22.3671C111.403 22.3368 111.396 22.3042 111.396 22.2713V8.21826C111.385 8.18072 111.383 8.1412 111.391 8.10282C111.398 8.06444 111.414 8.02824 111.437 7.99707C111.461 7.9659 111.491 7.94061 111.526 7.9232C111.561 7.90579 111.599 7.89673 111.639 7.89673C111.678 7.89673 111.716 7.90579 111.751 7.9232C111.786 7.94061 111.816 7.9659 111.84 7.99707C111.863 8.02824 111.879 8.06444 111.887 8.10282C111.894 8.1412 111.892 8.18072 111.881 8.21826V22.0191H125.711C125.749 22.0083 125.788 22.0065 125.826 22.0136C125.865 22.0208 125.901 22.0367 125.932 22.0602C125.963 22.0838 125.989 22.1142 126.006 22.1491C126.023 22.1841 126.033 22.2226 126.033 22.2616C126.033 22.3007 126.023 22.3392 126.006 22.3741C125.989 22.4091 125.963 22.4395 125.932 22.463C125.901 22.4865 125.865 22.5025 125.826 22.5096C125.788 22.5168 125.749 22.5149 125.711 22.5042L125.716 22.5187Z" fill="#231F20"/>
<path d="M76.223 17.435C75.8384 17.4241 75.4641 17.308 75.1409 17.0993C74.8176 16.8907 74.5577 16.5974 74.3894 16.2514C73.8218 15.1599 72.2453 9.4601 71.9639 7.18988C71.8771 6.68054 71.9929 6.15745 72.2866 5.73234C72.5803 5.30724 73.0285 5.01383 73.5356 4.9148C74.6368 4.6092 76.1454 4.9148 76.548 5.82192C76.8779 6.56896 77.46 7.97572 77.46 7.97572L76.9992 8.16976C76.9992 8.16976 76.388 6.763 76.0775 6.02081C75.8204 5.429 74.6222 5.12339 73.6521 5.39504C73.2621 5.46485 72.9156 5.6862 72.6884 6.01071C72.4611 6.33521 72.3716 6.73649 72.4393 7.12682C72.7498 9.55227 74.3215 15.0483 74.826 16.0185C74.9685 16.3283 75.2094 16.5823 75.5112 16.741C75.8129 16.8998 76.1587 16.9545 76.4947 16.8965C76.7409 16.8163 76.95 16.6501 77.0837 16.4282C77.2173 16.2064 77.2665 15.9438 77.2223 15.6887C77.1593 13.855 74.6853 7.15107 74.661 7.08316C74.6495 7.05229 74.6443 7.01943 74.6456 6.98651C74.647 6.95359 74.6549 6.92127 74.6689 6.89144C74.6829 6.86162 74.7027 6.8349 74.7272 6.81284C74.7517 6.79078 74.7803 6.77384 74.8114 6.763C74.8732 6.74081 74.9413 6.74359 75.001 6.77077C75.0608 6.79794 75.1077 6.84736 75.1316 6.90852C75.2335 7.18988 77.654 13.758 77.722 15.6693C77.7735 16.0392 77.6907 16.4153 77.4887 16.7295C77.2867 17.0436 76.9788 17.275 76.6208 17.3816C76.4909 17.4158 76.3573 17.4338 76.223 17.435Z" fill="#231F20"/>
<path d="M144.449 66.2057H115.902C115.604 66.2246 115.307 66.1672 115.038 66.0391C114.769 65.9109 114.537 65.7161 114.364 65.4733C114.196 65.1793 114.103 64.8487 114.093 64.5103C114.083 64.172 114.156 63.8364 114.306 63.5329L115.276 61.1899C115.59 60.4911 116.086 59.8897 116.712 59.4492C117.339 59.0087 118.073 58.7453 118.837 58.6868H147.389C147.686 58.6703 147.983 58.7286 148.251 58.8566C148.52 58.9846 148.752 59.1781 148.927 59.4193C149.095 59.7133 149.188 60.0439 149.198 60.3823C149.208 60.7206 149.135 61.0562 148.985 61.3597L148.015 63.7075C147.7 64.4065 147.203 65.0075 146.576 65.4473C145.948 65.887 145.213 66.149 144.449 66.2057ZM118.846 59.1525C118.18 59.2065 117.541 59.4386 116.996 59.8243C116.451 60.2101 116.019 60.7353 115.746 61.3451L114.776 63.693C114.654 63.9222 114.591 64.1779 114.591 64.4376C114.591 64.6972 114.654 64.9529 114.776 65.1822C114.909 65.3497 115.082 65.4816 115.278 65.5663C115.474 65.6509 115.689 65.6856 115.902 65.6673H144.449C145.111 65.6183 145.747 65.3932 146.292 65.0154C146.837 64.6375 147.271 64.1206 147.549 63.5183L148.519 61.1754C148.641 60.9453 148.705 60.6888 148.705 60.4283C148.705 60.1678 148.641 59.9113 148.519 59.6813C148.39 59.5091 148.22 59.3722 148.024 59.2832C147.828 59.1941 147.613 59.1559 147.399 59.1719L118.846 59.1525Z" fill="#D1D3D4"/>
</svg>
