<svg width="154" height="116" viewBox="0 0 154 116" fill="none" xmlns="http://www.w3.org/2000/svg">
<path d="M151.833 90.1703H5.41574C5.35135 90.1703 5.28961 90.1446 5.24408 90.0988C5.19855 90.0531 5.17297 89.9911 5.17297 89.9264C5.17422 89.8622 5.20019 89.8009 5.24545 89.7554C5.29071 89.71 5.35174 89.6839 5.41574 89.6826H151.833C151.897 89.6839 151.958 89.71 152.004 89.7554C152.049 89.8009 152.075 89.8622 152.076 89.9264C152.076 89.9911 152.051 90.0531 152.005 90.0988C151.96 90.1446 151.898 90.1703 151.833 90.1703Z" fill="#D1D3D4"/>
<path d="M128.063 9.18872H26.2314C24.3544 9.18872 22.8327 10.717 22.8327 12.6022V75.634C22.8327 77.5192 24.3544 79.0475 26.2314 79.0475H128.063C129.94 79.0475 131.461 77.5192 131.461 75.634V12.6022C131.461 10.717 129.94 9.18872 128.063 9.18872Z" fill="white"/>
<path d="M128.057 79.3107H26.231C25.2652 79.3107 24.339 78.9254 23.6561 78.2395C22.9731 77.5537 22.5895 76.6234 22.5895 75.6535V12.607C22.5895 11.6366 22.973 10.7058 23.6558 10.0192C24.3385 9.33252 25.2648 8.94612 26.231 8.94482H128.057C129.024 8.94611 129.951 9.33236 130.634 10.0189C131.318 10.7054 131.702 11.6361 131.704 12.607V75.634C131.706 76.1161 131.613 76.5939 131.43 77.0399C131.248 77.4859 130.98 77.8913 130.641 78.2329C130.302 78.5746 129.899 78.8456 129.456 79.0306C129.013 79.2155 128.537 79.3107 128.057 79.3107ZM26.231 9.43246C25.3935 9.43375 24.5908 9.76878 23.9991 10.364C23.4074 10.9592 23.075 11.7659 23.075 12.607V75.634C23.075 76.4746 23.4075 77.2808 23.9994 77.8752C24.5912 78.4697 25.394 78.8036 26.231 78.8036H128.057C128.895 78.8036 129.698 78.4698 130.291 77.8755C130.883 77.2812 131.217 76.475 131.218 75.634V12.607C131.217 11.7654 130.883 10.9587 130.291 10.3637C129.698 9.76862 128.895 9.43375 128.057 9.43246H26.231Z" fill="#231F20"/>
<path d="M131.461 68.2413H22.8322C22.7679 68.2413 22.7061 68.2156 22.6606 68.1699C22.6151 68.1242 22.5895 68.0621 22.5895 67.9975C22.5895 67.9328 22.6151 67.8708 22.6606 67.8251C22.7061 67.7793 22.7679 67.7537 22.8322 67.7537H131.461C131.525 67.7549 131.586 67.781 131.631 67.8265C131.676 67.8719 131.702 67.9332 131.704 67.9975C131.704 68.0621 131.678 68.1242 131.632 68.1699C131.587 68.2156 131.525 68.2413 131.461 68.2413Z" fill="#231F20"/>
<path d="M91.0314 92.5549H63.2637L68.3812 79.0474H85.909L91.0314 92.5549Z" fill="white"/>
<path d="M91.0304 92.7986H63.2627C63.2231 92.7989 63.1841 92.7895 63.149 92.7711C63.1139 92.7528 63.0837 92.7261 63.0612 92.6934C63.0387 92.6608 63.0246 92.623 63.0199 92.5836C63.0152 92.5441 63.0202 92.5041 63.0345 92.467L68.152 78.9644C68.1695 78.9176 68.2007 78.8773 68.2414 78.8486C68.2821 78.8199 68.3305 78.8042 68.3802 78.8035H85.908C85.9579 78.8035 86.0066 78.8189 86.0474 78.8477C86.0882 78.8765 86.1192 78.9173 86.1362 78.9644L91.2489 92.4768C91.2667 92.5114 91.2761 92.5499 91.2761 92.5889C91.2761 92.628 91.2667 92.6664 91.2489 92.7011C91.2243 92.7353 91.1911 92.7623 91.1527 92.7794C91.1143 92.7966 91.0721 92.8032 91.0304 92.7986ZM63.6123 92.311H90.6759L85.7429 79.3106H68.5501L63.6123 92.311Z" fill="#231F20"/>
<path d="M94.283 91.76H59.9994C59.1011 91.76 58.3729 92.4914 58.3729 93.3936V93.7691C58.3729 94.6713 59.1011 95.4027 59.9994 95.4027H94.283C95.1813 95.4027 95.9095 94.6713 95.9095 93.7691V93.3936C95.9095 92.4914 95.1813 91.76 94.283 91.76Z" fill="white"/>
<path d="M94.2839 95.6464H60.0051C59.7593 95.647 59.5157 95.5989 59.2883 95.5049C59.0609 95.4108 58.8543 95.2726 58.6802 95.0982C58.5061 94.9238 58.368 94.7167 58.2737 94.4886C58.1795 94.2605 58.131 94.0159 58.131 93.769V93.3984C58.131 93.1512 58.1795 92.9064 58.2737 92.6781C58.3678 92.4497 58.5059 92.2422 58.6799 92.0674C58.8539 91.8926 59.0605 91.754 59.2879 91.6594C59.5153 91.5648 59.759 91.5161 60.0051 91.5161H94.2839C94.53 91.5161 94.7737 91.5648 95.0011 91.6594C95.2285 91.754 95.4351 91.8926 95.6091 92.0674C95.7831 92.2422 95.9212 92.4497 96.0154 92.6781C96.1095 92.9064 96.158 93.1512 96.158 93.3984V93.769C96.158 94.0159 96.1095 94.2605 96.0153 94.4886C95.921 94.7167 95.7829 94.9238 95.6088 95.0982C95.4347 95.2726 95.2281 95.4108 95.0007 95.5049C94.7734 95.5989 94.5298 95.647 94.2839 95.6464ZM60.0051 91.9891C59.6373 91.9904 59.2848 92.1378 59.0247 92.399C58.7645 92.6603 58.6178 93.0143 58.6165 93.3838V93.7544C58.6178 94.1234 58.7647 94.4769 59.0249 94.7374C59.2852 94.9979 59.6377 95.1441 60.0051 95.1441H94.2839C94.6513 95.1441 95.0038 94.9979 95.2641 94.7374C95.5243 94.4769 95.6712 94.1234 95.6725 93.7544V93.3838C95.6725 93.2006 95.6366 93.0193 95.5668 92.85C95.497 92.6808 95.3947 92.5271 95.2658 92.3976C95.1368 92.2681 94.9837 92.1654 94.8153 92.0953C94.6468 92.0252 94.4662 91.9891 94.2839 91.9891H60.0051Z" fill="#231F20"/>
<path d="M127.577 12.4802H26.7072V63.721H127.577V12.4802Z" fill="#1DC9B7"/>
<path d="M38.3267 38.9931V37.1693L45.7262 32.0979L46.9837 34.3947L41.4292 38.0812L46.9837 41.7872L45.7262 44.0645L38.3267 38.9931Z" fill="white"/>
<path d="M49.2311 30.5129H52.1443V36.4523H58.2329V30.5129H61.1461V45.6882H58.2329V39.4659H52.1394V45.6882H49.2262L49.2311 30.5129Z" fill="white"/>
<path d="M67.6813 33.4439H62.9425V30.5181H75.3333V33.4439H70.5945V45.6884H67.6813V33.4439Z" fill="white"/>
<path d="M77.1301 30.5129H80.4948L85.2336 41.0946H85.2725L90.0501 30.5129H93.4003V45.6882H90.4871V35.7404H90.4531L85.8454 45.6882H84.6656L80.0821 35.7404H80.0433V45.6882H77.1301V30.5129Z" fill="white"/>
<path d="M96.0567 30.5129H98.9699V42.7624H105.898V45.6882H96.0567V30.5129Z" fill="white"/>
<path d="M107.311 41.7872L112.87 38.0812L107.311 34.3947L108.568 32.0979L115.973 37.1693V38.9931L108.568 44.0645L107.311 41.7872Z" fill="white"/>
<path d="M65.8456 85.216L86.5197 81.1832L85.7137 79.0474H68.1859L65.8456 85.216Z" fill="#231F20"/>
<path d="M65.8465 85.4597C65.8112 85.4597 65.7763 85.4519 65.7444 85.4367C65.7125 85.4215 65.6843 85.3994 65.662 85.3719C65.6341 85.3387 65.6154 85.2987 65.6077 85.2559C65.6001 85.2131 65.6037 85.169 65.6183 85.1281L67.944 78.9644C67.9609 78.9173 67.9919 78.8765 68.0328 78.8477C68.0736 78.8189 68.1223 78.8035 68.1722 78.8035H85.7C85.7497 78.8042 85.7981 78.8199 85.8388 78.8486C85.8795 78.8773 85.9106 78.9176 85.9282 78.9644L86.7341 81.0954C86.7469 81.1286 86.7522 81.1641 86.7497 81.1996C86.7473 81.2351 86.7372 81.2696 86.7201 81.3007C86.7029 81.3319 86.6793 81.3588 86.6507 81.3798C86.6221 81.4008 86.5892 81.4152 86.5545 81.4221L65.8805 85.4548L65.8465 85.4597ZM68.3518 79.3106L66.23 84.9136L86.1903 81.0125L85.5446 79.3057L68.3518 79.3106Z" fill="#231F20"/>
<path d="M135.685 109.286C135.685 109.286 137.627 108.511 137.729 104.956C137.831 101.401 134.01 97.6704 131.558 95.8466C129.106 94.0228 124.528 94.2081 122.94 96.027C121.352 97.8459 119.769 101.04 123.848 105.687C127.926 110.334 133.282 110.695 135.685 109.286Z" fill="white"/>
<path d="M132.563 110.247C129.907 110.247 126.513 109.086 123.668 105.858C120.468 102.215 120.162 98.8603 122.76 95.876C124.455 93.9254 129.223 93.8133 131.704 95.6614C132.767 96.4514 138.079 100.63 137.972 104.97C137.88 108.496 136.03 109.413 135.797 109.51C134.8 110.031 133.686 110.284 132.563 110.247ZM127.149 94.8227C125.494 94.8227 123.916 95.2811 123.124 96.1881C120.697 98.9578 121.017 102.098 124.032 105.521C128.111 110.169 133.325 110.398 135.564 109.071H135.598C135.67 109.042 137.399 108.291 137.486 104.966C137.564 101.786 134.267 98.1776 131.412 96.0564C130.15 95.2175 128.662 94.787 127.149 94.8227Z" fill="#231F20"/>
<path d="M121.921 102.839C122.071 101.492 122.626 100.223 123.514 99.2013C124.402 98.18 125.579 97.4552 126.888 97.1239C131.558 95.8463 132.806 96.846 132.806 96.846" fill="white"/>
<path d="M121.926 103.083C121.862 103.078 121.803 103.048 121.762 103C121.72 102.951 121.699 102.888 121.703 102.825C121.856 101.428 122.428 100.11 123.343 99.0463C124.257 97.9824 125.471 97.2221 126.825 96.8657C131.564 95.5734 132.904 96.5926 132.957 96.6365C133.008 96.6766 133.041 96.7353 133.049 96.7998C133.057 96.8642 133.039 96.9292 132.999 96.9802C132.959 97.0313 132.9 97.0644 132.836 97.0722C132.772 97.0799 132.707 97.0618 132.656 97.0217C132.656 97.0217 131.384 96.1293 126.951 97.3387C125.694 97.6624 124.564 98.3606 123.71 99.3415C122.855 100.322 122.316 101.54 122.164 102.834C122.165 102.867 122.16 102.899 122.149 102.929C122.137 102.959 122.12 102.986 122.098 103.01C122.076 103.033 122.049 103.051 122.019 103.064C121.99 103.077 121.958 103.083 121.926 103.083Z" fill="#231F20"/>
<path d="M115.453 113.752H38.8401L47.7933 98.1675H106.494L115.453 113.752Z" fill="white"/>
<path d="M115.453 113.992H38.8409C38.7988 113.993 38.7572 113.983 38.7204 113.962C38.6837 113.942 38.6532 113.911 38.6321 113.875C38.6108 113.838 38.5996 113.796 38.5996 113.753C38.5996 113.71 38.6108 113.668 38.6321 113.631L47.5854 98.0265C47.6058 97.989 47.636 97.9577 47.6728 97.9363C47.7096 97.9148 47.7516 97.9038 47.7942 97.9046H106.5C106.542 97.9048 106.584 97.9162 106.621 97.9376C106.657 97.959 106.688 97.9896 106.709 98.0265L115.662 113.631C115.683 113.668 115.695 113.71 115.695 113.753C115.695 113.796 115.683 113.838 115.662 113.875C115.64 113.91 115.609 113.94 115.573 113.96C115.536 113.981 115.495 113.991 115.453 113.992ZM39.2585 113.504H115.041L106.369 98.3873H47.935L39.2585 113.504Z" fill="#231F20"/>
<path d="M53.0334 104.585H47.7896C47.7485 104.585 47.708 104.574 47.6723 104.554C47.6365 104.533 47.6067 104.504 47.5857 104.468C47.5653 104.432 47.5546 104.39 47.5546 104.349C47.5546 104.307 47.5653 104.266 47.5857 104.229L48.6393 102.176C48.6592 102.136 48.6897 102.103 48.7275 102.08C48.7652 102.056 48.8087 102.044 48.8529 102.044H53.9074C53.948 102.045 53.9879 102.055 54.0236 102.074C54.0592 102.094 54.0894 102.122 54.1113 102.157C54.1304 102.192 54.1404 102.231 54.1404 102.271C54.1404 102.311 54.1304 102.351 54.1113 102.386L53.247 104.439C53.2283 104.481 53.1984 104.516 53.1607 104.542C53.123 104.568 53.079 104.583 53.0334 104.585ZM48.1781 104.097H52.8926L53.5529 102.532H49.0083L48.1781 104.097Z" fill="#D1D3D4"/>
<path d="M60.6602 104.585H55.431C55.3915 104.585 55.3525 104.575 55.3172 104.558C55.2818 104.54 55.251 104.514 55.2271 104.483C55.2054 104.45 55.1918 104.412 55.1876 104.373C55.1834 104.334 55.1886 104.295 55.2028 104.258L55.9797 102.205C55.9972 102.159 56.0284 102.118 56.0691 102.09C56.1098 102.061 56.1582 102.045 56.2079 102.044H61.2623C61.2999 102.045 61.337 102.054 61.3706 102.071C61.4043 102.088 61.4336 102.112 61.4565 102.142C61.4782 102.173 61.4929 102.208 61.4996 102.245C61.5063 102.282 61.5048 102.32 61.4954 102.357L60.903 104.409C60.8895 104.463 60.8577 104.509 60.8134 104.542C60.769 104.574 60.7148 104.589 60.6602 104.585ZM55.7709 104.097H60.4806L60.9321 102.532H56.3633L55.7709 104.097Z" fill="#D1D3D4"/>
<path d="M68.3078 104.585H63.0883C63.0511 104.585 63.0143 104.577 62.9807 104.561C62.9471 104.545 62.9175 104.521 62.8941 104.492C62.8717 104.463 62.8562 104.429 62.8486 104.393C62.8411 104.356 62.8417 104.319 62.8504 104.283L63.336 102.23C63.3498 102.177 63.3806 102.13 63.4236 102.097C63.4667 102.063 63.5194 102.045 63.5739 102.044H68.6283C68.6633 102.045 68.6978 102.053 68.7296 102.067C68.7613 102.082 68.7894 102.104 68.812 102.131C68.8346 102.158 68.8511 102.189 68.8605 102.223C68.8698 102.257 68.8718 102.293 68.8662 102.327L68.5506 104.38C68.5404 104.437 68.5105 104.489 68.4661 104.527C68.4218 104.564 68.3657 104.585 68.3078 104.585ZM63.3748 104.097H68.1039L68.3418 102.532H63.7632L63.3748 104.097Z" fill="#D1D3D4"/>
<path d="M75.9511 104.585H70.7074C70.673 104.585 70.6389 104.578 70.6072 104.565C70.5756 104.551 70.5469 104.532 70.5229 104.507C70.5006 104.481 70.484 104.451 70.474 104.418C70.4639 104.385 70.4607 104.351 70.4646 104.317L70.6976 102.264C70.7025 102.204 70.7297 102.148 70.7738 102.107C70.8179 102.067 70.8757 102.044 70.9356 102.044H75.99C76.0556 102.045 76.1185 102.071 76.1648 102.118C76.1881 102.14 76.2063 102.168 76.218 102.198C76.2297 102.228 76.2348 102.261 76.2328 102.293L76.1939 104.346C76.1926 104.41 76.1665 104.471 76.1211 104.515C76.0757 104.56 76.0147 104.585 75.9511 104.585ZM70.9793 104.097H75.7132L75.7424 102.532H71.1541L70.9793 104.097Z" fill="#D1D3D4"/>
<path d="M83.5873 104.585H78.3435C78.3118 104.586 78.2804 104.58 78.2509 104.568C78.2215 104.557 78.1947 104.539 78.1721 104.517C78.1495 104.495 78.1315 104.468 78.1193 104.439C78.107 104.409 78.1007 104.378 78.1007 104.346L78.057 102.293C78.0573 102.228 78.0815 102.166 78.125 102.118C78.1724 102.073 78.2346 102.047 78.2998 102.044H83.3542C83.4146 102.044 83.4729 102.066 83.5178 102.107C83.5627 102.148 83.5909 102.204 83.597 102.264L83.8252 104.317C83.8302 104.351 83.8277 104.385 83.8179 104.418C83.8081 104.451 83.7913 104.481 83.7686 104.507C83.7459 104.532 83.7179 104.553 83.6866 104.566C83.6553 104.58 83.6213 104.586 83.5873 104.585ZM78.5814 104.097H83.3154L83.1357 102.532H78.5474L78.5814 104.097Z" fill="#D1D3D4"/>
<path d="M91.25 104.585H86.0063C85.9486 104.586 85.8928 104.565 85.849 104.528C85.8052 104.49 85.7766 104.437 85.7684 104.38L85.4236 102.327C85.4196 102.292 85.4228 102.257 85.433 102.224C85.4433 102.19 85.4604 102.159 85.4832 102.132C85.506 102.106 85.5341 102.084 85.5656 102.069C85.5971 102.054 85.6315 102.046 85.6664 102.044H90.7208C90.7748 102.044 90.8273 102.062 90.8697 102.096C90.9121 102.13 90.9417 102.177 90.9539 102.23L91.4394 104.283C91.4493 104.319 91.4504 104.356 91.4428 104.393C91.4352 104.429 91.4191 104.463 91.3957 104.492C91.3604 104.54 91.3084 104.574 91.25 104.585ZM86.2151 104.097H90.9393L90.5557 102.532H85.9723L86.2151 104.097Z" fill="#D1D3D4"/>
<path d="M98.8631 104.585H93.6193C93.5666 104.586 93.5151 104.569 93.4729 104.537C93.4307 104.505 93.4002 104.461 93.3862 104.409L92.7939 102.357C92.7844 102.32 92.783 102.282 92.7897 102.245C92.7964 102.208 92.8111 102.173 92.8327 102.142C92.8563 102.113 92.8858 102.089 92.9193 102.072C92.9528 102.055 92.9895 102.046 93.0269 102.044H98.0862C98.1355 102.045 98.1834 102.06 98.2234 102.089C98.2634 102.118 98.2935 102.159 98.3096 102.205L99.0913 104.258C99.1033 104.296 99.107 104.335 99.1019 104.374C99.0969 104.413 99.0833 104.45 99.0622 104.483C99.0393 104.514 99.0094 104.54 98.9748 104.558C98.9402 104.575 98.9019 104.585 98.8631 104.585ZM93.8038 104.097H98.5329L97.9406 102.532H93.3765L93.8038 104.097Z" fill="#D1D3D4"/>
<path d="M106.5 104.585H101.256C101.209 104.585 101.162 104.571 101.123 104.545C101.083 104.519 101.052 104.482 101.032 104.439L100.168 102.386C100.149 102.351 100.139 102.311 100.139 102.271C100.139 102.231 100.149 102.192 100.168 102.157C100.191 102.123 100.221 102.095 100.257 102.076C100.292 102.056 100.332 102.045 100.372 102.044H105.427C105.471 102.045 105.515 102.057 105.554 102.081C105.592 102.104 105.623 102.137 105.645 102.176L106.694 104.229C106.714 104.266 106.725 104.307 106.725 104.349C106.725 104.39 106.714 104.432 106.694 104.468C106.673 104.502 106.645 104.53 106.611 104.55C106.577 104.57 106.539 104.582 106.5 104.585ZM101.416 104.097H106.101L105.3 102.532H100.756L101.416 104.097Z" fill="#D1D3D4"/>
<path d="M57.3732 107.911H52.144C52.1036 107.91 52.0639 107.899 52.0284 107.88C51.9929 107.86 51.9626 107.832 51.9401 107.798C51.9209 107.764 51.9109 107.726 51.9109 107.686C51.9109 107.647 51.9209 107.608 51.9401 107.574L52.8869 105.277C52.9051 105.233 52.936 105.195 52.9758 105.168C53.0155 105.141 53.0623 105.126 53.1102 105.126H58.1404C58.1791 105.127 58.2173 105.136 58.2518 105.154C58.2863 105.172 58.3163 105.197 58.3394 105.229C58.3613 105.26 58.3757 105.296 58.3816 105.334C58.3875 105.372 58.3847 105.411 58.3734 105.448L57.6257 107.74C57.6093 107.793 57.5753 107.839 57.5294 107.87C57.4835 107.901 57.4284 107.915 57.3732 107.911ZM52.5179 107.423H57.2081L57.7956 105.614H53.2607L52.5179 107.423Z" fill="#D1D3D4"/>
<path d="M50.4642 107.911H46.0944C46.0525 107.911 46.0113 107.9 45.9747 107.88C45.9381 107.859 45.9074 107.83 45.8856 107.794C45.8652 107.757 45.8545 107.716 45.8545 107.674C45.8545 107.632 45.8652 107.591 45.8856 107.555L47.0606 105.263C47.0811 105.222 47.1123 105.188 47.1508 105.164C47.1894 105.14 47.2337 105.127 47.2791 105.126H51.4984C51.5382 105.127 51.5772 105.138 51.6119 105.157C51.6466 105.177 51.676 105.205 51.6975 105.238C51.7179 105.274 51.7287 105.314 51.7287 105.355C51.7287 105.396 51.7179 105.437 51.6975 105.472L50.6876 107.764C50.6686 107.808 50.6374 107.845 50.5977 107.871C50.558 107.897 50.5116 107.911 50.4642 107.911ZM46.478 107.423H50.304L51.1003 105.614H47.4005L46.478 107.423Z" fill="#D1D3D4"/>
<path d="M64.9957 107.911H59.7665C59.7288 107.91 59.6916 107.901 59.6577 107.885C59.6239 107.868 59.5944 107.843 59.5715 107.813C59.5485 107.783 59.5327 107.748 59.5253 107.711C59.5179 107.674 59.519 107.635 59.5286 107.599L60.189 105.307C60.2028 105.255 60.2331 105.21 60.2752 105.177C60.3173 105.144 60.3689 105.127 60.422 105.126H65.457C65.4925 105.128 65.5272 105.137 65.5589 105.153C65.5906 105.169 65.6186 105.192 65.641 105.219C65.6635 105.247 65.6799 105.279 65.6892 105.313C65.6985 105.348 65.7004 105.384 65.6949 105.419L65.2094 107.716C65.1992 107.767 65.173 107.813 65.1346 107.848C65.0961 107.884 65.0475 107.905 64.9957 107.911ZM60.087 107.423H64.7967L65.1608 105.614H60.6065L60.087 107.423Z" fill="#D1D3D4"/>
<path d="M72.6147 107.911H67.3855C67.3501 107.911 67.3153 107.903 67.2834 107.888C67.2514 107.872 67.2233 107.85 67.201 107.823C67.1784 107.796 67.1619 107.765 67.1527 107.731C67.1435 107.698 67.1417 107.662 67.1475 107.628L67.5165 105.331C67.5257 105.274 67.5547 105.222 67.5982 105.185C67.6417 105.147 67.6971 105.127 67.7545 105.126H72.7992C72.8321 105.126 72.8648 105.133 72.8949 105.146C72.925 105.16 72.952 105.18 72.974 105.204C72.9975 105.229 73.0158 105.258 73.0275 105.29C73.0392 105.322 73.0441 105.356 73.0419 105.39L72.8671 107.681C72.8634 107.745 72.8348 107.805 72.7876 107.848C72.7404 107.891 72.6783 107.913 72.6147 107.911ZM67.6719 107.423H72.3913L72.5273 105.614H67.9438L67.6719 107.423Z" fill="#D1D3D4"/>
<path d="M80.2377 107.911H75.0085C74.9755 107.911 74.9429 107.904 74.9127 107.89C74.8826 107.877 74.8557 107.857 74.8337 107.833C74.8101 107.81 74.7917 107.783 74.78 107.753C74.7682 107.722 74.7634 107.69 74.7657 107.657L74.8434 105.365C74.8459 105.302 74.8724 105.242 74.9175 105.197C74.9626 105.153 75.023 105.127 75.0862 105.126H80.1212C80.1839 105.126 80.2442 105.151 80.2895 105.194C80.3347 105.238 80.3614 105.297 80.3639 105.36L80.4805 107.652C80.4829 107.685 80.478 107.719 80.4663 107.75C80.4545 107.781 80.4362 107.809 80.4125 107.833C80.3905 107.857 80.3636 107.877 80.3334 107.89C80.3033 107.904 80.2707 107.911 80.2377 107.911ZM75.261 107.423H79.9804L79.893 105.614H75.3241L75.261 107.423Z" fill="#D1D3D4"/>
<path d="M87.8505 107.911H82.6261C82.5655 107.911 82.507 107.888 82.4628 107.846C82.4186 107.804 82.3919 107.747 82.3882 107.686L82.1794 105.394C82.1749 105.361 82.1783 105.326 82.1893 105.294C82.2002 105.262 82.2184 105.233 82.2425 105.209C82.2644 105.183 82.2919 105.161 82.323 105.147C82.3541 105.133 82.388 105.126 82.4222 105.126H87.4523C87.5097 105.127 87.565 105.147 87.6086 105.185C87.6521 105.222 87.681 105.274 87.6902 105.331L88.0981 107.623C88.105 107.658 88.1038 107.694 88.0946 107.729C88.0853 107.764 88.0682 107.796 88.0447 107.823C88.0213 107.852 87.9916 107.875 87.9579 107.89C87.9242 107.905 87.8874 107.912 87.8505 107.911ZM82.8397 107.423H87.5591L87.2387 105.614H82.6747L82.8397 107.423Z" fill="#D1D3D4"/>
<path d="M95.4779 107.911H90.2486C90.1927 107.911 90.1384 107.891 90.0951 107.856C90.0517 107.82 90.0219 107.771 90.0107 107.716L89.5252 105.424C89.5181 105.388 89.5189 105.351 89.5275 105.316C89.5361 105.281 89.5523 105.247 89.575 105.219C89.5976 105.191 89.6263 105.168 89.6588 105.152C89.6913 105.136 89.7269 105.127 89.7631 105.126H94.7932C94.8458 105.126 94.8969 105.143 94.9389 105.175C94.9809 105.207 95.0116 105.251 95.0263 105.302L95.7206 107.594C95.7329 107.63 95.7357 107.668 95.7289 107.706C95.7221 107.744 95.7059 107.779 95.6818 107.808C95.659 107.841 95.6284 107.868 95.5928 107.886C95.5572 107.903 95.5177 107.912 95.4779 107.911ZM90.4429 107.423H95.1331L94.5845 105.614H90.035L90.4429 107.423Z" fill="#D1D3D4"/>
<path d="M103.101 107.911H97.8671C97.8168 107.91 97.768 107.893 97.7273 107.863C97.6865 107.834 97.6557 107.792 97.6389 107.745L96.8572 105.453C96.8437 105.416 96.8393 105.376 96.8443 105.337C96.8494 105.298 96.8638 105.261 96.8864 105.229C96.9095 105.197 96.9395 105.172 96.974 105.154C97.0085 105.136 97.0466 105.127 97.0854 105.126H102.12C102.168 105.126 102.214 105.141 102.253 105.168C102.292 105.195 102.322 105.233 102.339 105.277L103.31 107.569C103.326 107.606 103.333 107.647 103.329 107.687C103.326 107.728 103.313 107.767 103.29 107.801C103.268 107.835 103.238 107.862 103.202 107.882C103.167 107.901 103.127 107.911 103.087 107.911H103.101ZM98.0419 107.423H102.732L101.96 105.614H97.4253L98.0419 107.423Z" fill="#D1D3D4"/>
<path d="M108.204 107.911H104.766C104.72 107.91 104.674 107.897 104.635 107.871C104.596 107.844 104.566 107.808 104.548 107.764L103.499 105.472C103.48 105.436 103.47 105.396 103.47 105.355C103.47 105.315 103.48 105.274 103.499 105.238C103.523 105.205 103.554 105.177 103.59 105.157C103.626 105.138 103.667 105.127 103.708 105.126H107.014C107.059 105.128 107.102 105.141 107.14 105.165C107.177 105.189 107.208 105.223 107.228 105.263L108.403 107.555C108.424 107.591 108.436 107.632 108.436 107.674C108.436 107.716 108.424 107.757 108.403 107.794C108.382 107.828 108.353 107.857 108.318 107.878C108.284 107.898 108.244 107.91 108.204 107.911ZM104.922 107.423H107.806L106.878 105.614H104.096L104.922 107.423Z" fill="#D1D3D4"/>
<path d="M59.3884 101.742H54.6884C54.6489 101.743 54.6099 101.733 54.5751 101.714C54.5403 101.696 54.5108 101.668 54.4894 101.635C54.4702 101.6 54.4602 101.56 54.4602 101.52C54.4602 101.48 54.4702 101.441 54.4894 101.406L55.2565 99.5479C55.2747 99.5034 55.3056 99.4653 55.3454 99.4384C55.3851 99.4115 55.4319 99.397 55.4798 99.3967H60.0196C60.0578 99.3969 60.0953 99.4063 60.1291 99.4241C60.1629 99.4419 60.192 99.4677 60.2138 99.4991C60.2367 99.5293 60.2518 99.5647 60.2577 99.6021C60.2637 99.6396 60.2602 99.6779 60.2478 99.7137L59.6409 101.572C59.6253 101.625 59.5915 101.672 59.5454 101.703C59.4992 101.734 59.4437 101.748 59.3884 101.742ZM55.0526 101.255H59.2039L59.6506 99.8844H55.6061L55.0526 101.255Z" fill="#D1D3D4"/>
<path d="M53.188 101.742H49.2504C49.2085 101.742 49.1672 101.731 49.1306 101.711C49.094 101.69 49.0634 101.661 49.0416 101.625C49.0212 101.588 49.0104 101.547 49.0104 101.505C49.0104 101.463 49.0212 101.422 49.0416 101.386L50.0127 99.528C50.0321 99.4879 50.0625 99.4542 50.1003 99.4308C50.1382 99.4075 50.1819 99.3955 50.2263 99.3963H54.028C54.0688 99.3954 54.1091 99.4053 54.1449 99.425C54.1807 99.4447 54.2107 99.4735 54.2319 99.5084C54.2511 99.5436 54.2611 99.583 54.2611 99.623C54.2611 99.6631 54.2511 99.7025 54.2319 99.7376L53.4162 101.596C53.3965 101.64 53.3643 101.677 53.3238 101.703C53.2833 101.729 53.2361 101.742 53.188 101.742ZM49.6485 101.254H53.0472L53.6542 99.8839H50.3671L49.6485 101.254Z" fill="#D1D3D4"/>
<path d="M66.2343 101.742H61.5343C61.4968 101.742 61.4598 101.732 61.4263 101.716C61.3927 101.699 61.3632 101.674 61.3401 101.645C61.3185 101.614 61.3038 101.579 61.2971 101.542C61.2903 101.505 61.2918 101.467 61.3013 101.43L61.8354 99.5723C61.8501 99.5216 61.8807 99.4771 61.9228 99.4455C61.9648 99.4138 62.0159 99.3967 62.0684 99.3967H66.6033C66.6393 99.397 66.6748 99.4049 66.7074 99.4201C66.7401 99.4352 66.7692 99.4572 66.7927 99.4845C66.8158 99.5126 66.8322 99.5457 66.8406 99.5812C66.849 99.6167 66.8492 99.6537 66.8412 99.6893L66.4868 101.547C66.4743 101.604 66.4421 101.655 66.3959 101.691C66.3497 101.727 66.2925 101.745 66.2343 101.742ZM61.8645 101.255H66.0449L66.3168 99.8844H62.2578L61.8645 101.255Z" fill="#D1D3D4"/>
<path d="M73.0807 101.742H68.3807C68.3458 101.741 68.3114 101.733 68.2799 101.718C68.2484 101.702 68.2203 101.681 68.1975 101.654C68.1747 101.628 68.1576 101.597 68.1473 101.563C68.1371 101.53 68.1339 101.494 68.1379 101.459L68.439 99.6015C68.4481 99.5447 68.4771 99.4929 68.5206 99.4554C68.5642 99.4179 68.6195 99.3971 68.6769 99.3967H73.2166C73.2502 99.3966 73.2834 99.4035 73.3142 99.417C73.345 99.4304 73.3727 99.4501 73.3955 99.4749C73.4184 99.4996 73.4358 99.5289 73.4468 99.5607C73.4578 99.5926 73.4621 99.6264 73.4594 99.66L73.3186 101.518C73.3149 101.579 73.2882 101.636 73.244 101.678C73.1997 101.719 73.1413 101.742 73.0807 101.742ZM68.6672 101.255H72.8525L72.9544 99.8844H68.8857L68.6672 101.255Z" fill="#D1D3D4"/>
<path d="M79.9207 101.742H75.2256C75.16 101.742 75.0971 101.716 75.0508 101.669C75.0271 101.646 75.0087 101.618 74.997 101.586C74.9853 101.555 74.9804 101.522 74.9828 101.489L75.046 99.6308C75.0485 99.5678 75.0752 99.5083 75.1204 99.4647C75.1657 99.421 75.226 99.3967 75.2887 99.3967H79.8285C79.8901 99.3978 79.9491 99.4218 79.994 99.4642C80.0389 99.5066 80.0664 99.5642 80.0712 99.6259L80.1635 101.484C80.1656 101.517 80.1611 101.549 80.1503 101.58C80.1394 101.611 80.1225 101.64 80.1004 101.664C80.0771 101.689 80.0492 101.708 80.0184 101.721C79.9875 101.735 79.9543 101.742 79.9207 101.742ZM75.4732 101.255H79.6682L79.5954 99.8844H75.5218L75.4732 101.255Z" fill="#D1D3D4"/>
<path d="M86.7669 101.742H82.0669C82.0062 101.742 81.9478 101.719 81.9036 101.678C81.8594 101.636 81.8327 101.579 81.829 101.518L81.659 99.6601C81.6559 99.6265 81.6599 99.5926 81.6708 99.5606C81.6817 99.5287 81.6992 99.4994 81.7222 99.4748C81.7453 99.4502 81.7731 99.4306 81.804 99.4172C81.8349 99.4038 81.8682 99.3968 81.9018 99.3968H86.4367C86.4942 99.3958 86.5501 99.4154 86.5946 99.452C86.6391 99.4886 86.6691 99.5399 86.6795 99.5967L87.0048 101.455C87.0121 101.49 87.0111 101.526 87.0018 101.561C86.9926 101.596 86.9753 101.628 86.9514 101.655C86.929 101.682 86.9009 101.704 86.869 101.719C86.8371 101.734 86.8022 101.742 86.7669 101.742ZM82.2902 101.255H86.4756L86.2376 99.8844H82.164L82.2902 101.255Z" fill="#D1D3D4"/>
<path d="M93.6144 101.742H88.9144C88.8587 101.741 88.8049 101.722 88.7617 101.686C88.7185 101.651 88.6885 101.602 88.6765 101.547L88.2783 99.6942C88.2693 99.659 88.2685 99.6222 88.2761 99.5866C88.2837 99.5511 88.2994 99.5178 88.322 99.4894C88.3449 99.4609 88.3737 99.4378 88.4064 99.4218C88.4391 99.4058 88.475 99.3972 88.5114 99.3967H93.0511C93.1031 99.3964 93.1537 99.4128 93.1956 99.4435C93.2376 99.4743 93.2686 99.5177 93.2842 99.5674L93.8474 101.425C93.857 101.463 93.8585 101.501 93.8518 101.539C93.8451 101.577 93.8303 101.613 93.8086 101.645C93.7857 101.675 93.7563 101.699 93.7227 101.716C93.689 101.733 93.652 101.742 93.6144 101.742ZM89.1086 101.255H93.2842L92.8715 99.8844H88.8221L89.1086 101.255Z" fill="#D1D3D4"/>
<path d="M100.474 101.742H95.7737C95.7234 101.741 95.6747 101.725 95.6339 101.695C95.5931 101.665 95.5623 101.624 95.5455 101.576L94.9095 99.7186C94.8972 99.6822 94.8934 99.6435 94.8984 99.6054C94.9035 99.5673 94.9172 99.531 94.9386 99.4991C94.9618 99.4678 94.9917 99.4423 95.0263 99.4246C95.0608 99.4068 95.0989 99.3973 95.1377 99.3967H99.6774C99.7247 99.3972 99.7708 99.4112 99.8104 99.4371C99.8499 99.463 99.8813 99.4998 99.9008 99.543L100.697 101.401C100.713 101.438 100.718 101.479 100.714 101.519C100.71 101.559 100.696 101.597 100.673 101.63C100.651 101.664 100.622 101.692 100.587 101.711C100.552 101.731 100.513 101.741 100.474 101.742ZM95.9485 101.255H100.105L99.5026 99.8844H95.463L95.9485 101.255Z" fill="#D1D3D4"/>
<path d="M105.044 101.742H101.956C101.909 101.742 101.863 101.729 101.824 101.704C101.784 101.679 101.752 101.643 101.732 101.601L100.887 99.743C100.87 99.706 100.863 99.6652 100.866 99.6245C100.868 99.5838 100.881 99.5445 100.903 99.51C100.924 99.4756 100.954 99.4472 100.99 99.4274C101.025 99.4076 101.065 99.3971 101.106 99.3967H104.087C104.132 99.3962 104.176 99.4082 104.215 99.4315C104.254 99.4547 104.285 99.4883 104.306 99.5284L105.277 101.386C105.297 101.423 105.308 101.464 105.308 101.506C105.308 101.548 105.297 101.589 105.277 101.625C105.253 101.665 105.219 101.698 105.178 101.719C105.136 101.739 105.09 101.748 105.044 101.742ZM102.13 101.255H104.665L103.961 99.8844H101.504L102.13 101.255Z" fill="#D1D3D4"/>
<path d="M50.062 111.641H44.1774C44.1355 111.641 44.0942 111.63 44.0576 111.61C44.021 111.589 43.9904 111.56 43.9686 111.524C43.9482 111.487 43.9374 111.446 43.9374 111.404C43.9374 111.362 43.9482 111.321 43.9686 111.285L45.2892 108.705C45.3108 108.666 45.3423 108.633 45.3807 108.61C45.4191 108.586 45.4629 108.574 45.5077 108.573H51.1593C51.1998 108.574 51.2394 108.585 51.2749 108.605C51.3104 108.624 51.3407 108.652 51.3633 108.686C51.3824 108.721 51.3924 108.76 51.3924 108.8C51.3924 108.84 51.3824 108.88 51.3633 108.915L50.2902 111.494C50.2704 111.538 50.2383 111.576 50.1978 111.602C50.1573 111.628 50.1101 111.641 50.062 111.641ZM44.5755 111.153H49.9164L50.8001 109.061H45.6437L44.5755 111.153Z" fill="#D1D3D4"/>
<path d="M58.6397 111.641H52.7502C52.7108 111.64 52.6721 111.63 52.6374 111.612C52.6028 111.593 52.5731 111.566 52.5511 111.533C52.5293 111.501 52.5158 111.463 52.5116 111.424C52.5073 111.385 52.5126 111.346 52.5268 111.309L53.4979 108.73C53.5156 108.683 53.547 108.644 53.5877 108.616C53.6285 108.588 53.6768 108.573 53.7261 108.573H59.3777C59.4153 108.574 59.4524 108.583 59.486 108.6C59.5197 108.617 59.549 108.641 59.5719 108.671C59.5956 108.701 59.6116 108.736 59.6184 108.773C59.6252 108.811 59.6225 108.849 59.6108 108.886L58.8679 111.465C58.8534 111.515 58.8235 111.559 58.7824 111.591C58.7414 111.622 58.6914 111.64 58.6397 111.641ZM53.1046 111.153H58.4455L59.0475 109.061H53.896L53.1046 111.153Z" fill="#D1D3D4"/>
<path d="M84.6839 111.641H61.3298C61.2932 111.641 61.2571 111.633 61.2243 111.617C61.1915 111.601 61.1628 111.577 61.1404 111.548C61.118 111.519 61.1025 111.484 61.0949 111.448C61.0874 111.412 61.088 111.374 61.0967 111.338L61.7279 108.759C61.7418 108.706 61.7726 108.659 61.8156 108.626C61.8586 108.592 61.9114 108.574 61.9658 108.573H84.3829C84.442 108.573 84.4991 108.595 84.5431 108.635C84.5871 108.674 84.6148 108.729 84.6208 108.788L84.9267 111.368C84.9302 111.402 84.9264 111.437 84.9155 111.47C84.9046 111.502 84.8869 111.532 84.8636 111.558C84.8415 111.584 84.814 111.605 84.783 111.619C84.7519 111.634 84.7181 111.641 84.6839 111.641ZM61.6405 111.153H84.4121L84.1644 109.061H62.1552L61.6405 111.153Z" fill="#D1D3D4"/>
<path d="M92.9577 111.641H87.0681C87.0108 111.64 86.9554 111.62 86.9119 111.582C86.8683 111.545 86.8394 111.493 86.8302 111.436L86.4321 108.856C86.4262 108.822 86.428 108.787 86.4372 108.753C86.4465 108.719 86.4629 108.688 86.4855 108.661C86.5083 108.634 86.5365 108.613 86.5683 108.597C86.6001 108.582 86.6348 108.574 86.67 108.573H92.3216C92.376 108.574 92.4288 108.592 92.4718 108.626C92.5148 108.659 92.5457 108.706 92.5595 108.759L93.1907 111.338C93.2006 111.374 93.2018 111.412 93.1942 111.449C93.1866 111.485 93.1704 111.519 93.147 111.548C93.1247 111.577 93.0959 111.601 93.0631 111.617C93.0303 111.633 92.9942 111.641 92.9577 111.641ZM87.2769 111.153H92.6469L92.1323 109.056H86.9565L87.2769 111.153Z" fill="#D1D3D4"/>
<path d="M101.537 111.641H95.6479C95.5954 111.641 95.5443 111.624 95.5023 111.592C95.4602 111.56 95.4296 111.516 95.4149 111.465L94.672 108.886C94.6625 108.849 94.6611 108.811 94.6678 108.774C94.6745 108.737 94.6892 108.702 94.7108 108.671C94.7344 108.642 94.7639 108.618 94.7974 108.601C94.8309 108.584 94.8676 108.575 94.9051 108.573H100.557C100.606 108.573 100.654 108.588 100.695 108.616C100.736 108.644 100.767 108.683 100.785 108.73L101.756 111.309C101.768 111.346 101.772 111.386 101.767 111.425C101.762 111.464 101.748 111.501 101.727 111.533C101.706 111.565 101.678 111.591 101.645 111.61C101.612 111.629 101.575 111.639 101.537 111.641ZM95.8324 111.153H101.173L100.392 109.056H95.2304L95.8324 111.153Z" fill="#D1D3D4"/>
<path d="M110.117 111.641H104.228C104.181 111.64 104.135 111.626 104.095 111.6C104.055 111.574 104.024 111.538 104.005 111.494L102.902 108.915C102.887 108.878 102.881 108.837 102.885 108.797C102.889 108.757 102.904 108.719 102.927 108.686C102.948 108.652 102.978 108.624 103.012 108.605C103.047 108.585 103.086 108.574 103.126 108.573H108.782C108.826 108.575 108.869 108.588 108.906 108.611C108.944 108.634 108.975 108.666 108.996 108.705L110.317 111.285C110.337 111.321 110.348 111.362 110.348 111.404C110.348 111.446 110.337 111.487 110.317 111.524C110.295 111.558 110.266 111.586 110.231 111.606C110.196 111.627 110.158 111.638 110.117 111.641ZM104.388 111.153H109.729L108.646 109.056H103.509L104.388 111.153Z" fill="#D1D3D4"/>
<path d="M115.453 113.748H38.8401V115.727H115.453V113.748Z" fill="#231F20"/>
<path d="M115.453 115.971H38.841C38.7766 115.971 38.7149 115.945 38.6694 115.9C38.6238 115.854 38.5983 115.792 38.5983 115.727V113.747C38.5983 113.683 38.6238 113.621 38.6694 113.575C38.7149 113.529 38.7766 113.504 38.841 113.504H115.453C115.517 113.505 115.579 113.531 115.624 113.576C115.669 113.622 115.695 113.683 115.696 113.747V115.727C115.696 115.792 115.671 115.854 115.625 115.9C115.58 115.945 115.518 115.971 115.453 115.971ZM39.0838 115.483H115.211V113.991H39.0838V115.483Z" fill="#231F20"/>
<path d="M128.665 96.4755C128.665 96.4755 127.436 94.525 125.654 94.5688L128.665 96.4755Z" fill="white"/>
<path d="M128.664 96.7193C128.623 96.7196 128.583 96.7095 128.547 96.6899C128.512 96.6703 128.482 96.6418 128.46 96.6071C128.46 96.6071 127.29 94.8126 125.688 94.8126H125.658C125.594 94.8126 125.532 94.7869 125.487 94.7412C125.441 94.6955 125.416 94.6334 125.416 94.5688C125.415 94.537 125.421 94.5054 125.432 94.4758C125.444 94.4463 125.461 94.4194 125.484 94.3967C125.506 94.374 125.532 94.3559 125.561 94.3436C125.591 94.3313 125.622 94.3249 125.654 94.325H125.688C127.557 94.325 128.814 96.2755 128.868 96.3438C128.903 96.3981 128.914 96.464 128.901 96.5271C128.887 96.5902 128.849 96.6453 128.795 96.6802C128.756 96.7049 128.71 96.7184 128.664 96.7193Z" fill="#231F20"/>
<path d="M48.9446 52.3594H1.89636V85.9917H48.9446V52.3594Z" fill="white"/>
<path d="M48.9395 86.2351H1.91061C1.84623 86.2351 1.78448 86.2094 1.73895 86.1637C1.69342 86.118 1.66785 86.056 1.66785 85.9913V52.3444C1.66785 52.2797 1.69342 52.2177 1.73895 52.172C1.78448 52.1263 1.84623 52.1006 1.91061 52.1006H48.954C49.0184 52.1006 49.0802 52.1263 49.1257 52.172C49.1712 52.2177 49.1968 52.2797 49.1968 52.3444V85.9913C49.1969 86.0246 49.1901 86.0575 49.177 86.0881C49.1639 86.1187 49.1447 86.1463 49.1206 86.1691C49.0965 86.1919 49.068 86.2096 49.0369 86.2209C49.0057 86.2323 48.9726 86.2371 48.9395 86.2351ZM2.13882 85.7475H48.6967V52.5882H2.13882V85.7475Z" fill="#231F20"/>
<path d="M48.9395 55.9288H1.91061C1.84623 55.9288 1.78448 55.9031 1.73895 55.8574C1.69342 55.8117 1.66785 55.7496 1.66785 55.685C1.66785 55.6203 1.69342 55.5583 1.73895 55.5126C1.78448 55.4668 1.84623 55.4412 1.91061 55.4412H48.954C49.0184 55.4412 49.0802 55.4668 49.1257 55.5126C49.1712 55.5583 49.1968 55.6203 49.1968 55.685C49.1969 55.7183 49.1901 55.7512 49.177 55.7818C49.1639 55.8124 49.1447 55.8399 49.1206 55.8628C49.0965 55.8856 49.068 55.9032 49.0369 55.9146C49.0057 55.926 48.9726 55.9308 48.9395 55.9288Z" fill="#231F20"/>
<path d="M11.763 58.6202H6.01913C5.95475 58.6202 5.893 58.5945 5.84747 58.5488C5.80194 58.5031 5.77637 58.441 5.77637 58.3764C5.77637 58.3117 5.80194 58.2497 5.84747 58.204C5.893 58.1583 5.95475 58.1326 6.01913 58.1326H11.763C11.8274 58.1326 11.8891 58.1583 11.9347 58.204C11.9802 58.2497 12.0058 58.3117 12.0058 58.3764C12.0058 58.441 11.9802 58.5031 11.9347 58.5488C11.8891 58.5945 11.8274 58.6202 11.763 58.6202Z" fill="#D1D3D4"/>
<path d="M26.2552 58.6202H14.7868C14.7228 58.6189 14.6618 58.5929 14.6166 58.5474C14.5713 58.5019 14.5453 58.4407 14.5441 58.3764C14.5441 58.3117 14.5696 58.2497 14.6152 58.204C14.6607 58.1583 14.7224 58.1326 14.7868 58.1326H26.2552C26.3195 58.1326 26.3813 58.1583 26.4268 58.204C26.4723 58.2497 26.4979 58.3117 26.4979 58.3764C26.4979 58.441 26.4723 58.5031 26.4268 58.5488C26.3813 58.5945 26.3195 58.6202 26.2552 58.6202Z" fill="#584475"/>
<path d="M29.7075 61.6095H18.2392C18.1748 61.6095 18.113 61.5838 18.0675 61.5381C18.022 61.4923 17.9964 61.4303 17.9964 61.3657C17.9976 61.3014 18.0236 61.2401 18.0689 61.1946C18.1141 61.1492 18.1752 61.1231 18.2392 61.1218H29.7075C29.7719 61.1218 29.8336 61.1475 29.8792 61.1932C29.9247 61.239 29.9503 61.301 29.9503 61.3657C29.9503 61.4303 29.9247 61.4923 29.8792 61.5381C29.8336 61.5838 29.7719 61.6095 29.7075 61.6095Z" fill="#584475"/>
<path d="M13.1132 61.6095H7.36447C7.30009 61.6095 7.23834 61.5838 7.19281 61.5381C7.14728 61.4923 7.1217 61.4303 7.1217 61.3657C7.12295 61.3014 7.14892 61.2401 7.19418 61.1946C7.23945 61.1492 7.30047 61.1231 7.36447 61.1218H13.1132C13.1776 61.1218 13.2393 61.1475 13.2849 61.1932C13.3304 61.239 13.356 61.301 13.356 61.3657C13.356 61.4303 13.3304 61.4923 13.2849 61.5381C13.2393 61.5838 13.1776 61.6095 13.1132 61.6095Z" fill="#D1D3D4"/>
<path d="M13.3308 64.6038H8.70847C8.64408 64.6038 8.58233 64.5782 8.5368 64.5324C8.49128 64.4867 8.4657 64.4247 8.4657 64.36C8.46694 64.2958 8.49292 64.2345 8.53818 64.189C8.58344 64.1435 8.64447 64.1175 8.70847 64.1162H13.3259C13.3903 64.1162 13.452 64.1419 13.4976 64.1876C13.5431 64.2333 13.5687 64.2954 13.5687 64.36C13.5687 64.4239 13.5438 64.4851 13.4993 64.5307C13.4548 64.5763 13.3943 64.6026 13.3308 64.6038Z" fill="#D1D3D4"/>
<path d="M31.7618 64.6038H17.4046C17.3402 64.6038 17.2784 64.5782 17.2329 64.5324C17.1874 64.4867 17.1618 64.4247 17.1618 64.36C17.163 64.2958 17.189 64.2345 17.2343 64.189C17.2795 64.1435 17.3406 64.1175 17.4046 64.1162H31.7618C31.8258 64.1175 31.8868 64.1435 31.9321 64.189C31.9774 64.2345 32.0033 64.2958 32.0046 64.36C32.0046 64.4247 31.979 64.4867 31.9335 64.5324C31.8879 64.5782 31.8262 64.6038 31.7618 64.6038Z" fill="#584475"/>
<path d="M15.8113 67.6073H10.0625C9.99814 67.6073 9.9364 67.5816 9.89087 67.5358C9.84534 67.4901 9.81976 67.4281 9.81976 67.3634C9.81976 67.2988 9.84534 67.2368 9.89087 67.191C9.9364 67.1453 9.99814 67.1196 10.0625 67.1196H15.8113C15.8753 67.1209 15.9363 67.147 15.9815 67.1924C16.0268 67.2379 16.0528 67.2992 16.054 67.3634C16.054 67.4281 16.0284 67.4901 15.9829 67.5358C15.9374 67.5816 15.8756 67.6073 15.8113 67.6073Z" fill="#D1D3D4"/>
<path d="M34.7285 67.6073H17.662C17.5976 67.6073 17.5358 67.5816 17.4903 67.5358C17.4448 67.4901 17.4192 67.4281 17.4192 67.3634C17.4192 67.2988 17.4448 67.2368 17.4903 67.191C17.5358 67.1453 17.5976 67.1196 17.662 67.1196H34.7285C34.7929 67.1196 34.8546 67.1453 34.9001 67.191C34.9457 67.2368 34.9713 67.2988 34.9713 67.3634C34.9713 67.4281 34.9457 67.4901 34.9001 67.5358C34.8546 67.5816 34.7929 67.6073 34.7285 67.6073Z" fill="#584475"/>
<path d="M14.2869 70.5917H8.53818C8.47379 70.5917 8.41204 70.566 8.36651 70.5202C8.32099 70.4745 8.29541 70.4125 8.29541 70.3478C8.29541 70.2832 8.32099 70.2211 8.36651 70.1754C8.41204 70.1297 8.47379 70.104 8.53818 70.104H14.2869C14.3513 70.104 14.413 70.1297 14.4586 70.1754C14.5041 70.2211 14.5297 70.2832 14.5297 70.3478C14.5297 70.4125 14.5041 70.4745 14.4586 70.5202C14.413 70.566 14.3513 70.5917 14.2869 70.5917Z" fill="#D1D3D4"/>
<path d="M25.7408 70.5917H16.4768C16.4124 70.5917 16.3506 70.566 16.3051 70.5202C16.2596 70.4745 16.234 70.4125 16.234 70.3478C16.234 70.2832 16.2596 70.2211 16.3051 70.1754C16.3506 70.1297 16.4124 70.104 16.4768 70.104H25.7408C25.8052 70.104 25.8669 70.1297 25.9124 70.1754C25.958 70.2211 25.9835 70.2832 25.9835 70.3478C25.9835 70.4125 25.958 70.4745 25.9124 70.5202C25.8669 70.566 25.8052 70.5917 25.7408 70.5917Z" fill="#584475"/>
<path d="M38.5297 70.5917H29.2754C29.211 70.5917 29.1493 70.566 29.1038 70.5202C29.0582 70.4745 29.0327 70.4125 29.0327 70.3478C29.0327 70.2832 29.0582 70.2211 29.1038 70.1754C29.1493 70.1297 29.211 70.104 29.2754 70.104H38.5297C38.5941 70.104 38.6558 70.1297 38.7014 70.1754C38.7469 70.2211 38.7725 70.2832 38.7725 70.3478C38.7725 70.4125 38.7469 70.4745 38.7014 70.5202C38.6558 70.566 38.5941 70.5917 38.5297 70.5917Z" fill="#584475"/>
<path d="M10.5192 73.5858H8.53818C8.47379 73.5858 8.41204 73.5601 8.36651 73.5144C8.32099 73.4687 8.29541 73.4066 8.29541 73.342C8.29541 73.2773 8.32099 73.2153 8.36651 73.1696C8.41204 73.1238 8.47379 73.0981 8.53818 73.0981H10.5192C10.5835 73.0981 10.6453 73.1238 10.6908 73.1696C10.7363 73.2153 10.7619 73.2773 10.7619 73.342C10.7619 73.4066 10.7363 73.4687 10.6908 73.5144C10.6453 73.5601 10.5835 73.5858 10.5192 73.5858Z" fill="#D1D3D4"/>
<path d="M25.7418 73.5858H13.8948C13.8304 73.5858 13.7687 73.5601 13.7231 73.5144C13.6776 73.4687 13.652 73.4066 13.652 73.342C13.652 73.2773 13.6776 73.2153 13.7231 73.1696C13.7687 73.1238 13.8304 73.0981 13.8948 73.0981H25.7418C25.8062 73.0981 25.868 73.1238 25.9135 73.1696C25.959 73.2153 25.9846 73.2773 25.9846 73.342C25.9846 73.4066 25.959 73.4687 25.9135 73.5144C25.868 73.5601 25.8062 73.5858 25.7418 73.5858Z" fill="#584475"/>
<path d="M30.4106 73.5858H27.1042C27.0398 73.5858 26.978 73.5601 26.9325 73.5144C26.887 73.4687 26.8614 73.4066 26.8614 73.342C26.8614 73.2773 26.887 73.2153 26.9325 73.1696C26.978 73.1238 27.0398 73.0981 27.1042 73.0981H30.4106C30.475 73.0981 30.5368 73.1238 30.5823 73.1696C30.6278 73.2153 30.6534 73.2773 30.6534 73.342C30.6534 73.4066 30.6278 73.4687 30.5823 73.5144C30.5368 73.5601 30.475 73.5858 30.4106 73.5858Z" fill="#584475"/>
<path d="M11.6505 76.5799H8.53818C8.47418 76.5787 8.41315 76.5526 8.36789 76.5071C8.32263 76.4617 8.29665 76.4004 8.29541 76.3361C8.29541 76.2714 8.32099 76.2094 8.36651 76.1637C8.41204 76.118 8.47379 76.0923 8.53818 76.0923H11.6505C11.7148 76.0923 11.7766 76.118 11.8221 76.1637C11.8676 76.2094 11.8932 76.2714 11.8932 76.3361C11.892 76.4004 11.866 76.4617 11.8207 76.5071C11.7755 76.5526 11.7144 76.5787 11.6505 76.5799Z" fill="#D1D3D4"/>
<path d="M28.6443 76.5799H14.5638C14.4994 76.5799 14.4377 76.5542 14.3921 76.5085C14.3466 76.4628 14.321 76.4008 14.321 76.3361C14.321 76.2714 14.3466 76.2094 14.3921 76.1637C14.4377 76.118 14.4994 76.0923 14.5638 76.0923H28.6443C28.7087 76.0923 28.7704 76.118 28.816 76.1637C28.8615 76.2094 28.8871 76.2714 28.8871 76.3361C28.8858 76.4004 28.8599 76.4617 28.8146 76.5071C28.7693 76.5526 28.7083 76.5787 28.6443 76.5799Z" fill="#584475"/>
<path d="M35.7817 76.5799H30.033C29.9686 76.5799 29.9069 76.5542 29.8613 76.5085C29.8158 76.4628 29.7902 76.4008 29.7902 76.3361C29.7902 76.2714 29.8158 76.2094 29.8613 76.1637C29.9069 76.118 29.9686 76.0923 30.033 76.0923H35.7817C35.8461 76.0923 35.9079 76.118 35.9534 76.1637C35.9989 76.2094 36.0245 76.2714 36.0245 76.3361C36.0232 76.4004 35.9973 76.4617 35.952 76.5071C35.9067 76.5526 35.8457 76.5787 35.7817 76.5799Z" fill="#584475"/>
<path d="M10.2379 79.5741H7.18875C7.12475 79.5728 7.06373 79.5467 7.01846 79.5013C6.9732 79.4558 6.94723 79.3945 6.94598 79.3302C6.94598 79.2656 6.97156 79.2036 7.01709 79.1578C7.06262 79.1121 7.12437 79.0864 7.18875 79.0864H10.2379C10.3023 79.0864 10.364 79.1121 10.4096 79.1578C10.4551 79.2036 10.4807 79.2656 10.4807 79.3302C10.4807 79.3949 10.4551 79.4569 10.4096 79.5027C10.364 79.5484 10.3023 79.5741 10.2379 79.5741Z" fill="#D1D3D4"/>
<path d="M27.1049 79.5741H13.7916C13.7272 79.5741 13.6655 79.5484 13.6199 79.5027C13.5744 79.4569 13.5488 79.3949 13.5488 79.3302C13.5488 79.2656 13.5744 79.2036 13.6199 79.1578C13.6655 79.1121 13.7272 79.0864 13.7916 79.0864H27.1049C27.1693 79.0864 27.2311 79.1121 27.2766 79.1578C27.3221 79.2036 27.3477 79.2656 27.3477 79.3302C27.3477 79.3949 27.3221 79.4569 27.2766 79.5027C27.2311 79.5484 27.1693 79.5741 27.1049 79.5741Z" fill="#584475"/>
<path d="M12.9375 82.5631H7.18875C7.12437 82.5631 7.06262 82.5374 7.01709 82.4917C6.97156 82.446 6.94598 82.3839 6.94598 82.3193C6.94723 82.255 6.9732 82.1937 7.01846 82.1482C7.06373 82.1028 7.12475 82.0767 7.18875 82.0754H12.9375C13.0019 82.0754 13.0636 82.1011 13.1091 82.1469C13.1547 82.1926 13.1802 82.2546 13.1802 82.3193C13.1802 82.3839 13.1547 82.446 13.1091 82.4917C13.0636 82.5374 13.0019 82.5631 12.9375 82.5631Z" fill="#D1D3D4"/>
<path d="M44.8178 67.6073H37.0492C36.9848 67.6073 36.9231 67.5816 36.8776 67.5358C36.832 67.4901 36.8065 67.4281 36.8065 67.3634C36.8065 67.2988 36.832 67.2368 36.8776 67.191C36.9231 67.1453 36.9848 67.1196 37.0492 67.1196H44.8178C44.8822 67.1196 44.9439 67.1453 44.9894 67.191C45.035 67.2368 45.0605 67.2988 45.0605 67.3634C45.0605 67.4281 45.035 67.4901 44.9894 67.5358C44.9439 67.5816 44.8822 67.6073 44.8178 67.6073Z" fill="#584475"/>
<path d="M33.1453 58.6351C30.9312 58.6351 29.2998 58.6351 29.227 58.6351C29.1635 58.621 29.1081 58.5825 29.0727 58.5277C29.0372 58.473 29.0247 58.4065 29.0377 58.3425C29.0516 58.2827 29.0871 58.2301 29.1373 58.195C29.1875 58.1599 29.2488 58.1447 29.3096 58.1523C29.6834 58.1767 38.792 58.1523 42.283 58.1523C42.3466 58.1523 42.4076 58.1773 42.453 58.222C42.4984 58.2667 42.5245 58.3274 42.5258 58.3913C42.5258 58.4564 42.5004 58.5189 42.455 58.5654C42.4096 58.6119 42.3479 58.6387 42.283 58.64L33.1453 58.6351Z" fill="#584475"/>
<path d="M34.4416 79.5741H28.6151C28.5508 79.5741 28.489 79.5484 28.4435 79.5027C28.398 79.4569 28.3724 79.3949 28.3724 79.3302C28.3724 79.2656 28.398 79.2036 28.4435 79.1578C28.489 79.1121 28.5508 79.0864 28.6151 79.0864H34.4416C34.5059 79.0864 34.5677 79.1121 34.6132 79.1578C34.6587 79.2036 34.6843 79.2656 34.6843 79.3302C34.6843 79.3949 34.6587 79.4569 34.6132 79.5027C34.5677 79.5484 34.5059 79.5741 34.4416 79.5741Z" fill="#584475"/>
<path d="M21.1142 82.5631H16.8415C16.7771 82.5631 16.7154 82.5374 16.6699 82.4917C16.6243 82.446 16.5988 82.3839 16.5988 82.3193C16.5988 82.2546 16.6243 82.1926 16.6699 82.1469C16.7154 82.1011 16.7771 82.0754 16.8415 82.0754H21.1142C21.1786 82.0754 21.2404 82.1011 21.2859 82.1469C21.3314 82.1926 21.357 82.2546 21.357 82.3193C21.357 82.3839 21.3314 82.446 21.2859 82.4917C21.2404 82.5374 21.1786 82.5631 21.1142 82.5631Z" fill="#D1D3D4"/>
<path d="M32.9067 82.5631H22.7396C22.6752 82.5631 22.6135 82.5374 22.5679 82.4917C22.5224 82.446 22.4968 82.3839 22.4968 82.3193C22.4968 82.2546 22.5224 82.1926 22.5679 82.1469C22.6135 82.1011 22.6752 82.0754 22.7396 82.0754H32.9067C32.9707 82.0767 33.0317 82.1028 33.077 82.1482C33.1222 82.1937 33.1482 82.255 33.1494 82.3193C33.1494 82.3839 33.1239 82.446 33.0783 82.4917C33.0328 82.5374 32.9711 82.5631 32.9067 82.5631Z" fill="#584475"/>
<path d="M143.314 15.3279H123.11V33.4436H143.314V15.3279Z" fill="white"/>
<path d="M143.314 33.6878H123.11C123.046 33.6878 122.984 33.6621 122.939 33.6164C122.893 33.5707 122.868 33.5086 122.868 33.444V15.3283C122.869 15.264 122.895 15.2027 122.94 15.1573C122.985 15.1118 123.046 15.0857 123.11 15.0845H143.314C143.378 15.0845 143.44 15.1102 143.485 15.1559C143.531 15.2016 143.556 15.2636 143.556 15.3283V33.444C143.556 33.5086 143.531 33.5707 143.485 33.6164C143.44 33.6621 143.378 33.6878 143.314 33.6878ZM123.353 33.2002H143.071V15.5721H123.353V33.2002Z" fill="#231F20"/>
<path d="M143.314 18.0101H123.11C123.046 18.0088 122.985 17.9828 122.94 17.9373C122.895 17.8918 122.869 17.8305 122.868 17.7663C122.868 17.7016 122.893 17.6396 122.939 17.5939C122.984 17.5481 123.046 17.5225 123.11 17.5225H143.314C143.378 17.5225 143.44 17.5481 143.485 17.5939C143.531 17.6396 143.556 17.7016 143.556 17.7663C143.556 17.8309 143.531 17.893 143.485 17.9387C143.44 17.9844 143.378 18.0101 143.314 18.0101Z" fill="#231F20"/>
<path d="M125.975 25.6174V24.8372L129.573 22.6624L130.185 23.6376L127.481 25.2176L130.185 26.8073L129.573 27.7825L125.975 25.6174Z" fill="#584475"/>
<path d="M130.675 28.6307L134.943 21.3162L135.749 21.8038L131.491 29.0793L130.675 28.6307Z" fill="#584475"/>
<path d="M136.238 26.8163L138.943 25.2266L136.238 23.6467L136.85 22.6714L140.453 24.8462V25.6265L136.85 27.8013L136.238 26.8163Z" fill="#584475"/>
<path d="M44.5993 0.786621H14.8069V20.3945H44.5993V0.786621Z" fill="white"/>
<path d="M44.598 20.6385H14.8056C14.7412 20.6385 14.6795 20.6128 14.634 20.5671C14.5884 20.5213 14.5629 20.4593 14.5629 20.3947V0.801435C14.5641 0.737162 14.5901 0.675868 14.6353 0.630411C14.6806 0.584954 14.7416 0.558866 14.8056 0.557617H44.598C44.6624 0.557617 44.7242 0.583305 44.7697 0.62903C44.8152 0.674754 44.8408 0.736771 44.8408 0.801435V20.3947C44.8408 20.4267 44.8345 20.4584 44.8223 20.488C44.8101 20.5175 44.7922 20.5444 44.7697 20.5671C44.7471 20.5897 44.7204 20.6077 44.6909 20.6199C44.6615 20.6322 44.6299 20.6385 44.598 20.6385ZM15.0484 20.1508H44.3552V1.03062H15.0484V20.1508Z" fill="#231F20"/>
<path d="M44.598 2.97103H14.8056C14.7412 2.97103 14.6795 2.94535 14.634 2.89962C14.5884 2.8539 14.5629 2.79188 14.5629 2.72722C14.5629 2.66255 14.5884 2.60054 14.634 2.55481C14.6795 2.50909 14.7412 2.4834 14.8056 2.4834H44.598C44.6624 2.4834 44.7242 2.50909 44.7697 2.55481C44.8152 2.60054 44.8408 2.66255 44.8408 2.72722C44.8408 2.79188 44.8152 2.8539 44.7697 2.89962C44.7242 2.94535 44.6624 2.97103 44.598 2.97103Z" fill="#231F20"/>
<path d="M21.0608 4.54159H17.4193C17.3549 4.54159 17.2931 4.5159 17.2476 4.47018C17.2021 4.42445 17.1765 4.36244 17.1765 4.29777C17.1765 4.23311 17.2021 4.17109 17.2476 4.12537C17.2931 4.07964 17.3549 4.05396 17.4193 4.05396H21.0608C21.1252 4.05396 21.1869 4.07964 21.2325 4.12537C21.278 4.17109 21.3036 4.23311 21.3036 4.29777C21.3023 4.36205 21.2763 4.42334 21.2311 4.4688C21.1858 4.51425 21.1248 4.54034 21.0608 4.54159Z" fill="#1DC9B7"/>
<path d="M30.2373 4.54159H22.9543C22.8903 4.54034 22.8293 4.51425 22.784 4.4688C22.7388 4.42334 22.7128 4.36205 22.7115 4.29777C22.7115 4.23311 22.7371 4.17109 22.7827 4.12537C22.8282 4.07964 22.8899 4.05396 22.9543 4.05396H30.2373C30.3017 4.05396 30.3635 4.07964 30.409 4.12537C30.4545 4.17109 30.4801 4.23311 30.4801 4.29777C30.4801 4.36244 30.4545 4.42445 30.409 4.47018C30.3635 4.5159 30.3017 4.54159 30.2373 4.54159Z" fill="#1DC9B7"/>
<path d="M32.4219 6.77963H25.1389C25.0745 6.77963 25.0128 6.75394 24.9672 6.70822C24.9217 6.66249 24.8961 6.60048 24.8961 6.53581C24.8974 6.47154 24.9233 6.41024 24.9686 6.36479C25.0139 6.31933 25.0749 6.29324 25.1389 6.29199H32.4219C32.4863 6.29199 32.548 6.31768 32.5936 6.36341C32.6391 6.40913 32.6647 6.47115 32.6647 6.53581C32.6647 6.60048 32.6391 6.66249 32.5936 6.70822C32.548 6.75394 32.4863 6.77963 32.4219 6.77963Z" fill="#1DC9B7"/>
<path d="M21.9156 6.77963H18.2741C18.2097 6.77963 18.1479 6.75394 18.1024 6.70822C18.0569 6.66249 18.0313 6.60048 18.0313 6.53581C18.0313 6.47115 18.0569 6.40913 18.1024 6.36341C18.1479 6.31768 18.2097 6.29199 18.2741 6.29199H21.9156C21.9796 6.29324 22.0406 6.31933 22.0859 6.36479C22.1311 6.41024 22.1571 6.47154 22.1584 6.53581C22.1584 6.60048 22.1328 6.66249 22.0872 6.70822C22.0417 6.75394 21.98 6.77963 21.9156 6.77963Z" fill="#1DC9B7"/>
<path d="M22.0513 9.02279H19.1381C19.0737 9.02279 19.012 8.9971 18.9664 8.95138C18.9209 8.90565 18.8953 8.84364 18.8953 8.77897C18.8953 8.71431 18.9209 8.65229 18.9664 8.60657C19.012 8.56084 19.0737 8.53516 19.1381 8.53516H22.0513C22.1157 8.53516 22.1774 8.56084 22.223 8.60657C22.2685 8.65229 22.2941 8.71431 22.2941 8.77897C22.2941 8.84364 22.2685 8.90565 22.223 8.95138C22.1774 8.9971 22.1157 9.02279 22.0513 9.02279Z" fill="#1DC9B7"/>
<path d="M33.7227 9.02279H24.6287C24.5647 9.02154 24.5037 8.99545 24.4584 8.95C24.4131 8.90454 24.3872 8.84325 24.3859 8.77897C24.3859 8.71431 24.4115 8.65229 24.457 8.60657C24.5026 8.56084 24.5643 8.53516 24.6287 8.53516H33.7227C33.7871 8.53516 33.8489 8.56084 33.8944 8.60657C33.9399 8.65229 33.9655 8.71431 33.9655 8.77897C33.9643 8.84325 33.9383 8.90454 33.893 8.95C33.8478 8.99545 33.7867 9.02154 33.7227 9.02279Z" fill="#1DC9B7"/>
<path d="M23.6186 11.2608H19.9819C19.9175 11.2608 19.8558 11.2351 19.8102 11.1894C19.7647 11.1437 19.7391 11.0817 19.7391 11.017C19.7391 10.9523 19.7647 10.8903 19.8102 10.8446C19.8558 10.7989 19.9175 10.7732 19.9819 10.7732H23.6186C23.6829 10.7732 23.7447 10.7989 23.7902 10.8446C23.8357 10.8903 23.8613 10.9523 23.8613 11.017C23.8613 11.0817 23.8357 11.1437 23.7902 11.1894C23.7447 11.2351 23.6829 11.2608 23.6186 11.2608Z" fill="#1DC9B7"/>
<path d="M35.6023 11.2608H24.7943C24.7299 11.2608 24.6681 11.2351 24.6226 11.1894C24.5771 11.1437 24.5515 11.0817 24.5515 11.017C24.5515 10.9523 24.5771 10.8903 24.6226 10.8446C24.6681 10.7989 24.7299 10.7732 24.7943 10.7732H35.6023C35.6663 10.7744 35.7273 10.8005 35.7726 10.846C35.8178 10.8914 35.8438 10.9527 35.845 11.017C35.845 11.0817 35.8195 11.1437 35.7739 11.1894C35.7284 11.2351 35.6667 11.2608 35.6023 11.2608Z" fill="#1DC9B7"/>
<path d="M22.6575 13.504H19.016C18.9516 13.504 18.8899 13.4783 18.8444 13.4326C18.7988 13.3869 18.7733 13.3248 18.7733 13.2602C18.7733 13.1955 18.7988 13.1335 18.8444 13.0878C18.8899 13.042 18.9516 13.0164 19.016 13.0164H22.6575C22.7219 13.0164 22.7837 13.042 22.8292 13.0878C22.8747 13.1335 22.9003 13.1955 22.9003 13.2602C22.9003 13.3248 22.8747 13.3869 22.8292 13.4326C22.7837 13.4783 22.7219 13.504 22.6575 13.504Z" fill="#1DC9B7"/>
<path d="M29.9113 13.504H24.0509C23.9865 13.504 23.9248 13.4783 23.8793 13.4326C23.8337 13.3869 23.8082 13.3248 23.8082 13.2602C23.8082 13.1955 23.8337 13.1335 23.8793 13.0878C23.9248 13.042 23.9865 13.0164 24.0509 13.0164H29.9113C29.9757 13.0164 30.0375 13.042 30.083 13.0878C30.1285 13.1335 30.1541 13.1955 30.1541 13.2602C30.1541 13.3248 30.1285 13.3869 30.083 13.4326C30.0375 13.4783 29.9757 13.504 29.9113 13.504Z" fill="#1DC9B7"/>
<path d="M38.0101 13.504H32.1497C32.0853 13.504 32.0236 13.4783 31.978 13.4326C31.9325 13.3869 31.9069 13.3248 31.9069 13.2602C31.9069 13.1955 31.9325 13.1335 31.978 13.0878C32.0236 13.042 32.0853 13.0164 32.1497 13.0164H38.0101C38.0745 13.0164 38.1362 13.042 38.1818 13.0878C38.2273 13.1335 38.2529 13.1955 38.2529 13.2602C38.2529 13.3248 38.2273 13.3869 38.1818 13.4326C38.1362 13.4783 38.0745 13.504 38.0101 13.504Z" fill="#D1D3D4"/>
<path d="M20.2687 15.7472H19.016C18.9516 15.7472 18.8899 15.7215 18.8444 15.6757C18.7988 15.63 18.7733 15.568 18.7733 15.5033C18.7733 15.4387 18.7988 15.3767 18.8444 15.3309C18.8899 15.2852 18.9516 15.2595 19.016 15.2595H20.2687C20.3331 15.2595 20.3948 15.2852 20.4404 15.3309C20.4859 15.3767 20.5115 15.4387 20.5115 15.5033C20.5115 15.568 20.4859 15.63 20.4404 15.6757C20.3948 15.7215 20.3331 15.7472 20.2687 15.7472Z" fill="#1DC9B7"/>
<path d="M29.9115 15.7472H22.4051C22.3411 15.7459 22.2801 15.7198 22.2348 15.6744C22.1896 15.6289 22.1636 15.5676 22.1624 15.5033C22.1624 15.4387 22.1879 15.3767 22.2335 15.3309C22.279 15.2852 22.3407 15.2595 22.4051 15.2595H29.9115C29.9759 15.2595 30.0376 15.2852 30.0831 15.3309C30.1287 15.3767 30.1542 15.4387 30.1542 15.5033C30.1542 15.568 30.1287 15.63 30.0831 15.6757C30.0376 15.7215 29.9759 15.7472 29.9115 15.7472Z" fill="#1DC9B7"/>
<path d="M33.8395 15.7472H31.7468C31.6824 15.7472 31.6207 15.7215 31.5751 15.6757C31.5296 15.63 31.504 15.568 31.504 15.5033C31.504 15.4387 31.5296 15.3767 31.5751 15.3309C31.6207 15.2852 31.6824 15.2595 31.7468 15.2595H33.8395C33.9038 15.2595 33.9656 15.2852 34.0111 15.3309C34.0566 15.3767 34.0822 15.4387 34.0822 15.5033C34.081 15.5676 34.055 15.6289 34.0097 15.6744C33.9645 15.7198 33.9034 15.7459 33.8395 15.7472Z" fill="#D1D3D4"/>
<path d="M20.9873 17.9854H19.016C18.9516 17.9854 18.8899 17.9597 18.8444 17.914C18.7988 17.8683 18.7733 17.8063 18.7733 17.7416C18.7733 17.677 18.7988 17.6149 18.8444 17.5692C18.8899 17.5235 18.9516 17.4978 19.016 17.4978H20.9873C21.0517 17.4978 21.1134 17.5235 21.159 17.5692C21.2045 17.6149 21.2301 17.677 21.2301 17.7416C21.2301 17.8063 21.2045 17.8683 21.159 17.914C21.1134 17.9597 21.0517 17.9854 20.9873 17.9854Z" fill="#1DC9B7"/>
<path d="M31.7471 17.9854H22.8424C22.778 17.9854 22.7162 17.9597 22.6707 17.914C22.6252 17.8683 22.5996 17.8063 22.5996 17.7416C22.5996 17.677 22.6252 17.6149 22.6707 17.5692C22.7162 17.5235 22.778 17.4978 22.8424 17.4978H31.7471C31.8115 17.4978 31.8732 17.5235 31.9187 17.5692C31.9643 17.6149 31.9898 17.677 31.9898 17.7416C31.9898 17.8063 31.9643 17.8683 31.9187 17.914C31.8732 17.9597 31.8115 17.9854 31.7471 17.9854Z" fill="#1DC9B7"/>
<path d="M37.2393 17.9854H33.5977C33.5334 17.9854 33.4716 17.9597 33.4261 17.914C33.3806 17.8683 33.355 17.8063 33.355 17.7416C33.355 17.677 33.3806 17.6149 33.4261 17.5692C33.4716 17.5235 33.5334 17.4978 33.5977 17.4978H37.2393C37.3036 17.4978 37.3654 17.5235 37.4109 17.5692C37.4564 17.6149 37.482 17.677 37.482 17.7416C37.482 17.8063 37.4564 17.8683 37.4109 17.914C37.3654 17.9597 37.3036 17.9854 37.2393 17.9854Z" fill="#D1D3D4"/>
<path d="M41.9918 11.2608H37.0685C37.0041 11.2608 36.9424 11.2351 36.8968 11.1894C36.8513 11.1437 36.8257 11.0817 36.8257 11.017C36.827 10.9527 36.853 10.8914 36.8982 10.846C36.9435 10.8005 37.0045 10.7744 37.0685 10.7732H41.9918C42.0562 10.7732 42.118 10.7989 42.1635 10.8446C42.209 10.8903 42.2346 10.9523 42.2346 11.017C42.2346 11.0817 42.209 11.1437 42.1635 11.1894C42.118 11.2351 42.0562 11.2608 41.9918 11.2608Z" fill="#D1D3D4"/>
<path d="M34.6459 4.55123C32.1649 4.55123 32.1163 4.55123 32.092 4.55123C32.0303 4.53507 31.9772 4.49563 31.9438 4.44113C31.9103 4.38663 31.8991 4.32127 31.9124 4.25865C31.9253 4.19955 31.96 4.14755 32.0096 4.11316C32.0591 4.07877 32.1198 4.06454 32.1794 4.07335C32.4513 4.07335 37.2241 4.07335 40.385 4.07335C40.4166 4.0727 40.4481 4.0784 40.4775 4.09012C40.5069 4.10183 40.5337 4.11933 40.5563 4.14158C40.5789 4.16384 40.5969 4.1904 40.6092 4.21971C40.6214 4.24902 40.6277 4.2805 40.6277 4.31229C40.6277 4.37741 40.6023 4.43994 40.5569 4.48644C40.5115 4.53294 40.4498 4.55971 40.385 4.56098L34.6459 4.55123Z" fill="#D1D3D4"/>
</svg>
