<svg width="152" height="114" viewBox="0 0 152 114" fill="none" xmlns="http://www.w3.org/2000/svg">
<path d="M126.596 98.8958C126.596 98.8958 123.738 93.1846 123.572 89.5351C123.406 85.8857 120.875 66.4839 118.813 59.9764C116.752 53.4688 108.5 44.5417 100.727 39.1935C99.0236 38.024 91.2054 33.6487 91.2054 33.6487L89.9352 56.6495C89.9352 56.6495 101.201 69.9771 101.836 75.6883C102.471 81.3994 99.1496 91.5464 101.332 95.3471C105.183 102.122 102.905 98.7244 107.522 105.429L126.596 98.8958Z" fill="white"/>
<path d="M107.528 105.685C107.487 105.685 107.446 105.675 107.41 105.656C107.374 105.637 107.344 105.609 107.321 105.575L106.434 104.254C104.155 100.942 104.155 100.942 103.334 99.4198C102.931 98.6788 102.326 97.5547 101.141 95.4679C99.8457 93.1844 100.42 88.9149 101.035 84.3783C101.459 81.2732 101.892 78.0623 101.63 75.6931C101.01 70.1231 89.9003 56.9215 89.7894 56.7904C89.7502 56.74 89.7289 56.6779 89.7289 56.614L90.9992 33.6082C91.0017 33.5654 91.015 33.524 91.038 33.4879C91.0609 33.4517 91.0927 33.422 91.1303 33.4015C91.1667 33.3792 91.2086 33.3674 91.2512 33.3674C91.2939 33.3674 91.3358 33.3792 91.3722 33.4015C91.6948 33.583 99.2257 37.8071 100.914 38.9463C108.077 43.8711 116.883 52.8738 119.096 59.8602C121.178 66.4132 123.703 85.704 123.87 89.4845C124.026 93.0382 126.829 98.6889 126.859 98.7443C126.874 98.7767 126.882 98.812 126.882 98.8477C126.882 98.8833 126.874 98.9186 126.859 98.951C126.846 98.9852 126.826 99.0161 126.8 99.0414C126.774 99.0667 126.742 99.0858 126.708 99.0972L107.629 105.65C107.599 105.671 107.564 105.683 107.528 105.685ZM90.2129 56.5535C91.221 57.7582 101.489 70.0929 102.109 75.6528C102.376 78.0824 101.938 81.3236 101.509 84.4589C100.934 88.7032 100.34 93.0886 101.554 95.2259C102.769 97.3632 103.349 98.4419 103.752 99.1879C104.559 100.7 104.559 100.7 106.827 103.972L107.629 105.136L126.254 98.7443C125.689 97.5749 123.482 92.8013 123.34 89.54C123.179 85.8855 120.618 66.4333 118.592 60.0518C116.677 54.0029 108.944 45.1312 100.602 39.3848C99.14 38.3767 93.0004 34.9137 91.4579 34.0417L90.2129 56.5535Z" fill="#231F20"/>
<path d="M25.7823 98.8958C25.7823 98.8958 28.6404 93.1846 28.8067 89.5351C28.9731 85.8857 31.5035 66.4839 33.5652 59.9764C35.6268 53.4688 43.8785 44.5417 51.6513 39.1935C53.355 38.024 61.1732 33.6487 61.1732 33.6487L62.4434 56.6495C62.4434 56.6495 51.1774 69.9771 50.5423 75.6883C49.9072 81.3994 53.229 91.5464 51.0464 95.3471C47.1953 102.122 49.4737 98.7244 44.8564 105.429L25.7823 98.8958Z" fill="white"/>
<path d="M44.8507 105.686C44.8241 105.691 44.7967 105.691 44.77 105.686L25.6909 99.1326C25.6563 99.1212 25.6248 99.1021 25.5986 99.0768C25.5724 99.0515 25.5523 99.0206 25.5397 98.9864C25.5248 98.954 25.517 98.9188 25.517 98.8831C25.517 98.8474 25.5248 98.8121 25.5397 98.7797C25.5699 98.7243 28.3726 93.0736 28.5288 89.5199C28.6952 85.7394 31.2206 66.4637 33.3024 59.8956C35.5153 52.9092 44.3214 43.9065 51.4843 38.9817C53.1729 37.8223 60.7037 33.5982 61.0264 33.4369C61.0628 33.4146 61.1046 33.4028 61.1473 33.4028C61.19 33.4028 61.2319 33.4146 61.2683 33.4369C61.3059 33.4574 61.3377 33.4871 61.3606 33.5233C61.3835 33.5594 61.3969 33.6008 61.3994 33.6436L62.6696 56.6494C62.6696 56.7133 62.6484 56.7754 62.6091 56.8258C62.4982 56.9569 51.3885 70.1585 50.7685 75.7285C50.5064 78.0977 50.9399 81.3086 51.3633 84.4137C51.9783 88.9503 52.5529 93.2097 51.2574 95.5033C50.0729 97.5901 49.468 98.7142 49.0647 99.4552C48.2431 100.967 48.2431 100.967 45.9647 104.289L45.0523 105.61C45.0266 105.637 44.9951 105.658 44.9602 105.671C44.9253 105.684 44.8878 105.689 44.8507 105.686ZM26.1244 98.7394L44.7499 105.131L45.5513 103.967C47.8197 100.68 47.8197 100.68 48.6262 99.183C49.0294 98.437 49.6343 97.3079 50.8239 95.221C52.0135 93.1341 51.4439 88.6983 50.8693 84.454C50.4408 81.3187 50.0023 78.0775 50.2695 75.6479C50.8895 70.1031 61.1524 57.7533 62.1656 56.5486L60.9205 34.0468C59.378 34.9189 53.2384 38.3869 51.7766 39.39C43.4342 45.1263 35.7018 54.0081 33.7863 60.0569C31.77 66.4385 29.1992 85.8906 29.0379 89.5451C28.8968 92.7964 26.689 97.57 26.1244 98.7394Z" fill="#231F20"/>
<path d="M94.3667 0.631836H58.008C56.5409 0.631836 55.3515 1.82117 55.3515 3.2883V81.0465C55.3515 82.5136 56.5409 83.7029 58.008 83.7029H94.3667C95.8338 83.7029 97.0232 82.5136 97.0232 81.0465V3.2883C97.0232 1.82117 95.8338 0.631836 94.3667 0.631836Z" fill="white"/>
<path d="M94.3715 83.955H58.0078C57.2368 83.9537 56.4978 83.6468 55.9526 83.1017C55.4075 82.5565 55.1006 81.8175 55.0993 81.0465V3.28838C55.1006 2.51741 55.4075 1.77839 55.9526 1.23323C56.4978 0.688073 57.2368 0.381216 58.0078 0.379883H94.3715C95.1425 0.381216 95.8815 0.688073 96.4267 1.23323C96.9718 1.77839 97.2787 2.51741 97.28 3.28838V81.0465C97.2787 81.8175 96.9718 82.5565 96.4267 83.1017C95.8815 83.6468 95.1425 83.9537 94.3715 83.955ZM58.0078 0.883955C57.3705 0.885287 56.7597 1.13904 56.3091 1.58966C55.8584 2.04029 55.6047 2.65109 55.6033 3.28838V81.0465C55.6047 81.6838 55.8584 82.2946 56.3091 82.7452C56.7597 83.1959 57.3705 83.4496 58.0078 83.4509H94.3715C95.0088 83.4496 95.6196 83.1959 96.0702 82.7452C96.5209 82.2946 96.7746 81.6838 96.7759 81.0465V3.28838C96.7746 2.65109 96.5209 2.04029 96.0702 1.58966C95.6196 1.13904 95.0088 0.885287 94.3715 0.883955H58.0078Z" fill="#231F20"/>
<path d="M94.835 8.14771H57.5387V72.0792H94.835V8.14771Z" fill="white"/>
<path d="M94.841 72.3313H57.5396C57.4732 72.33 57.4098 72.303 57.3628 72.256C57.3159 72.2091 57.2889 72.1457 57.2876 72.0792V8.16292C57.2876 8.09608 57.3142 8.03197 57.3614 7.98471C57.4087 7.93744 57.4728 7.91089 57.5396 7.91089H94.841C94.9078 7.91089 94.9719 7.93744 95.0192 7.98471C95.0664 8.03197 95.093 8.09608 95.093 8.16292V72.0792C95.0917 72.1457 95.0647 72.2091 95.0178 72.256C94.9708 72.303 94.9074 72.33 94.841 72.3313ZM57.7917 71.8272H94.5889V8.39984H57.7917V71.8272Z" fill="#231F20"/>
<path d="M79.7334 75.1843H72.6411C71.7391 75.1843 71.0079 75.9155 71.0079 76.8175V79.5294C71.0079 80.4314 71.7391 81.1626 72.6411 81.1626H79.7334C80.6354 81.1626 81.3666 80.4314 81.3666 79.5294V76.8175C81.3666 75.9155 80.6354 75.1843 79.7334 75.1843Z" fill="white"/>
<path d="M79.7179 81.4195H72.6609C72.1613 81.4182 71.6825 81.2191 71.3293 80.8659C70.976 80.5126 70.777 80.0339 70.7756 79.5343V76.8224C70.7756 76.3219 70.9741 75.8419 71.3275 75.4875C71.6809 75.1332 72.1604 74.9335 72.6609 74.9321H79.7179C80.2183 74.9335 80.6978 75.1332 81.0513 75.4875C81.4047 75.8419 81.6031 76.3219 81.6031 76.8224V79.5343C81.6018 80.0339 81.4027 80.5126 81.0495 80.8659C80.6962 81.2191 80.2175 81.4182 79.7179 81.4195ZM72.6609 75.4362C72.2941 75.4375 71.9428 75.5842 71.6839 75.844C71.4251 76.1038 71.2797 76.4556 71.2797 76.8224V79.5343C71.2797 79.7157 71.3154 79.8953 71.3848 80.0628C71.4543 80.2304 71.556 80.3827 71.6842 80.5109C71.8125 80.6392 71.9648 80.7409 72.1323 80.8103C72.2999 80.8797 72.4795 80.9155 72.6609 80.9155H79.7179C79.8993 80.9155 80.0789 80.8797 80.2464 80.8103C80.414 80.7409 80.5663 80.6392 80.6945 80.5109C80.8228 80.3827 80.9245 80.2304 80.9939 80.0628C81.0633 79.8953 81.099 79.7157 81.099 79.5343V76.8224C81.099 76.4556 80.9537 76.1038 80.6948 75.844C80.4359 75.5842 80.0847 75.4375 79.7179 75.4362H72.6609Z" fill="#E6E7E8"/>
<path d="M79.9547 4.48308H69.3339C69.2674 4.48179 69.2041 4.45482 69.1571 4.40783C69.1101 4.36084 69.0831 4.29748 69.0818 4.23104C69.0818 4.1642 69.1084 4.10009 69.1557 4.05282C69.2029 4.00556 69.267 3.979 69.3339 3.979H79.9547C80.0215 3.979 80.0856 4.00556 80.1329 4.05282C80.1802 4.10009 80.2067 4.1642 80.2067 4.23104C80.2067 4.29788 80.1802 4.36199 80.1329 4.40926C80.0856 4.45652 80.0215 4.48308 79.9547 4.48308Z" fill="#E6E7E8"/>
<path d="M82.869 4.48308H81.4475C81.3806 4.48308 81.3165 4.45652 81.2693 4.40926C81.222 4.36199 81.1954 4.29788 81.1954 4.23104C81.1954 4.1642 81.222 4.10009 81.2693 4.05282C81.3165 4.00556 81.3806 3.979 81.4475 3.979H82.869C82.9358 3.979 82.9999 4.00556 83.0472 4.05282C83.0945 4.10009 83.121 4.1642 83.121 4.23104C83.121 4.29788 83.0945 4.36199 83.0472 4.40926C82.9999 4.45652 82.9358 4.48308 82.869 4.48308Z" fill="#E6E7E8"/>
<path d="M94.841 12.0087H57.5396C57.4732 12.0074 57.4098 11.9805 57.3628 11.9335C57.3159 11.8865 57.2889 11.8231 57.2876 11.7567C57.2876 11.6898 57.3142 11.6257 57.3614 11.5785C57.4087 11.5312 57.4728 11.5046 57.5396 11.5046H94.841C94.9078 11.5046 94.9719 11.5312 95.0192 11.5785C95.0664 11.6257 95.093 11.6898 95.093 11.7567C95.0917 11.8231 95.0647 11.8865 95.0178 11.9335C94.9708 11.9805 94.9074 12.0074 94.841 12.0087Z" fill="#231F20"/>
<path d="M93.1976 14.5999H91.136H91.0452H76.1197C75.8691 14.6077 75.6314 14.7124 75.4565 14.892C75.2817 15.0716 75.1833 15.312 75.1821 15.5626V19.3331C75.1834 19.588 75.2853 19.8321 75.4656 20.0124C75.6458 20.1927 75.8899 20.2945 76.1449 20.2959H91.0704C91.3258 20.2959 91.5707 20.1944 91.7512 20.0139C91.9318 19.8333 92.0332 19.5884 92.0332 19.3331V15.8046L93.1976 14.5999Z" fill="#E6E7E8"/>
<path d="M61.2741 33.2808H63.3357H63.4265H78.352C78.6074 33.2808 78.8523 33.3822 79.0328 33.5628C79.2134 33.7433 79.3148 33.9882 79.3148 34.2435V40.1109C79.3155 40.2376 79.291 40.363 79.2429 40.4802C79.1947 40.5973 79.1239 40.7037 79.0343 40.7932C78.9448 40.8827 78.8384 40.9536 78.7213 41.0018C78.6042 41.0499 78.4787 41.0744 78.352 41.0737H63.4265C63.1711 41.0737 62.9262 40.9723 62.7457 40.7917C62.5651 40.6112 62.4637 40.3663 62.4637 40.1109V34.4704L61.2741 33.2808Z" fill="#E6E7E8"/>
<path d="M61.2741 52.2139H63.3357H63.4265H81.0186C81.273 52.2152 81.5166 52.3172 81.6961 52.4976C81.8756 52.678 81.9763 52.9222 81.9763 53.1766V61.3073C81.9763 61.5618 81.8756 61.8059 81.6961 61.9863C81.5166 62.1668 81.273 62.2688 81.0186 62.2701H63.4265C63.1715 62.2688 62.9274 62.1669 62.7471 61.9866C62.5669 61.8064 62.465 61.5623 62.4637 61.3073V53.4035L61.2741 52.2139Z" fill="#E6E7E8"/>
<path d="M93.1979 43.4731H91.1362H91.0455H76.1199C75.8654 43.4798 75.6239 43.5869 75.4482 43.7711C75.2725 43.9553 75.1769 44.2016 75.1823 44.4561V48.2215C75.1823 48.4768 75.2838 48.7217 75.4643 48.9023C75.6449 49.0828 75.8898 49.1843 76.1451 49.1843H91.0707C91.1973 49.1849 91.3228 49.1605 91.4399 49.1123C91.557 49.0642 91.6634 48.9933 91.7529 48.9038C91.8425 48.8142 91.9134 48.7078 91.9615 48.5907C92.0097 48.4736 92.0341 48.3481 92.0334 48.2215V44.693L93.1979 43.4731Z" fill="#E6E7E8"/>
<path d="M90.6771 21.6165H72.3189C71.5839 21.6165 70.9881 22.2123 70.9881 22.9472V29.1725C70.9881 29.9074 71.5839 30.5032 72.3189 30.5032H90.6771C91.4121 30.5032 92.0079 29.9074 92.0079 29.1725V22.9472C92.0079 22.2123 91.4121 21.6165 90.6771 21.6165Z" fill="#E6E7E8"/>
<path d="M90.6467 65.521H61.7331C60.5778 65.521 59.6412 66.4576 59.6412 67.6129C59.6412 68.7682 60.5778 69.7048 61.7331 69.7048H90.6467C91.802 69.7048 92.7386 68.7682 92.7386 67.6129C92.7386 66.4576 91.802 65.521 90.6467 65.521Z" fill="white"/>
<path d="M90.6465 69.9569H61.7329C61.1113 69.9569 60.5151 69.71 60.0755 69.2704C59.6359 68.8308 59.389 68.2346 59.389 67.613C59.389 66.9913 59.6359 66.3951 60.0755 65.9556C60.5151 65.516 61.1113 65.269 61.7329 65.269H90.6465C91.2681 65.269 91.8643 65.516 92.3039 65.9556C92.7435 66.3951 92.9904 66.9913 92.9904 67.613C92.9904 68.2346 92.7435 68.8308 92.3039 69.2704C91.8643 69.71 91.2681 69.9569 90.6465 69.9569ZM61.7329 65.7731C61.245 65.7731 60.777 65.967 60.4319 66.312C60.0869 66.657 59.893 67.125 59.893 67.613C59.893 68.1009 60.0869 68.5689 60.4319 68.914C60.777 69.259 61.245 69.4528 61.7329 69.4528H90.6465C91.1344 69.4528 91.6024 69.259 91.9475 68.914C92.2925 68.5689 92.4864 68.1009 92.4864 67.613C92.4864 67.125 92.2925 66.657 91.9475 66.312C91.6024 65.967 91.1344 65.7731 90.6465 65.7731H61.7329Z" fill="#E6E7E8"/>
<path d="M47.3618 101.779C47.3618 101.779 55.5984 94.9942 56.2335 87.2163C56.8686 79.4385 55.5984 71.3935 56.5511 69.6444C57.5038 67.8953 64.1424 58.3834 65.6042 55.8429C67.5096 52.511 64.6515 49.4966 62.5798 50.7669C60.508 52.0371 52.4278 56.6343 48.1431 62.8243C46.2043 65.0658 44.6014 67.5771 43.3847 70.2795" fill="white"/>
<path d="M47.3612 102.031C47.3234 102.03 47.2863 102.021 47.2524 102.004C47.2185 101.988 47.1885 101.964 47.1646 101.935C47.1228 101.883 47.1031 101.817 47.1097 101.751C47.1163 101.685 47.1487 101.625 47.1999 101.582C47.2805 101.517 55.3658 94.7722 55.9808 87.196C56.2107 83.6061 56.2276 80.0058 56.0312 76.4139C55.9002 72.966 55.8094 70.481 56.3286 69.5232C56.7924 68.6764 58.5768 66.025 60.462 63.2223C62.5085 60.1979 64.6307 57.0273 65.3767 55.7167C66.3849 53.9172 65.9564 52.2336 65.0541 51.3615C64.7677 51.0369 64.3778 50.8214 63.9505 50.7516C63.5233 50.6817 63.085 50.7619 62.7102 50.9784L62.1607 51.3162C59.4589 52.9493 52.286 57.2793 48.3492 62.9653C46.4237 65.1997 44.8281 67.6984 43.6109 70.3852C43.5824 70.445 43.5318 70.4916 43.4699 70.515C43.4079 70.5385 43.3392 70.5372 43.2782 70.5112C43.218 70.4817 43.1714 70.4303 43.1479 70.3675C43.1245 70.3046 43.126 70.2352 43.1522 70.1735C44.3828 67.4471 46.0026 64.9138 47.961 62.6527C51.9331 56.9063 59.1716 52.531 61.8986 50.8877L62.4481 50.55C62.9176 50.2761 63.4668 50.1712 64.0042 50.2528C64.5416 50.3344 65.0349 50.5976 65.4019 50.9986C66.4453 52.0067 66.9746 53.9323 65.8153 55.9687C65.0591 57.2944 62.932 60.4499 60.8804 63.5046C59.0002 66.2972 57.2259 68.9385 56.7722 69.7652C56.3185 70.5919 56.4143 73.1576 56.5353 76.3937C56.7316 80.0058 56.7148 83.6263 56.4849 87.2363C55.8498 95.0293 47.6031 101.905 47.5225 101.97C47.4773 102.008 47.4203 102.03 47.3612 102.031Z" fill="#231F20"/>
<path d="M49.4385 113.484C49.7005 112.355 49.8508 111.204 49.8871 110.046C49.8871 108.584 48.3749 106.487 48.3749 106.487L49.2923 101.779C49.2923 101.779 25.6009 92.5396 24.6482 93.8099C23.6955 95.0801 21.7901 101.779 21.7901 101.779C21.7901 101.779 18.7657 103.569 17.8231 105.434C17.2736 106.507 16.3109 110.389 15.58 113.499L49.4385 113.484Z" fill="#584475"/>
<path d="M105.018 101.779C105.018 101.779 96.7811 94.9942 96.146 87.2163C95.5109 79.4385 96.7811 71.3935 95.8284 69.6444C94.8757 67.8953 88.2371 58.3834 86.7753 55.8429C84.8699 52.511 87.728 49.4966 89.7997 50.7669C91.8715 52.0371 99.9517 56.6343 104.236 62.8243C106.175 65.0658 107.778 67.5771 108.995 70.2795" fill="white"/>
<path d="M105.018 102.031C104.959 102.03 104.902 102.008 104.856 101.97C104.776 101.905 96.5291 95.0293 95.8939 87.2363C95.664 83.6263 95.6472 80.0058 95.8435 76.3937C95.9645 73.1576 96.0603 70.602 95.6066 69.7652C95.1529 68.9284 93.3786 66.2972 91.4984 63.5046C89.4468 60.4499 87.3197 57.2944 86.5636 55.9687C85.4042 53.9525 85.9335 52.0067 86.9769 50.9986C87.3439 50.5976 87.8372 50.3344 88.3746 50.2528C88.9121 50.1712 89.4612 50.2761 89.9308 50.55L90.4802 50.8877C93.2072 52.531 100.446 56.9063 104.443 62.683C106.387 64.9346 107.998 67.4538 109.227 70.1634C109.253 70.2251 109.254 70.2946 109.231 70.3574C109.207 70.4202 109.161 70.4716 109.101 70.5011C109.04 70.5271 108.971 70.5284 108.909 70.505C108.847 70.4815 108.796 70.435 108.768 70.3751C107.557 67.6999 105.97 65.2115 104.055 62.9854C100.093 57.2692 92.9199 52.9393 90.2181 51.3061L89.6686 50.9683C89.2938 50.7518 88.8555 50.6717 88.4283 50.7415C88.001 50.8113 87.6111 51.0268 87.3247 51.3514C86.4224 52.2235 85.9738 53.9071 87.0021 55.7066C87.7481 57.0172 89.8703 60.1677 91.9168 63.2123C93.802 66.0149 95.5864 68.6663 96.0502 69.5132C96.5543 70.4709 96.4787 72.956 96.3476 76.4038C96.1513 79.9957 96.1681 83.596 96.398 87.1859C97.013 94.747 105.098 101.507 105.179 101.572C105.23 101.614 105.263 101.675 105.269 101.741C105.276 101.807 105.256 101.873 105.214 101.925C105.191 101.956 105.162 101.982 105.128 102C105.094 102.018 105.056 102.029 105.018 102.031Z" fill="#231F20"/>
<path d="M45.9451 108.554H45.8695L24.2952 102.026C24.263 102.017 24.233 102.002 24.2068 101.982C24.1806 101.961 24.1589 101.936 24.1429 101.906C24.1268 101.877 24.1169 101.845 24.1136 101.812C24.1103 101.779 24.1138 101.745 24.1238 101.714C24.1446 101.65 24.1895 101.597 24.2488 101.566C24.3081 101.535 24.3772 101.528 24.4413 101.547L46.0156 108.07C46.0474 108.079 46.077 108.095 46.1029 108.115C46.1287 108.136 46.1501 108.162 46.166 108.191C46.182 108.22 46.192 108.252 46.1956 108.285C46.1992 108.317 46.1963 108.351 46.187 108.383C46.1693 108.433 46.1366 108.476 46.0932 108.507C46.0499 108.537 45.9982 108.554 45.9451 108.554Z" fill="white"/>
<path d="M102.941 113.484H136.784C136.059 110.389 135.091 106.507 134.541 105.419C133.589 103.554 130.574 101.764 130.574 101.764C130.574 101.764 128.669 95.065 127.716 93.7947C126.764 92.5245 103.072 101.764 103.072 101.764L103.99 106.472C103.99 106.472 102.477 108.569 102.477 110.031C102.518 111.194 102.673 112.351 102.941 113.484Z" fill="#584475"/>
<path d="M126.597 102.424L107.15 108.307L126.597 102.424Z" fill="white"/>
<path d="M107.16 108.554C107.105 108.553 107.053 108.535 107.009 108.502C106.966 108.47 106.934 108.424 106.918 108.372C106.899 108.308 106.907 108.239 106.939 108.18C106.971 108.122 107.025 108.078 107.089 108.06L126.536 102.177C126.603 102.158 126.675 102.167 126.735 102.201C126.796 102.235 126.84 102.292 126.859 102.359C126.877 102.425 126.869 102.497 126.835 102.558C126.801 102.618 126.744 102.663 126.677 102.681L107.23 108.564L107.16 108.554Z" fill="white"/>
<path d="M60.6091 13.5159H27.3656C25.2804 13.5159 23.5901 15.2062 23.5901 17.2914V32.4992C23.5901 34.5844 25.2804 36.2747 27.3656 36.2747H60.6091C62.6943 36.2747 64.3846 34.5844 64.3846 32.4992V17.2914C64.3846 15.2062 62.6943 13.5159 60.6091 13.5159Z" fill="#1DC9B7"/>
<path d="M34.1351 31.1131C38.0715 31.1131 41.2627 27.9219 41.2627 23.9855C41.2627 20.049 38.0715 16.8579 34.1351 16.8579C30.1986 16.8579 27.0075 20.049 27.0075 23.9855C27.0075 27.9219 30.1986 31.1131 34.1351 31.1131Z" fill="white"/>
<path d="M31.1856 20.185C31.101 21.1639 31.2229 22.1496 31.5435 23.0784C31.6234 23.3494 31.7629 23.5991 31.9518 23.8093C32.1967 24.0148 32.4963 24.1445 32.8138 24.1823C33.3221 24.2805 33.8385 24.3311 34.3562 24.3335C34.892 24.3806 35.4272 24.2378 35.8684 23.9303C36.3725 23.5068 36.317 22.9776 36.5439 22.418C36.7203 21.9896 37.1941 21.8535 37.3605 21.3847C37.4346 21.1416 37.4535 20.885 37.4159 20.6336C37.3575 19.9495 37.08 19.3025 36.6245 18.7887C36.3192 18.5071 35.9611 18.2885 35.5709 18.1458C35.1808 18.0031 34.7662 17.9389 34.3512 17.957C33.5749 17.957 32.723 17.7554 32.6424 18.7282C32.5012 18.6891 32.3528 18.6837 32.2092 18.7126C32.0655 18.7415 31.9307 18.8039 31.8157 18.8946C31.45 19.2296 31.2249 19.6907 31.1856 20.185Z" fill="white"/>
<path d="M34.4177 24.5955H34.3521C33.8191 24.5895 33.2877 24.5355 32.7643 24.4342C32.3915 24.3939 32.0398 24.2409 31.7562 23.9957C31.5331 23.759 31.3705 23.4719 31.2823 23.1589C30.9467 22.1882 30.8212 21.1573 30.9144 20.1345C30.9605 19.5737 31.2204 19.0522 31.6402 18.6777C31.8613 18.5081 32.1329 18.4176 32.4115 18.4206C32.6232 17.6141 33.4196 17.6443 34.0245 17.6746H34.3421C34.7942 17.6497 35.2466 17.7169 35.6721 17.872C36.0975 18.0271 36.487 18.2669 36.8171 18.5769C37.3137 19.1383 37.6144 19.846 37.674 20.5932C37.7173 20.8834 37.6949 21.1797 37.6084 21.4602C37.5001 21.7172 37.3263 21.9414 37.1044 22.1104C36.9704 22.2153 36.8604 22.3477 36.7818 22.4986C36.722 22.6632 36.6731 22.8316 36.6356 23.0026C36.5736 23.4386 36.3593 23.8386 36.0307 24.1318C35.5618 24.4661 34.9925 24.6297 34.4177 24.5955ZM31.4487 20.2201C31.3641 21.1581 31.4809 22.1034 31.7915 22.9925C31.8565 23.2258 31.9737 23.4413 32.1342 23.6226C32.3416 23.7919 32.5939 23.897 32.8601 23.9251C33.3585 24.0214 33.8647 24.0721 34.3723 24.0763C34.852 24.1147 35.3308 23.9923 35.7333 23.7285C35.9738 23.5073 36.1261 23.2065 36.1618 22.8817C36.2048 22.6878 36.2621 22.4974 36.3331 22.3121C36.4368 22.0845 36.5942 21.8856 36.7918 21.7324C36.9466 21.6182 37.0683 21.4652 37.1447 21.2888C37.207 21.0831 37.2225 20.8661 37.1901 20.6537C37.1374 20.025 36.8848 19.4297 36.4692 18.9549C35.8821 18.4529 35.1232 18.1982 34.3521 18.2442H34.0144C33.2281 18.2089 32.9458 18.2442 32.9004 18.7835C32.8981 18.8226 32.8869 18.8606 32.8677 18.8947C32.8485 18.9287 32.8217 18.958 32.7895 18.9801C32.7573 19.0018 32.7208 19.0161 32.6825 19.0222C32.6442 19.0283 32.605 19.026 32.5677 19.0154C32.468 18.9871 32.3631 18.9829 32.2614 19.003C32.1598 19.0232 32.0644 19.0672 31.983 19.1314C31.667 19.4234 31.4757 19.826 31.4487 20.2554V20.2201Z" fill="#231F20"/>
<path d="M33.6046 33.0085L32.5964 25.6137L36.1249 26.0876L37.375 33.0085L40.3995 32.7363C40.3188 29.1725 39.0183 26.1531 38.0908 25.4575C36.9768 24.6308 32.6972 24.7669 32.6972 24.7669C32.6972 24.7669 29.2897 26.2136 28.4076 27.8417C28.0245 28.5474 27.7926 30.5335 27.9035 33.0085H33.6046Z" fill="#1DC9B7"/>
<path d="M36.1403 23.9904L36.4881 25.9059C36.3595 26.2541 36.119 26.5499 35.8043 26.7469C35.4896 26.9439 35.1185 27.0311 34.7491 26.9947C34.3737 26.9442 34.0141 26.8114 33.6961 26.6057C33.378 26.4001 33.1093 26.1267 32.9092 25.8051L32.5463 22.2766C32.5463 22.2766 33.4234 21.6868 32.9344 19.7058C34.0022 20.0362 35.1392 20.0728 36.226 19.8117C36.226 19.8117 37.0224 21.9288 36.972 22.9117C36.9815 23.1604 36.9035 23.4046 36.7515 23.6017C36.5995 23.7988 36.3832 23.9363 36.1403 23.9904Z" fill="white"/>
<path d="M34.9757 27.2719C34.8884 27.2765 34.8009 27.2765 34.7136 27.2719C34.2983 27.2105 33.9019 27.0574 33.5531 26.8237C33.2044 26.5901 32.912 26.2817 32.6973 25.921C32.6812 25.8916 32.6726 25.8587 32.6721 25.8252L32.3091 22.2967C32.3047 22.2504 32.3132 22.2037 32.3336 22.1619C32.3541 22.12 32.3858 22.0847 32.4251 22.0598C32.4251 22.0598 33.1308 21.5103 32.7023 19.7612C32.6922 19.7158 32.6943 19.6686 32.7085 19.6243C32.7227 19.58 32.7484 19.5403 32.783 19.5092C32.8176 19.4771 32.8605 19.4553 32.9068 19.4464C32.9531 19.4375 33.0011 19.4418 33.0451 19.4588C34.0652 19.7667 35.1485 19.7998 36.1854 19.5545C36.2468 19.5406 36.3112 19.5493 36.3667 19.5789C36.4222 19.6085 36.4652 19.6571 36.4879 19.7158C36.5232 19.8066 37.3045 21.8934 37.2541 22.9217C37.2583 23.1865 37.1852 23.4467 37.0437 23.6706C36.9023 23.8944 36.6986 24.0721 36.4576 24.1819L36.7651 25.8756C36.775 25.9204 36.775 25.9669 36.7651 26.0117C36.6294 26.3782 36.3857 26.6949 36.0662 26.9199C35.7467 27.1449 35.3664 27.2676 34.9757 27.2719ZM33.161 25.6941C33.3393 25.9758 33.5769 26.2151 33.8572 26.3953C34.1376 26.5755 34.4539 26.6923 34.7841 26.7376C35.0841 26.77 35.3865 26.7033 35.6451 26.5476C35.9036 26.392 36.104 26.1559 36.2157 25.8756L35.8628 24.0357C35.8524 23.9652 35.8686 23.8934 35.9082 23.8341C35.9499 23.7793 36.0114 23.7431 36.0796 23.7333C36.2675 23.6892 36.4332 23.5787 36.5461 23.4222C36.6591 23.2657 36.7118 23.0737 36.6946 22.8814C36.7298 22.1354 36.2308 20.6433 36.0393 20.0939C35.1194 20.278 34.1709 20.2642 33.2568 20.0536C33.4887 21.4448 33.035 22.1152 32.7981 22.3622L33.161 25.6941Z" fill="#231F20"/>
<path d="M34.7295 21.158C34.7295 21.158 35.4301 22.1661 35.2688 22.3728C35.1075 22.5794 34.6387 22.4383 34.6387 22.4383" fill="white"/>
<path d="M34.9409 22.7257C34.8186 22.724 34.6969 22.7088 34.578 22.6803C34.546 22.6726 34.516 22.6587 34.4895 22.6393C34.463 22.6198 34.4406 22.5953 34.4238 22.5672C34.4069 22.539 34.3957 22.5078 34.3911 22.4753C34.3864 22.4427 34.3882 22.4096 34.3965 22.3778C34.4132 22.3138 34.454 22.2587 34.5103 22.2239C34.5667 22.1892 34.6342 22.1775 34.699 22.1913C34.8074 22.2103 34.9182 22.2103 35.0266 22.1913C34.8927 21.868 34.7236 21.5604 34.5225 21.2739C34.5036 21.2469 34.4902 21.2164 34.4832 21.1842C34.4763 21.1519 34.4758 21.1186 34.4819 21.0862C34.488 21.0538 34.5006 21.0229 34.5188 20.9954C34.537 20.9679 34.5606 20.9444 34.5881 20.9261C34.6155 20.907 34.6464 20.8936 34.679 20.8865C34.7117 20.8795 34.7454 20.879 34.7782 20.8851C34.811 20.8912 34.8423 20.9038 34.8703 20.922C34.8982 20.9403 34.9222 20.964 34.9409 20.9917C35.7525 22.1863 35.5408 22.4182 35.445 22.5039C35.3801 22.5727 35.3021 22.6279 35.2155 22.666C35.1289 22.7041 35.0355 22.7244 34.9409 22.7257Z" fill="#231F20"/>
<path d="M34.0742 21.2566C34.141 21.2546 34.1913 21.1266 34.1865 20.9708C34.1817 20.8149 34.1237 20.6903 34.0569 20.6923C33.9901 20.6944 33.9399 20.8224 33.9446 20.9782C33.9494 21.134 34.0075 21.2587 34.0742 21.2566Z" fill="#231F20"/>
<path d="M35.6992 21.1514C35.766 21.1494 35.8163 21.0214 35.8115 20.8655C35.8067 20.7097 35.7487 20.5851 35.6819 20.5871C35.6151 20.5892 35.5649 20.7171 35.5696 20.873C35.5744 21.0288 35.6325 21.1535 35.6992 21.1514Z" fill="#231F20"/>
<path d="M33.3029 21.6619C33.1652 21.4828 32.994 21.3321 32.7988 21.2183C32.703 21.146 32.5862 21.1071 32.4661 21.1074C32.3687 21.116 32.2759 21.1528 32.199 21.2133C32.0832 21.298 31.9863 21.4058 31.9143 21.5299C31.8423 21.6539 31.7968 21.7916 31.7806 21.9341C31.7656 22.0677 31.7847 22.203 31.8361 22.3273C31.9247 22.5173 32.0785 22.6693 32.2696 22.7557C32.4587 22.8451 32.6586 22.9095 32.8644 22.9473" fill="white"/>
<path d="M32.8892 23.2094H32.8287C32.6035 23.168 32.3848 23.0968 32.1784 22.9977C31.9316 22.8833 31.7333 22.685 31.6189 22.4382C31.5542 22.2785 31.5299 22.1054 31.5484 21.9341C31.5653 21.7563 31.6188 21.5839 31.7056 21.4277C31.7923 21.2716 31.9104 21.1351 32.0524 21.0268C32.1784 20.9261 32.3348 20.8713 32.496 20.8713C32.6572 20.8713 32.8136 20.9261 32.9396 21.0268C33.1531 21.1584 33.3395 21.3295 33.489 21.5308C33.5089 21.5583 33.5231 21.5894 33.531 21.6224C33.5388 21.6554 33.5401 21.6896 33.5347 21.723C33.5293 21.7565 33.5174 21.7886 33.4996 21.8174C33.4818 21.8463 33.4585 21.8714 33.4311 21.8912C33.4036 21.9111 33.3725 21.9253 33.3395 21.9332C33.3065 21.941 33.2723 21.9423 33.2389 21.9369C33.2054 21.9315 33.1733 21.9196 33.1444 21.9018C33.1156 21.884 33.0905 21.8607 33.0707 21.8333C32.9592 21.6848 32.8228 21.5569 32.6674 21.4552C32.6141 21.4163 32.5515 21.3919 32.4859 21.3846C32.4375 21.3924 32.3922 21.4133 32.3549 21.4451C32.2692 21.5078 32.1976 21.5878 32.1446 21.6798C32.0917 21.7718 32.0585 21.8739 32.0474 21.9795C32.036 22.0696 32.0464 22.1612 32.0776 22.2466C32.1446 22.3787 32.2549 22.4837 32.3902 22.544C32.5632 22.6206 32.744 22.6781 32.9295 22.7154C32.9837 22.7365 33.0293 22.775 33.0592 22.8249C33.0891 22.8748 33.1016 22.9331 33.0947 22.9909C33.0877 23.0486 33.0618 23.1024 33.021 23.1438C32.9801 23.1852 32.9267 23.2118 32.869 23.2195L32.8892 23.2094Z" fill="#231F20"/>
<path d="M35.8989 22.9924L34.2002 23.1588C34.2863 23.2924 34.404 23.4028 34.5429 23.4802C34.6818 23.5576 34.8377 23.5995 34.9966 23.6024C35.3651 23.5238 35.6887 23.3051 35.8989 22.9924Z" fill="#231F20"/>
<path d="M60.3716 20.79H43.8381C43.7712 20.79 43.7071 20.7634 43.6598 20.7161C43.6126 20.6689 43.586 20.6048 43.586 20.5379C43.586 20.4711 43.6126 20.407 43.6598 20.3597C43.7071 20.3124 43.7712 20.2859 43.8381 20.2859H60.3716C60.4385 20.2859 60.5026 20.3124 60.5498 20.3597C60.5971 20.407 60.6237 20.4711 60.6237 20.5379C60.6237 20.6048 60.5971 20.6689 60.5498 20.7161C60.5026 20.7634 60.4385 20.79 60.3716 20.79Z" fill="white"/>
<path d="M60.3716 25.1449H43.8381C43.7712 25.1449 43.7071 25.1184 43.6598 25.0711C43.6126 25.0239 43.586 24.9597 43.586 24.8929C43.586 24.8261 43.6126 24.762 43.6598 24.7147C43.7071 24.6674 43.7712 24.6409 43.8381 24.6409H60.3716C60.4385 24.6409 60.5026 24.6674 60.5498 24.7147C60.5971 24.762 60.6237 24.8261 60.6237 24.8929C60.6237 24.9597 60.5971 25.0239 60.5498 25.0711C60.5026 25.1184 60.4385 25.1449 60.3716 25.1449Z" fill="white"/>
<path d="M56.4151 29.505H43.8133C43.7464 29.505 43.6823 29.4785 43.635 29.4312C43.5878 29.384 43.5612 29.3199 43.5612 29.253C43.5612 29.1862 43.5878 29.1221 43.635 29.0748C43.6823 29.0275 43.7464 29.001 43.8133 29.001H56.4151C56.4819 29.001 56.546 29.0275 56.5933 29.0748C56.6405 29.1221 56.6671 29.1862 56.6671 29.253C56.6671 29.3199 56.6405 29.384 56.5933 29.4312C56.546 29.4785 56.4819 29.505 56.4151 29.505Z" fill="white"/>
<path d="M60.6082 36.2748C60.6082 36.2748 68.3961 36.3907 68.2802 36.2748C68.1642 36.1588 62.1204 30.73 62.1204 30.73L60.6082 36.2748Z" fill="#1DC9B7"/>
<path d="M91.1506 26.5767L124.394 26.5767C126.479 26.5767 128.17 24.8863 128.17 22.8012V7.59331C128.17 5.50816 126.479 3.81781 124.394 3.81781L91.1506 3.81781C89.0654 3.81781 87.3751 5.50816 87.3751 7.59331V22.8012C87.3751 24.8863 89.0654 26.5767 91.1506 26.5767Z" fill="#1DC9B7"/>
<path d="M98.2521 21.4095C102.189 21.4095 105.38 18.2183 105.38 14.2819C105.38 10.3454 102.189 7.1543 98.2521 7.1543C94.3156 7.1543 91.1245 10.3454 91.1245 14.2819C91.1245 18.2183 94.3156 21.4095 98.2521 21.4095Z" fill="white"/>
<path d="M124.49 11.0866H107.946C107.879 11.0866 107.815 11.06 107.768 11.0128C107.721 10.9655 107.694 10.9014 107.694 10.8346C107.694 10.7677 107.721 10.7036 107.768 10.6563C107.815 10.6091 107.879 10.5825 107.946 10.5825H124.48C124.547 10.5825 124.611 10.6091 124.658 10.6563C124.705 10.7036 124.732 10.7677 124.732 10.8346C124.732 10.9014 124.705 10.9655 124.658 11.0128C124.611 11.06 124.547 11.0866 124.48 11.0866H124.49Z" fill="white"/>
<path d="M124.49 15.4465H107.946C107.879 15.4465 107.815 15.4199 107.768 15.3726C107.721 15.3254 107.694 15.2613 107.694 15.1944C107.694 15.1276 107.721 15.0635 107.768 15.0162C107.815 14.9689 107.879 14.9424 107.946 14.9424H124.48C124.547 14.9424 124.611 14.9689 124.658 15.0162C124.705 15.0635 124.732 15.1276 124.732 15.1944C124.732 15.2596 124.707 15.3222 124.661 15.3692C124.616 15.4162 124.555 15.4438 124.49 15.4465Z" fill="white"/>
<path d="M120.548 19.8068H107.946C107.879 19.8068 107.815 19.7803 107.768 19.733C107.721 19.6857 107.694 19.6216 107.694 19.5548C107.694 19.4879 107.721 19.4238 107.768 19.3766C107.815 19.3293 107.879 19.3027 107.946 19.3027H120.548C120.615 19.3027 120.679 19.3293 120.726 19.3766C120.773 19.4238 120.8 19.4879 120.8 19.5548C120.8 19.6216 120.773 19.6857 120.726 19.733C120.679 19.7803 120.615 19.8068 120.548 19.8068Z" fill="white"/>
<path d="M91.1505 26.5714C91.1505 26.5714 83.3676 26.6873 83.4785 26.5714C83.5894 26.4555 89.6383 21.0266 89.6383 21.0266L91.1505 26.5714Z" fill="#1DC9B7"/>
<path d="M96.8564 8.41504H97.0479C97.3487 8.47925 97.6413 8.57733 97.92 8.7074C98.1614 8.5718 98.4314 8.49477 98.708 8.48252C98.9847 8.47026 99.2603 8.52311 99.5128 8.63683C101.201 9.24172 104.049 12.8761 102.436 14.6857C102.054 15.0062 101.578 15.1937 101.081 15.22C99.6755 15.4565 98.2483 15.5326 96.8261 15.4468C96.3033 15.4477 95.7868 15.3323 95.3139 15.1091C93.9177 14.348 94.7393 11.3487 95.2686 10.1894C95.4955 9.64368 95.8012 9.1342 96.1759 8.67716C96.3684 8.51855 96.6072 8.42658 96.8564 8.41504Z" fill="white"/>
<path d="M97.9655 15.7241C97.5824 15.7241 97.1942 15.7241 96.8111 15.6888C96.2599 15.6825 95.7165 15.557 95.2183 15.3209C93.6808 14.4841 94.4622 11.4445 95.0771 10.1037C95.3071 9.53534 95.6271 9.00771 96.0248 8.54108C96.2526 8.33658 96.5413 8.2126 96.8464 8.18823H97.0632C97.359 8.24485 97.6479 8.33272 97.9251 8.45035C98.1906 8.33432 98.4772 8.27443 98.7669 8.27443C99.0567 8.27443 99.3433 8.33432 99.6087 8.45035C100.844 8.89393 102.633 10.7943 103.067 12.5888C103.191 12.9718 103.216 13.3803 103.138 13.7755C103.061 14.1707 102.883 14.5396 102.623 14.847C102.206 15.2269 101.674 15.4559 101.111 15.4973C100.071 15.6608 99.0184 15.7367 97.9655 15.7241ZM96.8968 8.6671C96.6968 8.67898 96.5059 8.75499 96.3524 8.88385C95.9962 9.31509 95.7073 9.79774 95.4955 10.3154C94.9007 11.6109 94.2706 14.2976 95.4401 14.9378C95.8857 15.1349 96.3693 15.2313 96.8565 15.22C98.2617 15.3103 99.6726 15.2358 101.06 14.9982C101.518 14.9702 101.953 14.7932 102.3 14.4942C102.512 14.2442 102.654 13.9434 102.713 13.6216C102.772 13.2998 102.746 12.9681 102.638 12.6594C102.235 11.0312 100.577 9.2367 99.4726 8.84353C99.2528 8.74812 99.0146 8.70228 98.7751 8.70925C98.5355 8.71622 98.3004 8.77583 98.0864 8.88385C98.0467 8.91451 97.998 8.93114 97.9478 8.93114C97.8977 8.93114 97.8489 8.91451 97.8092 8.88385C97.5672 8.78869 97.3198 8.7079 97.0682 8.6419H96.917L96.8968 8.6671Z" fill="#231F20"/>
<path d="M95.8127 21.8231C96.0194 19.5901 96.1757 16.7824 96.1757 16.732L99.2959 16.858L99.0741 21.8231L105.088 20.7646C104.59 19.6726 103.975 18.6382 103.253 17.6797C101.846 15.7894 98.7666 15.7743 98.6859 15.7743C98.7666 15.7743 100.158 15.7743 96.1656 15.5474C91.8457 15.3004 90.5603 20.447 90.5603 20.447L91.1753 20.7646L95.8127 21.8231Z" fill="#1DC9B7"/>
<path d="M96.6199 14.9677L96.267 16.9033C96.2634 17.0561 96.2946 17.2077 96.3582 17.3466C96.4219 17.4856 96.5162 17.6083 96.6342 17.7054C96.7522 17.8025 96.8907 17.8715 97.0393 17.9072C97.1879 17.9429 97.3427 17.9444 97.4919 17.9115C97.8605 17.8785 98.2174 17.7648 98.5371 17.5784C98.8569 17.3919 99.1316 17.1374 99.3418 16.8328L99.735 14.4334C99.931 13.5365 100.077 12.6295 100.174 11.7164C99.236 12.0189 98.0817 10.8343 97.7893 10.0681C97.7157 10.3053 97.7045 10.5574 97.7566 10.8001C97.8086 11.0429 97.9223 11.2682 98.0867 11.4543C97.8262 11.3629 97.5907 11.2119 97.399 11.0132C97.2073 10.8145 97.0648 10.5737 96.9828 10.3101C96.7045 10.5192 96.4448 10.7519 96.2065 11.0057C95.9996 11.2976 95.8413 11.621 95.7377 11.9634C95.5563 12.5582 95.4 13.4756 95.7025 14.0402C95.875 14.4576 96.2044 14.7906 96.6199 14.9677Z" fill="white"/>
<path d="M97.3603 18.1685C97.0218 18.1842 96.6906 18.0665 96.4378 17.8409C96.1921 17.5882 96.0531 17.2507 96.0497 16.8983C96.0497 16.868 96.2866 15.5877 96.3773 15.1038C96.0043 14.8848 95.7044 14.5603 95.5153 14.1712C95.1373 13.4403 95.3994 12.3566 95.5153 11.9231C95.6283 11.5622 95.7985 11.2218 96.0194 10.9149C96.0194 10.9149 96.7654 10.0883 97.0276 10.1286C97.0709 10.1346 97.1116 10.1531 97.1447 10.1817C97.1777 10.2103 97.2019 10.2479 97.2141 10.2899C97.2764 10.4995 97.3849 10.6924 97.5316 10.8545C97.4802 10.584 97.4975 10.3049 97.5821 10.0429C97.5965 9.99752 97.6246 9.9577 97.6625 9.92884C97.7003 9.89999 97.7462 9.88349 97.7938 9.88159C97.8417 9.88141 97.8885 9.89576 97.9281 9.92276C97.9677 9.94976 97.9982 9.98813 98.0156 10.0328C98.2676 10.6982 99.3312 11.7971 100.113 11.545C100.148 11.533 100.186 11.5299 100.223 11.536C100.26 11.5422 100.295 11.5574 100.324 11.5803C100.353 11.6027 100.377 11.6318 100.393 11.6651C100.409 11.6984 100.416 11.735 100.415 11.7719C100.364 12.4093 100.269 13.0425 100.133 13.6672C100.077 13.9545 100.022 14.2368 99.9764 14.5191L99.5782 16.9134C99.5735 16.9436 99.5632 16.9726 99.5479 16.9991C99.3218 17.3347 99.0233 17.6153 98.6743 17.8203C98.3254 18.0253 97.9349 18.1495 97.5316 18.1837L97.3603 18.1685ZM96.5084 16.9436C96.5227 17.1548 96.6101 17.3544 96.7554 17.5082C96.8578 17.5901 96.976 17.6499 97.1027 17.6837C97.2294 17.7175 97.3617 17.7247 97.4913 17.7048C97.8167 17.6786 98.1323 17.5815 98.4162 17.4204C98.7001 17.2593 98.9453 17.0381 99.1346 16.7723L99.5227 14.4233C99.5731 14.141 99.6286 13.8486 99.684 13.5613C99.7849 13.0572 99.8857 12.528 99.9361 12.0189C99.5579 11.9847 99.1919 11.8682 98.8636 11.6775C98.5353 11.4868 98.2527 11.2265 98.0357 10.9149C98.0865 11.0671 98.167 11.2076 98.2726 11.3283C98.3041 11.3676 98.3213 11.4165 98.3213 11.4669C98.3213 11.5173 98.3041 11.5662 98.2726 11.6055C98.2456 11.6495 98.2044 11.6829 98.1559 11.7003C98.1073 11.7178 98.0543 11.7181 98.0055 11.7013C97.5144 11.5215 97.1105 11.1608 96.8763 10.6931C96.6848 10.8645 96.4328 11.1065 96.3723 11.1619C96.1838 11.4316 96.0392 11.7293 95.9438 12.0441C95.7006 12.6529 95.6827 13.3286 95.8934 13.9495C96.0437 14.3001 96.321 14.581 96.6697 14.7358C96.7246 14.7512 96.7717 14.7867 96.8016 14.8353C96.8315 14.8839 96.842 14.942 96.831 14.9979C96.831 15.0332 96.4882 16.858 96.4781 16.9336L96.5084 16.9436Z" fill="#231F20"/>
<path d="M99.6586 13.0724C99.7161 12.9345 99.8194 12.8205 99.951 12.7498C100.074 12.6854 100.207 12.6427 100.344 12.6238C100.419 12.6065 100.496 12.6065 100.571 12.6238C100.623 12.6405 100.671 12.668 100.712 12.7044C100.816 12.7757 100.89 12.8837 100.919 13.0069C100.932 13.109 100.92 13.213 100.884 13.3093C100.855 13.4175 100.811 13.521 100.752 13.6168C100.638 13.7995 100.457 13.9312 100.248 13.9848C100.028 14.0307 99.7985 13.9891 99.6082 13.8688" fill="white"/>
<path d="M100.048 14.2119C99.845 14.2118 99.6469 14.1522 99.4779 14.0405C99.4529 14.0277 99.4307 14.0098 99.413 13.9879C99.3953 13.9661 99.3823 13.9407 99.375 13.9135C99.3676 13.8864 99.366 13.858 99.3703 13.8301C99.3746 13.8023 99.3847 13.7757 99.3999 13.752C99.4151 13.7283 99.4351 13.7081 99.4586 13.6926C99.4821 13.6771 99.5086 13.6667 99.5364 13.662C99.5642 13.6574 99.5926 13.6586 99.6198 13.6656C99.6471 13.6727 99.6726 13.6853 99.6947 13.7028C99.7652 13.7493 99.8444 13.7813 99.9275 13.7969C100.011 13.8125 100.096 13.8113 100.179 13.7935C100.261 13.7756 100.339 13.7415 100.409 13.693C100.478 13.6445 100.537 13.5827 100.582 13.5112C100.633 13.4325 100.671 13.3456 100.693 13.2541C100.719 13.1905 100.73 13.1212 100.723 13.0525C100.703 12.9755 100.654 12.9089 100.587 12.866C100.567 12.8468 100.543 12.8329 100.516 12.8257C100.471 12.8158 100.425 12.8158 100.38 12.8257C100.265 12.8411 100.152 12.8751 100.048 12.9265C99.956 12.9801 99.8836 13.0612 99.8409 13.1584C99.8332 13.186 99.8197 13.2117 99.8013 13.2338C99.7829 13.2558 99.76 13.2737 99.7342 13.2862C99.7083 13.2986 99.6801 13.3054 99.6514 13.3061C99.6227 13.3068 99.5942 13.3014 99.5677 13.2902C99.5413 13.2789 99.5176 13.2622 99.4981 13.2411C99.4787 13.2199 99.464 13.1949 99.455 13.1676C99.4461 13.1404 99.443 13.1115 99.4461 13.0829C99.4492 13.0544 99.4583 13.0268 99.4729 13.0021C99.5504 12.8242 99.6829 12.6758 99.851 12.5787C99.9936 12.5022 100.149 12.4526 100.31 12.4325C100.414 12.4073 100.523 12.4073 100.627 12.4325C100.702 12.4567 100.772 12.4943 100.834 12.5434C100.977 12.6478 101.079 12.7996 101.121 12.9719C101.138 13.1063 101.122 13.2428 101.076 13.3701C101.043 13.4946 100.992 13.6136 100.925 13.7229C100.832 13.8732 100.703 13.9979 100.55 14.0859C100.397 14.1739 100.224 14.2224 100.048 14.227V14.2119Z" fill="#231F20"/>
<path d="M97.1988 12.0747C97.1988 12.0747 96.3873 12.8661 96.5032 13.0829C96.6192 13.2996 97.0527 13.2442 97.0527 13.2442" fill="white"/>
<path d="M96.9922 13.4453C96.8654 13.4565 96.7377 13.4376 96.6194 13.3904C96.5012 13.3431 96.3958 13.2686 96.3117 13.1731C96.2512 13.0722 96.1 12.8303 97.0426 11.9129C97.0632 11.8917 97.0879 11.8749 97.1152 11.8634C97.1425 11.8519 97.1718 11.8459 97.2014 11.8459C97.231 11.8459 97.2603 11.8519 97.2875 11.8634C97.3148 11.8749 97.3395 11.8917 97.3602 11.9129C97.4017 11.9553 97.425 12.0123 97.425 12.0717C97.425 12.131 97.4017 12.188 97.3602 12.2305C97.1252 12.4467 96.917 12.6904 96.7401 12.9563C96.84 12.985 96.9439 12.997 97.0476 12.9916C97.1013 12.9997 97.1504 13.0268 97.1858 13.0679C97.2212 13.1091 97.2407 13.1616 97.2407 13.2159C97.2407 13.2702 97.2212 13.3227 97.1858 13.3639C97.1504 13.4051 97.1013 13.4321 97.0476 13.4402L96.9922 13.4453Z" fill="#231F20"/>
<path d="M98.3749 12.3982C98.4251 12.2895 98.4023 12.1721 98.3239 12.1359C98.2456 12.0997 98.1414 12.1584 98.0912 12.2671C98.041 12.3758 98.0638 12.4932 98.1421 12.5294C98.2204 12.5656 98.3246 12.5069 98.3749 12.3982Z" fill="#231F20"/>
<path d="M96.6581 12.0977C96.7083 11.989 96.6855 11.8716 96.6072 11.8354C96.5289 11.7992 96.4246 11.8579 96.3744 11.9666C96.3242 12.0752 96.347 12.1927 96.4254 12.2289C96.5037 12.2651 96.6079 12.2063 96.6581 12.0977Z" fill="#231F20"/>
<path d="M96.3523 13.5969L97.7486 13.6826C97.7486 13.775 97.7278 13.8661 97.6878 13.9493C97.6478 14.0325 97.5895 14.1056 97.5174 14.1633C97.4452 14.2209 97.361 14.2615 97.271 14.2822C97.181 14.3028 97.0875 14.3029 96.9975 14.2825C96.8244 14.2676 96.6629 14.1895 96.5439 14.063C96.4248 13.9365 96.3566 13.7706 96.3523 13.5969Z" fill="#231F20"/>
</svg>
