<svg width="756" height="567" viewBox="0 0 756 567" fill="none" xmlns="http://www.w3.org/2000/svg">
<path d="M499.111 474.863L566.263 438.121C550.821 414.553 549.668 401.039 547.041 382.385C538.574 322.491 479.171 284.237 432.98 252.731C429.092 249.998 425.06 247.474 420.903 245.171C416.008 242.544 402.343 234.398 398.771 241.92C395.35 249.14 403.855 262.313 408.126 267.605C405.318 263.411 402.211 259.425 398.827 255.679C397.779 254.282 396.328 253.24 394.67 252.693C391.57 251.994 388.584 254.942 388.111 258.08C387.912 261.277 388.704 264.458 390.379 267.189C393.823 274.008 398.123 280.359 403.175 286.089C399.791 282.309 387.242 267.851 387.506 282.423C387.725 291.611 391.555 300.343 398.166 306.728C395.274 304.175 392.155 301.891 388.848 299.905C388.383 299.541 387.847 299.277 387.274 299.131C386.702 298.985 386.105 298.959 385.522 299.055C384.901 299.354 384.367 299.809 383.973 300.375C383.579 300.942 383.338 301.6 383.273 302.287C381.194 311.623 386.372 318.295 389.945 326.29C392.704 332.47 394.329 338.367 397.845 344.358C410.621 366.055 423.889 381.1 438.499 401.606C442.26 406.728 498.96 474.957 499.111 474.863Z" fill="white"/>
<path d="M499.205 475.808C498.581 475.808 497.315 474.371 489.358 464.789C483.953 458.325 476.733 449.669 469.4 440.786C462.558 432.546 440.086 405.386 437.723 402.06C432.809 395.161 428.047 388.83 423.416 382.763C413.823 370.643 404.986 357.944 396.956 344.736C394.857 340.976 393.068 337.05 391.607 332.999C390.814 330.901 389.963 328.747 388.999 326.573C388.262 324.929 387.449 323.304 386.656 321.735C383.518 315.555 380.551 309.696 382.29 301.984C382.362 301.129 382.669 300.31 383.176 299.616C383.682 298.923 384.369 298.382 385.162 298.053C385.874 297.914 386.607 297.926 387.314 298.089C388.021 298.251 388.685 298.561 389.264 298.998C390.209 299.584 391.154 300.189 392.099 300.888C388.545 295.372 386.583 288.983 386.429 282.423C386.429 278.378 387.241 276.035 389.131 275.298C390.7 274.693 392.647 275.298 394.801 276.828C392.843 273.876 391.063 270.809 389.472 267.643C387.69 264.752 386.863 261.373 387.109 257.985C387.279 256.937 387.658 255.933 388.223 255.034C388.788 254.135 389.527 253.358 390.398 252.75C391.024 252.292 391.74 251.971 392.499 251.808C393.258 251.645 394.042 251.644 394.801 251.805C396.484 252.307 397.973 253.309 399.073 254.678C397.183 250.123 396.087 245.228 397.844 241.448C398.203 240.666 398.726 239.97 399.379 239.409C400.031 238.848 400.797 238.434 401.624 238.197C407.011 236.439 415.648 241.164 420.298 243.697L421.375 244.283C425.565 246.617 429.628 249.172 433.546 251.937L438.933 255.604C483.877 286.184 539.783 324.23 547.986 382.234L548.44 385.39C550.783 402.23 552.616 415.63 567.075 437.573C567.148 437.681 567.198 437.804 567.221 437.933C567.243 438.061 567.238 438.194 567.206 438.32C567.174 438.447 567.115 438.566 567.034 438.668C566.953 438.771 566.851 438.855 566.735 438.915L499.583 475.675C499.473 475.755 499.341 475.801 499.205 475.808ZM386.221 299.792C386.077 299.772 385.93 299.772 385.786 299.792C384.879 300.075 384.425 301.323 384.199 302.343C382.63 309.393 385.427 314.95 388.413 320.828C389.207 322.415 390.058 324.06 390.814 325.761C391.777 327.953 392.704 330.145 393.46 332.262C394.876 336.225 396.621 340.062 398.676 343.734C406.639 356.863 415.407 369.488 424.928 381.534C429.559 387.639 434.378 393.952 439.273 400.869C443.318 406.539 494.083 467.435 499.318 473.578L564.92 437.668C550.745 415.781 548.893 402.419 546.55 385.56L546.096 382.404C538.026 325.231 482.479 287.431 437.856 257.078L432.45 253.298C428.592 250.568 424.593 248.045 420.468 245.738L419.371 245.133C415.289 242.922 406.803 238.272 402.172 239.784C401.613 239.961 401.098 240.254 400.661 240.645C400.225 241.036 399.876 241.516 399.64 242.052C397.391 246.777 400.944 254.999 405.121 261.519C406.444 263.258 407.71 265.016 408.901 266.83C409.04 267.031 409.095 267.279 409.052 267.52C409.01 267.76 408.874 267.975 408.674 268.116C408.477 268.262 408.231 268.326 407.988 268.295C407.744 268.263 407.523 268.138 407.37 267.945C407.2 267.719 405.612 265.734 403.741 262.842C401.952 260.499 400.062 258.237 398.071 256.057C397.144 254.813 395.868 253.872 394.405 253.355C393.898 253.256 393.377 253.262 392.873 253.373C392.37 253.484 391.894 253.696 391.475 253.997C390.817 254.46 390.257 255.05 389.829 255.731C389.4 256.412 389.112 257.172 388.98 257.966C388.828 260.964 389.593 263.937 391.173 266.49C394.577 273.205 398.819 279.46 403.798 285.107C403.951 285.296 404.024 285.538 404.003 285.78C403.983 286.023 403.869 286.248 403.686 286.409C403.503 286.57 403.266 286.654 403.022 286.644C402.779 286.633 402.549 286.53 402.38 286.354V286.241C394.612 277.471 391.362 276.261 390.001 276.791C388.98 277.188 388.451 279.078 388.508 282.12C388.567 286.572 389.505 290.967 391.27 295.054C393.034 299.142 395.59 302.839 398.789 305.934C398.958 306.106 399.055 306.336 399.06 306.577C399.064 306.818 398.977 307.052 398.815 307.231C398.654 307.409 398.43 307.519 398.19 307.538C397.949 307.557 397.711 307.484 397.523 307.333C394.667 304.828 391.593 302.582 388.338 300.624C387.71 300.18 386.983 299.894 386.221 299.792Z" fill="#231F20"/>
<path d="M344.065 418.297L473.741 450.221C478.971 451.508 484.254 448.312 485.542 443.082L553.807 165.782C555.095 160.552 551.899 155.269 546.669 153.981L416.993 122.058C411.763 120.77 406.479 123.966 405.192 129.196L336.927 406.496C335.639 411.726 338.835 417.01 344.065 418.297Z" fill="white"/>
<path d="M476.072 451.483C475.199 451.48 474.33 451.372 473.483 451.162L343.81 419.259C341.058 418.575 338.69 416.828 337.223 414.402C335.757 411.975 335.311 409.066 335.985 406.312L404.214 129.011C404.898 126.259 406.644 123.889 409.07 122.42C411.496 120.95 414.404 120.5 417.161 121.168L546.834 153.09C548.202 153.42 549.491 154.017 550.627 154.848C551.763 155.678 552.723 156.726 553.452 157.929C554.182 159.133 554.665 160.469 554.875 161.86C555.086 163.252 555.018 164.671 554.677 166.037L486.429 443.337C485.86 445.656 484.531 447.718 482.654 449.194C480.777 450.67 478.46 451.476 476.072 451.483ZM344.263 417.463L473.936 449.366C475.059 449.643 476.226 449.696 477.37 449.522C478.513 449.348 479.611 448.95 480.601 448.352C481.591 447.753 482.453 446.966 483.139 446.034C483.824 445.102 484.319 444.045 484.596 442.922L552.844 165.583C553.386 163.323 553.013 160.94 551.805 158.954C550.598 156.968 548.655 155.539 546.399 154.98L416.726 123.001C415.6 122.724 414.431 122.672 413.286 122.847C412.14 123.022 411.04 123.421 410.048 124.021C409.056 124.622 408.193 125.411 407.506 126.345C406.82 127.279 406.324 128.339 406.048 129.465L337.819 406.747C337.259 409.018 337.623 411.417 338.832 413.419C340.04 415.422 341.994 416.862 344.263 417.425V417.463Z" fill="#231F20"/>
<path d="M352.594 376.433L485.61 409.179L541.736 181.191L408.72 148.445L352.594 376.433Z" fill="#E6E7E8"/>
<path d="M398.493 422.104L423.801 428.334C427.014 429.125 430.26 427.162 431.051 423.949L433.436 414.259C434.227 411.046 432.264 407.8 429.051 407.009L403.743 400.779C400.53 399.988 397.284 401.951 396.493 405.164L394.108 414.854C393.317 418.067 395.28 421.313 398.493 422.104Z" fill="white"/>
<path d="M425.25 429.484C424.695 429.48 424.143 429.41 423.605 429.276L398.298 423.058C396.512 422.611 394.976 421.476 394.023 419.9C393.071 418.325 392.78 416.436 393.214 414.647L395.596 404.97C396.043 403.184 397.178 401.648 398.753 400.695C400.329 399.743 402.217 399.452 404.006 399.886L429.294 406.123C430.181 406.338 431.016 406.726 431.751 407.264C432.487 407.803 433.109 408.482 433.582 409.262C434.054 410.042 434.368 410.907 434.504 411.809C434.641 412.71 434.598 413.63 434.378 414.515L431.997 424.192C431.628 425.702 430.763 427.046 429.539 428.005C428.315 428.965 426.805 429.486 425.25 429.484ZM398.79 421.224L424.097 427.443C424.746 427.602 425.421 427.63 426.081 427.526C426.742 427.422 427.375 427.187 427.943 426.835C428.512 426.483 429.004 426.021 429.392 425.476C429.78 424.931 430.055 424.315 430.202 423.663L432.583 413.986C432.74 413.336 432.766 412.663 432.661 412.003C432.555 411.344 432.32 410.712 431.968 410.144C431.617 409.576 431.156 409.083 430.612 408.695C430.069 408.307 429.454 408.03 428.803 407.881L403.515 401.644C402.864 401.49 402.19 401.465 401.53 401.571C400.87 401.678 400.238 401.913 399.669 402.264C399.1 402.615 398.606 403.075 398.216 403.617C397.825 404.16 397.545 404.773 397.391 405.424L395.01 415.101C394.855 415.751 394.831 416.426 394.937 417.085C395.043 417.745 395.279 418.378 395.63 418.946C395.981 419.515 396.441 420.009 396.983 420.4C397.525 420.791 398.139 421.071 398.79 421.224Z" fill="#E6E7E8"/>
<path d="M503.061 157.834H502.834L465.034 148.516C464.915 148.488 464.802 148.435 464.703 148.362C464.603 148.29 464.519 148.198 464.456 148.092C464.393 147.986 464.351 147.869 464.334 147.747C464.316 147.626 464.323 147.501 464.354 147.382C464.412 147.14 464.564 146.93 464.777 146.799C464.989 146.668 465.245 146.626 465.488 146.683L503.288 156.001C503.532 156.063 503.742 156.219 503.873 156.434C504.004 156.65 504.045 156.908 503.987 157.154C503.929 157.353 503.807 157.528 503.64 157.651C503.472 157.774 503.269 157.838 503.061 157.834Z" fill="#E6E7E8"/>
<path d="M459.875 147.212H459.648L454.583 145.965C454.34 145.906 454.13 145.754 453.999 145.542C453.868 145.329 453.827 145.074 453.883 144.831C453.91 144.709 453.961 144.594 454.033 144.493C454.105 144.392 454.196 144.306 454.302 144.24C454.408 144.175 454.526 144.132 454.649 144.113C454.772 144.094 454.897 144.101 455.017 144.131L460.102 145.379C460.226 145.394 460.346 145.433 460.455 145.494C460.564 145.555 460.659 145.637 460.737 145.736C460.814 145.834 460.871 145.947 460.905 146.067C460.938 146.187 460.948 146.313 460.933 146.437C460.918 146.561 460.879 146.681 460.818 146.79C460.757 146.899 460.675 146.995 460.576 147.072C460.478 147.149 460.365 147.206 460.245 147.24C460.125 147.274 459.999 147.284 459.875 147.269V147.212Z" fill="#E6E7E8"/>
<path d="M393.701 333.05L472.76 351.462C479.755 353.091 486.745 348.742 488.374 341.747L489.694 336.078C491.323 329.084 486.974 322.093 479.979 320.464L400.92 302.052C393.925 300.423 386.935 304.773 385.306 311.767L383.986 317.436C382.357 324.431 386.706 331.421 393.701 333.05Z" fill="#584475"/>
<path d="M475.713 352.75C474.65 352.744 473.591 352.617 472.557 352.372L393.498 333.963C389.897 333.122 386.778 330.886 384.825 327.746C382.872 324.606 382.246 320.819 383.084 317.218L384.407 311.548C384.822 309.763 385.583 308.077 386.649 306.587C387.715 305.097 389.064 303.831 390.619 302.862C392.174 301.893 393.905 301.241 395.712 300.941C397.519 300.641 399.368 300.7 401.153 301.115L480.211 319.524C483.81 320.369 486.926 322.606 488.878 325.745C490.83 328.883 491.459 332.668 490.625 336.269L489.302 341.939C488.587 345.009 486.855 347.746 484.389 349.709C481.922 351.671 478.865 352.743 475.713 352.75ZM397.997 302.646C395.274 302.65 392.633 303.571 390.5 305.262C388.367 306.953 386.866 309.314 386.241 311.964L384.918 317.634C384.559 319.176 384.507 320.774 384.766 322.337C385.025 323.899 385.589 325.395 386.427 326.74C387.264 328.084 388.358 329.25 389.646 330.172C390.933 331.094 392.39 331.752 393.933 332.111L472.992 350.52C476.107 351.239 479.38 350.694 482.094 349.004C484.808 347.314 486.741 344.617 487.469 341.504L488.792 335.834C489.512 332.719 488.967 329.446 487.277 326.732C485.587 324.018 482.89 322.085 479.777 321.357L400.68 302.967C399.802 302.753 398.901 302.646 397.997 302.646Z" fill="#231F20"/>
<path d="M414.231 316.216C413.991 315.617 413.576 315.103 413.041 314.742C412.473 314.347 411.829 314.077 411.151 313.948C410.819 313.842 410.477 313.772 410.13 313.74C409.756 313.751 409.386 313.821 409.034 313.948C408.696 314.08 408.392 314.287 408.145 314.553C407.887 314.856 407.711 315.22 407.635 315.611C407.559 315.892 407.548 316.186 407.604 316.471C407.659 316.756 407.78 317.025 407.956 317.255C408.393 317.738 408.888 318.163 409.431 318.522C410.035 318.919 410.697 319.334 411.453 319.75C412.147 320.147 412.783 320.636 413.343 321.206C413.914 321.781 414.358 322.47 414.647 323.228C414.917 324.166 414.917 325.162 414.647 326.101C414.449 327.03 414.041 327.903 413.456 328.652C412.956 329.309 412.309 329.84 411.566 330.202C410.788 330.566 409.948 330.778 409.09 330.826C408.179 330.947 407.254 330.921 406.35 330.75C405.182 330.495 404.068 330.034 403.061 329.389C402.05 328.736 401.234 327.822 400.699 326.743L403.817 324.853C404.074 325.585 404.517 326.236 405.103 326.743C405.685 327.241 406.379 327.591 407.125 327.764C407.53 327.84 407.941 327.878 408.353 327.877C408.76 327.854 409.161 327.771 409.544 327.632C409.909 327.492 410.238 327.272 410.508 326.989C410.792 326.688 410.988 326.316 411.075 325.912C411.158 325.612 411.175 325.297 411.122 324.99C411.07 324.682 410.951 324.391 410.773 324.135C410.356 323.618 409.866 323.166 409.317 322.793C408.712 322.396 408.032 321.98 407.295 321.565C406.61 321.155 405.976 320.667 405.405 320.109C404.833 319.542 404.388 318.859 404.101 318.106C403.83 317.174 403.83 316.184 404.101 315.252C404.282 314.356 404.692 313.523 405.292 312.833C405.853 312.221 406.535 311.732 407.295 311.396C408.087 311.066 408.932 310.881 409.79 310.848C411.709 310.768 413.612 311.24 415.271 312.209C416.147 312.745 416.901 313.46 417.482 314.307L414.231 316.216Z" fill="white"/>
<path d="M421.281 313.513L433.906 316.405L433.207 319.467L423.965 317.369L422.906 322.056L431.657 323.946L430.958 327.027L422.207 325.08L421.016 330.259L430.75 332.47L430.05 335.551L416.934 332.64L421.281 313.513Z" fill="white"/>
<path d="M437.743 317.274L442.241 318.295L448.251 334.568L451.483 320.393L454.885 321.168L450.576 340.2L446.267 339.217L440.162 322.453L436.817 337.082L433.434 336.307L437.743 317.274Z" fill="white"/>
<path d="M459.269 322.17L466.829 323.871C468.065 324.148 469.246 324.627 470.326 325.288C471.383 325.916 472.303 326.752 473.028 327.745C473.764 328.785 474.267 329.971 474.503 331.223C474.76 332.685 474.708 334.185 474.351 335.626C474.051 337.099 473.403 338.48 472.461 339.652C471.623 340.665 470.579 341.49 469.4 342.071C468.247 342.622 467.005 342.961 465.733 343.073C464.513 343.19 463.282 343.114 462.085 342.846L454.979 341.24L459.269 322.17ZM461.537 339.52C462.555 339.744 463.595 339.852 464.637 339.841C465.573 339.821 466.497 339.622 467.358 339.255C468.18 338.902 468.901 338.35 469.456 337.649C470.105 336.817 470.551 335.847 470.76 334.814C471.007 333.799 471.052 332.746 470.893 331.714C470.735 330.862 470.379 330.059 469.853 329.37C469.305 328.691 468.623 328.131 467.85 327.726C466.965 327.267 466.025 326.924 465.053 326.706L461.953 326.006L459.023 338.934L461.537 339.52Z" fill="white"/>
<path d="M550.822 408.335C550.822 408.335 538.65 306.672 526.743 295.539C512.587 282.309 499.678 273.351 497.335 280.911C494.991 288.471 492.761 301.039 512.115 315.195L509.28 340.37C509.28 340.37 490.247 353.6 500.151 395.048" fill="white"/>
<path d="M550.802 409.204C550.592 409.197 550.39 409.115 550.235 408.973C550.079 408.831 549.979 408.638 549.952 408.429C549.838 407.427 537.705 306.955 526.157 296.163C508.769 279.947 502.343 278.529 500.037 279.153C499.566 279.29 499.142 279.552 498.809 279.912C498.476 280.271 498.247 280.715 498.147 281.194C495.463 289.813 494.669 301.379 512.624 314.534C512.748 314.622 512.846 314.743 512.905 314.883C512.965 315.023 512.986 315.177 512.964 315.328L510.148 340.484C510.13 340.607 510.087 340.726 510.022 340.833C509.957 340.94 509.872 341.034 509.77 341.107C509.581 341.24 491.362 354.488 501.001 394.878C501.047 395.1 501.006 395.332 500.887 395.526C500.767 395.719 500.578 395.859 500.358 395.917C500.135 395.968 499.901 395.93 499.706 395.809C499.512 395.689 499.373 395.497 499.319 395.275C489.982 356.133 505.858 341.939 508.466 339.917L511.207 315.63C492.779 301.965 493.668 289.775 496.503 280.665C496.685 279.904 497.07 279.205 497.615 278.643C498.16 278.081 498.847 277.676 499.602 277.471C504.27 276.242 513.607 282.12 527.328 294.935C539.349 306.142 551.18 404.082 551.672 408.335C551.688 408.448 551.68 408.563 551.651 408.674C551.621 408.784 551.569 408.887 551.499 408.977C551.428 409.067 551.34 409.142 551.24 409.197C551.14 409.252 551.029 409.287 550.916 409.299L550.802 409.204Z" fill="#231F20"/>
<path d="M192.289 445.549C192.289 445.549 230.202 372.084 258.76 338.971C262.654 334.454 267.643 333.698 271.14 336.023C275.279 338.801 275.449 348.043 275.449 348.043C275.449 348.043 286.279 341.844 291.476 343.129C296.674 344.415 297.278 352.579 297.278 352.579C297.278 352.579 308.864 348.799 313.627 352.882C318.39 356.964 318.522 364.222 318.522 364.222C318.522 364.222 379.493 315.895 386.222 311.831C392.95 307.768 405.008 314.987 399.055 323.568C395.275 328.917 364.543 359.138 354.583 368.739C344.623 378.34 321.414 404.46 318.824 412.133C316.235 419.807 314.024 428.538 329.843 429.616C345.662 430.693 359.762 433.396 366.698 439.217C373.634 445.038 378.189 453.751 374.712 455.452C371.234 457.153 315.309 450.859 294.065 459.402C272.822 467.945 245.171 499.092 245.171 499.092L192.289 445.549Z" fill="white"/>
<path d="M245.17 500.094C245.043 500.097 244.917 500.073 244.8 500.024C244.683 499.976 244.577 499.903 244.49 499.81L191.57 446.229C191.433 446.082 191.343 445.897 191.313 445.698C191.283 445.499 191.313 445.295 191.4 445.114C191.797 444.396 229.691 371.158 258.003 338.348C262.01 333.717 267.453 332.47 271.63 335.248C275.089 337.554 276.015 343.64 276.261 346.588C279.398 344.944 287.242 341.202 291.664 342.298C296.087 343.394 297.637 348.932 298.034 351.37C301.133 350.519 309.941 348.554 314.193 352.183C317.061 354.906 318.858 358.567 319.258 362.502C328.557 355.15 379.474 314.893 385.692 311.132C390.152 308.448 396.2 310.262 399.243 313.513C400.628 314.924 401.449 316.793 401.55 318.767C401.651 320.742 401.025 322.685 399.791 324.229C396.011 329.616 365.771 359.327 355.206 369.589C344.641 379.852 322.169 405.197 319.674 412.568C318.2 416.953 316.915 421.508 318.975 424.588C320.581 427.008 324.248 428.368 329.88 428.803C348.345 430.051 360.914 433.358 367.264 438.631C372.934 443.356 377.225 450.217 376.714 453.902C376.675 454.436 376.498 454.95 376.199 455.394C375.901 455.838 375.492 456.197 375.013 456.435C373.804 457.04 369.23 456.889 359.024 456.435C340.256 455.717 308.825 454.545 294.31 460.366C273.52 468.72 246.04 499.546 245.756 499.848C245.674 499.949 245.57 500.031 245.453 500.086C245.335 500.142 245.206 500.17 245.076 500.17L245.17 500.094ZM193.441 445.284L245.132 497.675C249.593 492.761 274.087 466.32 293.705 458.438C308.618 452.447 340.294 453.657 359.213 454.375C366.47 454.658 373.331 454.923 374.333 454.507C374.53 454.41 374.694 454.259 374.808 454.072C374.922 453.884 374.98 453.668 374.975 453.449C375.297 450.765 371.744 444.528 366.13 439.86C360.101 434.851 347.892 431.676 329.823 430.41C323.492 429.975 319.447 428.331 317.482 425.363C314.93 421.583 316.329 416.518 317.954 411.68C320.732 403.477 344.622 376.942 353.864 367.945C364.013 358.174 394.613 328.123 398.222 322.925C399.222 321.741 399.738 320.223 399.668 318.675C399.598 317.126 398.947 315.661 397.844 314.572C395.293 311.869 390.19 310.395 386.637 312.53C380.06 316.499 319.655 364.373 319.05 364.846C318.91 364.955 318.742 365.024 318.566 365.044C318.389 365.064 318.21 365.034 318.049 364.959C317.891 364.884 317.758 364.767 317.664 364.619C317.571 364.472 317.52 364.302 317.519 364.127C317.519 364.127 317.33 357.115 312.965 353.392C308.599 349.669 297.618 353.222 297.504 353.26C297.37 353.308 297.226 353.322 297.084 353.303C296.943 353.283 296.808 353.229 296.692 353.146C296.569 353.07 296.467 352.964 296.395 352.839C296.322 352.714 296.281 352.573 296.276 352.428C296.276 352.428 295.671 345.001 291.211 343.904C287.242 342.922 278.774 347.042 275.864 348.705C275.72 348.788 275.557 348.832 275.391 348.832C275.226 348.832 275.063 348.788 274.919 348.705C274.776 348.627 274.657 348.512 274.574 348.373C274.491 348.233 274.447 348.074 274.446 347.911C274.446 345.473 273.615 338.707 270.553 336.666C267.491 334.624 262.766 335.569 259.421 339.425C232.677 370.648 197.164 438.253 193.441 445.378V445.284Z" fill="#231F20"/>
<path d="M235.663 199.319L199.205 295.861L290.719 312.266C292.231 308.221 295.425 305.386 297.769 305.915L308.39 308.259C309.279 308.467 310.488 307.616 311.263 306.123C311.84 305.101 312.103 303.931 312.019 302.759C312.019 302.463 311.928 302.174 311.759 301.931C311.59 301.688 311.351 301.502 311.074 301.398L293.932 296.73C293.608 296.608 293.323 296.398 293.11 296.125C292.896 295.851 292.762 295.525 292.722 295.18C292.588 294.202 292.712 293.205 293.081 292.289C293.894 290.153 295.557 288.754 296.861 289.151L299.262 289.832L308.579 292.742C309.902 293.158 311.773 291.57 312.605 289.189C312.958 288.255 313.087 287.252 312.983 286.259C312.983 285.891 312.881 285.529 312.687 285.215C312.494 284.902 312.217 284.648 311.887 284.483L293.573 277.83C293.226 277.671 292.928 277.422 292.709 277.11C292.49 276.798 292.357 276.434 292.325 276.053C292.134 274.689 292.4 273.3 293.081 272.103C294.026 270.346 295.538 269.533 296.653 270.005L321.224 280.287C322.339 280.741 323.907 279.361 324.739 277.169C325.571 274.995 325.363 272.803 324.266 272.273L307.256 264.109C306.932 263.91 306.662 263.633 306.474 263.303C306.286 262.972 306.184 262.599 306.179 262.219C306.05 261.193 306.187 260.152 306.576 259.195C307.37 257.078 308.957 255.868 310.11 256.473L311.622 257.229L321.583 262.521C322.528 263.031 324.285 262.805 325.533 259.932C327.517 255.377 325.533 253.997 324.966 253.676L315.346 247.42L235.663 199.319Z" fill="white"/>
<path d="M235.664 199.32L315.309 247.382L324.929 253.638C325.458 253.959 327.481 255.339 325.496 259.894C324.57 262.011 323.36 262.691 322.415 262.691C322.113 262.692 321.815 262.621 321.546 262.483L311.586 257.191L310.074 256.435C309.874 256.336 309.654 256.285 309.431 256.284C308.392 256.284 307.201 257.418 306.539 259.157C306.15 260.114 306.013 261.156 306.142 262.181C306.148 262.561 306.249 262.934 306.437 263.265C306.626 263.595 306.895 263.873 307.22 264.071L324.23 272.236C325.326 272.765 325.534 274.957 324.702 277.131C323.984 279.021 322.699 280.325 321.64 280.325C321.491 280.354 321.337 280.354 321.187 280.325L296.617 270.043C296.409 269.951 296.183 269.905 295.955 269.911C295.321 270.005 294.721 270.259 294.212 270.65C293.702 271.04 293.301 271.553 293.045 272.141C292.364 273.338 292.098 274.727 292.289 276.091C292.321 276.471 292.453 276.836 292.672 277.148C292.892 277.46 293.19 277.709 293.536 277.868L311.794 284.596C312.123 284.761 312.401 285.015 312.594 285.329C312.788 285.643 312.89 286.004 312.89 286.373C312.994 287.366 312.864 288.369 312.512 289.302C311.775 291.438 310.187 292.931 308.921 292.931C308.777 292.951 308.63 292.951 308.486 292.931L299.168 290.021L296.73 289.17C296.586 289.15 296.44 289.15 296.296 289.17C295.124 289.17 293.725 290.493 293.007 292.383C292.637 293.299 292.514 294.296 292.648 295.275C292.688 295.619 292.822 295.946 293.035 296.219C293.249 296.493 293.533 296.702 293.857 296.825L311 301.493C311.277 301.597 311.516 301.783 311.685 302.026C311.854 302.269 311.944 302.558 311.945 302.854C312.029 304.025 311.766 305.195 311.189 306.218C310.974 306.772 310.623 307.262 310.166 307.643C309.71 308.023 309.164 308.281 308.581 308.391H308.316L297.694 306.048C297.506 306.029 297.316 306.029 297.127 306.048C294.859 306.048 292.043 308.732 290.644 312.455L199.131 296.05L235.589 199.509L235.664 199.32ZM235.589 197.789C235.402 197.752 235.209 197.752 235.022 197.789C234.781 197.87 234.561 198.004 234.378 198.18C234.195 198.357 234.053 198.572 233.963 198.809L197.524 295.332C197.43 295.57 197.391 295.826 197.41 296.082C197.43 296.337 197.508 296.585 197.638 296.806C197.762 297.026 197.933 297.215 198.139 297.362C198.345 297.509 198.58 297.61 198.828 297.656L290.323 314.061H290.644C290.993 314.058 291.333 313.95 291.619 313.751C291.906 313.552 292.126 313.272 292.251 312.946C293.555 309.488 295.918 307.654 297.127 307.654H297.316L308.07 309.96C308.278 309.98 308.487 309.98 308.694 309.96C309.596 309.863 310.456 309.526 311.183 308.984C311.911 308.442 312.481 307.716 312.833 306.879C313.582 305.54 313.905 304.004 313.759 302.476C313.722 301.842 313.492 301.234 313.1 300.734C312.709 300.234 312.174 299.866 311.567 299.679L294.557 295.048C294.549 294.966 294.549 294.884 294.557 294.802C294.492 294.16 294.583 293.512 294.821 292.912C294.943 292.468 295.155 292.054 295.444 291.696C295.734 291.339 296.095 291.045 296.503 290.833L298.866 291.514L308.146 294.405C308.451 294.503 308.77 294.554 309.091 294.557C310.338 294.366 311.501 293.81 312.433 292.959C313.365 292.108 314.023 291 314.326 289.775C314.763 288.566 314.918 287.273 314.78 285.995C314.742 285.31 314.513 284.649 314.119 284.088C313.725 283.527 313.181 283.087 312.55 282.82L294.292 276.091C294.239 275.937 294.195 275.779 294.16 275.619C294.039 274.65 294.238 273.667 294.727 272.822C295.275 271.82 295.918 271.48 296.125 271.48L320.695 281.761C321.054 281.913 321.44 281.99 321.829 281.988C323.719 281.988 325.515 280.287 326.498 277.66C327.707 274.504 327.14 271.518 325.156 270.573L308.146 262.408C308.146 262.408 308.146 262.238 308.032 261.897C307.955 261.159 308.058 260.413 308.335 259.724C308.541 259.024 308.981 258.417 309.582 258.004L311.019 258.703L320.922 263.976C321.443 264.241 322.02 264.377 322.604 264.373C323.512 264.373 325.761 264.014 327.273 260.593C329.654 255.112 327.178 252.882 326.006 252.164L316.424 245.965L236.742 197.864C236.475 197.7 236.167 197.615 235.853 197.619L235.589 197.789Z" fill="#231F20"/>
<path d="M263.579 280.968H263.295C263.172 280.921 263.06 280.848 262.969 280.753C262.877 280.658 262.808 280.544 262.766 280.419L235.682 202.041C235.63 201.829 235.659 201.605 235.765 201.413C235.87 201.222 236.044 201.077 236.251 201.008C236.459 200.939 236.685 200.951 236.884 201.04C237.083 201.13 237.241 201.292 237.327 201.493L264.051 278.794L313.739 247.382C313.934 247.266 314.166 247.229 314.387 247.278C314.609 247.327 314.803 247.459 314.93 247.647C314.992 247.743 315.033 247.851 315.052 247.963C315.071 248.076 315.068 248.191 315.041 248.302C315.015 248.414 314.966 248.518 314.898 248.61C314.83 248.702 314.745 248.779 314.646 248.838L264.089 280.835C263.937 280.932 263.759 280.979 263.579 280.968Z" fill="#231F20"/>
<path d="M199.206 296.73C199.013 296.736 198.824 296.676 198.669 296.561C198.515 296.445 198.404 296.28 198.356 296.093C198.307 295.906 198.324 295.708 198.403 295.532C198.482 295.356 198.619 295.212 198.79 295.124L257.153 262.011C257.352 261.901 257.586 261.873 257.805 261.933C258.024 261.993 258.211 262.136 258.325 262.332C258.382 262.43 258.419 262.538 258.434 262.65C258.449 262.762 258.441 262.876 258.411 262.985C258.381 263.095 258.33 263.197 258.26 263.286C258.19 263.375 258.103 263.449 258.004 263.504L199.641 296.617C199.508 296.692 199.358 296.731 199.206 296.73Z" fill="#231F20"/>
<path d="M290.72 313.116C290.533 313.116 290.351 313.055 290.201 312.942C290.051 312.83 289.941 312.672 289.888 312.493L277.717 270.913C277.68 270.701 277.723 270.484 277.838 270.302C277.952 270.12 278.13 269.987 278.336 269.929C278.542 269.87 278.763 269.89 278.956 269.984C279.149 270.079 279.3 270.241 279.38 270.44L291.533 312.02C291.567 312.129 291.58 312.244 291.569 312.358C291.558 312.472 291.524 312.583 291.469 312.684C291.414 312.784 291.34 312.873 291.25 312.944C291.16 313.015 291.057 313.067 290.947 313.097L290.72 313.116Z" fill="#231F20"/>
<path d="M365.394 26.7248L221.13 160.253L363.126 266.093C369.155 260.518 376.998 258.401 380.552 261.274L396.654 274.315C397.996 275.411 400.756 274.995 403.383 273.124C405.239 271.864 406.679 270.081 407.522 268.002C407.765 267.503 407.852 266.941 407.771 266.392C407.69 265.842 407.445 265.33 407.068 264.921L381.78 242.298C381.324 241.819 381.014 241.219 380.887 240.57C380.76 239.92 380.82 239.248 381.062 238.632C381.645 236.839 382.703 235.239 384.124 234.001C387.318 231.053 391.343 230.089 393.139 231.809L396.654 235.022L410.054 247.893C411.944 249.783 416.499 248.63 419.939 245.284C421.329 243.989 422.402 242.392 423.077 240.616C423.393 239.983 423.526 239.273 423.459 238.568C423.392 237.863 423.129 237.191 422.699 236.628L397.316 209.639C396.867 209.067 396.575 208.388 396.469 207.669C396.363 206.949 396.446 206.215 396.711 205.538C397.542 203.059 399.17 200.926 401.342 199.471C404.441 197.278 407.73 197.184 409.242 198.923L442.411 237.346C443.923 239.104 447.798 238.065 451.067 235.059C454.337 232.035 455.849 228.123 454.413 226.29L432.243 197.826C431.871 197.226 431.65 196.544 431.601 195.839C431.551 195.134 431.675 194.428 431.96 193.782C432.629 191.937 433.746 190.288 435.21 188.981C438.367 186.071 442.109 185.352 443.545 187.375L445.435 189.926L457.909 207.428C459.081 209.072 462.275 210.187 466.83 206.35C474.107 200.283 471.82 196.22 471.177 195.199L460.083 176.299L365.394 26.7248Z" fill="#1DC9B7"/>
<path d="M365.394 26.7247L460.234 176.375L471.328 195.275C471.971 196.295 474.258 200.359 466.981 206.426C465.451 207.923 463.445 208.839 461.311 209.015C460.693 209.046 460.076 208.924 459.516 208.66C458.956 208.396 458.469 207.999 458.098 207.503L445.624 190.002L443.734 187.45C443.443 187.066 443.061 186.76 442.622 186.559C442.184 186.357 441.702 186.268 441.221 186.297C439.012 186.489 436.946 187.469 435.399 189.057C433.935 190.363 432.818 192.013 432.149 193.857C431.864 194.504 431.741 195.21 431.79 195.915C431.839 196.619 432.06 197.302 432.432 197.902L454.602 226.365C456.038 228.255 454.602 232.035 451.256 235.135C449.532 236.913 447.238 238.03 444.774 238.291C444.37 238.315 443.966 238.249 443.59 238.098C443.215 237.948 442.877 237.717 442.6 237.422L409.431 198.998C409.046 198.593 408.579 198.275 408.06 198.066C407.541 197.857 406.984 197.763 406.426 197.789C404.653 197.862 402.945 198.476 401.531 199.546C399.359 201.002 397.731 203.135 396.9 205.613C396.635 206.29 396.552 207.025 396.658 207.744C396.764 208.463 397.056 209.143 397.505 209.714L422.888 236.704C423.318 237.266 423.581 237.938 423.648 238.643C423.715 239.349 423.583 240.058 423.266 240.692C422.591 242.467 421.518 244.065 420.128 245.36C418.199 247.391 415.587 248.637 412.795 248.856C411.86 248.91 410.943 248.59 410.243 247.968L396.843 235.097L393.328 231.884C392.655 231.298 391.782 230.994 390.89 231.034C388.729 231.292 386.683 232.146 384.981 233.501C383.278 234.857 381.987 236.659 381.251 238.707C381.009 239.323 380.949 239.996 381.076 240.645C381.203 241.294 381.513 241.894 381.969 242.374L407.238 264.921C407.615 265.33 407.86 265.842 407.941 266.392C408.022 266.941 407.935 267.503 407.692 268.002C406.849 270.081 405.409 271.864 403.553 273.124C402.175 274.189 400.509 274.814 398.771 274.919C398.092 274.933 397.427 274.72 396.881 274.315L380.778 261.274C379.557 260.372 378.062 259.918 376.545 259.988C371.551 260.394 366.863 262.557 363.315 266.093L221.13 160.253L365.337 26.7247H365.394ZM365.337 25.0048C364.9 25.0136 364.479 25.1739 364.146 25.4584L220.015 158.987C219.829 159.159 219.684 159.37 219.59 159.605C219.495 159.84 219.454 160.093 219.468 160.345C219.482 160.598 219.553 160.845 219.673 161.067C219.794 161.29 219.962 161.483 220.166 161.633L362.143 267.473C362.448 267.686 362.81 267.805 363.182 267.813C363.616 267.815 364.035 267.653 364.354 267.359C367.583 264.134 371.832 262.13 376.375 261.689C377.497 261.623 378.608 261.936 379.531 262.578L395.634 275.619C396.496 276.289 397.566 276.636 398.658 276.602C400.756 276.502 402.774 275.764 404.441 274.485C406.587 273.02 408.246 270.946 409.204 268.531C409.572 267.71 409.68 266.795 409.515 265.911C409.349 265.026 408.918 264.213 408.278 263.579L383.009 241.051C382.479 240.578 382.687 239.558 382.801 239.161C383.434 237.474 384.508 235.989 385.911 234.858C387.314 233.728 388.994 232.995 390.776 232.735C391.224 232.709 391.666 232.843 392.024 233.113L395.577 236.25L408.92 249.083C409.954 250.014 411.311 250.503 412.7 250.444C415.944 250.221 418.989 248.8 421.243 246.456C422.825 244.968 424.047 243.139 424.815 241.107C425.228 240.185 425.376 239.166 425.242 238.165C425.109 237.164 424.699 236.219 424.059 235.437L398.658 208.467C398.42 208.111 398.276 207.701 398.24 207.275C398.203 206.848 398.276 206.42 398.45 206.029C399.17 203.925 400.566 202.118 402.419 200.888C403.542 200.024 404.898 199.517 406.312 199.433C406.624 199.413 406.936 199.458 407.228 199.566C407.521 199.673 407.788 199.84 408.013 200.057L441.183 238.48C441.62 238.963 442.159 239.344 442.76 239.595C443.361 239.847 444.009 239.963 444.66 239.936C447.525 239.654 450.2 238.376 452.22 236.326C456.284 232.546 457.89 227.802 455.774 225.194L433.698 196.749C433.516 196.369 433.421 195.952 433.421 195.53C433.421 195.108 433.516 194.691 433.698 194.311C434.28 192.745 435.233 191.344 436.477 190.229C437.709 188.942 439.355 188.133 441.126 187.942C441.332 187.918 441.54 187.943 441.734 188.015C441.928 188.087 442.102 188.205 442.241 188.357L444.131 190.947L456.567 208.41C457.107 209.124 457.808 209.7 458.613 210.091C459.417 210.482 460.303 210.676 461.198 210.659C463.753 210.497 466.168 209.44 468.021 207.673C475.808 201.153 473.899 196.125 472.708 194.254L461.651 175.487L366.849 25.8175C366.712 25.6016 366.53 25.4186 366.314 25.2814C366.098 25.1442 365.855 25.0562 365.602 25.0237L365.337 25.0048Z" fill="#231F20"/>
<path d="M344.282 189C344.047 188.998 343.823 188.903 343.658 188.736C343.571 188.643 343.506 188.532 343.467 188.411C343.428 188.29 343.416 188.162 343.431 188.036L363.881 31.4876C363.914 31.2596 364.036 31.0539 364.22 30.9157C364.404 30.7775 364.636 30.7181 364.864 30.7505C364.976 30.7644 365.084 30.8005 365.182 30.8567C365.28 30.9129 365.366 30.9881 365.434 31.0778C365.503 31.1676 365.553 31.2701 365.582 31.3794C365.61 31.4886 365.617 31.6025 365.601 31.7144L345.283 187.11L457.587 175.77C457.801 175.773 458.007 175.854 458.165 175.999C458.322 176.143 458.421 176.341 458.442 176.554C458.463 176.767 458.405 176.98 458.279 177.153C458.152 177.326 457.967 177.446 457.757 177.49L344.357 189.019L344.282 189Z" fill="#231F20"/>
<path d="M221.13 161.123C220.911 161.123 220.7 161.039 220.542 160.887C220.383 160.736 220.289 160.529 220.28 160.31C220.272 160.196 220.287 160.081 220.324 159.973C220.36 159.864 220.418 159.764 220.494 159.678C220.569 159.592 220.661 159.522 220.764 159.471C220.866 159.421 220.978 159.391 221.092 159.384L348.724 152.599C348.838 152.585 348.954 152.597 349.064 152.631C349.174 152.666 349.275 152.724 349.361 152.801C349.447 152.878 349.515 152.972 349.562 153.077C349.608 153.182 349.632 153.296 349.631 153.412C349.637 153.641 349.553 153.863 349.398 154.032C349.243 154.202 349.029 154.304 348.8 154.319L221.187 161.123H221.13Z" fill="#231F20"/>
<path d="M363.182 266.887H363.031C362.806 266.845 362.607 266.717 362.476 266.529C362.345 266.342 362.293 266.11 362.332 265.885L376.998 184.615C377.04 184.39 377.168 184.191 377.356 184.06C377.543 183.929 377.775 183.877 378 183.916C378.112 183.934 378.22 183.975 378.317 184.035C378.413 184.096 378.497 184.175 378.562 184.269C378.627 184.362 378.673 184.468 378.696 184.579C378.72 184.691 378.721 184.806 378.699 184.917L364.033 266.188C363.994 266.384 363.887 266.562 363.732 266.689C363.577 266.816 363.383 266.886 363.182 266.887Z" fill="#231F20"/>
<path d="M425.419 289.17C425.239 289.167 425.062 289.115 424.909 289.019L346.172 231.601C345.989 231.466 345.867 231.263 345.833 231.038C345.8 230.813 345.857 230.584 345.992 230.401C346.127 230.218 346.33 230.096 346.555 230.062C346.78 230.029 347.009 230.086 347.192 230.221L425.93 287.62C426.081 287.725 426.194 287.875 426.252 288.049C426.311 288.223 426.311 288.412 426.254 288.586C426.197 288.761 426.084 288.912 425.934 289.017C425.783 289.122 425.603 289.176 425.419 289.17Z" fill="white"/>
<path d="M436.23 266.887C435.996 266.885 435.771 266.79 435.607 266.623L409.506 239.369C409.41 239.291 409.331 239.194 409.276 239.083C409.22 238.973 409.189 238.852 409.184 238.728C409.179 238.605 409.2 238.482 409.246 238.367C409.293 238.253 409.363 238.149 409.452 238.064C409.542 237.979 409.648 237.913 409.765 237.872C409.881 237.831 410.005 237.816 410.128 237.827C410.252 237.837 410.371 237.874 410.479 237.935C410.586 237.996 410.68 238.078 410.753 238.178L436.854 265.413C437.017 265.576 437.108 265.797 437.108 266.027C437.108 266.257 437.017 266.478 436.854 266.641C436.683 266.797 436.461 266.884 436.23 266.887Z" fill="white"/>
<path d="M453.336 264.959C453.101 264.957 452.877 264.862 452.712 264.694L436.704 248.1C436.541 247.937 436.449 247.716 436.449 247.486C436.449 247.256 436.541 247.035 436.704 246.872C436.869 246.713 437.089 246.625 437.318 246.625C437.547 246.625 437.767 246.713 437.932 246.872L453.94 263.466C454.099 263.631 454.187 263.851 454.187 264.08C454.187 264.309 454.099 264.529 453.94 264.694C453.777 264.852 453.562 264.946 453.336 264.959Z" fill="white"/>
<path d="M468.719 256.662C468.587 256.662 468.457 256.632 468.339 256.572C468.221 256.513 468.118 256.428 468.039 256.322C452.919 237.044 429.899 207.938 428.67 206.804C428.578 206.747 428.499 206.671 428.438 206.582C428.376 206.493 428.333 206.392 428.312 206.286C428.291 206.18 428.291 206.07 428.314 205.964C428.337 205.859 428.381 205.758 428.444 205.67C428.507 205.572 428.589 205.487 428.685 205.421C428.781 205.355 428.889 205.308 429.003 205.283C429.117 205.259 429.235 205.257 429.35 205.278C429.465 205.299 429.574 205.342 429.672 205.405C430.56 205.935 454.941 236.874 469.362 255.264C469.501 255.445 469.562 255.673 469.534 255.899C469.506 256.126 469.39 256.332 469.211 256.473C469.069 256.583 468.898 256.649 468.719 256.662Z" fill="white"/>
<path d="M433.906 279.72C433.722 279.719 433.544 279.659 433.396 279.55L417.69 267.964C417.586 267.902 417.496 267.819 417.426 267.721C417.356 267.622 417.308 267.51 417.284 267.391C417.259 267.273 417.26 267.151 417.286 267.032C417.312 266.914 417.362 266.803 417.433 266.705C417.504 266.607 417.595 266.526 417.7 266.465C417.805 266.405 417.921 266.367 418.041 266.353C418.161 266.34 418.283 266.352 418.398 266.389C418.513 266.425 418.62 266.486 418.71 266.566L434.511 278.151C434.662 278.256 434.775 278.406 434.834 278.58C434.892 278.754 434.893 278.943 434.835 279.117C434.778 279.291 434.665 279.443 434.515 279.548C434.365 279.653 434.184 279.707 434.001 279.701L433.906 279.72Z" fill="white"/>
<path d="M475.883 228.198C475.739 228.2 475.596 228.167 475.468 228.101C475.34 228.035 475.229 227.939 475.146 227.82L453.789 195.275C453.726 195.181 453.682 195.075 453.66 194.964C453.638 194.853 453.639 194.739 453.662 194.628C453.685 194.517 453.729 194.412 453.793 194.318C453.858 194.225 453.94 194.145 454.035 194.084C454.128 194.018 454.234 193.972 454.345 193.949C454.457 193.925 454.572 193.925 454.684 193.948C454.795 193.971 454.901 194.017 454.994 194.083C455.088 194.148 455.166 194.232 455.226 194.33L476.602 226.8C476.665 226.894 476.709 226.999 476.731 227.111C476.752 227.222 476.752 227.336 476.729 227.447C476.706 227.558 476.661 227.663 476.597 227.756C476.533 227.85 476.451 227.929 476.356 227.991C476.222 228.105 476.058 228.177 475.883 228.198Z" fill="white"/>
<path d="M426.704 41.2588L367.888 71.8201L404.554 118.9C407.011 117.634 409.751 117.653 410.658 118.9L414.722 124.57C415.062 125.042 415.988 125.156 417.009 124.778C417.752 124.546 418.41 124.099 418.899 123.493C419.016 123.346 419.091 123.169 419.114 122.982C419.137 122.795 419.109 122.606 419.031 122.434L412.832 112.852C412.728 112.656 412.682 112.435 412.699 112.215C412.715 111.994 412.794 111.782 412.926 111.605C413.271 111.07 413.754 110.639 414.325 110.357C415.629 109.696 417.028 109.733 417.462 110.357L418.313 111.718L421.469 117.18C421.923 117.955 423.51 117.993 424.928 117.18C425.492 116.883 425.983 116.463 426.364 115.952C426.522 115.77 426.626 115.549 426.667 115.313C426.707 115.076 426.68 114.833 426.591 114.61L420.77 103.572C420.674 103.348 420.638 103.102 420.668 102.859C420.698 102.617 420.792 102.387 420.94 102.192C421.431 101.461 422.148 100.91 422.981 100.624C424.191 100.189 425.268 100.454 425.608 101.153L432.941 116.613C433.282 117.331 434.624 117.331 435.947 116.613C437.27 115.933 438.12 114.723 437.837 114.08L433.187 102.835C433.114 102.607 433.101 102.365 433.147 102.13C433.193 101.895 433.298 101.676 433.452 101.493C433.838 100.955 434.35 100.52 434.945 100.227C436.23 99.5653 437.496 99.6787 437.799 100.454L438.196 101.455L440.672 108.259C440.917 108.902 441.843 109.544 443.677 108.713C446.587 107.39 446.209 105.878 446.096 105.481L444.206 98.3746L426.704 41.2588Z" fill="white"/>
<path d="M426.705 41.2588L444.15 98.3935L446.04 105.5C446.153 105.897 446.531 107.39 443.621 108.732C443.138 108.973 442.61 109.108 442.071 109.129C441.77 109.158 441.467 109.092 441.205 108.939C440.944 108.787 440.738 108.555 440.616 108.278L438.14 101.474L437.743 100.472C437.628 100.247 437.447 100.063 437.224 99.9446C437 99.8262 436.746 99.7796 436.495 99.811C435.934 99.8347 435.385 99.9832 434.889 100.246C434.295 100.538 433.782 100.973 433.396 101.512C433.242 101.695 433.137 101.914 433.091 102.149C433.045 102.384 433.058 102.626 433.131 102.854L437.781 114.099C438.083 114.818 437.232 115.989 435.891 116.632C435.309 116.947 434.662 117.122 434.001 117.142C433.776 117.17 433.549 117.133 433.344 117.036C433.14 116.939 432.968 116.786 432.848 116.594L425.514 101.134C425.357 100.886 425.134 100.687 424.871 100.557C424.608 100.427 424.314 100.372 424.021 100.397C423.635 100.408 423.252 100.478 422.887 100.605C422.054 100.891 421.338 101.442 420.846 102.173C420.698 102.368 420.604 102.598 420.575 102.84C420.545 103.083 420.58 103.329 420.676 103.553L426.497 114.591C426.587 114.814 426.613 115.057 426.573 115.294C426.533 115.53 426.428 115.752 426.27 115.933C425.889 116.444 425.399 116.864 424.834 117.161C424.21 117.513 423.509 117.708 422.793 117.728C422.545 117.745 422.296 117.705 422.067 117.61C421.837 117.515 421.633 117.368 421.47 117.18L418.276 111.794L417.425 110.433C417.272 110.233 417.069 110.076 416.838 109.977C416.606 109.878 416.353 109.839 416.102 109.866C415.443 109.868 414.795 110.03 414.212 110.338C413.642 110.62 413.158 111.051 412.814 111.586C412.682 111.763 412.603 111.975 412.586 112.196C412.569 112.416 412.615 112.637 412.719 112.833L418.918 122.415C418.996 122.587 419.025 122.776 419.001 122.963C418.978 123.15 418.904 123.327 418.786 123.474C418.297 124.08 417.639 124.527 416.896 124.759C416.527 124.9 416.138 124.976 415.743 124.986C415.533 125.008 415.321 124.98 415.124 124.904C414.927 124.829 414.751 124.708 414.609 124.551L410.546 118.881C410.234 118.544 409.848 118.283 409.418 118.119C408.989 117.955 408.527 117.892 408.07 117.936C406.804 117.97 405.563 118.293 404.441 118.881L367.888 71.8201L426.705 41.3344V41.2588ZM426.705 39.6145C426.429 39.6121 426.157 39.677 425.911 39.8035L367.095 70.1947C366.876 70.3207 366.684 70.4894 366.532 70.6906C366.379 70.8919 366.269 71.1217 366.206 71.3665C366.149 71.6147 366.148 71.8726 366.204 72.1212C366.259 72.3698 366.37 72.6028 366.528 72.8029L403.194 119.883C403.354 120.092 403.56 120.262 403.796 120.38C404.031 120.498 404.291 120.56 404.554 120.563C404.832 120.561 405.105 120.49 405.348 120.355C406.224 119.892 407.193 119.634 408.183 119.599C408.56 119.559 408.939 119.645 409.26 119.845L413.324 125.515C413.619 125.883 413.997 126.176 414.428 126.37C414.858 126.564 415.328 126.653 415.8 126.63C416.399 126.621 416.993 126.513 417.558 126.309C418.602 125.955 419.517 125.297 420.185 124.419C420.506 123.997 420.693 123.488 420.72 122.959C420.747 122.429 420.613 121.904 420.336 121.451L414.401 112.285C414.58 112.119 414.777 111.974 414.987 111.85C415.304 111.688 415.652 111.597 416.008 111.586L416.726 112.701L419.901 118.049C420.216 118.52 420.649 118.9 421.156 119.152C421.663 119.404 422.227 119.519 422.793 119.486C423.8 119.474 424.789 119.208 425.666 118.711C426.479 118.292 427.18 117.683 427.707 116.934C428.047 116.5 428.257 115.979 428.314 115.431C428.371 114.883 428.272 114.329 428.028 113.835L422.358 103.081C422.648 102.704 423.043 102.422 423.492 102.268C423.666 102.197 423.852 102.158 424.04 102.155L431.26 117.369C431.514 117.863 431.907 118.271 432.391 118.543C432.875 118.815 433.428 118.939 433.982 118.9C434.906 118.878 435.813 118.638 436.628 118.201C438.858 117.048 439.992 115.063 439.311 113.457L434.775 102.495C435.003 102.201 435.294 101.962 435.626 101.795C435.824 101.696 436.034 101.62 436.25 101.569L436.476 102.136L438.952 108.883C439.209 109.472 439.64 109.969 440.188 110.307C440.735 110.645 441.372 110.807 442.014 110.773C442.801 110.761 443.576 110.573 444.282 110.225C448.327 108.335 447.873 105.689 447.627 104.914L445.737 97.8643L428.312 40.6729C428.202 40.319 427.98 40.01 427.681 39.7921C427.381 39.5741 427.019 39.4588 426.648 39.4633L426.705 39.6145Z" fill="#231F20"/>
<path d="M443.28 99.1116H443.129L405.329 92.7045C405.199 92.684 405.075 92.6343 404.967 92.559C404.859 92.4837 404.769 92.3848 404.705 92.2698C404.654 92.1503 404.628 92.0217 404.628 91.8918C404.628 91.7619 404.654 91.6333 404.705 91.5138L425.249 42.4494C425.355 42.2644 425.526 42.1247 425.728 42.0571C425.93 41.9894 426.15 41.9984 426.346 42.0824C426.542 42.1664 426.701 42.3196 426.791 42.5127C426.882 42.7058 426.898 42.9254 426.837 43.1298L406.614 91.1547L443.412 97.3917C443.62 97.4344 443.804 97.5512 443.932 97.7202C444.059 97.8893 444.12 98.099 444.104 98.31C444.088 98.521 443.995 98.7188 443.843 98.8664C443.692 99.014 443.491 99.1012 443.28 99.1116Z" fill="#231F20"/>
<path d="M409.978 81.8182H409.789L367.699 72.5761C367.576 72.5649 367.456 72.5275 367.349 72.4665C367.241 72.4055 367.148 72.3222 367.075 72.2222C367.002 72.1222 366.951 72.0078 366.926 71.8866C366.901 71.7655 366.902 71.6404 366.929 71.5197C366.957 71.399 367.009 71.2854 367.084 71.1867C367.158 71.0879 367.253 71.0062 367.362 70.947C367.47 70.8877 367.59 70.8524 367.714 70.8433C367.837 70.8341 367.961 70.8514 368.077 70.894L410.129 80.1172C410.351 80.1671 410.545 80.3018 410.668 80.4926C410.792 80.6834 410.836 80.915 410.791 81.1378C410.749 81.3249 410.647 81.4931 410.5 81.6162C410.353 81.7392 410.17 81.8103 409.978 81.8182Z" fill="#231F20"/>
<path d="M404.554 119.694C404.436 119.721 404.313 119.721 404.195 119.694C403.987 119.596 403.827 119.419 403.749 119.203C403.671 118.987 403.682 118.749 403.779 118.541L415.799 93.3662C415.846 93.2641 415.913 93.1723 415.995 93.0961C416.078 93.0198 416.174 92.9607 416.28 92.922C416.385 92.8834 416.497 92.866 416.609 92.8709C416.722 92.8757 416.832 92.9028 416.933 92.9504C417.141 93.0487 417.301 93.2251 417.379 93.4411C417.457 93.6571 417.446 93.8952 417.349 94.1033L405.291 119.203C405.225 119.344 405.122 119.465 404.991 119.552C404.861 119.638 404.71 119.688 404.554 119.694Z" fill="#231F20"/>
<path d="M252.428 518.011L273.123 481.081C273.123 481.081 193.743 425.174 192.288 424.38C190.833 423.587 137.251 517.558 137.251 517.558L141.353 517.992L252.428 518.011Z" fill="#584475"/>
<path d="M252.428 518.956H141.353L137.138 518.522C136.983 518.504 136.834 518.448 136.705 518.359C136.577 518.27 136.472 518.151 136.401 518.011C136.327 517.872 136.288 517.716 136.288 517.558C136.288 517.399 136.327 517.244 136.401 517.104C136.533 516.877 149.952 493.347 163.371 470.213C191.003 422.623 191.551 422.963 192.704 423.568C194.178 424.343 265.526 474.598 273.653 480.268C273.846 480.399 273.983 480.599 274.036 480.827C274.088 481.054 274.053 481.294 273.936 481.496L253.146 518.446C253.08 518.585 252.979 518.705 252.853 518.794C252.728 518.883 252.581 518.939 252.428 518.956ZM138.782 516.783L141.447 517.085H251.861L271.895 481.383C245.775 462.993 198.185 429.54 192.383 425.609C188.149 430.92 158.76 481.95 138.782 516.783Z" fill="#231F20"/>
<path d="M614.646 518.011L618.748 517.577C618.748 517.577 576.279 419.297 574.805 420.128C573.331 420.96 486.278 474.673 486.278 474.673L505.026 518.011H614.646Z" fill="#584475"/>
<path d="M614.647 518.956H505.027C504.843 518.954 504.664 518.9 504.51 518.8C504.356 518.699 504.233 518.557 504.158 518.389L485.409 475.052C485.324 474.84 485.316 474.606 485.384 474.388C485.453 474.171 485.596 473.985 485.787 473.861C489.34 471.668 572.878 420.071 574.371 419.297C574.496 419.24 574.631 419.211 574.768 419.211C574.905 419.211 575.04 419.24 575.165 419.297C577.206 420.015 600.472 472.954 619.618 517.255C619.687 517.386 619.724 517.532 619.724 517.68C619.724 517.829 619.687 517.975 619.618 518.106C619.543 518.235 619.439 518.344 619.314 518.426C619.19 518.508 619.048 518.56 618.9 518.578L614.779 519.013L614.647 518.956ZM505.632 517.066H614.59L617.388 516.783C601.663 480.476 578.302 427.367 574.598 421.338C568.134 425.25 516.103 457.361 487.469 475.052L505.632 517.066Z" fill="#231F20"/>
</svg>
