<svg width="769" height="577" viewBox="0 0 769 577" fill="none" xmlns="http://www.w3.org/2000/svg">
<path d="M686.12 173.908L594.051 170.484C593.823 170.474 593.608 170.377 593.451 170.212C593.293 170.047 593.205 169.828 593.205 169.599V106.687C593.207 106.56 593.236 106.434 593.289 106.318C593.342 106.203 593.418 106.099 593.513 106.014C593.604 105.927 593.714 105.863 593.834 105.826C593.954 105.79 594.081 105.781 594.205 105.802L686.216 117.669C686.433 117.693 686.634 117.797 686.78 117.96C686.925 118.124 687.005 118.335 687.004 118.554V173.1C686.997 173.347 686.894 173.582 686.716 173.754C686.543 173.876 686.33 173.931 686.12 173.908ZM594.974 168.753L685.216 172.119V119.247L594.974 107.707V168.753Z" fill="#D1D3D4"/>
<path d="M61.5191 495.316C61.2846 495.316 61.0596 495.222 60.8938 495.057C60.7279 494.891 60.6348 494.666 60.6348 494.431C60.6348 494.196 60.7279 493.971 60.8938 493.805C61.0596 493.639 61.2846 493.546 61.5191 493.546L734.759 440.443C734.876 440.435 734.992 440.45 735.102 440.488C735.213 440.525 735.315 440.584 735.402 440.661C735.49 440.737 735.561 440.831 735.612 440.935C735.664 441.04 735.694 441.154 735.701 441.27C735.712 441.385 735.699 441.501 735.664 441.612C735.629 441.722 735.572 441.824 735.497 441.912C735.421 442 735.329 442.072 735.226 442.123C735.122 442.175 735.009 442.205 734.894 442.212L61.5191 495.296V495.316Z" fill="#D1D3D4"/>
<path d="M560.619 418.998L107.236 447.694V90.4347L560.619 119.131V418.998Z" fill="white"/>
<path d="M107.236 448.656C106.996 448.652 106.764 448.564 106.583 448.406C106.487 448.313 106.41 448.203 106.357 448.081C106.304 447.959 106.277 447.827 106.275 447.694V90.3964C106.275 90.2658 106.302 90.1366 106.355 90.0172C106.408 89.8978 106.485 89.7911 106.583 89.704C106.675 89.6101 106.786 89.5374 106.909 89.4909C107.032 89.4444 107.163 89.4252 107.294 89.4348L560.677 118.169C560.92 118.188 561.148 118.298 561.315 118.475C561.482 118.653 561.577 118.887 561.581 119.131V418.998C561.581 419.243 561.488 419.479 561.32 419.658C561.152 419.837 560.922 419.945 560.677 419.96L107.294 448.656H107.236ZM108.198 91.4543V446.675L559.658 418.094V119.977L108.198 91.4543Z" fill="#231F20"/>
<path d="M550.315 357.47L455.421 361.009C455.223 361.017 455.026 360.985 454.841 360.915C454.656 360.846 454.487 360.739 454.344 360.603C454.2 360.467 454.086 360.303 454.006 360.122C453.927 359.941 453.885 359.745 453.883 359.548C453.888 359.137 454.05 358.745 454.336 358.451C454.623 358.157 455.011 357.985 455.421 357.97L550.315 354.566C550.503 354.558 550.69 354.589 550.865 354.656C551.04 354.724 551.199 354.827 551.332 354.958C551.466 355.09 551.571 355.248 551.641 355.422C551.71 355.596 551.744 355.783 551.738 355.97C551.743 356.357 551.598 356.73 551.332 357.01C551.066 357.29 550.701 357.455 550.315 357.47Z" fill="#E6E7E8"/>
<path d="M550.373 371.068L463.687 374.8C463.501 374.807 463.314 374.777 463.14 374.711C462.965 374.645 462.806 374.544 462.671 374.415C462.536 374.286 462.429 374.13 462.356 373.958C462.283 373.786 462.245 373.602 462.245 373.415V373.28C462.245 372.892 462.395 372.519 462.664 372.239C462.933 371.959 463.3 371.795 463.687 371.78L550.373 368.164C550.553 368.156 550.732 368.185 550.9 368.25C551.068 368.314 551.221 368.413 551.349 368.539C551.477 368.666 551.578 368.817 551.645 368.984C551.712 369.151 551.743 369.33 551.738 369.51V369.626C551.738 369.995 551.597 370.351 551.343 370.619C551.089 370.888 550.742 371.049 550.373 371.068Z" fill="#E6E7E8"/>
<path d="M550.353 384.667L459.803 389.052C459.612 389.065 459.42 389.039 459.239 388.974C459.059 388.909 458.893 388.807 458.754 388.675C458.615 388.543 458.505 388.384 458.431 388.207C458.356 388.03 458.319 387.84 458.323 387.648C458.327 387.249 458.482 386.866 458.756 386.577C459.031 386.288 459.405 386.114 459.803 386.09L550.353 381.801C550.535 381.793 550.717 381.822 550.887 381.888C551.057 381.953 551.212 382.053 551.342 382.182C551.472 382.31 551.574 382.463 551.642 382.633C551.71 382.802 551.742 382.984 551.737 383.166C551.738 383.545 551.596 383.91 551.339 384.188C551.082 384.467 550.73 384.637 550.353 384.667Z" fill="#E6E7E8"/>
<path d="M550.316 398.284L455.421 403.438C455.224 403.451 455.026 403.424 454.84 403.357C454.653 403.291 454.483 403.187 454.339 403.051C454.194 402.916 454.08 402.752 454.001 402.571C453.923 402.389 453.882 402.193 453.883 401.996C453.896 401.586 454.061 401.196 454.345 400.901C454.629 400.607 455.013 400.428 455.421 400.399L550.316 395.36C550.502 395.349 550.688 395.378 550.863 395.443C551.038 395.508 551.198 395.609 551.332 395.739C551.465 395.87 551.571 396.026 551.641 396.199C551.711 396.372 551.744 396.558 551.738 396.745C551.739 397.134 551.593 397.509 551.329 397.794C551.065 398.08 550.703 398.254 550.316 398.284Z" fill="#1DC9B7"/>
<path d="M362.891 152.039C399.572 153.713 428.679 183.274 428.679 218.01C428.679 252.745 399.572 281.114 362.891 281.287C325.094 281.48 293.527 251.841 293.527 215.24C293.527 178.639 325.094 150.308 362.891 152.039ZM362.891 177.312C340.013 176.504 321.096 193.756 321.096 215.779C321.096 237.801 340.013 255.861 362.891 255.976C385.346 256.092 403.263 238.801 403.263 217.51C403.263 196.218 385.346 178.12 362.891 177.312Z" fill="#E6E7E8"/>
<path d="M428.717 218.01C428.717 252.63 399.88 280.96 363.237 281.287V256.015C385.557 256.015 403.379 238.705 403.379 217.548L428.717 218.01Z" fill="#584475"/>
<path d="M314.29 412.343L301.371 413.055V321.119L314.29 320.869V412.343Z" fill="#E6E7E8"/>
<path d="M314.29 412.343L301.371 413.055V373.646L314.29 373.146V412.343Z" fill="#1DC9B7"/>
<path d="M339.762 410.958L327.093 411.651V320.6L339.762 320.35V410.958Z" fill="#E6E7E8"/>
<path d="M339.762 410.958L327.093 411.651V356.701L339.762 356.278V410.958Z" fill="#1DC9B7"/>
<path d="M364.756 409.573L352.317 410.266V320.1L364.756 319.869V409.573Z" fill="#E6E7E8"/>
<path d="M364.756 409.573L352.317 410.266V376.127L364.756 375.607V409.573Z" fill="#1DC9B7"/>
<path d="M389.248 408.246L377.059 408.9V319.619L389.248 319.369V408.246Z" fill="#E6E7E8"/>
<path d="M389.248 408.247L377.059 408.901V366.145L389.248 365.683V408.247Z" fill="#1DC9B7"/>
<path d="M413.299 406.919L401.341 407.573V319.138L413.299 318.907V406.919Z" fill="#E6E7E8"/>
<path d="M413.299 406.919L401.341 407.573V354.489L413.299 354.085V406.919Z" fill="#1DC9B7"/>
<path d="M436.887 405.631L425.14 406.265V318.657L436.887 318.427V405.631Z" fill="#E6E7E8"/>
<path d="M436.887 405.631L425.14 406.265V332.544L436.887 332.236V405.631Z" fill="#1DC9B7"/>
<path d="M480.508 170.061C480.52 171.916 480.155 173.754 479.435 175.464C478.714 177.173 477.654 178.719 476.317 180.005C474.981 181.291 473.397 182.292 471.662 182.947C469.927 183.602 468.076 183.896 466.224 183.813C462.364 183.659 458.711 182.026 456.023 179.251C453.335 176.475 451.817 172.771 451.786 168.907C451.772 167.036 452.142 165.183 452.873 163.461C453.604 161.739 454.681 160.186 456.036 158.897C457.391 157.608 458.996 156.611 460.752 155.967C462.507 155.323 464.376 155.047 466.243 155.155C470.069 155.36 473.674 157.015 476.323 159.784C478.973 162.553 480.47 166.228 480.508 170.061Z" fill="#E6E7E8"/>
<path d="M538.031 165.791L494.14 163.868C493.74 163.848 493.364 163.675 493.088 163.385C492.813 163.095 492.659 162.71 492.66 162.31C492.657 162.117 492.693 161.926 492.768 161.748C492.842 161.57 492.952 161.409 493.09 161.276C493.229 161.142 493.394 161.039 493.575 160.972C493.755 160.905 493.948 160.876 494.14 160.886L538.031 162.81C538.417 162.834 538.779 163.005 539.043 163.287C539.307 163.57 539.454 163.942 539.453 164.329C539.467 164.521 539.44 164.714 539.374 164.895C539.308 165.076 539.204 165.241 539.07 165.379C538.935 165.517 538.773 165.625 538.594 165.696C538.415 165.767 538.223 165.8 538.031 165.791Z" fill="#E6E7E8"/>
<path d="M538.03 173.85L494.081 172.1C493.683 172.085 493.307 171.916 493.031 171.629C492.755 171.342 492.601 170.959 492.601 170.561C492.598 170.368 492.635 170.175 492.709 169.997C492.783 169.818 492.892 169.656 493.031 169.521C493.169 169.386 493.334 169.281 493.514 169.211C493.695 169.142 493.888 169.111 494.081 169.118L537.972 170.926C538.359 170.946 538.724 171.116 538.99 171.399C539.255 171.682 539.4 172.058 539.395 172.446C539.4 172.628 539.368 172.81 539.302 172.98C539.236 173.15 539.136 173.306 539.009 173.436C538.881 173.567 538.729 173.671 538.561 173.742C538.393 173.813 538.212 173.85 538.03 173.85Z" fill="#E6E7E8"/>
<path d="M538.03 181.909L494.081 180.312C493.682 180.293 493.305 180.12 493.029 179.83C492.754 179.54 492.6 179.155 492.601 178.754C492.598 178.562 492.635 178.371 492.709 178.193C492.783 178.015 492.893 177.854 493.032 177.721C493.17 177.587 493.335 177.484 493.516 177.417C493.696 177.35 493.889 177.321 494.081 177.331L537.972 178.985C538.359 179.005 538.724 179.175 538.99 179.458C539.255 179.741 539.4 180.116 539.395 180.505C539.4 180.687 539.368 180.869 539.302 181.039C539.236 181.209 539.136 181.364 539.009 181.495C538.881 181.626 538.729 181.73 538.561 181.801C538.393 181.872 538.212 181.909 538.03 181.909Z" fill="#E6E7E8"/>
<path d="M480.508 228.723C480.511 230.592 480.142 232.443 479.423 234.168C478.704 235.894 477.649 237.459 476.32 238.772C474.99 240.086 473.413 241.122 471.68 241.821C469.947 242.519 468.092 242.865 466.224 242.84C462.384 242.794 458.715 241.24 456.011 238.513C453.306 235.785 451.782 232.103 451.767 228.261C451.761 226.377 452.133 224.511 452.862 222.774C453.591 221.037 454.662 219.464 456.011 218.149C457.359 216.834 458.958 215.803 460.713 215.118C462.467 214.434 464.341 214.109 466.224 214.163C470.03 214.253 473.652 215.824 476.319 218.543C478.986 221.261 480.489 224.913 480.508 228.723Z" fill="#1DC9B7"/>
<path d="M538.029 223.106L494.081 222.241C493.685 222.231 493.309 222.066 493.032 221.783C492.755 221.499 492.601 221.118 492.601 220.722C492.598 220.527 492.635 220.334 492.709 220.155C492.782 219.975 492.891 219.812 493.03 219.675C493.168 219.539 493.332 219.431 493.513 219.36C493.694 219.289 493.887 219.255 494.081 219.26L537.972 220.164C538.356 220.174 538.721 220.335 538.987 220.612C539.253 220.889 539.4 221.26 539.394 221.645C539.402 221.831 539.373 222.016 539.308 222.191C539.244 222.365 539.145 222.525 539.018 222.661C538.891 222.797 538.738 222.907 538.568 222.983C538.399 223.06 538.215 223.102 538.029 223.106Z" fill="#1DC9B7"/>
<path d="M538.03 231.146L494.081 230.454C493.685 230.444 493.309 230.279 493.032 229.995C492.755 229.711 492.601 229.331 492.601 228.934C492.598 228.74 492.635 228.547 492.709 228.367C492.782 228.187 492.891 228.024 493.03 227.888C493.168 227.751 493.332 227.644 493.513 227.573C493.694 227.501 493.887 227.467 494.081 227.472L537.972 228.223C538.356 228.233 538.721 228.394 538.987 228.671C539.253 228.948 539.4 229.319 539.395 229.704C539.4 229.888 539.368 230.072 539.303 230.244C539.237 230.416 539.138 230.574 539.011 230.708C538.884 230.842 538.732 230.949 538.564 231.025C538.395 231.1 538.214 231.141 538.03 231.146Z" fill="#E6E7E8"/>
<path d="M538.029 239.205L494.081 238.647C493.885 238.647 493.691 238.608 493.51 238.533C493.329 238.457 493.165 238.346 493.028 238.207C492.89 238.067 492.781 237.901 492.708 237.72C492.635 237.538 492.598 237.343 492.601 237.147C492.598 236.952 492.635 236.758 492.708 236.577C492.782 236.396 492.891 236.232 493.029 236.094C493.167 235.956 493.331 235.847 493.512 235.773C493.692 235.7 493.886 235.663 494.081 235.666L537.972 236.262C538.358 236.277 538.722 236.442 538.988 236.723C539.254 237.003 539.4 237.376 539.395 237.762C539.4 238.133 539.26 238.492 539.005 238.761C538.75 239.031 538.4 239.19 538.029 239.205Z" fill="#E6E7E8"/>
<path d="M268.265 436.289C268.01 436.289 267.765 436.187 267.585 436.007C267.405 435.827 267.303 435.582 267.303 435.327V102.802C267.303 102.547 267.405 102.302 267.585 102.122C267.765 101.942 268.01 101.84 268.265 101.84C268.52 101.84 268.764 101.942 268.944 102.122C269.125 102.302 269.226 102.547 269.226 102.802V435.327C269.226 435.582 269.125 435.827 268.944 436.007C268.764 436.187 268.52 436.289 268.265 436.289Z" fill="#231F20"/>
<path d="M409.127 189.41C408.872 189.469 408.604 189.423 408.382 189.285C408.161 189.146 408.003 188.924 407.945 188.669C407.886 188.414 407.931 188.146 408.07 187.925C408.209 187.703 408.43 187.545 408.685 187.487L442.04 170.946C442.27 170.838 442.533 170.824 442.773 170.907C443.014 170.989 443.213 171.162 443.328 171.388C443.384 171.502 443.417 171.625 443.425 171.752C443.433 171.878 443.416 172.005 443.375 172.124C443.333 172.244 443.269 172.355 443.185 172.449C443.101 172.544 443 172.621 442.886 172.677L409.492 189.314C409.377 189.366 409.253 189.398 409.127 189.41Z" fill="#231F20"/>
<path d="M408.415 234.647C408.161 234.647 407.916 234.545 407.736 234.365C407.555 234.185 407.454 233.94 407.454 233.685C407.454 233.43 407.555 233.185 407.736 233.005C407.916 232.825 408.161 232.723 408.415 232.723L445.193 232.569C445.448 232.569 445.692 232.671 445.873 232.851C446.053 233.031 446.154 233.276 446.154 233.531C446.154 233.786 446.053 234.031 445.873 234.211C445.692 234.391 445.448 234.493 445.193 234.493L408.415 234.647Z" fill="#231F20"/>
<path d="M368.716 138.364L307.696 135.248C306.801 135.22 305.949 134.853 305.314 134.221C304.679 133.589 304.307 132.74 304.274 131.844C304.29 131.419 304.393 131.002 304.576 130.618C304.76 130.235 305.02 129.893 305.341 129.614C305.661 129.334 306.036 129.124 306.441 128.995C306.846 128.865 307.273 128.821 307.696 128.863L368.716 132.113C369.574 132.156 370.384 132.52 370.986 133.133C371.587 133.746 371.937 134.563 371.965 135.422C371.956 135.832 371.863 136.236 371.692 136.609C371.522 136.982 371.277 137.317 370.973 137.592C370.669 137.867 370.312 138.078 369.924 138.211C369.536 138.343 369.125 138.396 368.716 138.364Z" fill="#E6E7E8"/>
<path d="M243.714 131.979L176.522 128.555C175.548 128.558 174.608 128.19 173.894 127.526C173.181 126.861 172.746 125.951 172.677 124.978C172.699 124.509 172.819 124.049 173.029 123.629C173.239 123.209 173.535 122.838 173.897 122.539C174.259 122.24 174.68 122.02 175.132 121.894C175.584 121.767 176.058 121.737 176.522 121.804L243.81 125.401C244.718 125.442 245.578 125.819 246.225 126.459C246.871 127.098 247.257 127.955 247.309 128.863C247.293 129.309 247.185 129.747 246.993 130.15C246.8 130.553 246.527 130.912 246.189 131.204C245.852 131.496 245.458 131.716 245.032 131.849C244.606 131.983 244.157 132.027 243.714 131.979Z" fill="#E6E7E8"/>
<path d="M159.085 166.08L140.13 165.406C139.811 165.412 139.502 165.296 139.266 165.082C139.03 164.867 138.885 164.57 138.861 164.252V155.059C138.87 154.904 138.911 154.752 138.981 154.613C139.05 154.474 139.147 154.35 139.266 154.25C139.384 154.149 139.522 154.074 139.67 154.028C139.819 153.982 139.975 153.966 140.13 153.982L159.085 154.77C159.402 154.765 159.709 154.882 159.942 155.097C160.174 155.312 160.315 155.608 160.335 155.924V165.003C160.325 165.156 160.285 165.306 160.217 165.444C160.148 165.581 160.053 165.704 159.937 165.804C159.82 165.904 159.685 165.98 159.539 166.028C159.393 166.075 159.239 166.093 159.085 166.08Z" fill="#E6E7E8"/>
<path d="M212.089 190.602L141.264 188.486C140.659 188.498 140.073 188.277 139.626 187.869C139.179 187.461 138.905 186.897 138.861 186.294V179.235C138.88 178.941 138.958 178.654 139.09 178.39C139.222 178.126 139.405 177.892 139.629 177.7C139.853 177.508 140.113 177.363 140.394 177.273C140.674 177.184 140.97 177.151 141.264 177.177L212.089 179.524C212.671 179.518 213.233 179.736 213.659 180.134C214.085 180.531 214.342 181.077 214.377 181.659V188.602C214.365 188.886 214.295 189.165 214.172 189.421C214.049 189.677 213.876 189.906 213.662 190.093C213.448 190.28 213.198 190.422 212.928 190.509C212.657 190.597 212.372 190.628 212.089 190.602Z" fill="#584475"/>
<path d="M174.773 212.413L140.553 211.701C140.129 211.717 139.715 211.567 139.399 211.284C139.083 211 138.89 210.605 138.861 210.182V201.757C138.873 201.55 138.926 201.347 139.019 201.161C139.111 200.975 139.24 200.809 139.399 200.674C139.557 200.54 139.74 200.438 139.939 200.377C140.137 200.315 140.346 200.294 140.553 200.315L174.773 201.161C175.19 201.145 175.596 201.293 175.906 201.574C176.215 201.854 176.402 202.245 176.426 202.661V210.97C176.414 211.174 176.362 211.374 176.272 211.557C176.182 211.74 176.056 211.904 175.902 212.038C175.748 212.172 175.569 212.275 175.375 212.339C175.181 212.403 174.977 212.428 174.773 212.413Z" fill="#E6E7E8"/>
<path d="M213.877 264.227L141.302 264.092C140.693 264.129 140.095 263.923 139.637 263.52C139.179 263.116 138.9 262.547 138.861 261.938V254.841C138.88 254.54 138.959 254.246 139.092 253.976C139.226 253.706 139.411 253.465 139.638 253.266C139.865 253.068 140.129 252.916 140.414 252.82C140.7 252.724 141.002 252.685 141.302 252.706L213.877 253.129C214.46 253.103 215.03 253.309 215.462 253.702C215.894 254.095 216.154 254.642 216.184 255.226V262.131C216.154 262.714 215.894 263.262 215.462 263.655C215.03 264.048 214.46 264.253 213.877 264.227Z" fill="#E6E7E8"/>
<path d="M244.156 286.577L141.687 287.231C140.971 287.262 140.272 287.008 139.742 286.525C139.212 286.042 138.896 285.369 138.861 284.653V278.364C138.883 278.005 138.975 277.654 139.133 277.331C139.291 277.008 139.511 276.719 139.781 276.482C140.051 276.244 140.365 276.062 140.705 275.946C141.045 275.83 141.405 275.782 141.764 275.806L244.233 275.556C244.569 275.538 244.906 275.587 245.223 275.7C245.541 275.814 245.832 275.989 246.081 276.217C246.33 276.444 246.531 276.719 246.672 277.025C246.814 277.331 246.893 277.662 246.905 277.999V284.038C246.898 284.387 246.82 284.732 246.677 285.05C246.534 285.369 246.327 285.656 246.071 285.893C245.814 286.13 245.512 286.312 245.183 286.43C244.854 286.548 244.505 286.597 244.156 286.577Z" fill="#1DC9B7"/>
<path d="M166.795 310.022L140.341 310.406C140.159 310.42 139.977 310.397 139.804 310.339C139.631 310.281 139.471 310.19 139.333 310.07C139.196 309.95 139.083 309.804 139.002 309.641C138.921 309.478 138.873 309.3 138.861 309.118V300.347C138.885 299.977 139.054 299.63 139.331 299.382C139.607 299.134 139.97 299.004 140.341 299.02L166.795 298.732C166.976 298.719 167.157 298.742 167.329 298.8C167.501 298.858 167.659 298.95 167.795 299.069C167.931 299.189 168.042 299.335 168.121 299.499C168.2 299.662 168.246 299.839 168.256 300.02V308.695C168.231 309.062 168.065 309.405 167.793 309.653C167.52 309.9 167.162 310.033 166.795 310.022Z" fill="#E6E7E8"/>
<path d="M174.619 361.586L140.553 362.74C140.346 362.761 140.137 362.74 139.939 362.679C139.74 362.617 139.557 362.515 139.399 362.381C139.24 362.246 139.111 362.08 139.019 361.894C138.926 361.708 138.873 361.505 138.861 361.298V352.931C138.895 352.508 139.089 352.113 139.403 351.828C139.717 351.542 140.128 351.386 140.553 351.393L174.619 350.392C174.821 350.377 175.025 350.401 175.217 350.464C175.41 350.527 175.588 350.628 175.742 350.76C175.895 350.892 176.021 351.054 176.112 351.235C176.204 351.416 176.258 351.613 176.273 351.816V360.125C176.225 360.529 176.03 360.902 175.725 361.172C175.42 361.441 175.026 361.589 174.619 361.586Z" fill="#E6E7E8"/>
<path d="M232.16 382.108L141.591 385.955C141.259 385.995 140.923 385.967 140.603 385.872C140.283 385.776 139.986 385.617 139.73 385.402C139.474 385.188 139.265 384.923 139.116 384.624C138.966 384.326 138.879 384 138.861 383.666V376.973C138.91 376.284 139.219 375.64 139.727 375.172C140.234 374.704 140.901 374.447 141.591 374.454L232.16 371.03C232.475 371.001 232.794 371.037 233.096 371.134C233.397 371.232 233.676 371.39 233.915 371.598C234.154 371.807 234.348 372.062 234.486 372.348C234.624 372.633 234.702 372.944 234.717 373.261V379.627C234.692 380.291 234.412 380.919 233.936 381.381C233.459 381.843 232.823 382.104 232.16 382.108Z" fill="#E6E7E8"/>
<path d="M242.733 403.9L141.745 408.958C141.396 409.004 141.043 408.977 140.706 408.88C140.368 408.783 140.055 408.617 139.784 408.393C139.514 408.17 139.292 407.893 139.133 407.579C138.974 407.266 138.882 406.924 138.861 406.573V400.246C138.914 399.519 139.242 398.841 139.778 398.348C140.314 397.855 141.017 397.584 141.745 397.591L242.733 392.918C243.063 392.886 243.396 392.922 243.712 393.023C244.028 393.124 244.319 393.289 244.569 393.507C244.82 393.725 245.023 393.991 245.166 394.29C245.31 394.589 245.392 394.914 245.406 395.245V401.323C245.367 402.01 245.07 402.658 244.575 403.136C244.079 403.613 243.422 403.886 242.733 403.9Z" fill="#1DC9B7"/>
<path d="M665.857 178.581C666.801 183.831 667.277 189.154 667.28 194.487C667.28 197.776 668.28 205.335 664.877 206.835C660.32 208.759 654.111 209.162 649.208 209.643C644.097 210.143 638.963 210.361 633.828 210.297C628.388 210.297 606.279 209.586 604.683 208.508C606.24 199.834 607.317 190.91 609.163 182.255C611.008 173.6 614.93 164.676 622.409 159.906C625.754 157.771 630.099 156.617 633.694 158.252C638.546 156.047 644.026 155.648 649.147 157.125C654.268 158.602 658.694 161.86 661.628 166.311C663.793 170.1 665.227 174.262 665.857 178.581Z" fill="white"/>
<path d="M635.117 211.182H633.886C633.617 211.182 606.452 210.701 604.28 209.259C604.137 209.164 604.025 209.03 603.957 208.873C603.888 208.716 603.867 208.543 603.895 208.374C604.491 205.046 605.01 201.681 605.549 198.315C606.375 192.968 607.241 187.448 608.375 182.101C609.99 174.581 613.642 164.503 622.025 159.175C623.695 157.964 625.625 157.16 627.661 156.826C629.697 156.492 631.782 156.638 633.752 157.252C638.781 155.078 644.415 154.746 649.664 156.315C654.913 157.883 659.442 161.252 662.455 165.83C664.642 169.723 666.089 173.988 666.723 178.408C667.687 183.707 668.164 189.083 668.145 194.468C668.145 195.007 668.145 195.641 668.145 196.391C668.318 200.507 668.568 206.143 665.185 207.643C660.761 209.235 656.118 210.137 651.42 210.316L649.247 210.528C644.551 210.981 639.835 211.199 635.117 211.182ZM605.76 207.931C609.278 208.701 626.908 209.374 633.906 209.412C638.982 209.469 644.058 209.257 649.113 208.778L651.304 208.566C655.817 208.401 660.278 207.544 664.531 206.027C666.819 205.027 666.588 199.661 666.454 196.411C666.454 195.661 666.454 194.987 666.454 194.487C666.458 189.205 665.989 183.933 665.05 178.735C664.449 174.534 663.08 170.479 661.013 166.772C658.197 162.503 653.948 159.382 649.034 157.971C644.12 156.56 638.863 156.953 634.213 159.079C634.096 159.135 633.968 159.164 633.838 159.164C633.709 159.164 633.58 159.135 633.463 159.079C631.725 158.475 629.865 158.304 628.046 158.582C626.227 158.861 624.503 159.579 623.024 160.675C615.161 165.676 611.682 175.292 610.163 182.486C609.028 187.794 608.24 193.295 607.337 198.603C606.798 201.7 606.299 204.835 605.76 207.931Z" fill="#231F20"/>
<path d="M656.975 430.499L654.783 521.915C654.783 521.915 609.874 527.839 608.797 526.204C607.721 524.57 633.79 510.529 633.79 510.529L632.925 435.096" fill="white"/>
<path d="M611.528 527.358C608.394 527.358 608.144 526.974 607.99 526.743C607.898 526.602 607.837 526.444 607.811 526.278C607.784 526.113 607.793 525.943 607.836 525.781C608.413 523.454 623.524 514.991 632.829 509.952L631.964 435.096C631.964 434.841 632.065 434.596 632.245 434.416C632.426 434.236 632.67 434.134 632.925 434.134C633.051 434.129 633.177 434.15 633.295 434.195C633.412 434.24 633.519 434.309 633.61 434.397C633.7 434.486 633.771 434.592 633.818 434.708C633.866 434.825 633.889 434.951 633.886 435.077L634.751 510.51C634.753 510.686 634.708 510.859 634.62 511.011C634.532 511.163 634.405 511.289 634.252 511.375C626.033 515.615 618.078 520.348 610.432 525.55C616.065 525.685 638.904 523.031 653.823 521.069L655.995 430.461C656.005 430.212 656.111 429.978 656.29 429.806C656.469 429.633 656.708 429.537 656.956 429.538C657.083 429.537 657.209 429.563 657.326 429.613C657.443 429.663 657.548 429.735 657.636 429.827C657.724 429.919 657.793 430.027 657.838 430.146C657.883 430.265 657.903 430.392 657.898 430.518L655.707 521.935C655.704 522.162 655.618 522.382 655.466 522.551C655.314 522.721 655.106 522.83 654.88 522.858C627.523 526.474 616.238 527.358 611.528 527.358Z" fill="#231F20"/>
<path d="M624.466 512.491L632.791 519.858L656.437 516.338L656.591 525.724C656.591 525.724 604.357 533.148 601.935 528.917C599.512 524.685 624.466 512.491 624.466 512.491Z" fill="#231F20"/>
<path d="M624.099 423.133L622.888 509.452C622.888 509.452 578.229 517.011 577.075 515.415C575.922 513.818 601.51 498.835 601.51 498.835L595.743 419.863" fill="white"/>
<path d="M578.671 516.492C576.518 516.492 576.306 516.165 576.172 515.972C576.07 515.837 576 515.68 575.966 515.513C575.933 515.347 575.937 515.175 575.979 515.011C576.479 512.664 591.244 503.663 600.376 498.297L594.608 419.94C594.592 419.688 594.676 419.44 594.842 419.249C595.007 419.059 595.241 418.941 595.493 418.921C595.62 418.908 595.748 418.92 595.87 418.958C595.991 418.996 596.104 419.058 596.201 419.141C596.298 419.224 596.378 419.325 596.434 419.439C596.491 419.554 596.524 419.678 596.531 419.806L602.298 498.662C602.309 498.843 602.27 499.023 602.185 499.182C602.101 499.342 601.973 499.475 601.818 499.566C593.804 504.133 586.074 509.182 578.671 514.684C584.323 514.684 607.047 511.126 621.889 508.625L623.177 423.172C623.177 423.044 623.202 422.919 623.252 422.802C623.302 422.685 623.375 422.579 623.466 422.491C623.558 422.403 623.666 422.335 623.785 422.289C623.904 422.244 624.03 422.224 624.157 422.229C624.284 422.232 624.408 422.259 624.524 422.31C624.639 422.36 624.744 422.433 624.831 422.524C624.919 422.615 624.988 422.723 625.034 422.841C625.079 422.958 625.102 423.084 625.099 423.21L623.811 509.472C623.805 509.695 623.721 509.91 623.574 510.079C623.426 510.247 623.225 510.359 623.004 510.395C593.455 515.453 582.727 516.492 578.671 516.492Z" fill="#231F20"/>
<path d="M592.13 501.124L600.704 508.183L624.274 503.913L624.755 513.299C624.755 513.299 572.847 522.608 570.252 518.377C567.656 514.145 592.13 501.124 592.13 501.124Z" fill="#231F20"/>
<path d="M662.415 306.906C666.295 316.51 668.254 326.782 668.182 337.141C666.933 388.898 658.108 488.872 658.108 488.872L596.588 482.025C596.588 482.025 561.618 374.203 592.974 301.232L662.415 306.906Z" fill="#231F20"/>
<path d="M600.069 307.464L611.469 215.451L654.418 218.875L649.477 311.656L600.069 307.464Z" fill="white"/>
<path d="M649.478 312.542L600.051 308.368C599.934 308.356 599.821 308.321 599.719 308.265C599.616 308.209 599.525 308.133 599.452 308.042C599.379 307.951 599.324 307.846 599.292 307.734C599.259 307.621 599.249 307.503 599.262 307.387L610.605 215.413C610.634 215.189 610.748 214.984 610.923 214.841C611.098 214.698 611.322 214.627 611.547 214.644L654.496 218.067C654.724 218.087 654.935 218.194 655.086 218.366C655.236 218.538 655.314 218.762 655.303 218.991L650.363 311.772C650.358 311.891 650.329 312.007 650.276 312.113C650.223 312.22 650.147 312.313 650.055 312.388C649.889 312.511 649.683 312.566 649.478 312.542ZM601.05 306.675L648.652 310.695L653.496 219.683L612.239 216.394L601.05 306.675Z" fill="#231F20"/>
<path d="M516.056 258.419L556.64 254.284C557.151 254.228 557.644 254.061 558.084 253.795C558.524 253.529 558.901 253.17 559.188 252.744C559.475 252.317 559.666 251.833 559.747 251.325C559.829 250.817 559.798 250.298 559.658 249.803L545.739 201.335C545.496 200.488 544.944 199.764 544.193 199.305C543.442 198.845 542.547 198.684 541.683 198.853L500.83 206.893C500.344 206.989 499.883 207.186 499.479 207.473C499.074 207.759 498.734 208.128 498.482 208.554C498.23 208.981 498.071 209.456 498.015 209.949C497.959 210.441 498.007 210.94 498.157 211.413L512.346 255.976C512.589 256.748 513.091 257.413 513.767 257.858C514.443 258.303 515.251 258.501 516.056 258.419Z" fill="#584475"/>
<path d="M690.542 255.553L664.319 263.246L667.549 314.676L638.269 317.734L644.364 222.875L619.948 221.914C619.948 222.837 609.143 291.692 606.625 312.041L579.268 306.714L592.418 259.226L576.019 250.821C576.019 250.821 586.112 210.431 619.948 212.355C651.111 214.105 640.23 214.143 639.596 214.143C640.23 214.143 664.357 214.259 675.373 229.088C681.573 237.202 686.673 246.101 690.542 255.553Z" fill="#584475"/>
<path d="M623.332 208.047L620.544 223.241C620.544 223.241 620.371 232.05 630.157 231.319C633.046 231.078 635.845 230.195 638.349 228.735C640.853 227.274 643 225.272 644.633 222.876C644.633 222.876 650.804 185.621 651.208 182.909C649.535 183.351 644.787 184.216 643.287 183.255C641.788 182.293 642.461 177.081 642.576 175.388C640.757 177.307 639.338 179.569 638.404 182.043L632.06 181.043C631.658 178.652 631.75 176.204 632.329 173.85C630.577 175.619 629.26 177.772 628.484 180.139C626.696 179.812 620.275 177.504 618.872 178.754C616.853 180.678 613.008 195.064 616.103 201.007C619.198 206.95 623.332 208.047 623.332 208.047Z" fill="white"/>
<path d="M629.022 232.242C626.598 232.365 624.222 231.529 622.409 229.915C620.656 228.127 619.67 225.726 619.659 223.222C621.447 213.451 622.101 209.893 622.332 208.605C619.26 207.071 616.804 204.533 615.372 201.411C612.123 195.18 615.949 180.255 618.314 178.1C619.602 176.927 622.735 177.677 626.696 178.774L627.907 179.101C628.77 176.895 630.079 174.891 631.752 173.215C631.891 173.088 632.067 173.008 632.254 172.987C632.441 172.967 632.63 173.006 632.794 173.101C632.957 173.195 633.085 173.34 633.161 173.512C633.236 173.685 633.255 173.878 633.213 174.061C632.714 176.093 632.596 178.199 632.867 180.274L637.885 181.062C638.854 178.739 640.242 176.614 641.98 174.792C642.101 174.66 642.26 174.568 642.436 174.53C642.612 174.492 642.795 174.51 642.96 174.581C643.127 174.654 643.267 174.776 643.363 174.93C643.459 175.085 643.506 175.265 643.498 175.446V176.177C643.056 181.216 643.498 182.313 643.845 182.505C644.863 183.159 648.766 182.659 651.073 182.063C651.214 182.026 651.362 182.025 651.503 182.06C651.644 182.094 651.775 182.163 651.883 182.26C651.991 182.357 652.074 182.479 652.124 182.616C652.174 182.753 652.189 182.899 652.169 183.043C651.765 185.736 645.844 221.51 645.594 223.03C645.573 223.138 645.534 223.242 645.479 223.337C643.781 225.857 641.538 227.961 638.915 229.493C636.292 231.025 633.357 231.945 630.329 232.185L629.022 232.242ZM621.332 223.395C621.4 225.357 622.187 227.226 623.543 228.646C624.431 229.386 625.466 229.928 626.58 230.237C627.694 230.545 628.861 230.613 630.003 230.434C632.722 230.193 635.357 229.363 637.724 228.001C640.091 226.64 642.134 224.779 643.71 222.549C644.133 219.952 648.958 190.852 650.035 184.082C648.112 184.486 644.267 185.044 642.71 184.082C641.153 183.12 641.268 180.87 641.403 178.177C640.465 179.5 639.697 180.934 639.115 182.447C639.047 182.635 638.915 182.792 638.744 182.894C638.572 182.996 638.37 183.035 638.173 183.005L631.829 182.005C631.646 181.977 631.476 181.894 631.342 181.767C631.208 181.64 631.116 181.474 631.079 181.293C630.855 179.888 630.784 178.463 630.868 177.043C630.189 178.128 629.64 179.29 629.233 180.505C629.171 180.707 629.037 180.879 628.856 180.989C628.676 181.099 628.461 181.138 628.253 181.101C627.792 181.101 627.042 180.812 626.158 180.562C624.658 180.139 620.121 178.889 619.429 179.485C617.833 180.947 613.93 195.103 616.853 200.642C619.775 206.181 623.447 207.239 623.485 207.239C623.697 207.302 623.879 207.44 623.996 207.628C624.113 207.816 624.157 208.04 624.12 208.258C624.12 208.47 621.37 223.203 621.332 223.433V223.395Z" fill="#231F20"/>
<path d="M647.093 193.237C647.562 192.161 648.364 191.265 649.381 190.679C650.356 190.177 651.409 189.845 652.495 189.698C653.077 189.561 653.683 189.561 654.264 189.698C654.668 189.826 655.041 190.036 655.36 190.314C656.175 190.893 656.755 191.746 656.994 192.718C657.095 193.51 657.003 194.315 656.725 195.064C656.479 195.899 656.13 196.7 655.687 197.449C655.215 198.18 654.604 198.811 653.887 199.304C653.171 199.797 652.364 200.143 651.513 200.322C650.661 200.501 649.783 200.509 648.929 200.346C648.075 200.183 647.261 199.852 646.536 199.372" fill="white"/>
<path d="M650.149 201.238C648.717 201.24 647.314 200.826 646.112 200.046C645.972 199.923 645.88 199.753 645.856 199.568C645.831 199.383 645.875 199.195 645.978 199.04C646.082 198.884 646.238 198.772 646.419 198.724C646.599 198.675 646.791 198.694 646.958 198.776C648.263 199.612 649.844 199.902 651.361 199.584C652.112 199.424 652.824 199.115 653.455 198.676C654.085 198.237 654.622 197.676 655.033 197.026C655.451 196.336 655.775 195.592 655.994 194.814C656.218 194.2 656.303 193.543 656.244 192.891C656.028 192.11 655.545 191.429 654.879 190.968C654.634 190.76 654.354 190.597 654.052 190.487C653.583 190.383 653.098 190.383 652.629 190.487C651.629 190.607 650.659 190.907 649.765 191.372C648.896 191.865 648.218 192.638 647.842 193.564C647.762 193.749 647.612 193.895 647.425 193.971C647.238 194.046 647.029 194.045 646.843 193.968C646.749 193.93 646.665 193.874 646.594 193.803C646.522 193.732 646.466 193.647 646.429 193.554C646.391 193.46 646.373 193.36 646.374 193.26C646.376 193.159 646.398 193.06 646.439 192.968C646.965 191.733 647.875 190.701 649.034 190.025C650.089 189.488 651.226 189.13 652.399 188.967C653.094 188.804 653.818 188.804 654.513 188.967C655.015 189.122 655.479 189.377 655.878 189.718C656.844 190.401 657.527 191.413 657.801 192.564C657.933 193.484 657.834 194.423 657.513 195.295C657.252 196.202 656.871 197.069 656.378 197.872C655.857 198.69 655.18 199.397 654.385 199.951C653.589 200.506 652.692 200.898 651.745 201.104C651.22 201.21 650.685 201.255 650.149 201.238Z" fill="#231F20"/>
<path d="M622.485 214.086C622.485 214.086 628.387 217.029 633.174 213.72C634.516 212.9 635.663 211.797 636.536 210.488C637.409 209.18 637.988 207.697 638.231 206.143C638.231 206.143 629.272 210.605 623.312 208.354L622.485 214.086Z" fill="#231F20"/>
<path d="M627.887 216.163C625.893 216.142 623.927 215.696 622.119 214.855C621.959 214.776 621.827 214.647 621.744 214.488C621.662 214.329 621.631 214.148 621.658 213.971L622.485 208.201C622.516 208.097 622.567 208.001 622.637 207.918C622.706 207.836 622.792 207.768 622.888 207.72C623.003 207.668 623.128 207.641 623.254 207.641C623.38 207.641 623.504 207.668 623.619 207.72C629.156 209.816 637.749 205.585 637.846 205.527C637.973 205.451 638.12 205.411 638.268 205.411C638.417 205.411 638.564 205.451 638.691 205.527C638.814 205.609 638.914 205.721 638.981 205.852C639.048 205.984 639.081 206.13 639.076 206.277C638.83 207.963 638.216 209.574 637.28 210.996C636.343 212.418 635.105 213.618 633.654 214.509C631.951 215.648 629.935 216.226 627.887 216.163ZM623.427 213.49C624.905 214.136 626.514 214.424 628.124 214.33C629.735 214.237 631.3 213.764 632.693 212.951C634.686 211.662 636.204 209.758 637.019 207.527C634.308 208.643 628.617 210.586 624.003 209.451L623.427 213.49Z" fill="#231F20"/>
<path d="M625.484 183.793C625.484 183.793 619.121 190.121 620.024 191.621C620.928 193.122 624.35 192.948 624.35 192.948" fill="white"/>
<path d="M623.966 193.814C622.871 193.814 620.237 193.641 619.295 192.064C618.353 190.487 621.756 186.294 624.87 183.197C624.944 183.098 625.039 183.016 625.148 182.957C625.257 182.897 625.377 182.862 625.501 182.853C625.624 182.844 625.749 182.862 625.865 182.906C625.981 182.949 626.086 183.017 626.174 183.105C626.262 183.192 626.329 183.298 626.373 183.414C626.416 183.53 626.434 183.654 626.425 183.778C626.416 183.902 626.381 184.022 626.322 184.131C626.262 184.24 626.18 184.335 626.081 184.409C623.178 187.275 620.717 190.487 620.794 191.275C621.198 191.91 623.121 192.16 624.313 192.102C624.425 192.095 624.538 192.109 624.645 192.146C624.752 192.183 624.85 192.24 624.935 192.316C625.019 192.391 625.087 192.482 625.135 192.584C625.184 192.686 625.211 192.797 625.216 192.91C625.221 193.021 625.205 193.132 625.167 193.237C625.129 193.342 625.071 193.438 624.996 193.52C624.921 193.602 624.83 193.669 624.73 193.716C624.629 193.763 624.52 193.79 624.409 193.795L623.966 193.814Z" fill="#231F20"/>
<path d="M634.639 186.269C635.022 185.393 634.827 184.462 634.204 184.19C633.581 183.918 632.766 184.408 632.384 185.284C632.002 186.16 632.196 187.091 632.819 187.363C633.442 187.635 634.257 187.145 634.639 186.269Z" fill="#231F20"/>
<path d="M621.167 183.874C621.55 182.998 621.355 182.067 620.732 181.795C620.11 181.523 619.295 182.013 618.912 182.889C618.53 183.765 618.725 184.696 619.347 184.968C619.97 185.24 620.785 184.75 621.167 183.874Z" fill="#231F20"/>
<path d="M617.717 195.43C617.717 195.43 620.812 202.815 629.771 198.103L617.717 195.43Z" fill="white"/>
<path d="M624.273 200.527C623.344 200.531 622.42 200.375 621.543 200.065C619.504 199.283 617.849 197.738 616.929 195.757C616.843 195.548 616.843 195.313 616.929 195.103C617.016 194.894 617.182 194.728 617.391 194.641C617.6 194.554 617.835 194.554 618.044 194.641C618.253 194.727 618.419 194.894 618.506 195.103C619.245 196.646 620.544 197.85 622.139 198.469C623.359 198.795 624.633 198.864 625.88 198.672C627.128 198.48 628.322 198.031 629.387 197.353C629.586 197.252 629.817 197.234 630.03 197.302C630.242 197.37 630.419 197.52 630.521 197.718C630.625 197.918 630.647 198.15 630.582 198.366C630.517 198.581 630.372 198.763 630.175 198.872C628.368 199.887 626.344 200.454 624.273 200.527Z" fill="#231F20"/>
<path d="M594.744 259.65C594.744 259.65 574.981 314.792 561.293 308.329C556.867 305.893 552.951 302.628 549.758 298.713C545.811 294.271 542.145 289.589 538.78 284.692C532.013 275.075 522.324 260.015 521.958 247.841C521.843 243.878 525.265 239.782 529.648 241.436C533.493 242.917 535.416 249.783 537.338 252.976C538.184 254.438 538.261 255.284 539.914 255.822C541.908 255.92 543.905 255.712 545.836 255.207C545.001 256.589 544.512 258.153 544.413 259.765C544.413 262.054 559.524 280.499 561.812 280.114C564.099 279.729 576.057 250.822 576.057 250.822" fill="white"/>
<path d="M563.618 309.657C562.686 309.652 561.767 309.442 560.926 309.041C556.405 306.567 552.403 303.243 549.141 299.251C545.168 294.786 541.476 290.078 538.087 285.153C530.974 275.017 521.477 260.15 521.111 247.802C521.076 246.532 521.345 245.272 521.897 244.127C522.449 242.982 523.267 241.987 524.283 241.224C525.083 240.64 526.019 240.27 527.002 240.152C527.985 240.035 528.982 240.172 529.897 240.551C533.088 241.763 534.973 246.033 536.491 249.456C536.932 250.507 537.426 251.534 537.972 252.534C538.145 252.841 538.279 253.13 538.414 253.399C538.894 254.322 539.067 254.669 540.048 254.976C541.763 254.987 543.476 254.832 545.162 254.515C545.325 254.396 545.525 254.336 545.727 254.347C545.929 254.357 546.121 254.436 546.272 254.571C546.422 254.706 546.522 254.889 546.555 255.088C546.587 255.288 546.55 255.493 546.45 255.669C545.701 256.912 545.26 258.317 545.162 259.765C545.489 262.189 558.985 278.191 561.503 279.191C563.233 277.633 569.693 263.574 575.114 250.495C575.145 250.372 575.203 250.256 575.282 250.157C575.362 250.058 575.462 249.977 575.576 249.92C575.689 249.863 575.814 249.832 575.941 249.827C576.068 249.823 576.195 249.846 576.312 249.895C576.429 249.944 576.535 250.017 576.621 250.111C576.707 250.204 576.772 250.315 576.812 250.436C576.852 250.557 576.865 250.685 576.85 250.811C576.836 250.937 576.795 251.059 576.729 251.168C571.192 264.631 564.098 280.595 561.83 280.98C561.157 281.095 560.349 280.691 559.061 279.595C554.64 275.748 543.393 262.285 543.393 259.765C543.425 258.635 543.667 257.52 544.104 256.476C542.581 256.676 541.043 256.734 539.51 256.65C538.899 256.489 538.338 256.18 537.875 255.75C537.413 255.321 537.063 254.784 536.857 254.188C536.73 253.924 536.589 253.667 536.434 253.418C535.934 252.514 535.415 251.38 534.896 250.168C533.511 247.033 531.781 243.148 529.282 242.186C528.634 241.919 527.929 241.822 527.233 241.902C526.536 241.983 525.872 242.24 525.302 242.648C524.524 243.249 523.898 244.025 523.477 244.915C523.056 245.804 522.851 246.78 522.88 247.764C523.226 259.592 532.493 274.19 539.529 284.134C542.878 289.003 546.525 293.66 550.449 298.078C553.565 301.888 557.375 305.073 561.676 307.464C562.332 307.773 563.047 307.933 563.772 307.933C564.496 307.933 565.212 307.773 565.867 307.464C578.402 302.271 593.763 259.765 593.916 259.381C593.999 259.161 594.163 258.983 594.375 258.882C594.586 258.782 594.829 258.767 595.051 258.842C595.269 258.924 595.447 259.09 595.544 259.302C595.641 259.515 595.651 259.758 595.57 259.977C594.935 261.746 579.786 303.637 566.54 309.137C565.608 309.495 564.616 309.672 563.618 309.657Z" fill="#231F20"/>
<path d="M687.293 249.879C687.293 249.879 708.787 296.039 704.23 303.29C697.925 313.272 690.1 322.524 682.948 331.871C678.834 337.218 673.49 342.584 670.067 348.354C667.222 353.124 671.24 367.587 667.837 370.319C666.53 371.357 664.857 369.568 664.204 368.03C661.661 362.106 659.729 355.939 658.436 349.623C657.664 347.133 657.794 344.45 658.802 342.046C666.261 328.582 674.316 314.811 681.737 301.002L664.627 261.843" fill="white"/>
<path d="M666.991 371.511C666.8 371.54 666.605 371.54 666.414 371.511C665.726 371.24 665.102 370.828 664.582 370.301C664.062 369.774 663.658 369.145 663.396 368.453C660.857 362.468 658.925 356.244 657.628 349.873C656.808 347.18 656.972 344.283 658.09 341.699C661.127 336.179 664.261 330.64 667.433 325.062C671.874 317.215 676.488 309.099 680.891 301.04L663.953 262.265C663.863 262.051 663.861 261.81 663.947 261.594C664.034 261.378 664.202 261.204 664.415 261.111C664.521 261.064 664.635 261.038 664.751 261.036C664.867 261.034 664.982 261.055 665.089 261.098C665.197 261.141 665.295 261.205 665.377 261.287C665.459 261.368 665.524 261.466 665.568 261.573L682.679 300.732C682.735 300.852 682.764 300.984 682.764 301.117C682.764 301.25 682.735 301.381 682.679 301.501C678.276 309.695 673.604 317.946 669.067 325.947C665.914 331.505 662.781 337.045 659.743 342.545C658.836 344.769 658.74 347.24 659.474 349.527C660.749 355.777 662.642 361.885 665.126 367.76C665.46 368.648 666.111 369.381 666.953 369.818C667.029 369.838 667.108 369.84 667.185 369.823C667.262 369.806 667.334 369.772 667.395 369.722C668.817 368.587 668.587 363.952 668.375 359.74C668.144 355.201 667.914 350.508 669.413 347.988C671.876 344.135 674.647 340.488 677.699 337.083C679.353 335.16 680.91 333.236 682.352 331.409C684.274 328.947 686.197 326.505 688.119 324.043C693.637 317.256 698.808 310.195 703.615 302.886C706.767 297.866 695.175 268.689 686.62 250.302C686.571 250.199 686.544 250.087 686.539 249.973C686.534 249.858 686.552 249.744 686.591 249.637C686.63 249.53 686.69 249.431 686.768 249.347C686.845 249.264 686.939 249.196 687.043 249.148C687.254 249.05 687.497 249.039 687.716 249.118C687.936 249.197 688.115 249.36 688.215 249.571C690.445 254.341 709.786 296.405 705.095 303.809C700.219 311.151 694.97 318.238 689.369 325.043C687.446 327.505 685.524 329.947 683.601 332.409C682.14 334.333 680.487 336.256 678.891 338.179C675.898 341.508 673.185 345.079 670.778 348.854C669.548 350.912 669.779 355.547 669.971 359.625C670.24 364.856 670.451 369.376 668.337 371.049C667.951 371.346 667.478 371.508 666.991 371.511Z" fill="#231F20"/>
<path d="M662.416 259.304C662.301 259.299 662.188 259.271 662.084 259.222C661.979 259.172 661.886 259.103 661.809 259.016C661.732 258.93 661.672 258.83 661.635 258.721C661.597 258.611 661.582 258.496 661.59 258.381L662.724 236.531C662.729 236.415 662.757 236.301 662.806 236.196C662.855 236.09 662.924 235.995 663.01 235.917C663.096 235.838 663.196 235.777 663.305 235.738C663.415 235.698 663.531 235.68 663.647 235.685C663.88 235.7 664.098 235.804 664.256 235.977C664.413 236.149 664.498 236.375 664.493 236.608L663.339 258.477C663.334 258.592 663.307 258.705 663.257 258.81C663.208 258.914 663.138 259.008 663.052 259.085C662.966 259.162 662.866 259.221 662.756 259.259C662.647 259.296 662.532 259.312 662.416 259.304Z" fill="#231F20"/>
<path d="M598.55 249.418C598.435 249.436 598.319 249.436 598.204 249.418C597.991 249.325 597.823 249.151 597.737 248.935C597.65 248.719 597.652 248.478 597.743 248.264L603.818 234.185C603.911 233.972 604.084 233.804 604.3 233.717C604.516 233.631 604.757 233.633 604.971 233.723C605.078 233.767 605.176 233.832 605.257 233.915C605.339 233.997 605.403 234.095 605.446 234.203C605.489 234.31 605.51 234.425 605.508 234.541C605.505 234.657 605.48 234.771 605.433 234.877L599.357 248.956C599.277 249.099 599.16 249.217 599.018 249.299C598.875 249.38 598.714 249.421 598.55 249.418Z" fill="#231F20"/>
<path d="M657.091 301.963C656.913 301.959 656.74 301.906 656.591 301.809L645.96 294.5C645.863 294.438 645.779 294.357 645.714 294.262C645.649 294.167 645.603 294.06 645.58 293.947C645.557 293.834 645.556 293.718 645.579 293.605C645.601 293.492 645.645 293.384 645.71 293.289C645.775 293.193 645.859 293.111 645.957 293.047C646.054 292.983 646.163 292.94 646.277 292.918C646.391 292.897 646.509 292.898 646.623 292.922C646.736 292.946 646.844 292.992 646.94 293.058L657.572 300.29C657.669 300.352 657.752 300.433 657.817 300.528C657.882 300.623 657.928 300.73 657.951 300.843C657.975 300.956 657.975 301.072 657.953 301.185C657.931 301.298 657.886 301.406 657.822 301.501C657.748 301.633 657.643 301.745 657.515 301.825C657.387 301.906 657.242 301.953 657.091 301.963Z" fill="#231F20"/>
<path d="M585.632 298.116C585.457 298.116 585.285 298.066 585.138 297.97C584.992 297.874 584.876 297.738 584.805 297.578C584.721 297.361 584.724 297.119 584.814 296.904C584.903 296.689 585.072 296.517 585.286 296.424L602.011 289.577C602.229 289.493 602.47 289.496 602.685 289.586C602.9 289.675 603.072 289.844 603.165 290.058C603.254 290.275 603.253 290.518 603.163 290.734C603.073 290.951 602.901 291.122 602.684 291.212L585.959 298.059L585.632 298.116Z" fill="#231F20"/>
<path d="M652.995 478.41C652.87 478.407 652.747 478.38 652.634 478.329C652.52 478.278 652.418 478.204 652.334 478.112C652.249 478.021 652.184 477.913 652.143 477.795C652.101 477.678 652.083 477.553 652.091 477.429L653.226 447.194C653.226 446.939 653.327 446.694 653.507 446.514C653.687 446.334 653.932 446.232 654.187 446.232C654.442 446.232 654.686 446.334 654.866 446.514C655.047 446.694 655.148 446.939 655.148 447.194L654.014 477.429C654.017 477.562 653.992 477.694 653.941 477.817C653.891 477.94 653.815 478.051 653.719 478.143C653.623 478.235 653.51 478.306 653.385 478.352C653.26 478.398 653.127 478.418 652.995 478.41Z" fill="white"/>
</svg>
