<svg width="782" height="586" viewBox="0 0 782 586" fill="none" xmlns="http://www.w3.org/2000/svg">
<path d="M359.426 413.521C322.581 422.161 285.1 427.825 247.346 430.456C237.766 431.042 228.031 431.394 218.334 431.394C208.637 431.394 198.901 431.042 189.341 430.456C151.58 427.824 114.093 422.16 77.2414 413.521C77.2414 413.521 75.8143 366.27 105.902 334.02C135.989 301.771 187.523 298.958 218.334 298.958C249.145 298.958 300.698 301.829 330.785 334.02C360.873 366.211 359.426 413.521 359.426 413.521Z" fill="#1DC9B7"/>
<path d="M247.346 314.721V430.456C237.767 431.042 228.031 431.394 218.334 431.394C208.637 431.394 198.901 431.042 189.341 430.456V314.721H247.346Z" fill="#231F20"/>
<path d="M219.078 273.974C248.219 273.974 271.843 246.925 271.843 213.558C271.843 180.191 248.219 153.141 219.078 153.141C189.936 153.141 166.312 180.191 166.312 213.558C166.312 246.925 189.936 273.974 219.078 273.974Z" fill="white"/>
<path d="M219.078 274.99C189.44 274.99 165.315 247.429 165.315 213.558C165.315 177.577 169.225 152.125 219.078 152.125C268.93 152.125 272.86 177.519 272.86 213.558C272.86 247.429 248.735 274.99 219.078 274.99ZM219.078 154.137C170.926 154.137 167.329 177.577 167.329 213.558C167.329 246.315 190.554 272.978 219.078 272.978C247.601 272.978 270.846 246.315 270.846 213.558C270.846 177.753 267.23 154.137 219.078 154.137Z" fill="#231F20"/>
<path d="M252.39 234.4C254.971 218.304 281.715 214.339 280.386 233.306C280.185 239.899 277.658 246.21 273.25 251.12C268.675 255.769 261.285 257.977 255.323 255.301" fill="white"/>
<path d="M260.914 257.391C258.847 257.402 256.802 256.976 254.912 256.141C254.791 256.087 254.682 256.01 254.592 255.914C254.501 255.818 254.43 255.705 254.383 255.582C254.335 255.458 254.313 255.327 254.317 255.195C254.32 255.063 254.35 254.933 254.404 254.812C254.458 254.692 254.535 254.583 254.631 254.492C254.727 254.401 254.84 254.33 254.963 254.283C255.087 254.236 255.218 254.214 255.35 254.217C255.482 254.221 255.612 254.251 255.733 254.304C258.606 255.4 261.741 255.613 264.737 254.917C267.732 254.221 270.451 252.647 272.546 250.398C276.765 245.651 279.18 239.574 279.369 233.228C280.034 223.813 273.621 222.055 270.845 221.723C263.709 220.922 254.775 225.981 253.387 234.556C253.395 234.708 253.369 234.861 253.311 235.001C253.252 235.142 253.163 235.268 253.049 235.369C252.935 235.471 252.8 235.545 252.653 235.587C252.506 235.63 252.352 235.638 252.202 235.613C252.051 235.587 251.908 235.528 251.784 235.44C251.66 235.352 251.557 235.237 251.483 235.103C251.409 234.97 251.366 234.822 251.357 234.67C251.348 234.517 251.374 234.365 251.432 234.224C252.996 224.458 263.045 218.812 271.099 219.73C276.515 220.336 282.067 224.262 281.422 233.404C281.05 238.756 279.467 246.296 274.012 251.843C272.301 253.583 270.263 254.968 268.016 255.92C265.768 256.872 263.355 257.372 260.914 257.391Z" fill="#231F20"/>
<path d="M185.726 234.4C183.145 218.304 156.401 214.339 157.73 233.306C157.933 239.895 160.453 246.202 164.846 251.12C169.441 255.769 176.811 257.977 182.793 255.301" fill="white"/>
<path d="M177.26 257.391C172.337 257.311 167.646 255.28 164.221 251.746C159.655 246.661 157.025 240.133 156.792 233.306C156.166 224.184 161.718 220.258 167.114 219.633C175.188 218.715 185.237 224.438 186.801 234.127C186.841 234.393 186.775 234.664 186.618 234.883C186.461 235.102 186.225 235.251 185.96 235.299C185.696 235.338 185.427 235.272 185.211 235.115C184.995 234.958 184.85 234.722 184.807 234.459C183.419 225.884 174.504 220.785 167.349 221.625C164.572 221.957 158.16 223.715 158.805 233.13C159.157 238.151 160.623 245.202 165.648 250.3C170.281 255.008 177.182 256.649 182.441 254.207C182.563 254.151 182.695 254.12 182.829 254.116C182.962 254.111 183.096 254.133 183.221 254.181C183.347 254.228 183.461 254.299 183.559 254.391C183.657 254.483 183.735 254.593 183.79 254.715C183.896 254.959 183.902 255.234 183.807 255.483C183.712 255.731 183.524 255.932 183.282 256.043C181.393 256.915 179.341 257.375 177.26 257.391Z" fill="#231F20"/>
<path d="M189.341 314.721C189.341 314.721 196.575 330.465 217.669 330.465C223.556 330.626 229.384 329.261 234.585 326.502C239.786 323.743 244.183 319.684 247.346 314.721L244.511 252.898H192.157L189.341 314.721Z" fill="white"/>
<path d="M217.67 331.481C196.165 331.481 188.501 315.307 188.345 315.151C188.308 314.997 188.308 314.836 188.345 314.682L191.16 252.839C191.175 252.58 191.289 252.337 191.478 252.159C191.667 251.981 191.917 251.882 192.177 251.882H244.532C244.791 251.882 245.041 251.981 245.231 252.159C245.42 252.337 245.533 252.58 245.548 252.839L248.285 314.682C248.296 314.865 248.255 315.048 248.168 315.209C244.899 320.299 240.38 324.466 235.041 327.315C229.702 330.163 223.721 331.598 217.67 331.481ZM190.3 314.506C191.258 316.46 198.53 329.469 217.67 329.469C223.326 329.598 228.922 328.292 233.934 325.672C238.947 323.051 243.212 319.203 246.33 314.487L243.574 253.933H193.115L190.3 314.506Z" fill="#231F20"/>
<path d="M192.156 279.327C196.198 285.187 201.632 289.952 207.972 293.195C218.353 298.919 233.857 305.365 246.447 303.45L244.374 277.373C235.16 278.525 225.843 278.591 216.613 277.569C208.481 276.846 200.094 276.064 192.645 272.92C191.374 272.295 190.553 276.826 192.156 279.327Z" fill="#231F20"/>
<path d="M241.658 304.72C228.97 304.72 215.148 298.215 207.504 293.977C200.999 290.694 195.436 285.815 191.336 279.796C190.668 278.677 190.306 277.402 190.285 276.1C190.264 274.797 190.586 273.512 191.219 272.373C191.431 272.104 191.726 271.913 192.058 271.828C192.39 271.744 192.741 271.77 193.056 271.904C200.485 275.029 209.107 275.811 216.692 276.455C225.849 277.489 235.096 277.43 244.238 276.28C244.37 276.264 244.504 276.275 244.631 276.312C244.759 276.349 244.878 276.411 244.981 276.494C245.088 276.575 245.177 276.678 245.241 276.796C245.305 276.914 245.343 277.044 245.353 277.178L247.425 303.314C247.442 303.56 247.365 303.805 247.209 303.997C247.053 304.189 246.83 304.315 246.584 304.349C244.954 304.601 243.307 304.725 241.658 304.72ZM192.568 273.896C192.297 274.705 192.194 275.56 192.265 276.41C192.335 277.259 192.578 278.085 192.978 278.838C196.92 284.573 202.246 289.221 208.462 292.355C216.692 296.907 232.293 304.193 245.411 302.63L243.456 278.428C234.491 279.433 225.442 279.433 216.477 278.428C208.892 277.803 200.251 277.041 192.568 273.896Z" fill="#231F20"/>
<path d="M217.005 283.487H221.306C231.068 283.446 240.416 279.542 247.305 272.631C254.193 265.719 258.06 256.362 258.06 246.609V188.204C258.06 188.204 245.235 191.896 218.96 191.896C192.685 191.896 179.86 188.204 179.86 188.204V246.609C179.862 251.471 180.827 256.284 182.697 260.773C184.568 265.261 187.308 269.336 190.759 272.763C194.211 276.19 198.307 278.902 202.811 280.743C207.315 282.583 212.139 283.516 217.005 283.487Z" fill="white"/>
<path d="M258.06 188.204V246.608C258.06 256.389 254.171 265.77 247.249 272.686C240.327 279.602 230.939 283.487 221.15 283.487H217.005C207.217 283.482 197.832 279.595 190.911 272.68C183.99 265.765 180.1 256.388 180.095 246.608V188.204C180.095 188.204 192.939 191.896 219.195 191.896C245.45 191.896 258.295 188.204 258.295 188.204H258.06ZM258.295 186.25C258.113 186.222 257.929 186.222 257.747 186.25C257.63 186.25 244.805 189.864 219.234 189.864C193.662 189.864 180.857 186.289 180.74 186.25C180.552 186.223 180.361 186.223 180.173 186.25C179.654 186.25 179.157 186.456 178.791 186.823C178.424 187.189 178.218 187.686 178.218 188.204V246.608C178.228 256.896 182.314 266.762 189.581 274.049C196.849 281.336 206.709 285.453 217.005 285.499H221.306C231.628 285.489 241.525 281.389 248.825 274.098C256.126 266.808 260.234 256.922 260.25 246.608V188.204C260.25 187.686 260.044 187.189 259.677 186.823C259.31 186.456 258.813 186.25 258.295 186.25Z" fill="#231F20"/>
<path d="M138.082 421.783C137.831 421.784 137.588 421.69 137.403 421.52C137.219 421.349 137.105 421.116 137.085 420.865L129.05 342.732C129.023 342.465 129.102 342.199 129.27 341.99C129.439 341.782 129.683 341.648 129.949 341.619C130.214 341.601 130.476 341.684 130.682 341.85C130.889 342.017 131.025 342.255 131.064 342.517L139.079 420.65C139.093 420.781 139.08 420.914 139.042 421.04C139.004 421.166 138.941 421.283 138.858 421.385C138.774 421.486 138.671 421.571 138.555 421.632C138.439 421.694 138.311 421.732 138.18 421.744L138.082 421.783Z" fill="#231F20"/>
<path d="M298.606 421.783H298.489C298.358 421.771 298.23 421.733 298.114 421.671C297.998 421.61 297.895 421.525 297.811 421.424C297.727 421.322 297.665 421.205 297.627 421.079C297.589 420.953 297.576 420.82 297.59 420.689L305.625 342.556C305.705 342.346 305.853 342.169 306.045 342.052C306.236 341.935 306.462 341.885 306.685 341.91C306.909 341.934 307.117 342.032 307.279 342.188C307.441 342.344 307.547 342.549 307.58 342.771L299.545 420.904C299.514 421.137 299.403 421.351 299.232 421.511C299.061 421.671 298.84 421.767 298.606 421.783Z" fill="#231F20"/>
<path d="M617.605 213.655C617.605 247.077 700.477 377.989 564.82 377.989C429.162 377.989 512.035 247.116 512.035 213.655C512.035 180.195 514.263 153.102 564.82 153.102C615.376 153.102 617.605 180.214 617.605 213.655Z" fill="white"/>
<path d="M564.76 378.947C530.782 378.947 507.518 370.587 495.631 354.081C475.593 326.246 490.803 280.85 501.907 247.702C506.736 233.326 510.9 220.903 510.9 213.617C510.9 177.578 514.81 152.087 564.76 152.087C614.71 152.087 618.62 177.578 618.62 213.617C618.62 220.903 622.765 233.326 627.594 247.702C638.698 280.909 653.928 326.246 633.869 354.081C621.983 370.626 598.718 378.947 564.76 378.947ZM564.76 154.099C516.511 154.099 512.913 177.656 512.913 213.617C512.913 221.235 508.71 233.795 503.823 248.347C492.855 281.065 477.821 325.894 497.274 352.889C508.769 368.848 531.466 376.935 564.76 376.935C598.054 376.935 620.751 368.848 632.227 352.889C651.679 325.894 636.645 281.065 625.678 248.347C620.81 233.795 616.587 221.235 616.587 213.617C616.587 177.753 612.99 154.138 564.76 154.138V154.099Z" fill="#231F20"/>
<path d="M704.758 413.521C667.913 422.161 630.432 427.825 592.678 430.456C583.098 431.042 573.362 431.394 563.666 431.394C553.969 431.394 544.233 431.042 534.673 430.456C496.912 427.824 459.425 422.16 422.573 413.521C422.573 413.521 421.146 366.27 451.234 334.079C481.321 301.888 532.855 299.016 563.666 299.016C594.476 299.016 646.049 301.888 676.117 334.079C706.185 366.27 704.758 413.521 704.758 413.521Z" fill="#1DC9B7"/>
<path d="M592.678 314.721V430.456C583.099 431.042 573.363 431.394 563.666 431.394C553.969 431.394 544.233 431.042 534.673 430.456V314.721H592.678Z" fill="#231F20"/>
<path d="M483.412 421.783C483.161 421.784 482.918 421.69 482.733 421.52C482.548 421.349 482.435 421.116 482.415 420.865L474.38 342.732C474.353 342.465 474.432 342.199 474.6 341.99C474.769 341.782 475.013 341.648 475.279 341.619C475.544 341.601 475.806 341.684 476.012 341.85C476.219 342.017 476.355 342.255 476.394 342.517L484.409 420.65C484.425 420.782 484.415 420.915 484.378 421.042C484.341 421.169 484.278 421.288 484.194 421.39C484.11 421.492 484.006 421.577 483.889 421.637C483.771 421.698 483.642 421.735 483.51 421.744L483.412 421.783Z" fill="#231F20"/>
<path d="M643.938 421.783H643.821C643.69 421.771 643.562 421.733 643.446 421.671C643.329 421.61 643.226 421.526 643.143 421.424C643.059 421.322 642.997 421.205 642.959 421.079C642.921 420.953 642.908 420.82 642.921 420.69L650.956 342.556C650.991 342.292 651.126 342.051 651.333 341.884C651.541 341.716 651.805 341.635 652.071 341.658C652.337 341.687 652.582 341.821 652.75 342.029C652.918 342.238 652.998 342.504 652.97 342.771L644.935 420.904C644.902 421.146 644.783 421.368 644.6 421.529C644.417 421.691 644.182 421.781 643.938 421.783Z" fill="#231F20"/>
<path d="M598.112 234.4C600.693 218.285 627.437 214.32 626.147 233.326C625.949 239.926 623.422 246.243 619.011 251.16C614.436 255.828 607.027 258.035 601.045 255.359" fill="white"/>
<path d="M606.636 257.547C604.571 257.564 602.526 257.144 600.634 256.316C600.498 256.272 600.373 256.199 600.268 256.102C600.162 256.006 600.078 255.889 600.021 255.758C599.964 255.627 599.935 255.486 599.936 255.343C599.937 255.2 599.969 255.059 600.028 254.929C600.087 254.799 600.174 254.683 600.281 254.589C600.388 254.495 600.514 254.424 600.651 254.382C600.787 254.339 600.931 254.326 601.073 254.343C601.215 254.36 601.352 254.407 601.475 254.48C606.734 256.844 613.654 255.203 618.288 250.574C623.312 245.456 624.798 238.385 625.15 233.365C625.795 223.93 619.382 222.153 616.587 221.84C609.392 221.039 600.497 226.098 599.109 234.693C599.021 234.906 598.863 235.083 598.662 235.194C598.46 235.306 598.226 235.346 597.999 235.307C597.771 235.269 597.564 235.154 597.41 234.982C597.257 234.81 597.167 234.591 597.154 234.361C598.718 224.594 608.786 218.91 616.86 219.828C622.276 220.453 627.828 224.379 627.202 233.501C626.831 238.873 625.247 246.432 619.773 251.98C616.305 255.501 611.58 257.503 606.636 257.547Z" fill="#231F20"/>
<path d="M531.389 234.4C528.808 218.285 502.064 214.32 503.354 233.326C503.56 239.924 506.086 246.238 510.49 251.16C515.084 255.828 522.474 258.035 528.456 255.359" fill="white"/>
<path d="M522.865 257.547C517.924 257.467 513.215 255.438 509.766 251.902C504.312 246.354 502.728 238.795 502.357 233.423C501.711 224.301 507.264 220.375 512.679 219.75C520.753 218.832 530.841 224.575 532.386 234.283C532.411 234.414 532.408 234.549 532.379 234.679C532.35 234.81 532.294 234.933 532.215 235.041C532.136 235.149 532.036 235.24 531.921 235.308C531.806 235.375 531.678 235.419 531.545 235.435C531.284 235.475 531.017 235.412 530.802 235.259C530.586 235.105 530.439 234.874 530.391 234.615C529.023 226.02 520.049 220.941 512.914 221.762C510.118 222.074 503.706 223.852 504.37 233.286C504.561 239.647 506.983 245.738 511.213 250.495C513.312 252.744 516.035 254.317 519.033 255.013C522.031 255.709 525.169 255.496 528.045 254.402C528.289 254.293 528.566 254.286 528.815 254.381C529.065 254.476 529.266 254.666 529.375 254.91C529.484 255.153 529.491 255.43 529.396 255.679C529.301 255.928 529.11 256.129 528.866 256.238C526.981 257.095 524.936 257.541 522.865 257.547Z" fill="#231F20"/>
<path d="M534.967 314.995C534.967 314.995 542.2 330.758 563.353 330.758C580.206 330.758 593.05 314.995 593.05 314.995L590.235 253.054H537.782L534.967 314.995Z" fill="white"/>
<path d="M563.353 331.754C541.848 331.754 534.028 315.561 534.028 315.405C533.956 315.259 533.922 315.098 533.93 314.936L536.765 252.996C536.779 252.74 536.89 252.499 537.075 252.322C537.26 252.144 537.505 252.043 537.762 252.039H590.214C590.471 252.043 590.716 252.144 590.901 252.322C591.086 252.499 591.197 252.74 591.211 252.996L594.046 314.936C594.049 315.184 593.966 315.426 593.812 315.62C593.303 316.284 580.498 331.754 563.353 331.754ZM535.983 314.78C536.941 316.733 544.213 329.742 563.353 329.742C578.289 329.742 590.195 316.753 592.033 314.643L589.256 254.09H538.739L535.983 314.78Z" fill="#231F20"/>
<path d="M537.782 279.561C541.834 285.426 547.283 290.192 553.637 293.43C564.018 299.172 579.56 305.638 592.17 303.704L590.098 277.529C580.863 278.674 571.526 278.733 562.278 277.705C554.126 276.983 545.739 276.201 538.271 273.056C537 272.49 536.179 277.022 537.782 279.561Z" fill="#231F20"/>
<path d="M587.359 305.033C574.671 305.033 560.81 298.528 553.166 294.289C546.646 290.996 541.07 286.104 536.959 280.069C536.291 278.95 535.929 277.676 535.908 276.373C535.888 275.071 536.21 273.786 536.842 272.646C537.055 272.378 537.35 272.186 537.682 272.102C538.014 272.017 538.364 272.044 538.68 272.177C546.128 275.322 554.75 276.084 562.355 276.729C571.53 277.772 580.798 277.713 589.959 276.553C590.226 276.526 590.492 276.603 590.702 276.768C590.804 276.852 590.888 276.956 590.948 277.074C591.009 277.191 591.045 277.32 591.054 277.451L593.127 303.626C593.15 303.873 593.077 304.12 592.925 304.316C592.772 304.512 592.551 304.642 592.306 304.681C590.667 304.917 589.014 305.034 587.359 305.033ZM538.191 274.092C537.921 274.9 537.818 275.755 537.888 276.605C537.959 277.454 538.202 278.281 538.602 279.034C542.556 284.769 547.886 289.423 554.105 292.57C562.355 297.122 577.995 304.427 591.113 302.845L589.158 278.604C580.18 279.61 571.118 279.61 562.14 278.604C554.535 277.998 545.874 277.237 538.191 274.092Z" fill="#231F20"/>
<path d="M603.881 204.26V246.765C603.881 256.552 599.991 265.94 593.065 272.863C586.14 279.786 576.747 283.677 566.951 283.683H562.65C557.795 283.685 552.987 282.732 548.501 280.878C544.015 279.024 539.938 276.306 536.503 272.878C533.068 269.45 530.343 265.379 528.483 260.898C526.623 256.418 525.664 251.615 525.661 246.765V206.448L548.926 204.494L551.604 186.055L557.469 206.917L573.969 204.729C575.67 197.365 573.969 181.445 573.735 180.722L585.562 203.147L603.881 204.26Z" fill="white"/>
<path d="M566.949 284.698H562.648C552.577 284.693 542.919 280.696 535.794 273.584C528.669 266.473 524.659 256.827 524.643 246.765V206.448C524.643 206.193 524.74 205.949 524.914 205.763C525.089 205.578 525.327 205.467 525.582 205.452L548.044 203.498L550.606 185.918C550.637 185.691 550.745 185.482 550.912 185.325C551.079 185.169 551.296 185.075 551.524 185.059C551.759 185.029 551.996 185.089 552.188 185.227C552.38 185.365 552.513 185.57 552.561 185.801L558.171 205.823L573.088 203.869C574.476 196.466 572.873 181.738 572.717 180.976C572.67 180.848 572.65 180.712 572.656 180.576C572.663 180.44 572.696 180.306 572.754 180.183C572.812 180.059 572.894 179.949 572.995 179.857C573.096 179.765 573.214 179.694 573.342 179.648C573.471 179.602 573.607 179.581 573.743 179.588C573.879 179.594 574.013 179.627 574.136 179.685C574.26 179.744 574.371 179.825 574.463 179.926C574.554 180.027 574.625 180.145 574.672 180.273L586.304 202.111L604.055 203.283C604.309 203.298 604.548 203.41 604.723 203.595C604.897 203.78 604.994 204.025 604.994 204.28V246.784C604.978 256.852 600.962 266.501 593.828 273.611C586.694 280.721 577.026 284.709 566.949 284.698ZM526.676 207.385V246.765C526.687 256.292 530.481 265.426 537.225 272.161C543.969 278.896 553.113 282.681 562.648 282.686H566.949C576.481 282.676 585.62 278.888 592.36 272.154C599.1 265.419 602.891 256.288 602.902 246.765V205.217L585.522 204.065C585.352 204.051 585.188 203.996 585.045 203.904C584.902 203.812 584.784 203.686 584.701 203.537L575.219 185.723C575.669 191.309 576.06 200.002 574.926 204.983C574.881 205.184 574.774 205.367 574.62 205.503C574.465 205.64 574.271 205.725 574.066 205.745L557.565 207.932C557.324 207.965 557.078 207.911 556.874 207.778C556.669 207.645 556.519 207.444 556.451 207.21L551.915 190.938L549.96 204.612C549.929 204.839 549.821 205.048 549.654 205.205C549.487 205.361 549.27 205.455 549.042 205.471L526.676 207.385Z" fill="#231F20"/>
<path d="M533.129 345.857C495.104 305.15 429.964 301.536 391.001 301.536C352.037 301.536 286.897 305.15 248.872 345.857C210.847 386.565 212.665 446.259 212.665 446.259C212.665 446.259 303.202 468.8 391.001 468.8C478.8 468.8 569.336 446.2 569.336 446.2C569.336 446.2 571.134 386.565 533.129 345.857Z" fill="#584475"/>
<path d="M427.656 321.382L401.694 411.02L391 447.958L380.287 410.962L354.344 321.382C371.919 316.167 410.081 316.167 427.656 321.382Z" fill="#231F20"/>
<path d="M391.938 269.892C428.767 269.892 458.623 235.698 458.623 193.517C458.623 151.336 428.767 117.141 391.938 117.141C355.108 117.141 325.253 151.336 325.253 193.517C325.253 235.698 355.108 269.892 391.938 269.892Z" fill="white"/>
<path d="M391.938 270.888C354.617 270.888 324.236 236.177 324.236 193.517C324.236 148.199 329.104 116.125 391.938 116.125C454.772 116.125 459.64 148.199 459.64 193.517C459.64 236.177 429.279 270.888 391.938 270.888ZM391.938 118.137C330.825 118.137 326.25 147.984 326.25 193.517C326.25 235.064 355.731 268.876 391.938 268.876C428.145 268.876 457.626 235.064 457.626 193.517C457.626 147.984 453.051 118.137 391.938 118.137Z" fill="#231F20"/>
<path d="M434.01 219.75C437.255 199.416 471.057 194.357 469.376 218.383C468.809 226.606 466.17 235.005 460.383 240.885C454.596 246.764 445.251 249.558 437.705 246.198" fill="white"/>
<path d="M444.801 248.66C442.231 248.674 439.687 248.149 437.333 247.116C437.09 247.002 436.901 246.797 436.806 246.545C436.711 246.294 436.718 246.015 436.825 245.769C436.936 245.527 437.137 245.338 437.386 245.243C437.634 245.148 437.91 245.155 438.154 245.261C444.919 248.308 453.794 246.198 459.659 240.182C466.052 233.677 467.929 224.692 468.378 218.305C468.965 209.886 464.84 204.338 457.352 203.479C448.183 202.424 436.766 208.929 435.007 219.906C434.959 220.171 434.81 220.407 434.591 220.564C434.372 220.721 434.1 220.786 433.834 220.746C433.703 220.728 433.577 220.682 433.464 220.614C433.351 220.545 433.253 220.454 433.176 220.346C433.099 220.238 433.045 220.116 433.017 219.987C432.989 219.857 432.987 219.724 433.013 219.594C434.968 207.483 447.558 200.354 457.567 201.486C464.293 202.248 471.252 207.112 470.392 218.441C469.923 225.18 467.929 234.654 461.106 241.588C456.818 246.003 450.957 248.545 444.801 248.66Z" fill="#231F20"/>
<path d="M349.944 219.75C346.68 199.416 312.897 194.357 314.559 218.383C315.145 226.606 317.785 235.005 323.571 240.885C329.358 246.764 338.703 249.558 346.23 246.198" fill="white"/>
<path d="M339.074 248.66C332.91 248.557 327.039 246.013 322.75 241.588C315.927 234.654 313.933 225.18 313.464 218.441C312.662 207.112 319.564 202.248 326.269 201.486C336.318 200.354 348.889 207.483 350.844 219.594C350.902 219.736 350.927 219.888 350.917 220.041C350.908 220.194 350.864 220.343 350.789 220.476C350.714 220.609 350.61 220.724 350.484 220.812C350.358 220.899 350.214 220.957 350.063 220.981C349.912 221.006 349.757 220.995 349.611 220.951C349.464 220.907 349.329 220.831 349.216 220.727C349.103 220.624 349.015 220.497 348.958 220.354C348.902 220.212 348.878 220.059 348.889 219.906C347.129 208.929 335.712 202.326 326.543 203.479C319.036 204.338 314.93 209.886 315.517 218.305C315.947 224.692 317.824 233.677 324.236 240.182C330.101 246.198 339.016 248.288 345.741 245.261C345.861 245.206 345.992 245.175 346.124 245.171C346.257 245.166 346.389 245.189 346.512 245.236C346.636 245.283 346.749 245.355 346.845 245.446C346.941 245.538 347.017 245.647 347.07 245.769C347.126 245.89 347.157 246.022 347.161 246.156C347.166 246.289 347.144 246.423 347.097 246.548C347.049 246.673 346.978 246.788 346.886 246.886C346.794 246.983 346.684 247.062 346.562 247.116C344.203 248.151 341.651 248.677 339.074 248.66Z" fill="#231F20"/>
<path d="M354.344 321.382C354.344 321.382 363.493 341.286 390.159 341.286C416.826 341.286 427.656 321.382 427.656 321.382L424.098 243.249H357.902L354.344 321.382Z" fill="white"/>
<path d="M390.159 342.302C363.161 342.302 353.523 322.007 353.425 321.812C353.388 321.658 353.388 321.497 353.425 321.343L356.983 243.21C356.993 242.952 357.103 242.709 357.288 242.53C357.474 242.352 357.722 242.252 357.98 242.252H424.176C424.434 242.252 424.682 242.352 424.868 242.53C425.054 242.709 425.163 242.952 425.173 243.21L428.731 321.343C428.752 321.527 428.71 321.712 428.614 321.87C424.499 328.287 418.799 333.538 412.064 337.116C405.329 340.695 397.785 342.481 390.159 342.302ZM355.36 321.167C356.436 323.257 365.937 340.271 390.159 340.271C397.365 340.431 404.494 338.758 410.875 335.409C417.257 332.061 422.681 327.147 426.64 321.128L423.121 244.167H358.879L355.36 321.167Z" fill="#231F20"/>
<path d="M357.902 276.69C362.496 284.073 370.12 289.875 377.901 294.27C391.019 301.516 410.628 309.662 426.522 307.24L423.922 274.189C412.242 275.644 400.431 275.723 388.732 274.424C378.468 273.525 367.872 272.47 358.449 268.564C356.905 267.763 355.81 273.467 357.902 276.69Z" fill="#231F20"/>
<path d="M420.461 308.627C404.508 308.627 387.07 300.423 377.451 295.11C367.833 289.797 361.244 283.897 357.1 277.256C355.36 274.502 355.536 269.814 356.943 268.173C357.168 267.886 357.481 267.68 357.835 267.588C358.188 267.497 358.562 267.524 358.898 267.665C368.341 271.572 379.23 272.588 388.868 273.428C400.462 274.735 412.169 274.663 423.746 273.213C424.009 273.178 424.276 273.248 424.489 273.408C424.688 273.584 424.813 273.828 424.84 274.092L427.46 307.142C427.483 307.387 427.41 307.631 427.257 307.824C427.104 308.017 426.883 308.143 426.639 308.177C424.594 308.483 422.529 308.633 420.461 308.627ZM358.331 269.56C357.894 270.636 357.703 271.795 357.77 272.954C357.838 274.113 358.163 275.242 358.722 276.26C362.632 282.628 369.299 288.41 378.39 293.449C388.888 299.309 408.79 308.529 425.486 306.419L423.022 275.322C411.629 276.615 400.125 276.615 388.732 275.322C379.015 274.463 368.028 273.467 358.331 269.56Z" fill="#231F20"/>
<path d="M389.221 281.905H394.656C407.033 281.905 418.903 276.993 427.654 268.249C436.406 259.504 441.322 247.645 441.322 235.279V161.482C441.322 161.482 425.096 166.15 391.939 166.15C358.782 166.15 342.575 161.482 342.575 161.482V235.279C342.575 247.642 347.489 259.498 356.236 268.242C364.984 276.985 376.848 281.9 389.221 281.905Z" fill="white"/>
<path d="M441.321 161.482V235.279C441.321 247.645 436.405 259.505 427.653 268.249C418.902 276.993 407.032 281.905 394.655 281.905H389.22C376.847 281.9 364.983 276.985 356.235 268.242C347.488 259.498 342.574 247.642 342.574 235.279V161.482C342.574 161.482 358.801 166.151 391.938 166.151C425.075 166.151 441.321 161.482 441.321 161.482ZM342.574 159.529C342.139 159.53 341.716 159.666 341.362 159.919C341.108 160.105 340.902 160.349 340.762 160.632C340.623 160.914 340.553 161.226 340.56 161.541V235.338C340.571 248.231 345.7 260.593 354.823 269.712C363.946 278.83 376.316 283.96 389.22 283.976H394.655C407.561 283.96 419.934 278.831 429.06 269.713C438.186 260.595 443.319 248.232 443.335 235.338V161.482C443.342 161.167 443.273 160.855 443.133 160.573C442.994 160.291 442.788 160.046 442.533 159.861C442.18 159.608 441.756 159.471 441.321 159.47C441.133 159.443 440.942 159.443 440.754 159.47C440.598 159.47 424.352 164.041 391.879 164.041C359.407 164.041 343.219 159.509 343.004 159.47C342.823 159.442 342.638 159.442 342.457 159.47L342.574 159.529Z" fill="#231F20"/>
<path d="M391 361.914L378.43 352.225L391 342.537L403.571 352.225L391 361.914Z" fill="#1DC9B7"/>
<path d="M401.693 411.02L390.999 447.958L380.305 410.962L386.757 356.659L386.894 355.526H395.105L395.222 356.698L401.693 411.02Z" fill="#1DC9B7"/>
<path d="M289.555 456.435C289.307 456.436 289.067 456.345 288.882 456.179C288.698 456.013 288.582 455.784 288.558 455.537L278.412 356.757C278.395 356.624 278.406 356.49 278.443 356.362C278.479 356.233 278.541 356.114 278.625 356.01C278.709 355.906 278.813 355.82 278.931 355.757C279.049 355.694 279.178 355.655 279.311 355.643C279.573 355.626 279.833 355.71 280.036 355.876C280.239 356.043 280.371 356.281 280.406 356.542L290.552 455.322C290.58 455.589 290.5 455.855 290.332 456.064C290.164 456.272 289.919 456.406 289.653 456.435H289.555Z" fill="white"/>
<path d="M492.445 456.435C492.179 456.406 491.935 456.272 491.766 456.064C491.598 455.855 491.519 455.588 491.546 455.322L501.692 356.542C501.727 356.281 501.859 356.043 502.062 355.876C502.265 355.71 502.525 355.626 502.787 355.643C502.92 355.655 503.05 355.694 503.167 355.757C503.285 355.82 503.389 355.906 503.473 356.01C503.557 356.114 503.619 356.233 503.656 356.362C503.692 356.49 503.703 356.624 503.687 356.757L493.54 455.537C493.528 455.668 493.49 455.795 493.428 455.911C493.366 456.028 493.282 456.131 493.18 456.214C493.079 456.298 492.961 456.36 492.835 456.398C492.709 456.436 492.576 456.449 492.445 456.435Z" fill="white"/>
<path d="M212.763 445.673C212.631 445.668 212.5 445.636 212.38 445.58C212.26 445.524 212.152 445.445 212.062 445.346C211.973 445.248 211.904 445.133 211.86 445.008C211.816 444.883 211.798 444.75 211.805 444.618C211.805 443.856 215.715 367.363 257.279 336.54C295.03 308.49 353.699 302.083 354.286 302.024C354.507 302.06 354.71 302.168 354.864 302.331C355.017 302.494 355.113 302.703 355.135 302.926C355.157 303.149 355.105 303.373 354.987 303.563C354.869 303.753 354.691 303.899 354.481 303.978C353.914 303.978 295.831 310.385 258.471 338.102C217.768 368.36 213.839 443.895 213.819 444.657C213.819 444.794 213.792 444.929 213.738 445.055C213.685 445.181 213.606 445.294 213.508 445.389C213.409 445.484 213.292 445.558 213.164 445.607C213.037 445.655 212.9 445.678 212.763 445.673Z" fill="#231F20"/>
<path d="M569.355 445.672C569.095 445.673 568.845 445.574 568.656 445.396C568.467 445.218 568.353 444.974 568.338 444.715C568.338 443.953 564.428 368.418 523.667 338.161C486.365 310.443 428.243 304.095 427.657 304.036C427.503 304.059 427.346 304.046 427.198 303.999C427.05 303.951 426.915 303.871 426.803 303.763C426.691 303.655 426.605 303.523 426.552 303.377C426.499 303.231 426.48 303.075 426.497 302.92C426.514 302.766 426.567 302.617 426.65 302.486C426.734 302.355 426.846 302.245 426.979 302.164C427.111 302.083 427.261 302.034 427.416 302.02C427.571 302.006 427.727 302.027 427.872 302.083C428.458 302.083 487.128 308.548 524.879 336.598C566.364 367.422 570.313 443.914 570.352 444.676C570.358 444.941 570.262 445.198 570.084 445.394C569.905 445.591 569.659 445.711 569.394 445.731L569.355 445.672Z" fill="#231F20"/>
</svg>
