<svg width="826" height="619" viewBox="0 0 826 619" fill="none" xmlns="http://www.w3.org/2000/svg">
<path d="M660.573 465.034H165.427C165.153 465.034 164.89 464.925 164.697 464.732C164.503 464.538 164.394 464.276 164.394 464.002C164.394 463.729 164.503 463.466 164.697 463.273C164.89 463.079 165.153 462.971 165.427 462.971H660.573C660.846 462.971 661.109 463.079 661.303 463.273C661.496 463.466 661.605 463.729 661.605 464.002C661.605 464.276 661.496 464.538 661.303 464.732C661.109 464.925 660.846 465.034 660.573 465.034Z" fill="#D1D3D4"/>
<path d="M240.964 202.888C204.93 229.03 200.304 283.646 199.23 324.665C198.301 363.229 206.933 399.977 214.966 437.592C222.833 474.381 252.714 494.436 288.356 502.69C341.282 515.07 399.288 516.39 453.081 510.469C506.874 504.547 508.299 451.54 502.889 408.169C501.402 396.201 492.956 388.67 483.829 382.171C472.574 374.165 462.6 365.664 454.691 354.13C429.209 316.99 427.702 273.227 410.686 233.033C397.202 201.216 367.177 179.056 332.464 180.17C297.751 181.284 264.897 185.494 240.964 202.888Z" fill="white"/>
<path d="M391.937 514.905C357.022 515.105 322.196 511.347 288.129 503.701C235.885 491.589 218.952 461.196 213.955 437.819L212.261 429.895C204.58 394.262 197.331 360.609 198.199 324.665C198.674 305.58 199.954 280.758 205.963 257.978C212.736 232.269 223.97 213.988 240.366 202.083C265.662 183.637 301.139 180.15 332.465 179.138C366.29 177.983 397.347 199.05 411.575 232.641C418.245 248.363 422.581 264.87 426.794 280.82C433.32 305.58 440.051 331.062 455.498 353.531C462.333 363.497 470.964 371.813 484.408 381.345C493.617 387.907 502.352 395.788 503.901 408.045C508.857 447.702 504.789 475.165 491.511 492.022C482.756 503.102 469.87 509.643 453.205 511.48C432.861 513.747 412.407 514.89 391.937 514.905ZM241.605 203.713C206.975 228.865 201.358 281.583 200.305 324.686C199.458 360.402 206.665 393.952 214.326 429.462L216.02 437.385C220.955 460.123 237.475 489.835 288.584 501.699C338.144 513.172 394.931 515.833 452.958 509.437C469.065 507.662 481.475 501.369 489.88 490.743C502.827 474.236 506.751 447.413 501.877 408.21C500.432 396.634 492.048 389.227 483.292 382.934C469.684 373.257 460.887 364.777 453.908 354.625C438.276 331.928 431.482 306.137 424.998 281.274C420.868 265.386 416.49 248.962 409.882 233.342C395.84 200.638 365.505 180.15 332.589 181.202C301.49 182.213 266.385 185.7 241.605 203.713Z" fill="#231F20"/>
<path d="M335.439 406.27C329.029 406.259 322.625 405.894 316.255 405.177C304.026 403.779 291.968 401.159 280.262 397.357C264.279 392.178 253.541 386.276 245.488 378.229C233.242 365.994 228.575 349.487 226.903 337.809C222.773 310.738 226.903 280.861 229.876 265.468C231.803 254.919 236.021 244.921 242.232 236.176C248.444 227.432 256.498 220.154 265.828 214.855C278.775 207.324 294.222 202.475 313.034 199.999C332.734 197.42 346.92 199.524 357.679 206.622C375.211 218.197 380.208 240.481 383.822 262.332L390.017 299.472C391.524 308.716 393.589 321.385 400.899 327.389C403.468 329.329 406.237 330.989 409.159 332.341C414.198 334.899 419.484 337.561 422.355 343.318C425.989 350.457 427.517 362.507 423.78 370.348C419.65 379.034 411.245 384.791 405.195 388.278C385.04 400.142 361.252 406.27 335.439 406.27ZM316.503 403.113C349.213 406.807 379.485 401.05 404.08 386.462C409.82 383.058 417.894 377.59 421.777 369.419C425.225 362.156 423.842 350.849 420.372 344.205C417.729 339.047 413.042 336.674 407.982 334.136C404.927 332.729 402.039 330.985 399.371 328.936C391.442 322.458 389.315 309.335 387.745 299.761L381.55 262.621C378.019 241.245 373.146 219.435 356.316 208.314C345.991 201.526 332.259 199.524 313.075 202.124C294.49 204.559 279.333 209.325 266.633 216.712C257.562 221.863 249.733 228.939 243.696 237.441C237.659 245.944 233.562 255.666 231.693 265.922C228.844 281.191 224.672 310.82 228.72 337.582C230.434 348.971 234.915 365.024 246.83 376.785C254.636 384.605 265.105 390.341 280.778 395.355C292.356 399.113 304.283 401.699 316.379 403.072L316.503 403.113Z" fill="#D1D3D4"/>
<path d="M246.685 368.594C246.481 368.595 246.28 368.535 246.111 368.421C245.941 368.307 245.81 368.144 245.735 367.954C245.632 367.702 245.633 367.42 245.738 367.169C245.842 366.918 246.042 366.718 246.293 366.613C261.739 360.237 272.002 361.744 272.436 361.805C272.704 361.851 272.945 361.999 273.107 362.219C273.269 362.438 273.339 362.711 273.303 362.981C273.257 363.25 273.109 363.491 272.889 363.652C272.67 363.814 272.396 363.884 272.126 363.848C272.023 363.848 261.945 362.383 247.077 368.511C246.955 368.57 246.82 368.598 246.685 368.594Z" fill="#D1D3D4"/>
<path d="M452.049 220.116L453.412 290.538L427.186 305.373L433.835 222.799L452.049 220.116Z" fill="white"/>
<path d="M427.186 306.405C427.043 306.405 426.902 306.376 426.771 306.319C426.64 306.262 426.522 306.179 426.425 306.074C426.328 305.969 426.254 305.846 426.207 305.711C426.16 305.576 426.142 305.433 426.153 305.291L432.803 222.757C432.819 222.527 432.914 222.309 433.072 222.14C433.23 221.971 433.441 221.861 433.67 221.829L451.904 219.146C452.05 219.126 452.198 219.135 452.34 219.174C452.482 219.213 452.615 219.281 452.73 219.373C452.841 219.467 452.93 219.584 452.99 219.716C453.051 219.848 453.082 219.992 453.081 220.137L454.444 290.558C454.451 290.743 454.406 290.925 454.315 291.086C454.224 291.246 454.09 291.378 453.927 291.466L427.702 306.302C427.543 306.385 427.364 306.421 427.186 306.405ZM434.785 223.706L428.363 303.516L452.379 289.939L451.036 221.313L434.785 223.706Z" fill="#231F20"/>
<path d="M440.939 460.226C440.939 460.226 435.508 522.023 437.78 526.15C440.051 530.276 493.122 538.2 494.092 532.546C495.063 526.893 468.073 515.792 468.073 515.792L474.02 465.219" fill="white"/>
<path d="M485.977 535.394C471.109 535.394 439.06 530.524 436.851 526.563C434.641 522.601 438.998 470.44 439.845 460.123C439.867 459.85 439.996 459.596 440.206 459.418C440.415 459.24 440.686 459.152 440.96 459.174C441.234 459.196 441.488 459.326 441.666 459.535C441.844 459.744 441.932 460.015 441.91 460.288C439.845 483.975 437.098 522.642 438.585 525.531C440.506 528.069 474.475 534.279 488.723 533.248C492.523 532.979 492.957 532.237 492.977 532.237C493.473 529.266 480.174 521.92 467.578 516.638C467.37 516.553 467.196 516.402 467.084 516.207C466.972 516.013 466.928 515.787 466.958 515.565L472.885 465.013C472.921 464.741 473.062 464.494 473.278 464.324C473.494 464.155 473.768 464.076 474.041 464.105C474.176 464.121 474.307 464.163 474.426 464.23C474.544 464.297 474.648 464.387 474.731 464.494C474.814 464.602 474.874 464.726 474.908 464.858C474.942 464.989 474.949 465.126 474.929 465.261L469.085 515.049C476.313 518.062 495.93 526.81 495.001 532.629C494.712 534.259 492.668 534.795 491.139 535.063C489.43 535.312 487.704 535.423 485.977 535.394Z" fill="#231F20"/>
<path d="M362.408 476.444C362.408 476.444 354.953 531.102 358.815 532.67C362.676 534.238 415.106 536.797 414.301 532.133C413.496 527.47 387.58 518.742 387.58 518.742L396.934 465.467" fill="white"/>
<path d="M393.63 535.744C378.555 535.744 360.59 534.527 358.421 533.681C354.415 532.051 358.566 497.077 361.395 476.362C361.431 476.091 361.573 475.846 361.79 475.679C362.006 475.513 362.28 475.439 362.551 475.474C362.824 475.515 363.07 475.661 363.236 475.881C363.402 476.101 363.475 476.377 363.439 476.651C359.97 502.009 357.513 529.596 359.309 531.865C363.708 533.619 409.51 534.919 413.165 532.175C412.091 529.596 399.061 523.798 387.187 519.795C386.957 519.711 386.762 519.55 386.638 519.34C386.514 519.129 386.467 518.881 386.505 518.639L395.881 465.343C395.931 465.075 396.084 464.836 396.308 464.678C396.531 464.52 396.808 464.455 397.078 464.497C397.346 464.548 397.583 464.702 397.738 464.926C397.893 465.15 397.953 465.426 397.904 465.694L388.694 518.124C395.715 520.538 414.445 527.388 415.271 532.01C415.322 532.326 415.283 532.65 415.159 532.946C415.035 533.241 414.831 533.496 414.569 533.681C412.648 535.208 403.79 535.744 393.63 535.744Z" fill="#231F20"/>
<path d="M420.165 366.861C421.446 371.256 432.555 486.121 432.555 486.121H477.655C477.655 486.121 498.408 370.76 491.594 342.286C486.906 322.685 465.595 313.111 443.913 319.466C411.637 318.207 378.452 314.081 378.452 314.081L420.165 366.861Z" fill="#584475"/>
<path d="M477.737 487.153H432.637C432.377 487.154 432.126 487.056 431.935 486.88C431.743 486.704 431.625 486.463 431.605 486.204C427.784 447 420.371 372.72 419.215 367.335L377.729 314.72C377.615 314.553 377.554 314.355 377.554 314.153C377.554 313.95 377.615 313.753 377.729 313.585C377.828 313.404 377.98 313.258 378.164 313.166C378.349 313.074 378.557 313.04 378.761 313.069C379.092 313.069 412.152 317.196 443.974 318.434C449.486 316.695 455.292 316.083 461.046 316.632C466.801 317.181 472.385 318.882 477.468 321.632C481.283 323.808 484.609 326.744 487.242 330.258C489.874 333.772 491.755 337.789 492.77 342.059C499.564 370.409 479.698 481.582 478.852 486.286C478.806 486.543 478.667 486.774 478.461 486.934C478.255 487.094 477.997 487.172 477.737 487.153ZM433.566 485.089H476.931C478.79 474.505 497.106 369.192 490.726 342.534C489.794 338.527 488.039 334.758 485.572 331.465C483.105 328.172 479.98 325.428 476.394 323.407C471.525 320.788 466.177 319.176 460.671 318.669C455.164 318.163 449.612 318.77 444.346 320.456H444.015C417.17 319.404 389.272 316.329 380.95 315.36L421.052 366.18C421.136 366.289 421.193 366.416 421.218 366.551C422.395 370.843 432.431 473.37 433.649 485.089H433.566Z" fill="#584475"/>
<path d="M298.392 320.25C298.392 320.25 266.736 353.676 288.666 380.086C310.597 406.497 373.125 378.725 373.125 378.725L357.513 482.49L403.315 482.015C403.315 482.015 451.058 340.739 445.565 326.13C440.072 311.522 400.94 304.775 400.94 304.775L298.392 320.25Z" fill="#584475"/>
<path d="M357.513 483.625C357.365 483.623 357.219 483.591 357.084 483.531C356.949 483.471 356.828 483.383 356.729 483.274C356.636 483.159 356.568 483.027 356.529 482.885C356.49 482.743 356.481 482.594 356.502 482.448L371.824 380.499C361.319 384.812 350.438 388.148 339.321 390.465C314.892 395.334 297.112 392.013 287.882 380.85C265.621 354.027 297.319 319.878 297.628 319.548C297.786 319.378 297.998 319.269 298.227 319.239L400.796 303.867C400.905 303.846 401.017 303.846 401.126 303.867C402.737 304.135 440.877 310.882 446.556 325.883C452.235 340.883 406.289 476.671 404.327 482.448C404.268 482.654 404.143 482.833 403.971 482.96C403.799 483.087 403.591 483.154 403.377 483.15L357.575 483.625H357.513ZM373.125 377.796C373.348 377.795 373.566 377.867 373.744 378.002C373.894 378.111 374.01 378.26 374.079 378.431C374.148 378.603 374.168 378.79 374.137 378.972L358.711 481.561L402.572 481.107C419.092 432.165 448.828 337.829 444.594 326.605C439.535 313.173 403.666 306.425 400.94 305.972L298.888 321.261C296.08 324.397 269.359 355.265 289.472 379.571C310.659 405.197 372.072 378.209 372.691 377.92C372.825 377.848 372.973 377.806 373.125 377.796Z" fill="#231F20"/>
<path d="M455.064 223.17C452.544 195.893 443.107 190.281 443.107 190.281C435.467 162.034 398.214 168.203 398.214 168.203C398.214 168.203 347.973 174.682 329.739 205.508C317.659 225.914 327.984 253.584 322.718 280.778C320.033 294.623 294.159 320.601 294.159 320.601L422.932 310.284C422.932 310.284 435.074 261.362 440.402 224.346L455.064 223.17Z" fill="#1DC9B7"/>
<path d="M428.569 200.618C424.233 197.667 420.123 194.737 414.651 193.726C406.556 192.241 398.131 193.396 390.036 191.663C381.26 189.744 372.628 185.7 364.368 182.213C361.952 181.202 363.088 185.411 361.622 183.224C356.501 175.548 360.569 165.562 363.398 157.969C369.688 140.294 378.358 123.558 389.169 108.222C394.93 100.319 416.634 71.5976 425.823 90.8485C423.758 86.5155 442.157 84.9267 444.552 85.1331C466.916 86.9694 478.769 111.585 476.477 131.806C474.805 146.476 470.117 159.95 471.914 174.971C472.698 181.594 474.33 188.465 472.265 194.799C469.766 202.434 462.043 207.633 454.072 208.603C445.975 209.209 437.914 207.024 431.233 202.413C430.324 201.815 429.519 201.216 428.569 200.618Z" fill="white"/>
<path d="M450.81 209.738C443.623 209.51 436.645 207.265 430.676 203.259L427.991 201.464L427.331 201.03C423.541 198.061 419.152 195.949 414.466 194.84C410.688 194.243 406.871 193.932 403.046 193.912C398.605 193.916 394.173 193.501 389.809 192.674C382.28 190.751 374.945 188.133 367.9 184.854L363.976 183.183C363.77 183.183 363.687 183.183 363.687 183.183C363.687 183.183 363.687 183.492 363.584 183.657C363.481 183.822 363.233 184.854 362.428 184.957C361.622 185.06 361.044 184.297 360.776 183.884C355.551 176.085 359.186 166.387 362.097 158.608L362.428 157.68C368.731 139.906 377.451 123.084 388.343 107.685C396.769 96.1305 408.787 82.5332 418.203 83.4204C419.725 83.5996 421.182 84.136 422.456 84.986C423.73 85.8359 424.785 86.9751 425.534 88.3105C429.148 84.8854 443.086 84.06 444.635 84.1838C449.07 84.5738 453.377 85.8746 457.286 88.0049C461.195 90.1352 464.621 93.049 467.35 96.5638C475.256 106.633 478.909 119.391 477.531 132.115C476.973 136.902 476.106 141.606 475.259 146.166C473.463 155.864 471.769 165.025 472.946 175.053C473.091 176.25 473.277 177.467 473.442 178.684C474.227 184.214 475.032 189.93 473.256 195.336C470.778 202.929 463.117 208.768 454.217 209.779C453.081 209.837 451.943 209.823 450.81 209.738ZM363.687 180.851C364.064 180.851 364.436 180.928 364.782 181.078L368.705 182.77C375.643 186.033 382.866 188.651 390.284 190.59C394.527 191.379 398.834 191.773 403.149 191.766C407.084 191.797 411.011 192.114 414.899 192.715C419.867 193.921 424.521 196.172 428.549 199.318L429.189 199.751C430.056 200.349 430.924 200.948 431.832 201.526C437.015 204.827 445.09 208.562 453.99 207.489C462.105 206.519 469.085 201.299 471.315 194.407C472.946 189.455 472.162 184.09 471.418 178.684C471.253 177.467 471.067 176.229 470.923 175.012C469.704 164.695 471.501 154.956 473.256 145.506C474.082 141.008 474.949 136.324 475.486 131.599C476.817 119.433 473.334 107.23 465.781 97.5955C463.212 94.3249 459.999 91.6156 456.341 89.6353C452.682 87.6549 448.656 86.4456 444.511 86.0821C441.971 85.8551 428.59 87.2995 426.835 89.8374C426.779 89.904 426.749 89.988 426.749 90.0746C426.749 90.1613 426.779 90.2453 426.835 90.3119C426.894 90.4351 426.928 90.5687 426.935 90.7051C426.942 90.8416 426.922 90.978 426.876 91.1066C426.83 91.2353 426.759 91.3534 426.667 91.4543C426.575 91.5552 426.463 91.6368 426.339 91.6944C426.218 91.7531 426.085 91.7869 425.95 91.7938C425.815 91.8006 425.68 91.7804 425.553 91.7342C425.426 91.6881 425.31 91.6169 425.211 91.525C425.112 91.4331 425.032 91.3223 424.976 91.1992C423.221 87.5058 420.97 85.5663 418.121 85.298C411.533 84.6997 401.601 93.0149 390.119 108.737C379.343 123.994 370.713 140.656 364.472 158.257L364.121 159.186C361.478 166.284 358.194 175.053 362.159 181.883C362.356 181.56 362.643 181.302 362.985 181.14C363.204 181.03 363.443 180.966 363.687 180.954V180.851Z" fill="#231F20"/>
<path d="M466.091 136.18C466.091 136.18 465.203 159.495 455.436 173.547C452.817 177.521 449.097 180.648 444.73 182.546C440.362 184.444 435.537 185.031 430.841 184.235L419.814 211.636C419.814 211.636 414.301 225.708 397.987 216.65C393.263 214.016 389.289 210.222 386.442 205.625C383.594 201.029 381.967 195.783 381.715 190.384L400.052 139.172C400.052 139.172 424.048 135.808 429.623 117.011C429.623 116.908 448.291 137.418 466.091 136.18Z" fill="white"/>
<path d="M408.064 220.632C404.325 220.482 400.686 219.381 397.492 217.434C392.627 214.69 388.535 210.762 385.596 206.015C382.657 201.268 380.967 195.855 380.683 190.28C380.661 190.164 380.661 190.046 380.683 189.93L399.02 138.718C399.083 138.542 399.194 138.388 399.339 138.271C399.485 138.155 399.66 138.081 399.846 138.057C400.073 138.057 423.242 134.529 428.59 116.619C428.643 116.448 428.739 116.293 428.869 116.17C429 116.047 429.16 115.96 429.334 115.918C429.512 115.873 429.698 115.878 429.873 115.933C430.048 115.987 430.205 116.089 430.325 116.227C430.511 116.434 448.91 136.324 465.946 135.045C466.093 135.034 466.241 135.054 466.38 135.104C466.518 135.154 466.645 135.232 466.752 135.334C466.858 135.434 466.941 135.556 466.994 135.691C467.048 135.827 467.071 135.972 467.061 136.118C467.061 137.067 466.05 159.888 456.22 174.042C453.548 178.037 449.812 181.206 445.434 183.193C441.056 185.18 436.209 185.905 431.44 185.287L420.723 211.925C419.937 213.724 418.802 215.351 417.384 216.71C415.967 218.07 414.294 219.136 412.463 219.848C411.051 220.354 409.564 220.619 408.064 220.632ZM382.748 190.445C383.053 195.632 384.66 200.659 387.42 205.061C390.181 209.464 394.007 213.102 398.545 215.639C403.687 218.507 408.209 219.27 411.967 217.908C415.076 216.649 417.572 214.229 418.926 211.161L429.953 183.74C430.038 183.509 430.205 183.318 430.423 183.204C430.64 183.089 430.892 183.06 431.13 183.121C435.631 183.897 440.262 183.333 444.444 181.498C448.627 179.664 452.176 176.64 454.651 172.804C462.911 160.919 464.728 141.854 464.976 137.129C449.695 137.542 434.414 123.243 430.057 118.827C424.027 135.148 404.616 139.295 400.796 139.956L382.748 190.445Z" fill="#231F20"/>
<path d="M410.934 139.337C410.934 139.337 410.108 116.908 395.736 125.079C381.363 133.25 389.995 151.902 398.916 154.255" fill="white"/>
<path d="M398.958 155.286H398.71C393.238 153.883 388.2 147.219 387.25 140.1C386.726 136.942 387.219 133.7 388.66 130.841C390.1 127.981 392.412 125.653 395.262 124.192C399.103 122.129 402.448 121.695 405.195 123.222C411.39 126.709 411.988 138.821 412.009 139.316C412.004 139.452 411.972 139.585 411.915 139.708C411.858 139.831 411.777 139.942 411.678 140.034C411.578 140.126 411.461 140.197 411.334 140.244C411.206 140.291 411.071 140.312 410.935 140.307C410.799 140.315 410.662 140.296 410.534 140.25C410.405 140.204 410.287 140.133 410.187 140.04C410.086 139.948 410.006 139.836 409.95 139.711C409.894 139.587 409.864 139.453 409.861 139.316C409.861 139.316 409.366 127.865 404.1 124.873C402.035 123.717 399.371 124.047 396.212 125.843C393.726 127.11 391.708 129.134 390.45 131.623C389.191 134.112 388.758 136.936 389.211 139.688C390.058 145.878 394.498 151.944 399.144 153.14C399.418 153.176 399.666 153.319 399.835 153.537C400.003 153.756 400.078 154.033 400.042 154.306C400.007 154.58 399.864 154.828 399.645 154.996C399.426 155.165 399.149 155.239 398.876 155.204L398.958 155.286Z" fill="#231F20"/>
<path d="M444.821 169.338C440.897 169.338 436.106 165.789 435.9 165.624C435.681 165.459 435.536 165.215 435.497 164.944C435.458 164.673 435.529 164.398 435.693 164.179C435.861 163.965 436.105 163.824 436.374 163.785C436.644 163.747 436.918 163.814 437.139 163.973C438.481 164.984 442.528 167.501 445.213 167.254C446.328 166.47 445.337 158.402 443.148 150.004C443.113 149.869 443.105 149.728 443.124 149.589C443.143 149.45 443.19 149.317 443.261 149.196C443.332 149.075 443.426 148.97 443.537 148.885C443.649 148.801 443.776 148.739 443.912 148.704C444.048 148.669 444.189 148.661 444.328 148.68C444.466 148.699 444.6 148.746 444.721 148.817C444.842 148.888 444.947 148.982 445.032 149.093C445.116 149.205 445.178 149.332 445.213 149.468C445.915 152.067 449.343 165.17 447.113 168.368C446.942 168.63 446.714 168.849 446.445 169.01C446.177 169.171 445.876 169.269 445.564 169.296L444.821 169.338Z" fill="#231F20"/>
<path d="M438.584 175.755C434.413 175.821 430.328 174.564 426.917 172.164C422.684 169.146 419.69 164.696 418.492 159.64C418.486 159.504 418.508 159.369 418.554 159.242C418.601 159.115 418.673 158.998 418.765 158.898C418.857 158.798 418.968 158.718 419.091 158.661C419.214 158.604 419.348 158.572 419.483 158.567C419.752 158.567 420.011 158.669 420.207 158.853C420.403 159.037 420.52 159.289 420.536 159.557C421.748 164.044 424.505 167.961 428.321 170.617C433.298 174.042 439.617 174.599 447.072 172.268C447.207 172.227 447.349 172.213 447.49 172.228C447.631 172.242 447.768 172.284 447.892 172.351C448.017 172.418 448.127 172.509 448.217 172.618C448.306 172.728 448.373 172.854 448.414 172.99C448.454 173.125 448.468 173.267 448.454 173.408C448.439 173.549 448.398 173.685 448.33 173.81C448.263 173.934 448.172 174.044 448.063 174.134C447.953 174.223 447.827 174.29 447.691 174.331C444.745 175.262 441.675 175.742 438.584 175.755Z" fill="#231F20"/>
<path d="M430.841 184.132C430.841 184.132 415.457 180.005 407.899 174.558C407.899 174.558 408.395 199.854 422.354 205.322L430.841 184.132Z" fill="#231F20"/>
<path d="M422.375 206.333C422.252 206.353 422.127 206.353 422.003 206.333C407.548 200.659 406.888 175.672 406.867 174.62C406.857 174.427 406.905 174.236 407.004 174.07C407.103 173.905 407.25 173.773 407.424 173.691C407.584 173.586 407.77 173.529 407.961 173.529C408.152 173.529 408.339 173.586 408.498 173.691C415.808 179.035 430.966 183.038 431.213 183.079C431.354 183.119 431.486 183.187 431.599 183.279C431.713 183.371 431.806 183.486 431.874 183.616C431.93 183.75 431.959 183.893 431.959 184.039C431.959 184.184 431.93 184.328 431.874 184.462L423.325 205.693C423.245 205.88 423.113 206.04 422.945 206.154C422.776 206.267 422.578 206.329 422.375 206.333ZM409.056 176.559C409.51 182.398 411.72 199.049 421.818 203.94L429.458 184.792C422.349 182.892 415.498 180.135 409.056 176.58V176.559Z" fill="#231F20"/>
<path d="M437.811 143.728C438.534 141.603 438.14 139.547 436.931 139.136C435.721 138.725 434.155 140.116 433.432 142.241C432.709 144.367 433.103 146.423 434.313 146.833C435.522 147.244 437.088 145.854 437.811 143.728Z" fill="#231F20"/>
<path d="M458.067 150.612C458.789 148.487 458.395 146.431 457.186 146.02C455.976 145.609 454.41 147 453.687 149.125C452.964 151.251 453.358 153.307 454.568 153.717C455.777 154.128 457.344 152.738 458.067 150.612Z" fill="#231F20"/>
<path d="M419.401 295.779C418.906 296.625 405.958 316.041 430.531 314.473C455.105 312.904 478.15 256.699 484.717 251.004C491.284 245.31 505.491 223.913 506.049 218.734C506.606 213.555 489.942 223.665 489.942 223.665C489.942 223.665 429.231 278.674 419.401 295.779Z" fill="white"/>
<path d="M427.867 315.69C421.672 315.69 417.542 314.122 415.642 311.006C412.71 306.137 416.117 299.204 418.409 295.51L419.401 295.882L418.492 295.366C428.301 278.302 486.761 225.213 489.239 223.005C493.472 220.426 503.26 214.896 506.151 216.815C506.508 217.054 506.786 217.393 506.951 217.789C507.117 218.186 507.161 218.622 507.08 219.043C506.482 224.511 492.295 246.052 485.398 252.057C483.725 253.501 480.525 259.134 476.828 265.654C466.503 283.956 449.013 314.617 430.593 315.793C429.643 315.545 428.734 315.69 427.867 315.69ZM504.499 218.342C502.537 218.342 496.466 221.024 490.478 224.656C490.024 225.089 429.932 279.623 420.268 296.377L420.144 296.583C418.492 299.245 414.94 305.868 417.398 309.933C419.091 312.781 423.592 314.06 430.448 313.544C447.732 312.43 464.81 282.388 475.011 264.457C479.141 257.215 482.094 251.974 484.035 250.323C490.354 244.897 504.478 223.645 505.015 218.734C505.015 218.569 505.015 218.466 505.015 218.466C504.873 218.335 504.692 218.255 504.499 218.239V218.342Z" fill="#231F20"/>
<path d="M483.809 179.881L513.772 177.756L500.122 241.637L467.929 245.495L483.809 179.881Z" fill="#231F20"/>
<path d="M467.929 246.527C467.781 246.526 467.635 246.494 467.499 246.433C467.364 246.373 467.243 246.285 467.144 246.176C467.032 246.052 466.953 245.902 466.913 245.74C466.874 245.578 466.875 245.409 466.917 245.248L482.817 179.634C482.866 179.42 482.983 179.228 483.151 179.087C483.318 178.945 483.527 178.862 483.746 178.85L513.71 176.786C513.868 176.776 514.027 176.802 514.174 176.863C514.321 176.923 514.452 177.017 514.556 177.137C514.661 177.257 514.737 177.399 514.776 177.553C514.816 177.708 514.818 177.869 514.783 178.024L501.134 241.988C501.088 242.197 500.978 242.388 500.819 242.532C500.659 242.676 500.459 242.767 500.246 242.792L468.052 246.671L467.929 246.527ZM484.634 180.851L469.271 244.299L499.275 240.688L512.491 178.891L484.634 180.851Z" fill="#231F20"/>
<path d="M494.299 219.374C493.014 223.074 492.155 226.909 491.738 230.804C491.575 231.733 491.668 232.689 492.007 233.569C492.414 234.255 492.999 234.818 493.7 235.199C496.867 236.886 500.445 237.651 504.025 237.407C505.893 237.512 507.747 237.037 509.332 236.045C510.59 235.002 511.51 233.609 511.975 232.042C513.344 227.916 513.705 223.523 513.029 219.229C512.732 217.099 512.156 215.018 511.315 213.039C510.144 211.358 509.088 209.601 508.155 207.778L506.441 213.968C501.795 213.184 496.054 214.318 494.299 219.374Z" fill="white"/>
<path d="M503.302 238.439C499.767 238.607 496.256 237.785 493.163 236.066C492.296 235.584 491.581 234.869 491.098 234.002C490.644 232.95 490.515 231.786 490.727 230.66C491.134 226.686 492.007 222.773 493.328 219.002C495.187 213.617 500.99 212.255 505.718 212.812L507.185 207.489C507.197 207.353 507.236 207.221 507.299 207.101C507.362 206.98 507.448 206.874 507.553 206.786C507.657 206.699 507.778 206.633 507.908 206.593C508.038 206.552 508.174 206.538 508.31 206.55C508.446 206.562 508.577 206.601 508.698 206.664C508.819 206.727 508.926 206.813 509.013 206.918C509.1 207.022 509.166 207.143 509.207 207.272C509.247 207.402 509.262 207.539 509.25 207.674C509.777 208.64 510.356 209.577 510.984 210.48C511.477 211.138 511.925 211.827 512.326 212.544C513.213 214.628 513.817 216.82 514.123 219.064C514.822 223.519 514.44 228.076 513.008 232.352C512.465 234.108 511.425 235.67 510.014 236.85C508.249 237.956 506.188 238.496 504.108 238.397L503.302 238.439ZM503.922 214.731C500.246 214.731 496.55 216.031 495.27 219.724C494.014 223.345 493.176 227.097 492.771 230.907C492.624 231.645 492.681 232.408 492.936 233.115C493.25 233.628 493.7 234.042 494.237 234.312C497.254 235.93 500.674 236.646 504.087 236.375C505.743 236.462 507.387 236.06 508.816 235.22C509.898 234.287 510.686 233.062 511.087 231.692C512.415 227.706 512.755 223.458 512.079 219.312C511.815 217.251 511.266 215.237 510.447 213.328C510.344 213.101 509.725 212.193 509.291 211.512L508.548 210.398L507.515 214.112C507.448 214.352 507.295 214.559 507.086 214.696C506.878 214.833 506.626 214.889 506.379 214.855C505.544 214.748 504.702 214.707 503.86 214.731H503.922Z" fill="#231F20"/>
<path d="M334.302 250.509C334.302 250.509 365.277 328.297 380.228 326.646C395.178 324.995 448.228 274.217 461.361 261.754C474.495 249.292 496.177 231.526 500.245 222.86C504.313 214.194 498.862 207.014 495.042 207.86C491.221 208.706 475.548 214.442 475.548 214.442C475.548 214.442 480.318 202.207 478.336 201.649C476.353 201.092 467.309 207.839 465.037 226.657L392.762 276.693L375.106 229.03" fill="white"/>
<path d="M379.795 327.698C364.287 327.698 336.43 258.824 333.333 250.881C333.238 250.623 333.247 250.339 333.359 250.088C333.471 249.838 333.676 249.641 333.931 249.539C334.186 249.445 334.468 249.455 334.715 249.567C334.962 249.679 335.156 249.884 335.253 250.138C343.678 271.308 367.839 325.635 379.712 325.635H380.105C389.542 324.603 416.139 303.33 459.194 262.415L460.66 261.012C464.109 257.731 468.094 254.161 472.307 250.365C483.603 240.192 496.406 228.658 499.317 222.448C500.31 220.621 500.777 218.556 500.668 216.48C500.559 214.404 499.877 212.399 498.698 210.687C498.338 210.105 497.828 209.631 497.221 209.315C496.614 208.999 495.932 208.853 495.249 208.892C491.532 209.717 476.065 215.371 475.921 215.432C475.734 215.502 475.532 215.516 475.337 215.472C475.143 215.429 474.965 215.331 474.826 215.189C474.686 215.047 474.59 214.868 474.55 214.674C474.51 214.479 474.527 214.277 474.599 214.091C476.174 210.449 477.251 206.611 477.8 202.681C475.9 203.218 468.136 209.696 466.071 226.801C466.05 226.944 466.001 227.082 465.926 227.206C465.852 227.33 465.754 227.438 465.637 227.524L393.362 277.559C393.229 277.646 393.079 277.702 392.922 277.723C392.765 277.745 392.605 277.731 392.453 277.683C392.307 277.636 392.173 277.555 392.062 277.448C391.951 277.341 391.866 277.209 391.813 277.064L374.178 229.463C374.094 229.208 374.113 228.93 374.23 228.689C374.348 228.447 374.555 228.261 374.808 228.17C375.06 228.078 375.339 228.089 375.584 228.2C375.829 228.31 376.021 228.512 376.119 228.762L393.279 275.104L464.109 226.079C465.844 212.503 471.336 204.414 475.549 201.588C476.419 200.883 477.532 200.549 478.647 200.659C478.861 200.725 479.059 200.835 479.229 200.98C479.4 201.126 479.539 201.304 479.638 201.505C480.526 203.279 478.729 208.933 477.346 212.73C481.785 211.12 491.801 207.551 494.857 206.87C495.916 206.735 496.992 206.899 497.963 207.344C498.934 207.789 499.761 208.497 500.35 209.387C501.789 211.396 502.635 213.768 502.792 216.234C502.949 218.7 502.41 221.16 501.238 223.335C498.14 229.896 485.729 241.08 473.732 251.892C469.602 255.667 465.472 259.258 462.127 262.518L460.66 263.921C444.471 279.272 395.262 326.048 380.373 327.678L379.795 327.698Z" fill="#231F20"/>
<path d="M429.519 402.659C429.389 402.681 429.257 402.681 429.127 402.659C428.875 402.554 428.675 402.355 428.567 402.105C428.459 401.855 428.452 401.573 428.549 401.318C428.796 400.679 453.452 337.685 446.287 322.912C446.049 322.331 445.687 321.808 445.227 321.381C444.767 320.953 444.22 320.631 443.623 320.436C443.487 320.398 443.361 320.333 443.25 320.246C443.139 320.16 443.047 320.052 442.978 319.929C442.909 319.806 442.864 319.671 442.848 319.532C442.831 319.392 442.842 319.25 442.88 319.115C442.918 318.98 442.982 318.853 443.069 318.742C443.156 318.632 443.264 318.539 443.386 318.47C443.509 318.401 443.644 318.357 443.784 318.34C443.924 318.323 444.066 318.334 444.201 318.372C445.076 318.644 445.882 319.102 446.563 319.714C447.244 320.327 447.784 321.08 448.145 321.921C455.703 337.396 431.501 399.275 430.469 401.896C430.407 402.104 430.283 402.289 430.113 402.425C429.943 402.562 429.736 402.643 429.519 402.659Z" fill="white"/>
<path d="M439.039 239.677H438.874C438.738 239.657 438.608 239.61 438.491 239.538C438.374 239.466 438.273 239.372 438.193 239.26C438.114 239.148 438.059 239.021 438.03 238.887C438.001 238.753 438 238.614 438.027 238.48C439.642 229.481 439.844 220.285 438.626 211.223C438.579 210.95 438.643 210.669 438.804 210.442C438.965 210.216 439.209 210.063 439.483 210.016C439.757 209.97 440.038 210.034 440.264 210.194C440.491 210.355 440.644 210.599 440.691 210.873C441.974 220.166 441.765 229.604 440.071 238.831C440.031 239.073 439.905 239.292 439.715 239.448C439.525 239.604 439.284 239.685 439.039 239.677Z" fill="#231F20"/>
<path d="M367.384 147.962C360.322 163.849 347.891 193.355 376.491 195.418C382.482 195.84 388.404 193.924 393.011 190.074C401.271 183.059 392.619 165.314 388.447 157.164" fill="white"/>
<path d="M378.184 196.532C377.586 196.532 377.007 196.532 376.408 196.532C368.396 195.934 362.862 193.148 359.888 188.279C353.219 177.137 361.788 157.927 366.393 147.611C366.437 147.472 366.509 147.345 366.605 147.236C366.701 147.128 366.819 147.041 366.952 146.981C367.084 146.921 367.227 146.89 367.372 146.889C367.517 146.888 367.661 146.918 367.794 146.976C367.926 147.034 368.045 147.12 368.143 147.227C368.24 147.335 368.314 147.461 368.359 147.599C368.404 147.737 368.42 147.883 368.405 148.027C368.39 148.171 368.345 148.31 368.272 148.436C364.142 157.721 355.552 176.993 361.644 187.206C364.204 191.477 369.202 193.933 376.512 194.469C382.262 194.876 387.944 193.025 392.35 189.311C400.362 182.564 390.698 163.808 387.518 157.659C387.396 157.415 387.375 157.133 387.46 156.874C387.545 156.615 387.729 156.4 387.972 156.277C388.091 156.213 388.222 156.173 388.357 156.16C388.491 156.147 388.627 156.161 388.756 156.202C388.885 156.242 389.004 156.308 389.107 156.395C389.21 156.482 389.295 156.589 389.356 156.71C395.2 168.038 401.994 183.884 393.672 190.879C389.333 194.52 383.851 196.521 378.184 196.532Z" fill="#231F20"/>
<path d="M373.124 379.859C372.946 379.859 372.772 379.813 372.616 379.726C372.461 379.639 372.33 379.515 372.236 379.364C372.165 379.248 372.118 379.119 372.097 378.984C372.076 378.849 372.082 378.712 372.115 378.579C372.147 378.447 372.206 378.322 372.287 378.213C372.368 378.103 372.47 378.011 372.587 377.941C372.732 377.941 387.042 369.171 390.739 363.497C390.887 363.268 391.12 363.106 391.387 363.048C391.654 362.99 391.933 363.04 392.163 363.188C392.391 363.343 392.549 363.581 392.603 363.851C392.657 364.121 392.603 364.401 392.453 364.632C388.446 370.822 374.26 379.385 373.661 379.756C373.492 379.831 373.309 379.866 373.124 379.859Z" fill="white"/>
<path d="M533.968 163.973C523.643 155.946 517.283 145.568 517.283 134.22C517.283 108.882 548.588 88.3311 587.224 88.3311C625.86 88.3311 657.166 108.964 657.166 134.22C657.166 159.475 625.86 180.129 587.224 180.129C572.353 180.306 557.648 176.991 544.293 170.452L522.197 176.105L533.968 163.973Z" fill="white"/>
<path d="M587.224 181.16C572.319 181.346 557.576 178.054 544.169 171.545L522.445 177.096C522.229 177.148 522.001 177.128 521.796 177.041C521.592 176.953 521.421 176.802 521.309 176.609C521.198 176.416 521.152 176.193 521.178 175.972C521.204 175.751 521.301 175.545 521.454 175.383L532.419 164.076C522.094 155.678 516.25 145.135 516.25 134.22C516.25 108.345 548.092 87.2993 587.224 87.2993C626.356 87.2993 658.198 108.345 658.198 134.22C658.198 160.094 626.356 181.16 587.224 181.16ZM544.293 169.42C544.443 169.392 544.597 169.392 544.747 169.42C557.954 175.908 572.508 179.189 587.224 178.994C625.22 178.994 656.133 158.876 656.133 134.116C656.133 109.356 625.158 89.2595 587.224 89.2595C549.29 89.2595 518.315 109.48 518.315 134.22C518.315 144.784 524.097 155.059 534.587 163.106C534.705 163.192 534.802 163.302 534.874 163.429C534.945 163.556 534.988 163.696 534.999 163.841C535.011 163.986 534.991 164.132 534.942 164.269C534.892 164.405 534.813 164.53 534.711 164.633L525.481 174.166L544.066 169.399L544.293 169.42Z" fill="#231F20"/>
<path d="M613.181 138.656C616.808 138.656 619.748 135.718 619.748 132.094C619.748 128.471 616.808 125.533 613.181 125.533C609.554 125.533 606.614 128.471 606.614 132.094C606.614 135.718 609.554 138.656 613.181 138.656Z" fill="#231F20"/>
<path d="M613.181 139.688C611.68 139.688 610.212 139.243 608.963 138.411C607.715 137.578 606.741 136.395 606.164 135.01C605.588 133.625 605.435 132.1 605.725 130.628C606.015 129.157 606.735 127.804 607.793 126.74C608.852 125.676 610.202 124.95 611.673 124.652C613.145 124.355 614.671 124.499 616.061 125.068C617.45 125.636 618.64 126.603 619.48 127.846C620.32 129.089 620.772 130.553 620.78 132.053C620.786 133.054 620.593 134.046 620.214 134.972C619.834 135.898 619.275 136.74 618.569 137.449C617.863 138.159 617.023 138.722 616.099 139.106C615.174 139.49 614.182 139.688 613.181 139.688ZM613.181 126.565C612.085 126.565 611.013 126.89 610.102 127.5C609.191 128.109 608.482 128.975 608.064 129.988C607.647 131.001 607.539 132.115 607.756 133.189C607.973 134.262 608.504 135.248 609.283 136.019C610.061 136.791 611.051 137.314 612.127 137.523C613.203 137.732 614.317 137.616 615.328 137.191C616.338 136.767 617.2 136.051 617.803 135.137C618.406 134.222 618.723 133.149 618.715 132.053C618.704 130.594 618.116 129.198 617.08 128.17C616.043 127.142 614.642 126.565 613.181 126.565Z" fill="#231F20"/>
<path d="M587.224 138.656C590.85 138.656 593.79 135.718 593.79 132.094C593.79 128.471 590.85 125.533 587.224 125.533C583.597 125.533 580.657 128.471 580.657 132.094C580.657 135.718 583.597 138.656 587.224 138.656Z" fill="#231F20"/>
<path d="M587.224 139.688C585.723 139.688 584.255 139.243 583.006 138.411C581.757 137.578 580.783 136.395 580.207 135.01C579.631 133.625 579.478 132.1 579.768 130.628C580.058 129.157 580.777 127.804 581.836 126.74C582.895 125.676 584.245 124.95 585.716 124.652C587.187 124.355 588.714 124.499 590.103 125.068C591.493 125.636 592.682 126.603 593.522 127.846C594.362 129.089 594.815 130.553 594.823 132.053C594.831 133.055 594.64 134.048 594.262 134.975C593.884 135.902 593.325 136.745 592.618 137.455C591.911 138.165 591.071 138.728 590.145 139.111C589.219 139.494 588.226 139.69 587.224 139.688ZM587.224 126.565C586.127 126.565 585.056 126.89 584.145 127.5C583.234 128.109 582.525 128.975 582.107 129.988C581.689 131.001 581.582 132.115 581.799 133.189C582.016 134.262 582.547 135.248 583.325 136.019C584.103 136.791 585.093 137.314 586.17 137.523C587.246 137.732 588.36 137.616 589.37 137.191C590.381 136.767 591.242 136.051 591.845 135.137C592.449 134.222 592.766 133.149 592.758 132.053C592.747 130.594 592.159 129.198 591.122 128.17C590.086 127.142 588.684 126.565 587.224 126.565Z" fill="#231F20"/>
<path d="M561.266 138.656C564.893 138.656 567.833 135.718 567.833 132.094C567.833 128.471 564.893 125.533 561.266 125.533C557.64 125.533 554.7 128.471 554.7 132.094C554.7 135.718 557.64 138.656 561.266 138.656Z" fill="#231F20"/>
<path d="M561.267 139.688C559.765 139.692 558.295 139.251 557.044 138.421C555.792 137.591 554.815 136.409 554.235 135.024C553.656 133.639 553.5 132.114 553.788 130.641C554.075 129.168 554.793 127.813 555.851 126.747C556.909 125.682 558.259 124.953 559.731 124.654C561.203 124.355 562.73 124.498 564.121 125.066C565.511 125.633 566.702 126.6 567.543 127.844C568.384 129.088 568.837 130.552 568.845 132.053C568.851 133.052 568.659 134.042 568.281 134.967C567.903 135.892 567.346 136.733 566.642 137.442C565.938 138.151 565.1 138.714 564.178 139.1C563.256 139.485 562.266 139.685 561.267 139.688ZM561.267 126.565C560.17 126.561 559.096 126.883 558.182 127.49C557.269 128.097 556.556 128.961 556.135 129.974C555.714 130.986 555.604 132.101 555.819 133.176C556.034 134.251 556.563 135.238 557.34 136.012C558.118 136.786 559.108 137.311 560.184 137.521C561.261 137.732 562.376 137.618 563.388 137.193C564.4 136.769 565.262 136.054 565.866 135.139C566.47 134.223 566.789 133.15 566.78 132.053C566.77 130.597 566.184 129.205 565.152 128.177C564.12 127.149 562.724 126.57 561.267 126.565Z" fill="#231F20"/>
<path d="M584.394 373.669C584.138 369.914 584.939 366.161 586.707 362.837C588.447 360.643 590.067 358.356 591.56 355.987C593.625 351.571 592.18 346.413 592.675 341.543C593.088 337.495 594.873 333.71 597.734 330.814C600.254 328.256 603.516 326.502 605.994 323.84C609.959 319.466 611.095 313.338 613.346 307.87C616.555 300.179 622.094 293.686 629.184 289.3C624.848 297.986 634.698 309.025 630.238 317.629C628.833 320.353 626.108 322.354 625.096 325.243C622.597 332.217 630.919 339.686 628.255 346.702C626.934 350.168 623.217 352.17 621.503 355.45C619.169 359.866 620.986 365.23 620.8 370.224C620.553 377.115 616.34 383.285 611.363 388.03C608.266 391.022 604.817 393.581 601.451 396.284C597.445 399.502 595.752 402.866 592.221 397.707C587.334 390.623 584.615 382.271 584.394 373.669Z" fill="#D1D3D4"/>
<path d="M580.017 377.59C581.297 372.266 582.227 366.489 580.017 361.455C577.56 355.76 571.447 351.757 570.725 345.587C570.25 341.564 572.294 337.479 571.489 333.496C570.683 329.514 567.359 326.811 564.757 323.881C558.618 317.077 554.977 308.39 554.432 299.245C550.292 304.155 546.947 309.683 544.52 315.628C542.455 321.694 542.455 328.813 545.965 334.198C546.992 335.446 547.833 336.836 548.464 338.325C549.682 342.245 546.399 345.918 544.582 349.632C543.556 351.759 543.128 354.124 543.343 356.475C543.557 358.826 544.406 361.075 545.8 362.981C549.331 367.376 556.125 369.171 557.86 374.433C558.287 376.426 558.488 378.461 558.458 380.499C558.826 384.038 560.245 387.386 562.535 390.111C564.824 392.836 567.878 394.814 571.303 395.788C575.433 396.799 575.433 395.149 576.135 391.662C577.064 386.854 578.881 382.315 580.017 377.59Z" fill="#D1D3D4"/>
<path d="M593.274 339.294C596.227 328.978 597.404 318.352 600.543 308.179C603.201 300.213 606.445 292.454 610.249 284.967L597.528 290.311C593.398 292.044 589.041 294.066 587.203 298.048C583.858 304.96 589.867 313.853 586.357 320.745C584.831 322.974 583.147 325.091 581.318 327.079C577.58 332.32 578.159 339.459 580.203 345.649C581.091 348.27 584.952 361.847 588.463 358.029C589.846 356.503 589.97 350.87 590.528 348.806C591.271 345.608 592.366 342.513 593.274 339.294Z" fill="#D1D3D4"/>
<path d="M586.335 475.289C588.875 458.555 596.805 399.585 596.887 398.945L594.699 398.656C594.699 399.255 586.686 458.204 584.167 475L586.335 475.289Z" fill="#D1D3D4"/>
<path d="M583.341 491.073H585.551C585.406 471.203 577.105 395.273 572.335 389.97L570.703 391.456C573.884 395.005 583.155 463.879 583.341 491.073Z" fill="#D1D3D4"/>
<path d="M579.046 487.297H581.235C579.356 444.462 588.442 354.522 588.525 353.614L586.336 353.387C586.253 354.192 577.146 444.297 579.046 487.297Z" fill="#D1D3D4"/>
<path d="M608.102 434.95H560.792L564.117 482.82C564.389 486.81 566.167 490.549 569.092 493.28C572.017 496.011 575.87 497.53 579.873 497.531H589.021C593.025 497.526 596.878 496.005 599.805 493.276C602.732 490.546 604.516 486.81 604.798 482.82L608.102 434.95Z" fill="white"/>
<path d="M589.02 498.542H579.872C575.613 498.527 571.517 496.906 568.404 494.002C565.291 491.098 563.39 487.126 563.083 482.882L559.779 435.033C559.764 434.891 559.781 434.747 559.827 434.611C559.874 434.476 559.949 434.352 560.048 434.249C560.143 434.146 560.258 434.064 560.385 434.008C560.513 433.951 560.651 433.921 560.791 433.919H608.1C608.243 433.918 608.384 433.947 608.515 434.004C608.646 434.061 608.764 434.145 608.861 434.249C608.958 434.354 609.032 434.478 609.079 434.613C609.126 434.748 609.144 434.891 609.133 435.033L605.829 482.82C605.532 487.077 603.633 491.064 600.515 493.98C597.397 496.897 593.29 498.527 589.02 498.542ZM561.906 435.982L565.148 482.82C565.414 486.544 567.079 490.03 569.81 492.579C572.541 495.127 576.135 496.55 579.872 496.562H589.02C592.758 496.551 596.355 495.128 599.089 492.58C601.823 490.032 603.493 486.546 603.764 482.82L607.109 435.982H561.906Z" fill="#D1D3D4"/>
</svg>
