<svg width="782" height="587" viewBox="0 0 782 587" fill="none" xmlns="http://www.w3.org/2000/svg">
<path d="M458.057 175.376H345.859L357.589 135.949H469.787L458.057 175.376Z" fill="white"/>
<path d="M458.057 176.53H345.859C345.68 176.528 345.503 176.484 345.344 176.403C345.184 176.322 345.045 176.205 344.937 176.061C344.829 175.917 344.756 175.751 344.723 175.574C344.689 175.398 344.697 175.216 344.745 175.043L356.475 135.616C356.544 135.376 356.691 135.164 356.892 135.016C357.094 134.867 357.339 134.789 357.589 134.795H469.787C469.967 134.793 470.146 134.834 470.308 134.914C470.47 134.995 470.611 135.112 470.719 135.256C470.828 135.401 470.901 135.569 470.932 135.747C470.964 135.926 470.953 136.109 470.901 136.282L459.171 175.709C459.102 175.95 458.955 176.161 458.754 176.309C458.552 176.458 458.307 176.536 458.057 176.53ZM347.404 174.143H457.196L468.242 136.967H358.469L347.404 174.143Z" fill="#231F20"/>
<path d="M452.641 163.597L455.437 154.225H364.334L361.538 163.597H452.641Z" fill="white"/>
<path d="M452.642 164.752H361.539C361.36 164.752 361.183 164.709 361.023 164.627C360.864 164.546 360.726 164.427 360.62 164.282C360.512 164.139 360.438 163.972 360.404 163.796C360.371 163.62 360.378 163.438 360.425 163.265L363.221 153.892C363.295 153.655 363.443 153.447 363.644 153.299C363.844 153.151 364.086 153.071 364.335 153.07H455.516C455.695 153.072 455.871 153.115 456.031 153.197C456.19 153.278 456.329 153.396 456.435 153.54C456.54 153.685 456.61 153.852 456.641 154.028C456.671 154.205 456.661 154.386 456.611 154.557L453.815 163.93C453.744 164.181 453.588 164.4 453.375 164.549C453.161 164.699 452.902 164.771 452.642 164.752ZM363.084 162.404H451.782L453.874 155.34H365.195L363.084 162.404Z" fill="#231F20"/>
<path d="M406.425 163.597L409.221 154.225H364.334L361.538 163.597H406.425Z" fill="#231F20"/>
<path d="M406.426 164.752H361.461C361.279 164.75 361.1 164.707 360.937 164.626C360.775 164.544 360.633 164.427 360.522 164.282C360.418 164.137 360.347 163.97 360.317 163.794C360.286 163.617 360.296 163.436 360.346 163.265L363.142 153.892C363.214 153.653 363.362 153.444 363.562 153.295C363.763 153.147 364.007 153.068 364.256 153.07H409.222C409.401 153.073 409.577 153.116 409.737 153.198C409.897 153.279 410.036 153.396 410.144 153.54C410.251 153.683 410.325 153.85 410.358 154.026C410.391 154.203 410.384 154.384 410.336 154.557L407.54 163.93C407.471 164.171 407.324 164.382 407.123 164.531C406.921 164.679 406.676 164.757 406.426 164.752ZM363.103 162.404H405.566L407.658 155.36H365.195L363.103 162.404Z" fill="#584475"/>
<path d="M448.79 265.324C448.79 265.324 473.423 237.089 477.568 224.449C481.713 211.809 493.208 189.934 496.062 194.121C498.917 198.308 489.63 220.908 489.63 220.908C489.63 220.908 513.266 185.453 520.598 190.012C527.929 194.571 534.107 208.953 528.183 217.542C522.259 226.132 479.562 275.89 479.562 275.89L448.79 265.324Z" fill="white"/>
<path d="M479.561 276.986C479.438 277.006 479.313 277.006 479.19 276.986L448.418 266.498C448.238 266.435 448.077 266.329 447.948 266.189C447.818 266.049 447.725 265.88 447.675 265.696C447.62 265.511 447.612 265.316 447.653 265.128C447.694 264.939 447.783 264.765 447.91 264.62C448.164 264.346 472.445 236.405 476.453 224.136C479.874 213.707 489.668 193.28 494.771 192.517C495.199 192.453 495.636 192.513 496.031 192.69C496.426 192.867 496.762 193.153 497 193.515C498.955 196.371 496.511 205.45 494.028 212.612C501.848 201.83 515.22 185.355 521.222 189.132C526.426 192.885 530.006 198.483 531.232 204.785C531.81 207.055 531.921 209.419 531.558 211.733C531.195 214.047 530.366 216.263 529.12 218.247C523.255 226.778 482.2 274.599 480.441 276.634C480.326 276.75 480.189 276.84 480.037 276.901C479.886 276.962 479.724 276.991 479.561 276.986ZM450.784 264.796L479.19 274.481C484.038 268.827 521.73 224.821 527.224 216.877C528.291 215.139 528.995 213.203 529.294 211.185C529.593 209.168 529.481 207.11 528.964 205.137C527.846 199.474 524.661 194.431 520.03 190.99C517.371 189.366 506.501 197.741 490.705 221.554C490.528 221.743 490.294 221.867 490.039 221.907C489.784 221.947 489.523 221.9 489.298 221.773C489.072 221.647 488.896 221.449 488.797 221.21C488.697 220.972 488.681 220.707 488.75 220.458C492.542 211.32 497.078 197.311 495.299 194.786C492.777 194.786 483.217 211.516 478.857 224.802C475.065 236.111 455.73 259.024 450.784 264.796Z" fill="#231F20"/>
<path d="M352.546 471.655L356.69 501.983C356.69 501.983 171.259 504.174 173.468 501.983C175.677 499.791 173.468 455.297 173.468 455.297L352.546 471.655Z" fill="#584475"/>
<path d="M218.53 504.135C173.076 504.135 172.763 503.372 172.392 502.472C172.301 502.253 172.277 502.012 172.322 501.778C172.367 501.545 172.48 501.331 172.646 501.161C173.76 499.068 173.33 475.979 172.313 455.356C172.304 455.191 172.331 455.025 172.391 454.872C172.451 454.718 172.544 454.578 172.663 454.463C172.781 454.348 172.923 454.26 173.079 454.205C173.234 454.15 173.4 454.128 173.565 454.142L352.662 470.5C352.921 470.528 353.163 470.641 353.351 470.822C353.539 471.002 353.661 471.24 353.698 471.498L357.843 501.826C357.863 501.987 357.849 502.151 357.802 502.306C357.755 502.461 357.675 502.604 357.569 502.726C357.464 502.853 357.333 502.956 357.184 503.027C357.036 503.098 356.874 503.136 356.709 503.137C356.24 503.137 310.591 503.685 265.411 503.959C245.997 504.077 230.69 504.135 218.53 504.135ZM174.914 501.161C186.429 502.355 287.072 501.631 355.36 500.829L351.45 472.731L174.62 456.569C175.422 471.557 176.243 494.645 174.914 501.161Z" fill="#302E33"/>
<path d="M287.699 105.66C287.269 104.956 286.839 104.251 286.389 103.547C282.248 97.2467 276.543 92.131 269.833 88.701C263.123 85.271 255.637 83.6443 248.11 83.9802C241.879 84.2386 235.695 85.1902 229.674 86.8174C223.594 88.5393 221.483 93.9788 216.322 96.6007C215.225 97.0564 214.049 97.2892 212.861 97.2856C209.072 97.5935 205.36 98.5257 201.874 100.044C192.373 104.173 186.019 117.4 182.598 126.557C176.169 144.556 172.191 163.339 170.77 182.401C169.187 200.011 167.114 219.734 173.781 236.659C180.197 253.539 189.594 269.128 201.522 282.68C223.633 306.962 256.829 321.363 289.497 318.722C309.047 317.137 327.561 309.877 344.785 300.681C354.677 295.398 364.452 289.274 371.197 280.312C383.924 263.446 382.927 237.794 369.242 221.612C354.521 204.002 331.354 196.489 316.672 178.566C300.484 158.666 301.071 127.79 287.699 105.66Z" fill="white"/>
<path d="M281.951 320.287C252.215 320.287 221.659 306.59 200.662 283.58C188.612 269.95 179.145 254.235 172.725 237.207C166.176 220.634 167.916 201.361 169.46 184.377L169.636 182.42C171.039 163.257 175.031 144.373 181.503 126.283C185.276 116.187 191.806 103.273 201.425 99.0858C205.029 97.5202 208.867 96.5616 212.783 96.2486H213.096C214.014 96.24 214.922 96.0609 215.774 95.7203C217.741 94.6019 219.511 93.1674 221.014 91.4743C223.213 88.8585 226.097 86.9072 229.342 85.8391C235.45 84.1764 241.726 83.205 248.051 82.9433C255.776 82.6013 263.457 84.2648 270.35 87.7722C277.242 91.2796 283.111 96.5116 287.386 102.96C287.855 103.664 288.285 104.388 288.715 105.093C294.795 115.189 298.041 127.203 301.208 138.806C304.981 152.718 308.891 167.1 317.649 177.939C324.981 186.94 334.697 193.456 344.1 199.737C353.504 206.018 362.849 212.299 370.2 221.064C384.197 237.755 385.058 264.111 372.155 281.232C365.058 290.663 354.56 296.885 345.371 301.914C325.059 312.754 306.838 318.682 289.634 320.091C287.093 320.189 284.512 320.287 281.951 320.287ZM249.713 85.1934H248.149C242.008 85.4719 235.917 86.43 229.987 88.0502C227.14 89.0421 224.613 90.7864 222.675 93.0984C220.984 94.9618 219.003 96.5408 216.81 97.7748C215.686 98.2625 214.478 98.5282 213.252 98.5575H212.92C209.259 98.8513 205.672 99.7505 202.304 101.219C193.546 105.073 187.29 117.4 183.771 127.183C177.377 145.079 173.431 163.759 172.041 182.714L171.865 184.67C170.36 201.419 168.639 220.399 174.973 236.483C181.303 253.242 190.623 268.71 202.48 282.132C224.826 306.669 258.198 320.326 289.575 317.802C306.447 316.432 324.374 310.582 344.315 299.898C353.367 295.085 363.514 288.922 370.356 279.862C382.594 263.622 381.754 238.459 368.401 222.571C361.265 214.059 351.862 207.759 342.771 201.674C333.231 195.295 323.377 188.701 315.812 179.407C306.76 168.293 302.772 153.677 298.94 139.53C295.831 128.064 292.606 116.226 286.702 106.404C286.291 105.699 285.861 105.014 285.411 104.33C281.521 98.4195 276.219 93.5742 269.986 90.2327C263.752 86.8912 256.784 85.1591 249.713 85.1934Z" fill="#231F20"/>
<path d="M165.1 482.945C158.472 439.898 133.272 262.741 162.265 234.448C195.324 202.163 286.231 203.572 302.888 232.765C311.94 248.595 337.394 275.244 339.349 309.877C342.125 359.009 356.748 451.462 360.248 482.984L165.1 482.945Z" fill="#1DC9B7"/>
<path d="M238.471 482.945L218.178 232.726L269.809 238.185L297.883 482.945H238.471Z" fill="#584475"/>
<path d="M297.884 484.099H238.511C238.222 484.096 237.945 483.986 237.732 483.791C237.52 483.596 237.386 483.33 237.357 483.042L217.006 232.843C216.99 232.674 217.012 232.503 217.071 232.344C217.129 232.184 217.223 232.04 217.345 231.922C217.467 231.803 217.614 231.714 217.775 231.66C217.937 231.606 218.108 231.589 218.276 231.611L269.908 237.07C270.17 237.098 270.414 237.214 270.602 237.399C270.79 237.583 270.91 237.826 270.944 238.087L299.116 482.808C299.137 482.968 299.124 483.132 299.076 483.287C299.029 483.443 298.949 483.586 298.842 483.708C298.722 483.841 298.573 483.945 298.408 484.013C298.242 484.08 298.063 484.11 297.884 484.099ZM239.547 481.79H296.594L268.774 239.163L219.449 233.939L239.547 481.79Z" fill="#2D2D2D"/>
<path d="M266.858 205.881L269.791 238.185C269.791 238.185 260.016 249.456 246.8 250.512C225.295 252.254 218.159 232.726 218.159 232.726C217.319 217.758 216.361 202.809 215.559 187.86C215.012 177.666 209.538 156.71 219.274 149.881C221.971 147.924 225.139 146.789 227.895 145.048C232.037 142.397 235.354 138.639 237.472 134.199C239.59 129.759 240.424 124.814 239.879 119.924C243.496 124.346 247.347 128.945 252.626 131.136C257.097 132.638 261.823 133.23 266.526 132.877C271.179 132.877 276.927 131.84 281.482 132.721C286.369 133.68 284.844 132.721 286.115 136.947C287.62 142.054 286.877 149 287.21 154.323C287.796 163.949 288.637 173.635 288.637 183.281C287.738 200.245 266.858 205.881 266.858 205.881Z" fill="white"/>
<path d="M244.16 251.784C224.082 251.784 217.162 233.313 217.083 233.117C217.065 233.007 217.065 232.895 217.083 232.785C216.692 226.034 216.301 219.303 215.891 212.553C215.409 204.361 214.933 196.149 214.464 187.918C214.464 185.825 214.034 183.183 213.682 180.385C212.294 169.565 210.417 154.733 218.687 148.922C220.271 147.857 221.931 146.909 223.652 146.085C224.903 145.439 226.194 144.793 227.367 144.128C231.304 141.585 234.458 137.997 236.478 133.765C238.497 129.533 239.302 124.822 238.803 120.159C238.773 119.91 238.823 119.658 238.946 119.44C239.07 119.221 239.259 119.048 239.488 118.946C239.721 118.842 239.981 118.819 240.229 118.879C240.476 118.939 240.697 119.079 240.856 119.278C244.199 123.368 248.012 128.005 253.134 130.138C257.473 131.562 262.048 132.127 266.604 131.801C268.089 131.801 269.673 131.664 271.354 131.547C274.818 131.143 278.32 131.182 281.774 131.664L283.553 131.977C285.88 132.388 286.369 132.642 286.799 134.677C286.896 135.147 287.033 135.812 287.287 136.634C288.216 140.646 288.572 144.77 288.343 148.883C288.343 150.839 288.343 152.62 288.343 154.283C288.48 156.553 288.636 158.823 288.793 161.092C289.262 168.371 289.77 175.885 289.77 183.301C288.91 198.954 272.175 205.391 268.05 206.781L270.924 238.087C270.939 238.242 270.922 238.398 270.875 238.546C270.828 238.694 270.752 238.83 270.65 238.948C270.24 239.418 260.367 250.59 246.878 251.666C245.965 251.745 245.059 251.784 244.16 251.784ZM219.312 232.472C220.055 234.428 227.132 250.903 246.682 249.358C257.923 248.458 266.78 239.574 268.578 237.774L265.646 205.978C265.623 205.707 265.697 205.437 265.854 205.215C266.012 204.993 266.243 204.833 266.506 204.765C266.701 204.765 286.584 199.13 287.444 183.242C287.444 175.983 286.955 168.508 286.466 161.268C286.31 158.979 286.173 156.709 286.036 154.44C285.919 152.698 285.939 150.859 285.939 148.902C286.147 145.016 285.825 141.118 284.981 137.319C284.758 136.592 284.575 135.854 284.433 135.108C284.388 134.863 284.33 134.622 284.257 134.384C283.856 134.368 283.457 134.316 283.065 134.227L281.227 133.914C277.982 133.504 274.697 133.504 271.452 133.914C269.732 134.032 268.109 134.149 266.564 134.169C261.701 134.537 256.814 133.918 252.195 132.349C247.873 130.234 244.114 127.122 241.228 123.27C241.119 127.798 239.906 132.232 237.694 136.184C235.483 140.136 232.34 143.488 228.54 145.948C227.269 146.73 225.94 147.415 224.63 148.061C223.007 148.848 221.44 149.744 219.938 150.742C212.822 155.751 214.601 169.78 215.891 180.092C216.262 182.929 216.595 185.609 216.712 187.801C217.142 195.993 217.618 204.198 218.139 212.416C218.543 219.108 218.934 225.793 219.312 232.472Z" fill="#231F20"/>
<path d="M228.735 169.506C226.291 162.638 217.317 157.766 210.182 159.527C200.974 161.895 202.107 172.5 205.705 179.094C206.801 181.08 208.28 182.829 210.056 184.24C211.832 185.65 213.87 186.694 216.052 187.311C218.233 187.928 220.516 188.105 222.767 187.833C225.017 187.562 227.192 186.846 229.165 185.727" fill="white"/>
<path d="M220.68 189.073C217.409 189.071 214.199 188.191 211.383 186.526C208.567 184.86 206.248 182.469 204.669 179.603C202.479 175.689 200.759 169.154 202.851 164.125C203.491 162.685 204.462 161.417 205.685 160.424C206.908 159.431 208.349 158.742 209.889 158.412C217.474 156.455 227.171 161.66 229.81 169.115C229.861 169.259 229.884 169.411 229.876 169.564C229.869 169.717 229.831 169.866 229.766 170.004C229.701 170.142 229.609 170.266 229.495 170.369C229.382 170.471 229.25 170.551 229.106 170.602C228.962 170.653 228.81 170.676 228.658 170.668C228.505 170.661 228.356 170.623 228.218 170.558C228.08 170.492 227.956 170.4 227.853 170.287C227.751 170.174 227.672 170.042 227.62 169.898C226.229 166.638 223.773 163.947 220.655 162.266C217.537 160.584 213.941 160.012 210.456 160.643C209.263 160.899 208.147 161.43 207.197 162.194C206.247 162.959 205.488 163.935 204.982 165.045C203.261 168.958 204.61 174.672 206.702 178.468C207.721 180.326 209.099 181.962 210.756 183.282C212.413 184.602 214.315 185.579 216.353 186.156C218.39 186.733 220.522 186.899 222.624 186.644C224.727 186.389 226.757 185.718 228.598 184.67C228.729 184.591 228.875 184.539 229.027 184.518C229.179 184.496 229.334 184.506 229.482 184.546C229.63 184.587 229.768 184.657 229.888 184.752C230.009 184.847 230.108 184.966 230.181 185.101C230.258 185.233 230.308 185.379 230.328 185.53C230.348 185.682 230.337 185.836 230.297 185.983C230.257 186.131 230.188 186.269 230.095 186.389C230.001 186.51 229.884 186.611 229.751 186.686C226.982 188.246 223.858 189.068 220.68 189.073Z" fill="#231F20"/>
<path d="M263.925 149.626C263.925 149.626 277.454 164.888 275.186 168.156C272.918 171.424 265.176 170.543 265.176 170.543" fill="white"/>
<path d="M267.66 171.815C266.369 171.815 265.392 171.815 265.118 171.698C264.814 171.658 264.536 171.501 264.346 171.26C264.156 171.018 264.068 170.712 264.102 170.406C264.116 170.253 264.161 170.105 264.235 169.97C264.308 169.834 264.408 169.716 264.529 169.621C264.649 169.525 264.788 169.456 264.937 169.416C265.085 169.376 265.24 169.367 265.392 169.389C267.21 169.604 272.782 169.702 274.307 167.432C275.226 166.102 269.908 157.942 263.144 150.311C263.018 150.202 262.917 150.067 262.847 149.915C262.778 149.763 262.741 149.598 262.74 149.431C262.74 149.264 262.774 149.099 262.842 148.947C262.91 148.794 263.01 148.658 263.135 148.547C263.26 148.437 263.406 148.354 263.566 148.304C263.725 148.255 263.893 148.24 264.058 148.26C264.224 148.281 264.383 148.337 264.525 148.424C264.668 148.511 264.79 148.627 264.884 148.765C269.126 153.559 278.744 165.104 276.223 168.743C274.463 171.365 270.377 171.815 267.66 171.815Z" fill="#231F20"/>
<path d="M266.858 205.881C266.858 205.881 254.796 209.305 239.273 201.126C239.273 201.126 246.858 223.334 268.442 223.373L266.858 205.881Z" fill="#231F20"/>
<path d="M268.441 224.528C246.29 224.528 238.255 201.732 238.177 201.498C238.1 201.278 238.093 201.04 238.156 200.816C238.219 200.592 238.349 200.393 238.529 200.245C238.703 200.092 238.92 199.996 239.15 199.968C239.38 199.94 239.613 199.982 239.819 200.089C254.736 207.915 266.407 204.804 266.525 204.765C266.689 204.717 266.862 204.706 267.031 204.733C267.2 204.76 267.361 204.825 267.502 204.922C267.645 205.019 267.765 205.147 267.852 205.295C267.94 205.444 267.994 205.611 268.01 205.783L269.594 223.256C269.61 223.417 269.593 223.58 269.542 223.734C269.492 223.888 269.409 224.029 269.301 224.149C269.192 224.269 269.059 224.365 268.911 224.43C268.763 224.495 268.602 224.528 268.441 224.528ZM241.598 203.493C244.374 209.148 252.097 221.436 267.17 222.121L265.821 207.231C257.555 208.441 249.116 207.139 241.598 203.493Z" fill="#231F20"/>
<path d="M246.741 157.688C247.983 157.688 248.989 155.393 248.989 152.562C248.989 149.73 247.983 147.435 246.741 147.435C245.499 147.435 244.493 149.73 244.493 152.562C244.493 155.393 245.499 157.688 246.741 157.688Z" fill="#231F20"/>
<path d="M276.57 154.708C277.81 154.639 278.686 152.291 278.527 149.464C278.368 146.637 277.234 144.402 275.995 144.472C274.755 144.542 273.879 146.89 274.038 149.717C274.197 152.543 275.33 154.778 276.57 154.708Z" fill="#231F20"/>
<path d="M259.605 195.04C259.009 195.036 258.414 194.984 257.826 194.884C256.974 194.74 256.162 194.413 255.447 193.927C254.732 193.441 254.13 192.806 253.682 192.066C250.28 186.686 253.193 175.552 253.31 175.063C253.388 174.776 253.574 174.53 253.829 174.377C254.084 174.224 254.389 174.175 254.679 174.241L272.274 177.9C272.56 177.961 272.814 178.128 272.984 178.367C273.154 178.606 273.228 178.9 273.193 179.192C272.432 184.531 269.74 189.404 265.627 192.888C263.907 194.243 261.793 194.998 259.605 195.04ZM255.304 176.746C254.503 180.287 253.506 187.449 255.637 190.814C255.912 191.284 256.288 191.688 256.738 191.996C257.187 192.303 257.699 192.508 258.237 192.595C259.284 192.779 260.358 192.741 261.389 192.481C262.42 192.221 263.384 191.747 264.219 191.088C267.572 188.219 269.848 184.292 270.671 179.955L255.304 176.746Z" fill="#231F20"/>
<path d="M381.695 313.752C390.141 309.525 457.314 235.876 457.314 235.876L496.414 268.65C495.711 274.031 434.324 402.506 398.391 395.951C362.458 389.396 285.353 343.356 285.353 343.356L302.948 232.726C302.948 232.726 373.23 317.978 381.695 313.752Z" fill="#1DC9B7"/>
<path d="M356.691 456.451C356.419 456.451 356.156 456.354 355.949 456.179C355.742 456.003 355.603 455.76 355.557 455.493L325 278.336C324.974 278.186 324.979 278.032 325.012 277.883C325.046 277.734 325.109 277.594 325.197 277.469C325.285 277.345 325.397 277.239 325.525 277.158C325.654 277.076 325.798 277.021 325.948 276.996C326.098 276.97 326.252 276.974 326.401 277.008C326.549 277.042 326.69 277.104 326.814 277.193C326.939 277.281 327.044 277.392 327.126 277.521C327.207 277.65 327.262 277.794 327.287 277.945L357.766 455.101C357.794 455.25 357.792 455.404 357.759 455.552C357.727 455.701 357.665 455.841 357.578 455.965C357.49 456.089 357.379 456.194 357.25 456.275C357.121 456.355 356.977 456.408 356.827 456.432L356.691 456.451Z" fill="#231F20"/>
<path d="M254.444 405.03C254.581 403.915 263.496 402.682 264.766 402.31C269.283 400.98 274.014 400.119 278.627 399.18C287.601 397.379 297.2 395.403 306.388 396.225C322.517 397.692 302.713 407.965 302.713 407.965C302.713 407.965 340.132 398.416 337.903 407.965C335.674 417.514 318.079 426.338 307.073 429.273C296.066 432.208 251.297 429.273 251.297 429.273L254.444 405.03Z" fill="white"/>
<path d="M287.62 431.7C271.55 431.7 252.43 430.467 251.257 430.389C250.941 430.363 250.647 430.215 250.436 429.978C250.338 429.855 250.265 429.714 250.221 429.563C250.178 429.412 250.164 429.254 250.182 429.097C250.182 429.097 253.271 405.03 253.29 404.854C253.466 403.504 255.069 402.897 262.244 401.626C263.3 401.43 264.199 401.273 264.453 401.176C268.363 400.041 272.449 399.219 276.399 398.436L278.901 397.927C287.953 396.108 297.297 394.229 306.486 395.051C309.379 395.325 313.289 395.99 313.817 398.671C314.247 400.863 311.862 403.269 309.282 405.245C318.587 403.289 334.149 400.726 338.098 404.6C338.573 405.058 338.912 405.638 339.081 406.276C339.25 406.914 339.241 407.586 339.056 408.22C336.73 418.296 319.154 427.238 307.405 430.369C303.612 431.367 296.027 431.7 287.62 431.7ZM252.626 428.158C259.898 428.608 297.122 430.702 306.818 428.158C318.118 425.145 334.814 416.418 336.808 407.711C336.903 407.464 336.922 407.194 336.863 406.936C336.803 406.678 336.669 406.444 336.476 406.263C333.113 402.956 314.15 406.263 302.987 409.1C302.712 409.165 302.423 409.128 302.175 408.994C301.926 408.861 301.735 408.641 301.638 408.376C301.534 408.113 301.533 407.82 301.635 407.556C301.736 407.291 301.932 407.075 302.185 406.948C306.955 404.463 311.96 400.745 311.549 399.121C311.432 398.514 309.985 397.693 306.271 397.36C297.415 396.558 288.246 398.417 279.351 400.197L276.848 400.706C272.938 401.469 268.911 402.271 265.118 403.406C264.766 403.504 263.828 403.68 262.674 403.895C260.264 404.262 257.885 404.812 255.558 405.539C255.187 408.2 253.212 423.677 252.626 428.158Z" fill="#231F20"/>
<path d="M157.495 241.766C156.733 243.723 86.7436 410.333 122.305 432.189C157.866 454.045 268.52 445.572 268.52 445.572L263.925 396.186L175.07 384.25L157.495 241.766Z" fill="#1DC9B7"/>
<path d="M260.015 397.341H259.819L155.579 380.807C155.275 380.757 155.004 380.59 154.824 380.34C154.645 380.091 154.571 379.78 154.621 379.476C154.67 379.173 154.838 378.901 155.087 378.721C155.336 378.541 155.647 378.468 155.95 378.517L260.191 395.051C260.491 395.099 260.76 395.264 260.939 395.51C261.118 395.755 261.194 396.062 261.149 396.362C261.111 396.635 260.975 396.885 260.766 397.065C260.557 397.245 260.29 397.343 260.015 397.341Z" fill="#231F20"/>
<path d="M169.773 380.826C169.467 380.826 169.173 380.705 168.957 380.488C168.741 380.272 168.619 379.978 168.619 379.672C168.326 352.083 175.931 282.602 176.009 281.838C176.053 281.536 176.211 281.261 176.451 281.072C176.691 280.883 176.995 280.793 177.299 280.821C177.602 280.855 177.879 281.009 178.07 281.247C178.26 281.485 178.349 281.789 178.316 282.093C178.316 282.797 170.652 352.141 170.926 379.594C170.931 379.746 170.906 379.898 170.851 380.04C170.797 380.182 170.714 380.312 170.608 380.421C170.502 380.531 170.376 380.618 170.235 380.678C170.095 380.737 169.944 380.768 169.792 380.768L169.773 380.826Z" fill="#231F20"/>
<path d="M381.303 404.267H249.419L272.39 322.42H404.275L381.303 404.267Z" fill="white"/>
<path d="M381.225 405.422H249.419C249.242 405.419 249.067 405.378 248.909 405.3C248.75 405.222 248.61 405.11 248.5 404.972C248.392 404.828 248.318 404.662 248.284 404.486C248.25 404.309 248.257 404.127 248.304 403.954L271.295 322.107C271.363 321.867 271.506 321.656 271.703 321.504C271.9 321.352 272.141 321.269 272.39 321.265H404.274C404.453 321.267 404.629 321.31 404.789 321.392C404.948 321.473 405.087 321.591 405.193 321.735C405.301 321.875 405.375 322.038 405.409 322.211C405.443 322.384 405.436 322.563 405.389 322.733L382.398 404.58C382.327 404.833 382.172 405.054 381.959 405.207C381.746 405.36 381.487 405.436 381.225 405.422ZM250.944 403.074H380.423L402.73 323.574H273.27L250.944 403.074Z" fill="#231F20"/>
<path d="M382.575 404.267H214.015V410.998H382.575V404.267Z" fill="white"/>
<path d="M382.575 412.152H214.015C213.863 412.155 213.711 412.127 213.57 412.07C213.429 412.013 213.301 411.928 213.193 411.82C213.086 411.712 213.001 411.584 212.944 411.443C212.887 411.301 212.859 411.15 212.861 410.998V404.267C212.859 404.115 212.887 403.963 212.944 403.822C213.001 403.681 213.086 403.552 213.193 403.445C213.301 403.337 213.429 403.252 213.57 403.195C213.711 403.138 213.863 403.11 214.015 403.112H382.575C382.881 403.112 383.174 403.234 383.39 403.451C383.607 403.667 383.728 403.961 383.728 404.267V410.998C383.728 411.304 383.607 411.598 383.39 411.814C383.174 412.031 382.881 412.152 382.575 412.152ZM215.168 409.843H381.343V405.421H215.168V409.843Z" fill="#231F20"/>
<path d="M251.375 404.267H214.015V410.998H251.375V404.267Z" fill="white"/>
<path d="M251.375 412.152H214.015C213.863 412.155 213.711 412.127 213.57 412.07C213.429 412.013 213.301 411.928 213.193 411.82C213.086 411.712 213.001 411.584 212.944 411.443C212.887 411.301 212.859 411.15 212.861 410.998V404.267C212.859 404.115 212.887 403.963 212.944 403.822C213.001 403.681 213.086 403.552 213.193 403.445C213.301 403.337 213.429 403.252 213.57 403.195C213.711 403.138 213.863 403.11 214.015 403.112H251.375C251.527 403.11 251.678 403.138 251.819 403.195C251.96 403.252 252.089 403.337 252.196 403.445C252.304 403.552 252.389 403.681 252.446 403.822C252.503 403.963 252.531 404.115 252.528 404.267V410.998C252.531 411.15 252.503 411.301 252.446 411.443C252.389 411.584 252.304 411.712 252.196 411.82C252.089 411.928 251.96 412.013 251.819 412.07C251.678 412.127 251.527 412.155 251.375 412.152ZM215.168 409.843H250.241V405.421H215.168V409.843Z" fill="#231F20"/>
<path d="M287.737 411.233C295.928 408.63 303.064 403.582 310.454 399.18C316.319 395.638 322.887 392.312 329.847 391.353C332.452 391.216 335.062 391.216 337.667 391.353C339.955 391.353 343.161 390.433 344.725 392.723C347.755 397.125 345.448 408.082 328.44 419.275" fill="white"/>
<path d="M328.44 420.488C328.194 420.484 327.956 420.402 327.76 420.253C327.564 420.105 327.42 419.897 327.351 419.661C327.281 419.425 327.288 419.173 327.371 418.942C327.455 418.71 327.61 418.512 327.814 418.375C337.198 412.192 343.278 405.108 344.49 398.945C344.742 398.026 344.808 397.067 344.684 396.123C344.559 395.178 344.248 394.269 343.767 393.447C342.946 392.234 341.323 392.273 339.114 392.468H337.726C336.612 392.528 335.496 392.528 334.383 392.468C332.927 392.321 331.46 392.321 330.004 392.468C323.244 393.745 316.805 396.352 311.06 400.138C309.535 401.039 308.01 401.978 306.485 402.917C300.76 406.788 294.581 409.942 288.089 412.309C287.796 412.395 287.481 412.364 287.21 412.221C286.94 412.079 286.736 411.836 286.642 411.546C286.549 411.255 286.576 410.94 286.715 410.668C286.854 410.397 287.095 410.192 287.385 410.098C293.697 407.785 299.705 404.71 305.273 400.941L309.867 398.143C315.537 394.777 322.321 391.196 329.671 390.179C331.283 390.013 332.908 390.013 334.52 390.179C335.595 390.179 336.592 390.296 337.628 390.179H338.899C341.05 390.003 344.021 389.729 345.683 392.136C346.334 393.214 346.764 394.411 346.948 395.657C347.133 396.903 347.068 398.174 346.758 399.395C345.976 403.308 342.653 411.37 329.065 420.292C328.882 420.421 328.664 420.489 328.44 420.488Z" fill="#231F20"/>
<path d="M589.433 367.58H405.663C405.48 367.583 405.299 367.543 405.135 367.462C404.971 367.38 404.83 367.26 404.722 367.112C404.615 366.964 404.544 366.793 404.518 366.612C404.491 366.431 404.508 366.246 404.568 366.073L484.84 116.754C484.911 116.518 485.056 116.311 485.253 116.163C485.45 116.016 485.689 115.935 485.935 115.933H669.705C669.89 115.932 670.071 115.976 670.235 116.061C670.398 116.146 670.539 116.27 670.644 116.422C670.749 116.57 670.819 116.741 670.85 116.92C670.88 117.1 670.87 117.284 670.82 117.459L590.547 366.777C590.472 367.013 590.323 367.218 590.122 367.362C589.922 367.507 589.68 367.583 589.433 367.58ZM407.188 365.271H588.592L668.219 118.261H486.795L407.188 365.271Z" fill="#231F20"/>
<path d="M559.13 153.833H497.528C497.386 153.836 497.245 153.803 497.119 153.738C496.993 153.674 496.885 153.579 496.804 153.462C496.715 153.35 496.656 153.218 496.632 153.078C496.608 152.938 496.62 152.794 496.667 152.659L503.959 130.04C504.018 129.858 504.133 129.699 504.287 129.586C504.442 129.474 504.628 129.413 504.82 129.414H566.461C566.603 129.412 566.743 129.444 566.869 129.509C566.995 129.574 567.104 129.669 567.184 129.786C567.269 129.903 567.325 130.038 567.349 130.181C567.372 130.323 567.363 130.469 567.321 130.608L560.029 153.207C559.969 153.396 559.848 153.56 559.685 153.673C559.523 153.786 559.327 153.843 559.13 153.833ZM498.72 152.033H558.484L565.19 131.214H505.465L498.72 152.033Z" fill="#584475"/>
<path d="M642.785 131.214H582.435C582.196 131.214 581.967 131.119 581.799 130.951C581.63 130.782 581.535 130.553 581.535 130.314C581.54 130.077 581.637 129.851 581.804 129.683C581.972 129.515 582.198 129.419 582.435 129.414H642.785C643.024 129.414 643.253 129.509 643.421 129.678C643.59 129.846 643.685 130.075 643.685 130.314C643.687 130.433 643.666 130.551 643.622 130.662C643.577 130.772 643.511 130.872 643.427 130.957C643.343 131.041 643.243 131.107 643.133 131.151C643.022 131.195 642.904 131.217 642.785 131.214Z" fill="#D1D3D4"/>
<path d="M638.17 145.537H577.82C577.701 145.54 577.583 145.518 577.472 145.474C577.362 145.43 577.262 145.363 577.178 145.279C577.094 145.195 577.028 145.095 576.983 144.984C576.939 144.874 576.918 144.756 576.92 144.637C576.92 144.398 577.015 144.169 577.184 144C577.352 143.832 577.581 143.737 577.82 143.737H638.17C638.409 143.737 638.638 143.832 638.806 144C638.975 144.169 639.07 144.398 639.07 144.637C639.072 144.756 639.051 144.874 639.007 144.984C638.962 145.095 638.896 145.195 638.812 145.279C638.728 145.363 638.628 145.43 638.518 145.474C638.407 145.518 638.289 145.54 638.17 145.537Z" fill="#D1D3D4"/>
<path d="M633.557 159.879H573.206C573.076 159.898 572.943 159.889 572.816 159.852C572.689 159.816 572.572 159.752 572.472 159.665C572.372 159.579 572.292 159.472 572.237 159.352C572.182 159.232 572.154 159.102 572.154 158.969C572.154 158.837 572.182 158.707 572.237 158.587C572.292 158.467 572.372 158.36 572.472 158.273C572.572 158.187 572.689 158.123 572.816 158.086C572.943 158.05 573.076 158.04 573.206 158.06H633.557C633.775 158.092 633.975 158.201 634.119 158.368C634.263 158.535 634.342 158.749 634.342 158.969C634.342 159.19 634.263 159.404 634.119 159.571C633.975 159.738 633.775 159.847 633.557 159.879Z" fill="#D1D3D4"/>
<path d="M628.943 174.143H568.572C568.354 174.111 568.155 174.002 568.01 173.835C567.866 173.668 567.787 173.454 567.787 173.234C567.787 173.013 567.866 172.799 568.01 172.632C568.155 172.465 568.354 172.356 568.572 172.324H628.943C629.161 172.356 629.36 172.465 629.504 172.632C629.649 172.799 629.728 173.013 629.728 173.234C629.728 173.454 629.649 173.668 629.504 173.835C629.36 174.002 629.161 174.111 628.943 174.143Z" fill="#D1D3D4"/>
<path d="M563.04 236.757H552.679C552.539 236.758 552.401 236.727 552.275 236.666C552.15 236.605 552.04 236.516 551.955 236.405C551.867 236.29 551.808 236.154 551.784 236.011C551.76 235.868 551.772 235.72 551.819 235.583L558.211 215.742C558.27 215.56 558.384 215.401 558.539 215.288C558.694 215.176 558.88 215.115 559.072 215.116H569.433C569.575 215.114 569.715 215.146 569.841 215.211C569.968 215.276 570.076 215.371 570.156 215.488C570.241 215.601 570.297 215.733 570.321 215.873C570.344 216.012 570.335 216.155 570.293 216.29L563.9 236.15C563.842 236.331 563.726 236.487 563.571 236.596C563.416 236.706 563.23 236.762 563.04 236.757ZM553.91 234.957H562.376L568.241 216.916H559.756L553.91 234.957Z" fill="#D1D3D4"/>
<path d="M587.008 236.757H576.725C576.586 236.754 576.449 236.721 576.324 236.661C576.2 236.6 576.089 236.512 576.001 236.405C575.917 236.288 575.861 236.152 575.837 236.01C575.813 235.867 575.823 235.721 575.865 235.583L587.712 198.895C587.766 198.715 587.878 198.556 588.029 198.443C588.18 198.331 588.364 198.27 588.552 198.269H598.934C599.074 198.272 599.213 198.306 599.339 198.371C599.464 198.435 599.573 198.528 599.657 198.641C599.738 198.756 599.791 198.889 599.811 199.028C599.831 199.168 599.819 199.31 599.774 199.443L587.868 236.17C587.806 236.347 587.689 236.499 587.534 236.604C587.38 236.71 587.195 236.763 587.008 236.757ZM577.898 234.957H586.363L597.604 200.069H589.139L577.898 234.957Z" fill="#D1D3D4"/>
<path d="M611.055 236.757H600.693C600.553 236.758 600.415 236.727 600.29 236.666C600.164 236.605 600.055 236.516 599.97 236.405C599.885 236.288 599.829 236.152 599.805 236.01C599.782 235.867 599.791 235.721 599.833 235.583L615.473 186.96C615.531 186.777 615.646 186.618 615.801 186.506C615.955 186.393 616.142 186.333 616.333 186.334H626.695C626.836 186.331 626.977 186.364 627.103 186.429C627.229 186.493 627.337 186.589 627.418 186.705C627.502 186.819 627.558 186.951 627.582 187.09C627.606 187.23 627.597 187.373 627.555 187.508L611.915 236.15C611.856 236.331 611.74 236.487 611.585 236.597C611.43 236.706 611.244 236.762 611.055 236.757ZM601.925 234.957H610.409L625.6 188.153H617.115L601.925 234.957Z" fill="#D1D3D4"/>
<path d="M620.087 236.757H543.588C543.468 236.759 543.349 236.738 543.238 236.694C543.126 236.65 543.025 236.584 542.939 236.5C542.854 236.416 542.786 236.316 542.739 236.206C542.693 236.095 542.669 235.976 542.669 235.857C542.674 235.616 542.773 235.387 542.945 235.219C543.117 235.051 543.348 234.956 543.588 234.957H620.087C620.326 234.957 620.554 235.051 620.723 235.22C620.892 235.389 620.986 235.618 620.986 235.857C620.989 235.976 620.968 236.094 620.923 236.204C620.879 236.315 620.813 236.415 620.729 236.499C620.645 236.583 620.545 236.649 620.434 236.694C620.324 236.738 620.206 236.759 620.087 236.757Z" fill="#D1D3D4"/>
<path d="M467.089 343.884H436.258C436.117 343.885 435.977 343.852 435.851 343.787C435.725 343.722 435.617 343.628 435.535 343.513C435.451 343.395 435.394 343.26 435.371 343.118C435.347 342.975 435.356 342.829 435.398 342.691L456.805 276.34C456.86 276.159 456.971 276.001 457.122 275.888C457.274 275.775 457.457 275.714 457.646 275.714H488.476C488.618 275.711 488.759 275.744 488.885 275.809C489.011 275.874 489.119 275.969 489.2 276.086C489.284 276.199 489.34 276.331 489.364 276.471C489.388 276.61 489.378 276.753 489.337 276.888L467.949 343.258C467.891 343.44 467.776 343.6 467.621 343.712C467.467 343.825 467.28 343.885 467.089 343.884ZM437.51 342.084H466.424L487.245 277.514H458.311L437.51 342.084Z" fill="#D1D3D4"/>
<path d="M542.025 340.715C531.917 340.715 523.55 336.801 518.467 329.855C513.013 322.361 511.918 312.245 515.398 301.483C522.279 280.156 545.211 262.82 566.54 262.82C566.68 262.818 566.818 262.849 566.944 262.91C567.069 262.971 567.179 263.061 567.264 263.172C567.348 263.289 567.404 263.424 567.428 263.567C567.452 263.709 567.443 263.855 567.401 263.994L555.514 300.857H592.366C592.508 300.855 592.648 300.887 592.774 300.952C592.901 301.017 593.009 301.112 593.089 301.229C593.178 301.34 593.237 301.472 593.261 301.612C593.285 301.753 593.273 301.897 593.226 302.031C586.266 323.359 563.334 340.715 542.025 340.715ZM517.118 302.031C513.814 312.265 514.811 321.774 519.914 328.798C524.664 335.314 532.504 338.895 542.025 338.895C562.22 338.895 583.94 322.752 591.037 302.657H554.283C554.141 302.66 554 302.627 553.874 302.562C553.748 302.498 553.64 302.402 553.559 302.286C553.47 302.174 553.411 302.042 553.387 301.902C553.364 301.762 553.376 301.618 553.422 301.483L565.309 264.639C545.055 265.285 523.648 281.819 517.118 302.031Z" fill="#D1D3D4"/>
<path d="M600.186 297.042H562.219C562.078 297.039 561.94 297.005 561.814 296.94C561.689 296.876 561.58 296.783 561.496 296.67C561.415 296.555 561.362 296.422 561.342 296.283C561.322 296.143 561.334 296.001 561.379 295.868L573.637 257.83C573.695 257.648 573.81 257.489 573.964 257.376C574.119 257.263 574.306 257.203 574.497 257.204C584.585 257.204 592.952 261.117 597.957 268.063C603.411 275.557 604.506 285.673 601.026 296.435C600.968 296.612 600.856 296.766 600.705 296.875C600.554 296.984 600.372 297.043 600.186 297.042ZM563.412 295.241H599.521C602.59 285.243 601.476 275.988 596.53 269.12C591.896 262.741 584.291 259.18 575.025 259.004L563.412 295.241Z" fill="#584475"/>
<path d="M501.067 342.045H479.797C479.558 342.045 479.33 341.95 479.161 341.781C478.992 341.613 478.898 341.384 478.898 341.145C478.895 341.026 478.916 340.908 478.961 340.797C479.005 340.687 479.071 340.587 479.155 340.503C479.239 340.418 479.339 340.352 479.45 340.308C479.56 340.264 479.678 340.242 479.797 340.245H501.067C501.186 340.242 501.304 340.264 501.415 340.308C501.525 340.352 501.625 340.418 501.709 340.503C501.793 340.587 501.859 340.687 501.904 340.797C501.948 340.908 501.969 341.026 501.967 341.145C501.967 341.384 501.872 341.613 501.703 341.781C501.535 341.95 501.306 342.045 501.067 342.045Z" fill="#D1D3D4"/>
<path d="M496.356 329.366H483.883C483.644 329.366 483.416 329.271 483.247 329.102C483.078 328.933 482.984 328.704 482.984 328.466C482.984 328.227 483.078 327.998 483.247 327.829C483.416 327.66 483.644 327.566 483.883 327.566H496.356C496.594 327.566 496.823 327.66 496.992 327.829C497.16 327.998 497.255 328.227 497.255 328.466C497.255 328.704 497.16 328.933 496.992 329.102C496.823 329.271 496.594 329.366 496.356 329.366Z" fill="#D1D3D4"/>
<path d="M497.978 244.72C488.712 244.72 481.009 241.159 476.336 234.722C471.312 227.834 470.315 218.579 473.521 208.639C479.836 189.073 500.891 173.126 520.441 173.126C529.728 173.126 537.411 176.668 542.103 183.105C547.108 189.992 548.105 199.267 544.918 209.187C538.642 228.774 517.567 244.72 497.978 244.72ZM520.48 174.926C501.615 174.926 481.38 190.306 475.222 209.187C472.211 218.56 473.111 227.247 477.783 233.665C482.123 239.535 489.298 242.901 497.978 242.901C516.844 242.901 537.078 227.541 543.237 208.639C546.267 199.267 545.348 190.579 540.676 184.162C536.355 178.213 529.18 174.926 520.48 174.926Z" fill="#D1D3D4"/>
<path d="M623.645 444.594H509.512C509.33 444.594 509.15 444.552 508.987 444.47C508.824 444.389 508.683 444.27 508.573 444.124C508.467 443.976 508.398 443.805 508.371 443.625C508.343 443.444 508.359 443.26 508.417 443.087L538.876 348.6C538.947 348.366 539.093 348.161 539.29 348.017C539.487 347.872 539.726 347.795 539.971 347.798H654.162C654.346 347.797 654.527 347.841 654.69 347.924C654.854 348.008 654.995 348.13 655.102 348.279C655.209 348.428 655.279 348.601 655.306 348.783C655.333 348.964 655.316 349.15 655.257 349.324L624.798 443.792C624.724 444.036 624.57 444.248 624.36 444.393C624.151 444.539 623.899 444.609 623.645 444.594ZM511.115 442.207H622.863L652.559 350.048H540.811L511.115 442.207Z" fill="#584475"/>
<path d="M477.255 483.766H382.575C382.392 483.766 382.213 483.724 382.05 483.643C381.887 483.561 381.745 483.443 381.636 483.297C381.522 483.153 381.446 482.982 381.416 482.801C381.385 482.62 381.4 482.434 381.46 482.26L406.719 403.993C406.793 403.761 406.939 403.558 407.136 403.414C407.333 403.27 407.57 403.192 407.814 403.191H502.436C502.618 403.191 502.797 403.233 502.96 403.315C503.123 403.396 503.265 403.515 503.374 403.661C503.48 403.809 503.549 403.98 503.577 404.16C503.604 404.34 503.588 404.525 503.53 404.698L478.272 482.964C478.207 483.187 478.074 483.384 477.892 483.528C477.71 483.672 477.487 483.755 477.255 483.766ZM384.158 481.458H476.414L500.911 405.422H408.596L384.158 481.458Z" fill="#231F20"/>
<path d="M497.527 420.488H402.964C402.658 420.488 402.365 420.366 402.149 420.15C401.932 419.933 401.811 419.64 401.811 419.333C401.811 419.027 401.932 418.734 402.149 418.517C402.365 418.301 402.658 418.179 402.964 418.179H497.527C497.833 418.179 498.127 418.301 498.343 418.517C498.559 418.734 498.681 419.027 498.681 419.333C498.681 419.64 498.559 419.933 498.343 420.15C498.127 420.366 497.833 420.488 497.527 420.488Z" fill="#231F20"/>
<path d="M632.912 378.635H543.588C543.468 378.637 543.349 378.616 543.238 378.572C543.126 378.528 543.025 378.462 542.939 378.378C542.854 378.294 542.786 378.194 542.739 378.084C542.693 377.973 542.669 377.854 542.669 377.735C542.674 377.494 542.773 377.265 542.945 377.097C543.117 376.929 543.348 376.834 543.588 376.834H632.912C633.149 376.839 633.375 376.936 633.542 377.104C633.71 377.271 633.806 377.497 633.811 377.735C633.811 377.973 633.717 378.202 633.548 378.371C633.379 378.54 633.15 378.635 632.912 378.635Z" fill="#D1D3D4"/>
<path d="M628.943 392.096H610.703C610.464 392.096 610.236 392.002 610.067 391.833C609.898 391.664 609.804 391.435 609.804 391.196C609.809 390.959 609.905 390.733 610.073 390.566C610.24 390.398 610.466 390.301 610.703 390.296H628.943C629.18 390.301 629.406 390.398 629.574 390.566C629.741 390.733 629.837 390.959 629.842 391.196C629.842 391.435 629.748 391.664 629.579 391.833C629.41 392.002 629.182 392.096 628.943 392.096Z" fill="#D1D3D4"/>
<path d="M597.859 392.097H575.474C575.236 392.097 575.007 392.002 574.838 391.833C574.67 391.664 574.575 391.435 574.575 391.196C574.58 390.959 574.676 390.733 574.844 390.566C575.011 390.398 575.237 390.301 575.474 390.296H597.859C598.097 390.296 598.326 390.391 598.495 390.56C598.663 390.729 598.758 390.958 598.758 391.196C598.761 391.315 598.739 391.434 598.695 391.544C598.651 391.654 598.585 391.755 598.501 391.839C598.417 391.923 598.316 391.989 598.206 392.033C598.096 392.078 597.978 392.099 597.859 392.097Z" fill="#D1D3D4"/>
<path d="M560.617 392.096H539.581C539.342 392.096 539.114 392.002 538.945 391.833C538.776 391.664 538.682 391.435 538.682 391.196C538.687 390.959 538.783 390.733 538.951 390.566C539.118 390.398 539.344 390.301 539.581 390.296H560.597C560.834 390.301 561.06 390.398 561.228 390.566C561.395 390.733 561.491 390.959 561.496 391.196C561.497 391.432 561.404 391.658 561.24 391.826C561.076 391.994 560.852 392.091 560.617 392.096Z" fill="#D1D3D4"/>
<path d="M624.545 406.733H557.176C557.057 406.735 556.939 406.714 556.829 406.669C556.718 406.625 556.618 406.559 556.534 406.475C556.45 406.391 556.384 406.29 556.34 406.18C556.295 406.07 556.274 405.951 556.277 405.833C556.301 405.611 556.406 405.407 556.572 405.258C556.738 405.11 556.953 405.029 557.176 405.03H624.584C624.821 405.035 625.047 405.132 625.215 405.299C625.382 405.467 625.479 405.693 625.484 405.93C625.459 406.159 625.348 406.369 625.174 406.518C624.999 406.667 624.774 406.744 624.545 406.733Z" fill="#D1D3D4"/>
<path d="M544.664 406.732H535.221C535.102 406.735 534.984 406.713 534.874 406.669C534.763 406.625 534.663 406.559 534.579 406.475C534.495 406.39 534.429 406.29 534.385 406.18C534.341 406.069 534.319 405.951 534.322 405.832C534.322 405.593 534.417 405.365 534.585 405.196C534.754 405.027 534.983 404.932 535.221 404.932H544.664C544.901 404.937 545.127 405.034 545.294 405.201C545.462 405.369 545.558 405.595 545.563 405.832C545.563 406.071 545.468 406.3 545.3 406.469C545.131 406.637 544.902 406.732 544.664 406.732Z" fill="#D1D3D4"/>
<path d="M618.738 421.388H594.75C594.532 421.356 594.332 421.246 594.188 421.079C594.044 420.912 593.965 420.699 593.965 420.478C593.965 420.257 594.044 420.044 594.188 419.877C594.332 419.71 594.532 419.6 594.75 419.568H618.738C618.956 419.6 619.155 419.71 619.3 419.877C619.444 420.044 619.523 420.257 619.523 420.478C619.523 420.699 619.444 420.912 619.3 421.079C619.155 421.246 618.956 421.356 618.738 421.388Z" fill="#D1D3D4"/>
<path d="M576.217 421.388H529.414C529.196 421.356 528.996 421.246 528.852 421.079C528.708 420.912 528.629 420.699 528.629 420.478C528.629 420.257 528.708 420.044 528.852 419.877C528.996 419.71 529.196 419.6 529.414 419.568H576.217C576.435 419.6 576.634 419.71 576.778 419.877C576.923 420.044 577.002 420.257 577.002 420.478C577.002 420.699 576.923 420.912 576.778 421.079C576.634 421.246 576.435 421.356 576.217 421.388Z" fill="#D1D3D4"/>
<path d="M493.658 237.05C493.352 237.025 493.067 236.883 492.863 236.654C492.659 236.424 492.552 236.124 492.563 235.817C493.071 225.858 488.946 221.788 488.907 221.749C488.693 221.533 488.573 221.241 488.573 220.937C488.573 220.633 488.693 220.341 488.907 220.125C489.013 220.017 489.139 219.931 489.278 219.872C489.418 219.813 489.567 219.783 489.718 219.783C489.87 219.783 490.019 219.813 490.159 219.872C490.298 219.931 490.424 220.017 490.53 220.125C490.725 220.301 495.495 224.86 494.928 235.994C494.899 236.302 494.748 236.586 494.51 236.784C494.272 236.982 493.966 237.077 493.658 237.05Z" fill="#231F20"/>
<path d="M438.428 427.316L441.889 426.377L443.687 425.966C444.017 425.853 444.377 425.874 444.692 426.024C445.006 426.174 445.249 426.441 445.369 426.769C445.623 427.532 445.799 428.354 446.014 429.136C446.1 429.566 446.231 429.986 446.405 430.388C446.468 430.533 446.562 430.662 446.681 430.767C446.799 430.871 446.938 430.949 447.089 430.995C448.379 431.269 449.709 431.484 450.999 431.68C451.257 431.696 451.517 431.657 451.759 431.566C452.002 431.475 452.222 431.334 452.407 431.152L455.085 428.764C455.425 428.456 455.799 428.187 456.199 427.962C456.48 427.811 456.808 427.769 457.118 427.845C458.718 428.548 460.18 429.528 461.439 430.741C461.631 430.943 461.746 431.207 461.764 431.486C461.782 431.765 461.701 432.041 461.536 432.267C460.95 433.343 460.383 434.419 459.777 435.476C459.533 435.799 459.39 436.186 459.366 436.59C459.342 436.994 459.437 437.396 459.64 437.746C460.168 438.646 460.657 439.585 461.184 440.485C461.285 440.656 461.432 440.795 461.608 440.886C461.785 440.976 461.984 441.013 462.182 440.994H464.391H466.346C467.01 440.994 467.46 441.326 467.499 441.991C467.636 443.616 467.753 445.24 467.812 446.883C467.803 447.225 467.695 447.557 467.5 447.839C467.306 448.12 467.034 448.339 466.717 448.468C465.857 448.899 464.958 449.231 464.078 449.622C463.667 449.799 463.237 449.994 462.846 450.209C462.578 450.332 462.337 450.508 462.139 450.726C461.94 450.945 461.789 451.202 461.693 451.481C461.282 452.616 460.891 453.771 460.442 454.906C460.296 455.203 460.243 455.536 460.288 455.864C460.334 456.192 460.475 456.498 460.696 456.745L462.807 459.093C463.083 459.371 463.238 459.747 463.238 460.14C463.238 460.532 463.083 460.908 462.807 461.186C461.791 462.497 460.852 463.789 459.699 465.1C459.463 465.492 459.097 465.789 458.665 465.939C458.232 466.09 457.761 466.083 457.333 465.922C456.668 465.706 456.023 465.413 455.378 465.178C454.733 464.943 454.42 464.845 453.931 464.708C453.704 464.655 453.469 464.65 453.24 464.694C453.011 464.738 452.793 464.829 452.602 464.963C451.488 465.667 450.373 466.372 449.279 467.096C448.985 467.28 448.735 467.525 448.546 467.816C448.357 468.107 448.233 468.435 448.184 468.778C448.086 469.541 448.008 470.304 447.89 471.048C447.829 471.529 447.738 472.007 447.617 472.476C447.546 472.82 447.377 473.136 447.131 473.386C446.884 473.636 446.571 473.809 446.229 473.885L441.556 475.04C441.322 475.04 441.068 475.04 440.833 475.04C440.586 475.073 440.336 475.016 440.128 474.879C439.919 474.743 439.767 474.536 439.699 474.296L438.937 471.459V471.244C438.875 470.829 438.664 470.451 438.344 470.181C438.023 469.911 437.615 469.767 437.197 469.776C436.317 469.776 435.476 469.502 434.616 469.365C434.188 469.301 433.75 469.342 433.341 469.485C432.932 469.628 432.565 469.869 432.27 470.187C431.429 470.97 430.589 471.752 429.729 472.496C428.868 473.239 428.282 473.376 427.441 472.848C426.249 472.085 425.076 471.283 423.922 470.461C423.297 470.011 423.218 469.444 423.629 468.622C424.039 467.8 424.548 466.939 425.017 466.098C426.034 464.278 426.053 463.984 425.193 462.458L424.157 460.697C423.993 460.357 423.717 460.084 423.375 459.923C423.033 459.763 422.646 459.725 422.28 459.817C421.4 459.817 420.501 459.973 419.621 459.993C419.199 459.978 418.78 459.919 418.37 459.817C418.168 459.807 417.976 459.721 417.835 459.575C417.694 459.43 417.612 459.237 417.608 459.034C417.608 457.469 417.432 455.903 417.353 454.358C417.335 454.136 417.335 453.914 417.353 453.692C417.393 453.409 417.506 453.141 417.68 452.914C417.855 452.688 418.086 452.511 418.35 452.401L421.439 451.051L422.358 450.581C422.61 450.463 422.836 450.294 423.02 450.085C423.205 449.877 423.346 449.633 423.433 449.368C423.805 448.272 424.196 447.157 424.587 446.061C424.713 445.779 424.751 445.466 424.695 445.162C424.639 444.858 424.492 444.578 424.274 444.359L422.319 442.265C421.557 441.326 421.537 440.876 422.456 439.722C423.375 438.567 424.411 437.159 425.584 435.906C425.782 435.586 426.087 435.346 426.444 435.228C426.802 435.11 427.189 435.121 427.539 435.261C428.438 435.574 429.318 435.906 430.178 436.298C430.622 436.489 431.11 436.555 431.588 436.489C432.067 436.424 432.519 436.229 432.896 435.926C433.873 435.241 434.851 434.615 435.848 433.969C436.053 433.842 436.231 433.674 436.369 433.475C436.506 433.277 436.602 433.052 436.649 432.815C436.825 431.739 436.982 430.682 437.158 429.625C437.226 428.905 437.513 428.222 437.979 427.669L438.428 427.316ZM446.581 458.78C451.918 455.532 454.303 449.231 452.016 444.516C450.061 440.602 444.196 438.646 438.331 442.128C433.111 445.318 430.647 451.677 432.876 456.236C435.574 461.617 442.475 461.597 446.581 458.78Z" fill="#584475"/>
<path d="M440.735 476.116C440.232 476.157 439.73 476.021 439.316 475.732C438.902 475.442 438.602 475.018 438.467 474.531L437.705 471.674V471.4C437.705 471.087 437.588 470.911 437.001 470.852C436.415 470.794 435.73 470.676 435.046 470.578L434.264 470.441C434.012 470.405 433.754 470.432 433.515 470.521C433.276 470.61 433.063 470.758 432.896 470.95C432.062 471.759 431.201 472.542 430.315 473.298C429.871 473.815 429.25 474.148 428.574 474.231C427.898 474.314 427.215 474.142 426.659 473.748C425.447 472.965 424.255 472.163 423.101 471.322C422.839 471.15 422.613 470.928 422.437 470.668C422.262 470.408 422.139 470.115 422.077 469.808C422.015 469.5 422.015 469.183 422.077 468.875C422.139 468.568 422.261 468.275 422.436 468.015C422.788 467.311 423.179 466.626 423.57 465.921L423.844 465.452C424.646 464.043 424.646 464.043 424.02 462.967L423.003 461.206C422.953 461.099 422.866 461.013 422.759 460.963C422.652 460.913 422.531 460.902 422.417 460.932H421.537L419.719 461.03C419.189 461.053 418.658 461.021 418.135 460.932C417.659 460.874 417.22 460.643 416.902 460.282C416.585 459.921 416.412 459.456 416.415 458.975L416.317 457.43C416.317 456.373 416.22 455.336 416.161 454.279C416.128 454 416.128 453.717 416.161 453.438C416.23 452.957 416.421 452.501 416.715 452.114C417.009 451.727 417.397 451.422 417.842 451.227L420.931 449.877L421.752 449.466C421.88 449.412 421.994 449.332 422.089 449.231C422.183 449.13 422.255 449.01 422.3 448.879C422.651 447.842 423.023 446.922 423.375 445.787V445.553C423.492 445.22 423.375 445.142 423.375 445.024L421.987 443.498L421.478 442.931C421.19 442.67 420.959 442.352 420.8 441.996C420.642 441.641 420.561 441.256 420.561 440.866C420.561 440.477 420.642 440.092 420.8 439.737C420.959 439.381 421.19 439.063 421.478 438.802C422.495 437.491 423.57 436.219 424.646 434.889C424.996 434.382 425.508 434.009 426.097 433.831C426.687 433.653 427.319 433.681 427.891 433.91C428.829 434.243 429.846 434.576 430.628 434.987C430.891 435.095 431.179 435.127 431.459 435.079C431.739 435.03 432 434.903 432.211 434.713C432.817 434.282 433.443 433.871 434.166 433.46L435.281 432.736C435.554 432.56 435.574 432.404 435.574 432.345L435.789 431.034C435.887 430.408 435.985 429.782 436.102 429.077C436.187 428.113 436.577 427.201 437.216 426.475C437.285 426.4 437.364 426.334 437.451 426.279L437.822 426.064C437.912 426.003 438.011 425.957 438.116 425.927L439.073 425.673L441.595 424.988C442.221 424.812 442.827 424.695 443.55 424.558C444.157 424.383 444.808 424.447 445.368 424.739C445.928 425.03 446.355 425.526 446.561 426.123C446.737 426.651 446.874 427.199 447.011 427.747L447.324 428.901C447.375 429.136 447.447 429.365 447.539 429.586C448.692 429.86 449.982 430.075 451.292 430.271C451.472 430.227 451.635 430.132 451.761 429.997L452.915 428.96L454.44 427.63C454.851 427.254 455.304 426.926 455.789 426.651C456.089 426.498 456.416 426.407 456.752 426.383C457.088 426.36 457.425 426.404 457.744 426.514C459.471 427.277 461.047 428.344 462.397 429.664C462.764 430.044 462.992 430.536 463.046 431.061C463.099 431.587 462.974 432.115 462.69 432.56L462.064 433.715C461.693 434.4 461.321 435.104 460.911 435.789C460.5 436.474 460.657 436.708 460.754 436.865C461.126 437.452 461.439 438.059 461.771 438.665L462.318 439.643C462.743 439.557 463.175 439.511 463.609 439.506H464.84C465.388 439.506 465.916 439.506 466.443 439.506C466.729 439.491 467.014 439.531 467.283 439.626C467.553 439.721 467.801 439.868 468.013 440.059C468.226 440.25 468.398 440.48 468.522 440.738C468.645 440.996 468.716 441.276 468.731 441.561C468.868 443.205 468.985 444.848 469.044 446.492C469.055 447.059 468.898 447.617 468.591 448.094C468.285 448.572 467.844 448.947 467.323 449.172C466.717 449.466 466.111 449.72 465.505 449.975L464.625 450.346L463.452 450.894C463.175 451.024 462.958 451.255 462.846 451.54L462.573 452.303C462.26 453.203 461.947 454.103 461.595 454.984C461.439 455.395 461.595 455.512 461.595 455.649C461.595 455.786 462.279 456.412 462.631 456.803C462.983 457.195 463.355 457.586 463.706 457.997C464.159 458.479 464.41 459.116 464.41 459.778C464.41 460.439 464.159 461.076 463.706 461.558C462.67 462.869 461.634 464.18 460.578 465.471C460.205 466.057 459.642 466.496 458.983 466.713C458.324 466.931 457.61 466.914 456.962 466.665L455.73 466.215L454.968 465.921C454.521 465.749 454.064 465.605 453.599 465.491C453.599 465.491 453.423 465.491 453.208 465.589L452.524 466.019L449.904 467.702C449.746 467.795 449.611 467.922 449.51 468.075C449.408 468.227 449.343 468.401 449.318 468.583L449.181 469.58C449.181 470.011 449.083 470.441 449.024 470.872C448.966 471.302 448.848 471.889 448.731 472.398C448.606 472.946 448.332 473.448 447.938 473.849C447.545 474.25 447.048 474.533 446.502 474.668L441.81 475.803C441.515 475.869 441.214 475.902 440.911 475.9L440.735 476.116ZM440.559 473.787L440.716 474.961V473.787H441.126C442.69 473.416 444.235 473.044 445.799 472.633C446.014 472.633 446.229 472.476 446.346 472.065C446.463 471.655 446.522 471.205 446.581 470.774L446.757 469.522L446.893 468.504C446.962 467.998 447.141 467.512 447.418 467.083C447.695 466.654 448.064 466.29 448.497 466.019L451.155 464.297L451.82 463.867C452.147 463.648 452.516 463.5 452.903 463.433C453.29 463.366 453.687 463.38 454.068 463.476C454.596 463.613 455.104 463.789 455.613 463.965L456.453 464.297L457.529 464.689C457.978 464.845 458.135 464.884 458.643 464.239C459.699 462.967 460.715 461.676 461.732 460.325C462.045 459.934 461.986 459.875 461.849 459.719L460.813 458.545L459.757 457.351C459.392 456.951 459.152 456.451 459.069 455.915C458.985 455.38 459.062 454.831 459.288 454.338C459.62 453.477 459.933 452.597 460.246 451.736L460.52 450.953C460.807 450.102 461.418 449.398 462.221 448.996C462.651 448.781 463.1 448.566 463.531 448.39L464.449 447.998C465.016 447.764 465.564 447.529 466.111 447.255C466.326 447.137 466.58 446.942 466.58 446.746C466.58 445.122 466.404 443.498 466.267 441.894C465.768 441.961 465.266 442 464.762 442.011H463.531H462.182C461.791 442.004 461.407 441.901 461.066 441.71C460.725 441.518 460.437 441.245 460.227 440.915L459.66 439.917C459.347 439.35 459.034 438.763 458.702 438.215C458.388 437.686 458.235 437.078 458.259 436.463C458.283 435.849 458.485 435.254 458.838 434.752C459.229 434.087 459.581 433.421 459.933 432.795L460.578 431.621C460.592 431.55 460.592 431.477 460.578 431.406C459.457 430.368 458.176 429.516 456.786 428.882C456.435 429.054 456.112 429.279 455.828 429.547L454.322 430.878L453.149 431.915C452.848 432.217 452.482 432.448 452.08 432.59C451.677 432.732 451.248 432.782 450.823 432.736C449.474 432.541 448.125 432.326 446.815 432.032C446.501 431.948 446.207 431.798 445.954 431.592C445.702 431.387 445.495 431.13 445.349 430.838C445.166 430.458 445.028 430.057 444.938 429.645L444.645 428.51C444.508 428.001 444.391 427.512 444.235 427.043C444.235 427.043 444.098 427.043 443.883 427.043L442.143 427.434L439.66 428.119L438.761 428.393C438.519 428.775 438.378 429.213 438.35 429.664L437.822 432.854C437.761 433.254 437.614 433.636 437.392 433.974C437.169 434.312 436.876 434.597 436.532 434.81L435.398 435.554L433.58 436.787C433.036 437.22 432.382 437.493 431.691 437.576C431.001 437.659 430.301 437.548 429.67 437.256C428.849 436.885 428.008 436.572 427.128 436.258C426.796 436.141 426.757 436.141 426.405 436.552C425.349 437.804 424.294 439.056 423.297 440.328C423.117 440.543 422.966 440.78 422.847 441.033C422.847 441.033 422.847 441.15 423.16 441.444L423.707 442.05C424.137 442.559 424.587 443.048 425.037 443.537C425.404 443.911 425.653 444.385 425.754 444.9C425.855 445.415 425.802 445.948 425.604 446.433V446.648L424.528 449.72C424.394 450.122 424.181 450.493 423.903 450.812C423.624 451.131 423.285 451.392 422.906 451.579C422.573 451.775 422.241 451.931 421.909 452.088L418.82 453.438C418.733 453.474 418.658 453.533 418.603 453.609C418.547 453.685 418.514 453.775 418.507 453.868C418.497 454.005 418.497 454.143 418.507 454.279C418.507 455.316 418.507 456.353 418.663 457.41V458.682C418.975 458.709 419.289 458.709 419.602 458.682L421.322 458.584H422.221C422.77 458.525 423.324 458.63 423.814 458.884C424.304 459.138 424.709 459.53 424.978 460.012L425.995 461.793C426.519 462.486 426.789 463.339 426.761 464.208C426.732 465.077 426.407 465.91 425.838 466.567L425.564 467.056C425.193 467.702 424.802 468.367 424.47 469.013C424.4 469.12 424.354 469.24 424.333 469.365C425.545 470.187 426.698 470.97 427.871 471.733L428.184 471.889C428.403 471.79 428.602 471.65 428.771 471.478C429.611 470.735 430.452 469.972 431.273 469.189C431.697 468.751 432.221 468.423 432.8 468.232C433.379 468.042 433.995 467.994 434.597 468.093L435.418 468.23C435.965 468.23 436.532 468.426 437.118 468.485C437.787 468.499 438.429 468.748 438.933 469.188C439.436 469.628 439.77 470.231 439.875 470.891L440.696 473.846C440.656 473.816 440.609 473.796 440.559 473.787ZM440.559 461.812C439.623 461.816 438.689 461.698 437.783 461.46C436.515 461.165 435.329 460.588 434.314 459.771C433.298 458.955 432.48 457.921 431.918 456.745C429.416 451.657 432.055 444.653 437.783 441.091C439.213 440.162 440.822 439.545 442.506 439.278C444.19 439.012 445.912 439.103 447.558 439.546C448.729 439.863 449.822 440.419 450.768 441.18C451.714 441.942 452.491 442.891 453.052 443.968C455.613 449.231 453.052 456.138 447.187 459.719C445.199 461.057 442.857 461.772 440.462 461.773L440.559 461.812ZM444.587 441.463C442.63 441.496 440.722 442.071 439.073 443.126C434.421 445.963 432.133 451.736 434.088 455.727C434.501 456.59 435.099 457.351 435.839 457.956C436.579 458.561 437.443 458.996 438.37 459.23C439.675 459.533 441.029 459.565 442.348 459.323C443.666 459.08 444.921 458.569 446.033 457.821C450.882 454.886 453.071 449.27 451.038 445.044C450.616 444.261 450.038 443.573 449.338 443.024C448.638 442.475 447.832 442.077 446.972 441.855C446.168 441.601 445.331 441.469 444.489 441.463H444.587Z" fill="#584475"/>
<path d="M403.648 145.772H367.539C367.321 145.74 367.122 145.63 366.978 145.463C366.834 145.296 366.754 145.083 366.754 144.862C366.754 144.641 366.834 144.428 366.978 144.261C367.122 144.094 367.321 143.984 367.539 143.952H403.59C403.808 143.984 404.007 144.094 404.151 144.261C404.296 144.428 404.375 144.641 404.375 144.862C404.375 145.083 404.296 145.296 404.151 145.463C404.007 145.63 403.808 145.74 403.59 145.772H403.648Z" fill="#D1D3D4"/>
</svg>
