<svg width="794" height="596" viewBox="0 0 794 596" fill="none" xmlns="http://www.w3.org/2000/svg">
<path d="M222.817 364.653L575.492 364.653C584.635 364.653 592.047 357.235 592.047 348.084V141.51C592.047 132.36 584.635 124.942 575.492 124.942L222.817 124.942C213.674 124.942 206.262 132.36 206.262 141.51V348.084C206.262 357.235 213.674 364.653 222.817 364.653Z" fill="white"/>
<path d="M575.491 365.646H222.836C218.184 365.641 213.724 363.789 210.434 360.496C207.144 357.204 205.294 352.74 205.289 348.084V141.471C205.294 136.814 207.144 132.35 210.434 129.058C213.724 125.766 218.184 123.914 222.836 123.908H575.491C580.143 123.914 584.604 125.766 587.893 129.058C591.183 132.35 593.033 136.814 593.038 141.471V348.084C593.033 352.74 591.183 357.204 587.893 360.496C584.604 363.789 580.143 365.641 575.491 365.646ZM222.836 125.935C218.71 125.94 214.755 127.583 211.838 130.503C208.92 133.422 207.279 137.381 207.274 141.51V348.124C207.279 352.253 208.92 356.211 211.838 359.131C214.755 362.051 218.71 363.694 222.836 363.699H575.491C579.617 363.694 583.572 362.051 586.49 359.131C589.407 356.211 591.048 352.253 591.053 348.124V141.51C591.048 137.381 589.407 133.422 586.49 130.503C583.572 127.583 579.617 125.94 575.491 125.935H222.836Z" fill="#231F20"/>
<path d="M241.555 345.879L556.793 345.879C564.719 345.879 571.145 339.448 571.145 331.515V158.079C571.145 150.146 564.719 143.715 556.793 143.715L241.555 143.715C233.629 143.715 227.204 150.146 227.204 158.079V331.515C227.204 339.448 233.629 345.879 241.555 345.879Z" fill="white"/>
<path d="M556.773 346.872H241.555C237.483 346.872 233.579 345.255 230.698 342.375C227.817 339.496 226.196 335.59 226.191 331.515V158.079C226.196 154.004 227.817 150.098 230.698 147.219C233.579 144.339 237.483 142.722 241.555 142.722H556.773C560.844 142.722 564.749 144.339 567.63 147.219C570.51 150.098 572.131 154.004 572.137 158.079V331.515C572.131 335.59 570.51 339.496 567.63 342.375C564.749 345.255 560.844 346.872 556.773 346.872ZM241.555 144.709C238.027 144.735 234.653 146.155 232.165 148.659C229.678 151.163 228.28 154.548 228.275 158.079V331.515C228.28 335.063 229.692 338.464 232.201 340.971C234.709 343.477 238.109 344.885 241.654 344.885H556.872C560.417 344.885 563.817 343.477 566.325 340.971C568.834 338.464 570.246 335.063 570.251 331.515V158.079C570.246 154.531 568.834 151.131 566.325 148.624C563.817 146.117 560.417 144.709 556.872 144.709H241.555Z" fill="#D1D3D4"/>
<path d="M441.048 225.805H406.052V264.406H441.048V225.805Z" fill="white"/>
<path d="M441.048 265.399H406.052C405.789 265.399 405.536 265.294 405.35 265.108C405.164 264.922 405.06 264.669 405.06 264.405V225.805C405.06 225.541 405.164 225.289 405.35 225.102C405.536 224.916 405.789 224.811 406.052 224.811H441.048C441.311 224.811 441.563 224.916 441.749 225.102C441.936 225.289 442.04 225.541 442.04 225.805V264.405C442.04 264.669 441.936 264.922 441.749 265.108C441.563 265.294 441.311 265.399 441.048 265.399ZM407.045 263.412H440.055V226.798H407.045V263.412Z" fill="#D1D3D4"/>
<path d="M498.235 193.005H463.24V264.405H498.235V193.005Z" fill="white"/>
<path d="M498.235 265.399H463.24C462.976 265.399 462.724 265.294 462.538 265.108C462.352 264.922 462.247 264.669 462.247 264.406V193.005C462.247 192.741 462.352 192.489 462.538 192.302C462.724 192.116 462.976 192.011 463.24 192.011H498.235C498.498 192.011 498.751 192.116 498.937 192.302C499.123 192.489 499.228 192.741 499.228 193.005V264.406C499.223 264.667 499.116 264.917 498.931 265.102C498.746 265.288 498.497 265.394 498.235 265.399ZM464.232 263.412H497.243V193.998H464.232V263.412Z" fill="#D1D3D4"/>
<path d="M555.403 164.715H520.407V264.406H555.403V164.715Z" fill="#584475"/>
<path d="M332.388 184.502H253.842C253.578 184.502 253.326 184.397 253.14 184.211C252.954 184.025 252.849 183.772 252.849 183.508C252.849 183.245 252.954 182.992 253.14 182.806C253.326 182.62 253.578 182.515 253.842 182.515H332.388C332.651 182.515 332.904 182.62 333.09 182.806C333.276 182.992 333.381 183.245 333.381 183.508C333.381 183.772 333.276 184.025 333.09 184.211C332.904 184.397 332.651 184.502 332.388 184.502Z" fill="#D1D3D4"/>
<path d="M332.388 206.037H253.842C253.578 206.037 253.326 205.933 253.14 205.746C252.954 205.56 252.849 205.307 252.849 205.044C252.849 204.78 252.954 204.528 253.14 204.341C253.326 204.155 253.578 204.051 253.842 204.051H332.388C332.651 204.051 332.904 204.155 333.09 204.341C333.276 204.528 333.381 204.78 333.381 205.044C333.381 205.307 333.276 205.56 333.09 205.746C332.904 205.933 332.651 206.037 332.388 206.037Z" fill="#D1D3D4"/>
<path d="M312.121 227.593H253.842C253.578 227.593 253.326 227.488 253.14 227.302C252.954 227.115 252.849 226.863 252.849 226.599C252.849 226.336 252.954 226.083 253.14 225.897C253.326 225.711 253.578 225.606 253.842 225.606H312.121C312.385 225.606 312.637 225.711 312.823 225.897C313.009 226.083 313.114 226.336 313.114 226.599C313.114 226.863 313.009 227.115 312.823 227.302C312.637 227.488 312.385 227.593 312.121 227.593Z" fill="#D1D3D4"/>
<path d="M551.254 298.993H458.535C458.272 298.993 458.019 298.889 457.833 298.702C457.647 298.516 457.542 298.263 457.542 298C457.542 297.736 457.647 297.484 457.833 297.298C458.019 297.111 458.272 297.007 458.535 297.007H551.215C551.478 297.007 551.73 297.111 551.916 297.298C552.103 297.484 552.207 297.736 552.207 298C552.207 298.263 552.103 298.516 551.916 298.702C551.73 298.889 551.478 298.993 551.215 298.993H551.254Z" fill="#D1D3D4"/>
<path d="M533.965 319.853H458.535C458.272 319.853 458.019 319.749 457.833 319.562C457.647 319.376 457.542 319.123 457.542 318.86C457.548 318.598 457.654 318.348 457.839 318.163C458.024 317.978 458.273 317.872 458.535 317.867H533.965C534.228 317.867 534.481 317.971 534.667 318.158C534.853 318.344 534.957 318.597 534.957 318.86C534.957 319.123 534.853 319.376 534.667 319.562C534.481 319.749 534.228 319.853 533.965 319.853Z" fill="#D1D3D4"/>
<path d="M580.911 399.459V356.448C573.429 349.852 566.937 342.211 561.636 333.76C552.783 319.695 521.777 268.061 536.109 263.373C550.441 258.684 590.042 307.218 590.042 307.218L592.027 235.957C592.027 235.957 623.092 260.253 632.461 286.835C641.83 313.417 637.94 413.525 637.94 413.525L580.911 399.459Z" fill="white"/>
<path d="M637.96 414.518H637.722L580.673 400.433C580.457 400.383 580.265 400.261 580.128 400.088C579.991 399.915 579.917 399.7 579.918 399.479V356.905C572.538 350.285 566.105 342.677 560.803 334.296C552.863 321.641 527.256 279.365 531.981 266.233C532.267 265.339 532.765 264.527 533.432 263.867C534.099 263.206 534.915 262.716 535.812 262.439C542.124 260.452 553.339 267.227 569.14 282.842C577.933 291.523 585.794 300.622 589.129 304.576L591.114 235.937C591.121 235.752 591.179 235.573 591.28 235.419C591.381 235.265 591.523 235.142 591.689 235.062C591.855 234.983 592.04 234.951 592.223 234.972C592.405 234.994 592.578 235.066 592.722 235.182C593.039 235.42 624.124 259.955 633.474 286.517C642.823 313.079 639.171 409.472 639.012 413.564C639.004 413.712 638.965 413.855 638.897 413.986C638.828 414.116 638.732 414.23 638.615 414.319C638.429 414.466 638.195 414.537 637.96 414.518ZM581.903 398.625L637.007 412.213C637.404 400.711 640.203 311.648 631.548 287.053C623.608 264.425 599.351 243.188 592.999 237.883L591.014 307.119C591.003 307.319 590.933 307.511 590.812 307.671C590.691 307.831 590.526 307.952 590.337 308.018C590.148 308.083 589.943 308.092 589.749 308.041C589.556 307.991 589.381 307.884 589.248 307.735C578.35 294.384 547.563 260.531 536.407 264.207C535.802 264.399 535.252 264.734 534.803 265.184C534.354 265.633 534.019 266.184 533.827 266.789C530.313 276.564 547.047 308.629 562.45 333.104C567.735 341.48 574.185 349.059 581.606 355.613C581.716 355.71 581.805 355.829 581.866 355.963C581.928 356.096 581.961 356.241 581.963 356.388L581.903 398.625Z" fill="#231F20"/>
<path d="M646.673 380.447H567.214V414.498L654.554 430.829L646.673 380.447Z" fill="#231F20"/>
<path d="M654.554 431.822H654.355L567.015 415.511C566.789 415.461 566.587 415.336 566.443 415.155C566.299 414.974 566.22 414.749 566.221 414.518V380.447C566.221 380.183 566.326 379.931 566.512 379.744C566.698 379.558 566.95 379.453 567.214 379.453H646.614C646.851 379.454 647.08 379.538 647.261 379.691C647.442 379.843 647.564 380.054 647.606 380.288L655.546 430.67C655.573 430.829 655.56 430.992 655.508 431.144C655.456 431.297 655.367 431.434 655.249 431.544C655.157 431.635 655.049 431.706 654.93 431.754C654.81 431.802 654.682 431.825 654.554 431.822ZM568.226 413.684L653.343 429.577L645.82 381.44H568.226V413.684Z" fill="#231F20"/>
<path d="M658.485 405.638L560.147 400.909V478.866L666.345 467.84L658.485 405.638Z" fill="#1DC9B7"/>
<path d="M427.431 324.363C427.286 324.363 427.144 324.331 427.013 324.269C426.883 324.208 426.768 324.117 426.676 324.005L397.298 290.232L375.9 310.377C375.718 310.558 375.472 310.659 375.215 310.659C374.959 310.659 374.712 310.558 374.53 310.377L343.147 279.127C343.054 279.034 342.981 278.925 342.93 278.803C342.88 278.682 342.854 278.553 342.854 278.421C342.854 278.29 342.88 278.16 342.93 278.039C342.981 277.918 343.054 277.809 343.147 277.716C343.336 277.533 343.589 277.43 343.852 277.43C344.115 277.43 344.368 277.533 344.557 277.716L375.165 308.311L396.703 288.067C396.796 287.973 396.908 287.9 397.031 287.853C397.154 287.805 397.285 287.783 397.417 287.789C397.55 287.794 397.68 287.827 397.8 287.885C397.919 287.944 398.025 288.026 398.112 288.126L428.185 322.655C428.271 322.752 428.337 322.865 428.379 322.988C428.421 323.111 428.437 323.241 428.428 323.371C428.419 323.5 428.384 323.627 428.325 323.743C428.266 323.859 428.185 323.961 428.086 324.045C427.912 324.226 427.68 324.339 427.431 324.363Z" fill="#D1D3D4"/>
<path d="M296.545 285.631L295.823 285.009C294.259 283.661 293.295 281.747 293.141 279.687C292.988 277.627 293.659 275.591 295.005 274.026L335.307 227.197L347.821 237.985L307.519 284.813C306.172 286.378 304.259 287.344 302.201 287.497C300.143 287.65 298.108 286.979 296.545 285.631Z" fill="white"/>
<path d="M301.72 288.504C299.622 288.5 297.594 287.747 296.003 286.378L295.269 285.742C294.394 284.989 293.677 284.071 293.158 283.039C292.639 282.008 292.328 280.885 292.243 279.734C292.158 278.582 292.301 277.425 292.664 276.329C293.026 275.233 293.601 274.219 294.356 273.346L334.592 226.48C334.765 226.285 335.006 226.164 335.266 226.142C335.399 226.131 335.532 226.146 335.658 226.187C335.784 226.228 335.901 226.294 336.001 226.381L348.526 237.168C348.709 237.357 348.812 237.61 348.812 237.874C348.812 238.137 348.709 238.39 348.526 238.579L308.211 285.405C307.47 286.28 306.561 286.998 305.538 287.517C304.516 288.035 303.4 288.344 302.256 288.424L301.72 288.504ZM296.559 284.233L297.293 284.868C298.665 286.037 300.439 286.622 302.236 286.497C303.123 286.432 303.989 286.191 304.783 285.789C305.577 285.386 306.283 284.83 306.861 284.153L346.561 238.082L335.465 228.566L295.765 274.637C294.591 276.005 294.007 277.784 294.141 279.583C294.275 281.381 295.116 283.053 296.479 284.233H296.559Z" fill="#231F20"/>
<path d="M328.076 227.814L348.305 245.252L387.726 199.447L367.498 182.009L328.076 227.814Z" fill="white"/>
<path d="M348.328 246.228C348.088 246.23 347.855 246.145 347.673 245.989L327.525 228.467C327.424 228.384 327.341 228.283 327.281 228.167C327.22 228.052 327.183 227.926 327.172 227.797C327.161 227.667 327.176 227.536 327.216 227.413C327.256 227.289 327.321 227.174 327.406 227.076L366.828 181.264C367.006 181.063 367.256 180.942 367.523 180.926C367.652 180.915 367.782 180.93 367.904 180.971C368.027 181.012 368.141 181.078 368.237 181.164L388.405 198.667C388.602 198.842 388.722 199.088 388.741 199.352C388.76 199.615 388.675 199.876 388.504 200.077L349.082 245.89C348.909 246.085 348.667 246.206 348.407 246.228H348.328ZM329.51 227.692L348.228 243.824L386.36 199.541L367.642 183.389L329.51 227.692Z" fill="#231F20"/>
<path d="M238.013 345.485L243.972 350.586C247.929 353.974 253.881 353.509 257.266 349.548L313.289 283.989C316.674 280.029 316.209 274.071 312.252 270.684L306.293 265.583C302.335 262.195 296.383 262.66 292.998 266.621L236.975 332.179C233.591 336.14 234.055 342.098 238.013 345.485Z" fill="white"/>
<path d="M251.44 353.746C248.955 353.741 246.554 352.846 244.671 351.223L238.716 346.097C236.625 344.292 235.335 341.729 235.13 338.973C234.926 336.216 235.823 333.491 237.624 331.396L293.879 266.035C295.683 263.942 298.244 262.651 300.998 262.446C303.752 262.241 306.475 263.139 308.568 264.942L314.523 270.068C316.61 271.876 317.896 274.438 318.101 277.193C318.305 279.948 317.412 282.672 315.615 284.769L259.36 350.13C258.468 351.168 257.378 352.019 256.155 352.633C254.932 353.247 253.599 353.612 252.234 353.706L251.44 353.746ZM240.006 344.587L245.961 349.713C246.8 350.441 247.775 350.995 248.829 351.344C249.883 351.693 250.995 351.83 252.102 351.747C253.209 351.664 254.289 351.362 255.279 350.86C256.269 350.357 257.15 349.664 257.871 348.819L314.126 283.478C314.853 282.638 315.407 281.662 315.756 280.608C316.105 279.553 316.241 278.439 316.158 277.331C316.075 276.224 315.774 275.143 315.272 274.152C314.77 273.161 314.077 272.279 313.233 271.558L307.278 266.432C306.439 265.706 305.465 265.152 304.412 264.803C303.359 264.454 302.248 264.316 301.142 264.397C300.036 264.478 298.956 264.777 297.966 265.276C296.975 265.775 296.092 266.465 295.368 267.306L239.113 332.667C238.387 333.507 237.834 334.482 237.485 335.535C237.137 336.589 236.999 337.701 237.08 338.809C237.161 339.916 237.459 340.996 237.958 341.988C238.457 342.979 239.146 343.863 239.987 344.587H240.006Z" fill="#231F20"/>
<path d="M387.71 249.942C426.848 249.942 458.575 218.189 458.575 179.018C458.575 139.848 426.848 108.094 387.71 108.094C348.573 108.094 316.846 139.848 316.846 179.018C316.846 218.189 348.573 249.942 387.71 249.942Z" fill="white"/>
<path d="M387.651 250.916C371.268 250.892 355.386 245.262 342.64 234.962C329.894 224.661 321.05 210.309 317.575 194.285C314.1 178.262 316.203 161.532 323.535 146.869C330.867 132.207 342.988 120.494 357.886 113.674C372.784 106.854 389.564 105.337 405.442 109.374C421.32 113.411 435.342 122.761 445.181 135.87C455.02 148.98 460.084 165.063 459.535 181.45C458.985 197.837 452.854 213.543 442.159 225.964C435.42 233.825 427.056 240.128 417.645 244.436C408.234 248.744 398 250.955 387.651 250.916ZM387.809 109.068C386.063 109.068 384.296 109.068 382.529 109.267C364.337 110.644 347.411 119.111 335.389 132.846C323.368 146.582 317.211 164.489 318.242 182.72C319.273 200.951 327.41 218.049 340.903 230.338C354.397 242.628 372.169 249.129 390.401 248.443C408.633 247.757 425.867 239.939 438.401 226.67C450.934 213.401 457.765 195.74 457.426 177.483C457.086 159.226 449.603 141.832 436.585 129.039C423.568 116.245 406.054 109.075 387.809 109.068Z" fill="#231F20"/>
<path d="M387.71 236.632C419.503 236.632 445.275 210.838 445.275 179.019C445.275 147.2 419.503 121.405 387.71 121.405C355.918 121.405 330.145 147.2 330.145 179.019C330.145 210.838 355.918 236.632 387.71 236.632Z" fill="white"/>
<path d="M387.67 237.605C376.469 237.585 365.508 234.35 356.089 228.283C346.669 222.216 339.186 213.573 334.526 203.378C329.867 193.183 328.226 181.865 329.8 170.765C331.374 159.665 336.095 149.25 343.405 140.755C349.812 133.309 357.987 127.594 367.179 124.138C376.37 120.681 386.282 119.593 396.004 120.973C405.725 122.354 414.943 126.159 422.811 132.039C430.679 137.918 436.943 145.683 441.027 154.62C445.112 163.556 446.885 173.377 446.185 183.179C445.485 192.981 442.333 202.45 437.019 210.713C431.706 218.977 424.402 225.771 415.778 230.471C407.155 235.17 397.489 237.623 387.67 237.605ZM387.789 122.379C386.38 122.379 384.951 122.379 383.502 122.538C376.09 123.064 368.856 125.06 362.221 128.41C355.586 131.759 349.683 136.394 344.854 142.047C336.437 151.83 331.614 164.199 331.187 177.102C330.759 190.005 334.752 202.667 342.503 212.987C350.253 223.307 361.296 230.665 373.799 233.84C386.303 237.016 399.515 235.817 411.244 230.444C422.973 225.071 432.515 215.847 438.286 204.3C444.057 192.754 445.71 179.58 442.972 166.964C440.234 154.348 433.268 143.048 423.231 134.938C413.194 126.829 400.689 122.397 387.789 122.379Z" fill="#231F20"/>
<path d="M243.659 394.592C246.949 387.315 250.613 380.213 254.636 373.315C257.415 368.567 260.432 362.368 264.383 358.454C268.333 354.541 274.308 351.898 278.814 347.846C296.063 332.21 313.591 314.628 318.752 291.901C319.585 288.246 318.93 282.941 315.179 282.742C313.776 282.813 312.429 283.32 311.328 284.193C302.058 290.272 295.17 300.404 286.138 306.046C288.52 304.457 289.215 285.186 290.704 281.411C293.641 274.001 298.286 267.147 301.76 259.796C303.15 256.856 304.559 253.499 303.348 250.479C302.674 249.118 301.628 247.975 300.331 247.184C299.035 246.393 297.542 245.986 296.023 246.009C292.991 246.088 290.003 246.763 287.23 247.996C276.643 251.969 266.149 256.267 255.748 260.889C252.312 262.204 249.078 263.997 246.14 266.213C243.08 269.073 240.482 272.39 238.439 276.047C230.499 288.623 207.85 331.674 204.475 341.429C203.264 344.905 190.124 385.394 188.278 385.135L243.659 394.592Z" fill="white"/>
<path d="M243.659 395.585H243.48L188.139 386.148C187.88 386.1 187.65 385.952 187.498 385.737C187.346 385.522 187.284 385.256 187.325 384.996C187.352 384.827 187.423 384.669 187.531 384.536C187.639 384.404 187.78 384.302 187.94 384.241C188.952 383.009 192.347 374.944 202.51 344.289C203.026 342.72 203.403 341.627 203.542 341.17C206.877 331.515 229.347 288.782 237.605 275.61C239.703 271.854 242.383 268.454 245.545 265.538C248.547 263.237 251.854 261.365 255.371 259.975C265.712 255.406 276.332 251.055 286.892 247.062C289.784 245.771 292.899 245.056 296.063 244.956C297.771 244.952 299.445 245.426 300.897 246.325C302.35 247.224 303.522 248.511 304.281 250.042C305.631 253.399 304.162 257.015 302.673 260.174C301.184 263.333 299.537 266.273 297.909 269.213C295.565 273.243 293.477 277.417 291.656 281.709C290.871 284.973 290.353 288.295 290.108 291.643C289.753 295.552 289.183 299.438 288.401 303.285C291.879 300.558 295.157 297.584 298.207 294.384C302.032 290.323 306.255 286.656 310.812 283.438C312.074 282.42 313.637 281.847 315.258 281.809C315.914 281.84 316.554 282.018 317.132 282.331C317.709 282.644 318.209 283.084 318.593 283.617C319.341 284.897 319.829 286.312 320.026 287.782C320.224 289.252 320.128 290.747 319.744 292.179C314.464 315.423 296.202 333.502 279.488 348.64C277.275 350.552 274.905 352.273 272.402 353.786C269.785 355.342 267.337 357.166 265.097 359.229C261.999 362.72 259.37 366.6 257.276 370.772C256.681 371.844 256.105 372.897 255.529 373.871C251.51 380.741 247.853 387.816 244.572 395.069C244.485 395.233 244.353 395.369 244.191 395.461C244.029 395.552 243.845 395.595 243.659 395.585ZM190.064 384.44L243.064 393.479C246.289 386.417 249.867 379.521 253.783 372.818C254.358 371.844 254.934 370.831 255.529 369.758C257.707 365.439 260.45 361.431 263.688 357.838C266.027 355.682 268.581 353.771 271.31 352.137C273.715 350.674 275.999 349.02 278.139 347.19C294.614 332.27 312.638 314.43 317.839 291.762C318.469 289.432 318.177 286.949 317.025 284.828C316.813 284.527 316.534 284.278 316.211 284.102C315.887 283.927 315.527 283.828 315.159 283.815C313.969 283.909 312.835 284.359 311.903 285.107C307.47 288.26 303.36 291.847 299.636 295.815C295.753 299.986 291.411 303.705 286.694 306.9C286.472 307.034 286.207 307.076 285.954 307.016C285.702 306.957 285.483 306.801 285.344 306.582C285.205 306.362 285.157 306.097 285.209 305.841C285.261 305.586 285.408 305.361 285.622 305.212C286.674 304.338 287.607 296.252 288.163 291.444C288.41 287.932 288.968 284.448 289.83 281.034C291.675 276.665 293.797 272.418 296.182 268.319C297.81 265.399 299.457 262.359 300.906 259.379C302.356 256.399 303.507 253.419 302.455 250.856C301.852 249.675 300.929 248.687 299.792 248.006C298.655 247.324 297.349 246.976 296.023 247.002C293.123 247.117 290.272 247.792 287.627 248.989C277.086 252.962 266.506 257.293 256.184 261.863C252.846 263.182 249.701 264.946 246.835 267.107C243.861 269.913 241.331 273.155 239.332 276.723C231.094 289.835 208.763 332.349 205.468 341.885L204.455 344.885C195.523 371.646 191.87 381.122 190.064 384.44Z" fill="#231F20"/>
<path d="M256.065 387.122L180.297 363.302L167.494 397.016L244.79 417.24L256.065 387.122Z" fill="#231F20"/>
<path d="M244.79 418.233H244.532L167.236 397.969C167.104 397.931 166.98 397.865 166.874 397.776C166.768 397.687 166.682 397.577 166.621 397.453C166.563 397.328 166.532 397.193 166.532 397.055C166.532 396.918 166.563 396.782 166.621 396.658L179.424 362.885C179.514 362.647 179.693 362.453 179.922 362.346C180.152 362.238 180.415 362.225 180.655 362.308L256.422 386.148C256.551 386.189 256.67 386.255 256.772 386.342C256.874 386.43 256.957 386.537 257.017 386.658C257.076 386.779 257.11 386.91 257.117 387.045C257.124 387.179 257.104 387.314 257.058 387.44L245.783 417.538C245.712 417.744 245.577 417.922 245.399 418.047C245.221 418.171 245.008 418.237 244.79 418.233ZM168.824 396.38L244.254 416.107L254.854 387.817L180.873 364.534L168.824 396.38Z" fill="#231F20"/>
<path d="M253.425 413.227L159.912 385.235L127.656 454.907L233.913 487.925L253.425 413.227Z" fill="#1DC9B7"/>
<path d="M364.188 176.237H345.39C345.255 176.238 345.122 176.21 344.999 176.155C344.876 176.1 344.765 176.02 344.676 175.919C344.578 175.821 344.503 175.702 344.455 175.572C344.407 175.442 344.388 175.303 344.398 175.164C345.031 165.471 348.872 156.265 355.315 149C356.589 147.593 357.948 146.267 359.384 145.027C366.672 138.565 375.909 134.726 385.626 134.12C385.905 134.109 386.176 134.209 386.38 134.398C386.477 134.49 386.554 134.601 386.605 134.724C386.657 134.847 386.681 134.98 386.678 135.113V153.768C386.676 154.011 386.586 154.245 386.426 154.427C386.266 154.609 386.045 154.728 385.805 154.761C380.57 155.395 375.699 157.767 371.971 161.498C368.243 165.229 365.873 170.104 365.24 175.343C365.23 175.471 365.195 175.596 365.137 175.71C365.078 175.825 364.998 175.926 364.9 176.009C364.802 176.092 364.689 176.155 364.567 176.194C364.445 176.234 364.316 176.248 364.188 176.237ZM346.422 174.251H363.255C363.928 169.89 365.727 165.781 368.476 162.331C369.69 160.787 371.083 159.394 372.624 158.178C376.07 155.425 380.176 153.624 384.534 152.954V135.987C375.636 136.768 367.223 140.39 360.536 146.318C359.131 147.558 357.805 148.886 356.566 150.291C350.719 156.991 347.165 165.386 346.422 174.251Z" fill="#D1D3D4"/>
<path d="M431.539 175.244C430.92 165.727 427.148 156.687 420.82 149.556L407.6 162.907C410.426 166.467 412.2 170.747 412.721 175.264C412.933 177.132 412.933 179.018 412.721 180.886C412.07 186.356 409.599 191.448 405.708 195.343C401.816 199.238 396.728 201.71 391.263 202.362C390.327 202.466 389.386 202.519 388.445 202.521C387.503 202.518 386.562 202.465 385.626 202.362C380.145 201.712 375.045 199.226 371.154 195.31C367.262 191.393 364.807 186.275 364.188 180.787H345.39C345.961 190.338 349.698 199.426 356.01 206.613C357.238 208.03 358.564 209.358 359.98 210.587C367.103 216.89 376.118 220.643 385.606 221.255C386.539 221.255 387.472 221.255 388.425 221.255C389.377 221.255 390.31 221.255 391.243 221.255C400.725 220.638 409.732 216.885 416.85 210.587C418.265 209.358 419.592 208.03 420.82 206.613C427.177 199.446 430.951 190.353 431.539 180.787C431.539 179.853 431.539 178.919 431.539 177.966C431.539 177.012 431.618 176.158 431.539 175.244Z" fill="#584475"/>
<path d="M403.61 159.907C403.387 159.904 403.17 159.827 402.995 159.688C399.57 156.953 395.44 155.244 391.085 154.761C390.844 154.728 390.624 154.609 390.464 154.427C390.303 154.245 390.214 154.011 390.211 153.768V134.915C390.211 134.78 390.239 134.646 390.294 134.523C390.348 134.4 390.429 134.289 390.529 134.199C390.728 134.014 390.992 133.914 391.263 133.921C400.988 134.523 410.232 138.362 417.525 144.828C417.726 145.014 417.847 145.27 417.862 145.543C417.865 145.68 417.84 145.815 417.788 145.941C417.737 146.068 417.661 146.182 417.565 146.278L404.245 159.609C404.08 159.787 403.853 159.894 403.61 159.907ZM392.256 152.973C396.339 153.595 400.21 155.204 403.531 157.662L415.441 145.742C408.882 140.211 400.779 136.84 392.236 136.087L392.256 152.973Z" fill="#D1D3D4"/>
<path d="M242.051 392.883C241.816 392.008 241.349 391.212 240.701 390.579L239.649 389.744C238.849 389.273 237.937 389.025 237.009 389.029H236.215C235.526 389.016 234.844 389.173 234.23 389.486C233.583 389.699 233.002 390.076 232.543 390.579C231.623 391.597 231.083 392.903 231.014 394.274L231.213 395.665C231.447 396.541 231.906 397.342 232.543 397.989L233.614 398.803C234.413 399.277 235.326 399.524 236.254 399.519H237.048C237.74 399.556 238.428 399.397 239.033 399.062C239.683 398.864 240.266 398.493 240.721 397.989C241.223 397.529 241.599 396.948 241.812 396.3C242.127 395.686 242.284 395.003 242.269 394.314L242.051 392.883Z" fill="white"/>
<path d="M582.181 384.639C575.432 384.639 575.412 395.128 582.181 395.128C588.95 395.128 588.93 384.639 582.181 384.639Z" fill="white"/>
<path d="M493.829 384.639H379.354L365.856 337.733V384.698H329.947C326.088 384.698 322.387 386.232 319.659 388.963C316.93 391.694 315.397 395.398 315.397 399.26V438.775C315.397 442.637 316.93 446.341 319.659 449.072C322.387 451.803 326.088 453.338 329.947 453.338H493.829C497.688 453.338 501.389 451.803 504.117 449.072C506.846 446.341 508.379 442.637 508.379 438.775V399.201C508.374 395.34 506.839 391.639 504.111 388.91C501.384 386.18 497.686 384.644 493.829 384.639Z" fill="white"/>
<path d="M493.829 454.271H329.947C325.827 454.266 321.876 452.625 318.963 449.709C316.049 446.793 314.41 442.84 314.405 438.716V399.201C314.41 395.077 316.049 391.123 318.963 388.207C321.876 385.291 325.827 383.651 329.947 383.645H364.863V337.733C364.865 337.493 364.952 337.262 365.108 337.08C365.264 336.898 365.48 336.778 365.717 336.74C365.954 336.711 366.193 336.767 366.393 336.898C366.593 337.029 366.74 337.226 366.809 337.455L380.088 383.705H493.829C497.948 383.715 501.895 385.358 504.807 388.273C507.72 391.188 509.361 395.138 509.371 399.26V438.775C509.35 442.889 507.704 446.827 504.792 449.73C501.88 452.634 497.939 454.266 493.829 454.271ZM329.947 385.632C326.353 385.637 322.908 387.068 320.366 389.612C317.825 392.156 316.395 395.604 316.39 399.201V438.716C316.395 442.313 317.825 445.761 320.366 448.305C322.908 450.848 326.353 452.279 329.947 452.285H493.829C497.421 452.274 500.864 450.841 503.404 448.299C505.944 445.756 507.376 442.311 507.386 438.716V399.201C507.376 395.605 505.944 392.16 503.404 389.618C500.864 387.075 497.421 385.642 493.829 385.632H379.354C379.137 385.639 378.925 385.572 378.752 385.442C378.579 385.312 378.455 385.127 378.401 384.917L366.848 344.726V384.639C366.848 384.902 366.744 385.155 366.558 385.341C366.372 385.527 366.119 385.632 365.856 385.632H329.947Z" fill="#231F20"/>
<path d="M477.433 403.631H376.198C375.934 403.631 375.682 403.526 375.496 403.34C375.31 403.154 375.205 402.901 375.205 402.638C375.205 402.374 375.31 402.122 375.496 401.935C375.682 401.749 375.934 401.645 376.198 401.645H477.433C477.696 401.645 477.948 401.749 478.134 401.935C478.321 402.122 478.425 402.374 478.425 402.638C478.425 402.901 478.321 403.154 478.134 403.34C477.948 403.526 477.696 403.631 477.433 403.631Z" fill="#D1D3D4"/>
<path d="M477.433 419.962H376.198C375.934 419.962 375.682 419.857 375.496 419.671C375.31 419.484 375.205 419.232 375.205 418.968C375.205 418.705 375.31 418.452 375.496 418.266C375.682 418.08 375.934 417.975 376.198 417.975H477.433C477.696 417.975 477.948 418.08 478.134 418.266C478.321 418.452 478.425 418.705 478.425 418.968C478.42 419.23 478.314 419.48 478.129 419.665C477.944 419.85 477.694 419.956 477.433 419.962Z" fill="#D1D3D4"/>
<path d="M455.24 436.272H376.118C375.855 436.272 375.602 436.167 375.416 435.981C375.23 435.795 375.126 435.542 375.126 435.279C375.126 435.015 375.23 434.763 375.416 434.576C375.602 434.39 375.855 434.285 376.118 434.285H455.24C455.503 434.285 455.756 434.39 455.942 434.576C456.128 434.763 456.233 435.015 456.233 435.279C456.233 435.542 456.128 435.795 455.942 435.981C455.756 436.167 455.503 436.272 455.24 436.272Z" fill="#D1D3D4"/>
<path d="M661.899 140.298H619.32C616.399 140.298 613.596 141.46 611.53 143.528C609.464 145.596 608.304 148.4 608.304 151.324V182.972L575.511 193.481H608.304V194.018C608.301 195.467 608.584 196.903 609.137 198.243C609.689 199.583 610.5 200.801 611.523 201.827C612.547 202.853 613.762 203.667 615.1 204.223C616.438 204.778 617.872 205.064 619.32 205.064H661.978C664.89 205.043 667.674 203.869 669.724 201.799C671.773 199.729 672.921 196.932 672.915 194.018V151.324C672.915 148.4 671.755 145.596 669.689 143.528C667.623 141.46 664.821 140.298 661.899 140.298Z" fill="white"/>
<path d="M661.899 206.037H619.32C616.232 206.009 613.272 204.793 611.055 202.64C608.838 200.488 607.533 197.564 607.41 194.475H575.65C575.414 194.482 575.183 194.4 575.003 194.246C574.823 194.091 574.707 193.876 574.678 193.641C574.639 193.407 574.685 193.168 574.81 192.967C574.934 192.766 575.127 192.617 575.353 192.548L607.45 182.237V151.325C607.476 148.171 608.739 145.154 610.967 142.925C613.195 140.695 616.209 139.43 619.36 139.405H662.018C665.186 139.404 668.225 140.657 670.475 142.89C672.724 145.122 674.001 148.154 674.027 151.325V194.018C674.027 195.606 673.713 197.179 673.102 198.645C672.491 200.111 671.596 201.442 670.468 202.559C669.34 203.677 668.002 204.56 666.531 205.157C665.06 205.754 663.486 206.053 661.899 206.037ZM581.784 192.488H608.224C608.486 192.493 608.735 192.6 608.921 192.785C609.106 192.97 609.212 193.22 609.217 193.482V194.018C609.217 196.652 610.263 199.179 612.124 201.042C613.985 202.905 616.51 203.951 619.142 203.951H661.8C663.111 203.964 664.413 203.717 665.628 203.224C666.844 202.731 667.95 202.001 668.882 201.077C669.814 200.154 670.554 199.054 671.059 197.842C671.564 196.631 671.824 195.331 671.824 194.018V151.325C671.793 148.683 670.723 146.159 668.847 144.3C666.971 142.441 664.439 141.396 661.8 141.391H619.32C616.698 141.422 614.191 142.479 612.337 144.335C610.482 146.191 609.426 148.7 609.395 151.325V182.972C609.399 183.183 609.333 183.389 609.207 183.557C609.081 183.726 608.903 183.849 608.701 183.906L581.784 192.488Z" fill="#231F20"/>
<path d="M659.02 160.046H624.183C623.92 160.046 623.668 159.941 623.482 159.755C623.295 159.569 623.191 159.316 623.191 159.053C623.191 158.789 623.295 158.537 623.482 158.35C623.668 158.164 623.92 158.059 624.183 158.059H659.02C659.283 158.059 659.536 158.164 659.722 158.35C659.908 158.537 660.013 158.789 660.013 159.053C660.013 159.316 659.908 159.569 659.722 159.755C659.536 159.941 659.283 160.046 659.02 160.046Z" fill="#D1D3D4"/>
<path d="M659.02 173.893H624.183C623.92 173.893 623.668 173.788 623.482 173.602C623.295 173.416 623.191 173.163 623.191 172.9C623.191 172.636 623.295 172.383 623.482 172.197C623.668 172.011 623.92 171.906 624.183 171.906H659.02C659.283 171.906 659.536 172.011 659.722 172.197C659.908 172.383 660.013 172.636 660.013 172.9C660.013 173.163 659.908 173.416 659.722 173.602C659.536 173.788 659.283 173.893 659.02 173.893Z" fill="#D1D3D4"/>
<path d="M650.147 187.74H624.183C623.92 187.74 623.668 187.635 623.482 187.449C623.295 187.263 623.191 187.01 623.191 186.747C623.191 186.483 623.295 186.231 623.482 186.044C623.668 185.858 623.92 185.753 624.183 185.753H650.147C650.409 185.759 650.658 185.865 650.843 186.05C651.028 186.235 651.135 186.485 651.14 186.747C651.14 187.01 651.035 187.263 650.849 187.449C650.663 187.635 650.41 187.74 650.147 187.74Z" fill="#D1D3D4"/>
<path d="M218.112 252.843H190.56V183.945C190.56 181.638 189.644 179.424 188.014 177.793C186.383 176.161 184.172 175.244 181.866 175.244H129.343C127.037 175.244 124.826 176.161 123.195 177.793C121.565 179.424 120.649 181.638 120.649 183.945V289.239C120.641 290.387 120.86 291.525 121.293 292.587C121.727 293.65 122.366 294.616 123.174 295.43C123.982 296.245 124.943 296.891 126.002 297.332C127.061 297.773 128.196 298 129.343 298H181.846C182.99 298.003 184.122 297.78 185.179 297.343C186.237 296.907 187.197 296.267 188.007 295.458C188.816 294.65 189.458 293.69 189.897 292.633C190.335 291.576 190.56 290.443 190.56 289.298V265.458L218.112 252.843Z" fill="white"/>
<path d="M181.846 298.993H129.343C126.775 298.988 124.314 297.965 122.499 296.148C120.684 294.331 119.661 291.868 119.656 289.298V184.005C119.661 181.435 120.684 178.972 122.499 177.155C124.314 175.338 126.775 174.315 129.343 174.31H181.846C184.414 174.315 186.874 175.338 188.69 177.155C190.505 178.972 191.528 181.435 191.533 184.005V251.909H218.112C218.339 251.904 218.561 251.979 218.738 252.121C218.916 252.262 219.038 252.462 219.085 252.684C219.132 252.905 219.103 253.136 219.002 253.338C218.901 253.54 218.734 253.702 218.529 253.797L191.533 266.114V289.358C191.512 291.917 190.483 294.365 188.669 296.169C186.855 297.973 184.403 298.988 181.846 298.993ZM129.343 176.237C127.3 176.237 125.341 177.049 123.897 178.495C122.452 179.94 121.641 181.901 121.641 183.945V289.239C121.641 291.283 122.452 293.244 123.897 294.689C125.341 296.135 127.3 296.947 129.343 296.947H181.846C183.889 296.947 185.848 296.135 187.292 294.689C188.736 293.244 189.548 291.283 189.548 289.239V265.399C189.545 265.207 189.599 265.019 189.701 264.857C189.803 264.694 189.95 264.565 190.124 264.485L213.547 253.816H190.56C190.297 253.816 190.045 253.712 189.858 253.526C189.672 253.339 189.568 253.087 189.568 252.823V183.945C189.568 181.901 188.756 179.94 187.312 178.495C185.868 177.049 183.909 176.237 181.866 176.237H129.343Z" fill="#231F20"/>
<path d="M180.357 192.468H131.169V219.686H180.357V192.468Z" fill="white"/>
<path d="M180.357 220.679H131.169C130.906 220.679 130.653 220.574 130.467 220.388C130.281 220.202 130.176 219.949 130.176 219.686V192.468C130.176 192.205 130.281 191.952 130.467 191.766C130.653 191.58 130.906 191.475 131.169 191.475H180.357C180.62 191.475 180.873 191.58 181.059 191.766C181.245 191.952 181.35 192.205 181.35 192.468V219.686C181.35 219.949 181.245 220.202 181.059 220.388C180.873 220.574 180.62 220.679 180.357 220.679ZM132.161 218.692H179.365V193.462H132.161V218.692Z" fill="#D1D3D4"/>
<path d="M180.357 229.798H131.169C130.906 229.798 130.653 229.693 130.467 229.507C130.281 229.32 130.176 229.068 130.176 228.804C130.176 228.541 130.281 228.288 130.467 228.102C130.653 227.916 130.906 227.811 131.169 227.811H180.357C180.62 227.811 180.873 227.916 181.059 228.102C181.245 228.288 181.35 228.541 181.35 228.804C181.35 229.068 181.245 229.32 181.059 229.507C180.873 229.693 180.62 229.798 180.357 229.798Z" fill="#D1D3D4"/>
<path d="M180.357 242.791H131.169C130.906 242.791 130.653 242.686 130.467 242.5C130.281 242.313 130.176 242.061 130.176 241.797C130.176 241.534 130.281 241.281 130.467 241.095C130.653 240.909 130.906 240.804 131.169 240.804H180.357C180.62 240.804 180.873 240.909 181.059 241.095C181.245 241.281 181.35 241.534 181.35 241.797C181.35 242.061 181.245 242.313 181.059 242.5C180.873 242.686 180.62 242.791 180.357 242.791Z" fill="#D1D3D4"/>
<path d="M180.357 255.783H131.169C130.906 255.783 130.653 255.679 130.467 255.492C130.281 255.306 130.176 255.053 130.176 254.79C130.176 254.527 130.281 254.274 130.467 254.088C130.653 253.901 130.906 253.797 131.169 253.797H180.357C180.62 253.797 180.873 253.901 181.059 254.088C181.245 254.274 181.35 254.527 181.35 254.79C181.35 255.053 181.245 255.306 181.059 255.492C180.873 255.679 180.62 255.783 180.357 255.783Z" fill="#D1D3D4"/>
<path d="M180.357 268.776H131.169C130.907 268.771 130.658 268.665 130.473 268.48C130.288 268.294 130.181 268.045 130.176 267.783C130.176 267.519 130.281 267.267 130.467 267.081C130.653 266.894 130.906 266.79 131.169 266.79H180.357C180.62 266.79 180.873 266.894 181.059 267.081C181.245 267.267 181.35 267.519 181.35 267.783C181.345 268.045 181.238 268.294 181.053 268.48C180.868 268.665 180.619 268.771 180.357 268.776Z" fill="#D1D3D4"/>
<path d="M167.494 281.769H131.169C130.907 281.764 130.658 281.658 130.473 281.473C130.288 281.287 130.181 281.038 130.176 280.776C130.176 280.512 130.281 280.26 130.467 280.073C130.653 279.887 130.906 279.782 131.169 279.782H167.494C167.758 279.782 168.01 279.887 168.196 280.073C168.382 280.26 168.487 280.512 168.487 280.776C168.487 281.039 168.382 281.292 168.196 281.478C168.01 281.664 167.758 281.769 167.494 281.769Z" fill="#D1D3D4"/>
<path d="M348.408 437.007C358.362 437.007 366.431 428.931 366.431 418.968C366.431 409.005 358.362 400.929 348.408 400.929C338.453 400.929 330.384 409.005 330.384 418.968C330.384 428.931 338.453 437.007 348.408 437.007Z" fill="white"/>
<path d="M348.408 438.001C344.646 438.001 340.97 436.884 337.843 434.793C334.715 432.702 332.278 429.729 330.839 426.252C329.399 422.774 329.023 418.947 329.757 415.255C330.49 411.563 332.301 408.172 334.961 405.51C337.62 402.849 341.009 401.036 344.698 400.302C348.386 399.567 352.21 399.944 355.685 401.385C359.16 402.825 362.129 405.265 364.219 408.395C366.309 411.524 367.424 415.204 367.424 418.968C367.419 424.014 365.413 428.852 361.848 432.42C358.283 435.988 353.449 437.995 348.408 438.001ZM348.408 401.923C345.039 401.923 341.746 402.922 338.945 404.795C336.145 406.668 333.962 409.331 332.673 412.445C331.384 415.56 331.046 418.987 331.703 422.294C332.361 425.6 333.983 428.637 336.365 431.021C338.746 433.405 341.781 435.029 345.085 435.686C348.389 436.344 351.813 436.006 354.925 434.716C358.037 433.426 360.697 431.241 362.569 428.438C364.44 425.635 365.439 422.34 365.439 418.968C365.439 416.73 364.998 414.513 364.142 412.445C363.287 410.377 362.032 408.498 360.45 406.915C358.869 405.332 356.991 404.077 354.925 403.22C352.859 402.364 350.644 401.923 348.408 401.923Z" fill="#D1D3D4"/>
<path d="M354.859 402.638L348.408 418.968L359.782 432.954" fill="white"/>
<path d="M359.782 433.948C359.635 433.949 359.491 433.915 359.36 433.849C359.229 433.784 359.115 433.688 359.028 433.57L347.654 419.664C347.537 419.529 347.461 419.365 347.433 419.19C347.405 419.014 347.426 418.834 347.495 418.67L353.946 402.36C354.04 402.116 354.225 401.919 354.463 401.811C354.701 401.703 354.972 401.693 355.216 401.784C355.462 401.881 355.659 402.071 355.767 402.312C355.874 402.553 355.883 402.827 355.792 403.075L349.559 418.968L360.556 432.498C360.722 432.704 360.8 432.967 360.774 433.231C360.748 433.495 360.62 433.738 360.417 433.908C360.215 433.988 359.993 434.002 359.782 433.948Z" fill="#D1D3D4"/>
<path d="M332.329 428.067C332.109 428.064 331.897 427.988 331.725 427.851C331.553 427.714 331.432 427.524 331.38 427.31C331.327 427.097 331.347 426.872 331.437 426.671C331.526 426.47 331.679 426.304 331.872 426.2L347.971 418.074C348.202 417.978 348.461 417.973 348.696 418.06C348.932 418.147 349.125 418.319 349.238 418.543C349.351 418.767 349.375 419.025 349.306 419.266C349.237 419.507 349.079 419.713 348.864 419.843L332.766 427.968C332.631 428.038 332.481 428.073 332.329 428.067Z" fill="#D1D3D4"/>
</svg>
