<svg xmlns="http://www.w3.org/2000/svg" width="84" height="84" viewBox="0 0 84 84"><defs><mask id="ptjrb" width="2" height="2" x="-1" y="-1"><path fill="#fff" d="M25 32h34v11H25z"/><path d="M25.51 37.485l16.488 5.466 16.488-5.466-16.488-5.465z"/></mask><filter id="ptjra" width="80" height="61" x="2" y="9" filterUnits="userSpaceOnUse"><feOffset dy="4" in="SourceGraphic" result="FeOffset1223Out"/><feGaussianBlur in="FeOffset1223Out" result="FeGaussianBlur1224Out" stdDeviation="5.2 5.2"/></filter><mask id="ptjrd" width="2" height="2" x="-1" y="-1"><path fill="#fff" d="M40 17h4v10h-4z"/><path d="M40.54 17h2.93v9.783h-2.93z"/></mask><filter id="ptjrc" width="50" height="60" x="17" y="-6" filterUnits="userSpaceOnUse"><feOffset dy="4" in="SourceGraphic" result="FeOffset1259Out"/><feGaussianBlur in="FeOffset1259Out" result="FeGaussianBlur1260Out" stdDeviation="5.2 5.2"/></filter><mask id="ptjrf" width="2" height="2" x="-1" y="-1"><path fill="#fff" d="M26 20h9v10h-9z"/><path d="M26.758 21.477l2.537-1.465 4.891 8.472-2.537 1.464z"/></mask><filter id="ptjre" width="55" height="60" x="3" y="-3" filterUnits="userSpaceOnUse"><feOffset dy="4" in="SourceGraphic" result="FeOffset1275Out"/><feGaussianBlur in="FeOffset1275Out" result="FeGaussianBlur1276Out" stdDeviation="5.2 5.2"/></filter><mask id="ptjrh" width="2" height="2" x="-1" y="-1"><path fill="#fff" d="M49 20h9v10h-9z"/><path d="M49.814 28.484l4.892-8.471 2.537 1.465-4.891 8.471z"/></mask><filter id="ptjrg" width="55" height="60" x="26" y="-3" filterUnits="userSpaceOnUse"><feOffset dy="4" in="SourceGraphic" result="FeOffset1291Out"/><feGaussianBlur in="FeOffset1291Out" result="FeGaussianBlur1292Out" stdDeviation="5.2 5.2"/></filter></defs><g><g><path fill="#584475" d="M84 42c0 23.196-18.804 42-42 42S0 65.196 0 42 18.804 0 42 0s42 18.804 42 42z"/></g><g><g/><g><g><g filter="url(#ptjra)"><path fill="none" d="M25.51 37.485l16.488 5.466 16.488-5.466-16.488-5.465z" mask="url(&quot;#ptjrb&quot;)"/><path fill="#1dc9b7" fill-opacity=".26" d="M25.51 37.485l16.488 5.466 16.488-5.466-16.488-5.465z"/></g><path fill="#1dc9b7" d="M25.51 37.485l16.488 5.466 16.488-5.466-16.488-5.465z"/></g><g><path fill="#fff" d="M62.52 39.24L44.24 45.3l4.477 7.111 18.28-6.06z"/></g><g><path fill="#fff" d="M40.534 49.57l-3.992 6.34-14.222-4.714v9.764l18.214 6.038z"/></g><g><path fill="#fff" d="M47.452 55.91l-3.992-6.34v17.428l18.214-6.038v-9.764z"/></g><g><path fill="#fff" d="M35.29 52.411l4.477-7.112-18.28-6.059-4.477 7.112z"/></g><g><g filter="url(#ptjrc)"><path fill="none" d="M40.54 17h2.93v9.783h-2.93z" mask="url(&quot;#ptjrd&quot;)"/><path fill="#1dc9b7" fill-opacity=".26" d="M40.54 17h2.93v9.783h-2.93z"/></g><path fill="#1dc9b7" d="M40.54 17h2.93v9.783h-2.93z"/></g><g><g filter="url(#ptjre)"><path fill="none" d="M26.758 21.477l2.537-1.465 4.891 8.472-2.537 1.464z" mask="url(&quot;#ptjrf&quot;)"/><path fill="#1dc9b7" fill-opacity=".26" d="M26.758 21.477l2.537-1.465 4.891 8.472-2.537 1.464z"/></g><path fill="#1dc9b7" d="M26.758 21.477l2.537-1.465 4.891 8.472-2.537 1.464z"/></g><g><g filter="url(#ptjrg)"><path fill="none" d="M49.814 28.484l4.892-8.471 2.537 1.465-4.891 8.471z" mask="url(&quot;#ptjrh&quot;)"/><path fill="#1dc9b7" fill-opacity=".26" d="M49.814 28.484l4.892-8.471 2.537 1.465-4.891 8.471z"/></g><path fill="#1dc9b7" d="M49.814 28.484l4.892-8.471 2.537 1.465-4.891 8.471z"/></g></g></g></g></svg>