<svg xmlns="http://www.w3.org/2000/svg" width="60" height="60" viewBox="0 0 60 60"><g><g><g/><g><path fill="#f44336" d="M57.803 18.752h-27.8c-6.212-.006-11.253 5.025-11.26 11.238a11.25 11.25 0 0 0 1.436 5.51L6.28 11.653C16.404-1.451 35.233-3.866 48.335 6.258a29.982 29.982 0 0 1 9.468 12.494z"/></g><g><path fill="#ffc107" d="M59.998 30C59.986 46.562 46.563 59.984 30 59.998a26.752 26.752 0 0 1-3.75-.25l13.5-24.124c3.093-5.386 1.249-12.26-4.125-15.374a11.145 11.145 0 0 0-5.6-1.5h27.774a29.576 29.576 0 0 1 2.2 11.25z"/></g><g><path fill="#4caf50" d="M39.75 35.624L26.252 59.748h-.025C9.8 57.672-1.836 42.673.24 26.245A29.981 29.981 0 0 1 6.277 11.65l13.9 23.849.075.125c3.1 5.385 9.977 7.237 15.361 4.137a11.25 11.25 0 0 0 4.138-4.137z"/></g><g><path fill="#f44336" d="M39.752 35.624a11.251 11.251 0 0 1-19.5 0l-.074-.125c-3.037-5.42-1.106-12.275 4.314-15.313a11.25 11.25 0 0 1 5.51-1.436h.026a11.145 11.145 0 0 1 5.6 1.5c5.374 3.114 7.218 9.988 4.124 15.374z"/></g><g><path fill="#2196f3" d="M39.752 35.624a11.251 11.251 0 0 1-19.5 0l-.074-.125c-3.037-5.42-1.106-12.275 4.314-15.313a11.25 11.25 0 0 1 5.51-1.436h.026a11.145 11.145 0 0 1 5.6 1.5c5.374 3.114 7.218 9.988 4.124 15.374z"/></g><g><path fill="#fafafa" d="M29.956 42.499c-2.18 0-4.32-.575-6.207-1.665a12.546 12.546 0 0 1-4.582-4.585c-3.452-5.978-1.404-13.623 4.575-17.074a12.5 12.5 0 0 1 6.257-1.675c6.903-.005 12.504 5.587 12.509 12.49a12.499 12.499 0 0 1-1.675 6.26 12.57 12.57 0 0 1-10.877 6.249zm.065-22.5a9.972 9.972 0 0 0-8.697 5c-2.761 4.789-1.118 10.909 3.67 13.67 4.788 2.761 10.908 1.118 13.67-3.67a10 10 0 0 0-8.64-15h-.003z"/></g></g></g></svg>