<svg xmlns="http://www.w3.org/2000/svg" width="60" height="58" viewBox="0 0 60 58"><g><g><g/><g><g><path fill="#adaca7" d="M33.27 47.41l-10.158 3.622-.385 1.346c-.547 1.916-2.625 3.483-4.617 3.483v.905h21.066z"/></g><g><path fill="#8f8f8b" d="M37.275 52.38l-1.42-4.968L30 43.79l-5.855 3.622-1.035 3.621h10.158l.385 1.347c.547 1.915 2.624 3.482 4.616 3.482l1.811.906 1.811-.906c-1.992 0-4.07-1.567-4.616-3.482z"/></g><g><path fill="#adaca7" d="M52.76 47.409h3.622a3.632 3.632 0 0 0 3.621-3.622v-7.244L52.76 29.3z"/></g><g><path fill="#cbc9c2" d="M0 43.79a3.632 3.632 0 0 0 3.622 3.622h49.135a3.632 3.632 0 0 0 3.621-3.622V22.06L0 36.547z"/></g><g><path fill="#404242" d="M56.382.33H52.76l3.622 36.217h3.621V3.952A3.632 3.632 0 0 0 56.382.33z"/></g><g><path fill="#565959" d="M56.378 3.952A3.632 3.632 0 0 0 52.757.33H3.622A3.632 3.632 0 0 0 0 3.952v32.595h56.378v-3.621L30 18.437z"/></g><g><path fill="#4b88d5" d="M56.378 3.953l-3.62-.003L30 18.439l22.756 14.488 3.622-.002V3.953z"/></g><g><path fill="#69a7ff" d="M52.755 3.953L3.63 3.95c-.003.001-.006 28.977-.011 28.977l49.134-.002s-.004-28.972 0-28.972z"/></g><g><path fill="#fff" d="M30 43.792a1.81 1.81 0 1 0 0-3.622 1.81 1.81 0 0 0 0 3.622z"/></g><g><path fill="#8f8f8b" d="M48.71 57.67H11.285a.905.905 0 1 1 0-1.81H48.71a.905.905 0 1 1 0 1.81z"/></g></g></g></g></svg>