<svg width="250" height="202" viewBox="0 0 250 202" fill="none" xmlns="http://www.w3.org/2000/svg">
<path d="M89.8728 165.249C89.8728 165.249 94.1566 139.602 95.6496 134.276C100.444 117.086 92.2871 65.9799 92.2871 65.4682C92.2871 64.9565 67.075 89.5533 66.0797 99.3503C65.6023 104.064 65.6359 122.614 66.0461 129.334C66.3084 133.535 59.0588 161.937 59.0588 161.937L89.8728 165.249Z" fill="white"/>
<path d="M89.8727 165.586H89.8324L59.0184 162.273C58.9711 162.269 58.9254 162.254 58.8846 162.23C58.8439 162.205 58.8091 162.172 58.7831 162.132C58.7547 162.093 58.7353 162.047 58.726 162C58.7167 161.952 58.7178 161.903 58.7293 161.856C58.8032 161.573 65.9654 133.455 65.7098 129.354C65.313 122.829 65.266 104.084 65.7434 99.3167C66.268 94.132 73.3023 85.1767 79.1127 78.5174C84.291 72.6055 91.6548 65.1113 92.2803 65.1113C92.3683 65.1181 92.4505 65.158 92.5103 65.2229C92.5702 65.2879 92.6033 65.3731 92.6031 65.4615C92.6031 65.5288 92.6905 66.1348 92.8115 66.9428C97.6468 100.374 98.7699 124.311 95.9656 134.35C94.4995 139.616 90.2359 165.047 90.1955 165.324C90.1801 165.398 90.1395 165.464 90.0807 165.512C90.0219 165.56 89.9485 165.586 89.8727 165.586ZM59.4757 161.647L89.5903 164.879C90.0879 161.93 93.9346 139.144 95.3267 134.168C98.1041 124.217 96.9743 100.381 92.1525 67.0371C92.092 66.5994 92.0449 66.2897 92.0113 66.0607C88.6959 68.9561 67.3104 90.5095 66.4159 99.384C65.9317 104.097 65.9855 122.809 66.3823 129.314C66.6311 133.32 60.3702 158.126 59.4757 161.647Z" fill="#231F20"/>
<path d="M75.8578 55.927L77.5592 52.7556L181.138 103.249L179.436 106.427L93.9547 127.953L75.8578 55.927Z" fill="white"/>
<path d="M93.9548 128.29C93.8791 128.291 93.8054 128.266 93.7456 128.22C93.6858 128.173 93.6434 128.108 93.6252 128.034L75.535 55.9877C75.5049 55.9097 75.5049 55.8233 75.535 55.7453L77.2297 52.5672C77.2711 52.4908 77.3405 52.4334 77.4232 52.4071C77.5059 52.3807 77.5956 52.3874 77.6735 52.4258L181.239 102.926C181.28 102.945 181.318 102.973 181.348 103.008C181.378 103.043 181.4 103.084 181.413 103.128C181.447 103.212 181.447 103.306 181.413 103.39L179.719 106.562C179.697 106.603 179.666 106.64 179.629 106.669C179.592 106.698 179.549 106.719 179.504 106.73L94.0153 128.277L93.9548 128.29ZM76.2142 55.9743L94.1969 127.543L179.214 106.138L180.674 103.397L77.7004 53.1934L76.2142 55.9743Z" fill="#231F20"/>
<path d="M163.044 31.2128L77.5558 52.7443L95.6515 124.769L181.14 103.238L163.044 31.2128Z" fill="white"/>
<path d="M95.6496 125.112C95.588 125.113 95.5274 125.097 95.4748 125.065C95.4001 125.016 95.3453 124.942 95.3201 124.856L77.2298 52.8095C77.2092 52.7229 77.2229 52.6318 77.2681 52.5552C77.3132 52.4785 77.3863 52.4225 77.4719 52.3987L162.96 30.8521C163.047 30.8316 163.139 30.8461 163.216 30.8925C163.292 30.9369 163.347 31.0095 163.37 31.0945L181.461 103.141C181.472 103.184 181.474 103.229 181.468 103.273C181.462 103.316 181.447 103.359 181.425 103.397C181.402 103.435 181.372 103.468 181.337 103.495C181.302 103.522 181.261 103.541 181.219 103.552L95.7303 125.099L95.6496 125.112ZM77.9629 52.998L95.8917 124.371L180.728 103.02L162.799 31.6466L77.9629 52.998Z" fill="#231F20"/>
<path d="M94.5739 57.166C95.911 57.166 96.9949 56.0807 96.9949 54.742C96.9949 53.4033 95.911 52.318 94.5739 52.318C93.2368 52.318 92.1529 53.4033 92.1529 54.742C92.1529 56.0807 93.2368 57.166 94.5739 57.166Z" fill="#231F20"/>
<path d="M94.5734 57.5026C94.0576 57.4996 93.5531 57.3518 93.117 57.0761C92.6809 56.8003 92.3309 56.4076 92.1066 55.9426C91.8823 55.4776 91.7927 54.959 91.8481 54.4456C91.9035 53.9322 92.1016 53.4446 92.4198 53.0383C92.7381 52.6319 93.1639 52.3231 93.6487 52.147C94.1335 51.9708 94.6579 51.9343 95.1624 52.0416C95.6669 52.1489 96.1312 52.3958 96.5026 52.7541C96.874 53.1124 97.1376 53.5678 97.2634 54.0686C97.3538 54.4224 97.3733 54.7906 97.3206 55.1519C97.268 55.5132 97.1442 55.8605 96.9566 56.1736C96.7689 56.4868 96.5211 56.7595 96.2275 56.9761C95.9338 57.1926 95.6002 57.3487 95.2459 57.4353C95.0256 57.4869 94.7995 57.5095 94.5734 57.5026ZM94.5734 52.6546C94.4008 52.6538 94.2288 52.6765 94.0623 52.7219C93.5542 52.8551 93.1159 53.1771 92.8366 53.6225C92.5573 54.0678 92.458 54.603 92.559 55.119C92.6599 55.6351 92.9535 56.0932 93.38 56.4002C93.8064 56.7071 94.3337 56.8398 94.8544 56.7712C95.3751 56.7026 95.8501 56.4379 96.1828 56.0309C96.5154 55.624 96.6806 55.1054 96.6448 54.5808C96.609 54.0561 96.3748 53.5649 95.99 53.207C95.6052 52.8492 95.0986 52.6516 94.5734 52.6546Z" fill="#231F20"/>
<path d="M93.7711 45.4422C93.5754 44.6632 92.786 44.1906 92.008 44.3865C91.23 44.5825 90.7579 45.3728 90.9536 46.1518L92.9995 54.2946C93.1952 55.0735 93.9845 55.5462 94.7625 55.3502C95.5405 55.1543 96.0126 54.3639 95.8169 53.585L93.7711 45.4422Z" fill="white"/>
<path d="M94.4054 55.7387C94.0081 55.738 93.6223 55.6054 93.3083 55.3617C92.9944 55.1181 92.77 54.777 92.6703 54.392L90.6192 46.2447C90.5618 46.0165 90.5498 45.7793 90.584 45.5465C90.6181 45.3138 90.6978 45.09 90.8183 44.8881C90.9388 44.6861 91.0979 44.5099 91.2864 44.3695C91.475 44.2291 91.6893 44.1273 91.9171 44.0698C92.145 44.0123 92.3819 44.0003 92.6144 44.0345C92.8468 44.0687 93.0703 44.1485 93.272 44.2691C93.4737 44.3898 93.6497 44.5491 93.7899 44.7378C93.9302 44.9266 94.0319 45.1412 94.0893 45.3693L96.1068 53.5167C96.2213 53.9746 96.1505 54.4593 95.91 54.8653C95.6695 55.2713 95.2786 55.5658 94.8223 55.6848C94.6858 55.7183 94.5459 55.7363 94.4054 55.7387ZM92.3542 44.6825C92.2648 44.6727 92.1746 44.6727 92.0852 44.6825C91.7996 44.7542 91.5539 44.9359 91.4015 45.1881C91.2491 45.4404 91.2024 45.7426 91.2715 46.0292L93.3226 54.1765C93.3942 54.4625 93.5757 54.7085 93.8276 54.8611C94.0795 55.0137 94.3814 55.0605 94.6676 54.9913C94.9498 54.9148 95.191 54.7312 95.3401 54.4795C95.4158 54.3533 95.4654 54.2133 95.4862 54.0676C95.507 53.9219 95.4985 53.7735 95.4612 53.6311L93.4437 45.4905C93.3758 45.2548 93.2324 45.048 93.0355 44.902C92.8386 44.7559 92.5992 44.6788 92.3542 44.6825Z" fill="#231F20"/>
<path d="M108.178 53.7387C109.516 53.7387 110.599 52.6535 110.599 51.3147C110.599 49.976 109.516 48.8907 108.178 48.8907C106.841 48.8907 105.757 49.976 105.757 51.3147C105.757 52.6535 106.841 53.7387 108.178 53.7387Z" fill="#231F20"/>
<path d="M108.179 54.0754C107.48 54.0724 106.809 53.8029 106.303 53.3219C105.796 52.8408 105.491 52.1843 105.451 51.4863C105.411 50.7883 105.638 50.1011 106.086 49.565C106.535 49.0288 107.17 48.6839 107.864 48.6006C108.557 48.5173 109.256 48.7019 109.818 49.1166C110.38 49.5314 110.763 50.1452 110.889 50.8329C111.015 51.5207 110.874 52.2306 110.496 52.8181C110.117 53.4055 109.529 53.8263 108.851 53.9946C108.631 54.0476 108.405 54.0747 108.179 54.0754ZM108.179 49.2342C108.006 49.2344 107.835 49.2547 107.667 49.2948C107.151 49.4221 106.702 49.742 106.412 50.1894C106.122 50.6367 106.014 51.1777 106.109 51.7022C106.204 52.2266 106.496 52.6951 106.924 53.012C107.352 53.3289 107.884 53.4704 108.413 53.4077C108.942 53.3451 109.427 53.0829 109.769 52.6746C110.111 52.2664 110.285 51.7428 110.255 51.2106C110.225 50.6784 109.994 50.1776 109.608 49.8104C109.222 49.4432 108.711 49.2371 108.179 49.2342Z" fill="#231F20"/>
<path d="M107.376 42.0204C107.18 41.2415 106.391 40.7688 105.613 40.9648C104.835 41.1607 104.363 41.9511 104.558 42.73L106.604 50.8728C106.8 51.6518 107.589 52.1244 108.367 51.9285C109.145 51.7325 109.617 50.9422 109.422 50.1632L107.376 42.0204Z" fill="white"/>
<path d="M108.01 52.3112C107.613 52.3105 107.227 52.1779 106.913 51.9343C106.599 51.6906 106.375 51.3495 106.275 50.9645L104.237 42.8105C104.121 42.3497 104.193 41.8617 104.436 41.4539C104.68 41.046 105.075 40.7517 105.535 40.6356C105.995 40.5195 106.483 40.5912 106.89 40.8349C107.298 41.0786 107.591 41.4744 107.707 41.9351L109.725 50.0825C109.839 50.5431 109.767 51.0303 109.524 51.4377C109.28 51.8451 108.886 52.1398 108.427 52.2573C108.29 52.2908 108.151 52.3089 108.01 52.3112ZM105.959 41.2551C105.87 41.2452 105.779 41.2452 105.69 41.2551C105.405 41.3283 105.161 41.5103 105.009 41.7621C104.856 42.0138 104.809 42.3153 104.876 42.6017L106.927 50.7895C106.954 50.941 107.011 51.0856 107.096 51.214C107.18 51.3424 107.29 51.4519 107.419 51.5357C107.548 51.6194 107.693 51.6757 107.845 51.7008C107.996 51.726 108.151 51.7196 108.3 51.6819C108.449 51.6443 108.589 51.5763 108.71 51.4821C108.832 51.3879 108.933 51.2696 109.007 51.1347C109.08 50.9997 109.125 50.8509 109.139 50.6977C109.153 50.5444 109.135 50.39 109.086 50.2441L107.069 42.1035C107.006 41.8574 106.863 41.6397 106.661 41.4856C106.46 41.3316 106.212 41.2503 105.959 41.2551Z" fill="#231F20"/>
<path d="M121.783 50.3115C123.12 50.3115 124.204 49.2262 124.204 47.8875C124.204 46.5488 123.12 45.4635 121.783 45.4635C120.446 45.4635 119.362 46.5488 119.362 47.8875C119.362 49.2262 120.446 50.3115 121.783 50.3115Z" fill="#231F20"/>
<path d="M121.783 50.6481C121.085 50.6451 120.414 50.3756 119.907 49.8945C119.4 49.4134 119.096 48.757 119.056 48.0589C119.016 47.3609 119.243 46.6738 119.691 46.1376C120.139 45.6014 120.775 45.2566 121.468 45.1733C122.161 45.09 122.86 45.2745 123.423 45.6893C123.985 46.104 124.368 46.7178 124.494 47.4055C124.62 48.0933 124.479 48.8032 124.1 49.3907C123.722 49.9781 123.133 50.3989 122.456 50.5673C122.235 50.6202 122.01 50.6474 121.783 50.6481ZM121.783 45.8068C121.611 45.807 121.439 45.8274 121.272 45.8674C120.737 46.0041 120.278 46.3469 119.995 46.8212C119.711 47.2954 119.626 47.8626 119.759 48.3991C119.81 48.6799 119.919 48.947 120.078 49.1841C120.237 49.4212 120.442 49.6231 120.682 49.7774C120.922 49.9317 121.191 50.0351 121.472 50.0812C121.754 50.1274 122.042 50.1152 122.318 50.0455C122.594 49.9759 122.854 49.8502 123.08 49.6762C123.306 49.5022 123.494 49.2837 123.632 49.0341C123.77 48.7845 123.856 48.5091 123.884 48.225C123.912 47.9409 123.881 47.6542 123.794 47.3824C123.729 47.1167 123.612 46.8666 123.449 46.6469C123.286 46.4272 123.081 46.2423 122.846 46.1031C122.526 45.9035 122.159 45.7941 121.783 45.7866V45.8068Z" fill="#231F20"/>
<path d="M120.978 38.5922C120.782 37.8132 119.993 37.3406 119.215 37.5366C118.437 37.7325 117.965 38.5228 118.161 39.3018L120.206 47.4446C120.402 48.2236 121.191 48.6962 121.969 48.5003C122.747 48.3043 123.219 47.514 123.024 46.735L120.978 38.5922Z" fill="white"/>
<path d="M121.608 48.884C121.286 48.8828 120.97 48.7944 120.694 48.6281C120.491 48.5092 120.315 48.3507 120.175 48.1622C120.036 47.9736 119.935 47.7588 119.88 47.5306L117.862 39.3833C117.8 39.1533 117.784 38.9131 117.815 38.6767C117.846 38.4404 117.924 38.2127 118.045 38.007C118.165 37.8013 118.325 37.6217 118.516 37.4787C118.706 37.3358 118.923 37.2324 119.154 37.1746C119.385 37.1167 119.626 37.1057 119.861 37.142C120.096 37.1784 120.322 37.2614 120.525 37.3862C120.728 37.511 120.904 37.6751 121.042 37.8689C121.181 38.0627 121.28 38.2822 121.333 38.5147L123.35 46.6553C123.409 46.8835 123.423 47.1212 123.389 47.3546C123.356 47.588 123.277 47.8124 123.156 48.0148C123.035 48.2172 122.875 48.3936 122.686 48.5335C122.496 48.6735 122.281 48.7743 122.052 48.8301C121.907 48.8656 121.758 48.8836 121.608 48.884ZM119.591 37.8279C119.497 37.8276 119.404 37.8412 119.315 37.8683C119.029 37.9399 118.784 38.1217 118.631 38.3739C118.479 38.6261 118.432 38.9284 118.501 39.2149L120.519 47.3623C120.552 47.5031 120.614 47.6355 120.701 47.7514C120.788 47.8672 120.898 47.9639 121.023 48.0356C121.149 48.1125 121.288 48.1634 121.434 48.1853C121.579 48.2073 121.728 48.1999 121.871 48.1635C122.153 48.0871 122.394 47.9035 122.543 47.6518C122.619 47.5269 122.669 47.388 122.689 47.2433C122.71 47.0987 122.702 46.9514 122.664 46.8101L120.647 38.6628C120.57 38.3803 120.387 38.1388 120.136 37.9895C119.966 37.8842 119.77 37.8282 119.571 37.8279H119.591Z" fill="#231F20"/>
<path d="M135.387 46.891C136.725 46.891 137.808 45.8057 137.808 44.467C137.808 43.1282 136.725 42.043 135.387 42.043C134.05 42.043 132.966 43.1282 132.966 44.467C132.966 45.8057 134.05 46.891 135.387 46.891Z" fill="#231F20"/>
<path d="M135.387 47.2209C134.871 47.2182 134.366 47.0705 133.93 46.7947C133.493 46.5188 133.143 46.1258 132.919 45.6605C132.694 45.1951 132.605 44.676 132.661 44.1623C132.716 43.6485 132.915 43.1608 133.234 42.7545C133.553 42.3482 133.979 42.0396 134.465 41.864C134.95 41.6883 135.475 41.6526 135.979 41.7609C136.484 41.8691 136.948 42.1171 137.319 42.4764C137.69 42.8358 137.953 43.2922 138.077 43.7936C138.168 44.1474 138.187 44.5156 138.135 44.8769C138.082 45.2382 137.958 45.5855 137.771 45.8987C137.583 46.2118 137.335 46.4845 137.042 46.7011C136.748 46.9176 136.414 47.0737 136.06 47.1603C135.839 47.2065 135.613 47.2268 135.387 47.2209ZM135.387 42.3796C135.215 42.3798 135.044 42.4002 134.876 42.4402C134.342 42.5768 133.883 42.9199 133.601 43.3945C133.318 43.869 133.235 44.4363 133.37 44.9719C133.511 45.502 133.854 45.9552 134.326 46.2337C134.798 46.5121 135.361 46.5934 135.892 46.46C136.158 46.3939 136.408 46.2759 136.628 46.1127C136.848 45.9495 137.033 45.7444 137.174 45.5091C137.315 45.2738 137.407 45.0131 137.447 44.7418C137.487 44.4705 137.472 44.194 137.405 43.9283C137.286 43.4835 137.024 43.0905 136.659 42.8104C136.294 42.5303 135.847 42.3789 135.387 42.3796Z" fill="#231F20"/>
<path d="M134.581 35.164C134.385 34.385 133.596 33.9124 132.818 34.1083C132.04 34.3043 131.568 35.0946 131.763 35.8736L133.809 44.0164C134.005 44.7954 134.794 45.268 135.572 45.072C136.35 44.8761 136.822 44.0857 136.627 43.3068L134.581 35.164Z" fill="white"/>
<path d="M135.213 45.4567C134.89 45.4562 134.574 45.3677 134.298 45.2008C134.096 45.0819 133.919 44.9234 133.78 44.7349C133.64 44.5463 133.539 44.3315 133.484 44.1033L131.433 35.956C131.322 35.4979 131.395 35.0146 131.635 34.6093C131.755 34.4076 131.913 34.2316 132.101 34.0918C132.289 33.9519 132.504 33.8509 132.731 33.7946C133.188 33.6822 133.67 33.7522 134.076 33.9898C134.278 34.111 134.454 34.271 134.593 34.4605C134.733 34.65 134.834 34.8654 134.89 35.0941L136.907 43.2414C136.966 43.4692 136.978 43.7062 136.944 43.9389C136.911 44.1715 136.831 44.3951 136.71 44.5968C136.59 44.7984 136.43 44.9741 136.241 45.1136C136.052 45.2531 135.837 45.3537 135.609 45.4096C135.48 45.442 135.346 45.4578 135.213 45.4567ZM133.155 34.4073C133.066 34.3941 132.975 34.3941 132.886 34.4073C132.604 34.4808 132.363 34.6622 132.213 34.9123C132.062 35.1676 132.016 35.472 132.085 35.7607L134.137 43.908C134.172 44.0481 134.235 44.1798 134.321 44.2954C134.408 44.411 134.517 44.5082 134.641 44.5814C134.897 44.7315 135.201 44.775 135.488 44.7026C135.774 44.631 136.019 44.449 136.17 44.1965C136.321 43.944 136.366 43.6416 136.295 43.3559L134.278 35.2086C134.207 34.9684 134.058 34.7588 133.855 34.6136C133.651 34.4683 133.405 34.3956 133.155 34.4073Z" fill="#231F20"/>
<path d="M148.993 43.4636C150.33 43.4636 151.414 42.3783 151.414 41.0396C151.414 39.7009 150.33 38.6156 148.993 38.6156C147.656 38.6156 146.572 39.7009 146.572 41.0396C146.572 42.3783 147.656 43.4636 148.993 43.4636Z" fill="#231F20"/>
<path d="M148.993 43.7665C148.476 43.7638 147.971 43.6162 147.535 43.3403C147.099 43.0645 146.748 42.6715 146.524 42.2061C146.3 41.7408 146.21 41.2217 146.266 40.7079C146.322 40.1942 146.52 39.7064 146.839 39.3001C147.158 38.8938 147.584 38.5853 148.07 38.4096C148.555 38.234 149.08 38.1982 149.585 38.3065C150.089 38.4148 150.553 38.6627 150.924 39.0221C151.295 39.3814 151.558 39.8378 151.683 40.3393C151.773 40.693 151.793 41.0612 151.74 41.4226C151.687 41.7839 151.563 42.1312 151.376 42.4443C151.188 42.7574 150.94 43.0302 150.647 43.2467C150.353 43.4633 150.019 43.6194 149.665 43.7059C149.444 43.7521 149.218 43.7725 148.993 43.7665ZM148.993 38.9253C148.82 38.9245 148.648 38.9471 148.481 38.9926C148.084 39.0942 147.725 39.3116 147.45 39.6174C147.175 39.9231 146.997 40.3035 146.938 40.7105C146.879 41.1175 146.942 41.5328 147.119 41.904C147.296 42.2752 147.579 42.5857 147.931 42.7961C148.284 43.0066 148.691 43.1077 149.102 43.0866C149.512 43.0654 149.907 42.9231 150.236 42.6775C150.565 42.4319 150.815 42.0941 150.953 41.7067C151.09 41.3193 151.11 40.8997 151.01 40.5009C150.891 40.0561 150.629 39.6631 150.264 39.383C149.9 39.1029 149.452 38.9515 148.993 38.9522V38.9253Z" fill="#231F20"/>
<path d="M148.184 31.7375C147.988 30.9585 147.199 30.4859 146.421 30.6818C145.643 30.8778 145.171 31.6681 145.367 32.4471L147.412 40.5899C147.608 41.3688 148.397 41.8415 149.175 41.6455C149.953 41.4496 150.426 40.6592 150.23 39.8803L148.184 31.7375Z" fill="white"/>
<path d="M148.817 42.0294C148.421 42.0296 148.035 41.8972 147.722 41.6533C147.409 41.4093 147.186 41.0678 147.089 40.6827L145.038 32.5421C144.922 32.0814 144.994 31.5934 145.237 31.1856C145.48 30.7777 145.876 30.4834 146.336 30.3673C146.796 30.2512 147.283 30.3229 147.691 30.5666C148.098 30.8103 148.392 31.2061 148.508 31.6668L150.526 39.8141C150.583 40.0418 150.595 40.2786 150.561 40.511C150.526 40.7433 150.447 40.9666 150.326 41.168C150.206 41.3694 150.046 41.545 149.858 41.6848C149.669 41.8245 149.455 41.9256 149.228 41.9823C149.093 42.0158 148.956 42.0317 148.817 42.0294ZM146.773 30.9733C146.682 30.9745 146.592 30.9858 146.504 31.0069C146.218 31.0786 145.973 31.2603 145.82 31.5126C145.668 31.7648 145.621 32.0671 145.69 32.3536L147.741 40.5009C147.831 40.7683 148.017 40.9921 148.264 41.1274C148.511 41.2627 148.8 41.2996 149.073 41.2306C149.346 41.1616 149.583 40.9919 149.737 40.7555C149.89 40.519 149.948 40.2333 149.9 39.9555L147.883 31.8082C147.819 31.5641 147.675 31.3487 147.473 31.1971C147.272 31.0455 147.025 30.9666 146.773 30.9733Z" fill="#231F20"/>
<path d="M93.9548 128.29C93.8986 128.29 93.8432 128.276 93.7934 128.25C93.7544 128.229 93.7201 128.2 93.6922 128.166C93.6644 128.131 93.6436 128.091 93.6311 128.049C93.6186 128.006 93.6146 127.962 93.6194 127.918C93.6242 127.874 93.6376 127.831 93.6589 127.792L95.3536 124.621C95.3734 124.581 95.401 124.546 95.4346 124.518C95.4681 124.489 95.5071 124.468 95.5491 124.455C95.5911 124.441 95.6353 124.437 95.6791 124.441C95.7229 124.445 95.7654 124.458 95.8042 124.479C95.8437 124.5 95.8787 124.528 95.9072 124.562C95.9358 124.596 95.9572 124.636 95.9703 124.679C95.9835 124.721 95.988 124.766 95.9838 124.81C95.9795 124.855 95.9664 124.898 95.9454 124.937L94.2507 128.115C94.2206 128.167 94.1775 128.211 94.1257 128.242C94.0738 128.272 94.015 128.289 93.9548 128.29Z" fill="#231F20"/>
<path d="M93.4977 69.5553C94.1885 69.5553 94.7486 68.9946 94.7486 68.3029C94.7486 67.6113 94.1885 67.0505 93.4977 67.0505C92.8069 67.0505 92.2469 67.6113 92.2469 68.3029C92.2469 68.9946 92.8069 69.5553 93.4977 69.5553Z" fill="#D1D3D4"/>
<path d="M155.623 53.3146C155.118 53.4504 154.583 53.4197 154.096 53.2271C153.687 53.059 153.233 53.0306 152.805 53.1463C152.375 53.2422 151.989 53.4792 151.709 53.8196C151.371 54.2198 150.914 54.5008 150.404 54.6209C149.902 54.7566 149.368 54.7259 148.885 54.5334C148.475 54.3653 148.021 54.3369 147.593 54.4526C147.163 54.5484 146.777 54.7854 146.497 55.1259C146.161 55.5245 145.706 55.8052 145.199 55.9272C144.694 56.0596 144.16 56.029 143.673 55.8396C143.266 55.6669 142.813 55.6384 142.388 55.7588C141.957 55.8562 141.569 56.0928 141.285 56.4322C140.95 56.8323 140.495 57.1133 139.987 57.2334C139.482 57.3659 138.948 57.3352 138.461 57.1459C138.051 56.986 137.602 56.9577 137.175 57.0651C136.748 57.1725 136.366 57.4102 136.08 57.7452C135.749 58.1601 135.291 58.4537 134.776 58.5801C134.273 58.7188 133.739 58.688 133.256 58.4926C132.846 58.3326 132.396 58.3044 131.97 58.4118C131.543 58.5192 131.161 58.7568 130.875 59.0918C130.533 59.4855 130.08 59.7649 129.575 59.8925C129.07 60.0201 128.538 59.9898 128.051 59.8056C127.641 59.6375 127.187 59.6091 126.759 59.7248C126.329 59.8206 125.943 60.0576 125.663 60.3981C125.322 60.7926 124.868 61.0726 124.363 61.2002C123.858 61.3279 123.326 61.297 122.839 61.1118C122.429 60.9519 121.979 60.9236 121.553 61.031C121.126 61.1384 120.744 61.3761 120.458 61.7111C120.116 62.1048 119.663 62.3842 119.158 62.5118C118.653 62.6394 118.121 62.6091 117.633 62.4248C117.225 62.2526 116.769 62.2242 116.342 62.344C115.911 62.4374 115.525 62.6749 115.246 63.0174C114.901 63.4065 114.445 63.6799 113.94 63.8004C113.435 63.9209 112.904 63.8826 112.422 63.6907C112.011 63.5345 111.562 63.5089 111.136 63.6173C110.71 63.7258 110.327 63.963 110.041 64.2967C109.704 64.6967 109.246 64.9756 108.736 65.0912C108.234 65.2299 107.7 65.1991 107.216 65.0037C106.807 64.8438 106.357 64.8155 105.931 64.9229C105.504 65.0303 105.121 65.268 104.836 65.603C104.511 66.0078 104.066 66.2981 103.565 66.4312C103.062 66.5709 102.528 66.5401 102.045 66.3436C101.635 66.1755 101.181 66.1471 100.754 66.2628C100.699 66.2762 100.642 66.2674 100.594 66.2384C100.546 66.2094 100.512 66.1624 100.498 66.108C100.485 66.0535 100.494 65.9959 100.523 65.948C100.552 65.9 100.598 65.8655 100.653 65.8521C101.155 65.7124 101.69 65.7432 102.173 65.9396C102.584 66.1001 103.034 66.1287 103.462 66.0213C103.89 65.9139 104.273 65.6759 104.56 65.3404C104.896 64.9417 105.351 64.661 105.858 64.5391C106.363 64.4067 106.898 64.4373 107.385 64.6266C107.794 64.7866 108.244 64.8148 108.67 64.7074C109.097 64.6001 109.48 64.3624 109.765 64.0274C110.102 63.6287 110.556 63.348 111.063 63.2261C111.569 63.0937 112.103 63.1243 112.59 63.3136C113 63.4736 113.449 63.5018 113.876 63.3944C114.302 63.2871 114.685 63.0494 114.97 62.7144C115.304 62.3319 115.748 62.0635 116.241 61.9468C116.744 61.8076 117.278 61.8384 117.761 62.0343C118.171 62.2024 118.625 62.2308 119.052 62.1151C119.481 62.0164 119.866 61.7799 120.149 61.4418C120.49 61.0473 120.943 60.7673 121.449 60.6396C121.954 60.512 122.486 60.5428 122.973 60.728C123.383 60.888 123.832 60.9162 124.259 60.8088C124.686 60.7015 125.068 60.4638 125.354 60.1288C125.693 59.73 126.15 59.4494 126.658 59.3275C127.161 59.1913 127.694 59.222 128.178 59.415C128.588 59.5832 129.042 59.6115 129.469 59.4958C129.9 59.4 130.285 59.163 130.566 58.8225C130.902 58.4239 131.357 58.1432 131.864 58.0212C132.369 57.8888 132.903 57.9194 133.39 58.1088C133.8 58.2687 134.249 58.297 134.676 58.1896C135.103 58.0822 135.485 57.8445 135.771 57.5095C136.109 57.1093 136.566 56.8284 137.075 56.7082C137.579 56.5742 138.112 56.6073 138.595 56.8025C139.007 56.9592 139.457 56.9851 139.884 56.8767C140.312 56.7683 140.695 56.5308 140.983 56.1965C141.326 55.8048 141.78 55.5272 142.285 55.4009C142.789 55.2746 143.32 55.3055 143.807 55.4895C144.215 55.6561 144.666 55.6845 145.092 55.5703C145.521 55.4716 145.906 55.2351 146.188 54.897C146.523 54.4938 146.982 54.2122 147.492 54.0957C147.995 53.956 148.529 53.9868 149.012 54.1832C149.422 54.3514 149.876 54.3797 150.304 54.264C150.734 54.1682 151.119 53.9312 151.4 53.5907C151.742 53.1965 152.197 52.9168 152.703 52.7892C153.21 52.6616 153.743 52.6922 154.231 52.877C154.639 53.0436 155.09 53.072 155.515 52.9578C155.947 52.8604 156.334 52.6238 156.618 52.2844C156.951 51.8813 157.407 51.5996 157.916 51.4832C157.971 51.4706 158.029 51.4797 158.078 51.5085C158.127 51.5373 158.163 51.5836 158.179 51.638C158.181 51.6835 158.168 51.7285 158.143 51.7662C158.117 51.8038 158.08 51.8322 158.037 51.8468C157.606 51.9441 157.218 52.1807 156.934 52.5201C156.595 52.9202 156.135 53.199 155.623 53.3146Z" fill="#D1D3D4"/>
<path d="M156.975 58.6944C156.47 58.8336 155.934 58.8028 155.448 58.6069C155.038 58.4374 154.583 58.4113 154.157 58.5328C153.726 58.6262 153.339 58.8636 153.061 59.2061C152.724 59.6061 152.266 59.885 151.756 60.0007C151.255 60.1436 150.721 60.1176 150.236 59.9266C149.825 59.7648 149.373 59.7363 148.945 59.845C148.517 59.9537 148.133 60.1942 147.849 60.5326C147.502 60.9185 147.046 61.1896 146.541 61.3099C146.037 61.4302 145.508 61.3939 145.024 61.2059C144.616 61.0393 144.165 61.0109 143.74 61.1251C143.308 61.2225 142.921 61.4591 142.637 61.7985C142.297 62.1924 141.844 62.4721 141.34 62.5998C140.836 62.7274 140.305 62.6969 139.819 62.5122C139.409 62.3441 138.956 62.3157 138.528 62.4314C138.098 62.5273 137.712 62.7643 137.432 63.1047C137.104 63.5258 136.649 63.8285 136.134 63.9666C135.629 64.099 135.094 64.0684 134.607 63.8791C134.197 63.7191 133.748 63.6909 133.321 63.7983C132.895 63.9057 132.512 64.1433 132.227 64.4783C131.885 64.872 131.431 65.1514 130.926 65.279C130.421 65.4066 129.889 65.3763 129.402 65.1921C128.993 65.0199 128.538 64.9914 128.111 65.1113C127.68 65.2047 127.293 65.4421 127.015 65.7846C126.668 66.1705 126.212 66.4416 125.707 66.5619C125.203 66.6822 124.674 66.6459 124.19 66.4579C123.779 66.3018 123.33 66.2761 122.904 66.3846C122.478 66.493 122.096 66.7302 121.81 67.0639C121.471 67.4624 121.014 67.741 120.505 67.8585C120.003 67.9976 119.468 67.9669 118.985 67.7709C118.575 67.6028 118.122 67.5744 117.694 67.6901C117.264 67.786 116.878 68.023 116.598 68.3635C116.257 68.7579 115.803 69.0379 115.298 69.1656C114.793 69.2933 114.26 69.2624 113.773 69.0772C113.363 68.9173 112.914 68.889 112.487 68.9964C112.061 69.1038 111.678 69.3415 111.393 69.6765C111.051 70.0701 110.597 70.3496 110.092 70.4772C109.587 70.6048 109.055 70.5744 108.568 70.3902C108.162 70.218 107.709 70.1895 107.284 70.3094C106.854 70.4053 106.468 70.6423 106.187 70.9827C105.848 71.3815 105.392 71.6621 104.883 71.784C104.379 71.9181 103.846 71.885 103.363 71.6897C102.953 71.5203 102.498 71.4942 102.072 71.6157C102.017 71.628 101.96 71.6187 101.913 71.5899C101.865 71.561 101.831 71.5147 101.816 71.4608C101.804 71.4055 101.813 71.3476 101.841 71.2988C101.87 71.2499 101.917 71.214 101.971 71.1982C102.474 71.0654 103.006 71.096 103.491 71.2857C103.9 71.4579 104.355 71.4864 104.782 71.3665C105.213 71.2731 105.6 71.0357 105.878 70.6932C106.225 70.3073 106.681 70.0362 107.186 69.9159C107.69 69.7956 108.219 69.8319 108.703 70.0199C109.112 70.1798 109.562 70.2081 109.988 70.1007C110.415 69.9933 110.798 69.7556 111.083 69.4206C111.424 69.0262 111.878 68.7461 112.383 68.6185C112.888 68.4908 113.421 68.5217 113.908 68.7069C114.316 68.8735 114.767 68.9019 115.192 68.7877C115.624 68.6903 116.011 68.4537 116.295 68.1143C116.63 67.7143 117.086 67.4332 117.593 67.3131C118.096 67.1802 118.628 67.2109 119.113 67.4006C119.523 67.5687 119.977 67.5971 120.404 67.4814C120.834 67.3855 121.22 67.1486 121.5 66.8081C121.834 66.402 122.289 66.114 122.798 65.9866C123.304 65.8542 123.838 65.8848 124.325 66.0741C124.735 66.2341 125.184 66.2623 125.611 66.1549C126.037 66.0476 126.42 65.8099 126.705 65.4749C127.044 65.0764 127.501 64.7978 128.01 64.6803C128.512 64.5407 129.047 64.5714 129.53 64.7679C129.94 64.9373 130.395 64.9634 130.821 64.8419C131.252 64.7485 131.639 64.5111 131.917 64.1686C132.26 63.7769 132.714 63.4993 133.219 63.373C133.724 63.2467 134.255 63.2776 134.742 63.4616C135.152 63.6216 135.601 63.6498 136.028 63.5424C136.454 63.435 136.837 63.1973 137.122 62.8623C137.46 62.4621 137.918 62.1812 138.427 62.0611C138.93 61.9254 139.463 61.9561 139.947 62.1486C140.358 62.3091 140.808 62.3376 141.236 62.2302C141.664 62.1229 142.048 61.8849 142.334 61.5493C142.671 61.1507 143.125 60.87 143.632 60.7481C144.138 60.6156 144.672 60.6463 145.159 60.8356C145.567 61.0022 146.018 61.0306 146.443 60.9164C146.875 60.8191 147.262 60.5825 147.546 60.2431C147.881 59.843 148.337 59.5619 148.844 59.4418C149.35 59.3094 149.884 59.34 150.371 59.5293C150.781 59.6893 151.23 59.7175 151.657 59.6101C152.083 59.5028 152.466 59.2651 152.751 58.9301C153.089 58.5299 153.547 58.249 154.056 58.1288C154.561 57.9964 155.096 58.027 155.583 58.2163C155.989 58.3891 156.442 58.4176 156.867 58.2971C157.298 58.1998 157.686 57.9632 157.97 57.6238C158.306 57.2252 158.761 56.9445 159.268 56.8225C159.295 56.8154 159.324 56.8138 159.352 56.8178C159.38 56.8217 159.407 56.8312 159.431 56.8455C159.455 56.8599 159.477 56.879 159.494 56.9016C159.511 56.9242 159.523 56.95 159.53 56.9774C159.541 57.0308 159.532 57.0864 159.505 57.1335C159.478 57.1807 159.434 57.2162 159.382 57.2333C158.951 57.3306 158.563 57.5672 158.279 57.9066C157.943 58.3056 157.484 58.5825 156.975 58.6944Z" fill="#D1D3D4"/>
<path d="M135.266 68.6127C134.961 68.7604 134.694 68.977 134.486 69.2456C134.258 69.5615 133.927 69.7872 133.549 69.8832C133.172 69.9792 132.773 69.9394 132.422 69.7708C131.989 69.5592 131.494 69.5137 131.03 69.6429C130.566 69.7537 130.156 70.0257 129.873 70.4105C129.647 70.7299 129.312 70.9551 128.932 71.0434C128.554 71.1474 128.151 71.1066 127.802 70.9289C127.37 70.7232 126.879 70.6778 126.416 70.801C125.949 70.9122 125.536 71.1867 125.253 71.5753C125.027 71.8948 124.692 72.12 124.311 72.2083C123.934 72.3122 123.531 72.2714 123.182 72.0938C122.75 71.888 122.259 71.8427 121.796 71.9659C121.329 72.077 120.916 72.3516 120.633 72.7402C120.407 73.0596 120.072 73.2849 119.691 73.3731C119.313 73.4733 118.912 73.4326 118.562 73.2587C118.124 73.0636 117.632 73.024 117.169 73.1464C116.705 73.2689 116.298 73.546 116.013 73.932C115.789 74.2533 115.453 74.4791 115.071 74.5649C114.694 74.6697 114.292 74.6313 113.942 74.4572C113.511 74.2457 113.019 74.1978 112.556 74.3225C112.093 74.4389 111.684 74.7125 111.399 75.0969C111.172 75.4145 110.838 75.6392 110.458 75.7298C110.08 75.8338 109.677 75.793 109.328 75.6153C108.896 75.4096 108.405 75.3642 107.943 75.4874C107.475 75.5986 107.063 75.8731 106.779 76.2617C106.554 76.5812 106.219 76.8064 105.838 76.8947C105.46 76.9942 105.059 76.9535 104.708 76.7802C104.276 76.5745 103.785 76.5291 103.323 76.6523C103.296 76.6586 103.27 76.6702 103.248 76.6866C103.225 76.703 103.206 76.7237 103.192 76.7475C103.177 76.7714 103.168 76.7979 103.164 76.8255C103.16 76.853 103.161 76.8812 103.168 76.9081C103.175 76.9356 103.188 76.9613 103.205 76.9839C103.222 77.0066 103.243 77.0256 103.267 77.04C103.292 77.0544 103.318 77.0638 103.346 77.0678C103.374 77.0717 103.403 77.0701 103.43 77.063C103.806 76.9627 104.206 77.0034 104.553 77.1775C104.988 77.3773 105.477 77.4229 105.94 77.3066C106.404 77.1903 106.814 76.9191 107.102 76.5378C107.319 76.2018 107.656 75.9611 108.044 75.8645C108.422 75.7643 108.823 75.805 109.174 75.9789C109.611 76.174 110.103 76.2136 110.566 76.0912C111.03 75.9688 111.437 75.6916 111.722 75.3056C111.948 74.9862 112.283 74.7609 112.664 74.6727C113.041 74.5711 113.442 74.6093 113.794 74.7804C114.224 74.9919 114.716 75.0398 115.179 74.9151C115.644 74.8025 116.054 74.528 116.336 74.1407C116.563 73.8231 116.897 73.5984 117.277 73.5078C117.655 73.4038 118.058 73.4447 118.407 73.6223C118.839 73.828 119.33 73.8734 119.792 73.7502C120.26 73.6391 120.672 73.3645 120.956 72.9759C121.181 72.6565 121.516 72.4312 121.897 72.3429C122.275 72.2428 122.677 72.2835 123.027 72.4574C123.465 72.6525 123.956 72.6921 124.42 72.5697C124.883 72.4472 125.291 72.1701 125.576 71.7841C125.804 71.4666 126.137 71.2398 126.516 71.1438C126.895 71.0477 127.295 71.0885 127.647 71.2589C128.085 71.454 128.576 71.4936 129.04 71.3711C129.503 71.2487 129.911 70.9716 130.196 70.5855C130.434 70.2938 130.767 70.0958 131.137 70.0267C131.515 69.9251 131.916 69.9633 132.267 70.1344C132.697 70.3459 133.19 70.3938 133.653 70.2691C134.118 70.1565 134.528 69.882 134.809 69.4947C134.961 69.2956 135.151 69.1286 135.367 69.0032L135.266 68.6127Z" fill="#D1D3D4"/>
<path d="M98.1984 88.2605C98.8892 88.2605 99.4492 87.6998 99.4492 87.0081C99.4492 86.3165 98.8892 85.7557 98.1984 85.7557C97.5076 85.7557 96.9475 86.3165 96.9475 87.0081C96.9475 87.6998 97.5076 88.2605 98.1984 88.2605Z" fill="#D1D3D4"/>
<path d="M146.524 74.2216C146.198 74.3819 145.911 74.6117 145.683 74.8949C145.399 75.2343 145.012 75.4709 144.58 75.5682C144.155 75.6824 143.704 75.654 143.296 75.4874C142.809 75.3022 142.277 75.2714 141.772 75.399C141.266 75.5267 140.812 75.8067 140.471 76.2012C140.189 76.5393 139.804 76.7758 139.375 76.8745C138.95 76.9887 138.499 76.9603 138.091 76.7937C137.607 76.6057 137.078 76.5695 136.574 76.6897C136.069 76.81 135.613 77.0811 135.266 77.467C134.98 77.8026 134.596 78.0406 134.168 78.1479C133.74 78.2553 133.29 78.2268 132.879 78.0663C132.392 77.8821 131.86 77.8517 131.355 77.9793C130.85 78.1069 130.396 78.3864 130.054 78.78C129.769 79.115 129.386 79.3527 128.96 79.4601C128.533 79.5675 128.084 79.5392 127.674 79.3793C127.187 79.19 126.653 79.1593 126.147 79.2918C125.64 79.4119 125.184 79.6929 124.849 80.093C124.567 80.4312 124.182 80.6676 123.753 80.7664C123.326 80.8821 122.872 80.8537 122.462 80.6856C121.979 80.4901 121.445 80.4594 120.942 80.598C120.432 80.7154 119.973 80.9968 119.637 81.3993C119.352 81.7343 118.969 81.972 118.543 82.0794C118.116 82.1867 117.667 82.1585 117.257 81.9986C116.77 81.8145 116.239 81.7836 115.734 81.91C115.229 82.0363 114.775 82.3139 114.432 82.7056C114.154 83.048 113.767 83.2855 113.336 83.3789C112.91 83.5004 112.455 83.4743 112.045 83.3048C111.563 83.1135 111.034 83.0755 110.53 83.196C110.026 83.3165 109.571 83.5896 109.227 83.9782C108.945 84.3163 108.56 84.5528 108.131 84.6515C107.704 84.7714 107.249 84.7429 106.84 84.5707C106.355 84.3814 105.823 84.3508 105.32 84.4832C105.266 84.4975 105.22 84.5321 105.191 84.5798C105.162 84.6276 105.153 84.6846 105.165 84.739C105.172 84.7662 105.183 84.7918 105.2 84.8144C105.216 84.8369 105.237 84.856 105.26 84.8704C105.284 84.8849 105.311 84.8944 105.338 84.8984C105.366 84.9024 105.394 84.9009 105.421 84.8939C105.846 84.7797 106.297 84.8081 106.705 84.9747C107.189 85.1627 107.718 85.1989 108.222 85.0787C108.727 84.9584 109.183 84.6873 109.53 84.3014C109.816 83.9658 110.2 83.7278 110.628 83.6205C111.056 83.5131 111.506 83.5416 111.917 83.7021C112.404 83.8863 112.936 83.9167 113.441 83.7891C113.946 83.6614 114.4 83.382 114.742 82.9884C115.027 82.6534 115.41 82.4157 115.836 82.3083C116.263 82.2009 116.712 82.2291 117.122 82.3891C117.61 82.5733 118.141 82.6037 118.646 82.4761C119.151 82.3484 119.605 82.069 119.947 81.6754C120.232 81.3404 120.615 81.1027 121.042 80.9953C121.468 80.8879 121.918 80.9161 122.327 81.0761C122.813 81.2721 123.349 81.3028 123.854 81.1636C124.364 81.0491 124.821 80.767 125.152 80.3624C125.439 80.0268 125.822 79.7888 126.25 79.6814C126.678 79.5741 127.128 79.6026 127.539 79.7631C128.023 79.9585 128.557 79.9893 129.059 79.8506C129.569 79.735 130.027 79.456 130.364 79.0561C130.65 78.7224 131.033 78.4852 131.459 78.3767C131.885 78.2683 132.334 78.2939 132.744 78.4501C133.23 78.6461 133.766 78.6768 134.271 78.5376C134.78 78.4202 135.237 78.1415 135.576 77.7431C135.861 77.4081 136.244 77.1704 136.67 77.063C137.097 76.9556 137.546 76.9839 137.956 77.1438C138.444 77.328 138.975 77.3584 139.48 77.2308C139.985 77.1032 140.439 76.8237 140.781 76.4301C141.066 76.0951 141.449 75.8574 141.876 75.75C142.302 75.6426 142.752 75.6709 143.161 75.8308C143.649 76.016 144.181 76.0469 144.686 75.9192C145.191 75.7916 145.645 75.5115 145.986 75.1171C146.174 74.9037 146.403 74.7298 146.658 74.6054L146.524 74.2216Z" fill="#D1D3D4"/>
<path d="M136.726 82.7594L136.618 82.8739C136.338 83.2143 135.952 83.4513 135.522 83.5472C135.095 83.6629 134.641 83.6345 134.231 83.4664C133.744 83.2822 133.212 83.2518 132.707 83.3794C132.202 83.507 131.748 83.7865 131.406 84.1801C131.124 84.5183 130.739 84.7548 130.31 84.8535C129.885 84.9677 129.434 84.9393 129.026 84.7727C128.542 84.5847 128.013 84.5484 127.509 84.6687C127.004 84.789 126.548 85.0601 126.201 85.446C125.914 85.7803 125.53 86.0178 125.103 86.1262C124.676 86.2346 124.226 86.2087 123.814 86.052C123.331 85.8568 122.798 85.8237 122.294 85.9577C121.785 86.0779 121.327 86.3588 120.989 86.759C120.709 87.0995 120.323 87.3365 119.893 87.4323C119.468 87.5528 119.015 87.5243 118.609 87.3515C118.122 87.1622 117.588 87.1316 117.082 87.264C116.575 87.3859 116.121 87.6666 115.784 88.0653C115.499 88.4003 115.116 88.638 114.69 88.7453C114.263 88.8527 113.814 88.8245 113.404 88.6645C112.917 88.4793 112.384 88.4485 111.879 88.5761C111.374 88.7038 110.92 88.9838 110.579 89.3783C110.293 89.7138 109.909 89.9518 109.481 90.0592C109.053 90.1666 108.603 90.138 108.192 89.9775C107.709 89.7816 107.174 89.7508 106.672 89.89C106.645 89.8966 106.62 89.9085 106.597 89.925C106.575 89.9414 106.556 89.9621 106.542 89.9859C106.527 90.0096 106.518 90.036 106.514 90.0634C106.509 90.0909 106.511 90.1189 106.517 90.1459C106.524 90.1728 106.536 90.1982 106.552 90.2206C106.569 90.243 106.589 90.2619 106.613 90.2763C106.637 90.2907 106.663 90.3002 106.69 90.3044C106.718 90.3086 106.746 90.3074 106.773 90.3007C107.2 90.1809 107.655 90.2093 108.064 90.3815C108.549 90.5712 109.081 90.6019 109.584 90.4691C110.091 90.3489 110.547 90.0679 110.882 89.6678C111.168 89.3322 111.552 89.0943 111.98 88.9869C112.408 88.8795 112.858 88.9081 113.269 89.0685C113.756 89.2528 114.288 89.2831 114.793 89.1555C115.298 89.0279 115.752 88.7485 116.094 88.3548C116.379 88.0198 116.762 87.7821 117.188 87.6747C117.615 87.5673 118.064 87.5956 118.474 87.7555C118.958 87.9435 119.487 87.9798 119.991 87.8595C120.496 87.7392 120.952 87.4681 121.299 87.0822C121.577 86.7397 121.964 86.5023 122.395 86.4089C122.821 86.2874 123.276 86.3135 123.686 86.4829C124.171 86.6704 124.703 86.703 125.207 86.5765C125.711 86.4499 126.164 86.1703 126.504 85.7759C126.786 85.4378 127.171 85.2013 127.6 85.1026C128.027 84.9827 128.482 85.0112 128.891 85.1834C129.378 85.3727 129.913 85.4034 130.418 85.2709C130.925 85.149 131.379 84.8683 131.716 84.4697C131.996 84.1292 132.382 83.8922 132.812 83.7963C133.24 83.6806 133.693 83.709 134.103 83.8771C134.587 84.0701 135.12 84.1008 135.623 83.9647C136.096 83.8568 136.523 83.6051 136.847 83.2442L136.726 82.7594Z" fill="#D1D3D4"/>
<path d="M101.702 102.219C102.393 102.219 102.953 101.658 102.953 100.966C102.953 100.275 102.393 99.714 101.702 99.714C101.012 99.714 100.452 100.275 100.452 100.966C100.452 101.658 101.012 102.219 101.702 102.219Z" fill="#D1D3D4"/>
<path d="M108.945 98.933C109.37 98.8098 109.824 98.8383 110.23 99.0138C110.717 99.198 111.249 99.2284 111.754 99.1008C112.259 98.9732 112.713 98.6937 113.054 98.3001C113.34 97.9651 113.722 97.7274 114.149 97.62C114.576 97.5126 115.025 97.5408 115.435 97.7008C115.922 97.8901 116.456 97.9208 116.961 97.7883C117.468 97.6664 117.923 97.3857 118.259 96.9871C118.545 96.6521 118.928 96.4144 119.354 96.307C119.781 96.1996 120.23 96.2278 120.64 96.3878C121.126 96.5837 121.662 96.6145 122.167 96.4753C122.676 96.3608 123.133 96.0787 123.465 95.6741C123.751 95.3385 124.135 95.1005 124.563 94.9932C124.99 94.8858 125.441 94.9143 125.852 95.0748C126.335 95.2702 126.869 95.301 127.372 95.1623C127.881 95.0467 128.339 94.7677 128.676 94.3678C128.963 94.0341 129.345 93.7969 129.771 93.6884C130.197 93.58 130.646 93.6056 131.057 93.7618C131.543 93.9497 132.076 93.9827 132.581 93.8561C133.087 93.7296 133.541 93.4497 133.882 93.0548C134.168 92.7192 134.552 92.4813 134.98 92.3739C135.408 92.2665 135.858 92.295 136.269 92.4555C136.756 92.6397 137.288 92.6701 137.793 92.5425C138.298 92.4149 138.752 92.1354 139.093 91.7418C139.374 91.4013 139.759 91.1643 140.19 91.0685C140.264 91.0685 140.324 91.0685 140.391 91.0348C140.391 90.8934 140.391 90.752 140.391 90.6106C140.294 90.6208 140.198 90.6365 140.102 90.6577C139.593 90.7733 139.134 91.0523 138.798 91.4523C138.514 91.7901 138.132 92.0303 137.705 92.139C137.278 92.2477 136.827 92.2195 136.417 92.0583C135.933 91.8703 135.404 91.834 134.9 91.9543C134.395 92.0746 133.939 92.3457 133.592 92.7316C133.31 93.0698 132.925 93.3062 132.496 93.4049C132.069 93.5248 131.614 93.4963 131.205 93.3241C130.718 93.1348 130.184 93.1042 129.678 93.2366C129.172 93.3585 128.717 93.6392 128.38 94.0379C128.1 94.3783 127.714 94.6153 127.284 94.7112C126.859 94.8316 126.406 94.8031 126 94.6304C125.513 94.4411 124.979 94.4104 124.473 94.5429C123.966 94.663 123.51 94.944 123.175 95.3441C122.893 95.6823 122.508 95.9188 122.079 96.0175C121.652 96.1332 121.198 96.1048 120.788 95.9367C120.305 95.7412 119.771 95.7105 119.268 95.8491C118.758 95.9666 118.299 96.2479 117.963 96.6504C117.678 96.9854 117.295 97.2231 116.869 97.3305C116.442 97.4378 115.993 97.4096 115.583 97.2497C115.096 97.0656 114.565 97.0347 114.06 97.161C113.555 97.2874 113.101 97.565 112.758 97.9567C112.472 98.2904 112.09 98.5276 111.664 98.636C111.238 98.7445 110.789 98.7188 110.378 98.5627C109.892 98.3674 109.357 98.3343 108.851 98.4684C108.796 98.4827 108.748 98.5184 108.719 98.5676C108.69 98.6169 108.682 98.6756 108.696 98.731C108.711 98.7864 108.746 98.8338 108.796 98.8628C108.845 98.8919 108.903 98.9001 108.959 98.8859L108.945 98.933Z" fill="#D1D3D4"/>
<path d="M71.1707 94.6169C76.2951 87.9441 82.6032 82.2679 89.2542 77.1573C90.9018 75.8914 92.6839 74.6188 94.7485 74.4034C96.8131 74.1879 99.1937 75.4874 99.456 77.568C99.6443 79.211 98.5279 80.6654 97.4788 81.9245L83.733 98.3606C85.848 101.691 86.9471 105.567 86.8958 109.514C86.8444 113.46 85.6448 117.306 83.4438 120.581" fill="white"/>
<path d="M83.3899 120.944C83.3203 120.944 83.2524 120.923 83.1948 120.884C83.1228 120.831 83.0742 120.752 83.0591 120.664C83.044 120.576 83.0638 120.486 83.1141 120.412C87.5056 114.164 87.6266 104.966 83.3966 98.5492C83.354 98.4905 83.331 98.4198 83.331 98.3472C83.331 98.2746 83.354 98.2039 83.3966 98.1452L97.1425 81.7091C98.1916 80.4432 99.2071 79.0898 99.039 77.6085C98.8238 75.6828 96.5843 74.5516 94.7282 74.7401C92.8721 74.9286 91.0967 76.1272 89.402 77.4334C81.6615 83.3722 75.952 88.8801 71.379 94.8256C71.3533 94.8637 71.32 94.896 71.2813 94.9207C71.2425 94.9454 71.1992 94.9619 71.1539 94.9691C71.1085 94.9764 71.0622 94.9743 71.0177 94.9629C70.9732 94.9516 70.9315 94.9313 70.8952 94.9032C70.8589 94.8751 70.8287 94.8398 70.8065 94.7996C70.7842 94.7594 70.7705 94.7151 70.766 94.6693C70.7616 94.6236 70.7666 94.5774 70.7806 94.5336C70.7947 94.4899 70.8175 94.4495 70.8477 94.4149C75.4409 88.4424 81.2043 82.874 89.0053 76.9082C90.7874 75.5616 92.556 74.3024 94.6744 74.087C96.7928 73.8715 99.4559 75.2249 99.7249 77.5479C99.9199 79.2918 98.817 80.7799 97.667 82.1535L84.0825 98.401C86.1913 101.776 87.2734 105.693 87.197 109.673C87.1206 113.653 85.8889 117.525 83.6521 120.816C83.6212 120.856 83.5814 120.889 83.5359 120.911C83.4904 120.933 83.4405 120.944 83.3899 120.944Z" fill="#231F20"/>
<path d="M207.217 129.9L186.659 145.642C186.659 145.642 175.435 125.94 167.56 120.129C162.141 116.28 156.332 113.012 150.23 110.38C149.281 107.935 138.125 96.5493 142.395 96.7782C146.665 97.0072 166.134 106.683 168.522 106.279C170.909 105.875 174.951 101.29 172.173 96.7109C169.396 92.1322 167.284 87.4256 162.362 89.0551C154.883 91.533 147.95 95.9972 144.587 96.0847C141.225 96.1722 137.318 93.3173 140.842 88.5636C144.877 83.1298 155.563 76.3358 165.22 73.528C174.877 70.7202 189.551 86.4426 195.825 99.788C201.844 107.491 205.516 123.308 207.217 129.9Z" fill="white"/>
<path d="M186.659 145.979H186.592C186.546 145.968 186.502 145.949 186.464 145.921C186.426 145.893 186.394 145.858 186.37 145.817C186.256 145.622 175.092 126.109 167.358 120.405C161.959 116.578 156.175 113.324 150.102 110.696C150.061 110.678 150.023 110.653 149.992 110.62C149.961 110.588 149.937 110.549 149.921 110.507C149.625 109.747 148.145 107.902 146.558 105.949C142.879 101.357 140.506 98.2528 141.178 96.9667C141.302 96.7679 141.484 96.6117 141.699 96.519C141.914 96.4264 142.152 96.4017 142.382 96.4483C144.621 96.5695 150.761 99.1416 156.699 101.646C161.945 103.848 167.372 106.124 168.434 105.949C169.497 105.774 171.299 104.4 172.18 102.468C172.605 101.588 172.798 100.614 172.741 99.6384C172.685 98.6628 172.381 97.7177 171.857 96.8927C171.575 96.4213 171.293 95.9568 171.024 95.4922C168.65 91.4522 166.599 88.0047 162.436 89.3783C159.184 90.5294 156 91.8647 152.9 93.3779C149.309 95.0545 146.464 96.381 144.588 96.4281C142.442 96.482 140.364 95.4114 139.537 93.8156C138.965 92.7248 138.683 90.8933 140.553 88.3683C144.729 82.7325 155.744 75.9386 165.112 73.2116C169.625 71.8649 175.623 74.4438 182.005 80.3624C187.846 85.8769 192.63 92.4149 196.121 99.6534C201.69 106.784 205.213 120.655 207.11 128.108C207.265 128.735 207.413 129.307 207.547 129.825C207.563 129.889 207.56 129.956 207.539 130.019C207.517 130.081 207.478 130.135 207.426 130.176L186.868 145.911C186.808 145.956 186.734 145.98 186.659 145.979ZM150.485 110.124C156.566 112.758 162.356 116.019 167.762 119.853C175.159 125.294 185.2 142.43 186.76 145.137L206.841 129.758C206.72 129.293 206.592 128.795 206.458 128.257C204.575 120.85 201.078 107.033 195.57 100.017L195.529 99.9496C189.659 87.4324 174.978 71.0434 165.327 73.8445C156.081 76.5378 145.226 83.224 141.117 88.7588C139.772 90.5364 139.463 92.1726 140.149 93.4722C140.835 94.7717 142.678 95.7682 144.588 95.7211C146.329 95.674 149.255 94.3138 152.658 92.7315C155.78 91.2001 158.989 89.8511 162.268 88.6915C166.941 87.1428 169.228 91.0078 171.642 95.1016C171.911 95.5595 172.187 96.0308 172.469 96.4954C173.046 97.4162 173.382 98.4678 173.446 99.5529C173.509 100.638 173.298 101.722 172.833 102.704C171.945 104.649 170.143 106.313 168.589 106.568C167.419 106.77 163.209 105.06 156.484 102.219C150.875 99.8621 144.52 97.1822 142.395 97.0745C142.173 97.0745 141.898 97.0745 141.824 97.2293C141.313 98.2191 144.816 102.616 147.13 105.484C148.376 106.934 149.498 108.486 150.485 110.124Z" fill="#231F20"/>
<path d="M132.732 93.1893L132.288 100.259L125.253 97.4919L121.514 96.0241L125.415 95.041L132.732 93.1893Z" fill="white"/>
<path d="M132.281 100.596H132.16L121.4 96.354C121.334 96.3283 121.279 96.2825 121.241 96.2232C121.204 96.1638 121.186 96.0941 121.191 96.024C121.194 95.9526 121.22 95.8841 121.265 95.8285C121.31 95.7728 121.371 95.7328 121.44 95.7143L132.657 92.8796C132.709 92.8667 132.763 92.8662 132.814 92.8781C132.866 92.89 132.914 92.9141 132.955 92.9482C132.996 92.9824 133.028 93.0257 133.048 93.0746C133.069 93.1235 133.078 93.1767 133.074 93.2297L132.624 100.306C132.62 100.359 132.604 100.41 132.577 100.456C132.55 100.501 132.513 100.54 132.469 100.569C132.41 100.596 132.345 100.605 132.281 100.596ZM122.617 96.0914L131.978 99.7812L132.368 93.627L122.617 96.0914Z" fill="#231F20"/>
<path d="M187.116 103.761L132.281 100.259C131.923 99.1029 131.766 97.8935 131.817 96.6839C131.923 95.4758 132.232 94.2944 132.731 93.1893L187.567 96.6907L187.116 103.761Z" fill="#1DC9B7"/>
<path d="M187.117 104.097L132.281 100.596C132.214 100.592 132.15 100.568 132.097 100.528C132.045 100.487 132.005 100.431 131.985 100.367C131.179 97.958 131.345 95.3287 132.449 93.0411C132.48 92.9813 132.528 92.9316 132.586 92.8982C132.645 92.8647 132.711 92.8489 132.779 92.8526L187.608 96.3539C187.652 96.3565 187.695 96.3678 187.735 96.3871C187.775 96.4065 187.81 96.4335 187.84 96.4666C187.869 96.4998 187.892 96.5384 187.906 96.5803C187.92 96.6222 187.926 96.6665 187.924 96.7108L187.473 103.781C187.47 103.825 187.459 103.867 187.439 103.907C187.419 103.946 187.392 103.981 187.359 104.01C187.292 104.069 187.206 104.101 187.117 104.097ZM132.537 99.9428L186.801 103.404L187.211 97.0003L132.947 93.5394C132.03 95.5513 131.884 97.8302 132.537 99.9428Z" fill="#231F20"/>
<path d="M195.889 104.308L187.117 103.748L187.567 96.6787L196.339 97.239C196.596 97.2554 196.848 97.3224 197.08 97.4362C197.311 97.55 197.518 97.7084 197.688 97.9022C197.859 98.096 197.989 98.3215 198.072 98.5659C198.156 98.8102 198.19 99.0686 198.174 99.3263L197.973 102.478C197.938 102.997 197.699 103.481 197.309 103.824C196.918 104.167 196.407 104.341 195.889 104.308Z" fill="white"/>
<path d="M196.014 104.663H195.866L187.123 104.104C187.079 104.101 187.036 104.09 186.996 104.071C186.956 104.051 186.92 104.024 186.891 103.991C186.862 103.958 186.839 103.919 186.825 103.878C186.81 103.836 186.804 103.791 186.807 103.747L187.258 96.6704C187.259 96.6261 187.27 96.5826 187.289 96.5426C187.308 96.5027 187.335 96.467 187.369 96.438C187.402 96.409 187.441 96.3871 187.483 96.3738C187.525 96.3605 187.57 96.356 187.614 96.3607L196.356 96.9195C196.658 96.9375 196.953 97.0151 197.225 97.148C197.496 97.2809 197.739 97.4663 197.938 97.6936C198.138 97.9209 198.29 98.1855 198.387 98.4722C198.484 98.7589 198.523 99.0619 198.502 99.3637L198.307 102.515C198.265 103.097 198.005 103.641 197.58 104.041C197.155 104.44 196.596 104.664 196.014 104.67V104.663ZM187.473 103.444L195.906 103.983C196.119 103.997 196.333 103.969 196.535 103.899C196.737 103.83 196.923 103.721 197.083 103.579C197.245 103.439 197.378 103.268 197.473 103.076C197.567 102.884 197.622 102.675 197.634 102.461L197.836 99.3099C197.85 99.0967 197.821 98.8829 197.752 98.6807C197.683 98.4786 197.575 98.2921 197.434 98.132C197.292 97.9718 197.121 97.8412 196.929 97.7475C196.737 97.6538 196.529 97.599 196.316 97.5861L187.883 97.0475L187.473 103.444Z" fill="#231F20"/>
<path d="M190.433 96.8824L189.426 96.8181L188.976 103.887L189.982 103.952L190.433 96.8824Z" fill="#231F20"/>
<path d="M192.438 97.0101L191.431 96.9458L190.981 104.015L191.987 104.079L192.438 97.0101Z" fill="#231F20"/>
<path d="M125.415 95.041L125.253 97.492L121.514 96.0241L125.415 95.041Z" fill="#1DC9B7"/>
<path d="M125.253 97.8286C125.213 97.835 125.172 97.835 125.132 97.8286L121.393 96.354C121.328 96.3284 121.272 96.2825 121.235 96.2232C121.197 96.1639 121.18 96.0941 121.184 96.0241C121.188 95.9527 121.214 95.8842 121.258 95.8285C121.303 95.7728 121.364 95.7328 121.433 95.7143L125.327 94.7313C125.378 94.7179 125.432 94.7171 125.483 94.7288C125.535 94.7405 125.583 94.7644 125.623 94.7986C125.664 94.8323 125.697 94.8757 125.718 94.925C125.739 94.9743 125.748 95.0279 125.744 95.0814L125.589 97.5391C125.588 97.5815 125.577 97.6232 125.56 97.6618C125.542 97.7003 125.517 97.735 125.485 97.7637C125.454 97.7925 125.417 97.8148 125.378 97.8294C125.338 97.844 125.295 97.8506 125.253 97.8488V97.8286ZM122.617 96.0914L124.95 97.0139L125.045 95.4787L122.617 96.0914Z" fill="#231F20"/>
<path d="M150.721 110.494C150.721 110.494 140.25 106.124 137.849 104.434C133.949 101.693 138.434 95.9903 141.212 96.6771C143.169 97.1552 153.727 100.811 155.892 101.646" fill="white"/>
<path d="M150.721 110.831C150.678 110.837 150.635 110.837 150.593 110.831C150.162 110.649 140.055 106.42 137.654 104.73C135.993 103.559 135.535 101.667 136.45 99.6735C137.365 97.6804 139.49 95.923 141.279 96.3674C143.215 96.8455 153.807 100.508 156 101.357C156.041 101.372 156.079 101.395 156.111 101.425C156.144 101.455 156.17 101.491 156.188 101.531C156.206 101.571 156.216 101.615 156.217 101.659C156.218 101.703 156.211 101.747 156.195 101.788C156.162 101.871 156.097 101.938 156.016 101.974C155.934 102.011 155.841 102.014 155.758 101.983C153.572 101.135 143.034 97.4986 141.117 97.0206C139.839 96.7041 137.903 98.0979 137.082 99.9496C136.69 100.651 136.574 101.474 136.756 102.257C136.937 103.04 137.404 103.728 138.064 104.185C140.404 105.828 150.768 110.164 150.842 110.204C150.883 110.221 150.92 110.246 150.952 110.278C150.984 110.31 151.008 110.347 151.025 110.389C151.042 110.43 151.051 110.474 151.05 110.519C151.05 110.564 151.041 110.608 151.023 110.649C150.995 110.705 150.952 110.752 150.898 110.784C150.845 110.816 150.783 110.832 150.721 110.831Z" fill="#231F20"/>
<path d="M224.669 171.357L210.715 126.95L177.897 136.027L185.967 171.357H224.669Z" fill="#231F20"/>
<path d="M224.669 171.7H185.966C185.889 171.702 185.814 171.676 185.754 171.628C185.694 171.58 185.652 171.513 185.637 171.437L177.567 136.108C177.548 136.023 177.563 135.934 177.608 135.86C177.653 135.786 177.725 135.733 177.809 135.71L210.62 126.634C210.704 126.611 210.793 126.621 210.87 126.662C210.946 126.704 211.004 126.773 211.03 126.856L224.991 171.296C225.006 171.347 225.009 171.401 224.999 171.454C224.99 171.506 224.969 171.556 224.938 171.599C224.904 171.636 224.862 171.664 224.815 171.681C224.768 171.699 224.718 171.705 224.669 171.7ZM186.235 171.027H224.211L210.492 127.361L178.3 136.269L186.235 171.027Z" fill="#231F20"/>
<path d="M93.0401 171.357L97.3777 137.138L64.2571 133.441L54.7278 171.357H93.0401Z" fill="#1DC9B7"/>
<path d="M93.0403 171.7H54.7078C54.6562 171.7 54.6053 171.689 54.5587 171.667C54.5121 171.645 54.4711 171.612 54.4388 171.572C54.4078 171.531 54.3863 171.484 54.3758 171.434C54.3653 171.384 54.3662 171.332 54.3783 171.282L63.9076 133.36C63.9281 133.282 63.9761 133.214 64.0428 133.168C64.1095 133.122 64.1904 133.102 64.2708 133.111L97.3981 136.808C97.4424 136.813 97.4852 136.827 97.5242 136.848C97.5631 136.87 97.5973 136.899 97.6248 136.934C97.6524 136.969 97.6727 137.01 97.6845 137.053C97.6964 137.096 97.6996 137.141 97.694 137.185L93.3564 171.404C93.3457 171.482 93.3085 171.554 93.2509 171.608C93.1934 171.662 93.119 171.694 93.0403 171.7ZM55.1449 171.027H92.7309L96.9879 137.441L64.4994 133.811L55.1449 171.027Z" fill="#1DC9B7"/>
<path d="M214.328 137.94L179.831 146.016C178.804 146.256 178.166 147.285 178.406 148.313L179.593 153.394C179.833 154.423 180.86 155.062 181.887 154.821L216.384 146.745C217.411 146.505 218.049 145.476 217.809 144.448L216.622 139.367C216.382 138.338 215.355 137.699 214.328 137.94Z" fill="white"/>
<path d="M181.454 155.197C180.947 155.197 180.455 155.026 180.058 154.71C179.661 154.395 179.383 153.954 179.269 153.459L178.078 148.382C177.944 147.799 178.045 147.187 178.361 146.679C178.515 146.427 178.719 146.208 178.959 146.036C179.199 145.864 179.471 145.741 179.76 145.676L214.252 137.596C214.832 137.463 215.44 137.565 215.945 137.881C216.449 138.196 216.808 138.699 216.942 139.279L218.132 144.356C218.264 144.935 218.161 145.543 217.848 146.047C217.534 146.551 217.035 146.911 216.458 147.049L216.377 146.719L216.458 147.049L181.959 155.129C181.794 155.171 181.624 155.194 181.454 155.197ZM214.763 138.215C214.643 138.215 214.524 138.229 214.407 138.255L179.907 146.335C179.503 146.435 179.153 146.689 178.932 147.042C178.821 147.218 178.747 147.414 178.713 147.618C178.68 147.823 178.688 148.033 178.737 148.234L179.921 153.311C180.017 153.717 180.269 154.069 180.623 154.29C180.977 154.511 181.404 154.582 181.811 154.49L216.31 146.41C216.715 146.314 217.066 146.06 217.286 145.706C217.505 145.351 217.575 144.924 217.48 144.517L216.296 139.434C216.215 139.088 216.019 138.779 215.741 138.558C215.463 138.337 215.118 138.216 214.763 138.215Z" fill="#231F20"/>
<path d="M199.625 154.436C204.539 154.436 208.522 150.447 208.522 145.528C208.522 140.608 204.539 136.619 199.625 136.619C194.711 136.619 190.728 140.608 190.728 145.528C190.728 150.447 194.711 154.436 199.625 154.436Z" fill="white"/>
<path d="M199.625 154.766C197.798 154.767 196.012 154.226 194.493 153.21C192.973 152.195 191.789 150.751 191.089 149.062C190.389 147.372 190.206 145.513 190.562 143.719C190.918 141.925 191.798 140.277 193.089 138.984C194.381 137.69 196.027 136.81 197.819 136.453C199.61 136.097 201.467 136.28 203.155 136.981C204.842 137.681 206.284 138.867 207.298 140.389C208.312 141.91 208.853 143.698 208.852 145.527C208.848 147.976 207.875 150.324 206.145 152.056C204.416 153.788 202.071 154.762 199.625 154.766ZM199.625 136.956C197.932 136.955 196.276 137.456 194.867 138.397C193.458 139.338 192.36 140.677 191.711 142.243C191.062 143.809 190.891 145.532 191.221 147.196C191.551 148.859 192.365 150.387 193.562 151.586C194.759 152.786 196.285 153.603 197.946 153.934C199.607 154.265 201.328 154.096 202.893 153.447C204.458 152.799 205.795 151.7 206.736 150.29C207.677 148.881 208.179 147.223 208.179 145.527C208.177 143.256 207.276 141.078 205.672 139.471C204.069 137.864 201.894 136.96 199.625 136.956Z" fill="#231F20"/>
<path d="M199.625 146.706C199.569 146.707 199.513 146.693 199.464 146.665C199.417 146.639 199.377 146.602 199.346 146.558C199.316 146.514 199.296 146.463 199.289 146.41C199.201 145.736 198.784 142.37 198.784 142.046C198.786 141.958 198.822 141.873 198.885 141.81C198.947 141.747 199.032 141.711 199.121 141.71C199.21 141.71 199.295 141.745 199.358 141.808C199.421 141.871 199.457 141.957 199.457 142.046C199.457 142.242 199.706 144.322 199.901 145.851L205.597 143.003C205.676 142.963 205.768 142.956 205.853 142.984C205.937 143.011 206.007 143.071 206.047 143.151C206.068 143.19 206.081 143.233 206.084 143.277C206.088 143.321 206.083 143.366 206.069 143.408C206.055 143.45 206.033 143.489 206.004 143.522C205.975 143.555 205.939 143.582 205.899 143.602L199.773 146.672C199.726 146.693 199.676 146.704 199.625 146.706Z" fill="#D1D3D4"/>
</svg>
