<svg xmlns="http://www.w3.org/2000/svg" width="201" height="166" viewBox="0 0 201 166"><g><g><g><path fill="#fff" d="M65.075 49.227L.968 68.04l11.027 37.505 64.108-18.813z"/></g><g><path fill="#231f20" d="M12 105.938a.394.394 0 0 1-.188-.051.454.454 0 0 1-.189-.231L.596 68.15a.394.394 0 0 1 .266-.489l64.106-18.846a.395.395 0 0 1 .49.265l11.027 37.505a.35.35 0 0 1 0 .292.343.343 0 0 1-.232.188l-64.107 18.847zM1.463 68.305l10.805 36.751 63.36-18.59-10.813-36.76z"/></g><g><path fill="#231f20" d="M40.133 83.19a.386.386 0 0 1-.137 0L.834 68.402a.394.394 0 1 1 .274-.737l38.888 14.667 24.773-33.35a.395.395 0 0 1 .626.47L40.45 83.036a.393.393 0 0 1-.317.154z"/></g><g><path fill="#231f20" d="M76.023 86.782a.386.386 0 0 1-.137 0L45.762 75.424a.39.39 0 1 1 .275-.728l30.166 11.36a.377.377 0 0 1 .232.496.386.386 0 0 1-.412.231z"/></g><g><path fill="#231f20" d="M11.884 105.63a.386.386 0 0 1-.317-.617L30.75 79.168a.39.39 0 0 1 .647.03.39.39 0 0 1-.02.432l-19.157 25.837a.377.377 0 0 1-.335.163z"/></g><g><path fill="#fff" d="M77.923 40.948L19.89 7.866.498 41.816 58.53 74.9z"/></g><g><path fill="#231f20" d="M58.522 75.282a.394.394 0 0 1-.197-.051L.298 42.147a.386.386 0 0 1-.189-.232.402.402 0 0 1 0-.3l19.43-33.95a.403.403 0 0 1 .541-.145l58.027 33.085a.384.384 0 0 1 .146.53l-19.388 33.95a.412.412 0 0 1-.24.189zM1.069 41.658l57.35 32.7 19.002-33.265-57.392-32.7z"/></g><g><path fill="#231f20" d="M36.407 46.679a.403.403 0 0 1-.36-.24L19.53 8.018a.394.394 0 0 1 .635-.436c.037.036.066.08.085.127l16.404 38.147 41.263-5.294a.378.378 0 0 1 .437.334.387.387 0 0 1-.334.437L36.5 46.67z"/></g><g><path fill="#231f20" d="M58.69 75.008a.395.395 0 0 1-.361-.24L45.621 45.205a.394.394 0 0 1 .206-.514.395.395 0 0 1 .514.205L59.05 74.46a.394.394 0 0 1-.206.514.335.335 0 0 1-.154.034z"/></g><g><path fill="#231f20" d="M.658 41.925a.395.395 0 0 1-.051-.78l31.942-4.111a.386.386 0 0 1 .437.334.403.403 0 0 1-.334.445L.744 41.917z"/></g><g><path fill="#1dc9b7" d="M176.815 29.51H88.69v68.893h111.218V50.807c0-11.745-10.342-21.297-23.093-21.297z"/></g><g><path fill="#231f20" d="M88.676 98.776a.395.395 0 0 1-.386-.394V29.505a.385.385 0 0 1 .386-.385h88.134c12.948 0 23.487 9.74 23.487 21.708v47.57a.406.406 0 0 1-.395.378zm.386-.771h110.446V50.802c0-11.54-10.179-20.928-22.698-20.928H89.062z"/></g><g/><g/><g><path fill="#fff" d="M65.589 98.4h46.176v40.88a21.012 21.012 0 0 1-6.163 14.865 21.054 21.054 0 0 1-14.88 6.158h-4.099a21.053 21.053 0 0 1-14.88-6.158 21.012 21.012 0 0 1-6.163-14.865V98.4z"/></g><g><path fill="#231f20" d="M86.638 160.7a21.448 21.448 0 0 1-15.16-6.272 21.406 21.406 0 0 1-6.278-15.144v-40.88a.402.402 0 0 1 .394-.394h46.177a.403.403 0 0 1 .394.394v40.88c0 5.68-2.258 11.128-6.279 15.144a21.448 21.448 0 0 1-15.158 6.273zm-20.65-61.919v40.486a20.635 20.635 0 0 0 6.054 14.582 20.676 20.676 0 0 0 14.596 6.047h4.09a20.676 20.676 0 0 0 14.578-6.047 20.635 20.635 0 0 0 6.053-14.565V98.781z"/></g><g><path fill="#d1d3d4" d="M100.087 135.867H77.269a.429.429 0 1 1 0-.857h22.818a.429.429 0 1 1 0 .857z"/></g><g><path fill="#fff" d="M136.556 64.164a4.414 4.414 0 0 0 4.416-4.412 4.414 4.414 0 0 0-4.416-4.412 4.414 4.414 0 0 0-4.416 4.412 4.414 4.414 0 0 0 4.416 4.412z"/></g><g><path fill="#231f20" d="M136.56 64.552a4.814 4.814 0 0 1-4.452-2.963 4.802 4.802 0 0 1 1.041-5.241 4.812 4.812 0 0 1 8.212 3.406 4.804 4.804 0 0 1-1.409 3.39c-.9.9-2.12 1.406-3.393 1.408zm0-8.815a4.024 4.024 0 0 0-3.716 2.48 4.014 4.014 0 0 0 2.93 5.478 4.025 4.025 0 0 0 4.13-1.708 4.015 4.015 0 0 0-1.806-5.944 4.025 4.025 0 0 0-1.539-.306z"/></g><g><path fill="#231f20" d="M136.554 55.738a.403.403 0 0 1-.394-.394V1.065a.394.394 0 0 1 .667-.272c.073.072.113.17.113.273v54.278a.394.394 0 0 1-.386.394z"/></g><g><path fill="#fff" d="M152.792 5.173l-16.232 7.3V1.07h16.233z"/></g><g><path fill="#231f20" d="M136.559 12.899a.43.43 0 0 1-.232-.069.412.412 0 0 1-.197-.36V1.069a.428.428 0 0 1 .429-.428h16.232a.437.437 0 0 1 .43.428v4.095a.437.437 0 0 1-.258.394l-16.233 7.3a.395.395 0 0 1-.171.042zm.429-11.402v10.28l15.375-6.914V1.437z"/></g><g><path fill="#fff" d="M145.798 98.4H127.19v4.438h18.608z"/></g><g><path fill="#231f20" d="M127.184 103.227a.395.395 0 0 1-.394-.385v-4.438a.402.402 0 0 1 .394-.394h18.608a.403.403 0 0 1 .395.394v4.438a.394.394 0 0 1-.395.385zm.395-.78h17.819v-3.666h-17.82z"/></g><g><path fill="#fff" d="M130.18 164.94v-62.1h11.199v62.1"/></g><g><path fill="#231f20" d="M141.37 165.328a.395.395 0 0 1-.387-.394v-61.68h-10.418v61.68a.394.394 0 1 1-.78 0v-62.1a.385.385 0 0 1 .394-.394h11.19a.386.386 0 0 1 .395.394v62.1a.394.394 0 0 1-.395.394z"/></g><g><path fill="#fff" d="M103.892 54.414l-.077.3-2.178 8.42-2.152 8.301-.695 2.665-1.706 6.588-2.907 11.239-.009.034-.077.291L53.55 81.776l-2.607-.669-9.99-2.578-11.542-2.99.077-.317L39.203 37.7l10.744 2.776 10.727 2.767 12.323 3.195 25.227 6.51 5.6 1.448z"/></g><g><path fill="#231f20" d="M94.004 92.653l-64.69-16.714a.403.403 0 0 1-.283-.48l.085-.317 9.707-37.53a.454.454 0 0 1 .18-.24.37.37 0 0 1 .3 0l64.622 16.696c.11.03.208.096.274.189a.42.42 0 0 1 .086.308l-6.817 26.223-2.993 11.565a.386.386 0 0 1-.377.3zM29.897 75.27l63.926 16.516 9.613-37.085-63.952-16.525z"/></g><g><path fill="#231f20" d="M65.243 70.837a.396.396 0 0 1-.308-.146L38.9 37.95a.394.394 0 0 1 .617-.489l25.845 32.554 38.39-15.926a.395.395 0 0 1 .3.728L65.39 70.854a.407.407 0 0 1-.146-.017z"/></g><g><path fill="#231f20" d="M94.208 92.33a.396.396 0 0 1-.3-.146L73.85 66.99a.394.394 0 0 1 .617-.489l20.023 25.195a.393.393 0 0 1-.06.557.445.445 0 0 1-.223.077z"/></g><g><path fill="#231f20" d="M29.493 75.652a.387.387 0 0 1-.345-.572.386.386 0 0 1 .2-.174l29.703-12.37a.395.395 0 1 1 .3.728L29.614 75.6a.49.49 0 0 1-.12.052z"/></g><g><path fill="#fff" d="M111.773 51.659v22.033l-1.312-.248-9.827-1.945-9.99-1.987-9.38-1.834-10.436-2.064-2.084-.411-.549-.112-2.572-.522-10.29-2.04-3.173-.625 1.912-9.68 1.467-7.376 4.227-21.288 30.012 5.945L97.9 31.1a22.212 22.212 0 0 1 12.417 12.644c.326.838.595 1.696.806 2.57h.077v.309c.387 1.65.58 3.341.574 5.037z"/></g><g><path fill="#231f20" d="M111.702 74.116l-1.312-.248-58.362-11.565a.403.403 0 0 1-.248-.172.35.35 0 0 1-.06-.29l7.606-38.345a.394.394 0 0 1 .463-.309l38.184 7.565a22.623 22.623 0 0 1 12.708 12.85c.308.804.569 1.624.78 2.459a.377.377 0 0 1 .12.256v.257c.396 1.665.594 3.37.592 5.08v22.034a.368.368 0 0 1-.145.3.377.377 0 0 1-.258.128zM52.602 61.6l58.757 11.651V51.663c0-1.668-.195-3.33-.583-4.951a.42.42 0 0 1 0-.103v-.086a.524.524 0 0 1-.06-.12 19.695 19.695 0 0 0-.78-2.51 21.767 21.767 0 0 0-12.203-12.422l-37.73-7.47z"/></g><g><path fill="#231f20" d="M87.578 55.16a.404.404 0 0 1-.3-.128l-27.86-31.217a.388.388 0 1 1 .582-.514l27.672 30.986 22.466-10.871a.412.412 0 0 1 .532.18.402.402 0 0 1-.189.531l-22.74 10.957a.386.386 0 0 1-.163.077z"/></g><g><path fill="#231f20" d="M111.767 68.32a.404.404 0 0 1-.292-.138L95.972 50.801a.394.394 0 0 1 .583-.523l15.503 17.365a.385.385 0 0 1 0 .548.403.403 0 0 1-.291.128z"/></g><g><path fill="#231f20" d="M52.19 61.985a.385.385 0 0 1-.351-.222.394.394 0 0 1 .18-.523l28.983-14.015a.394.394 0 1 1 .343.703l-29.01 14.015a.319.319 0 0 1-.145.042z"/></g><g><path fill="#fff" d="M111.78 55.34h-56.5v39.09h56.5z"/></g><g><path fill="#231f20" d="M55.274 94.828a.403.403 0 0 1-.394-.394v-39.09a.394.394 0 0 1 .394-.394h56.493a.386.386 0 0 1 .394.394v39.09a.394.394 0 0 1-.394.394zm.386-.788h55.738V55.73H55.66z"/></g><g><path fill="#231f20" d="M88.676 80.924a.403.403 0 0 1-.24-.077L54.993 55.661a.386.386 0 0 1-.12-.163.317.317 0 0 1-.043-.154.385.385 0 0 1 .395-.394.404.404 0 0 1 .291.129l33.108 24.963 22.913-17.245a.394.394 0 1 1 .471.626l-23.1 17.416a.394.394 0 0 1-.232.085z"/></g><g><path fill="#231f20" d="M111.772 86.713a.394.394 0 0 1-.232-.077l-15.435-11.6a.394.394 0 0 1 .334-.693c.05.013.097.037.138.068l15.392 11.6a.393.393 0 0 1-.24.702z"/></g><g><path fill="#231f20" d="M55.27 94.493a.395.395 0 0 1-.23-.702l25.724-19.387a.395.395 0 0 1 .472.626L55.51 94.416a.421.421 0 0 1-.24.077z"/></g><g><path fill="#fff" d="M87.25 58.791L27.013 87.676l16.931 35.24 60.237-28.884z"/></g><g><path fill="#231f20" d="M43.928 123.324a.394.394 0 0 1-.352-.223L26.649 87.858a.42.42 0 0 1 .197-.523l60.24-28.878a.395.395 0 0 1 .523.188l16.884 35.235a.402.402 0 0 1 0 .3.386.386 0 0 1-.197.223L44.099 123.28a.42.42 0 0 1-.171.043zm-16.404-35.45l16.584 34.533 59.527-28.544-16.575-34.49z"/></g><g><path fill="#231f20" d="M68.035 96.348h-.078l-41.03-8.275a.387.387 0 0 1-.253-.597.385.385 0 0 1 .406-.165l40.74 8.215L86.9 58.629a.394.394 0 0 1 .694.36L68.386 96.143a.385.385 0 0 1-.351.205z"/></g><g><path fill="#231f20" d="M104.038 94.155h-.077L72.396 87.79a.394.394 0 0 1 0-.773.386.386 0 0 1 .155.002l31.564 6.365a.394.394 0 0 1-.077.78z"/></g><g><path fill="#231f20" d="M43.795 123.024a.396.396 0 0 1-.352-.574l14.75-28.578a.403.403 0 0 1 .531-.171.403.403 0 0 1 .172.53l-14.784 28.58a.386.386 0 0 1-.317.213z"/></g><g><path fill="#231f20" d="M130.18 112.537l11.199 8.233v-17.93H130.18z"/></g><g><path fill="#231f20" d="M141.368 121.197a.43.43 0 0 1-.249-.077l-11.207-8.233a.437.437 0 0 1-.172-.343v-9.706a.428.428 0 0 1 .429-.428h11.199a.43.43 0 0 1 .428.428v17.93a.42.42 0 0 1-.428.429zm-10.77-8.875l10.34 7.607v-16.662h-10.332z"/></g></g></g></svg>