<svg xmlns="http://www.w3.org/2000/svg" width="594" height="584" viewBox="0 0 594 584"><g><g><g/><g><g><path fill="#d1d3d4" d="M125.302 170.298H80.93a1.05 1.05 0 0 1-1.05-1.049 1.025 1.025 0 0 1 1.05-1.049h44.372a1.05 1.05 0 0 1 1.05 1.05 1.072 1.072 0 0 1-1.05 1.048z"/></g><g><path fill="#d1d3d4" d="M145.987 151.508H80.57a1.05 1.05 0 0 1-1.05-1.049 1.025 1.025 0 0 1 1.05-1.049h65.417a1.028 1.028 0 0 1 1.05 1.05 1.048 1.048 0 0 1-1.05 1.048z"/></g><g><path fill="#d1d3d4" d="M102.02 132.718H80.77a1.05 1.05 0 0 1-1.05-1.049 1.025 1.025 0 0 1 1.05-1.049h21.25a1.05 1.05 0 0 1 1.05 1.049 1.07 1.07 0 0 1-1.05 1.049z"/></g><g><path fill="#d1d3d4" d="M152.971 133.378H115.15a1.05 1.05 0 0 1-1.05-1.05 1.071 1.071 0 0 1 1.05-1.048h37.821a1.074 1.074 0 0 1 1.05 1.049 1.047 1.047 0 0 1-1.05 1.049z"/></g><g/><g/><g/><g/><g><path fill="#d1d3d4" d="M497.93 224.968h-44.44a1.05 1.05 0 0 1-1.05-1.05 1.071 1.071 0 0 1 1.05-1.048h44.44a1.073 1.073 0 0 1 1.05 1.049 1.048 1.048 0 0 1-1.05 1.049z"/></g><g><path fill="#d1d3d4" d="M514.593 224.968h-8.423a1.028 1.028 0 0 1-1.05-1.05 1.048 1.048 0 0 1 1.05-1.048h8.423a1.05 1.05 0 0 1 1.05 1.049 1.025 1.025 0 0 1-1.05 1.049z"/></g><g><path fill="#d1d3d4" d="M518.465 206.2h-65.348a1.073 1.073 0 0 1-.656-1.76c.168-.195.4-.323.656-.36h65.348a1.073 1.073 0 0 1 .655 1.76 1.073 1.073 0 0 1-.655.36z"/></g><g><path fill="#d1d3d4" d="M474.6 187.418h-21.25a1.05 1.05 0 0 1-1.05-1.049 1.025 1.025 0 0 1 1.05-1.049h21.25a1.05 1.05 0 0 1 1.05 1.05 1.07 1.07 0 0 1-1.05 1.048z"/></g><g><path fill="#d1d3d4" d="M525.541 188.078H487.72a1.05 1.05 0 0 1-.742-1.79 1.05 1.05 0 0 1 .742-.308h37.821a1.05 1.05 0 0 1 .742 1.79 1.05 1.05 0 0 1-.742.308z"/></g><g/><g/><g/><g/><g/><g><path fill="#d1d3d4" d="M116.151 435.913a1.096 1.096 0 0 1-1.004-.753l-20.84-57.958-22.824 44.506a1.186 1.186 0 0 1-.913.616 1.143 1.143 0 0 1-1.005-.456l-22.688-29.64-14.197 22.8a1.117 1.117 0 0 1-1.552.387l-12.53-7.455a1.163 1.163 0 0 1-.389-1.574 1.14 1.14 0 0 1 1.575-.387l11.413 6.84 14.47-23.188a1.163 1.163 0 0 1 .914-.524 1.028 1.028 0 0 1 .958.433l22.597 29.526 23.282-45.235a1.095 1.095 0 0 1 1.095-.616 1.096 1.096 0 0 1 .982.753l20.793 57.82 9.883-20.884a1.145 1.145 0 0 1 1.484-.465 1.14 1.14 0 0 1 .571 1.445l-11.048 23.37a1.117 1.117 0 0 1-1.027.638z"/></g><g><path fill="#fff" d="M31.562 417.217a2.92 2.92 0 0 0 2.921-2.919 2.92 2.92 0 0 0-2.921-2.918 2.92 2.92 0 0 0-2.922 2.918 2.92 2.92 0 0 0 2.922 2.919z"/></g><g><path fill="#d1d3d4" d="M31.586 418.357a4.066 4.066 0 0 1-3.77-2.49 4.054 4.054 0 0 1 .866-4.43 4.064 4.064 0 0 1 6.944 2.861 4.056 4.056 0 0 1-1.182 2.862 4.065 4.065 0 0 1-2.858 1.197zm0-5.814a1.76 1.76 0 0 0-1.78 1.755 1.776 1.776 0 0 0 1.768 1.98 1.782 1.782 0 0 0 1.77-1.98 1.755 1.755 0 0 0-1.758-1.755z"/></g><g><path fill="#fff" d="M46.652 393.167a2.92 2.92 0 0 0 2.921-2.919 2.92 2.92 0 0 0-2.921-2.918 2.92 2.92 0 0 0-2.922 2.918 2.92 2.92 0 0 0 2.922 2.919z"/></g><g><path fill="#d1d3d4" d="M46.656 394.277a4.066 4.066 0 0 1-3.772-2.495 4.054 4.054 0 0 1 .876-4.433 4.064 4.064 0 0 1 6.936 2.892 4.056 4.056 0 0 1-1.19 2.847 4.065 4.065 0 0 1-2.85 1.189zm0-5.814a1.781 1.781 0 0 0-1.78 1.778 1.777 1.777 0 0 0 2.127 1.744 1.781 1.781 0 0 0 1.297-2.424 1.779 1.779 0 0 0-1.644-1.098z"/></g><g><path fill="#fff" d="M94.422 377.277a2.92 2.92 0 0 0 2.921-2.919 2.92 2.92 0 0 0-2.921-2.918 2.92 2.92 0 0 0-2.922 2.918 2.92 2.92 0 0 0 2.922 2.919z"/></g><g><path fill="#d1d3d4" d="M94.423 378.387a4.066 4.066 0 0 1-3.756-2.51 4.054 4.054 0 0 1 .891-4.426 4.064 4.064 0 0 1 6.928 2.9 4.032 4.032 0 0 1-2.51 3.735 4.044 4.044 0 0 1-1.553.3zm0-5.814a1.782 1.782 0 0 0-1.746 2.125 1.778 1.778 0 0 0 2.427 1.296 1.78 1.78 0 0 0 .578-2.9 1.781 1.781 0 0 0-1.26-.521z"/></g><g><path fill="#fff" d="M116.152 437.697a2.92 2.92 0 0 0 2.921-2.919 2.92 2.92 0 0 0-2.921-2.918 2.92 2.92 0 0 0-2.922 2.918 2.92 2.92 0 0 0 2.922 2.919z"/></g><g><path fill="#d1d3d4" d="M116.156 438.807a4.066 4.066 0 0 1-3.772-2.495 4.054 4.054 0 0 1 .876-4.433 4.064 4.064 0 0 1 6.936 2.892 4.056 4.056 0 0 1-1.19 2.847 4.065 4.065 0 0 1-2.85 1.189zm0-5.814a1.782 1.782 0 0 0-1.982 1.767 1.777 1.777 0 0 0 1.982 1.767 1.781 1.781 0 0 0 1.579-1.767 1.777 1.777 0 0 0-1.58-1.767z"/></g><g><path fill="#fff" d="M70.342 424.107a2.92 2.92 0 0 0 2.921-2.919 2.92 2.92 0 0 0-2.921-2.918 2.92 2.92 0 0 0-2.922 2.918 2.92 2.92 0 0 0 2.922 2.919z"/></g><g><path fill="#d1d3d4" d="M70.346 425.217a4.066 4.066 0 0 1-3.772-2.495 4.054 4.054 0 0 1 2.962-5.545 4.067 4.067 0 0 1 4.174 1.74 4.055 4.055 0 0 1-.514 5.111 4.065 4.065 0 0 1-2.85 1.189zm0-5.814a1.781 1.781 0 0 0-1.78 1.778 1.777 1.777 0 0 0 2.127 1.744 1.78 1.78 0 0 0 1.297-2.424 1.779 1.779 0 0 0-1.644-1.098z"/></g><g><path fill="#fff" d="M1.484 190.61s-2.853-31.19 53.639-31.19l-1.69 119.107-45.216-19.995z"/></g><g><path fill="#231f20" d="M53.518 279.663a1.173 1.173 0 0 1-.479 0L7.846 259.668a1.168 1.168 0 0 1-.685-.935L.313 190.812a24.76 24.76 0 0 1 6.985-17.648c8.947-9.803 25.107-14.774 47.932-14.774a1.12 1.12 0 0 1 .822.342c.207.214.321.5.32.798L54.66 278.546a1.164 1.164 0 0 1-.525.935 1.072 1.072 0 0 1-.617.182zM9.466 257.798l43.025 19.038 1.644-116.28c-21.501.16-36.52 4.857-44.988 13.976a22.787 22.787 0 0 0-6.437 15.96z"/></g><g><path fill="#231f20" d="M7.188 214.48a1.165 1.165 0 0 1-.981-1.277c0-.296 3.994-29.32 42.614-31.44a1.142 1.142 0 0 1 1.21 1.07 1.114 1.114 0 0 1-.637 1.103 1.12 1.12 0 0 1-.436.106C12.233 185.98 8.558 212.2 8.421 213.41a1.162 1.162 0 0 1-1.233 1.071z"/></g><g><path fill="#231f20" d="M9.169 236.69a1.14 1.14 0 0 1-1.119-1.163c0-.274.594-29.64 38.803-36.092a1.157 1.157 0 0 1 1.324.957 1.154 1.154 0 0 1-.96 1.323c-36.2 6.178-36.839 32.74-36.839 33.857a1.161 1.161 0 0 1-1.21 1.118z"/></g><g><path fill="#231f20" d="M9.471 250.53a1.165 1.165 0 0 1-1.141-1.14c0-.297.616-29.64 38.803-36.116a1.165 1.165 0 0 1 1.323.935 1.138 1.138 0 0 1-.935 1.322c-36.27 6.202-36.863 33.585-36.863 33.858a1.139 1.139 0 0 1-1.187 1.14z"/></g><g><path fill="#d1d3d4" d="M408.744 80.648a1.028 1.028 0 0 1-.821-.364s-1.119-1.118-3.287-3.01a1.117 1.117 0 0 1 0-1.596 1.165 1.165 0 0 1 1.62 0c2.283 1.96 3.378 3.1 3.424 3.146a1.14 1.14 0 0 1 0 1.62 1.119 1.119 0 0 1-.936.204z"/></g><g><path fill="#d1d3d4" d="M241.991 544.874a1.165 1.165 0 0 1-1.141-1.14 1.136 1.136 0 0 1 1.141-1.14l9.13-.114a1.06 1.06 0 0 1 .45.057 1.08 1.08 0 0 1 .714 1.06 1.19 1.19 0 0 1-1.118 1.163l-9.13.114zm-9.13 0c-3.127 0-6.209-.183-9.13-.342a1.142 1.142 0 1 1 .137-2.28c2.944.182 6.003.296 9.13.342a1.182 1.182 0 0 1 1.118 1.162 1.13 1.13 0 0 1-.804 1.005c-.146.045-.299.06-.451.044zm27.39-.274a1.165 1.165 0 0 1-1.141-1.117 1.138 1.138 0 0 1 1.095-1.163l9.13-.365a1.147 1.147 0 0 1 1.187 1.095 1.133 1.133 0 0 1-.302.819 1.139 1.139 0 0 1-.793.366l-9.13.365zm-45.65-.775a153.95 153.95 0 0 1-9.13-1.14 1.166 1.166 0 0 1-.959-1.3c.023-.148.074-.29.151-.419a1.153 1.153 0 0 1 .705-.518 1.13 1.13 0 0 1 .445-.02c2.899.433 5.912.82 9.13 1.14a1.143 1.143 0 0 1 1.084 1.197 1.138 1.138 0 0 1-1.198 1.083zm63.91 0a1.161 1.161 0 0 1-1.141-1.072 1.125 1.125 0 0 1 .285-.827 1.136 1.136 0 0 1 .787-.381c3.044-.183 6.087-.388 9.13-.616a1.168 1.168 0 0 1 1.21 1.049 1.132 1.132 0 0 1-.268.834 1.149 1.149 0 0 1-.782.397c-3.036.228-6.071.433-9.13.616zm18.26-1.368a1.14 1.14 0 1 1 0-2.28c3.013-.274 6.048-.57 9.13-.889a1.144 1.144 0 0 1 1.002 1.865 1.153 1.153 0 0 1-.774.415 544.9 544.9 0 0 1-9.13.889zm-100.202-1.368h-.228a122.308 122.308 0 0 1-8.948-2.28 1.142 1.142 0 0 1-.753-1.414 1.126 1.126 0 0 1 .542-.689 1.135 1.135 0 0 1 .873-.086c2.785.821 5.729 1.573 8.765 2.28.303.033.58.185.77.423a1.143 1.143 0 0 1-.177 1.612c-.238.19-.541.278-.844.245zm118.371-.57a1.143 1.143 0 0 1-.137-2.28c3.035-.388 6.048-.775 9.13-1.209a1.167 1.167 0 0 1 1.278.981 1.13 1.13 0 0 1-.211.839 1.124 1.124 0 0 1-.748.438c-3.013.433-6.048.82-9.13 1.208zm18.123-2.554a1.144 1.144 0 1 1-.183-2.28c3.013-.479 6.026-.98 8.993-1.527a1.158 1.158 0 1 1 .411 2.28c-2.99.524-6.003 1.048-9.13 1.527zm-153.978-2.075a.892.892 0 0 1-.411 0 83.54 83.54 0 0 1-8.399-3.853 1.134 1.134 0 0 1-.564-.675 1.141 1.141 0 0 1 .084-.875 1.14 1.14 0 0 1 1.553-.456 76.894 76.894 0 0 0 8.171 3.739 1.165 1.165 0 0 1 .639 1.482 1.162 1.162 0 0 1-1.073.502zm171.987-1.162a1.123 1.123 0 0 1-1.119-.912 1.13 1.13 0 0 1 .166-.857 1.136 1.136 0 0 1 .724-.489c2.99-.592 5.98-1.231 8.925-1.892a1.16 1.16 0 0 1 1.369.866 1.145 1.145 0 0 1-.148.865 1.14 1.14 0 0 1-.719.503c-2.967.662-5.957 1.3-8.97 1.893zm17.849-3.99a1.146 1.146 0 0 1-1.119-.867 1.144 1.144 0 0 1 .845-1.368 702.344 702.344 0 0 0 8.81-2.28 1.185 1.185 0 0 1 1.45.832 1.181 1.181 0 0 1-.833 1.448 266.66 266.66 0 0 1-8.879 2.28zm-205.859-3.489c-.243 0-.481-.072-.685-.205a55.7 55.7 0 0 1-7.053-6.088 1.125 1.125 0 0 1-.335-.798 1.108 1.108 0 0 1 .335-.798 1.158 1.158 0 0 1 .811-.337 1.147 1.147 0 0 1 .81.337 54.326 54.326 0 0 0 6.847 5.814 1.141 1.141 0 0 1 .252 1.596 1.168 1.168 0 0 1-.982.342zm223.502-1.368a1.097 1.097 0 0 1-1.095-.798 1.137 1.137 0 0 1 .753-1.413c2.922-.89 5.82-1.824 8.674-2.782a1.167 1.167 0 0 1 1.46.707 1.181 1.181 0 0 1-.73 1.459 303.645 303.645 0 0 1-8.742 2.782.836.836 0 0 1-.32-.092zm17.325-5.882a1.168 1.168 0 0 1-1.073-.73 1.137 1.137 0 0 1 .662-1.459c2.853-1.072 5.706-2.28 8.491-3.329a1.145 1.145 0 0 1 1.387.656 1.14 1.14 0 0 1-.52 1.442 254.134 254.134 0 0 1-8.559 3.351c-.124.047-.256.07-.388.069zm-253.358-5.837a1.118 1.118 0 0 1-.936-.502 44.213 44.213 0 0 1-4.291-8.322 1.147 1.147 0 0 1 1.541-1.458c.278.124.496.353.605.638a42.201 42.201 0 0 0 4.04 7.888 1.14 1.14 0 0 1-.32 1.574 1.097 1.097 0 0 1-.753.091zm270.362-1.14a1.165 1.165 0 1 1-.479-2.28 209.28 209.28 0 0 0 8.194-3.967 1.125 1.125 0 0 1 1.529.501 1.138 1.138 0 0 1-.479 1.528 214.448 214.448 0 0 1-8.285 3.99.939.939 0 0 1-.594.137zm16.274-8.322a1.14 1.14 0 0 1-.547-2.12c2.647-1.528 5.272-3.101 7.76-4.72a1.114 1.114 0 0 1 1.575.365 1.14 1.14 0 0 1-.342 1.573 175.153 175.153 0 0 1-7.875 4.742 1.03 1.03 0 0 1-.685.069zm-293.301-7.501a1.118 1.118 0 0 1-1.118-.958 47.039 47.039 0 0 1-.571-6.224v-.525c-.004-.891.049-1.782.16-2.667a1.143 1.143 0 0 1 .831-.969 1.142 1.142 0 0 1 .873.105 1.15 1.15 0 0 1 .544.691c.041.145.052.297.034.446a21.198 21.198 0 0 0-.136 2.28v.456c.043 1.987.226 3.968.547 5.928a1.162 1.162 0 0 1-.958 1.323zm308.571-2.417a1.19 1.19 0 0 1-.935-.479 1.157 1.157 0 0 1 .251-1.596 135.776 135.776 0 0 0 7.167-5.54 1.161 1.161 0 0 1 1.62.137 1.183 1.183 0 0 1-.16 1.618c-2.282 1.916-4.77 3.808-7.281 5.632a1.207 1.207 0 0 1-.662.182zm14.038-11.674a1.145 1.145 0 0 1-1.046-.72 1.14 1.14 0 0 1 .27-1.24c2.282-2.121 4.314-4.287 6.277-6.498a1.14 1.14 0 0 1 1.62 0 1.16 1.16 0 0 1 0 1.618c-2.008 2.28-4.177 4.56-6.414 6.612-.21.134-.458.198-.707.183zm-319.938-3.511a1.163 1.163 0 0 1-.959-1.755 29.13 29.13 0 0 1 6.3-7.046 1.131 1.131 0 0 1 .864-.333 1.145 1.145 0 0 1 .827.416 1.138 1.138 0 0 1-.253 1.673 27.378 27.378 0 0 0-5.798 6.498 1.193 1.193 0 0 1-.981.502zm332.081-10.1a1.12 1.12 0 0 1-1.121-.98c-.043-.298.032-.6.208-.844 1.734-2.28 3.469-4.811 5.135-7.456a1.145 1.145 0 0 1 1.575-.342 1.124 1.124 0 0 1 .519.709 1.108 1.108 0 0 1-.154.864 113.423 113.423 0 0 1-5.249 7.593 1.092 1.092 0 0 1-.913.41zm-318.386-1.687a1.08 1.08 0 0 1-1.005-.616 1.142 1.142 0 0 1-.129-.424 1.135 1.135 0 0 1 .046-.441c.045-.142.118-.274.214-.388.097-.114.216-.207.349-.275a63.75 63.75 0 0 1 8.536-3.648 1.146 1.146 0 0 1 1.461.684c.05.143.072.293.064.444a1.153 1.153 0 0 1-.384.791 1.166 1.166 0 0 1-.387.225 59.253 59.253 0 0 0-8.24 3.534c-.169.057-.347.08-.525.068zm80.64-4.287h-.273a165.513 165.513 0 0 0-8.879-1.869 1.161 1.161 0 0 1-.936-1.346 1.16 1.16 0 0 1 1.347-.934c3.012.547 6.025 1.185 9.015 1.892a1.141 1.141 0 0 1 .845 1.368 1.164 1.164 0 0 1-1.119.844zm-63.453-1.801a1.15 1.15 0 0 1-1.021-1.857c.19-.238.467-.39.77-.423 2.922-.661 5.98-1.208 9.13-1.642a1.152 1.152 0 0 1 1.06 1.842 1.151 1.151 0 0 1-.763.438c-3.059.411-6.049.935-8.902 1.596zm45.49-1.505h-.16a149.288 149.288 0 0 0-9.13-.889 1.14 1.14 0 0 1-1.05-1.208 1.188 1.188 0 0 1 1.21-1.072c3.036.205 6.117.524 9.13.912a1.145 1.145 0 0 1 1.073 1.208 1.145 1.145 0 0 1-1.21 1.072zm-27.39-1.003a1.143 1.143 0 0 1-1.141-1.072 1.184 1.184 0 0 1 1.073-1.208c2.67-.16 5.409-.228 8.171-.228h1.05a1.14 1.14 0 1 1 0 2.28h-1.05c-2.716 0-5.409 0-8.034.228zm292.936-5.107a1.218 1.218 0 0 1-.548-.137 1.162 1.162 0 0 1-.456-1.55 179.57 179.57 0 0 0 4.154-8.094 1.142 1.142 0 0 1 1.868-.26 1.15 1.15 0 0 1 .297.828 1.115 1.115 0 0 1-.111.435 171.975 171.975 0 0 1-4.199 8.185 1.171 1.171 0 0 1-1.005.547zm7.898-16.485a.964.964 0 0 1-.434 0 1.121 1.121 0 0 1-.708-1.047 1.11 1.11 0 0 1 .092-.435 166.515 166.515 0 0 0 3.287-8.458 1.137 1.137 0 0 1 1.46-.684 1.124 1.124 0 0 1 .654.583 1.116 1.116 0 0 1 .031.876 170.671 170.671 0 0 1-3.332 8.55 1.093 1.093 0 0 1-1.05.57zm6.208-17.191a.894.894 0 0 1-.342 0 1.14 1.14 0 0 1-.754-1.413c.891-2.919 1.712-5.86 2.443-8.756a1.154 1.154 0 0 1 .525-.699 1.155 1.155 0 0 1 1.565.39 1.11 1.11 0 0 1 .124.857 184.402 184.402 0 0 1-2.465 8.869 1.123 1.123 0 0 1-1.164.707zm4.565-17.715h-.228a1.143 1.143 0 0 1-.913-1.323 163.604 163.604 0 0 0 1.506-8.96 1.14 1.14 0 0 1 1.278-.981 1.165 1.165 0 0 1 .982 1.3 180.015 180.015 0 0 1-1.507 9.12 1.138 1.138 0 0 1-1.186.798zm2.442-18.081a1.149 1.149 0 0 1-.999-.787 1.15 1.15 0 0 1-.051-.444c.206-2.964.32-5.905.32-8.755v-.297a1.161 1.161 0 0 1 1.141-1.14 1.14 1.14 0 0 1 1.141 1.14v.274c0 2.918-.114 5.928-.342 8.938a1.12 1.12 0 0 1-1.301 1.026zm0-18.24a1.12 1.12 0 0 1-1.141-1.026 83.483 83.483 0 0 0-1.21-8.937 1.166 1.166 0 0 1 .913-1.346 1.143 1.143 0 0 1 1.324.912 88.958 88.958 0 0 1 1.256 9.12 1.15 1.15 0 0 1-.269.834 1.137 1.137 0 0 1-.781.398zm-3.423-17.898a1.166 1.166 0 0 1-1.096-.821 67.825 67.825 0 0 0-3.218-8.367 1.132 1.132 0 0 1 .107-1.344 1.134 1.134 0 0 1 .847-.395 1.13 1.13 0 0 1 .858.369c.109.119.191.259.242.412a67.561 67.561 0 0 1 3.355 8.664 1.137 1.137 0 0 1-.753 1.414.92.92 0 0 1-.525 0zm-7.761-16.461a1.184 1.184 0 0 1-.959-.502 53.347 53.347 0 0 0-5.569-6.977 1.14 1.14 0 0 1 0-1.619 1.13 1.13 0 0 1 .799-.335 1.127 1.127 0 0 1 .799.335 54.595 54.595 0 0 1 5.82 7.274 1.103 1.103 0 0 1 .184.849 1.114 1.114 0 0 1-.48.724c-.23.15-.504.215-.777.182zm-329.136-7.228a1.141 1.141 0 0 1-1.119-1.163c0-.148.03-.296.087-.433a1.128 1.128 0 0 1 .619-.606 1.14 1.14 0 0 1 .435-.078h9.13a1.14 1.14 0 0 1 1.142 1.14 1.118 1.118 0 0 1-1.119 1.14zm18.397-.16a1.144 1.144 0 0 1-1.142-1.117 1.188 1.188 0 0 1 1.119-1.163c3.035 0 6.071-.136 9.13-.25a1.19 1.19 0 0 1 1.187 1.117 1.142 1.142 0 0 1-1.096 1.163c-3.081 0-6.14.205-9.13.25zm-27.39 0c-3.105 0-6.14-.182-9.13-.296a1.147 1.147 0 0 1-1.073-1.208 1.123 1.123 0 0 1 .367-.786 1.114 1.114 0 0 1 .82-.286c2.99.114 6.048.228 9.13.296a1.132 1.132 0 0 1 .808.358 1.134 1.134 0 0 1 .31.828 1.148 1.148 0 0 1-.453.822 1.133 1.133 0 0 1-.916.204zm45.65-.592a1.143 1.143 0 0 1-1.119-1.095 1.11 1.11 0 0 1 .2-.876 1.111 1.111 0 0 1 .782-.446l9.13-.456a1.12 1.12 0 0 1 1.209 1.071 1.162 1.162 0 0 1-1.072 1.209l-9.13.456zm-63.91-.206c-3.105-.205-6.14-.433-9.13-.706a1.148 1.148 0 0 1-.776-.413 1.145 1.145 0 0 1-.252-.841 1.19 1.19 0 0 1 1.233-1.026c2.99.273 6.026.524 9.13.729a1.124 1.124 0 0 1 .999.769c.046.141.063.291.051.44a1.165 1.165 0 0 1-1.392.98zm82.033-.843a1.163 1.163 0 0 1-1.142-1.072 1.14 1.14 0 0 1 .641-1.096c.135-.065.282-.103.432-.112l9.13-.616a1.125 1.125 0 0 1 1.103.636c.065.137.101.285.107.436a1.14 1.14 0 0 1-1.05 1.208l-9.13.616zm-100.567-.912c-3.082-.365-6.14-.798-9.13-1.254a1.164 1.164 0 0 1-.757-.455 1.154 1.154 0 0 1 1.1-1.825c2.943.456 5.956.889 9.13 1.254a1.135 1.135 0 0 1 .971.829c.04.146.051.298.032.448a1.162 1.162 0 0 1-1.21 1.003zm118.827-.365a1.14 1.14 0 1 1 0-2.28l9.13-.73a1.14 1.14 0 0 1 1.232 1.026 1.109 1.109 0 0 1-.599 1.111 1.143 1.143 0 0 1-.428.121l-9.13.729zm18.26-1.528a1.14 1.14 0 0 1-1.142-1.048 1.162 1.162 0 0 1 1.027-1.232l9.13-.82a1.123 1.123 0 0 1 1.112.599c.068.132.11.278.121.427a1.116 1.116 0 0 1-1.027 1.231l-9.13.843zm-155.21-.843a227.69 227.69 0 0 1-8.97-2.007 1.161 1.161 0 0 1-.845-1.39 1.134 1.134 0 0 1 .525-.7 1.148 1.148 0 0 1 .867-.121c2.853.707 5.843 1.368 8.88 1.983a1.127 1.127 0 0 1 .892.882c.028.146.027.296-.003.441a1.161 1.161 0 0 1-1.21.912zm380.355-.456a1.097 1.097 0 0 1-.684-.251 58.041 58.041 0 0 0-7.555-4.765 1.137 1.137 0 0 1-.61-1.121c.015-.151.059-.297.13-.43a1.162 1.162 0 0 1 1.552-.478 60.193 60.193 0 0 1 7.852 4.993 1.141 1.141 0 0 1-.017 1.837c-.195.14-.428.215-.668.215zm-206.885-.411a1.144 1.144 0 0 1-1.142-1.026 1.189 1.189 0 0 1 1.027-1.254c3.059-.273 6.095-.592 9.13-.889a1.149 1.149 0 0 1 1.256 1.026 1.145 1.145 0 0 1-1.027 1.254l-9.13.912zm18.26-1.824a1.121 1.121 0 0 1-1.119-1.026 1.14 1.14 0 0 1 1.004-1.254l9.13-.934a1.092 1.092 0 0 1 1.256 1.003 1.134 1.134 0 0 1-.252.841 1.145 1.145 0 0 1-.775.413l-9.13.957zM87.74 314.799a.896.896 0 0 1-.343 0 133.242 133.242 0 0 1-8.696-3.055 1.143 1.143 0 0 1-.575-1.442 1.14 1.14 0 0 1 1.397-.679 133.19 133.19 0 0 0 8.559 3.01 1.153 1.153 0 1 1-.342 2.28zm227.405 0a1.14 1.14 0 1 1 0-2.28l9.13-.981a1.148 1.148 0 0 1 1.021 1.858c-.19.237-.467.389-.77.422l-9.13.981zm18.397-1.961l-.205-1.14v-1.14l8.993-.958a1.146 1.146 0 0 1 1.266 1.015 1.145 1.145 0 0 1-1.015 1.265zm18.055-1.915a1.118 1.118 0 0 1-1.119-1.026 1.142 1.142 0 0 1 1.004-1.254l9.13-.935a1.159 1.159 0 0 1 .841.253 1.152 1.152 0 0 1 .372 1.218 1.157 1.157 0 0 1-.556.679 1.15 1.15 0 0 1-.428.13l-9.13.935zm118.028-.684h-.388a75.953 75.953 0 0 0-8.628-2.554 1.141 1.141 0 0 1-.845-1.368 1.128 1.128 0 0 1 .506-.712c.127-.079.27-.131.418-.153a1.1 1.1 0 0 1 .446.022 74.382 74.382 0 0 1 8.879 2.622 1.155 1.155 0 1 1-.388 2.28zm-99.883-1.186a1.142 1.142 0 1 1-.114-2.28l9.13-.866a1.184 1.184 0 0 1 1.233 1.049 1.164 1.164 0 0 1-1.027 1.231l-9.13.866zm-299.007-.98a1.016 1.016 0 0 1-.502 0 84.562 84.562 0 0 1-8.057-4.56 1.162 1.162 0 0 1-.343-1.596 1.125 1.125 0 0 1 .72-.493 1.112 1.112 0 0 1 .855.174 85.346 85.346 0 0 0 7.83 4.423 1.138 1.138 0 0 1 .21 1.92c-.203.16-.454.247-.713.246zm317.267-.684a1.142 1.142 0 0 1-1.141-1.14 1.136 1.136 0 0 1 1.141-1.14l9.13-.73a1.151 1.151 0 0 1 1.111.62 1.126 1.126 0 0 1 .07.872 1.138 1.138 0 0 1-.568.667c-.134.068-.28.109-.43.121-2.99.228-6.026.456-9.13.73zm63.91-1.368h-.159a110.657 110.657 0 0 0-8.993-.821 1.142 1.142 0 0 1-1.096-1.186 1.092 1.092 0 0 1 .761-1.025c.145-.046.297-.062.449-.046 3.15.137 6.231.41 9.13.798a1.161 1.161 0 0 1 .981 1.299 1.163 1.163 0 0 1-1.095.958zm-45.65 0a1.142 1.142 0 0 1-1.141-1.14 1.136 1.136 0 0 1 1.141-1.14 481.65 481.65 0 0 1 9.13-.502 1.103 1.103 0 0 1 .827.279 1.094 1.094 0 0 1 .36.793 1.108 1.108 0 0 1-.286.818 1.11 1.11 0 0 1-.786.367c-2.968.16-6.003.32-9.13.525zm17.469-1.184a1.14 1.14 0 0 1 .769-1.963h9.13a1.14 1.14 0 0 1 1.141 1.14 1.161 1.161 0 0 1-1.141 1.14h-9.108a1.138 1.138 0 0 1-.791-.317zm-368.243-6.728a1.19 1.19 0 0 1-.753-.273 57.606 57.606 0 0 1-6.46-6.59 1.116 1.116 0 0 1 0-1.527 1.163 1.163 0 0 1 1.62.137 56.771 56.771 0 0 0 6.3 6.315 1.163 1.163 0 0 1 .137 1.619 1.189 1.189 0 0 1-.844.319zM43.71 284.201a1.14 1.14 0 0 1-.981-.57 40.484 40.484 0 0 1-2.283-4.56c-.662-1.573-1.118-2.553-1.643-3.853a1.16 1.16 0 0 1 .616-1.482 1.19 1.19 0 0 1 1.506.616c.503 1.276 1.05 2.53 1.598 3.784a36.413 36.413 0 0 0 2.283 4.332 1.124 1.124 0 0 1 .123.862 1.122 1.122 0 0 1-.534.689 1.073 1.073 0 0 1-.685.182zm-6.847-16.826a1.121 1.121 0 0 1-1.073-.775 152.802 152.802 0 0 1-2.58-8.847 1.173 1.173 0 0 1 .857-1.425 1.177 1.177 0 0 1 1.426.855 128.443 128.443 0 0 0 2.534 8.71 1.162 1.162 0 0 1-.73 1.436zm-4.565-17.693a1.122 1.122 0 0 1-1.119-.912c-.57-2.964-1.05-6.019-1.46-9.12a1.15 1.15 0 1 1 2.282-.296c.388 3.032.867 6.042 1.415 8.96a1.16 1.16 0 0 1-.913 1.345zm-2.283-18.103a1.144 1.144 0 0 1-1.141-1.049c-.228-3.01-.365-6.11-.434-9.12a1.136 1.136 0 0 1 .684-1.067c.137-.06.285-.093.435-.096a1.26 1.26 0 0 1 1.164 1.117c0 3.033.205 6.088.433 9.12a1.138 1.138 0 0 1-1.072 1.232zm-.41-18.24a1.127 1.127 0 0 1-.793-.352 1.107 1.107 0 0 1-.303-.811c0-3.032.228-6.11.456-9.12a1.144 1.144 0 0 1 2.283.16 174.157 174.157 0 0 0-.457 9.12 1.142 1.142 0 0 1-1.316.981zm.758-18.377a1.146 1.146 0 0 1-.576-1.14c.365-2.987.776-6.042 1.278-9.12a1.144 1.144 0 0 1 .455-.756 1.163 1.163 0 0 1 .858-.213 1.147 1.147 0 0 1 .948.862c.037.147.044.299.022.449-.48 3.01-.89 6.042-1.256 9.12a1.12 1.12 0 0 1-1.3.935 1.154 1.154 0 0 1-.429-.137zm3.236-17.898a1.119 1.119 0 0 1-.89-1.345 241.554 241.554 0 0 1 2.008-8.961 1.175 1.175 0 0 1 2.283.548 206.395 206.395 0 0 0-2.009 8.869 1.14 1.14 0 0 1-1.301.889zm4.29-17.738a1.135 1.135 0 0 1-.689-.542 1.114 1.114 0 0 1-.086-.872c.844-2.941 1.78-5.905 2.739-8.755a1.197 1.197 0 0 1 1.915-.549 1.21 1.21 0 0 1 .42.814c.013.157-.005.315-.053.464a202.387 202.387 0 0 0-2.716 8.664 1.118 1.118 0 0 1-1.29.788.782.782 0 0 1-.24-.012zm5.73-17.306a1.138 1.138 0 0 1-.662-1.459c1.095-2.895 2.282-5.745 3.47-8.504a1.127 1.127 0 0 1 .626-.619 1.117 1.117 0 0 1 .88.026 1.134 1.134 0 0 1 .61.629 1.138 1.138 0 0 1-.017.876c-1.187 2.713-2.282 5.563-3.446 8.39a1.122 1.122 0 0 1-1.096.67.89.89 0 0 1-.365-.009zm7.692-16.758a1.339 1.339 0 0 1-.502-.114 1.163 1.163 0 0 1-.525-1.527c1.37-2.805 2.807-5.54 4.268-8.163a1.164 1.164 0 0 1 1.552-.433 1.141 1.141 0 0 1 .457 1.55 166.392 166.392 0 0 0-4.223 8.049 1.164 1.164 0 0 1-1.164.638zm8.925-15.96a1.28 1.28 0 0 1-.617-.182 1.14 1.14 0 0 1-.342-1.573 134.506 134.506 0 0 1 5.204-7.615 1.14 1.14 0 0 1 1.598-.228 1.163 1.163 0 0 1 .25 1.596c-1.734 2.28-3.469 4.856-5.135 7.455a1.14 1.14 0 0 1-1.095.57zM71.1 94.665a1.051 1.051 0 0 1-.753-.297 1.116 1.116 0 0 1 0-1.596c1.986-2.28 4.086-4.56 6.254-6.84a1.142 1.142 0 0 1 1.847.371 1.138 1.138 0 0 1-.25 1.248c-2.122 2.28-4.2 4.423-6.162 6.68a1.141 1.141 0 0 1-.936.434zm12.737-13.11H83.8zm-.462-.092a1.118 1.118 0 0 1-.383-.273 1.14 1.14 0 0 1 0-1.619 547.395 547.395 0 0 1 6.847-6.087 1.118 1.118 0 0 1 1.598.114 1.162 1.162 0 0 1-.137 1.618 406.497 406.497 0 0 0-6.847 6.042c-.19.174-.433.277-.689.296a1.12 1.12 0 0 1-.39-.09zm.39.09l.036.002h-.056l.02-.001zm314.577-9.688a1.306 1.306 0 0 1-.685-.228c-2.282-1.756-4.839-3.511-7.441-5.221a1.141 1.141 0 0 1-.319-1.574 1.163 1.163 0 0 1 1.598-.319 206.783 206.783 0 0 1 7.532 5.267 1.133 1.133 0 0 1 .445.75 1.146 1.146 0 0 1-.217.846 1.091 1.091 0 0 1-1.004.479zM97.76 69.722a1.142 1.142 0 0 1-1.066-1.46 1.14 1.14 0 0 1 .381-.57c2.283-1.87 4.885-3.693 7.395-5.472a1.165 1.165 0 0 1 1.598.274 1.185 1.185 0 0 1-.274 1.596 195.792 195.792 0 0 0-7.327 5.404 1.142 1.142 0 0 1-.799.228zm285.312-7.958a1.07 1.07 0 0 1-.57-.16c-2.557-1.504-5.227-3.009-7.921-4.56a1.144 1.144 0 0 1-.564-.674 1.142 1.142 0 0 1 .764-1.43c.29-.09.603-.062.873.076 2.739 1.482 5.432 2.986 8.012 4.56a1.151 1.151 0 0 1 .522.705 1.142 1.142 0 0 1-.134.868 1.168 1.168 0 0 1-1.05.57zm-270.453-2.576a1.119 1.119 0 0 1-.959-.524 1.139 1.139 0 0 1 .342-1.574c2.58-1.641 5.227-3.26 7.852-4.788a1.143 1.143 0 0 1 1.587 1.274 1.14 1.14 0 0 1-.445.687 271.403 271.403 0 0 0-7.76 4.743c-.182.125-.398.189-.617.182zm254.27-6.065a.935.935 0 0 1-.479 0 303.224 303.224 0 0 0-8.263-3.807 1.146 1.146 0 0 1-.61-.63 1.139 1.139 0 0 1 .017-.875 1.133 1.133 0 0 1 .63-.61 1.14 1.14 0 0 1 .876.017 231.364 231.364 0 0 1 8.331 3.853 1.113 1.113 0 0 1 .434 1.528 1.095 1.095 0 0 1-.936.524zM128.414 50a1.142 1.142 0 0 1-1.005-.616 1.118 1.118 0 0 1 .48-1.528 211.975 211.975 0 0 1 8.217-4.104 1.14 1.14 0 0 1 1.529.525 1.163 1.163 0 0 1-.548 1.527 245.757 245.757 0 0 0-8.148 4.059c-.16.09-.341.138-.525.137zm221.745-4.241a1.324 1.324 0 0 1-.411 0c-2.808-1.117-5.661-2.28-8.514-3.215a1.14 1.14 0 1 1 .753-2.143 277.46 277.46 0 0 1 8.605 3.237 1.163 1.163 0 0 1 .925 1.357 1.162 1.162 0 0 1-1.358.923zm-205.22-3.603a1.143 1.143 0 0 1-1.05-.706 1.16 1.16 0 0 1 .594-1.505c2.83-1.186 5.706-2.28 8.536-3.397a1.146 1.146 0 0 1 1.441 1.547 1.153 1.153 0 0 1-.642.596c-2.808 1.049-5.638 2.28-8.445 3.374-.138.06-.284.098-.434.114zm188.01-2.576h-.343a247.285 247.285 0 0 0-8.719-2.645 1.18 1.18 0 0 1-.713-.56 1.174 1.174 0 0 1 .1-1.312 1.196 1.196 0 0 1 .791-.443c.155-.019.311-.007.461.035 3.013.89 5.935 1.779 8.788 2.69a1.157 1.157 0 0 1 .958 1.323 1.153 1.153 0 0 1-1.323.958zm-170.891-3.853a1.144 1.144 0 0 1-1.096-.775 1.186 1.186 0 0 1 .731-1.46 258.24 258.24 0 0 1 8.787-2.69 1.182 1.182 0 0 1 .616 2.28c-2.875.82-5.797 1.71-8.696 2.645a.914.914 0 0 1-.342.023zm153.27-1.209a.686.686 0 0 1-.297 0c-2.876-.73-5.82-1.436-8.856-2.12a1.169 1.169 0 0 1-.89-1.39 1.164 1.164 0 0 1 1.392-.89c3.059.684 6.026 1.414 8.924 2.28a1.118 1.118 0 0 1 .822 1.368 1.137 1.137 0 0 1-1.095.752zm-135.763-3.784a1.142 1.142 0 0 1-1.119-.867 1.138 1.138 0 0 1 .845-1.368c2.967-.73 6.003-1.39 8.97-1.983a1.165 1.165 0 0 1 1.369.912 1.162 1.162 0 0 1-.913 1.368 227.754 227.754 0 0 0-8.879 1.96zm117.708-.251a315.086 315.086 0 0 0-8.97-1.665 1.144 1.144 0 0 1-.926-.875 1.141 1.141 0 0 1-.01-.447 1.13 1.13 0 0 1 .468-.736 1.123 1.123 0 0 1 .856-.176c3.058.524 6.071 1.072 9.016 1.664a1.1 1.1 0 0 1 .899.88c.027.146.024.297-.009.443a1.115 1.115 0 0 1-1.05.912zm-17.963-3.101c-2.967-.433-5.98-.82-9.13-1.208a1.149 1.149 0 1 1 .274-2.28c3.081.364 6.117.775 9.13 1.208a1.144 1.144 0 0 1 .67 2.003 1.143 1.143 0 0 1-.83.277zm-81.828-.228a1.15 1.15 0 0 1-1.111-.62 1.15 1.15 0 0 1 .148-1.262c.197-.23.478-.374.781-.398 2.99-.479 6.048-.912 9.13-1.277a1.152 1.152 0 0 1 1.278 1.003 1.142 1.142 0 0 1-.238.847 1.15 1.15 0 0 1-.767.43c-3.035.365-6.071.798-9.13 1.277zm63.91-1.915a252.899 252.899 0 0 0-9.13-.661 1.142 1.142 0 0 1-1.073-1.209 1.123 1.123 0 0 1 .749-1.01c.14-.05.289-.07.438-.061 3.013.182 6.095.41 9.13.684a1.141 1.141 0 0 1 .807 1.946 1.141 1.141 0 0 1-.807.334zm-45.65-.274a1.141 1.141 0 0 1-.807-1.946c.214-.214.504-.334.807-.334 3.082-.25 6.163-.433 9.13-.593a1.12 1.12 0 0 1 1.187 1.095 1.126 1.126 0 0 1-.642 1.081 1.127 1.127 0 0 1-.431.104 255.32 255.32 0 0 0-9.13.593zm18.26-.775a1.141 1.141 0 0 1-.807-1.946c.214-.214.504-.334.807-.334h9.13a1.12 1.12 0 0 1 1.119 1.163 1.138 1.138 0 0 1-1.142 1.117h-9.107z"/></g><g><path fill="#d1d3d4" d="M254.495 467.329h-.343l-4.336-1.345a1.186 1.186 0 0 1-.822-1.46 1.183 1.183 0 0 1 1.46-.82l4.406 1.368a1.157 1.157 0 0 1 .802 1.745 1.155 1.155 0 0 1-1.167.535z"/></g><g><path fill="#fff" d="M124.81 107.706a34.904 34.904 0 0 0 17.522-20.17 34.858 34.858 0 0 0-1.887-26.639 34.92 34.92 0 0 0-20.192-17.503 34.965 34.965 0 0 0-26.668 1.885l15.612 31.213L77.95 92.088a34.89 34.89 0 0 0 8.352 10.76 34.933 34.933 0 0 0 25.361 8.452 34.952 34.952 0 0 0 13.147-3.594z"/></g><g><path fill="#231f20" d="M109.219 112.541a36.229 36.229 0 0 1-18.974-5.395 36.175 36.175 0 0 1-13.324-14.532 1.139 1.139 0 0 1 .503-1.527l30.197-15.094L92.557 45.76a1.14 1.14 0 0 1 0-.866 1.094 1.094 0 0 1 .57-.661 36.118 36.118 0 0 1 43.955 9.67 36.009 36.009 0 0 1 .329 44.958 36.08 36.08 0 0 1-12.488 10.092 36.117 36.117 0 0 1-15.636 3.68zm-29.673-19.95a33.818 33.818 0 0 0 19.565 16.092 33.86 33.86 0 0 0 25.264-2.001 33.798 33.798 0 0 0 17.277-19.256 33.751 33.751 0 0 0-1.414-25.82 33.81 33.81 0 0 0-19.277-17.258 33.856 33.856 0 0 0-25.848 1.412L110.2 75.948a1.115 1.115 0 0 1-.502 1.527z"/></g><g><path fill="#fff" d="M66.778 88.258l31.247-15.595-15.52-31.213a34.918 34.918 0 0 0-10.799 8.325 34.874 34.874 0 0 0-8.512 25.337 34.854 34.854 0 0 0 3.584 13.146z"/></g><g><path fill="#231f20" d="M66.784 89.404a1.165 1.165 0 0 1-1.028-.616 36.034 36.034 0 0 1-1.938-27.52A36.081 36.081 0 0 1 81.917 40.43a1.165 1.165 0 0 1 1.529.525l15.612 31.213a1.14 1.14 0 0 1 0 .866 1.209 1.209 0 0 1-.593.662L67.217 89.29a.96.96 0 0 1-.433.114zm15.132-46.398a33.799 33.799 0 0 0-15.959 19.019 33.755 33.755 0 0 0 1.351 24.78l29.194-14.57z"/></g><g><path fill="#fff" d="M420.32 149.14s6.094-21.82 6.642-24.898c.548-3.078-1.118-15.368 2.283-17.237 3.4-1.87 5.523 9.257 5.523 17.237 0 0 13.832-30.142 17.712-25.719 3.88 4.423 4.428 13.817 2.762 18.787-1.666 4.97-23.51 47.538-23.51 47.538z"/></g><g><path fill="#231f20" d="M431.73 165.986a1.097 1.097 0 0 1-.913-.456L419.2 149.82a1.185 1.185 0 0 1-.183-.98c0-.228 6.071-21.797 6.62-24.784a32.774 32.774 0 0 0 0-4.56c0-6.84 0-12.038 2.693-13.543a2.49 2.49 0 0 1 2.579 0c2.647 1.55 3.948 8.254 4.428 13.68 3.766-7.752 11.252-22.048 15.498-22.8a2.285 2.285 0 0 1 2.168.82c4.314 4.926 4.565 14.912 2.99 19.905-1.575 4.993-22.437 45.965-23.304 47.698a1.094 1.094 0 0 1-.936.615zm-10.362-17.078l10.18 13.68c3.994-7.866 20.907-41.45 22.345-45.736 1.644-4.948.89-13.68-2.556-17.67-1.986-.388-9.38 11.4-15.795 25.444a1.119 1.119 0 0 1-1.278.639 1.141 1.141 0 0 1-.913-1.118c0-7.159-1.735-15.207-3.515-16.256a.274.274 0 0 0-.32 0c-1.734.98-1.597 7.82-1.529 11.4a30.77 30.77 0 0 1 0 4.925c-.525 3.1-5.57 21.25-6.528 24.692z"/></g><g><path fill="#231f20" d="M387.567 444.44s-14.22 32.422-9.792 34.633c4.428 2.212 49.484 16.94 49.096 14-.388-2.942-24.97-20.087-24.97-20.087l11.298-28.546z"/></g><g><path fill="#231f20" d="M425.978 494.509c-8.65 0-48.32-14.227-48.709-14.41-2.008-1.026-3.492-7.045 9.244-36.115a1.118 1.118 0 0 1 1.05-.684h25.633a1.119 1.119 0 0 1 .935.502 1.026 1.026 0 0 1 .115 1.049l-10.956 27.724c7.851 5.495 24.308 17.328 24.72 20.338a1.367 1.367 0 0 1-.594 1.322 2.696 2.696 0 0 1-1.438.274zm-37.616-48.929c-7.03 16.165-11.595 30.963-9.997 32.49 4.702 2.28 39.259 13.384 46.745 14.227-2.853-3.078-13.695-11.263-23.829-18.376a1.094 1.094 0 0 1-.388-1.346l10.66-26.995z"/></g><g><path fill="#231f20" d="M315.07 508.739c.547 1.664.547 28.728 0 35.363-.548 6.634 22.688 44.3 29.923 37.05 7.236-7.25-5.546-39.262-5.546-39.262l2.282-36.48z"/></g><g><path fill="#231f20" d="M342.71 583.179a6.854 6.854 0 0 1-2.83-.684c-9.86-4.56-26.5-32.308-25.998-38.487.57-6.84.502-33.151 0-34.93a1.276 1.276 0 0 1 .16-.957 1.186 1.186 0 0 1 .799-.524l26.682-3.306a1.097 1.097 0 0 1 .913.296 1.14 1.14 0 0 1 .365.912l-2.282 36.206c1.712 4.332 12.577 32.9 5.204 40.242a4.085 4.085 0 0 1-3.013 1.232zm-26.431-73.462c.456 6.042.342 28.933-.114 34.496-.411 4.811 15.36 31.92 24.673 36.207 1.94.889 2.785.387 3.264 0 5.456-5.45-2.282-29.298-5.82-38.008a.935.935 0 0 1 0-.501l2.283-35.112z"/></g><g><path fill="#1dc9b7" d="M282.84 173.188c-20.839-5.928-57.541 5.906-79.887 26.562-17.758 16.485 15.977 94.666 32.822 134.52l101.617-30.301s-33.735-124.83-54.552-130.78z"/></g><g><path fill="#231f20" d="M337.447 303.95s103.42 31.373 105.429 53.785c2.008 22.413-28.098 102.167-28.098 102.167l-34.968-6.019s29.992-83.608 15.795-89.923c-14.197-6.316-71.739-17.237-71.739-17.237s5.934 47.583 16.411 79.686c10.477 32.102 6.505 89.421 6.505 89.421l-36.52 5.997s-1.37-73.735-16.753-107.411c-15.384-33.676-57.679-80.233-57.679-80.233z"/></g><g><path fill="#231f20" d="M310.259 523.03a1.185 1.185 0 0 1-.73-.25 1.098 1.098 0 0 1-.411-.867c0-.729-1.53-73.895-16.663-106.954-15.133-33.06-57.062-79.481-57.473-79.96a1.07 1.07 0 0 1-.251-1.072 1.117 1.117 0 0 1 .753-.775l101.64-30.301c.208-.068.431-.068.639 0 4.268 1.277 104.082 31.92 106.25 54.72 2.123 22.48-26.933 99.431-28.189 102.6a1.116 1.116 0 0 1-1.255.707l-34.968-6.065a1.134 1.134 0 0 1-.799-.547 1.166 1.166 0 0 1 0-.958c21.661-60.465 21.661-86.07 16.412-88.35-12.623-5.609-60.692-14.98-69.936-16.735 1.118 8.459 6.847 49.522 16.137 77.93 10.431 31.92 6.596 89.285 6.574 89.855a1.165 1.165 0 0 1-.959 1.049l-36.52 5.996zm-72.401-188.213c7.03 7.911 42.842 48.951 56.674 79.184 14.198 31.031 16.549 96.444 16.822 106.567l34.238-5.631c.456-7.433 3.081-58.756-6.505-88.1-10.386-31.92-16.389-79.435-16.457-79.8a1.14 1.14 0 0 1 .365-.98 1.097 1.097 0 0 1 .982-.274c2.282.433 57.838 10.876 71.99 17.191 6.573 2.919 5.934 18.856-1.94 48.679-4.862 18.445-11.093 36.48-12.782 41.404l32.685 5.678c3.287-8.778 29.673-80.097 27.71-100.8-.571-6.087-10.203-16.985-52.795-34.359-24.171-9.85-48.412-17.396-51.493-18.24z"/></g><g><path fill="#fff" d="M200.99 123.412a5.688 5.688 0 0 1 3.857.638c-2.51-5.517 2.602-9.78 5.912-13.292a18.625 18.625 0 0 1 14.47-6.065 38.624 38.624 0 0 1 18.078 6.361c4.565 2.622 9.45 5.7 14.449 4.332a24.526 24.526 0 0 1 4.565-1.368c1.574-.136 3.446.821 3.469 2.417a3.646 3.646 0 0 1-1.004 2.28 15.748 15.748 0 0 1-5.958 4.56c1.142 1.847 3.744 1.893 5.912 1.733l6.848-.502c1.278 0 2.898 0 3.378 1.186.182.679.109 1.4-.206 2.03a24.081 24.081 0 0 1-8.924 11.4 14.44 14.44 0 0 0 9.883-1.323c.753 9.804-6.505 18.833-15.339 23.256a62.304 62.304 0 0 1-28.348 5.54c-7.259-.182-16.48 1.573-22.825-3.306a41.695 41.695 0 0 1-15.133-24.601 16.286 16.286 0 0 1 .981-11.172 8.44 8.44 0 0 1 5.935-4.104z"/></g><g><path fill="#231f20" d="M222.751 167.899c-4.998 0-10.111-.548-14.151-3.694a42.971 42.971 0 0 1-15.567-25.308 17.015 17.015 0 0 1 1.118-11.947 9.625 9.625 0 0 1 6.665-4.56 7.971 7.971 0 0 1 2.283 0c-.708-4.56 2.944-8.3 5.683-11.127l1.119-1.14a19.698 19.698 0 0 1 15.315-6.43 40.315 40.315 0 0 1 18.625 6.522l.343.182c4.131 2.462 8.833 5.221 13.215 4.036.548-.16 1.05-.342 1.575-.548a10.851 10.851 0 0 1 3.173-.866 4.89 4.89 0 0 1 3.584 1.163 3.237 3.237 0 0 1 1.118 2.28 4.672 4.672 0 0 1-1.255 3.032 17.32 17.32 0 0 1-4.816 4.013c1.22.4 2.518.508 3.789.32l6.847-.502c2.282-.183 3.926.456 4.565 1.915a3.872 3.872 0 0 1-.205 2.827 25.079 25.079 0 0 1-7.122 10.283 13.525 13.525 0 0 0 6.483-1.528 1.142 1.142 0 0 1 1.666.912c.844 10.899-7.395 20.087-15.978 24.373a63.4 63.4 0 0 1-28.873 5.7h-5.022c-1.734 0-2.739.092-4.177.092zm-21.57-43.32a7.33 7.33 0 0 0-5.044 3.534 14.942 14.942 0 0 0-.867 10.396 40.623 40.623 0 0 0 14.722 23.94c4.565 3.534 10.842 3.33 16.913 3.124h5.182a60.223 60.223 0 0 0 27.778-5.472c7.418-3.716 14.608-11.4 14.745-20.52a15.766 15.766 0 0 1-9.13.707 1.188 1.188 0 0 1-.868-.912 1.23 1.23 0 0 1 .48-1.163 23.1 23.1 0 0 0 8.536-10.898c.17-.38.24-.795.206-1.209-.16-.387-1.005-.57-2.283-.479l-6.848.502c-2.465.182-5.5 0-6.847-2.28a1.208 1.208 0 0 1-.114-.935 1.23 1.23 0 0 1 .639-.707 14.378 14.378 0 0 0 5.524-4.15c.412-.403.677-.932.753-1.504a.98.98 0 0 0-.365-.73 2.741 2.741 0 0 0-1.872-.57c-.872.124-1.724.362-2.534.707-.582.236-1.176.441-1.78.616-5.341 1.459-10.477-1.573-14.996-4.264l-.342-.182a37.984 37.984 0 0 0-17.53-6.202 17.5 17.5 0 0 0-13.58 5.7l-1.142 1.186c-3.196 3.26-6.482 6.635-4.565 10.853a1.162 1.162 0 0 1-.274 1.322 1.096 1.096 0 0 1-1.324.137 4.82 4.82 0 0 0-3.127-.502z"/></g><g><path fill="#fff" d="M253.7 175.722l7.92 18.034s-3.356 13.27-16.549 12.882c-13.192-.387-17.346-9.507-17.37-9.53l-5.5-20.041-3.401-12.312a13.668 13.668 0 0 1-1.05-3.785c.32-2.987 3.652-5.13 4.2-8.254a24.83 24.83 0 0 0-3.766-17.966c6.071 3.42 12.919 6.84 19.698 5.221a32.085 32.085 0 0 1-4.565-4.104l14.22 2.6c1.834.29 3.689.427 5.546.41 2.1 0 1.073-1.095 2.967 1.094 4.748 5.472 6.962 15.595 7.35 22.618.48 10.077-9.7 13.133-9.7 13.133z"/></g><g><path fill="#231f20" d="M244.927 207.823c-14.129-.41-18.397-10.26-18.42-10.35l-8.901-32.377c-.098-.332-.212-.66-.343-.98a7.586 7.586 0 0 1-.753-3.238 10.073 10.073 0 0 1 2.283-4.697 9.254 9.254 0 0 0 1.94-3.625 23.691 23.691 0 0 0-3.561-17.146 1.094 1.094 0 0 1 0-1.39 1.142 1.142 0 0 1 1.392-.228c4.999 2.85 10.705 5.722 16.389 5.449a27.744 27.744 0 0 1-2.625-2.554 1.094 1.094 0 0 1-.16-1.322 1.14 1.14 0 0 1 1.187-.57l14.243 2.6c1.722.26 3.462.39 5.204.387.356.032.714-.015 1.05-.137 1.164-.41 1.597 0 2.784 1.46 5.136 5.927 7.373 16.301 7.76 23.46.457 8.641-6.504 12.586-9.38 13.817l7.464 16.963c.068.246.068.506 0 .753.114.136-3.493 13.725-16.96 13.725zm-16.183-10.875l-.014-.052-.031-.062zm16.252 8.595h.525c10.659 0 14.174-9.599 14.79-11.65l-7.76-17.67a1.116 1.116 0 0 1 .29-1.316c.122-.106.264-.186.417-.235.388-.114 9.427-2.987 8.948-11.993-.388-7.319-2.74-16.94-7.076-21.91-.365-.434-.57-.707-.73-.867a6.306 6.306 0 0 1-1.393.16 34.824 34.824 0 0 1-5.729-.434l-10.545-1.915 1.735 1.391a1.095 1.095 0 0 1 .433 1.14 1.162 1.162 0 0 1-.844.89c-5.935 1.367-11.778-.753-17.05-3.466a25.92 25.92 0 0 1 1.962 15.299 11.396 11.396 0 0 1-2.282 4.56 8.022 8.022 0 0 0-1.849 3.602c.072.787.272 1.557.594 2.28.16.394.297.798.41 1.208l8.888 32.279c.396.764 4.607 8.323 16.266 8.647z"/></g><g><path fill="#231f20" d="M257.76 185.254a13.869 13.869 0 0 1-12.873-1.094c-6.665-4.15-7.167-8.71-7.167-8.71a21.432 21.432 0 0 0 15.977.32z"/></g><g><path fill="#231f20" d="M252.347 187.484a15.122 15.122 0 0 1-8.057-2.28c-7.053-4.4-7.692-9.348-7.715-9.576a1.139 1.139 0 0 1 1.62-1.14 20.403 20.403 0 0 0 14.951.296 1.142 1.142 0 0 1 1.484.593l4.177 9.485a1.138 1.138 0 0 1-.548 1.482 14.644 14.644 0 0 1-5.912 1.14zm-12.736-10.146a15.969 15.969 0 0 0 5.889 5.86 12.746 12.746 0 0 0 10.75 1.413l-3.264-7.387a22.072 22.072 0 0 1-13.375.114z"/></g><g><path fill="#fff" d="M244.11 148.13s8.947 8.117 7.829 10.214c-1.119 2.098-5.752 2.03-5.752 2.03"/></g><g><path fill="#231f20" d="M246.232 161.518a1.12 1.12 0 0 1-1.118-1.14 1.14 1.14 0 0 1 1.141-1.14c1.598 0 4.154-.456 4.702-1.436 0-.958-3.515-5.107-7.6-8.824a1.14 1.14 0 0 1 1.529-1.687c4.405 3.99 9.358 9.12 8.08 11.583-1.278 2.462-5.957 2.644-6.734 2.644z"/></g><g><path fill="#231f20" d="M238.087 151.478c.909-.145 1.48-1.301 1.274-2.582-.205-1.28-1.107-2.201-2.016-2.056-.909.145-1.48 1.3-1.274 2.582.204 1.28 1.107 2.2 2.016 2.056z"/></g><g><path fill="#231f20" d="M255.817 147.83c.825-.406 1.03-1.679.456-2.842-.573-1.164-1.707-1.778-2.533-1.372-.826.406-1.03 1.678-.457 2.842.574 1.163 1.708 1.778 2.534 1.372z"/></g><g><path fill="#231f20" d="M246.256 169.22a15.991 15.991 0 0 1-7.372-1.983 1.14 1.14 0 0 1-.503-1.528 1.117 1.117 0 0 1 1.53-.501c10.317 5.312 15.36-3.306 15.566-3.671a1.141 1.141 0 0 1 1.986 1.117 13.824 13.824 0 0 1-11.207 6.567z"/></g><g><path fill="#fff" d="M222.866 158.482a8.176 8.176 0 0 0-6.14-1.277 5.617 5.617 0 0 0-4.314 4.263 7.061 7.061 0 0 0 2.921 6.293 13.244 13.244 0 0 0 10.34 2.896"/></g><g><path fill="#231f20" d="M223.731 171.94a14.436 14.436 0 0 1-9.13-3.284 8.096 8.096 0 0 1-3.287-7.387 6.838 6.838 0 0 1 5.182-5.176 9.277 9.277 0 0 1 7.007 1.437 1.163 1.163 0 0 1 .342 1.596 1.164 1.164 0 0 1-1.597.319 6.851 6.851 0 0 0-5.25-1.117 4.407 4.407 0 0 0-3.447 3.329 6.105 6.105 0 0 0 2.534 5.244 11.963 11.963 0 0 0 9.427 2.622 1.188 1.188 0 0 1 1.323.957 1.162 1.162 0 0 1-.958 1.3c-.71.11-1.428.164-2.146.16z"/></g><g><path fill="#584475" d="M252.535 205.13l-3.675 7.706 5.113 1.482s27.618 76.13 86.735 62.222l15.361-19.996-20.794-8.117s-10.18 8.573-29.672 3.625c-22.962-5.836-47.933-38.418-47.933-38.418l1.073-6.452z"/></g><g><path fill="#231f20" d="M326.74 279.371c-47.247 0-71.1-57.82-73.541-64.113l-4.565-1.323a1.142 1.142 0 0 1-.73-.638 1.162 1.162 0 0 1 0-.958l3.674-7.683a1.095 1.095 0 0 1 1.37-.593l6.322 2.052a1.141 1.141 0 0 1 .753 1.277l-.981 5.928c2.899 3.67 26.043 32.307 47.02 37.642 18.556 4.72 28.508-3.328 28.6-3.397a1.164 1.164 0 0 1 1.14-.205l20.817 8.117a1.146 1.146 0 0 1 .662.752 1.12 1.12 0 0 1-.183 1.003l-15.384 20.019a1.21 1.21 0 0 1-.64.41 63.116 63.116 0 0 1-14.333 1.71zm-76.28-67.169l3.834 1.14a1.05 1.05 0 0 1 .753.684c.274.753 27.847 74.67 85.046 61.56l14.22-18.49-18.807-7.342c-2.42 1.756-12.6 7.912-30.084 3.466-23.076-5.883-47.521-37.506-48.549-38.76a1.14 1.14 0 0 1-.228-.89l.913-5.472-4.428-1.436z"/></g><g><path fill="#231f20" d="M237.716 159.986a9.571 9.571 0 0 1-8.854-5.886 9.544 9.544 0 0 1 2.07-10.422 9.567 9.567 0 0 1 10.432-2.066 9.546 9.546 0 0 1 3.092 15.577 9.569 9.569 0 0 1-6.74 2.797zm0-16.803a7.287 7.287 0 0 0-6.743 4.474 7.266 7.266 0 0 0 1.564 7.934 7.284 7.284 0 0 0 12.438-5.135 7.269 7.269 0 0 0-2.125-5.135 7.285 7.285 0 0 0-5.134-2.138z"/></g><g><path fill="#231f20" d="M252.944 154.626c-1.892 0-3.74-.56-5.314-1.61a9.555 9.555 0 0 1-4.066-9.807 9.55 9.55 0 0 1 2.617-4.89 9.567 9.567 0 0 1 10.422-2.072 9.561 9.561 0 0 1 4.292 3.519 9.545 9.545 0 0 1-1.189 12.062 9.569 9.569 0 0 1-6.762 2.798zm0-16.803a7.287 7.287 0 0 0-6.73 4.495 7.266 7.266 0 0 0 1.59 7.929 7.283 7.283 0 0 0 7.942 1.562 7.28 7.28 0 0 0 4.479-6.736 7.27 7.27 0 0 0-2.14-5.128 7.285 7.285 0 0 0-5.141-2.122z"/></g><g><path fill="#231f20" d="M220.188 158.439a1.157 1.157 0 0 1-1.323-.958 1.154 1.154 0 0 1 .958-1.322l9.13-3.055a1.196 1.196 0 0 1 1.411 1.696c-.148.28-.4.49-.703.584l-9.13 3.032a1.028 1.028 0 0 1-.343.023z"/></g><g><path fill="#231f20" d="M459.123 71.412s-1.256-.89-3.127-2.052c0 0-2.1 4.15-2.146 3.99-.045-.16 5.273-1.938 5.273-1.938z"/></g><g><path fill="#231f20" d="M453.69 74.51a1.119 1.119 0 0 1-.982-.843c-.137-.524-.206-.82.32-1.186.524-.364 1.186-2.28 1.917-3.602a1.095 1.095 0 0 1 .707-.593 1.028 1.028 0 0 1 .89.137 56.616 56.616 0 0 1 3.196 2.075 1.118 1.118 0 0 1-.297 2.006c-1.986.684-4.2 1.46-4.884 1.756a.685.685 0 0 1-.57.25zm2.715-3.51v.136h.183z"/></g><g><path fill="#231f20" d="M439.626 143.596l-3.036-1.961 1.278-3.215z"/></g><g><path fill="#231f20" d="M439.653 144.736a1.097 1.097 0 0 1-.64-.183l-3.035-1.96a1.117 1.117 0 0 1-.434-1.369l1.278-3.214a1.231 1.231 0 0 1 1.096-.73 1.165 1.165 0 0 1 1.05.775l1.758 5.176a1.139 1.139 0 0 1-.389 1.277 1.12 1.12 0 0 1-.684.228z"/></g><g><path fill="#231f20" d="M441.019 143.64l28.736-9.394a2.579 2.579 0 0 0 1.735-2.895l-11.732-58.802a1.821 1.821 0 0 0-1.763-1.519 1.828 1.828 0 0 0-.816.174l-28.486 11.263a2.738 2.738 0 0 0-1.598 2.942l11.413 56.794a1.844 1.844 0 0 0 1.696 1.563c.278.02.556-.024.815-.126z"/></g><g><path fill="#231f20" d="M440.38 144.893c-.53.002-1.052-.14-1.507-.41a3.055 3.055 0 0 1-1.438-2.053l-11.413-56.794a3.827 3.827 0 0 1 2.283-4.218l28.486-11.4a3.153 3.153 0 0 1 2.647.114 3.035 3.035 0 0 1 1.484 2.074l11.732 58.802a3.713 3.713 0 0 1-2.488 4.218l-28.76 9.393c-.322.153-.67.246-1.027.274zm17.21-72.71l-28.486 11.4a1.574 1.574 0 0 0-.89 1.642l11.412 56.795a.73.73 0 0 0 .982.593l28.76-9.394a1.483 1.483 0 0 0 .958-1.596l-11.732-58.801a.683.683 0 0 0-.343-.524.73.73 0 0 0-.273-.114z"/></g><g><path fill="#fff" d="M437.853 141.63l28.76-9.394a2.601 2.601 0 0 0 1.711-2.896l-11.71-58.801a1.846 1.846 0 0 0-2.601-1.345l-28.486 11.263a2.692 2.692 0 0 0-1.575 2.941l11.413 56.795a1.848 1.848 0 0 0 2.488 1.436z"/></g><g><path fill="#231f20" d="M437.21 142.892a2.856 2.856 0 0 1-1.484-.41 3.08 3.08 0 0 1-1.461-2.052l-11.413-56.795a3.827 3.827 0 0 1 2.283-4.218L453.62 68.13a3.107 3.107 0 0 1 2.624 0 3.013 3.013 0 0 1 1.507 2.075l11.71 58.8a3.713 3.713 0 0 1-2.489 4.219l-28.76 9.393a2.856 2.856 0 0 1-1.004.274zm17.597-72.71a1.028 1.028 0 0 0-.365 0L425.957 81.47a1.529 1.529 0 0 0-.89 1.641l11.412 56.795a.798.798 0 0 0 .365.547c.198.08.419.08.617 0l28.759-9.393a1.46 1.46 0 0 0 .959-1.596l-11.687-58.619a.751.751 0 0 0-.342-.524.845.845 0 0 0-.343-.137z"/></g><g><path fill="#e6e7e8" d="M449.28 133.656l5.593-1.824a1.597 1.597 0 0 0 1.05-1.778l-.457-2.28a1.162 1.162 0 0 0-1.552-.912l-5.615 1.87a1.575 1.575 0 0 0-1.004 1.755l.434 2.28a1.162 1.162 0 0 0 1.552.889z"/></g><g><path fill="#e6e7e8" d="M437.8 79.773a.297.297 0 0 1-.275-.182.296.296 0 0 1 .16-.365l8.331-3.283a.297.297 0 0 1 .229.547l-8.354 3.26z"/></g><g><path fill="#e6e7e8" d="M435.524 80.666a.274.274 0 1 1 0-.547l1.096-.434a.297.297 0 0 1 .365.16.25.25 0 0 1-.16.365l-1.096.433z"/></g><g><path fill="#e6e7e8" d="M453.641 74.58L427.94 85.25l9.61 45.372 25.061-9.12z"/></g><g><path fill="#fff" d="M164.679 328.483c-.274 1.368.274 14.911 0 17.397-.32 2.986 4.245 5.768 5.752 7.888 2.944 4.173 4.702 10.032 6.528 14.775.25.661.48 1.482 0 1.96-.242.213-.547.341-.868.365-2.898.388-5.227-2.28-6.961-4.56l-4.451-5.905c1.118 1.55-1.46 12.563-1.803 14.889a52.387 52.387 0 0 1-2.283 11.742c-2.282 5.745-17.004 4.993-18.67-.297-2.032-6.43-5.296-19.494-1.05-32.125-.274-5.176-3.333-34.542-3.333-34.542z"/></g><g><path fill="#231f20" d="M150.783 392.067c-3.949-.16-8.925-1.573-10.043-5.085-3.835-12.22-4.223-23.187-1.119-32.604-.342-5.654-3.264-33.994-3.31-34.2a1.23 1.23 0 0 1 .434-1.003 1.233 1.233 0 0 1 1.05-.205l27.116 8.573a1.163 1.163 0 0 1 .776 1.322c-.114.593 0 4.56 0 7.866 0 4.173.137 8.094 0 9.44-.136 1.345 1.758 3.26 3.287 4.719.835.682 1.6 1.446 2.283 2.28a51.752 51.752 0 0 1 5.523 11.879c.396 1.094.784 2.143 1.164 3.146a2.779 2.779 0 0 1-.296 3.17c-.407.395-.94.637-1.507.683-3.492.502-6.14-2.44-8.034-5.039l-2.283-2.986c-.228 2.006-.707 4.81-1.506 8.8-.205 1.14-.388 2.03-.48 2.531 0 .867-.228 1.733-.342 2.645a38.924 38.924 0 0 1-1.986 9.37c-1.392 3.49-6.094 4.698-10.02 4.698zm-12.006-70.43c.662 6.407 2.899 28.387 3.15 32.878.021.136.021.275 0 .41-2.968 8.87-2.602 19.745 1.072 31.419.594 1.87 3.926 3.329 7.92 3.488 3.584.114 7.624-.82 8.606-3.26a37.606 37.606 0 0 0 1.848-8.824c0-.912.229-1.8.366-2.69 0-.502.25-1.46.479-2.645.57-2.781 2.031-10.191 1.484-11.4a1.14 1.14 0 0 1 1.142-1.728c.29.044.55.198.73.428l4.382 6.02c1.552 2.075 3.606 4.446 5.888 4.127h.229s0-.251-.229-.73a63.25 63.25 0 0 1-1.186-3.192 49.742 49.742 0 0 0-5.227-11.4 15.67 15.67 0 0 0-1.963-2.052c-2.009-1.87-4.269-4.013-3.995-6.612.137-1.186 0-5.426 0-9.12v-7.319z"/></g><g><path fill="#1dc9b7" d="M219 187.8c-6.847 5.746-70.757 32.695-89.564 61.378-9.564 14.614 5.523 96.763 5.523 96.763l34.032-6.612.48-72.413c3.948-4.925 48.16-29.526 48.16-29.526z"/></g><g><path fill="#1dc9b7" d="M282.84 173.194s84.453 10.944 94.085 7.706c9.632-3.237 47.339-49.43 47.339-49.43l18.716 19.95s-20.2 61.378-47.499 67.762c-27.298 6.384-104.013 0-104.013 0z"/></g><g><path fill="#231f20" d="M169.472 268.017a1.166 1.166 0 0 1-.96-.524 1.117 1.117 0 0 1 .366-1.573l56.172-35.477a1.119 1.119 0 0 1 1.575.364 1.14 1.14 0 0 1-.342 1.574l-56.195 35.43a1.142 1.142 0 0 1-.616.206z"/></g><g><path fill="#231f20" d="M320.803 250.295a1.141 1.141 0 0 1-1.095-.775c-.753-2.28-24.925-64.205-25.108-64.82a1.139 1.139 0 0 1 1.53-1.515 1.141 1.141 0 0 1 .593.693c1.004 2.554 24.446 62.632 25.222 64.912a1.138 1.138 0 0 1-.708 1.46c-.14.044-.287.06-.434.045z"/></g><g><path fill="#fff" d="M323.772 12.652L272.622 2.14a8.774 8.774 0 0 0-9.04 3.68 8.75 8.75 0 0 0-1.323 3.16l-5.158 25.08a8.723 8.723 0 0 0 3.686 9.014 8.748 8.748 0 0 0 3.161 1.314l-2.009 13.36 12.189-11.262 41.085 8.436a8.775 8.775 0 0 0 9.039-3.68 8.749 8.749 0 0 0 1.323-3.16l5.159-25.08a8.72 8.72 0 0 0-1.305-6.636 8.739 8.739 0 0 0-5.657-3.716z"/></g><g><path fill="#231f20" d="M261.844 58.894a1.21 1.21 0 0 1-.548-.137 1.163 1.163 0 0 1-.593-1.162l1.871-12.358a9.95 9.95 0 0 1-5.458-4.453 9.931 9.931 0 0 1-1.138-6.947l5.158-25.08a9.935 9.935 0 0 1 4.269-6.316 9.73 9.73 0 0 1 7.44-1.413l51.151 10.533a9.866 9.866 0 0 1 6.278 4.238 9.841 9.841 0 0 1 1.414 7.436l-5.18 25.08a9.895 9.895 0 0 1-4.247 6.27 9.915 9.915 0 0 1-7.44 1.436L274.375 47.7 262.62 58.575a1.142 1.142 0 0 1-.776.32zm8.993-55.791a7.424 7.424 0 0 0-4.177 1.254 7.528 7.528 0 0 0-3.287 4.924l-5.113 25.08a7.609 7.609 0 0 0 1.082 5.699 7.624 7.624 0 0 0 4.784 3.284 1.141 1.141 0 0 1 .89 1.277l-1.529 10.17 9.815-9.12a1.188 1.188 0 0 1 1.004-.297l41.085 8.436a7.63 7.63 0 0 0 7.963-3.154c.57-.838.967-1.781 1.167-2.774l5.159-25.08a7.584 7.584 0 0 0-3.191-7.836 7.605 7.605 0 0 0-2.744-1.147L272.617 3.285a8.935 8.935 0 0 0-1.78-.182z"/></g><g><path fill="#d1d3d4" d="M316.124 32.607h-.229l-44.554-8.504a1.141 1.141 0 0 1-.913-1.323 1.163 1.163 0 0 1 1.347-.912l44.554 8.505a1.164 1.164 0 0 1 .913 1.345 1.14 1.14 0 0 1-1.118.89z"/></g><g><path fill="#d1d3d4" d="M300.44 41.2h-.205l-30.86-5.883a1.142 1.142 0 0 1-.437-2.067 1.12 1.12 0 0 1 .848-.167l30.882 5.837a1.147 1.147 0 0 1 1.028 1.254 1.145 1.145 0 0 1-1.256 1.026z"/></g><g><path fill="#fff" d="M74.771 231.422s-58.112 3.58-73.291-40.812l9.13 115.824s12.097 23.78 66.512 28.979z"/></g><g><path fill="#231f20" d="M77.029 336.555c-54.415-5.199-66.923-28.591-67.425-29.64a.933.933 0 0 1 0-.433L.474 190.658a1.14 1.14 0 0 1 .913-1.209 1.097 1.097 0 0 1 1.3.753c14.723 43.069 71.58 40.082 72.15 40.036a1.097 1.097 0 0 1 .845.32c.22.21.35.495.365.798l2.283 103.99a1.254 1.254 0 0 1-.365.867c-.223.21-.516.332-.822.342zm-65.28-30.438c1.256 2.143 14.745 22.982 64.207 28.044L73.673 232.61c-7.943.16-53.456-.388-70.46-34.907z"/></g><g><path fill="#fff" d="M451.38 354.264l66.809-75.764 73.747 51.55-85.456 90.973z"/></g><g><path fill="#231f20" d="M506.488 422.166a1.207 1.207 0 0 1-.844-.41l-55.1-66.781a1.139 1.139 0 0 1 0-1.46l66.81-75.764a1.187 1.187 0 0 1 1.528-.182l73.748 51.55a1.133 1.133 0 0 1 .479.821 1.065 1.065 0 0 1-.296.89l-85.48 90.971a1.146 1.146 0 0 1-.845.365zm-53.593-67.875l53.639 65.002 83.676-89.056-71.83-50.16z"/></g><g><path fill="#1dc9b7" d="M499.337 325.65l4.017-1.14a21.645 21.645 0 0 1 2.1-.501 1.965 1.965 0 0 1 2.282.958c.502.957.913 1.938 1.393 2.918.22.532.487 1.043.798 1.528.24.348.583.612.982.752 1.674.32 3.34.593 4.999.82a1.782 1.782 0 0 0 1.575-.66c.913-.958 1.78-1.938 2.693-2.896.339-.381.73-.711 1.164-.98a1.393 1.393 0 0 1 1.073-.16 22.83 22.83 0 0 1 6.026 3.557 1.55 1.55 0 0 1 .502 1.87c-.434 1.299-.845 2.621-1.324 3.92a2.551 2.551 0 0 0 .388 2.76c.89 1.094 1.735 2.28 2.58 3.351a1.599 1.599 0 0 0 1.369.616h4.976a1.622 1.622 0 0 1 1.666 1.208 178.45 178.45 0 0 1 1.62 5.997 1.708 1.708 0 0 1-.935 1.938c-.96.524-1.986.934-2.968 1.413-.456.228-.913.456-1.346.707a2.054 2.054 0 0 0-1.096 1.55c-.205 1.414-.41 2.805-.662 4.196a2.278 2.278 0 0 0 .776 2.28c1.05.957 2.123 1.892 3.173 2.872a1.87 1.87 0 0 1 .433 2.554 200.143 200.143 0 0 1-2.807 4.765 1.983 1.983 0 0 1-1.92 1.2 1.986 1.986 0 0 1-.773-.197c-.89-.273-1.735-.615-2.603-.912-.867-.296-1.255-.387-1.894-.547a1.713 1.713 0 0 0-1.552.274c-1.187.866-2.283 1.733-3.515 2.622a2.28 2.28 0 0 0-.936 2.075c0 .912.16 1.846.206 2.781.034.57.034 1.14 0 1.71a1.709 1.709 0 0 1-1.347 1.733l-5.455 1.414c-.288.035-.58.035-.868 0a1.53 1.53 0 0 1-1.552-.912c-.57-1.14-1.118-2.28-1.666-3.466a1.236 1.236 0 0 1 0-.25 2.736 2.736 0 0 0-2.51-1.802c-1.096 0-2.283-.32-3.288-.501a2.742 2.742 0 0 0-2.647 1.003c-.845.957-1.667 1.915-2.557 2.827a1.823 1.823 0 0 1-2.013.781 1.827 1.827 0 0 1-.68-.348 107.34 107.34 0 0 1-4.907-2.941 1.733 1.733 0 0 1-.822-2.28c.297-1.049.685-2.075 1.05-3.1a3.372 3.372 0 0 0-.708-4.424c-.548-.73-1.141-1.436-1.689-2.166a2.578 2.578 0 0 0-2.282-1.049c-1.073 0-2.146.183-3.219.205a8.31 8.31 0 0 1-1.689-.114 1.256 1.256 0 0 1-1.141-.957c-.48-1.915-.982-3.808-1.46-5.723a3.234 3.234 0 0 1 0-.82 1.549 1.549 0 0 1 .89-1.574l3.423-1.642a8.719 8.719 0 0 0 1.004-.57 1.961 1.961 0 0 0 1.028-1.482c.182-1.345.388-2.69.57-4.058a2.14 2.14 0 0 0-.799-2.075l-2.83-2.553h-.114c-1.164-1.163-1.278-1.71-.48-3.124.8-1.414 1.895-3.124 2.876-4.56a1.688 1.688 0 0 1 2.283-.775c1.187.387 2.283.798 3.492 1.254a2.925 2.925 0 0 0 3.241-.456c1.028-.821 2.078-1.596 3.127-2.417a1.619 1.619 0 0 0 .685-1.414c0-1.3-.114-2.576-.16-3.876a3.576 3.576 0 0 1 .48-2.462zm17.963 38.464a12.453 12.453 0 0 0 5.163-8.088 12.437 12.437 0 0 0-2.127-9.354 12.679 12.679 0 0 0-17.301-2.918 12.483 12.483 0 0 0-3.104 17.26 12.318 12.318 0 0 0 8.03 5.206 12.34 12.34 0 0 0 9.339-2.106z"/></g><g><path fill="#1dc9b7" d="M550.744 322.525l2.008-.57c.343 0 .708-.183 1.05-.274a.983.983 0 0 1 1.119.502c.25.456.479.957.707 1.436.102.271.232.531.388.775a.958.958 0 0 0 .502.365c.822.182 1.667.32 2.488.433a.914.914 0 0 0 .8-.342l1.346-1.436c.16-.198.354-.368.57-.502a.662.662 0 0 1 .548 0 11.416 11.416 0 0 1 3.013 1.779.775.775 0 0 1 .251.934c-.228.639-.434 1.3-.662 1.938a1.275 1.275 0 0 0 .183 1.391c.456.547.867 1.117 1.301 1.687a.845.845 0 0 0 .685.297h2.488a.822.822 0 0 1 .844.615c.274.98.548 1.984.799 2.987a.82.82 0 0 1-.48.958c-.456.273-.98.479-1.46.707l-.685.364a1.072 1.072 0 0 0-.548.776c-.114.706-.205 1.39-.32 2.097a1.094 1.094 0 0 0 .389 1.117l1.575 1.437a.913.913 0 0 1 .205 1.277 24.181 24.181 0 0 1-1.392 2.28 1.001 1.001 0 0 1-.96.596 1.006 1.006 0 0 1-.387-.095l-1.3-.456a6.33 6.33 0 0 0-.937-.273.8.8 0 0 0-.776.136l-1.757 1.3a1.163 1.163 0 0 0-.48 1.049c0 .456 0 .912.115 1.368.114.456 0 .593 0 .866a.889.889 0 0 1-.685.867l-2.716.706c-.145.012-.29.012-.434 0a.8.8 0 0 1-.776-.456c-.274-.57-.548-1.162-.845-1.732v-.137a1.323 1.323 0 0 0-1.255-.89l-1.643-.25a1.325 1.325 0 0 0-1.324.501c-.411.48-.845.935-1.278 1.414a.912.912 0 0 1-1.347.205 53.063 53.063 0 0 1-2.442-1.459.867.867 0 0 1-.434-1.117c.16-.525.365-1.049.548-1.55.388-1.118.365-1.3-.365-2.28l-.845-1.095a1.3 1.3 0 0 0-1.141-.524h-1.598a5.246 5.246 0 0 1-.845 0 .684.684 0 0 1-.57-.502c-.228-.958-.48-1.892-.73-2.85a2.482 2.482 0 0 1 0-.41.752.752 0 0 1 .433-.776l1.712-.843c.175-.078.342-.17.502-.274a1.027 1.027 0 0 0 .525-.752l.274-2.007a1.048 1.048 0 0 0-.41-1.048l-1.393-1.277c-.57-.57-.64-.844-.228-1.573.41-.73.935-1.55 1.438-2.28a.844.844 0 0 1 1.14-.388c.571.205 1.165.388 1.736.638a1.554 1.554 0 0 0 1.62-.228l1.552-1.208a.798.798 0 0 0 .343-.707v-1.96a1.731 1.731 0 0 1 .228-1.209zm8.97 19.22a6.25 6.25 0 0 0 2.525-6.495 6.243 6.243 0 0 0-.996-2.237 6.346 6.346 0 0 0-8.65-1.437 6.224 6.224 0 0 0-1.553 8.619 6.16 6.16 0 0 0 6.448 2.544c.8-.18 1.558-.518 2.226-.994z"/></g><g><path fill="#d1d3d4" d="M540.266 310.676a1.12 1.12 0 0 1-.73-.273l-22.072-18.4a1.14 1.14 0 0 1-.16-1.596 1.187 1.187 0 0 1 1.62-.16l22.073 18.423a1.117 1.117 0 0 1 .137 1.596 1.094 1.094 0 0 1-.868.41z"/></g><g><path fill="#d1d3d4" d="M527.16 313.936a1.165 1.165 0 0 1-.731-.273l-15.567-12.974a1.141 1.141 0 1 1 1.461-1.755l15.567 12.996a1.118 1.118 0 0 1 .16 1.596 1.142 1.142 0 0 1-.89.41z"/></g><g><path fill="#fff" d="M252.728 418.063l-95.893 20.526 13.632 63.547 95.893-20.526z"/></g><g><path fill="#231f20" d="M171.531 500.37a1.142 1.142 0 0 1-1.118-.913l-13.878-63.338a1.093 1.093 0 0 1 .16-.844 1.072 1.072 0 0 1 .708-.501l95.591-20.885a1.142 1.142 0 0 1 1.37.866l13.854 63.339a1.09 1.09 0 0 1-.137.844 1.11 1.11 0 0 1-.73.5l-95.568 20.909zm-12.508-63.613l13.376 61.104 93.354-20.406-13.375-61.104z"/></g><g><path fill="#fff" d="M231.68 473.676l10.011-2.188-7.687-35.102-10.012 2.187z"/></g><g><path fill="#d1d3d4" d="M231.67 474.838a1.164 1.164 0 0 1-1.119-.89l-7.669-35.112a1.139 1.139 0 0 1 .137-.866c.17-.255.431-.435.73-.502l10.02-2.28a1.12 1.12 0 0 1 1.348.867l7.692 35.112a1.162 1.162 0 0 1-.868 1.368l-10.02 2.28zm-6.323-35.386l7.19 32.878 7.806-1.688-7.19-32.877z"/></g><g><path fill="#fff" d="M215.248 477.276l10.012-2.188-5.736-26.193-10.012 2.187z"/></g><g><path fill="#d1d3d4" d="M215.236 478.435a1.142 1.142 0 0 1-1.118-.912l-5.73-26.197a1.116 1.116 0 0 1 .868-1.345l10.02-2.28c.296-.07.607-.02.867.136a1.072 1.072 0 0 1 .48.73l5.683 26.288c.06.299.003.61-.16.867a1.027 1.027 0 0 1-.707.479l-10.02 2.28zm-4.382-26.47l5.25 23.962 7.783-1.71-5.25-23.963z"/></g><g><path fill="#fff" d="M198.812 480.86l10.011-2.188-3.127-14.278-10.011 2.188z"/></g><g><path fill="#d1d3d4" d="M198.914 482.013a1.165 1.165 0 0 1-1.118-.889l-3.127-14.273a1.139 1.139 0 0 1 .867-1.368l10.02-2.28c.3-.06.61-.003.868.16.254.16.434.414.502.707l3.127 14.273a1.184 1.184 0 0 1-.89 1.368l-10.02 2.28zm-1.78-14.546l2.648 12.061 7.783-1.71-2.625-12.038z"/></g><g><path fill="#d1d3d4" d="M188.628 484.254a1.142 1.142 0 0 1-1.119-.912l-9.54-43.548a1.116 1.116 0 0 1 .867-1.345 1.143 1.143 0 0 1 1.37.866l9.289 42.431 62.54-13.68a1.12 1.12 0 0 1 1.347.866 1.139 1.139 0 0 1-.867 1.368l-63.636 13.908z"/></g><g><path fill="#fff" d="M417.715 317.856c10.954 0 19.835-8.87 19.835-19.813 0-10.942-8.88-19.813-19.835-19.813s-19.835 8.87-19.835 19.813 8.88 19.813 19.835 19.813z"/></g><g><path fill="#231f20" d="M417.716 318.996a20.992 20.992 0 0 1-11.654-3.53 20.958 20.958 0 0 1-7.725-9.404 20.932 20.932 0 0 1 4.547-22.835 20.998 20.998 0 0 1 22.86-4.542 20.972 20.972 0 0 1 9.413 7.717 20.937 20.937 0 0 1-2.608 26.457 20.988 20.988 0 0 1-14.833 6.137zm0-39.603a18.708 18.708 0 0 0-10.388 3.148 18.678 18.678 0 0 0-6.885 8.384 18.654 18.654 0 0 0 4.063 20.353 18.712 18.712 0 0 0 20.38 4.033 18.689 18.689 0 0 0 8.384-6.887 18.66 18.66 0 0 0-2.344-23.57 18.704 18.704 0 0 0-13.21-5.461z"/></g><g><path fill="#d1d3d4" d="M417.714 312.516c-2.867 0-5.669-.85-8.053-2.44a14.481 14.481 0 0 1-5.338-6.497 14.463 14.463 0 0 1 3.142-15.779 14.499 14.499 0 0 1 15.795-3.138 14.49 14.49 0 0 1 6.505 5.332 14.467 14.467 0 0 1-1.803 18.281 14.501 14.501 0 0 1-10.248 4.241zm0-26.836a12.38 12.38 0 0 0-6.873 2.083 12.345 12.345 0 0 0-1.875 19.013 12.376 12.376 0 0 0 13.482 2.679 12.37 12.37 0 0 0 5.552-4.551 12.348 12.348 0 0 0-1.538-15.604 12.378 12.378 0 0 0-8.748-3.62z"/></g><g><path fill="#d1d3d4" d="M417.719 306.18a8.155 8.155 0 0 1-7.529-5.026 8.131 8.131 0 0 1 1.767-8.87 8.151 8.151 0 0 1 13.91 5.756c0 2.158-.859 4.229-2.387 5.755a8.153 8.153 0 0 1-5.761 2.384zm0-14.182a6.053 6.053 0 0 0-5.589 3.73 6.036 6.036 0 0 0 1.311 6.584 6.05 6.05 0 0 0 10.326-4.272c0-1.603-.637-3.14-1.772-4.273a6.052 6.052 0 0 0-4.276-1.77z"/></g><g><path fill="#d1d3d4" d="M319.414 22.531h-.228l-44.555-8.482a1.164 1.164 0 0 1-.913-1.345 1.14 1.14 0 0 1 1.347-.912l44.555 8.505a1.164 1.164 0 0 1 .913 1.345 1.14 1.14 0 0 1-1.119.889z"/></g><g><path fill="#d1d3d4" d="M365.7 108.532c-2.123.004-4.2-.62-5.968-1.796a10.705 10.705 0 0 1-1.64-16.497 10.731 10.731 0 0 1 11.702-2.319 10.725 10.725 0 0 1 4.813 3.957 10.708 10.708 0 0 1-1.344 13.516 10.734 10.734 0 0 1-7.562 3.139zm0-19.13a8.452 8.452 0 0 0-7.818 5.193 8.428 8.428 0 0 0 1.816 9.2 8.448 8.448 0 0 0 14.425-5.956 8.432 8.432 0 0 0-2.466-5.957 8.45 8.45 0 0 0-5.957-2.48z"/></g><g><path fill="#d1d3d4" d="M104.74 231.466a6.707 6.707 0 0 0 6.711-6.703 6.707 6.707 0 0 0-6.71-6.703 6.707 6.707 0 0 0-6.711 6.703 6.707 6.707 0 0 0 6.71 6.703z"/></g></g></g></g></svg>