<svg width="1600" height="906" viewBox="0 0 1600 906" fill="none" xmlns="http://www.w3.org/2000/svg">
<path fill-rule="evenodd" clip-rule="evenodd" d="M1600 0H0V865.16L-25 869.5L0 869.693V870H39.6473L56.8745 870.133C86.4708 870.362 114.724 881.234 142.507 891.924C145.945 893.247 149.377 894.568 152.802 895.865C180.414 906.319 215.01 911.097 250.217 898.269C256.805 895.869 263.38 893.301 269.964 890.729C295.974 880.572 322.133 870.356 349.83 870.171L375.319 870H1600V0Z" fill="#584475"/>
<mask id="mask0" mask-type="alpha" maskUnits="userSpaceOnUse" x="-25" y="0" width="1625" height="906">
<path fill-rule="evenodd" clip-rule="evenodd" d="M1600 0H0V865.16L-25 869.5L0 869.693V870H39.6473L56.8745 870.133C86.4708 870.362 114.724 881.234 142.507 891.924C145.945 893.247 149.377 894.568 152.802 895.865C180.414 906.319 215.01 911.097 250.217 898.269C256.805 895.869 263.38 893.301 269.964 890.729C295.974 880.572 322.133 870.356 349.83 870.171L375.319 870H1600V0Z" fill="#584475"/>
</mask>
<g mask="url(#mask0)">
<circle cx="-18.5" cy="285.5" r="151.5" fill="#5D487B"/>
<circle cx="611.5" cy="765.5" r="42.5" fill="#513C6F"/>
<circle cx="1532" cy="695.605" r="105" fill="#5D487B"/>
<circle cx="936" cy="198.781" r="63" fill="#5D487B"/>
<circle cx="1527.5" cy="158.279" r="17.5" fill="#6F5991"/>
</g>
</svg>
