<?xml version="1.0" encoding="utf-8"?>
<!-- Generator: Adobe Illustrator 24.1.2, SVG Export Plug-In . SVG Version: 6.00 Build 0)  -->
<svg version="1.1" id="Слой_1" xmlns="http://www.w3.org/2000/svg" xmlns:xlink="http://www.w3.org/1999/xlink" x="0px" y="0px"
	 viewBox="0 0 410.5 36" style="enable-background:new 0 0 410.5 36;" xml:space="preserve">
<style type="text/css">
	.st0{fill-rule:evenodd;clip-rule:evenodd;fill:#584475;}
	.st1{fill-rule:evenodd;clip-rule:evenodd;fill:#584475;filter:url(#Adobe_OpacityMaskFilter);}
	.st2{mask:url(#mask0_1_);}
	.st3{fill:#5D487B;}
	.st4{fill:#513C6F;}
	.st5{fill:#6F5991;}
</style>
<path class="st0" d="M1599.9-870V0H375.2l-25.5,0.2c-27.7,0.2-53.9,10.4-79.9,20.6c-6.6,2.6-13.2,5.1-19.7,7.5
	c-35.2,12.8-69.8,8-97.4-2.4c-3.4-1.3-6.8-2.6-10.3-3.9c-27.8-10.7-56-21.6-85.6-21.8L39.5,0H-0.1v-0.3l-25-0.2l25-4.3V-870H1599.9z
	"/>
<defs>
	<filter id="Adobe_OpacityMaskFilter" filterUnits="userSpaceOnUse" x="-2637.7" y="-75.3" width="1807" height="674">
		<feColorMatrix  type="matrix" values="1 0 0 0 0  0 1 0 0 0  0 0 1 0 0  0 0 0 1 0"/>
	</filter>
</defs>
<mask maskUnits="userSpaceOnUse" x="-2637.7" y="-75.3" width="1807" height="674" id="mask0_1_">
	<path class="st1" d="M-867.7-209.3h-1600v865.2l-25,4.3l25,0.2v0.3h39.6l17.2,0.1c29.6,0.2,57.8,11.1,85.6,21.8
		c3.4,1.3,6.9,2.6,10.3,3.9c27.6,10.5,62.2,15.2,97.4,2.4c6.6-2.4,13.2-5,19.7-7.5c26-10.2,52.2-20.4,79.9-20.6l25.5-0.2h1224.7
		V-209.3z"/>
</mask>
<g class="st2">
	<circle class="st3" cx="-2486.2" cy="76.2" r="151.5"/>
	<circle class="st4" cx="-1856.2" cy="556.2" r="42.5"/>
	<circle class="st3" cx="-935.7" cy="486.3" r="105"/>
	<circle class="st3" cx="-1531.7" cy="-10.6" r="63"/>
	<circle class="st5" cx="-940.2" cy="-51.1" r="17.5"/>
</g>
</svg>
