<?xml version="1.0" encoding="utf-8"?>
<!-- Generator: Adobe Illustrator 24.1.2, SVG Export Plug-In . SVG Version: 6.00 Build 0)  -->
<svg version="1.1" id="Слой_1" xmlns="http://www.w3.org/2000/svg" xmlns:xlink="http://www.w3.org/1999/xlink" x="0px" y="0px"
	 viewBox="0 0 1600 870" style="enable-background:new 0 0 1600 870;" xml:space="preserve">
<style type="text/css">
	.st0{fill-rule:evenodd;clip-rule:evenodd;fill:#584475;}
	.st1{fill:#5D487B;}
	.st2{fill:#513C6F;}
	.st3{fill:#6F5991;}
</style>
<path class="st0" d="M1600,0v870H375.3l-25.5,0.2c-27.7,0.2-53.9,10.4-79.9,20.6c-6.6,2.6-13.2,5.1-19.7,7.5
	c-35.2,12.8-69.8,8-97.4-2.4c-3.4-1.3-6.8-2.6-10.3-3.9c-27.8-10.7-56-21.6-85.6-21.8L39.7,870H0v-0.3l-25-0.2l25-4.3V0H1600z"/>
<g>
	<circle class="st1" cx="-18.5" cy="285.5" r="151.5"/>
	<circle class="st2" cx="611.5" cy="765.5" r="42.5"/>
	<circle class="st1" cx="1532" cy="695.6" r="105"/>
	<circle class="st1" cx="936" cy="198.8" r="63"/>
	<circle class="st3" cx="1527.5" cy="158.3" r="17.5"/>
</g>
<rect y="870" class="st0" width="1600" height="36"/>
</svg>
