<svg xmlns="http://www.w3.org/2000/svg" width="203" height="51" viewBox="0 0 203 51"><g><g><g><path fill="#fff" d="M76.391 35.005h-3.589L66.8 25.891v9.114H63.21V20.158h3.59l6.002 9.198v-9.198h3.59zm7.957-11.865c1.162 0 2.197.245 3.107.735a5.159 5.159 0 0 1 2.162 2.079c.531.91.797 1.974.797 3.192 0 1.218-.266 2.282-.797 3.192a5.294 5.294 0 0 1-2.162 2.1c-.91.476-1.945.714-3.107.714-1.161 0-2.204-.238-3.127-.714a5.434 5.434 0 0 1-2.183-2.1c-.518-.91-.777-1.974-.777-3.192 0-1.218.26-2.282.777-3.192a5.293 5.293 0 0 1 2.183-2.079c.923-.49 1.966-.735 3.127-.735zm0 3.108c-.685 0-1.266.252-1.742.756-.462.49-.692 1.204-.692 2.142s.23 1.652.692 2.142c.476.49 1.057.735 1.742.735.686 0 1.26-.245 1.721-.735.462-.49.693-1.204.693-2.142s-.23-1.652-.693-2.142a2.24 2.24 0 0 0-1.72-.756zm14.56 5.67v3.087h-1.616c-1.372 0-2.442-.336-3.212-1.008-.755-.686-1.133-1.813-1.133-3.381v-4.305h-1.574v-3.024h1.574V20.41h3.59v2.877h2.35v3.024h-2.35v4.368c0 .462.09.784.272.966.196.182.518.273.966.273zm1.681-11.928c0-.546.196-.994.588-1.344.392-.364.91-.546 1.553-.546.644 0 1.162.182 1.554.546.391.35.587.798.587 1.344 0 .532-.196.98-.587 1.344-.392.35-.91.525-1.554.525-.643 0-1.161-.175-1.553-.525a1.762 1.762 0 0 1-.588-1.344zm3.925 3.297v11.718h-3.589V23.287zm8.23-1.596c-.588 0-1.015.126-1.28.378-.267.252-.413.658-.441 1.218h2.12v3.024h-2.12v8.694h-3.59v-8.694h-1.406v-3.024h1.406v-.126c0-1.456.42-2.576 1.26-3.36.853-.798 2.085-1.197 3.694-1.197.336 0 .587.007.755.021v3.087zm4.684 1.596l2.812 7.182 2.624-7.182h3.967l-7.304 17.304h-3.946l2.75-6.027-4.912-11.277zm13.68 8.127v3.591h-3.715v-3.591zm5.464-8.4v3.108h5.017v2.709h-5.017v3.297h5.647v2.877h-9.236V20.158h9.236v2.856zm13.1 8.484l2.54-8.211h3.82l-4.156 11.718h-4.45l-4.156-11.718h3.82zm18.971-2.667c0 .294-.035.616-.105.966h-8.123c.042.882.266 1.519.672 1.911.406.378.923.567 1.553.567.532 0 .973-.133 1.322-.399.35-.266.581-.609.693-1.029h3.799a5.05 5.05 0 0 1-1.007 2.226 5.528 5.528 0 0 1-1.973 1.533c-.798.364-1.687.546-2.666.546-1.147 0-2.169-.238-3.064-.714a5.264 5.264 0 0 1-2.078-2.1c-.504-.91-.756-1.974-.756-3.192 0-1.232.245-2.296.735-3.192a5.09 5.09 0 0 1 2.098-2.079c.896-.49 1.918-.735 3.065-.735 1.161 0 2.183.238 3.064.714a4.95 4.95 0 0 1 2.036 2.016c.49.854.735 1.841.735 2.961zm-3.631-.546c.014-.77-.196-1.344-.63-1.722-.42-.392-.944-.588-1.574-.588-.658 0-1.203.196-1.637.588-.434.392-.679.966-.735 1.722zm12.932-5.124c1.344 0 2.407.448 3.191 1.344.797.896 1.196 2.128 1.196 3.696v6.804h-3.589v-6.384c0-.784-.21-1.393-.63-1.827-.406-.448-.951-.672-1.637-.672-.728 0-1.308.231-1.742.693-.42.462-.63 1.12-.63 1.974v6.216h-3.589V23.287h3.589v2.142a3.89 3.89 0 0 1 1.49-1.659c.672-.406 1.456-.609 2.351-.609zm13.387 8.757v3.087h-1.616c-1.372 0-2.442-.336-3.212-1.008-.755-.686-1.133-1.813-1.133-3.381v-4.305h-1.574v-3.024h1.574V20.41h3.589v2.877h2.351v3.024h-2.351v4.368c0 .462.091.784.273.966.196.182.518.273.965.273zm6.278-8.778c1.483 0 2.666.371 3.547 1.113.896.742 1.455 1.722 1.679 2.94h-3.358c-.098-.476-.322-.847-.672-1.113-.335-.28-.762-.42-1.28-.42-.406 0-.714.091-.923.273-.21.168-.315.413-.315.735 0 .364.189.637.566.819.392.182 1.001.364 1.826.546.896.21 1.631.427 2.204.651a3.55 3.55 0 0 1 1.491 1.05c.419.49.629 1.148.629 1.974 0 .672-.182 1.267-.545 1.785-.364.518-.889.924-1.575 1.218-.685.294-1.497.441-2.434.441-1.582 0-2.848-.35-3.799-1.05-.952-.7-1.533-1.701-1.743-3.003h3.464c.056.504.266.889.629 1.155.378.266.861.399 1.449.399.405 0 .713-.091.923-.273a.988.988 0 0 0 .315-.756c0-.406-.196-.693-.588-.861-.378-.182-1-.371-1.868-.567-.867-.182-1.581-.378-2.141-.588a3.581 3.581 0 0 1-1.448-1.008c-.406-.476-.609-1.12-.609-1.932 0-1.05.399-1.897 1.197-2.541.797-.658 1.924-.987 3.379-.987z"/></g><g><path fill="#fff" d="M50.974 25.5c0 14.083-11.41 25.5-25.487 25.5C11.411 51 0 39.583 0 25.5S11.411 0 25.487 0c14.076 0 25.487 11.417 25.487 25.5z"/></g><g><g/><g><path fill="#584475" d="M36.978 25.5c0 6.357-5.141 11.5-11.494 11.5-2.016 0-3.985-.526-5.722-1.525l-4.599 1.482a.898.898 0 0 1-1.13-1.13l1.481-4.602A11.478 11.478 0 0 1 13.99 25.5c0-6.357 5.142-11.5 11.494-11.5 6.354 0 11.494 5.144 11.494 11.5zm-1.796 0c0-5.35-4.35-9.703-9.698-9.703-5.347 0-9.698 4.353-9.698 9.703a9.68 9.68 0 0 0 1.47 5.136.9.9 0 0 1 .093.752l-1.07 3.321 3.32-1.07a.898.898 0 0 1 .752.094 9.666 9.666 0 0 0 5.133 1.47c5.348 0 9.698-4.353 9.698-9.703zm-8.575 0a1.123 1.123 0 1 1-2.246 0 1.123 1.123 0 0 1 2.246 0zm4.49 0a1.123 1.123 0 1 1-2.246 0 1.123 1.123 0 0 1 2.246 0zm-8.98 0a1.123 1.123 0 1 1-2.246 0 1.123 1.123 0 0 1 2.246 0z"/></g></g></g></g></svg>