<svg xmlns="http://www.w3.org/2000/svg" width="253" height="177" viewBox="0 0 253 177"><g><g clip-path="url(#clip-1:1787)"><g><path fill="#fff" d="M183.594 220.854l4.33-27.917-19.945-5.079-5.075 31.38"/></g><g><path fill="#231f20" d="M162.849 219.67a.394.394 0 0 1-.267-.159.424.424 0 0 1-.075-.31l5.077-31.39a.439.439 0 0 1 .347-.367.368.368 0 0 1 .17.012l19.956 5.08c.097.026.18.087.234.173.053.085.074.189.058.292l-4.326 27.886a.447.447 0 0 1-.315.356.404.404 0 0 1-.312-.042.395.395 0 0 1-.185-.259.435.435 0 0 1-.005-.165l4.254-27.5-19.159-4.877-4.993 30.91a.447.447 0 0 1-.163.272.416.416 0 0 1-.296.089z"/></g><g><path fill="#fff" d="M83.877 198.6l27.01-26.538 20.369 7.264-30.225 25.745"/></g><g><path fill="#231f20" d="M100.978 205.505a.398.398 0 0 1-.275-.156.406.406 0 0 1-.086-.31.44.44 0 0 1 .159-.288l29.644-25.26-19.444-6.936L84.16 198.91a.442.442 0 0 1-.302.12.414.414 0 0 1-.293-.124.43.43 0 0 1-.109-.306.46.46 0 0 1 .134-.305l27.056-26.532a.423.423 0 0 1 .204-.112.396.396 0 0 1 .228.014l20.369 7.255a.423.423 0 0 1 .172.128.441.441 0 0 1 .09.2.462.462 0 0 1-.15.409l-30.22 25.717a.454.454 0 0 1-.167.107.428.428 0 0 1-.193.024z"/></g><g><path fill="#1dc9b7" d="M191.21 65.588s-32.866 6.013-32.716 7.316c.15 1.304 3.47 25.5 3.47 25.5l20.418-3.254z"/></g><g><path fill="#1dc9b7" d="M192.479 65.646s-10.428 1.847-17.063 4.943c-6.634 3.096-9.71 42.397-9.71 42.397l44.675 13.8s11.828-24.606 12.65-36.267c.822-11.66-4.132-28.77-30.552-24.873z"/></g><g><path fill="#231f20" d="M165.443 93.38a.337.337 0 0 1-.154-.015.417.417 0 0 1-.195-.256.46.46 0 0 1 .037-.331c3.852-7.26 9.674-18.336 9.892-19.126a.448.448 0 0 1 .163-.287.42.42 0 0 1 .308-.087c.11.015.21.074.277.164a.45.45 0 0 1 .083.322c-.088.726-7.017 13.85-9.993 19.416a.443.443 0 0 1-.183.163.409.409 0 0 1-.235.036z"/></g><g><path fill="#fff" d="M195.3 61.664l-4.41 9.661s-.8 5.913 5.606 5.992c1.895.002 3.781-.431 5.522-1.268a13.486 13.486 0 0 0 4.545-3.57l4.846-17.61a5.267 5.267 0 0 1-1.315-3.587 9.054 9.054 0 0 1 .444-2.978 15.352 15.352 0 0 1 1.87-3.639 12.931 12.931 0 0 1-7.317-5.09 21.774 21.774 0 0 1-1.137-2.066c-.158-.331-4.42 1.245-4.871 1.425a12.5 12.5 0 0 0-5.635 3.97 16.537 16.537 0 0 0-2.208 5.267 44.613 44.613 0 0 0-1.673 7.797c-.562 5.037 5.733 5.696 5.733 5.696z"/></g><g><path fill="#231f20" d="M195.652 77.667a5.522 5.522 0 0 1-3.904-1.863c-.96-1.265-1.398-2.881-1.22-4.511a.619.619 0 0 1 .014-.119l4.198-9.195c-1.533-.298-6.048-1.55-5.547-6.02.326-2.66.892-5.29 1.69-7.857a16.922 16.922 0 0 1 2.308-5.412 12.76 12.76 0 0 1 5.738-4.124c4.988-1.961 5.239-1.442 5.326-1.211 0 0 .657 1.396 1.11 2.02a12.464 12.464 0 0 0 7.13 4.945.351.351 0 0 1 .24.237.39.39 0 0 1-.054.345 14.982 14.982 0 0 0-1.826 3.542 8.952 8.952 0 0 0-.42 2.851 4.844 4.844 0 0 0 1.199 3.32.35.35 0 0 1 .106.172.376.376 0 0 1-.003.206l-4.848 17.611a.438.438 0 0 1-.066.14 13.75 13.75 0 0 1-4.68 3.712 12.96 12.96 0 0 1-5.71 1.301c-.25-.04-.52-.066-.781-.09zm-4.414-6.24a5.588 5.588 0 0 0 1.06 3.864 5.24 5.24 0 0 0 4.195 1.642 12.446 12.446 0 0 0 5.314-1.216 13.183 13.183 0 0 0 4.398-3.4l4.772-17.327a5.758 5.758 0 0 1-1.27-3.686 9.439 9.439 0 0 1 .439-3.072 14.55 14.55 0 0 1 1.636-3.269 13.14 13.14 0 0 1-7.05-5.074c-.364-.54-.875-1.562-1.075-1.957a35.89 35.89 0 0 0-4.496 1.443 12.266 12.266 0 0 0-5.422 3.837 16.483 16.483 0 0 0-2.18 5.159 45.093 45.093 0 0 0-1.664 7.722c-.507 4.589 5.147 5.238 5.407 5.271a.344.344 0 0 1 .274.189c.03.052.046.111.049.172a.408.408 0 0 1-.034.18z"/></g><g><path fill="#fff" d="M208.432 53.146c.4-.685.995-1.231 1.7-1.562a6.234 6.234 0 0 1 2.12-.473c.394-.058.793-.02 1.164.108.253.113.48.278.667.484.489.435.803 1.042.885 1.709a3.57 3.57 0 0 1-.368 1.583 7.013 7.013 0 0 1-.874 1.553c-.365.47-.814.863-1.323 1.158a4.394 4.394 0 0 1-1.637.56 4.196 4.196 0 0 1-1.7-.125 4.123 4.123 0 0 1-1.498-.791"/></g><g><path fill="#231f20" d="M209.8 58.556a4.486 4.486 0 0 1-2.44-1.002.33.33 0 0 1-.117-.226.357.357 0 0 1 .299-.382.313.313 0 0 1 .242.072c.408.336.88.584 1.388.728a3.9 3.9 0 0 0 1.572.116 4.23 4.23 0 0 0 2.698-1.59c.34-.455.62-.952.832-1.48.216-.441.332-.925.34-1.413a2.476 2.476 0 0 0-.786-1.501 1.918 1.918 0 0 0-.567-.414 2.304 2.304 0 0 0-1.015-.095 6.077 6.077 0 0 0-2.008.449 3.472 3.472 0 0 0-1.546 1.447.348.348 0 0 1-.2.167.319.319 0 0 1-.25-.028.302.302 0 0 1-.16-.199.33.33 0 0 1 .04-.26 4.14 4.14 0 0 1 1.882-1.742 6.753 6.753 0 0 1 2.224-.507 2.89 2.89 0 0 1 1.32.123c.287.134.547.318.769.545.544.495.89 1.18.974 1.932a3.809 3.809 0 0 1-.395 1.735 7.381 7.381 0 0 1-.917 1.635c-.394.506-.878.93-1.426 1.248a4.758 4.758 0 0 1-1.764.606 4.42 4.42 0 0 1-.99.036z"/></g><g><path fill="#231f20" d="M193.007 66.735c2.339.468 4.791.085 6.942-1.084 3.432-1.976 3.948-4.83 3.948-4.83a18.155 18.155 0 0 1-8.58.74z"/></g><g><path fill="#231f20" d="M193.903 67.248a7.124 7.124 0 0 1-1.005-.154.35.35 0 0 1-.239-.197.378.378 0 0 1 0-.319l2.307-5.16a.411.411 0 0 1 .165-.18.384.384 0 0 1 .233-.052c2.793.404 5.662.133 8.38-.793a.366.366 0 0 1 .365.034.369.369 0 0 1 .108.157.391.391 0 0 1 .018.193c-.016.128-.58 3.097-4.128 5.146a10.593 10.593 0 0 1-6.204 1.325zm-.38-.814c2.122.31 4.307-.093 6.234-1.15a7.869 7.869 0 0 0 3.553-3.944c-2.547.749-5.197.97-7.792.648z"/></g><g><path fill="#fff" d="M201.43 45.017s-4.604 3.85-4.16 4.952c.446 1.104 2.72 1.111 2.72 1.111"/></g><g><path fill="#231f20" d="M199.647 51.462c-.704-.066-2.264-.323-2.705-1.324-.534-1.198 2.812-4.182 4.278-5.407a.376.376 0 0 1 .272-.088.345.345 0 0 1 .244.136.38.38 0 0 1 .073.277.402.402 0 0 1-.138.257c-2.344 1.973-4.252 4.03-4.068 4.493.304.705 1.879.904 2.374.924.096.007.185.051.248.124a.386.386 0 0 1 .093.268.393.393 0 0 1-.25.336.359.359 0 0 1-.141.022z"/></g><g><path fill="#231f20" d="M194.174 52.912l8.088.643s-1.054 5.615-5.793 5.52c-4.738-.097-2.295-6.163-2.295-6.163z"/></g><g><path fill="#fff" d="M203.364 45.32c.136-.229.325-.419.55-.552.225-.132.477-.203.732-.205.954-.068 1.293 1.113 1.293 1.113"/></g><g><path fill="#231f20" d="M205.892 46.017a.35.35 0 0 1-.314-.256s-.262-.895-.917-.843a1.11 1.11 0 0 0-.546.15 1.18 1.18 0 0 0-.414.404.4.4 0 0 1-.217.199.366.366 0 0 1-.286-.01.359.359 0 0 1-.182-.21.392.392 0 0 1 .015-.286c.158-.297.39-.548.671-.725.281-.178.6-.275.926-.283 1.224-.094 1.644 1.303 1.661 1.366a.388.388 0 0 1-.03.291.398.398 0 0 1-.222.19z"/></g><g><path fill="#fff" d="M195.87 43.798c.135-.228.325-.418.55-.55.224-.133.477-.204.732-.206.955-.076 1.292 1.113 1.292 1.113"/></g><g><path fill="#231f20" d="M198.398 44.504a.35.35 0 0 1-.314-.264s-.261-.895-.917-.835c-.19 0-.38.051-.548.148-.168.098-.31.238-.412.407a.4.4 0 0 1-.218.198.366.366 0 0 1-.285-.01.367.367 0 0 1-.183-.214.401.401 0 0 1 .016-.29c.16-.296.392-.545.673-.723.28-.177.6-.275.924-.285 1.224-.094 1.643 1.312 1.661 1.366a.377.377 0 0 1-.027.293.388.388 0 0 1-.225.188.315.315 0 0 1-.145.021z"/></g><g><path fill="#231f20" d="M210.205 124.386l-17.649 90.012-106.738-33.304 82.223-70.204z"/></g><g><path fill="#231f20" d="M168.82 54.873L36.603 65.096l64.248-54.687z"/></g><g><path fill="#231f20" d="M36.556 65.523a.398.398 0 0 1-.222-.093.416.416 0 0 1-.132-.206.448.448 0 0 1 .144-.463l64.244-54.684a.427.427 0 0 1 .244-.099.4.4 0 0 1 .249.066l67.928 44.46a.386.386 0 0 1 .166.202.42.42 0 0 1 .005.27.456.456 0 0 1-.13.232.43.43 0 0 1-.233.117L36.624 65.522zm64.324-54.572L37.912 64.558l129.595-10.02z"/></g><g><path fill="#231f20" d="M170.688 143.803L46.431 154.994 38.219 64.52l131.445-10.115z"/></g><g><path fill="#231f20" d="M46.387 155.422a.387.387 0 0 1-.25-.116.406.406 0 0 1-.115-.255l-8.244-90.484a.458.458 0 0 1 .234-.433.411.411 0 0 1 .168-.048l131.493-10.11a.414.414 0 0 1 .305.106.393.393 0 0 1 .096.138.44.44 0 0 1 .035.168l1.023 89.395a.436.436 0 0 1-.397.447l-124.28 11.19zM38.675 64.91l8.139 89.627 123.451-11.129-1.014-88.52z"/></g><g><path fill="#1dc9b7" d="M59.55 126.926S45.9 53.883 37.793 31.304L161.477 8.897 155.51 119.43z"/></g><g><path fill="#fff" d="M56.217 46.388a.39.39 0 0 1-.245-.117.423.423 0 0 1-.116-.254.466.466 0 0 1 .08-.327.438.438 0 0 1 .276-.18l91.878-15.75a.41.41 0 0 1 .32.082.44.44 0 0 1 .163.297.48.48 0 0 1-.09.338.45.45 0 0 1-.29.18L56.32 46.38z"/></g><g><path fill="#fff" d="M58.437 61.347a.382.382 0 0 1-.25-.119.419.419 0 0 1-.11-.263.458.458 0 0 1 .222-.437.411.411 0 0 1 .157-.052l88.637-12.155a.405.405 0 0 1 .314.095.44.44 0 0 1 .15.302.48.48 0 0 1-.1.333.444.444 0 0 1-.293.168l-88.6 12.132z"/></g><g><path fill="#fff" d="M64.395 75.746a.39.39 0 0 1-.255-.123.43.43 0 0 1-.113-.27.473.473 0 0 1 .23-.439.418.418 0 0 1 .158-.053l84.5-9.049a.389.389 0 0 1 .403.227.442.442 0 0 1 .041.165.463.463 0 0 1-.228.44.409.409 0 0 1-.16.051l-84.5 9.05z"/></g><g><path fill="#fff" d="M66.47 93.544a.398.398 0 0 1-.294-.135.45.45 0 0 1-.11-.318.478.478 0 0 1 .137-.316.424.424 0 0 1 .305-.129l79.888-6.013a.4.4 0 0 1 .306.11c.083.08.131.19.135.31a.484.484 0 0 1-.115.33.435.435 0 0 1-.298.154L66.538 93.54z"/></g><g><path fill="#fff" d="M106.91 105.631L38.22 64.521l8.212 90.473 124.257-11.191-1.024-89.398z"/></g><g><path fill="#231f20" d="M46.387 155.422a.387.387 0 0 1-.25-.116.406.406 0 0 1-.115-.256l-8.244-90.483a.447.447 0 0 1 .418-.482.399.399 0 0 1 .22.058l68.45 40.957 62.547-51.061a.426.426 0 0 1 .213-.096.402.402 0 0 1 .46.41l1.025 89.393a.437.437 0 0 1-.398.447L46.455 155.42zM38.71 65.32l8.105 89.217 123.45-11.129-.987-88.129-62.115 50.687a.425.425 0 0 1-.234.093.4.4 0 0 1-.24-.06z"/></g><g><path fill="#fff" d="M171.649 143.534l-124.95 11.327 60.816-49.952z"/></g><g><path fill="#231f20" d="M46.65 155.29a.399.399 0 0 1-.347-.27.446.446 0 0 1 .144-.494l60.848-49.946a.426.426 0 0 1 .235-.093.4.4 0 0 1 .241.06l64.122 38.607a.413.413 0 0 1 .168.202.451.451 0 0 1-.118.502.434.434 0 0 1-.241.109l-124.977 11.33zm60.886-49.848l-59.493 48.859 122.232-11.08z"/></g><g><path fill="#fff" d="M171.649 143.534l-124.95 11.327 60.816-49.952z"/></g><g><path fill="#231f20" d="M46.65 155.29a.399.399 0 0 1-.347-.27.446.446 0 0 1 .144-.494l60.848-49.946a.426.426 0 0 1 .235-.093.4.4 0 0 1 .241.06l64.122 38.607a.413.413 0 0 1 .168.202.451.451 0 0 1-.118.502.434.434 0 0 1-.241.109l-124.977 11.33zm60.886-49.848l-59.493 48.859 122.232-11.08z"/></g><g><path fill="#d1d3d4" d="M176.565 23.285s-2.59 6.645-8.168 6.296c0 0 5.656 2.25 6.195 8.032a11.025 11.025 0 0 1 3.135-3.884 10.529 10.529 0 0 1 4.47-2.042 11.122 11.122 0 0 1-3.777-3.505 11.67 11.67 0 0 1-1.855-4.897z"/></g><g><path fill="#d1d3d4" d="M8.834 57.032s3.64 6.953-.911 11.644c0 0 6.18-3.454 11.46.113a11.969 11.969 0 0 1-.888-5.492c.136-1.892.71-3.74 1.673-5.388 0 0-5.202 2.563-11.334-.877z"/></g><g><path fill="#d1d3d4" d="M54.958 8.737s-.456 11.475-9.232 14.04c0 0 9.908.201 13.82 8.607 0 0 .717-8.749 8.572-13.155-.066-.006-8.163-.607-13.16-9.492z"/></g><g><path fill="#fff" d="M210.386 81.052s-68.756 27.83-78.831 28.851c-10.076 1.022-21.366-3.468-21.253-.52.112 2.95 5.559 4.92 5.559 4.92s-18.144 1.24-17.45 3.27c.696 2.03 12.71.695 12.71.695s-15.051 2.999-12.01 5.24c3.042 2.24 13.876-1.145 13.876-1.145s-16.454 6.78-12.296 7.657c4.159.876 12.182-2.773 12.182-2.773s-12.477 5.197-7.853 6.116c4.624.92 77.528-18.201 102.716-30.529"/></g><g><path fill="#231f20" d="M105.11 133.812l-.182-.017c-.862-.176-1.323-.532-1.352-1.056-.047-.787 1.124-1.773 2.705-2.738a13.82 13.82 0 0 1-5.69.45c-.631-.137-.967-.42-.989-.866-.076-1.31 4.348-3.653 8.42-5.523-3.337.67-7.403 1.107-9.163-.188a1.087 1.087 0 0 1-.465-.51 1.173 1.173 0 0 1-.077-.706c.323-1.343 3.894-2.617 7.294-3.533-3.463.119-7.132-.077-7.595-1.39a.788.788 0 0 1-.04-.364.817.817 0 0 1 .127-.348c1.04-1.642 11.383-2.647 15.994-3.007-1.703-.863-4.14-2.474-4.227-4.594a1.195 1.195 0 0 1 .388-.972c.947-.877 3.474-.484 7.321.111 4.063.624 9.083 1.398 13.935.921 9.897-1.003 78.026-28.549 78.707-28.824a.416.416 0 0 1 .323.005.416.416 0 0 1 .203.566.445.445 0 0 1-.236.23c-2.814 1.136-68.926 27.87-78.941 28.88-4.922.496-10.058-.297-14.187-.927-3.08-.48-5.986-.925-6.62-.341a.317.317 0 0 0-.093.278c.087 2.19 3.842 4.028 5.292 4.555a.4.4 0 0 1 .27.168.433.433 0 0 1 .07.32.454.454 0 0 1-.173.285.42.42 0 0 1-.314.082c-7.811.53-16.562 1.728-17.073 2.75.376.99 6.669.98 12.288.358a.418.418 0 0 1 .317.083.418.418 0 0 1 .159.292.46.46 0 0 1-.381.503c-5.595 1.11-11.79 3.009-12.061 4.14-.014.111.138.247.237.326 2.362 1.742 10.558-.281 13.514-1.213a.412.412 0 0 1 .513.274.447.447 0 0 1-.259.54c-5.96 2.46-12.472 5.719-12.696 6.732.113.045.23.082.348.111 3.1.655 8.58-1.38 10.888-2.31l1.048-.45a.405.405 0 0 1 .535.233.424.424 0 0 1-.002.325.444.444 0 0 1-.226.235c-.067-.006-.482.225-1.12.487-4.149 1.82-7.542 3.85-7.497 4.514 0 0 .13.177.705.292l.208.02c2.495.233 20.235-3.775 43.312-10.309 12.614-3.566 43.6-12.672 58.992-20.203a.425.425 0 0 1 .336-.044.402.402 0 0 1 .25.223.44.44 0 0 1-.095.495.435.435 0 0 1-.147.098c-24.287 11.844-96.219 31.167-102.797 30.551z"/></g><g><path fill="#1dc9b7" d="M195.143 109.495s-6.957-24.803-6.005-25.04c.952-.238 21.326-11.213 22.78-10.108 1.453 1.106 5.032 20.119 2.522 25.358-2.51 5.24-19.297 9.79-19.297 9.79z"/></g><g><path fill="#231f20" d="M197.843 109.887a.414.414 0 0 1-.24-.107.431.431 0 0 1-.13-.232.467.467 0 0 1 .342-.532c.148-.038 14.578-3.565 20.925-10.277a.447.447 0 0 1 .305-.136.409.409 0 0 1 .301.123.411.411 0 0 1 .13.308.451.451 0 0 1-.13.317c-6.53 6.903-20.762 10.388-21.36 10.532a.41.41 0 0 1-.143.004z"/></g><g><path fill="#231f20" d="M214.095 59.635a.405.405 0 0 1-.26-.137.43.43 0 0 1-.104-.281.46.46 0 0 1 .102-.29.443.443 0 0 1 .259-.157 11.132 11.132 0 0 0 4.463-2.035 11.646 11.646 0 0 0 3.232-3.79 18.222 18.222 0 0 0 2.04-9.846c-.073-3.253-1.06-6.382-2.842-9.013a9.87 9.87 0 0 0-3.436-3.043 9.835 9.835 0 0 0-4.438-1.15l-.615.03a8.944 8.944 0 0 1-1.384 0 8.421 8.421 0 0 1-1.628-.402l-.347-.11a17.293 17.293 0 0 0-8.846-.331 18.372 18.372 0 0 0-8.056 4.095 19.207 19.207 0 0 0-5.273 7.509 19.001 19.001 0 0 0-1.184 9.064c.095.873.41 2.277 1.414 2.5a.399.399 0 0 1 .269.188.422.422 0 0 1 .045.334.46.46 0 0 1-.194.28.433.433 0 0 1-.326.06c-1.118-.25-1.85-1.39-2.063-3.226a19.925 19.925 0 0 1 1.228-9.52 20.144 20.144 0 0 1 5.53-7.891 19.268 19.268 0 0 1 8.459-4.303c3.103-.691 6.3-.57 9.29.351l.364.112c.484.177.985.302 1.497.373.413.027.827.026 1.242-.005.215.02.43-.029.648-.026 1.69.018 3.338.437 4.817 1.224 1.48.787 2.75 1.922 3.71 3.315 1.896 2.763 2.95 6.06 3.036 9.49a19.102 19.102 0 0 1-2.176 10.342 12.542 12.542 0 0 1-3.491 4.089 11.987 11.987 0 0 1-4.821 2.189z"/></g><g><path fill="#231f20" d="M211.375 29.83s4.681-2.878 11.425-.48c6.744 2.399 7.776 15.72.425 22.127 0 0 3.343-19.018-11.85-21.648z"/></g><g><path fill="#231f20" d="M231.55 73.087l-.04-.003a15.496 15.496 0 0 1-8.523-4.347 10.698 10.698 0 0 1-2.556-4.238 11.395 11.395 0 0 1-.433-5.038.447.447 0 0 1 .17-.294.418.418 0 0 1 .594.09.425.425 0 0 1 .068.325 10.492 10.492 0 0 0 .402 4.63 9.852 9.852 0 0 0 2.35 3.898 14.085 14.085 0 0 0 6.465 3.734 5.276 5.276 0 0 1-.907-2.973c.06-1.612.493-3.2 1.26-4.63a48.442 48.442 0 0 1 4.449-6.92c2.46-3.4 4.78-6.607 5.68-10.504.523-2.25.51-4.58-.04-6.784a13.61 13.61 0 0 0-3.108-5.865 12.93 12.93 0 0 0-5.453-3.58 13.056 13.056 0 0 0-6.529-.46.414.414 0 0 1-.314-.072.432.432 0 0 1-.09-.606.446.446 0 0 1 .278-.179c2.337-.428 4.72-.26 6.94.488a13.742 13.742 0 0 1 5.798 3.806 14.464 14.464 0 0 1 3.303 6.236c.582 2.345.595 4.821.038 7.213-.945 4.072-3.433 7.502-5.835 10.83a48.133 48.133 0 0 0-4.314 6.762 9.424 9.424 0 0 0-1.17 4.221c-.02.693.134 1.373.446 1.974a3.76 3.76 0 0 0 1.336 1.457c.085.047.15.124.185.217a.462.462 0 0 1-.165.535.426.426 0 0 1-.277.078z"/></g><g><path fill="#231f20" d="M191.362 88.392a.415.415 0 0 1-.299-.092.432.432 0 0 1-.153-.277.467.467 0 0 1 .332-.51l18.395-9.267a.419.419 0 0 1 .572.2.439.439 0 0 1 .012.34.46.46 0 0 1-.228.256L191.6 88.31a.449.449 0 0 1-.237.082z"/></g><g/><g><path fill="#d1d3d4" d="M.213 99.626a.365.365 0 0 1-.26-.151.454.454 0 0 1 .069-.598.377.377 0 0 1 .288-.097l26.183 1.024a.338.338 0 0 1 .277.13.4.4 0 0 1 .075.146c.015.055.02.112.012.17a.457.457 0 0 1-.132.29.383.383 0 0 1-.279.115L.263 99.63z"/></g><g/><g><path fill="#d1d3d4" d="M54.135 186.078a.353.353 0 0 1-.198-.078.387.387 0 0 1-.133-.262.42.42 0 0 1 .085-.291l14.902-18.863a.406.406 0 0 1 .261-.166.367.367 0 0 1 .385.2.392.392 0 0 1 .015.31.413.413 0 0 1-.082.138L54.51 185.933a.399.399 0 0 1-.169.126.372.372 0 0 1-.205.02z"/></g><g/><g><path fill="#d1d3d4" d="M9.308 148.901a.366.366 0 0 1-.307-.237.39.39 0 0 1 .002-.302.409.409 0 0 1 .212-.217l20.554-9.336a.38.38 0 0 1 .505.204.398.398 0 0 1 .002.304.416.416 0 0 1-.21.223L9.51 148.911a.373.373 0 0 1-.2-.01z"/></g><g/><g><path fill="#d1d3d4" d="M169.205 13.447a.355.355 0 0 1-.285-.195.41.41 0 0 1 0-.36L175.024.528a.397.397 0 0 1 .22-.178.36.36 0 0 1 .453.229.404.404 0 0 1-.009.285l-6.108 12.396a.391.391 0 0 1-.162.151.361.361 0 0 1-.213.035z"/></g><g/><g><path fill="#d1d3d4" d="M232.44 98.183a.358.358 0 0 1-.236-.117.398.398 0 0 1-.1-.256.436.436 0 0 1 .226-.397.382.382 0 0 1 .148-.042l20.687-1.604a.372.372 0 0 1 .277.1.411.411 0 0 1 .103.438.435.435 0 0 1-.202.238.382.382 0 0 1-.148.043l-20.69 1.559z"/></g><g/><g><path fill="#d1d3d4" d="M222.728 181.944a.347.347 0 0 1-.277-.18l-10.535-17.413a.404.404 0 0 1-.04-.297.42.42 0 0 1 .311-.307.363.363 0 0 1 .282.059.36.36 0 0 1 .1.108l10.533 17.421a.384.384 0 0 1 .044.298.415.415 0 0 1-.177.248.399.399 0 0 1-.24.063z"/></g><g/><g><path fill="#d1d3d4" d="M38.535 24.41a.357.357 0 0 1-.237-.118l-8.024-8.804a.4.4 0 0 1-.074-.287.423.423 0 0 1 .142-.267.393.393 0 0 1 .277-.116.359.359 0 0 1 .266.123l8.024 8.804a.369.369 0 0 1 .103.281.403.403 0 0 1-.13.278.382.382 0 0 1-.162.099.359.359 0 0 1-.185.006z"/></g><g><path fill="#fff" d="M189.086 138.862a.39.39 0 0 1-.3-.184.41.41 0 0 1-.051-.316.44.44 0 0 1 .066-.151l10.941-15.998a.424.424 0 0 1 .217-.166.39.39 0 0 1 .265.005c.086.03.157.09.203.168a.41.41 0 0 1 .05.267l-1.812 14.92a.446.446 0 0 1-.156.288.414.414 0 0 1-.304.097.391.391 0 0 1-.273-.151.423.423 0 0 1-.084-.31l1.612-13.271-10.038 14.62a.438.438 0 0 1-.148.132.411.411 0 0 1-.188.05z"/></g></g></g></svg>