<svg xmlns="http://www.w3.org/2000/svg" width="277" height="159" viewBox="0 0 277 159"><g><g clip-path="url(#clip-1:1860)"><g><path fill="#fff" d="M203.056 152.378v6.769H182.46s8.025-3.702 9.532-4.188l-1.007-5.709z"/></g><g><path fill="#231f20" d="M182.461 159.546a.374.374 0 0 1-.245-.086.392.392 0 0 1-.136-.227.391.391 0 0 1 .03-.263.376.376 0 0 1 .19-.18c.305-.148 7.188-3.32 9.253-4.101l-.948-5.37a.4.4 0 0 1 .118-.365.412.412 0 0 1 .356-.095l12.072 3.128c.085.021.16.071.214.142.054.071.083.159.082.249v6.768a.408.408 0 0 1-.114.283.388.388 0 0 1-.276.117zm20.215-.79v-6.083l-11.208-2.902.906 5.109a.4.4 0 0 1-.05.273.383.383 0 0 1-.212.17c-1.058.356-5.41 2.32-7.84 3.432z"/></g><g><path fill="#fff" d="M190.988 159.364H99.3l45.84-35.954z"/></g><g><path fill="#d1d3d4" d="M99.303 159.8a.416.416 0 0 1-.247-.082.445.445 0 0 1-.006-.7l45.839-35.954a.44.44 0 0 1 .516 0l45.84 35.954a.445.445 0 0 1 .144.487.442.442 0 0 1-.154.211.424.424 0 0 1-.244.084zm1.253-.869h89.148l-44.561-34.929z"/></g><g><path fill="#d1d3d4" d="M278.837 159.629H.683a.418.418 0 0 1-.299-.127.44.44 0 0 1 0-.615.418.418 0 0 1 .3-.127h278.153c.112 0 .22.046.299.127a.442.442 0 0 1 0 .615.417.417 0 0 1-.299.127z"/></g><g><path fill="#fff" d="M256.99 146.32l6.442 8.515-3.174 4.388h17.472l-7.238-12.008z"/></g><g><path fill="#231f20" d="M260.255 159.626a.382.382 0 0 1-.202-.06.409.409 0 0 1-.11-.575l2.996-4.135-6.256-8.263a.423.423 0 0 1-.042-.434.437.437 0 0 1 .372-.209l13.494.869a.374.374 0 0 1 .305.182l7.246 12.008a.4.4 0 0 1 0 .4.384.384 0 0 1-.322.217zm.78-.79h16.007l-6.772-11.226-12.444-.87 5.926 7.82a.398.398 0 0 1 0 .479z"/></g><g><path fill="#231f20" d="M207.307 84.635s-20.994 28.17-23.026 34.573c-1.21 3.893 6.35 31.836 6.35 31.836l12.426 1.338s-1.938-24.885-.465-28.968c1.473-4.084 17.49-19.828 17.49-19.828l36.908 45.016 15.237-1.13-41.793-70.222z"/></g><g><path fill="#231f20" d="M190.631 151.488a.417.417 0 0 1-.229-.099.436.436 0 0 1-.135-.213c-.313-1.147-7.619-28.126-6.349-32.088 1.99-6.404 22.23-33.556 23.093-34.755a.415.415 0 0 1 .212-.148l23.144-7.386a.413.413 0 0 1 .272.008.426.426 0 0 1 .21.175l41.794 70.231a.443.443 0 0 1-.146.586.45.45 0 0 1-.201.075l-15.238 1.13a.447.447 0 0 1-.355-.157l-36.613-44.66c-2.277 2.259-15.745 15.709-17.057 19.34-1.422 3.954.474 28.535.49 28.787a.427.427 0 0 1-.126.339.4.4 0 0 1-.339.165zm11.97.409c-.28-3.702-1.786-24.79-.406-28.63 1.498-4.136 16.93-19.35 17.59-19.984a.39.39 0 0 1 .322-.122.414.414 0 0 1 .297.157l36.773 44.843 14.34-1.06-41.26-69.328-22.695 7.246c-1.44 1.92-20.994 28.265-22.857 34.33-.93 3.05 4.148 23.346 6.256 31.296z"/></g><g><path fill="#fff" d="M195.628 52.357c1.414-1.521-3.682-.34-4.156 9.635-.364 7.62-.847 17.595-.847 17.595l-20.232 4.675-2.243 8.689s29.188-4.345 29.629-5.214c6.213-12.051-2.15-35.38-2.15-35.38z"/></g><g><path fill="#231f20" d="M168.154 93.365a.41.41 0 0 1-.288-.13.412.412 0 0 1-.084-.366l2.243-8.689a.427.427 0 0 1 .288-.286l19.944-4.605.847-17.291c.347-7.212 3.132-10.21 4.427-10.53a.57.57 0 0 1 .38-.01c.125.042.232.124.306.235a.694.694 0 0 1-.127.773 94.235 94.235 0 0 1 3.386 13.033c1.76 9.827 1.329 17.378-1.287 22.461-.355.695-10.42 2.528-29.916 5.44zm2.54-8.776l-2.04 7.898c11.14-1.668 27.461-4.301 28.782-5.013 5.968-11.774-2.134-34.756-2.218-34.982-.99.756-3.098 3.346-3.386 9.558l-.847 17.586a.397.397 0 0 1-.091.236.379.379 0 0 1-.214.13z"/></g><g><path fill="#fff" d="M105.131 49.746s4.521 1.686 5.926 1.408c1.405-.278 4.089-2.103 4.233-1.338.144.764-1.846 1.92-1.846 1.92s7.856-.209 7.78 1.173c-.076 1.382-1.939 4.457-3.293 4.605-1.354.148-14.391-1.199-14.391-1.199"/></g><g><path fill="#231f20" d="M117.645 57.97c-2.437 0-13.662-1.164-14.162-1.217a.417.417 0 0 1-.287-.157.44.44 0 0 1-.045-.483.435.435 0 0 1 .252-.212.415.415 0 0 1 .165-.016c3.614.373 13.248 1.329 14.323 1.199 1.075-.13 2.853-2.902 2.92-4.206-.287-.46-3.657-.816-7.347-.712a.408.408 0 0 1-.263-.086.427.427 0 0 1-.152-.236.445.445 0 0 1 .014-.282.431.431 0 0 1 .18-.213 5.757 5.757 0 0 0 1.541-1.199c-.49.17-.967.373-1.43.608-.7.373-1.439.664-2.201.87-1.49.286-5.69-1.252-6.163-1.435a.418.418 0 0 1-.282-.214.443.443 0 0 1 .069-.515.423.423 0 0 1 .328-.129c.06.004.12.021.173.05 1.227.452 4.656 1.6 5.714 1.39a10.886 10.886 0 0 0 2.006-.799c1.261-.6 1.947-.869 2.396-.651a.623.623 0 0 1 .321.46c.094.539-.347 1.095-.846 1.547 2.142 0 5.765.147 6.586 1.025a.817.817 0 0 1 .237.626c-.076 1.416-2.006 4.822-3.674 5.013z"/></g><g><path fill="#fff" d="M180.267 1H110.03v54.183h70.237z"/></g><g><path fill="#d1d3d4" d="M110.003 55.603a.418.418 0 0 1-.299-.127.44.44 0 0 1-.124-.307V.994a.44.44 0 0 1 .124-.307.418.418 0 0 1 .3-.127h70.261c.113 0 .22.046.3.127a.44.44 0 0 1 .124.307V55.17a.44.44 0 0 1-.124.307.418.418 0 0 1-.3.127zm.449-.868h69.416V1.429h-69.416z"/></g><g><path fill="#231f20" d="M65.993 76.129l16.422 43.357.457 31.453h-7.864l-4.664-29.394-16.28-22.59s-9.573 18.08-12.096 22.077c-7.203 11.256-16.318 21.092-26.911 29.038H7.04s25.396-44.834 26.691-56.477c1.295-11.643 7.12-24.763 7.12-24.763z"/></g><g><path fill="#231f20" d="M82.869 151.378h-7.864a.417.417 0 0 1-.273-.104.437.437 0 0 1-.142-.26l-4.648-29.29-15.821-22c-1.693 3.17-9.55 17.95-11.792 21.504-7.245 11.29-16.392 21.165-27.013 29.16a.39.39 0 0 1-.237.078H7.037a.423.423 0 0 1-.373-.226.461.461 0 0 1 0-.434c.254-.443 25.396-44.878 26.64-56.304C34.592 81.92 40.39 68.74 40.45 68.61a.43.43 0 0 1 .206-.217.413.413 0 0 1 .294-.026l25.159 7.35a.42.42 0 0 1 .279.252l16.414 43.366c.004.052.004.104 0 .157l.491 31.453a.449.449 0 0 1-.123.31.426.426 0 0 1-.3.133zm-7.5-.868h7.068l-.448-30.933L65.676 76.49l-24.55-7.186c-.914 2.137-5.773 13.902-6.933 24.329-1.219 10.974-23.127 50.212-26.378 55.999h7.145c10.488-7.92 19.528-17.684 26.7-28.838 2.48-3.945 11.987-21.87 12.08-22.052a.43.43 0 0 1 .342-.226.414.414 0 0 1 .369.174l16.279 22.634a.414.414 0 0 1 .076.191z"/></g><g><path fill="#231f20" d="M14.47 149.47c-.018 1.5.073 2.998.27 4.483.272 1 2.591 3.658 2.591 4.484 0 .825-9.066 1.216-9.769 0-.702-1.217-.372-2.546 0-4.206.295-1.477.476-2.976.542-4.483"/></g><g><path fill="#231f20" d="M11.927 159.629c-2.193 0-4.335-.243-4.766-.982-.77-1.347-.449-2.772-.068-4.422v-.105c.28-1.447.456-2.914.525-4.388a.44.44 0 0 1 .124-.307.418.418 0 0 1 .598 0 .44.44 0 0 1 .124.307 30.801 30.801 0 0 1-.55 4.58v.112c-.347 1.53-.626 2.737 0 3.78 0 0 .203.243 1.465.408 2.59.348 6.636.044 7.483-.33a13.277 13.277 0 0 0-1.228-1.998 9.864 9.864 0 0 1-1.312-2.233 29.418 29.418 0 0 1-.287-4.597.44.44 0 0 1 .123-.307.418.418 0 0 1 .6 0 .44.44 0 0 1 .123.307c-.025 1.453.06 2.906.254 4.345.323.695.72 1.35 1.185 1.955.847 1.277 1.422 2.085 1.422 2.606 0 .522-.626.696-.897.765a23.015 23.015 0 0 1-4.918.504z"/></g><g><path fill="#231f20" d="M82.19 148.56s-.509 4.284.067 5.613c.576 1.33 8.567 4.944 8.347 5.604-.22.66-14.239.296-14.747-.443-.508-.738-.288-1.034-.355-2.798-.068-1.764-.432-6.082-.432-6.082"/></g><g><path fill="#231f20" d="M86.228 160.555c-1.346 0-2.802 0-4.08-.078-6.163-.243-6.467-.686-6.611-.869a2.66 2.66 0 0 1-.424-1.824v-1.208c-.076-1.738-.431-5.995-.431-6.082a.447.447 0 0 1 .097-.319.418.418 0 0 1 .599-.055.44.44 0 0 1 .15.296c0 .043.356 4.344.432 6.082v1.251c0 .686 0 .869.237 1.269 1.058.512 11.157.868 13.68.53-.627-.444-1.888-1.156-2.954-1.738-2.896-1.634-4.682-2.685-5.02-3.476-.61-1.399-.161-5.387-.11-5.839a.446.446 0 0 1 .16-.292.422.422 0 0 1 .472-.037.43.43 0 0 1 .201.263c.015.056.02.114.013.17-.135 1.156-.398 4.345 0 5.379.246.574 2.904 2.077 4.656 3.067 3.276 1.842 3.902 2.26 3.7 2.859-.102.339-.483.417-.89.478a31.677 31.677 0 0 1-3.877.173z"/></g><g><path fill="#fff" d="M14.415 150.676H8.31a.43.43 0 0 1-.386-.073.45.45 0 0 1-.175-.361.462.462 0 0 1 .175-.36.435.435 0 0 1 .386-.075h6.104a.43.43 0 0 1 .386.074.45.45 0 0 1 .175.36.462.462 0 0 1-.175.362.435.435 0 0 1-.386.073z"/></g><g><path fill="#1dc9b7" d="M57.206 31.428c-1.879-.782-3.885-1.738-5.663-1.738-5.121 0-7.305 6.16-8.372 10.305-2.802 10.896-3.852 22.452-5.621 33.608 0 0 22.078 9.801 29.535 4.683l6.358-25.084 34.496 5.213s.754-7.168 1.16-9.827c0 0-44.807-14.901-49.819-16.378a28.112 28.112 0 0 1-2.073-.782z"/></g><g><path fill="#fff" d="M64.72 38.66l-2.37 2.276 1.236 1.182-5.706 22.408 4.825 5.987 3.403-4.892-1.261-23.433 1.44-.982z"/></g><g><path fill="#fff" d="M61.455 31.193c-5.62.869-7.288-9.071-7.382-13.337a7.639 7.639 0 0 1 .347-2.772 6.327 6.327 0 0 1 1.55-2.165 6.13 6.13 0 0 1 2.285-1.31 37.701 37.701 0 0 1 5.08-1.182A22.886 22.886 0 0 0 73.737 5.04c1-.87 2.15-1.973 3.463-1.738.425.11.82.316 1.156.605.336.29.603.653.782 1.063a6.22 6.22 0 0 1-.355 5.935c-1.11 1.86-2.828 2.806-4.58 3.849.846 1.399 1.244 1.738.846 3.345a12.964 12.964 0 0 1-2.006 4.066 31.174 31.174 0 0 1-3.174 3.545c-2.345 2.45-4.673 4.727-8.144 5.422-.088.028-.179.049-.27.061z"/></g><g><path fill="#231f20" d="M60.753 31.685a4.42 4.42 0 0 1-2.946-1.138c-3.14-2.702-4.097-9.48-4.165-12.686a8.209 8.209 0 0 1 .373-2.937 6.82 6.82 0 0 1 1.66-2.29 6.609 6.609 0 0 1 2.429-1.394 20.824 20.824 0 0 1 3.572-.868c.533-.105 1.067-.2 1.6-.313a22.643 22.643 0 0 0 10.21-5.292c1.066-.964 2.336-2.102 3.817-1.824.477.117.923.342 1.304.66.38.317.687.718.897 1.173a6.691 6.691 0 0 1-.364 6.369 11.289 11.289 0 0 1-4.36 3.78c.028.034.05.072.068.112.359.434.604.955.712 1.512a3.43 3.43 0 0 1-.094 1.677 14.044 14.044 0 0 1-2.074 4.214 23.433 23.433 0 0 1-2.54 2.841l-.72.748c-2.539 2.606-4.858 4.84-8.363 5.552l-.296.052c-.239.032-.479.05-.72.052zM76.846 3.76c-.974 0-1.913.87-2.743 1.6a23.484 23.484 0 0 1-10.65 5.534c-.541.121-1.083.226-1.633.321-1.15.191-2.283.482-3.386.87a5.697 5.697 0 0 0-2.125 1.193 5.88 5.88 0 0 0-1.456 1.986 7.123 7.123 0 0 0-.322 2.607c.076 3.571 1.169 9.714 3.86 12.034.41.369.895.638 1.42.789.524.15 1.075.177 1.611.08l.262-.052c3.268-.652 5.52-2.79 7.924-5.3l.737-.756a22.621 22.621 0 0 0 2.404-2.737A13.173 13.173 0 0 0 74.645 18c.288-1.199.085-1.529-.508-2.52l-.305-.495a.436.436 0 0 1 0-.339.387.387 0 0 1 .195-.26l.28-.165c1.625-.965 3.157-1.868 4.147-3.537a5.795 5.795 0 0 0 .347-5.5 2.523 2.523 0 0 0-.65-.885 2.442 2.442 0 0 0-.958-.514 1.808 1.808 0 0 0-.347-.026z"/></g><g><path fill="#fff" d="M74.257 22.9s2.074 4.249 1.456 5.005c-.618.756-2.303 0-2.303 0"/></g><g><path fill="#231f20" d="M74.837 28.675a4.449 4.449 0 0 1-1.592-.374.43.43 0 0 1-.225-.24.446.446 0 0 1 .005-.333.43.43 0 0 1 .234-.232.415.415 0 0 1 .325.006c.559.252 1.524.46 1.812.121.287-.338-.517-2.485-1.516-4.526a.454.454 0 0 1-.02-.33.44.44 0 0 1 .206-.252.415.415 0 0 1 .568.2c.846 1.676 2.099 4.63 1.405 5.473-.154.167-.34.297-.548.38-.208.085-.431.121-.654.107z"/></g><g><path fill="#fff" d="M74.477 14.14c1.456 1.556.499 7.82.27 9.706a181.173 181.173 0 0 1-1.15 7.82c-.289 1.65-4.47 1.173-5.156.582l-.11 6.63s-2.074.321-5.257-1.738c-3.183-2.06-3.124-2.841-3.124-2.841l1.16-7.525s2.768.365 4.791-2.815c2.023-3.18 2.54-8.376 2.54-8.376s4.622-2.954 6.036-1.442z"/></g><g><path fill="#231f20" d="M67.993 39.317a9.858 9.858 0 0 1-5.13-1.737c-3.081-1.947-3.386-2.92-3.327-3.25l1.168-7.56a.437.437 0 0 1 .165-.281.416.416 0 0 1 .31-.083c.093 0 2.54.27 4.376-2.607 1.956-3.05 2.54-8.141 2.54-8.193a.468.468 0 0 1 .194-.322c.5-.321 4.927-3.12 6.536-1.399 1.312 1.4.965 5.622.448 9.558l-.067.495a177.658 177.658 0 0 1-1.152 7.82c-.069.29-.214.556-.42.767-.206.212-.465.361-.748.432a7.2 7.2 0 0 1-4.004-.06l-.102 5.977a.441.441 0 0 1-.101.28.42.42 0 0 1-.254.146s-.178.017-.432.017zm-7.619-5.005c.06.157.483.939 2.912 2.486a9.324 9.324 0 0 0 4.622 1.65l.102-6.22a.442.442 0 0 1 .254-.383.406.406 0 0 1 .449.06 5.98 5.98 0 0 0 3.843.235c.364-.139.576-.33.61-.556.44-2.606.846-5.213 1.15-7.82l.068-.504c.246-1.876.982-7.568-.22-8.845-.846-.869-3.614.365-5.299 1.425-.127 1.025-.762 5.457-2.616 8.35a6.013 6.013 0 0 1-2.02 2.13 5.82 5.82 0 0 1-2.763.894z"/></g><g><path fill="#fff" d="M73.725 29.702a2.958 2.958 0 0 1-2.016-.583 3.099 3.099 0 0 1-1.159-1.789"/></g><g><path fill="#231f20" d="M73.497 30.167a3.433 3.433 0 0 1-2.103-.77 3.59 3.59 0 0 1-1.215-1.923.464.464 0 0 1 .034-.345.445.445 0 0 1 .262-.22.432.432 0 0 1 .336.035c.104.057.18.154.214.27.134.62.48 1.172.975 1.554.495.382 1.107.57 1.726.53a.413.413 0 0 1 .315.09.432.432 0 0 1 .159.293.452.452 0 0 1-.087.318.43.43 0 0 1-.277.168z"/></g><g><path fill="#fff" d="M69.174 23.979a3.652 3.652 0 0 0-.5-1.886 5.063 5.063 0 0 0-.786-1.303 1.697 1.697 0 0 0-.595-.451 1.656 1.656 0 0 0-.726-.148 1.54 1.54 0 0 0-.617.223c-.189.118-.35.276-.475.463-.249.378-.41.809-.474 1.26a5.805 5.805 0 0 0 .288 2.914 5.662 5.662 0 0 0 1.667 2.377l-.118-.173"/></g><g><path fill="#231f20" d="M66.951 27.86a.425.425 0 0 1-.262-.096 6.124 6.124 0 0 1-1.787-2.568 6.277 6.277 0 0 1-.304-3.14 3.468 3.468 0 0 1 .541-1.434c.16-.24.369-.44.611-.59.243-.15.514-.245.795-.279.318-.018.636.04.93.167.293.128.554.324.763.572.349.423.634.898.846 1.407.373.64.56 1.375.542 2.12a.44.44 0 0 1-.157.294.418.418 0 0 1-.598-.068.445.445 0 0 1-.092-.321 3.215 3.215 0 0 0-.465-1.642 5.048 5.048 0 0 0-.711-1.2 1.307 1.307 0 0 0-.443-.339c-.169-.08-.353-.12-.54-.12-.158.024-.31.082-.446.17a1.166 1.166 0 0 0-.34.342c-.21.324-.346.692-.398 1.077a5.344 5.344 0 0 0 .2 2.5c.264.804.716 1.53 1.315 2.114.096.028.18.09.237.174l.127.165a.443.443 0 0 1-.05.573.434.434 0 0 1-.314.122z"/></g><g><path fill="#231f20" d="M68.451 32.237a6.88 6.88 0 0 1-2.912-2.607s-.322 3.997 2.861 5.56z"/></g><g><path fill="#231f20" d="M68.396 35.618a.446.446 0 0 1-.178 0c-3.386-1.668-3.124-5.813-3.107-5.986a.44.44 0 0 1 .106-.254.42.42 0 0 1 .233-.137.397.397 0 0 1 .267.03c.083.041.15.11.19.195a6.478 6.478 0 0 0 2.743 2.364.427.427 0 0 1 .182.166.443.443 0 0 1 .063.242l-.05 2.954a.443.443 0 0 1-.195.365.497.497 0 0 1-.254.061zm-2.37-4.588c.082.678.3 1.332.637 1.92.338.589.789 1.1 1.326 1.504v-1.946a8.634 8.634 0 0 1-1.964-1.478z"/></g><g><path fill="#231f20" d="M73.103 20.7c.141-.498.1-.948-.094-1.006-.192-.057-.463.3-.605.797-.141.497-.1.947.094 1.005.192.058.463-.299.605-.796z"/></g><g/><g><path fill="#231f20" d="M73.87 20.705a.416.416 0 0 1-.22-.07l-1.694-1.06a.444.444 0 0 1 .126-.793.404.404 0 0 1 .323.055l1.693 1.06a.427.427 0 0 1 .194.27.445.445 0 0 1-.05.33.445.445 0 0 1-.373.208z"/></g><g><path fill="#231f20" d="M72.824 56.575a.322.322 0 0 1-.127 0 .435.435 0 0 1-.248-.216.454.454 0 0 1-.031-.332c0-.06 1.98-6.482 2.54-8.914a.446.446 0 0 1 .195-.277.426.426 0 0 1 .599.147c.06.101.079.223.052.338-.584 2.459-2.489 8.689-2.54 8.967a.433.433 0 0 1-.172.221.415.415 0 0 1-.268.066z"/></g><g><path fill="#fff" d="M37.595 84.776a.425.425 0 0 1-.288-.111.46.46 0 0 1-.057-.61.438.438 0 0 1 .286-.174 7.308 7.308 0 0 0 3.76-1.796 7.612 7.612 0 0 0 2.225-3.591.459.459 0 0 1 .197-.303.433.433 0 0 1 .628.173.461.461 0 0 1 .021.364 8.538 8.538 0 0 1-2.487 4.052 8.197 8.197 0 0 1-4.226 2.03z"/></g><g><path fill="#fff" d="M101.2 29.65s2.734-1.304 4.563-2.451a28.403 28.403 0 0 0 4.427-4.049v1.251c0 .417-.186 1.651.042 1.999.229.347 2.286-.357 2.853-.487a63.07 63.07 0 0 1 3.336-.686c.42-.091.85-.118 1.278-.079.213.021.42.092.603.206.183.115.339.27.455.455a2.143 2.143 0 0 1-.102 1.738 6.274 6.274 0 0 1-1.252 2.154 7.873 7.873 0 0 1-2.43 1.52l-3.09 1.435a90.832 90.832 0 0 1-8.753 3.24"/></g><g><path fill="#231f20" d="M103.15 36.331a.419.419 0 0 1-.314-.09.446.446 0 0 1-.072-.614.424.424 0 0 1 .284-.165c2.15-.539 7.932-2.867 8.685-3.215l3.082-1.442a7.358 7.358 0 0 0 2.302-1.434 5.935 5.935 0 0 0 1.169-2.007 1.664 1.664 0 0 0 .118-1.364 1.035 1.035 0 0 0-.323-.31 1.006 1.006 0 0 0-.422-.142 3.557 3.557 0 0 0-1.143.087 53.517 53.517 0 0 0-3.318.678c-.118 0-.313.087-.542.165-1.422.452-2.379.704-2.76.139a3.117 3.117 0 0 1-.135-1.738c.01-.156.01-.313 0-.469v-.191a23.597 23.597 0 0 1-3.775 3.336c-1.829 1.147-4.495 2.416-4.606 2.468a.406.406 0 0 1-.462-.071.426.426 0 0 1-.096-.138.444.444 0 0 1 .203-.582s2.734-1.303 4.52-2.415a27.562 27.562 0 0 0 4.335-3.98.412.412 0 0 1 .465-.104c.08.03.148.085.197.156a.434.434 0 0 1 .074.244v1.242c.01.185.01.371 0 .556a5.904 5.904 0 0 0 0 1.156 7.147 7.147 0 0 0 1.82-.434l.61-.183a66.876 66.876 0 0 1 3.386-.686 4.3 4.3 0 0 1 1.405-.087c.277.029.543.122.78.273.235.15.435.354.583.596a2.478 2.478 0 0 1-.068 2.111 6.916 6.916 0 0 1-1.388 2.329 8.12 8.12 0 0 1-2.54 1.607l-3.081 1.442a91.762 91.762 0 0 1-8.83 3.267z"/></g><g><path fill="#1dc9b7" d="M49.237 32.122c.897.252 46.559-2.416 54.296-4.692l3.124 8.472s-22.01 8.688-57.42 12.668c-11.31-2.442 0-16.448 0-16.448z"/></g><g><path fill="#231f20" d="M49.239 49.006a.408.408 0 0 1-.275-.102.429.429 0 0 1-.14-.263.452.452 0 0 1 .08-.321.43.43 0 0 1 .275-.174c.381-.06 38.23-6.134 55.457-12.164a.422.422 0 0 1 .326.025.44.44 0 0 1 .09.719.412.412 0 0 1-.145.081c-17.295 6.013-55.22 12.095-55.6 12.164z"/></g><g><path fill="#fff" d="M145.143 123.412c18.36 0 33.244-15.277 33.244-34.121 0-18.845-14.884-34.121-33.244-34.121S111.9 70.446 111.9 89.29c0 18.845 14.883 34.122 33.243 34.122z"/></g><g><path fill="#d1d3d4" d="M145.137 123.85c-6.659 0-13.168-2.026-18.705-5.823-5.536-3.797-9.851-9.194-12.4-15.508a35.403 35.403 0 0 1-1.915-19.965c1.299-6.703 4.505-12.86 9.214-17.693 4.708-4.833 10.707-8.124 17.238-9.457a32.863 32.863 0 0 1 19.451 1.966c6.152 2.616 11.41 7.045 15.11 12.727 3.699 5.683 5.673 12.364 5.673 19.198-.009 9.162-3.559 17.946-9.87 24.424-6.312 6.479-14.87 10.123-23.796 10.132zm0-68.241c-6.492 0-12.837 1.976-18.234 5.677-5.398 3.702-9.604 8.963-12.088 15.118a34.513 34.513 0 0 0-1.868 19.463c1.267 6.535 4.392 12.537 8.982 17.248 4.59 4.711 10.438 7.92 16.805 9.22a32.037 32.037 0 0 0 18.962-1.917c5.997-2.55 11.123-6.868 14.73-12.407a34.323 34.323 0 0 0 5.53-18.716c-.01-8.93-3.472-17.492-9.624-23.807-6.153-6.315-14.494-9.868-23.195-9.88z"/></g><g><path fill="#fff" d="M118.403 53.308a3.399 3.399 0 0 1 1.516.568c.455.31.831.726 1.1 1.214.247.498.312 1.071.184 1.615a2.34 2.34 0 0 1-.887 1.347 3.31 3.31 0 0 1-1.973.33c-1.439-.104-5.443-.73-5.257-2.867.187-1.998 3.92-2.415 5.317-2.207z"/></g><g><path fill="#231f20" d="M118.317 58.836c-.39 0-3.885-.313-5.164-1.86a1.986 1.986 0 0 1-.474-1.486c.03-.297.122-.584.267-.843a2.11 2.11 0 0 1 .58-.66c1.346-1.086 3.877-1.242 4.935-1.086a3.79 3.79 0 0 1 1.707.642c.511.35.933.822 1.23 1.374.295.595.372 1.278.216 1.926a2.784 2.784 0 0 1-1.062 1.602 3.1 3.1 0 0 1-1.702.39zm-.669-5.135a6.388 6.388 0 0 0-3.589.947c-.142.1-.264.229-.357.378-.093.15-.156.316-.185.49a1.13 1.13 0 0 0 .28.87c.846 1.042 3.386 1.468 4.58 1.555a2.911 2.911 0 0 0 1.692-.26c.352-.272.6-.663.698-1.103.1-.44.044-.902-.156-1.305a3.07 3.07 0 0 0-.967-1.05 2.973 2.973 0 0 0-1.327-.487 4.176 4.176 0 0 0-.669-.044z"/></g><g><path fill="#fff" d="M192.443 32.325a8.361 8.361 0 0 1 2.717-3.85c1.1-.764 1.998-.573 3.217-.607.474 0 .847.59 1.304.53.457-.061 1.16-.87 1.625-1.156a9.053 9.053 0 0 1 8.211-.391c1.727.966 3.3 2.196 4.665 3.65 6.34 5.96 14.196 11.208 22.797 10.852-4.182 7.906-10.615 14.77-18.7 18.246a28.657 28.657 0 0 1-12.452 2.268c-3.386-.157-9.625-.808-11.708-3.954-1.955-2.971-2.793-8.567-3.234-12.06a26.614 26.614 0 0 1 1.558-13.528z"/></g><g><path fill="#231f20" d="M207.077 62.31h-1.27c-4.376-.199-10.014-1.077-12.038-4.152-1.947-2.946-2.819-8.394-3.31-12.243a27.166 27.166 0 0 1 1.592-13.702 8.984 8.984 0 0 1 2.87-4.04 4.305 4.305 0 0 1 2.785-.687h.652c.31.02.605.138.846.339.153.113.305.209.39.191.29-.127.552-.313.77-.547.216-.216.458-.403.72-.556a9.352 9.352 0 0 1 8.575-.4c1.63.89 3.118 2.033 4.41 3.389l.356.33c8 7.524 15.339 11.043 22.5 10.748a.38.38 0 0 1 .215.044c.066.035.121.09.158.156a.444.444 0 0 1 0 .434c-4.495 8.532-11.2 15.075-18.818 18.342a29.21 29.21 0 0 1-11.403 2.355zM192.83 32.5a26.25 26.25 0 0 0-1.532 13.25c.474 3.762 1.32 9.08 3.166 11.878 1.43 2.154 5.468 3.475 11.377 3.762 4.201.181 8.39-.58 12.275-2.233 7.271-3.102 13.688-9.254 18.132-17.378h-.11c-7.11 0-14.39-3.597-22.246-10.982l-.356-.34a17.618 17.618 0 0 0-4.233-3.24 8.54 8.54 0 0 0-7.839.39 3.115 3.115 0 0 0-.55.435 2.53 2.53 0 0 1-1.21.756 1.374 1.374 0 0 1-.974-.33c-.144-.104-.288-.243-.38-.2h-.678a3.482 3.482 0 0 0-2.32.53 7.715 7.715 0 0 0-2.54 3.667z"/></g><g><path fill="#1dc9b7" d="M224.521 49.284c-6.696-6.134-27.317-3.997-31.779 4.883-4.46 8.88 11.615 35.624 11.615 35.624l31.008-6.204s-4.14-28.177-10.844-34.303z"/></g><g><path fill="#231f20" d="M201.41 57.263c1.33 7.759 10.353 31.053 10.353 31.053l8.322-1.66-9.312-33.469s-2.201-.712-9.363 4.076z"/></g><g><path fill="#fff" d="M200.873 51.397l.846 6.082s1.169 2.676 5.012 1.138c3.843-1.538 4.055-4.423 4.055-4.423l-1.99-11.295s-6.679-2.529-6.67-9.219a8.438 8.438 0 0 1-3.022 4.028 8.1 8.1 0 0 1-4.724 1.524c.35 3.017.88 6.009 1.591 8.958.906 3.085 4.902 3.206 4.902 3.206z"/></g><g><path fill="#231f20" d="M204.555 59.546a3.425 3.425 0 0 1-1.864-.464 3.546 3.546 0 0 1-1.344-1.404.659.659 0 0 1 0-.122l-.847-5.752c-1.058-.113-4.122-.677-4.935-3.475a73.145 73.145 0 0 1-1.6-9.037.41.41 0 0 1 .102-.338.408.408 0 0 1 .313-.148 7.598 7.598 0 0 0 4.476-1.411 7.917 7.917 0 0 0 2.863-3.802c.028-.1.091-.186.177-.24a.398.398 0 0 1 .289-.056.42.42 0 0 1 .259.144.441.441 0 0 1 .105.282c0 6.3 6.332 8.793 6.391 8.81a.433.433 0 0 1 .271.33l1.998 11.296a.423.423 0 0 1 0 .104c0 .13-.28 3.18-4.326 4.805a6.414 6.414 0 0 1-2.328.478zm-2.412-2.18c.169.33 1.278 2.128 4.444.868 3.166-1.26 3.733-3.623 3.784-4.006l-1.939-11.034c-1.092-.487-5.756-2.85-6.594-7.925a8.588 8.588 0 0 1-2.94 3.09 8.31 8.31 0 0 1-4.027 1.255 70.27 70.27 0 0 0 1.515 8.42c.796 2.762 4.47 2.901 4.504 2.901.1.003.195.043.27.111a.438.438 0 0 1 .136.263z"/></g><g><path fill="#fff" d="M206.89 42.832c.364-3.476 5.706-3.476 4.63.547-.109.432-.3.837-.562 1.193-.263.356-.59.655-.966.88a3.22 3.22 0 0 1-2.51.351"/></g><g><path fill="#231f20" d="M208.322 46.399c-.327 0-.652-.046-.965-.14a.434.434 0 0 1-.25-.21.454.454 0 0 1 .036-.48.418.418 0 0 1 .286-.16.405.405 0 0 1 .165.017 2.609 2.609 0 0 0 2.048-.252 3.16 3.16 0 0 0 1.448-1.903 1.775 1.775 0 0 0-.244-2.147 1.658 1.658 0 0 0-2.093-.242c-.406.153-.76.423-1.022.777a2.357 2.357 0 0 0-.45 1.22.443.443 0 0 1-.154.296.42.42 0 0 1-.312.096.42.42 0 0 1-.282-.16.443.443 0 0 1-.09-.318c.05-.602.265-1.176.62-1.657.355-.482.835-.85 1.386-1.063.47-.202.985-.269 1.49-.192a2.76 2.76 0 0 1 1.371.627c.374.383.63.871.735 1.403a2.831 2.831 0 0 1-.142 1.586c-.137.51-.37.988-.687 1.405-.316.418-.71.767-1.159 1.028-.53.307-1.127.469-1.735.469z"/></g><g><path fill="#fff" d="M199.651 41.88s-1.786 3.415-1.236 3.919 1.913 0 1.913 0"/></g><g><path fill="#231f20" d="M199.165 46.462a1.473 1.473 0 0 1-1.033-.34c-.534-.486-.144-1.98 1.143-4.448a.414.414 0 0 1 .558-.153.432.432 0 0 1 .2.243.445.445 0 0 1-.013.318c-.788 1.512-1.38 3.12-1.279 3.476.187.156.965 0 1.43-.148a.415.415 0 0 1 .326.012.431.431 0 0 1 .22.244.446.446 0 0 1-.01.334.43.43 0 0 1-.239.227c-.42.15-.86.228-1.303.235z"/></g><g><path fill="#231f20" d="M202.224 40.275c.284-.023.489-.375.457-.787-.031-.411-.287-.726-.571-.703-.284.023-.489.375-.457.786.031.412.287.726.57.704z"/></g><g><path fill="#231f20" d="M197.851 41.812c.284-.023.489-.375.457-.787-.031-.411-.287-.726-.571-.703-.284.023-.489.375-.457.786.031.411.287.726.571.704z"/></g><g><path fill="#231f20" d="M200.067 48.938a4.427 4.427 0 0 1-1.126-.14.434.434 0 0 1-.255-.207.453.453 0 0 1-.042-.331.45.45 0 0 1 .204-.259.43.43 0 0 1 .321-.045 3.31 3.31 0 0 0 2.489-.33c.368-.284.672-.646.892-1.061a3.34 3.34 0 0 0 .378-1.346.445.445 0 0 1 .17-.283.423.423 0 0 1 .312-.082.416.416 0 0 1 .278.172.44.44 0 0 1 .078.323 4.154 4.154 0 0 1-.5 1.692c-.285.519-.678.968-1.15 1.314a3.661 3.661 0 0 1-2.05.583z"/></g><g><path fill="#231f20" d="M200.88 51.405s3.081-.522 4.368-1.625c0 0-.601 3.806-3.792 5.283z"/></g><g><path fill="#231f20" d="M201.456 55.495a.425.425 0 0 1-.271-.107.446.446 0 0 1-.144-.258l-.576-3.658a.443.443 0 0 1 .075-.321.422.422 0 0 1 .272-.175s2.98-.52 4.165-1.538a.417.417 0 0 1 .652.152c.036.08.048.17.034.257 0 .165-.677 4.049-4.03 5.613a.43.43 0 0 1-.177.035zm.321-1.087a6.834 6.834 0 0 0 2.777-3.692c-1.02.472-2.092.82-3.192 1.034z"/></g><g><path fill="#fff" d="M216.94 55.315c-5.926 7.09-10.412 15.9-14.501 16.882-4.089.982-24.905 0-24.905 0s-3.462-3.884-4.893-3.997c-1.43-.113.5 2.442 1.507 4.431 0 0-7.543-.868-7.577 2.008-.076 5.543 2.997 4.344 6.832 5.056 3.835.713 34.022 3.754 37.586.817 3.564-2.937 14.433-17.655 14.738-18.064 3.496-4.648-2.844-14.232-8.787-7.133z"/></g><g><path fill="#231f20" d="M201.355 82.158a249.037 249.037 0 0 1-28.02-2.076c-.762-.13-1.49-.191-2.193-.252-2.692-.217-5.028-.409-4.96-5.213.002-.262.06-.52.167-.757.108-.237.265-.447.459-.616 1.422-1.286 5.08-1.2 6.654-1.095l-.5-.869c-.948-1.616-1.464-2.607-1.109-3.154a.8.8 0 0 1 .372-.306.776.776 0 0 1 .475-.033c1.439.104 4.36 3.25 5.079 3.997 1.939.087 20.842.912 24.643 0 2.539-.608 5.375-4.597 8.643-9.219 1.777-2.502 3.606-5.092 5.654-7.533 2.49-2.963 5.427-3.476 7.873-1.468 2.447 2.007 3.59 6.351 1.515 9.105l-.127.174c-2.64 3.554-11.504 15.344-14.67 17.96-1.295 1-5.13 1.355-9.955 1.355zm-29.493-9.253c-1.693 0-3.708.2-4.538.955a1.056 1.056 0 0 0-.372.782c-.051 4.04 1.566 4.18 4.232 4.397.686.052 1.465.122 2.27.26 3.927.696 33.86 3.693 37.247.87 3.098-2.555 11.91-14.285 14.535-17.812l.135-.183c1.803-2.407.753-6.212-1.397-8.002-.999-.87-3.657-2.372-6.772 1.364-2.032 2.424-3.852 4.996-5.621 7.49-3.386 4.744-6.264 8.845-9.092 9.557-4.097.982-24.16.052-25.006 0a.363.363 0 0 1-.271-.13c-1.295-1.451-3.708-3.788-4.64-3.858a.282.282 0 0 0-.135 0c.293.81.68 1.58 1.152 2.294.304.513.61 1.043.846 1.547a.38.38 0 0 1-.153.538.363.363 0 0 1-.202.035 25.124 25.124 0 0 0-2.218-.104z"/></g><g><path fill="#231f20" d="M198.165 61.45a.622.622 0 0 1-.525-.287c-.678-.99.846-5.596 1.515-7.525a.395.395 0 0 1 .198-.221.375.375 0 0 1 .42.066.393.393 0 0 1 .124.273.403.403 0 0 1-.022.152c-.982 2.789-1.846 6.082-1.626 6.742a6.61 6.61 0 0 0 2.743-1.442.388.388 0 0 1 .287-.087.384.384 0 0 1 .263.148.405.405 0 0 1 .039.444.4.4 0 0 1-.098.12c-.246.14-2.04 1.617-3.318 1.617z"/></g><g><path fill="#231f20" d="M212.874 55.567a.385.385 0 0 1-.253-.113.404.404 0 0 1 .193-.678c.55-.087 2.066-.478 2.54-1.25.11-.183-.135-.8-3.056-2.807a6.663 6.663 0 0 1-.914-.678.405.405 0 0 1 .124-.65.372.372 0 0 1 .418.085c.076.07.448.33.778.556 2.091 1.434 3.92 2.815 3.285 3.884-.745 1.243-2.98 1.608-3.073 1.625z"/></g><g><path fill="#fff" d="M80.447 151.906h-4.766a.43.43 0 0 1-.386-.074.45.45 0 0 1-.175-.36.462.462 0 0 1 .175-.36.435.435 0 0 1 .386-.075h4.766a.44.44 0 0 1 .23.163.46.46 0 0 1 0 .544.44.44 0 0 1-.23.162z"/></g><g><path fill="#fff" d="M267.001 143.908a.423.423 0 0 1-.372-.209c-1.397-2.268-34.183-55.565-34.666-56.555a.463.463 0 0 1-.005-.332.448.448 0 0 1 .217-.245.43.43 0 0 1 .322-.028.442.442 0 0 1 .253.205c.45.869 22.857 37.362 34.624 56.477a.45.45 0 0 1-.373.687z"/></g></g></g></svg>