<svg width="70" height="70" viewBox="0 0 70 70" fill="none" xmlns="http://www.w3.org/2000/svg">
<path d="M34.9428 0.00948115C34.9428 0.00948115 55.5381 -0.911042 66.4573 19.7076H33.1903C33.1903 19.7076 26.9122 19.506 21.5493 27.0919C20.0087 30.2759 18.3528 33.5557 20.2111 40.0195C17.5341 35.5024 5.99915 15.4977 5.99915 15.4977C5.99915 15.4977 14.1353 0.824606 34.9425 0.00948115H34.9428Z" fill="#EF3F36"/>
<path d="M65.3878 52.3525C65.3878 52.3525 55.8841 70.5832 32.506 69.6818C35.3946 64.7044 49.1442 40.9881 49.1442 40.9881C49.1442 40.9881 52.4662 35.6752 48.5472 27.2552C46.5539 24.3302 44.5222 21.271 37.975 19.6404C43.242 19.5928 66.3989 19.6404 66.3989 19.6404C66.3989 19.6404 75.074 33.9971 65.3878 52.3525Z" fill="#FCD900"/>
<path d="M4.64089 52.4962C4.64089 52.4962 -6.46095 35.186 6.01765 15.4689C8.89667 20.4462 22.6462 44.1625 22.6462 44.1625C22.6462 44.1625 25.6119 49.6864 34.8842 50.5108C38.4181 50.2521 42.0961 50.0315 46.7951 45.2077C44.2046 49.7727 32.5826 69.72 32.5826 69.72C32.5826 69.72 15.752 70.027 4.64061 52.4962H4.64089Z" fill="#61BC5B"/>
<path d="M32.4969 69.8543L37.1763 50.4057C37.1763 50.4057 42.318 50.0026 46.6317 45.2941C43.9548 49.9838 32.4969 69.8543 32.4969 69.8543Z" fill="#5AB055"/>
<path d="M19.2664 35.1477C19.2664 26.5743 26.2473 19.6213 34.8551 19.6213C43.463 19.6213 50.4438 26.5743 50.4438 35.1477C50.4438 43.7213 43.463 50.674 34.8551 50.674C26.2473 50.6644 19.2664 43.7213 19.2664 35.1477Z" fill="white"/>
<path d="M21.8759 35.1476C21.8759 28.0127 27.6821 22.2202 34.8555 22.2202C42.019 22.2202 47.8348 28.0032 47.8348 35.1476C47.8348 42.2827 42.0289 48.0752 34.8555 48.0752C27.6917 48.0752 21.8759 42.2827 21.8759 35.1476Z" fill="url(#paint0_linear)"/>
<path d="M66.3894 19.6503L47.1224 25.2796C47.1224 25.2796 44.2147 21.0311 37.9658 19.6503C43.3867 19.6214 66.3894 19.6503 66.3894 19.6503Z" fill="#EACA05"/>
<path d="M19.8356 39.3096C17.1297 34.6392 5.99915 15.4976 5.99915 15.4976L20.2688 29.5565C20.2688 29.5565 18.805 32.5582 19.3541 36.8544L19.8354 39.3096H19.8356Z" fill="#DF3A32"/>
<defs>
<linearGradient id="paint0_linear" x1="34.8548" y1="22.4028" x2="34.8548" y2="47.297" gradientUnits="userSpaceOnUse">
<stop stop-color="#86BBE5"/>
<stop offset="1" stop-color="#1072BA"/>
</linearGradient>
</defs>
</svg>
