<svg width="70" height="70" viewBox="0 0 70 70" fill="none" xmlns="http://www.w3.org/2000/svg">
<path d="M45.3811 4.33059C44.3174 1.05617 40.8005 -0.735663 37.5266 0.328556C34.2522 1.39223 32.4604 4.90918 33.5246 8.18305L49.6429 57.775C50.7497 60.834 54.0539 62.5528 57.2258 61.6401C60.5344 60.6877 62.551 57.1737 61.4952 53.9245L45.3811 4.33059Z" fill="#DFA22F"/>
<path d="M20.4052 12.4457C19.341 9.17157 15.8243 7.37974 12.5504 8.44341C9.27576 9.50735 7.48365 13.024 8.54814 16.2984L24.6667 65.8907C25.7733 68.9494 29.0778 70.6685 32.2497 69.7549C35.558 68.8031 37.5746 65.2892 36.5189 62.0393L20.4052 12.4457Z" fill="#3CB187"/>
<path d="M65.6696 45.403C68.944 44.3393 70.7353 40.8229 69.6716 37.5482C68.608 34.2743 65.091 32.4822 61.8172 33.5462L12.2252 49.665C9.16621 50.7714 7.44738 54.0756 8.36012 57.2475C9.3125 60.5558 12.8264 62.5727 16.0757 61.5169L65.6696 45.4032" fill="#CE1E5B"/>
<path d="M22.5609 59.4097L34.4136 55.5587L30.5619 43.7046L18.7084 47.5573L22.5609 59.41" fill="#392538"/>
<path d="M47.5363 51.2944C52.0175 49.8389 56.1825 48.4854 59.3894 47.4433L55.5372 35.587L43.6836 39.4398L47.5363 51.2944Z" fill="#BB242A"/>
<path d="M57.5547 20.4274C60.8288 19.3637 62.6207 15.847 61.557 12.5723C60.4933 9.29841 56.9764 7.50657 53.702 8.57024L4.10969 24.6894C1.05102 25.7952 -0.668081 29.0997 0.245473 32.2716C1.19731 35.5797 4.71125 37.5966 7.96106 36.5408L57.5547 20.4271" fill="#72C5CD"/>
<path d="M14.4436 34.4348C17.6715 33.3859 21.8332 32.0335 26.2982 30.5832C24.8427 26.1015 23.4892 21.9365 22.4471 18.7291L10.5908 22.5824L14.4436 34.4348Z" fill="#248C73"/>
<path d="M39.4188 26.3201L51.2739 22.4679C49.9899 18.5157 48.7058 14.5636 47.4215 10.6116L35.566 14.4649L39.4188 26.3201Z" fill="#62803A"/>
</svg>
