<svg width="70" height="70" viewBox="0 0 70 70" fill="none" xmlns="http://www.w3.org/2000/svg">
<path d="M61.25 0H8.75C3.91751 0 0 3.91751 0 8.75V61.25C0 66.0825 3.91751 70 8.75 70H61.25C66.0825 70 70 66.0825 70 61.25V8.75C70 3.91751 66.0825 0 61.25 0Z" fill="#7B519D"/>
<path fill-rule="evenodd" clip-rule="evenodd" d="M57.6841 47.2307C56.0164 45.8881 54.2343 44.683 52.48 43.452C48.9814 40.9948 45.7813 40.8038 43.1707 44.7571C41.7046 46.9766 39.6523 47.0738 37.5064 46.1001C31.5906 43.4177 27.0224 39.2847 24.3465 33.2718C23.1628 30.6115 23.1784 28.2265 25.9479 26.345C27.4142 25.3499 28.8915 24.1725 28.7733 21.9983C28.6191 19.1633 21.7357 9.68906 19.0175 8.6891C17.8927 8.27525 16.7725 8.30218 15.6282 8.68677C9.25435 10.8303 6.6143 16.0722 9.14265 22.2789C16.6854 40.7964 29.9595 53.6876 48.232 61.5558C49.2738 62.0038 50.4311 62.1829 51.0171 62.3437C55.1772 62.3855 60.0506 58.3775 61.458 54.3998C62.813 50.573 59.9493 49.0541 57.6841 47.2307ZM37.196 10.5876C50.5545 12.6418 56.7152 18.9937 58.4162 32.4482C58.574 33.691 58.1111 35.561 59.8842 35.5955C61.7373 35.6309 61.2907 33.7885 61.3063 32.5445C61.463 19.8728 50.4141 8.12568 37.5823 7.69256C36.6142 7.83187 34.611 7.02496 34.486 9.19482C34.4027 10.6577 36.0893 10.4174 37.196 10.5876Z" fill="white"/>
<path fill-rule="evenodd" clip-rule="evenodd" d="M39.8086 14.2769C38.5237 14.1222 36.8275 13.5168 36.5272 15.2996C36.2137 17.1708 38.1043 16.9808 39.319 17.2527C47.5695 19.0967 50.4423 22.0996 51.8007 30.2835C51.9991 31.4767 51.6049 33.3337 53.6326 33.026C55.1353 32.7971 54.5925 31.2053 54.7182 30.2755C54.7847 22.4182 48.052 15.2668 39.8086 14.2769Z" fill="white"/>
<path fill-rule="evenodd" clip-rule="evenodd" d="M40.5665 20.7016C39.7089 20.7228 38.8671 20.8156 38.5518 21.7322C38.0784 23.1021 39.0744 23.4287 40.0881 23.5916C43.4726 24.1349 45.2537 26.1306 45.5918 29.5056C45.6831 30.4217 46.2645 31.1639 47.1493 31.0595C48.3755 30.9132 48.4864 29.8217 48.4488 28.7853C48.5094 24.9935 44.2237 20.6108 40.5665 20.7016Z" fill="white"/>
</svg>
