<svg width="70" height="57" viewBox="0 0 70 57" fill="none" xmlns="http://www.w3.org/2000/svg">
<path d="M7.80795 48.6868C6.15291 48.6868 5.03923 49.993 5.03923 51.6723C5.03923 53.3517 6.15291 54.6578 7.80795 54.6578C9.463 54.6578 10.5767 53.3517 10.5767 51.6723C10.5612 49.993 9.44754 48.6868 7.80795 48.6868ZM7.43673 46.8364C8.76696 46.8364 9.88063 47.5206 10.4065 48.267V47.023H12.4483V56.3372H10.8706C10.7476 56.3368 10.6298 56.2876 10.5429 56.2002C10.4559 56.1128 10.4069 55.9943 10.4065 55.8707V55.0932C9.88063 55.8396 8.78242 56.5238 7.43673 56.5238C4.90002 56.5238 2.96655 54.3468 2.96655 51.6879C2.96655 49.0289 4.88455 46.8364 7.43673 46.8364ZM14.7684 47.023H16.8102V48.2825C17.367 47.3495 18.4188 46.8364 19.6253 46.8364C21.7753 46.8364 23.1674 48.3603 23.1674 50.7238V56.3372H21.6052C21.4822 56.3368 21.3644 56.2876 21.2775 56.2002C21.1905 56.1128 21.1415 55.9943 21.1411 55.8707V51.0659C21.1411 49.5887 20.3987 48.7023 19.2077 48.7023C17.862 48.7023 16.8102 49.7597 16.8102 51.7501V56.3372H15.2479C15.125 56.3368 15.0072 56.2876 14.9202 56.2002C14.8333 56.1128 14.7843 55.9943 14.7839 55.8707L14.7684 47.023ZM29.602 48.6868C27.947 48.6868 26.8333 49.993 26.8333 51.6723C26.8333 53.3517 27.947 54.6578 29.602 54.6578C31.2571 54.6578 32.3707 53.3517 32.3707 51.6723C32.3707 49.993 31.2571 48.6868 29.602 48.6868ZM29.2308 46.8364C30.561 46.8364 31.6747 47.5206 32.2006 48.267V42.3581H34.2423V56.3372H32.6801C32.5571 56.3368 32.4393 56.2876 32.3524 56.2002C32.2654 56.1128 32.2164 55.9943 32.2161 55.8707V55.0932C31.6901 55.8396 30.5919 56.5238 29.2462 56.5238C26.7095 56.5238 24.7761 54.3468 24.7761 51.6879C24.7761 49.0289 26.6941 46.8364 29.2308 46.8364ZM36.5625 47.023H38.6042V48.6868C38.7835 48.1776 39.1141 47.736 39.5512 47.4217C39.9883 47.1075 40.5108 46.9357 41.0481 46.9297C41.3132 46.9247 41.5779 46.9508 41.837 47.0074V49.1066C41.5078 48.9958 41.1633 48.938 40.8161 48.9356C39.656 48.9356 38.5888 49.9308 38.5888 51.7812V56.3216H37.0265C36.9036 56.3213 36.7857 56.272 36.6988 56.1846C36.6119 56.0972 36.5629 55.9788 36.5625 55.8552V47.023ZM47.328 54.6112C48.9521 54.6112 50.1122 53.3206 50.1122 51.6723C50.1122 50.0085 48.9676 48.7334 47.328 48.7334C45.673 48.7334 44.5284 50.0241 44.5284 51.6723C44.5438 53.3361 45.673 54.6112 47.328 54.6112ZM47.328 56.5238C46.3764 56.5161 45.4483 56.2254 44.6609 55.6881C43.8734 55.1509 43.2618 54.3913 42.9033 53.5051C42.5447 52.6189 42.4552 51.6458 42.6461 50.7085C42.837 49.7713 43.2997 48.9118 43.9759 48.2386C44.652 47.5653 45.5113 47.1085 46.4455 46.9256C47.3796 46.7427 48.3466 46.842 49.2247 47.2109C50.1028 47.5799 50.8525 48.2019 51.3793 48.9987C51.9061 49.7954 52.1864 50.7312 52.1849 51.6879C52.1881 52.3278 52.0643 52.9619 51.8208 53.5531C51.5773 54.1443 51.2189 54.6808 50.7666 55.1311C50.3144 55.5814 49.7773 55.9365 49.1869 56.1757C48.5964 56.4148 47.9645 56.5331 47.328 56.5238ZM53.84 47.023H55.8817V56.3372H54.3195C54.1965 56.3368 54.0787 56.2876 53.9917 56.2002C53.9048 56.1128 53.8558 55.9943 53.8554 55.8707L53.84 47.023ZM54.8608 44.986C54.4968 44.9826 54.1486 44.8356 53.8912 44.5769C53.6338 44.3181 53.4876 43.9681 53.4842 43.6021C53.4915 43.2402 53.6398 42.8957 53.8973 42.6427C54.1548 42.3897 54.5008 42.2484 54.8608 42.2493C55.2218 42.2493 55.568 42.3934 55.8233 42.6501C56.0786 42.9067 56.222 43.2547 56.222 43.6176C56.222 43.9805 56.0786 44.3286 55.8233 44.5852C55.568 44.8418 55.2218 44.986 54.8608 44.986ZM62.3936 48.6868C60.7386 48.6868 59.6249 49.993 59.6249 51.6723C59.6249 53.3517 60.7386 54.6578 62.3936 54.6578C64.0487 54.6578 65.1623 53.3517 65.1623 51.6723C65.1314 49.993 64.0487 48.6868 62.3936 48.6868ZM62.0224 46.8364C63.3526 46.8364 64.4663 47.5206 64.9922 48.267V42.3581H67.0339V56.3372H65.4717C65.3487 56.3368 65.2309 56.2876 65.144 56.2002C65.057 56.1128 65.008 55.9943 65.0077 55.8707V55.0932C64.4818 55.8396 63.3835 56.5238 62.0379 56.5238C59.5011 56.5238 57.5677 54.3468 57.5677 51.6879C57.5677 49.0289 59.4857 46.8364 62.0224 46.8364Z" fill="black"/>
<path d="M50.7 11.1034L56.0364 1.82033C56.1795 1.5649 56.2167 1.2631 56.1401 0.980249C56.0635 0.697402 55.8791 0.456277 55.6269 0.309076C55.3748 0.161875 55.0751 0.120443 54.7927 0.193751C54.5104 0.267059 54.2681 0.449208 54.1184 0.700762L48.7201 10.0927C44.4111 8.14523 39.7402 7.13829 35.0157 7.13829C30.2912 7.13829 25.6204 8.14523 21.3113 10.0927L15.9131 0.700762C15.7633 0.449208 15.5211 0.267059 15.2387 0.193751C14.9564 0.120443 14.6567 0.161875 14.4045 0.309076C14.1523 0.456277 13.968 0.697402 13.8913 0.980249C13.8147 1.2631 13.852 1.5649 13.9951 1.82033L19.3314 11.1034C10.1281 16.1104 3.87915 25.4246 2.96655 36.4181H67.003C66.0904 25.4246 59.826 16.1104 50.7 11.1034ZM20.2595 27.2439C19.7333 27.2439 19.2189 27.087 18.7814 26.7932C18.3439 26.4993 18.0029 26.0816 17.8015 25.5929C17.6002 25.1042 17.5475 24.5664 17.6502 24.0476C17.7528 23.5288 18.0062 23.0522 18.3783 22.6782C18.7503 22.3041 19.2244 22.0494 19.7405 21.9462C20.2565 21.843 20.7915 21.896 21.2776 22.0984C21.7637 22.3009 22.1792 22.6437 22.4716 23.0835C22.7639 23.5233 22.9199 24.0404 22.9199 24.5694C22.9199 25.2787 22.6396 25.959 22.1407 26.4605C21.6418 26.9621 20.9651 27.2439 20.2595 27.2439ZM49.741 27.2439C49.2148 27.2439 48.7004 27.087 48.2629 26.7932C47.8254 26.4993 47.4844 26.0816 47.2831 25.5929C47.0817 25.1042 47.029 24.5664 47.1317 24.0476C47.2343 23.5288 47.4877 23.0522 47.8598 22.6782C48.2318 22.3041 48.7059 22.0494 49.222 21.9462C49.7381 21.843 50.273 21.896 50.7591 22.0984C51.2452 22.3009 51.6608 22.6437 51.9531 23.0835C52.2454 23.5233 52.4015 24.0404 52.4015 24.5694C52.4015 25.2787 52.1212 25.959 51.6222 26.4605C51.1233 26.9621 50.4466 27.2439 49.741 27.2439Z" fill="#3DDC84"/>
</svg>
