<svg width="70" height="70" viewBox="0 0 70 70" fill="none" xmlns="http://www.w3.org/2000/svg">
<path d="M70 35C70 54.3375 54.3375 70 35 70C15.6625 70 0 54.3375 0 35C0 15.6625 15.6625 0 35 0C54.3375 0 70 15.6625 70 35Z" fill="url(#paint0_linear)"/>
<path d="M28.5833 51.0417C27.4458 51.0417 27.65 50.6042 27.2416 49.525L23.9166 38.5584L44.5666 25.6667L46.9875 26.3084L44.975 31.7917L28.5833 51.0417Z" fill="#D2EBFF"/>
<path d="M28.5834 51.0417C29.4584 51.0417 29.8375 50.6333 30.3334 50.1667C31.0917 49.4375 40.8334 39.9583 40.8334 39.9583L34.8542 38.5L29.3125 42L28.5834 50.75V51.0417Z" fill="#B4D3ED"/>
<path d="M29.1667 42.1166L43.2834 52.5291C44.8876 53.4041 46.0542 52.9666 46.4626 51.0416L52.2084 23.975C52.7917 21.6125 51.3042 20.5625 49.7584 21.2625L16.0417 34.2708C13.7376 35.2041 13.7667 36.4875 15.6334 37.0416L24.2959 39.7541L44.3334 27.125C45.2667 26.5416 46.1417 26.8625 45.4417 27.5041L29.1667 42.1166Z" fill="url(#paint1_linear)"/>
<defs>
<linearGradient id="paint0_linear" x1="45.2579" y1="11.0629" x2="27.7579" y2="51.8957" gradientUnits="userSpaceOnUse">
<stop stop-color="#37AEE2"/>
<stop offset="1" stop-color="#1E96C8"/>
</linearGradient>
<linearGradient id="paint1_linear" x1="37.6224" y1="36.0952" x2="44.9141" y2="47.7618" gradientUnits="userSpaceOnUse">
<stop stop-color="#EFF7FC"/>
<stop offset="1" stop-color="white"/>
</linearGradient>
</defs>
</svg>
