<svg width="70" height="70" viewBox="0 0 70 70" fill="none" xmlns="http://www.w3.org/2000/svg">
<path d="M24.8121 1.73254H45.223C63.8666 1.73254 68.2676 6.16819 68.2676 24.8118V45.2226C68.2676 63.8662 63.8319 68.2672 45.1884 68.2672H24.7775C6.1339 68.2672 1.73291 63.8316 1.73291 45.188V24.7771C1.73291 6.16819 6.16855 1.73254 24.8121 1.73254Z" fill="#5181B8"/>
<path d="M0 0H70V70H0V0Z" fill="#5181B8"/>
<path fill-rule="evenodd" clip-rule="evenodd" d="M56.2075 24.6388C56.5193 23.5992 56.2075 22.8715 54.752 22.8715H49.9005C48.653 22.8715 48.0985 23.5299 47.7867 24.2576C47.7867 24.2576 45.3263 30.2873 41.8263 34.1685C40.6827 35.3121 40.1976 35.6586 39.5738 35.6586C39.2619 35.6586 38.8114 35.3121 38.8114 34.2725V24.6388C38.8114 23.3913 38.4649 22.8715 37.4253 22.8715H29.8015C29.0391 22.8715 28.554 23.4606 28.554 23.9804C28.554 25.1586 30.2867 25.4358 30.4946 28.6932V35.8319C30.4946 37.3913 30.2174 37.6685 29.5936 37.6685C27.9649 37.6685 23.9451 31.6388 21.5886 24.7081C21.1035 23.4259 20.653 22.8715 19.4055 22.8715H14.554C13.1679 22.8715 12.8906 23.5299 12.8906 24.2576C12.8906 25.5398 14.5193 31.916 20.549 40.3368C24.5688 46.0893 30.2174 49.2081 35.3461 49.2081C38.4302 49.2081 38.8114 48.515 38.8114 47.3368V42.9705C38.8114 41.5843 39.0886 41.3071 40.0936 41.3071C40.8213 41.3071 42.0342 41.6536 44.9104 44.4259C48.2025 47.718 48.757 49.2081 50.5936 49.2081H55.4451C56.8312 49.2081 57.5243 48.515 57.1084 47.1635C56.658 45.8121 55.0985 43.8368 53.0193 41.4804C51.8758 40.1289 50.1777 38.7081 49.6926 37.9804C48.9649 37.0447 49.1728 36.6289 49.6926 35.8319C49.6926 35.7972 55.6183 27.4804 56.2075 24.6388Z" fill="white"/>
</svg>
