<svg width="70" height="70" viewBox="0 0 70 70" fill="none" xmlns="http://www.w3.org/2000/svg">
<path d="M35.8915 62.4108C21.8208 62.4108 5.83283 45.7061 7.11145 31.8379C8.39006 18.6006 26.2982 6.30877 39.5685 8.19981C51.2409 9.7747 61.6347 24.2737 60.9931 35.7781C60.3561 47.9103 48.2025 62.4108 35.8915 62.4108Z" fill="white"/>
<path d="M45.9659 69.4988C45.0051 69.1841 43.5661 68.8695 42.7671 68.5533C41.8078 68.082 40.6881 68.082 37.1715 68.2386C33.8138 68.3952 32.054 68.2386 29.6572 67.9225C16.8651 65.7182 6.63165 56.5777 2.9547 43.9712C2.31464 41.6074 2.15575 40.3472 2.15575 34.6741C2.15575 28.5267 1.99536 28.0555 1.19642 25.5336C-3.43987 13.0837 5.9931 0.0045166 19.4238 0.0045166C22.1414 0.0045166 25.4991 0.793436 27.4177 1.73748C28.6979 2.36832 29.4968 2.52492 34.4524 2.52492C38.9298 2.52492 40.6881 2.683 42.926 3.31384C53.0005 5.83572 61.1534 12.2963 65.4704 21.2787C68.188 26.7938 69.1488 32.4684 68.5073 38.9275C68.188 42.3964 68.188 42.711 68.9869 44.7587C71.5457 52.1662 69.1473 60.6745 62.9117 65.7182C60.9915 67.2946 57.1556 69.0275 54.7573 69.6584C52.3575 70.1311 48.5216 70.1311 46.1218 69.5003H45.9659V69.4988ZM41.6474 57.3651C46.9252 56.263 51.56 53.1103 53.3198 49.3297C55.5578 44.7587 54.9177 39.4002 51.8808 36.0909C49.3221 33.2543 45.4847 31.6795 36.371 29.4737C30.2943 28.0555 28.8553 27.4246 27.5766 26.0063C26.4569 24.7447 26.2965 23.8006 27.2574 22.3823C28.2167 20.806 30.615 19.8605 33.8123 19.7039C38.4501 19.3892 40.5277 20.4913 43.2453 24.7461C45.3243 27.8989 47.4019 28.6863 50.1225 27.4246C53.6391 25.6917 53.3198 20.0185 49.481 16.7092C45.804 13.716 41.8078 12.4544 35.0909 12.4544C28.0563 12.4544 23.2581 13.8726 20.0608 17.0239C17.5021 19.5458 17.024 20.9641 17.024 24.9027C17.024 28.9995 17.5036 30.2597 20.2212 32.625C23.0992 35.3035 25.4976 36.2505 34.1301 38.2981C40.2069 39.7164 41.8063 40.5038 43.2438 42.0802C43.8853 42.8691 44.2046 43.4985 44.2046 44.9168C44.2046 46.4931 44.0442 46.8078 42.7656 48.0695C40.8469 49.959 37.9689 50.7465 34.292 50.5914C29.975 50.2752 28.0563 49.015 25.8184 44.6021C24.219 41.6089 22.9404 40.5053 20.8613 40.5053C16.2235 40.5053 14.6256 44.2874 17.024 49.1716C19.103 53.4279 23.2596 56.2645 28.536 57.3666C31.7333 57.9974 38.7694 57.9974 41.8078 57.3666H41.6474V57.3651Z" fill="#00AFF0"/>
</svg>
