<svg width="14" height="14" viewBox="0 0 14 14" fill="none" xmlns="http://www.w3.org/2000/svg">
<path d="M7 0C3.14005 0 0 3.14005 0 7C0 10.86 3.14005 14 7 14C10.86 14 14 10.86 14 7C14 3.14005 10.86 0 7 0Z" fill="#F44336"/>
<path d="M9.57759 8.7529C9.80563 8.98104 9.80563 9.34965 9.57759 9.5778C9.46383 9.69156 9.31451 9.7487 9.16508 9.7487C9.01576 9.7487 8.86644 9.69156 8.75268 9.5778L6.9998 7.82481L5.24691 9.5778C5.13316 9.69156 4.98384 9.7487 4.83451 9.7487C4.68509 9.7487 4.53576 9.69156 4.42201 9.5778C4.19397 9.34965 4.19397 8.98104 4.42201 8.7529L6.175 7.00001L4.42201 5.24713C4.19397 5.01898 4.19397 4.65037 4.42201 4.42222C4.65016 4.19418 5.01876 4.19418 5.24691 4.42222L6.9998 6.17521L8.75268 4.42222C8.98083 4.19418 9.34944 4.19418 9.57759 4.42222C9.80563 4.65037 9.80563 5.01898 9.57759 5.24713L7.8246 7.00001L9.57759 8.7529Z" fill="#FAFAFA"/>
</svg>
