<svg xmlns="http://www.w3.org/2000/svg" width="44" height="60" viewBox="0 0 44 60"><g><g><g/><g><path fill="#f2f2f2" d="M30.18 34.545L23.817 40v-5.455H21.09c-2 0-3.636-1.636-3.636-3.636V18.182c0-2 1.636-3.637 3.636-3.637h14.546V10H.18v40h35.455V34.545z"/></g><g><g><path fill="#1bb7ea" d="M.18 54.545c0 3 2.455 5.455 5.455 5.455H30.18c3 0 5.455-2.455 5.455-5.455V50H.18z"/></g><g><path fill="#1bb7ea" d="M30.18 0H5.635C2.635 0 .18 2.455.18 5.455V10h35.455V5.455c0-3-2.455-5.455-5.455-5.455z"/></g></g><g><path fill="#1f4254" d="M17.914 55.457a1.364 1.364 0 1 0 0-2.727 1.364 1.364 0 0 0 0 2.727z"/></g><g><path fill="#c5ced3" d="M2.907 10H.18v40h2.727z"/></g><g><path fill="#dce0e2" d="M30.183 34.55l-6.353 5.445 9.079 9.08V34.55z"/></g><g><g><path fill="#c5ced3" d="M35.637 34.55H32.91v15.454h2.727z"/></g><g><path fill="#c5ced3" d="M35.637 10H32.91v4.545h2.727z"/></g></g><g><path fill="#1f4254" d="M40.177 14.55h-19.09c-2 0-3.637 1.636-3.637 3.636v12.728c0 2 1.636 3.636 3.636 3.636h2.728v5.455l6.364-5.455h10c1.998 0 3.636-1.636 3.636-3.636V18.186c0-2-1.638-3.636-3.637-3.636z"/></g><g><g><path fill="#1bb7ea" d="M26.094 29.087a1.364 1.364 0 1 0 0-2.727 1.364 1.364 0 0 0 0 2.727z"/></g><g><path fill="#1bb7ea" d="M30.634 29.087a1.364 1.364 0 1 0 0-2.727 1.364 1.364 0 0 0 0 2.727z"/></g><g><path fill="#1bb7ea" d="M35.184 29.087a1.364 1.364 0 1 0 0-2.727 1.364 1.364 0 0 0 0 2.727z"/></g></g></g></g></svg>