<svg width="40" height="40" viewBox="0 0 40 40" fill="none" xmlns="http://www.w3.org/2000/svg">
<path d="M40 12.8906C40 12.4229 39.9093 11.9681 39.7305 11.539C39.7303 11.5387 39.7302 11.5383 39.73 11.538L35.8234 2.16328C35.2757 0.849141 34.0019 0 32.5782 0H7.4218C5.99813 0 4.7243 0.849141 4.17664 2.16328L0.269531 11.5389C0.0907031 11.9681 0 12.4229 0 12.8906V17.7344C0 18.6341 0.340156 19.4556 0.898047 20.0781C0.340156 20.7006 0 21.5221 0 22.4219V27.1094C0 28.0091 0.340156 28.8306 0.898047 29.4531C0.340156 30.0756 0 30.8971 0 31.7969V36.4844C0 38.4229 1.57711 40 3.51562 40H36.4844C38.4229 40 40 38.4229 40 36.4844V31.7969C40 30.8971 39.6598 30.0756 39.102 29.4531C39.6599 28.8306 40 28.0091 40 27.1094V22.4219C40 21.5221 39.6598 20.7006 39.102 20.0781C39.6599 19.4556 40 18.6341 40 17.7344V12.8906ZM6.34008 3.06484C6.52266 2.6268 6.94727 2.34375 7.4218 2.34375H32.5782C33.0527 2.34375 33.4773 2.6268 33.6599 3.06484L36.2896 9.375H3.71039L6.34008 3.06484ZM37.6562 36.4844C37.6562 37.1305 37.1305 37.6562 36.4844 37.6562H3.51562C2.86945 37.6562 2.34375 37.1305 2.34375 36.4844V31.7969C2.34375 31.1507 2.86945 30.625 3.51562 30.625H36.4844C37.1305 30.625 37.6562 31.1507 37.6562 31.7969V36.4844ZM37.6562 27.1094C37.6562 27.7555 37.1305 28.2812 36.4844 28.2812H3.51562C2.86945 28.2812 2.34375 27.7555 2.34375 27.1094V22.4219C2.34375 21.7757 2.86945 21.25 3.51562 21.25H36.4844C37.1305 21.25 37.6562 21.7757 37.6562 22.4219V27.1094ZM37.6562 17.7344C37.6562 18.3805 37.1305 18.9062 36.4844 18.9062H3.51562C2.86945 18.9062 2.34375 18.3805 2.34375 17.7344V12.8906C2.34375 12.2389 2.87 11.7188 3.51562 11.7188H36.4844C37.132 11.7188 37.6562 12.2409 37.6562 12.8906V17.7344Z" fill="#8C7EA1"/>
</svg>
