<svg width="110" height="110" viewBox="0 0 110 110" fill="none" xmlns="http://www.w3.org/2000/svg">
<path fill-rule="evenodd" clip-rule="evenodd" d="M87.7256 39.6112C85.3354 34.4504 81.8727 30.1077 77.2917 26.4616C77.4131 28.9366 77.6789 34.2304 77.6789 34.2304C77.6789 34.2304 77.9654 34.6062 78.0823 34.7689C82.7114 41.236 84.405 48.4043 82.8627 56.1914C79.7712 71.8023 64.55 81.3264 49.1294 77.4329C35.5879 74.016 26.545 60.1698 29.1048 46.445C31.126 35.61 37.5289 28.3889 47.9285 24.7222L48.3067 24.5802L48.6023 24.3625C49.8627 22.5795 51.0933 20.776 52.4042 18.8693C36.6444 19.6508 20.7929 32.2962 18.9756 51.5302C17.2202 70.1408 29.7671 86.7393 47.6994 90.3808C66.3856 94.1781 84.1758 83.1529 89.5498 65.5116C92.2402 56.6887 91.61 48.0033 87.7256 39.6112ZM43.2489 51.2529C44.0373 58.7397 50.5273 63.8433 58.0371 63.0137C65.4117 62.1979 70.8062 54.9814 69.4083 47.6825C68.3221 41.99 67.1167 36.3181 65.9639 30.6393C65.4873 28.2881 65.0037 25.9391 64.495 23.4595C64.2979 23.6383 64.2017 23.7116 64.1192 23.7941C61.5914 26.2714 59.066 28.751 56.5383 31.226C53.4606 34.2441 50.3875 37.2645 47.3006 40.2781C44.2091 43.2962 42.7998 46.9789 43.2489 51.2529Z" fill="#0E40BF"/>
</svg>
