<svg width="110" height="110" viewBox="0 0 110 110" fill="none" xmlns="http://www.w3.org/2000/svg">
<path fill-rule="evenodd" clip-rule="evenodd" d="M52.6329 49.3073C49.4864 54.5942 46.4729 59.7183 43.3975 64.799C42.6045 66.1052 42.215 67.1663 42.8452 68.8254C44.5891 73.4088 42.1279 77.8661 37.5102 79.0783C33.1537 80.2196 28.9073 77.355 28.0433 72.6892C27.2756 68.5596 30.4816 64.5125 35.0352 63.8663C35.4133 63.8113 35.8052 63.8044 36.4445 63.7586L43.3677 52.1444C39.0158 47.8131 36.4216 42.7531 36.9968 36.4785C37.4025 32.0442 39.1441 28.2125 42.3318 25.0683C48.4368 19.055 57.7502 18.081 64.9391 22.6988C71.8416 27.1331 75.0018 35.7704 72.3091 43.1656C70.2764 42.6133 68.23 42.0588 65.9795 41.4469C66.8275 37.3356 66.1995 33.646 63.4289 30.4835C61.5956 28.3981 59.2466 27.3004 56.5745 26.8994C51.2166 26.0881 45.955 29.5325 44.3943 34.7919C42.6229 40.7571 45.3041 45.6338 52.6329 49.3073Z" fill="#C73A63"/>
<path fill-rule="evenodd" clip-rule="evenodd" d="M61.6134 43.0561C63.8317 46.9634 66.0821 50.9349 68.3097 54.8674C79.5847 51.3795 88.0821 57.6174 91.1324 64.2976C94.8174 72.3688 92.2965 81.9274 85.064 86.9072C77.639 92.0176 68.2501 91.1422 61.6753 84.5766C63.3482 83.1741 65.0349 81.7647 66.8361 80.2591C73.333 84.4666 79.014 84.2695 83.233 79.2874C86.8309 75.0341 86.7507 68.6976 83.0497 64.5359C78.7757 59.7326 73.0557 59.5859 66.1394 64.1968C63.2703 59.107 60.353 54.0561 57.5732 48.9297C56.6359 47.2041 55.6024 46.2003 53.4917 45.8359C49.9649 45.2241 47.6892 42.1945 47.5494 38.8028C47.4188 35.4478 49.3942 32.4159 52.4834 31.2334C55.5428 30.0624 59.1338 31.0089 61.194 33.6099C62.8761 35.7366 63.4101 38.1291 62.5255 40.7484C62.2803 41.4795 61.9594 42.1876 61.6134 43.0561Z" fill="#4B4B4B"/>
<path fill-rule="evenodd" clip-rule="evenodd" d="M66.9118 75.0155H53.3429C52.0412 80.3665 49.2316 84.684 44.3916 87.4317C40.6264 89.5675 36.5725 90.2894 32.255 89.5928C24.3052 88.3094 17.806 81.1571 17.2331 73.0973C16.5891 63.9719 22.8614 55.8594 31.2237 54.0353C31.8012 56.1321 32.3856 58.2496 32.9608 60.3396C25.2906 64.2561 22.6345 69.1877 24.7818 75.3546C26.6725 80.7813 32.0418 83.7559 37.8718 82.6055C43.8233 81.4321 46.8254 76.4821 46.4587 68.5415C52.1008 68.5415 57.752 68.4842 63.3964 68.5713C65.5987 68.608 67.3014 68.3765 68.9629 66.4355C71.6945 63.2363 76.727 63.525 79.6718 66.5455C82.6808 69.6323 82.5364 74.5961 79.351 77.5546C76.2802 80.4078 71.4264 80.2519 68.5527 77.1811C67.9614 76.544 67.4962 75.7946 66.9118 75.0155Z" fill="#4A4A4A"/>
</svg>
