<svg width="40" height="40" viewBox="0 0 40 40" fill="none" xmlns="http://www.w3.org/2000/svg">
<g clip-path="url(#clip0)">
<path d="M39.5461 18.4697L23.2656 2.08196C23.2447 2.06087 23.2231 2.0404 23.201 2.02055C21.4233 0.424382 18.737 0.418679 16.9525 2.00735C16.9303 2.02712 16.9087 2.04751 16.8877 2.06844L0.458863 18.4649C-0.151918 19.0746 -0.152934 20.0639 0.456676 20.6747C1.06636 21.2855 2.05566 21.2864 2.66636 20.6769L3.90636 19.4393V32.9302C3.90636 36.3765 6.71011 39.1802 10.1564 39.1802H15.7814C16.6443 39.1802 17.3439 38.4807 17.3439 37.6177V24.8834H22.8126V37.6177C22.8126 38.4807 23.5121 39.1802 24.3751 39.1802H29.8439C33.2901 39.1802 36.0939 36.3765 36.0939 32.9302C36.0939 32.0673 35.3943 31.3677 34.5314 31.3677C33.6684 31.3677 32.9689 32.0673 32.9689 32.9302C32.9689 34.6534 31.567 36.0552 29.8439 36.0552H25.9376V23.3209C25.9376 22.4579 25.2381 21.7584 24.3751 21.7584H15.7814C14.9184 21.7584 14.2189 22.4579 14.2189 23.3209V36.0552H10.1564C8.43324 36.0552 7.03136 34.6534 7.03136 32.9302V16.3677C7.03136 16.3521 7.03113 16.3366 7.03066 16.3211L19.0584 4.31712C19.6438 3.82001 20.5024 3.82188 21.0855 4.32141L32.9689 16.2831V25.1177C32.9689 25.9807 33.6684 26.6802 34.5314 26.6802C35.3943 26.6802 36.0939 25.9807 36.0939 25.1177V19.4287L37.3292 20.6722C37.6346 20.9796 38.036 21.1334 38.4376 21.1334C38.8358 21.1334 39.2341 20.9821 39.5389 20.6794C40.1511 20.0712 40.1543 19.0819 39.5461 18.4697Z" fill="#8C7EA1"/>
</g>
<defs>
<clipPath id="clip0">
<rect width="40" height="40" fill="white"/>
</clipPath>
</defs>
</svg>
