<svg width="110" height="110" viewBox="0 0 110 110" fill="none" xmlns="http://www.w3.org/2000/svg">
<path fill-rule="evenodd" clip-rule="evenodd" d="M92.9748 84.5487C90.619 82.8162 87.6857 80.4604 87.3946 76.3239C87.2503 74.1102 87.8782 71.6352 88.5015 69.8293C88.8865 68.9883 89.2234 68.1243 89.5373 67.2558V67.2329C96.2932 48.1616 86.313 27.2158 67.2188 20.46C48.1246 13.7018 27.2269 23.705 20.4688 42.7762C13.713 61.8452 23.6932 82.791 42.7873 89.5491C53.3198 93.2777 64.9821 92.0035 74.4582 86.0635C75.4207 85.6052 76.2365 85.3416 76.6948 85.5341C81.5532 87.5783 86.8676 88.2039 92.0605 87.2895C92.9749 87.1452 95.3078 86.2789 92.9748 84.5487Z" fill="#0ABE51"/>
<path fill-rule="evenodd" clip-rule="evenodd" d="M44.2045 38.3736H68.8307C71.1155 38.3736 72.9672 40.2253 72.9672 42.5124V42.6797C72.9672 44.9645 71.1155 46.8138 68.8307 46.8138H44.2045C41.9197 46.8138 40.068 44.9645 40.068 42.6797V42.5124C40.068 40.2253 41.9197 38.3736 44.2045 38.3736Z" fill="white"/>
<path fill-rule="evenodd" clip-rule="evenodd" d="M44.2045 50.9045H59.7649C62.0474 50.9045 63.9013 52.7538 63.9013 55.0409V55.2311C63.9013 57.5182 62.0474 59.3699 59.7649 59.3699H44.2045C41.9197 59.3699 40.068 57.5182 40.068 55.2311V55.0409C40.068 52.7538 41.9197 50.9045 44.2045 50.9045Z" fill="white"/>
<path fill-rule="evenodd" clip-rule="evenodd" d="M44.2045 63.218H47.0186C49.3057 63.218 51.1551 65.0697 51.1551 67.3545V67.5217C51.1551 69.8065 49.3057 71.6582 47.0186 71.6582H44.2045C41.9197 71.6582 40.068 69.8065 40.068 67.5217V67.3545C40.068 65.0697 41.9197 63.218 44.2045 63.218Z" fill="white"/>
</svg>
