<svg width="110" height="110" viewBox="0 0 110 110" fill="none" xmlns="http://www.w3.org/2000/svg">
<path fill-rule="evenodd" clip-rule="evenodd" d="M30.5683 16.8994C28.9435 17.3554 27.6442 18.7212 27.2248 20.385C26.5625 23.1442 28.6181 25.8873 31.4804 26.0317C36.3181 26.2792 38.7748 26.5771 41.715 27.3058C55.2702 30.6494 66.3252 40.586 71.0735 53.699C72.5975 57.8721 73.2323 61.2019 73.5439 66.3696C73.741 69.594 73.8419 69.9698 74.8731 71.0767C77.5154 73.9 82.1583 72.4929 82.8458 68.659C83.0154 67.7331 82.8458 63.9496 82.5319 61.4906C81.3264 52.0581 77.6323 43.3979 71.596 35.8262C69.7994 33.5758 66.1189 29.8954 63.8685 28.0988C56.9889 22.6102 49.3119 19.0971 40.8189 17.5502C37.1248 16.8879 31.8562 16.5488 30.5683 16.8994Z" fill="#E09010"/>
<path fill-rule="evenodd" clip-rule="evenodd" d="M30.5671 35.6287C28.2915 36.2543 26.7584 38.6216 27.1732 40.8583C27.2649 41.328 27.4436 41.9514 27.5903 42.2378C28.0073 43.0445 28.9309 43.9405 29.749 44.3462C30.4136 44.6716 30.7115 44.7243 32.2584 44.8137C34.4194 44.942 34.9901 45.0062 36.553 45.3476C44.9817 47.1283 51.8338 53.6068 54.0338 61.843C54.5151 63.6466 54.6205 64.3753 54.813 66.9512C55.0215 69.6439 55.2301 70.242 56.3232 71.2572C59.0686 73.8193 63.4251 72.3893 64.1011 68.7203C64.3097 67.602 64.0621 64.0889 63.6084 61.7239C62.6574 56.7395 60.2259 51.5512 56.9076 47.4422C51.8888 41.1974 44.1476 36.8662 36.0946 35.7708C33.7824 35.4614 31.4128 35.3972 30.5671 35.6287Z" fill="#E09010"/>
<path fill-rule="evenodd" clip-rule="evenodd" d="M33.9112 56.3914C30.9848 56.8199 28.2279 59.2903 27.396 62.2305C26.0806 66.901 29.1652 71.686 33.9915 72.4812C35.135 72.6622 35.3665 72.6622 36.5146 72.4812C39.1523 72.0389 41.3637 70.4255 42.521 68.072C43.6921 65.7024 43.6921 63.1816 42.521 60.812C41.4165 58.5616 39.1775 56.8726 36.746 56.4395C35.5887 56.2332 35.0319 56.2218 33.9112 56.3914Z" fill="#E09010"/>
<path d="M30.7283 99.8201C30.5268 99.4271 30.3806 98.9384 30.29 98.354C29.232 99.5329 27.8566 100.122 26.1638 100.122C24.5617 100.122 23.2317 99.6589 22.1737 98.7319C21.1258 97.8049 20.6019 96.6361 20.6019 95.2254C20.6019 93.4924 21.2417 92.1623 22.5214 91.2353C23.8111 90.3083 25.6701 89.8398 28.0984 89.8297H30.1086V88.8927C30.1086 88.1369 29.9121 87.5324 29.5191 87.079C29.1363 86.6255 28.5267 86.3988 27.6904 86.3988C26.9548 86.3988 26.3754 86.5752 25.9522 86.9278C25.5391 87.2805 25.3326 87.7641 25.3326 88.3788H20.9646C20.9646 87.4316 21.2568 86.555 21.8412 85.7489C22.4256 84.9429 23.2519 84.3131 24.3199 83.8597C25.388 83.3962 26.587 83.1644 27.9171 83.1644C29.9323 83.1644 31.5293 83.6733 32.7082 84.6909C33.8972 85.6986 34.4917 87.1193 34.4917 88.9531V96.0416C34.5017 97.5933 34.7184 98.7672 35.1416 99.5632V99.8201H30.7283ZM27.116 96.7822C27.7609 96.7822 28.3554 96.6411 28.8995 96.359C29.4436 96.0668 29.8466 95.6789 30.1086 95.1952V92.384H28.4763C26.2898 92.384 25.126 93.1397 24.9849 94.6511L24.9698 94.908C24.9698 95.4521 25.1613 95.9005 25.5442 96.2532C25.927 96.6058 26.451 96.7822 27.116 96.7822Z" fill="#E09010"/>
<path d="M43.0764 79.4464V83.4667H45.8725V86.6709H43.0764V94.8325C43.0764 95.437 43.1923 95.8703 43.4241 96.1323C43.6558 96.3942 44.0992 96.5252 44.7541 96.5252C45.2377 96.5252 45.666 96.49 46.0388 96.4194V99.7294C45.1823 99.9914 44.3007 100.122 43.3938 100.122C40.3307 100.122 38.7689 98.5757 38.7085 95.4824V86.6709H36.3205V83.4667H38.7085V79.4464H43.0764Z" fill="#E09010"/>
<path d="M47.1723 91.4923C47.1723 89.87 47.4847 88.4241 48.1094 87.1545C48.7341 85.885 49.6309 84.9025 50.7997 84.2073C51.9786 83.5121 53.3439 83.1644 54.8956 83.1644C57.1023 83.1644 58.9008 83.8395 60.2913 85.1897C61.6919 86.5399 62.4728 88.3737 62.634 90.6912L62.6642 91.8097C62.6642 94.3186 61.9639 96.3338 60.5634 97.8553C59.1628 99.3667 57.2836 100.122 54.9258 100.122C52.5681 100.122 50.6838 99.3667 49.2732 97.8553C47.8726 96.3439 47.1723 94.2884 47.1723 91.6887V91.4923ZM51.5403 91.8097C51.5403 93.3614 51.8325 94.5503 52.4169 95.3766C53.0013 96.1927 53.8376 96.6008 54.9258 96.6008C55.9838 96.6008 56.8101 96.1978 57.4045 95.3917C57.999 94.5755 58.2963 93.2757 58.2963 91.4923C58.2963 89.9708 57.999 88.7919 57.4045 87.9556C56.8101 87.1193 55.9737 86.7011 54.8956 86.7011C53.8276 86.7011 53.0013 87.1193 52.4169 87.9556C51.8325 88.7818 51.5403 90.0665 51.5403 91.8097Z" fill="#E09010"/>
<path d="M69.4504 83.4667L69.5865 85.2955C70.7452 83.8748 72.312 83.1644 74.2869 83.1644C76.3928 83.1644 77.8387 83.9957 78.6246 85.6582C79.7733 83.9957 81.4107 83.1644 83.5367 83.1644C85.3101 83.1644 86.63 83.6833 87.4966 84.7212C88.3631 85.7489 88.7964 87.3006 88.7964 89.3763V99.8201H84.4133V89.3914C84.4133 88.4644 84.232 87.7893 83.8692 87.3661C83.5065 86.9329 82.8667 86.7162 81.9497 86.7162C80.6399 86.7162 79.733 87.3409 79.2292 88.5904L79.2443 99.8201H74.8764V89.4065C74.8764 88.4594 74.69 87.7742 74.3171 87.351C73.9443 86.9278 73.3095 86.7162 72.4128 86.7162C71.1734 86.7162 70.2767 87.2301 69.7225 88.2579V99.8201H65.3545V83.4667H69.4504Z" fill="#E09010"/>
</svg>
