<svg width="110" height="110" viewBox="0 0 110 110" fill="none" xmlns="http://www.w3.org/2000/svg">
<path fill-rule="evenodd" clip-rule="evenodd" d="M47.4845 53.4714C45.1172 53.4714 43.2472 55.5476 43.2472 58.0822C43.2472 60.6168 45.1584 62.693 47.4845 62.693C49.8518 62.693 51.7172 60.6168 51.7172 58.0822C51.7607 55.5476 49.8518 53.4714 47.4845 53.4714ZM62.6393 53.4714C60.272 53.4714 58.402 55.5476 58.402 58.0822C58.402 60.6168 60.3155 62.693 62.6393 62.693C65.0066 62.693 66.8743 60.6168 66.8743 58.0822C66.8743 55.5476 65.0066 53.4714 62.6393 53.4714Z" fill="#2F2F2F"/>
<path fill-rule="evenodd" clip-rule="evenodd" d="M82.8202 18.6314H27.1786C22.4852 18.6314 18.665 22.4516 18.665 27.1862V83.332C18.665 88.062 22.4852 91.8822 27.1786 91.8822H74.2655L72.0677 84.2005L77.3821 89.1414L82.4077 93.7934L91.3338 101.684V27.1862C91.3338 22.4516 87.5136 18.6314 82.8202 18.6314ZM66.7923 72.8659C66.7923 72.8659 65.2982 71.0807 64.0538 69.5041C69.4919 67.9641 71.5682 64.561 71.5682 64.561C69.8655 65.6816 68.2452 66.4699 66.7923 67.0084C64.7161 67.8816 62.7223 68.4637 60.7721 68.7937C56.7846 69.543 53.1317 69.3368 50.0173 68.7547C47.65 68.2987 45.615 67.6318 43.91 66.9695C42.9567 66.5937 41.9186 66.1353 40.8805 65.5555C40.7567 65.473 40.6307 65.4318 40.5069 65.3493C40.4244 65.3057 40.3809 65.2645 40.3396 65.2255C39.5948 64.8084 39.1777 64.5174 39.1777 64.5174C39.1777 64.5174 41.1715 67.8403 46.4446 69.417C45.2002 70.9959 43.6648 72.8659 43.6648 72.8659C34.4867 72.5749 30.9988 66.5547 30.9988 66.5547C30.9988 53.1805 36.9777 42.3432 36.9777 42.3432C42.9567 37.8607 48.6446 37.9845 48.6446 37.9845L49.0617 38.4818C41.5863 40.6428 38.1396 43.9199 38.1396 43.9199C38.1396 43.9199 39.0517 43.4226 40.5894 42.7191C45.033 40.7643 48.5621 40.2234 50.0173 40.0997C50.2648 40.0607 50.4734 40.0195 50.7232 40.0195C53.2555 39.6872 56.12 39.6024 59.1107 39.9324C63.0546 40.3907 67.2919 41.5549 71.6094 43.9199C71.6094 43.9199 68.3278 40.8055 61.2671 38.6468L61.8492 37.9845C61.8492 37.9845 67.5394 37.8607 73.5207 42.3432C73.5207 42.3432 79.4996 53.1805 79.4996 66.5547C79.4996 66.5547 75.9705 72.5749 66.7923 72.8659Z" fill="#2F2F2F"/>
</svg>
