<svg width="110" height="110" viewBox="0 0 110 110" fill="none" xmlns="http://www.w3.org/2000/svg">
<path fill-rule="evenodd" clip-rule="evenodd" d="M28.4073 25.3987C44.7469 10.7206 69.9209 12.0681 84.6013 28.4054C99.2794 44.7449 97.9319 69.9189 81.5946 84.5993C65.2551 99.2774 40.0811 97.9299 25.4007 81.5927C10.7226 65.2531 12.0701 40.0791 28.4073 25.3987Z" fill="#67BF79"/>
<path fill-rule="evenodd" clip-rule="evenodd" d="M56.1232 94.7696L56.1003 94.7467L34.8336 73.3448L45.114 37.5925L65.1707 56.5469L77.383 43.2277L94.433 60.0371L94.4627 60.0646C93.294 69.1969 88.9742 77.9694 81.595 84.5992C74.2938 91.1579 65.228 94.5175 56.1232 94.7696Z" fill="url(#paint0_linear)"/>
<path fill-rule="evenodd" clip-rule="evenodd" d="M39.1501 74.1469C33.9481 74.1469 33.9481 74.1468 33.9481 68.9448V40.3906C33.9481 35.1885 33.9481 35.1885 39.1501 35.1885H40.1883C45.3881 35.1885 45.3881 35.1885 45.3881 40.3906V68.9448C45.3881 74.1468 45.3881 74.1469 40.1883 74.1469H39.1501ZM52.8406 74.1469C51.0691 74.1469 50.196 73.2737 50.196 71.5023V37.8331C50.196 36.0616 51.0691 35.1885 52.8406 35.1885H64.5074C74.5106 35.1885 80.8653 45.2214 80.8653 54.78C80.8653 64.3385 74.4533 74.1469 64.5074 74.1469H52.8406Z" fill="white"/>
<defs>
<linearGradient id="paint0_linear" x1="45.114" y1="37.5925" x2="83.8546" y2="82.4038" gradientUnits="userSpaceOnUse">
<stop stop-color="#4BB26A"/>
<stop offset="1" stop-color="#40A46E"/>
</linearGradient>
</defs>
</svg>
