<svg width="110" height="110" viewBox="0 0 110 110" fill="none" xmlns="http://www.w3.org/2000/svg">
<path fill-rule="evenodd" clip-rule="evenodd" d="M28.4073 25.3987C44.7469 10.7206 69.9209 12.0681 84.6013 28.4054C99.2794 44.7449 97.9319 69.9189 81.5946 84.5993C65.255 99.2774 40.0811 97.9299 25.4007 81.5927C10.7225 65.2531 12.07 40.0791 28.4073 25.3987Z" fill="#67BF79"/>
<path fill-rule="evenodd" clip-rule="evenodd" d="M56.1231 94.7696L56.1002 94.7467L34.8335 73.3448L45.1139 37.5925L65.1706 56.5469L77.3829 43.2277L94.4329 60.0371L94.4627 60.0646C93.2939 69.1969 88.9741 77.9694 81.5949 84.5992C74.2937 91.1579 65.2279 94.5175 56.1231 94.7696Z" fill="url(#paint0_linear)"/>
<path fill-rule="evenodd" clip-rule="evenodd" d="M39.1501 74.1469C33.948 74.1469 33.948 74.1468 33.948 68.9448V40.3906C33.948 35.1885 33.948 35.1885 39.1501 35.1885H40.1882C45.388 35.1885 45.388 35.1885 45.388 40.3906V68.9448C45.388 74.1468 45.388 74.1469 40.1882 74.1469H39.1501ZM52.8405 74.1469C51.069 74.1469 50.1959 73.2737 50.1959 71.5023V37.8331C50.1959 36.0616 51.069 35.1885 52.8405 35.1885H64.5074C74.5105 35.1885 80.8653 45.2214 80.8653 54.78C80.8653 64.3385 74.4532 74.1469 64.5074 74.1469H52.8405Z" fill="white"/>
<defs>
<linearGradient id="paint0_linear" x1="45.1139" y1="37.5925" x2="83.8545" y2="82.4038" gradientUnits="userSpaceOnUse">
<stop stop-color="#4BB26A"/>
<stop offset="1" stop-color="#40A46E"/>
</linearGradient>
</defs>
</svg>
