<svg width="110" height="110" viewBox="0 0 110 110" fill="none" xmlns="http://www.w3.org/2000/svg">
<path fill-rule="evenodd" clip-rule="evenodd" d="M80.1881 30.1904C80.1881 40.0377 54.9385 50.7696 54.3083 65.0352C53.6758 77.4079 64.1556 86.625 85.3649 92.8125H85.9951C89.7833 92.8125 92.8151 89.7806 92.8151 85.9948V24.0052C92.8151 20.2171 89.7833 17.1852 85.9951 17.1852H57.9681C64.5337 18.4479 80.1881 22.236 80.1881 30.1904Z" fill="#4FC3F7"/>
<path fill-rule="evenodd" clip-rule="evenodd" d="M26.4046 65.4133C31.075 51.0217 46.9838 44.456 57.4635 39.5335C67.689 34.7348 86.2469 27.1608 53.6754 17.1852H24.0052C20.2171 17.1852 17.1875 20.2171 17.1875 24.0052V85.9948C17.1875 89.7806 20.2171 92.8125 24.0052 92.8125H33.6027C29.056 88.5179 21.8602 79.3008 26.4046 65.4133Z" fill="#4FC3F7"/>
<path fill-rule="evenodd" clip-rule="evenodd" d="M54.3081 65.0352C54.9383 50.7696 80.1879 40.0377 80.1879 30.1904C80.1879 22.236 64.5335 18.4479 57.9679 17.1852H53.6756C86.247 27.1608 67.6891 34.7348 57.3377 39.5335C46.9839 44.456 30.9514 51.0217 26.2787 65.4133C21.8604 79.3008 29.0562 88.644 33.6029 92.8125H85.3647C64.0293 86.625 53.6756 77.4079 54.3081 65.0352Z" fill="#01579B"/>
</svg>
