<?xml version="1.0" encoding="utf-8"?><svg xmlns="http://www.w3.org/2000/svg" xmlns:xlink="http://www.w3.org/1999/xlink"><symbol viewBox="0 0 22 24" id="basket" xmlns="http://www.w3.org/2000/svg"><g clip-path="url(#aclip0)"><path d="M10.363 18.443a2.046 2.046 0 00-2.045 2.042 2.046 2.046 0 004.09 0 2.046 2.046 0 00-2.045-2.042zm6.134 0a2.046 2.046 0 00-2.045 2.042 2.046 2.046 0 004.089 0 2.046 2.046 0 00-2.044-2.042zm3.978-8.199L7.413 6.891a.614.614 0 00-.75.73L8.67 16.4h-.786L5.482 5.895a.613.613 0 00-.474-.464l-4.27-.882A.614.614 0 00.489 5.75l3.885.802L6.797 17.15a.613.613 0 00.598.477h12.07a.615.615 0 00.607-.53l.858-6.175a.613.613 0 00-.455-.678zm-8.14 3.91a.613.613 0 01-1.227 0v-2.696a.613.613 0 011.227 0v2.696zm2.625 0a.613.613 0 01-1.227 0v-1.88a.613.613 0 011.227 0v1.88zm2.625 0a.613.613 0 01-1.227 0v-1.226a.613.613 0 011.227 0v1.226z"/></g><path fill-rule="evenodd" clip-rule="evenodd" d="M16.268 4.568a2.996 2.996 0 00-1.693-.523c-.627 0-1.21.193-1.693.523-.28-.843-.492-1.752-.492-2.383C12.39.98 13.37 0 14.575 0s2.185.98 2.185 2.185c0 .631-.212 1.54-.492 2.383zm-4.722 2.274l.024.006v-.011l-.024.005zm4.972 1.217c-1.333-.33-2.766-.681-4.129-1.013a2.185 2.185 0 114.129 1.013zm4.436 1.103c-.866-.217-2.155-.538-3.618-.9a2.995 2.995 0 00.243-1.425c.87.18 1.762.45 2.308.765.596.344.969.928 1.067 1.56zM9.869 6.439c-.36-.086-.706-.167-1.03-.243a2.19 2.19 0 01-.376-2.667 2.188 2.188 0 013.147-.7c.098.738.338 1.599.61 2.353a3.01 3.01 0 00-.449.774c-.628.113-1.305.278-1.902.483zm10.124.075a3.43 3.43 0 01-.217.114c-.696-.295-1.587-.526-2.397-.672a3.01 3.01 0 00-.449-.774c.262-.727.494-1.553.599-2.273.095-.067.189-.128.278-.18a2.188 2.188 0 012.986.8 2.188 2.188 0 01-.8 2.985z"/><defs><clipPath id="aclip0"><path transform="translate(0 3.064)" d="M0 0h20.936v20.936H0z"/></clipPath></defs></symbol><symbol viewBox="0 0 344.96 344.96" id="check" xmlns="http://www.w3.org/2000/svg"><g data-name="Слой 2"><path d="M321.85 86.24l-40-23.11-23.1-40H212.5L172.48 0l-40 23.11H86.24l-23.11 40-40 23.1v46.21L0 172.48l23.11 40v46.21l40 23.11 23.11 40h46.21l40 23.1 40-23.11h46.21l23.11-40 40-23.11V212.5l23.11-40-23.11-40V86.24zM156.91 243.07a16.79 16.79 0 01-23.34 0l-50.45-50.44a16.19 16.19 0 010-22.89l13.35-13.35a16.19 16.19 0 0122.89 0l25.87 25.87 80.34-80.35a16.19 16.19 0 0122.89 0l13.35 13.35a16.19 16.19 0 010 22.89z" data-name="Capa 1"/></g></symbol><symbol viewBox="0 0 8 12" id="chevron-right" xmlns="http://www.w3.org/2000/svg"><path d="M7.338 5.532L1.998.192A.652.652 0 001.534 0a.652.652 0 00-.464.192L.677.585a.657.657 0 000 .928L5.16 5.998.67 10.487a.652.652 0 00-.191.464c0 .176.068.34.192.464l.393.393a.652.652 0 00.464.192.65.65 0 00.464-.192l5.345-5.345a.653.653 0 00.192-.465.652.652 0 00-.192-.466z"/></symbol><symbol viewBox="0 0 24 24" id="fb" xmlns="http://www.w3.org/2000/svg"><path d="M13.397 20.997v-8.196h2.765l.411-3.209h-3.176V7.548c0-.926.258-1.56 1.587-1.56h1.684v-2.86A22.108 22.108 0 0014.201 3c-2.444 0-4.122 1.492-4.122 4.231v2.355H7.332v3.21h2.753v8.201h3.312z"/></symbol><symbol viewBox="0 0 1500 746" id="filter-bg" xmlns="http://www.w3.org/2000/svg"><rect width="1500" height="746" rx="10"/><mask id="ea" maskUnits="userSpaceOnUse" x="0" y="0" width="1500" height="746"><rect width="1500" height="746" rx="10"/></mask><g mask="url(#ea)"><circle cx="-9" cy="58" r="121"/><circle cx="566" cy="664" r="46"/><circle cx="454" cy="458" r="14"/><circle cx="1379.5" cy="156.5" r="216.5"/></g></symbol><symbol viewBox="0 0 24 24" id="instagram" xmlns="http://www.w3.org/2000/svg"><path d="M11.999 7.377a4.624 4.624 0 100 9.248 4.624 4.624 0 000-9.248zm0 7.627a3.004 3.004 0 110-6.008 3.004 3.004 0 010 6.008zm4.807-6.719a1.078 1.078 0 100-2.156 1.078 1.078 0 000 2.156z"/><path d="M20.533 6.11A4.605 4.605 0 0017.9 3.48a6.607 6.607 0 00-2.186-.42c-.963-.042-1.268-.054-3.71-.054s-2.755 0-3.71.054a6.554 6.554 0 00-2.184.42 4.6 4.6 0 00-2.633 2.63 6.585 6.585 0 00-.419 2.186c-.043.962-.056 1.267-.056 3.71 0 2.442 0 2.753.056 3.71.015.748.156 1.486.419 2.187a4.61 4.61 0 002.634 2.632 6.583 6.583 0 002.185.45c.963.042 1.268.055 3.71.055s2.755 0 3.71-.055a6.616 6.616 0 002.186-.42 4.613 4.613 0 002.633-2.632c.263-.7.404-1.438.419-2.186.043-.962.056-1.267.056-3.71s0-2.753-.056-3.71a6.583 6.583 0 00-.421-2.217zm-1.218 9.533a5.046 5.046 0 01-.311 1.688 2.987 2.987 0 01-1.712 1.71c-.535.2-1.1.305-1.67.312-.95.044-1.218.055-3.654.055-2.438 0-2.687 0-3.655-.055a4.961 4.961 0 01-1.67-.311 2.984 2.984 0 01-1.718-1.711 5.08 5.08 0 01-.311-1.67c-.043-.95-.053-1.217-.053-3.653 0-2.437 0-2.686.053-3.655a5.038 5.038 0 01.311-1.687c.305-.79.93-1.41 1.719-1.712a5.01 5.01 0 011.669-.311c.95-.043 1.218-.055 3.655-.055s2.687 0 3.654.055a4.96 4.96 0 011.67.31 2.99 2.99 0 011.712 1.713 5.06 5.06 0 01.311 1.669c.043.95.054 1.218.054 3.655 0 2.436 0 2.698-.043 3.654h-.011v-.001z"/></symbol><symbol viewBox="0 0 14 16" id="lock" xmlns="http://www.w3.org/2000/svg"><path d="M11.571 5.333h-.761V3.81A3.81 3.81 0 007 0a3.81 3.81 0 00-3.81 3.81v1.523h-.76c-.842 0-1.524.682-1.524 1.524v7.62c0 .841.682 1.523 1.524 1.523h9.142c.842 0 1.524-.682 1.524-1.524V6.857c0-.842-.682-1.524-1.524-1.524zM7 12.19a1.523 1.523 0 110-3.046 1.523 1.523 0 010 3.046zm2.362-6.857H4.638V3.81A2.364 2.364 0 017 1.448a2.364 2.364 0 012.362 2.361v1.524z"/></symbol><symbol viewBox="0 0 20 20" id="mouse" xmlns="http://www.w3.org/2000/svg"><g clip-path="url(#hclip0)"><path d="M9.984 0a5.89 5.89 0 00-5.882 5.883v8.234A5.89 5.89 0 009.984 20a5.89 5.89 0 005.883-5.883V5.883A5.89 5.89 0 009.984 0zm4.683 14.117c0 2.582-2.1 4.683-4.683 4.683a4.688 4.688 0 01-4.682-4.683V5.883c0-2.582 2.1-4.683 4.682-4.683 2.582 0 4.683 2.1 4.683 4.683v8.234z"/><path d="M9.985 3.979a.6.6 0 00-.6.6V7.34a.6.6 0 001.2 0V4.578a.6.6 0 00-.6-.6z"/></g><defs><clipPath id="hclip0"><path d="M0 0h20v20H0z"/></clipPath></defs></symbol><symbol viewBox="0 0 16 16" id="reference" xmlns="http://www.w3.org/2000/svg"><path d="M8 0a8 8 0 100 16A8 8 0 008 0zm-.017 13.252a1.074 1.074 0 010-2.146 1.074 1.074 0 010 2.146zm1.68-5.268c-.463.434-.77.72-.77 1.415v.513c0 .13-.105.235-.235.235H7.382a.235.235 0 01-.235-.235V9.4c0-1.426.74-2.122 1.282-2.63.46-.431.764-.717.764-1.4 0-.217 0-.874-1.173-.874-1.1 0-1.144.606-1.162.865l-.039.526a.235.235 0 01-.258.217l-1.273-.127a.235.235 0 01-.211-.252l.038-.5c.113-1.504 1.258-2.476 2.918-2.476.867 0 1.597.243 2.11.704.522.467.797 1.134.797 1.929 0 1.408-.738 2.099-1.276 2.603z"/></symbol><symbol viewBox="0 0 10 16" id="slider-left" xmlns="http://www.w3.org/2000/svg"><path d="M.862 8.44l7.4 7.38a.62.62 0 00.876-.88L2.178 8l6.96-6.94a.62.62 0 10-.876-.88l-7.4 7.38a.62.62 0 000 .878z"/></symbol><symbol viewBox="0 0 10 16" id="slider-right" xmlns="http://www.w3.org/2000/svg"><path d="M9.138 7.56L1.738.18a.62.62 0 00-.876.88L7.822 8l-6.96 6.94a.62.62 0 10.876.879l7.4-7.38a.62.62 0 000-.878z"/></symbol><symbol viewBox="0 0 50 44" id="sources-other-1" xmlns="http://www.w3.org/2000/svg"><path d="M45.605 2.96A4.4 4.4 0 0150 7.354a4.4 4.4 0 01-4.394 4.395H8.788v2.93H0V.03h8.79v2.93zm-39.746 0H2.93v8.789h2.93zm39.746 5.86a1.466 1.466 0 000-2.93H8.79v2.93zm-4.395 20.5H50v14.648h-8.79v-2.93H4.396A4.4 4.4 0 010 36.645a4.4 4.4 0 014.395-4.394H41.21zm0 8.79v-2.93H4.396c-.808 0-1.465.657-1.465 1.464 0 .808.657 1.465 1.465 1.465zm2.93 2.929h2.93v-8.79h-2.93zm1.465-23.429A4.4 4.4 0 0150 22.004a4.4 4.4 0 01-4.394 4.395H29.393v2.93h-8.788v-2.93H4.395A4.4 4.4 0 010 22.004a4.4 4.4 0 014.395-4.394h16.21v-2.93h8.79v2.93zm-25 5.86v-2.93H4.395a1.466 1.466 0 000 2.929zm5.86-5.86h-2.93v8.789h2.93zm19.14 5.86a1.466 1.466 0 000-2.93h-16.21v2.93z"/></symbol><symbol viewBox="0 0 50 50" id="sources-other-2" xmlns="http://www.w3.org/2000/svg"><path d="M15.23 24.996c0 1.078.874 1.953 1.953 1.953h5.86v5.86a1.953 1.953 0 103.906 0v-5.86h5.86a1.953 1.953 0 000-3.907h-5.86v-5.859a1.953 1.953 0 00-3.907 0v5.86h-5.859a1.953 1.953 0 00-1.953 1.953zm.431-18.961l2.526-1.047a1.953 1.953 0 00-1.495-3.609l-2.526 1.047a1.953 1.953 0 001.495 3.609z"/><path d="M25 0a1.953 1.953 0 100 3.906c11.658 0 21.094 9.435 21.094 21.094 0 11.658-9.435 21.094-21.094 21.094-11.658 0-21.094-9.435-21.094-21.094A1.953 1.953 0 100 25c0 13.817 11.181 25 25 25 13.817 0 25-11.181 25-25C50 11.183 38.819 0 25 0zM9.114 11.048l1.934-1.934a1.953 1.953 0 10-2.762-2.762L6.352 8.286a1.953 1.953 0 102.762 2.762zm-6.678 8.196a1.953 1.953 0 002.552-1.056l1.047-2.527a1.953 1.953 0 00-3.61-1.495L1.38 16.692c-.413.997.06 2.14 1.057 2.552z"/></symbol><symbol viewBox="0 0 40 40" id="sourses-tab-1" xmlns="http://www.w3.org/2000/svg"><g clip-path="url(#nclip0)"><path d="M31.667 15.833c0 8.734-7.1 15.834-15.834 15.834-5.616 0-10.55-2.934-13.366-7.35a15.27 15.27 0 01-1.517-3.1c-.617-1.684-.95-3.5-.95-5.384C0 7.1 7.1 0 15.833 0 20.7 0 25.05 2.2 27.95 5.65L25.5 7.933a12.402 12.402 0 00-9.667-4.6c-6.9 0-12.5 5.6-12.5 12.5v.067c0 1.033.134 2.017.384 2.967a11.61 11.61 0 001.333 3.25c.433.733.917 1.416 1.467 2.033a12.444 12.444 0 009.316 4.183c6.6 0 12.017-5.133 12.45-11.616L29.8 15.3l1.717-1.583c.1.7.15 1.4.15 2.116z"/><path d="M38.334 40c-.427 0-.854-.163-1.179-.488l-12.31-12.31a1.665 1.665 0 010-2.357 1.665 1.665 0 012.357 0l12.31 12.31A1.665 1.665 0 0138.334 40zm1.133-37.117l-8.6 8.017-2.767 2.567-6.966 6.5c-.617.583-1.584.6-2.234.033l-5.583-4.883-8.267 7c-.6-1-1.05-2.084-1.333-3.25l8.533-7.217a1.67 1.67 0 012.184.017l5.533 4.833 6.933-6.45 2.534-2.367L37.2.45a1.646 1.646 0 012.35.083c.634.667.6 1.717-.083 2.35z"/><path d="M38.333 9.167c-.433 0-.86-.17-1.178-.489L31.32 2.845A1.667 1.667 0 0132.5 0h5.833C39.253 0 40 .747 40 1.667V7.5a1.67 1.67 0 01-1.667 1.667z"/></g><defs><clipPath id="nclip0"><path d="M0 0h40v40H0z"/></clipPath></defs></symbol><symbol viewBox="0 0 40 40" id="sourses-tab-2" xmlns="http://www.w3.org/2000/svg"><path d="M38.828 0H1.172C.525 0 0 .525 0 1.172V38.75c0 .647.525 1.172 1.172 1.172h37.656c.647 0 1.172-.525 1.172-1.172V1.172C40 .525 39.475 0 38.828 0zm-1.172 18.828H32.97a2.346 2.346 0 00-2.344 2.344v1.285c0 .667-.543 1.21-1.21 1.21a1.212 1.212 0 01-1.212-1.21v-1.285a2.346 2.346 0 00-2.344-2.344h-4.687v-4.687h1.285a3.559 3.559 0 003.554-3.555 3.559 3.559 0 00-3.554-3.555h-1.285V2.344h16.484v16.484zM2.344 2.344h16.484V7.03a2.346 2.346 0 002.344 2.344h1.285a1.212 1.212 0 010 2.422h-1.285a2.346 2.346 0 00-2.344 2.344v4.687H2.344V2.344zm0 18.828h16.484v4.687H17.54a3.559 3.559 0 00-3.555 3.555 3.559 3.559 0 003.555 3.555h1.29v4.61H2.343V21.171zm35.312 16.406H21.172v-4.61a2.346 2.346 0 00-2.344-2.343H17.54a1.212 1.212 0 01-1.21-1.21c0-.669.542-1.212 1.21-1.212h1.29a2.346 2.346 0 002.343-2.344v-4.687h4.687v1.285a3.559 3.559 0 003.555 3.554 3.559 3.559 0 003.555-3.554v-1.285h4.687v16.406z"/></symbol><symbol viewBox="0 0 40 40" id="sourses-tab-3" xmlns="http://www.w3.org/2000/svg"><path d="M31.776 16.536c-.48 0-.939-.09-1.364-.25v2.998c0 .502-.299.954-.761 1.15l-9.026 3.838V8.199a3.893 3.893 0 01-1.25.208c-.438 0-.857-.075-1.25-.208v16.072L9.1 20.434a1.247 1.247 0 01-.76-1.15v-2.998a3.892 3.892 0 01-2.5.081v2.917c0 1.507.896 2.861 2.283 3.45l10.003 4.254v3.563a3.893 3.893 0 011.25-.208c.438 0 .858.075 1.25.208v-3.563l10.004-4.253a3.744 3.744 0 002.283-3.451v-2.917c-.36.11-.74.17-1.136.17z"/><path d="M19.375 38.156a3.906 3.906 0 100-7.813 3.906 3.906 0 000 7.813zm0-29.749a3.906 3.906 0 100-7.812 3.906 3.906 0 000 7.812z"/><path d="M19.375 1.532a3.905 3.905 0 013.876 3.438 3.906 3.906 0 10-7.751 0 3.905 3.905 0 013.875-3.438zM6.974 16.536a3.906 3.906 0 100-7.812 3.906 3.906 0 000 7.812zm24.802 0a3.906 3.906 0 100-7.812 3.906 3.906 0 000 7.812zm-11.151-5.703a.312.312 0 00-.312.313v5.423c0 .173.14-.15.312-.15.173 0 .313.42.313.248v-5.521a.313.313 0 00-.313-.313z"/><path d="M35.995 12.63a4.224 4.224 0 00-4.219-4.219 4.223 4.223 0 00-4.218 4.22 4.224 4.224 0 002.541 3.869v2.784a.937.937 0 01-.57.863l-8.591 3.652v-7.432a.312.312 0 10-.625 0v7.905a.312.312 0 00.434.287l9.026-3.837a1.56 1.56 0 00.951-1.438V16.71c.337.087.689.138 1.052.138.282 0 .557-.03.823-.082v2.517a3.432 3.432 0 01-2.092 3.164L20.503 26.7a.312.312 0 00-.19.288v3.151a4.212 4.212 0 00-.938-.109c-.322 0-.635.04-.937.11v-3.152a.312.312 0 00-.19-.288L8.242 22.447a3.432 3.432 0 01-2.092-3.163v-2.517c.266.053.541.082.823.082.364 0 .715-.051 1.052-.138v2.573c0 .628.373 1.192.95 1.438l9.027 3.837a.307.307 0 00.294-.027.312.312 0 00.14-.26V8.612c.303.068.616.108.938.108.323 0 .636-.04.938-.109v2.93a.312.312 0 10.625 0V8.416a4.222 4.222 0 002.656-3.915A4.224 4.224 0 0019.375.282a4.223 4.223 0 00-4.218 4.22 4.222 4.222 0 002.656 3.914V23.8l-8.591-3.653a.935.935 0 01-.57-.862V16.5a4.223 4.223 0 002.541-3.87 4.223 4.223 0 00-4.219-4.219 4.223 4.223 0 00-4.218 4.22 4.221 4.221 0 002.77 3.956v2.697c0 1.633.97 3.1 2.473 3.738l9.814 4.173v3.139a4.222 4.222 0 00-2.656 3.915 4.223 4.223 0 004.218 4.219 4.223 4.223 0 004.22-4.219 4.222 4.222 0 00-2.657-3.915v-3.14l9.813-4.171a4.055 4.055 0 002.473-3.74v-2.696a4.222 4.222 0 002.771-3.957zM15.782 4.5A3.598 3.598 0 0119.375.908a3.598 3.598 0 013.594 3.594 3.598 3.598 0 01-3.594 3.594A3.598 3.598 0 0115.782 4.5zM3.38 12.63a3.598 3.598 0 013.593-3.594 3.598 3.598 0 013.594 3.594 3.598 3.598 0 01-3.594 3.594A3.598 3.598 0 013.38 12.63zm19.588 21.62a3.598 3.598 0 01-3.594 3.593 3.598 3.598 0 01-3.593-3.594 3.598 3.598 0 013.593-3.594 3.598 3.598 0 013.594 3.594zm8.807-18.026a3.598 3.598 0 01-3.593-3.594 3.598 3.598 0 013.593-3.594 3.598 3.598 0 013.594 3.594 3.598 3.598 0 01-3.594 3.594z"/></symbol><symbol viewBox="0 0 40 40" id="sourses-tab-4" xmlns="http://www.w3.org/2000/svg"><path d="M40 12.89c0-.467-.09-.922-.27-1.351v-.001l-3.907-9.375A3.507 3.507 0 0032.578 0H7.422C5.998 0 4.724.85 4.177 2.163L.27 11.54c-.18.43-.27.884-.27 1.352v4.843c0 .9.34 1.722.898 2.344A3.501 3.501 0 000 22.422v4.687c0 .9.34 1.722.898 2.344A3.501 3.501 0 000 31.797v4.687A3.52 3.52 0 003.516 40h32.968A3.52 3.52 0 0040 36.484v-4.687c0-.9-.34-1.721-.898-2.344A3.501 3.501 0 0040 27.11v-4.687c0-.9-.34-1.721-.898-2.344A3.501 3.501 0 0040 17.734v-4.843zM6.34 3.066a1.169 1.169 0 011.082-.721h25.156c.475 0 .9.283 1.082.72l2.63 6.311H3.71l2.63-6.31zm31.316 33.42c0 .645-.526 1.171-1.172 1.171H3.516a1.173 1.173 0 01-1.172-1.172v-4.687c0-.646.525-1.172 1.172-1.172h32.968c.646 0 1.172.526 1.172 1.172v4.687zm0-9.376c0 .646-.526 1.172-1.172 1.172H3.516a1.173 1.173 0 01-1.172-1.172v-4.687c0-.646.525-1.172 1.172-1.172h32.968c.646 0 1.172.526 1.172 1.172v4.687zm0-9.375c0 .646-.526 1.172-1.172 1.172H3.516a1.173 1.173 0 01-1.172-1.172v-4.843a1.17 1.17 0 011.172-1.172h32.968a1.17 1.17 0 011.172 1.172v4.843z"/></symbol><symbol viewBox="0 0 40 40" id="sourses-tab-5" xmlns="http://www.w3.org/2000/svg"><g clip-path="url(#rclip0)"><path d="M39.546 18.47L23.266 2.082a4.684 4.684 0 00-6.378-.014L.458 18.465a1.563 1.563 0 002.208 2.212l1.24-1.238V32.93a6.257 6.257 0 006.25 6.25h5.625c.863 0 1.563-.7 1.563-1.562V24.883h5.469v12.735c0 .863.7 1.562 1.562 1.562h5.469a6.257 6.257 0 006.25-6.25 1.563 1.563 0 00-3.125 0 3.129 3.129 0 01-3.125 3.125h-3.906V23.321c0-.863-.7-1.563-1.563-1.563h-8.594c-.863 0-1.562.7-1.562 1.563v12.734h-4.063a3.129 3.129 0 01-3.125-3.125V16.321L19.058 4.317a1.561 1.561 0 012.027.004L32.97 16.283v8.835a1.562 1.562 0 103.125 0v-5.69l1.235 1.244c.306.308.707.461 1.109.461a1.562 1.562 0 001.108-2.664z"/></g><defs><clipPath id="rclip0"><path d="M0 0h40v40H0z"/></clipPath></defs></symbol><symbol viewBox="0 0 40 40" id="sourses-tab-6" xmlns="http://www.w3.org/2000/svg"><path d="M36.484 1.25H3.516A3.52 3.52 0 000 4.766v23.437a3.52 3.52 0 003.516 3.516h10.17l-1.562 4.687H8.281a1.172 1.172 0 100 2.344H31.72a1.172 1.172 0 100-2.344h-3.843l-1.563-4.687h10.171A3.52 3.52 0 0040 28.203V4.766a3.52 3.52 0 00-3.516-3.516zm-21.89 35.156l1.563-4.687h7.686l1.562 4.687h-10.81zm23.062-8.203c0 .646-.526 1.172-1.172 1.172H3.516a1.173 1.173 0 01-1.172-1.172v-1.172h35.312v1.172zM12.78 17.953l-1.065-1.066 1.657-1.658 1.066 1.066a1.17 1.17 0 001.424.18 8.136 8.136 0 012.09-.869c.516-.133.877-.6.877-1.134v-1.503h2.344v1.503c0 .534.36 1 .878 1.134.727.189 1.43.482 2.09.87.46.271 1.045.197 1.423-.18l1.066-1.067 1.657 1.658-1.066 1.066a1.171 1.171 0 00-.18 1.423c.388.66.68 1.362.87 2.09.133.517.6.878 1.134.878h1.503v2.343H25.74a5.866 5.866 0 00-5.74-7.03 5.866 5.866 0 00-5.741 7.032H9.453v-2.344h1.503c.535 0 1.001-.361 1.135-.878a8.11 8.11 0 01.87-2.09 1.172 1.172 0 00-.181-1.424zm10.737 5.563c0 .4-.07.797-.202 1.172h-6.628A3.52 3.52 0 0120 20a3.52 3.52 0 013.516 3.516zm14.14 1.172h-4.765v-3.516c0-.647-.525-1.172-1.172-1.172h-1.81a10.5 10.5 0 00-.418-1.003l1.281-1.282a1.17 1.17 0 000-1.657l-3.314-3.315a1.172 1.172 0 00-1.657 0l-1.282 1.282a10.397 10.397 0 00-1.003-.418v-1.81c0-.647-.525-1.172-1.172-1.172h-4.688c-.647 0-1.172.525-1.172 1.172v1.81c-.34.122-.675.261-1.003.418L14.2 12.743a1.172 1.172 0 00-1.658 0l-3.314 3.315a1.172 1.172 0 000 1.657l1.281 1.282c-.157.328-.296.662-.417 1.003h-1.81c-.648 0-1.173.525-1.173 1.172v3.515H2.344V4.767c0-.646.526-1.172 1.172-1.172h32.968c.646 0 1.172.526 1.172 1.172v19.922z"/><path d="M31.719 5.938a3.52 3.52 0 00-3.516 3.515 3.52 3.52 0 003.516 3.516 3.52 3.52 0 003.515-3.516 3.52 3.52 0 00-3.515-3.515zm0 4.687a1.173 1.173 0 01-1.172-1.172c0-.646.526-1.172 1.172-1.172.646 0 1.172.526 1.172 1.172 0 .646-.526 1.172-1.172 1.172z"/></symbol><symbol viewBox="0 0 40 40" id="sourses-tab-7" xmlns="http://www.w3.org/2000/svg"><path d="M19.992 11.763c-4.597 0-8.337 3.74-8.337 8.337 0 4.597 3.74 8.337 8.337 8.337 4.597 0 8.337-3.74 8.337-8.337 0-4.597-3.74-8.337-8.337-8.337zm0 13.34A5.008 5.008 0 0114.99 20.1a5.008 5.008 0 015.002-5.002 5.007 5.007 0 015.002 5.002 5.008 5.008 0 01-5.002 5.002z"/><path d="M38.57 15.118l-4.74-.764 2.834-3.768a1.668 1.668 0 00-.145-2.174l-4.737-4.804a1.663 1.663 0 00-2.186-.165l-3.874 2.721-.75-4.668A1.666 1.666 0 0023.326.094h-6.67c-.83 0-1.533.61-1.65 1.43l-.78 4.726-3.853-2.818a1.664 1.664 0 00-2.163.165L3.491 8.299a1.667 1.667 0 00-.155 2.184L6.1 14.35l-4.668.666A1.666 1.666 0 000 16.667v6.67c0 .83.61 1.534 1.43 1.647l4.74.764-2.834 3.768c-.5.665-.435 1.594.154 2.182l4.718 4.719a1.665 1.665 0 002.183.153l3.865-2.763.667 4.67c.117.82.82 1.43 1.65 1.43h6.67c.83 0 1.534-.609 1.65-1.426l.764-4.74 3.769 2.834c.667.5 1.595.437 2.182-.153l4.719-4.719a1.667 1.667 0 00.153-2.182l-2.806-3.86 4.852-.567A1.665 1.665 0 0040 23.438v-6.67c0-.83-.61-1.533-1.43-1.65zm-1.903 6.835l-3.403.396c-1.239.162-2.274.993-2.66 2.063a3.348 3.348 0 00.379 3.345l1.964 2.61-2.671 2.67-2.621-1.972c-.966-.714-2.244-.856-3.23-.41a3.318 3.318 0 00-2.166 2.68l-.46 3.237h-3.778l-.462-3.216c-.162-1.24-.992-2.275-2.06-2.658a3.35 3.35 0 00-3.347.377l-2.61 1.964-2.67-2.671 1.972-2.621c.712-.962.853-2.24.41-3.23a3.317 3.317 0 00-2.683-2.166l-3.236-.46v-3.778l3.218-.462c1.238-.162 2.274-.992 2.657-2.061a3.352 3.352 0 00-.375-3.347L6.873 9.636l2.68-2.671 2.695 1.97c.964.714 2.24.851 3.23.41a3.315 3.315 0 002.163-2.68l.462-3.238h3.803l.517 3.214c.16 1.24.988 2.278 2.062 2.665a3.35 3.35 0 003.34-.375l2.604-1.948 2.71 2.745-1.98 2.629c-.711.962-.853 2.24-.41 3.231a3.315 3.315 0 002.682 2.163l3.236.462v3.74z"/></symbol><symbol viewBox="0 0 16 16" id="telegram" xmlns="http://www.w3.org/2000/svg"><path d="M14.629 3.698l-2.012 9.618c-.152.679-.548.848-1.11.528l-3.066-2.29-1.48 1.442c-.163.166-.3.305-.616.305l.22-3.165 5.683-5.204c.247-.223-.054-.347-.384-.123L4.839 9.29l-3.024-.959c-.658-.208-.67-.667.137-.986L13.78 2.727c.548-.208 1.027.124.849.971z"/></symbol><symbol viewBox="0 0 16 16" id="viber" xmlns="http://www.w3.org/2000/svg"><path d="M8 1.335c-1.071.013-3.374.19-4.662 1.37-.958.948-1.292 2.35-1.331 4.084-.033 1.728-.072 4.973 3.058 5.856v1.346s-.02.538.337.648c.438.14.688-.275 1.105-.72l.778-.879c2.142.178 3.782-.232 3.97-.293.435-.139 2.883-.451 3.283-3.696.41-3.351-.2-5.463-1.301-6.418h-.007c-.332-.306-1.668-1.279-4.652-1.29 0 0-.222-.014-.578-.008zm.037.942a7.02 7.02 0 01.488.011c2.527.007 3.732.767 4.017 1.023.927.794 1.405 2.697 1.055 5.495-.332 2.713-2.317 2.885-2.685 3.002-.156.05-1.6.406-3.42.289 0 0-1.356 1.634-1.78 2.055-.067.074-.146.095-.196.085-.071-.018-.093-.107-.089-.229l.013-2.233c-2.655-.733-2.498-3.5-2.47-4.946.033-1.446.304-2.628 1.113-3.43 1.088-.982 3.043-1.115 3.953-1.122zm.2 1.446a.166.166 0 100 .332 3.136 3.136 0 012.242.883c.606.588.9 1.378.912 2.411 0 .092.074.167.167.167V7.51a.167.167 0 00.168-.165 3.588 3.588 0 00-1.009-2.646c-.66-.645-1.496-.977-2.48-.977zm-2.198.382a.523.523 0 00-.342.067H5.69a2.61 2.61 0 00-.637.523 1.003 1.003 0 00-.256.525.71.71 0 00.026.302l.01.006c.172.504.396.988.67 1.444a8.48 8.48 0 001.29 1.762l.015.022.024.017.015.018.017.015c.532.505 1.127.94 1.769 1.295.734.4 1.18.588 1.447.667v.004c.078.024.15.034.221.034.228-.016.444-.109.613-.262a2.53 2.53 0 00.517-.638v-.004c.128-.241.085-.469-.1-.623-.37-.323-.77-.61-1.195-.857-.285-.155-.574-.061-.69.095l-.25.315c-.129.156-.361.134-.361.134l-.007.004C7.093 8.527 6.63 6.772 6.63 6.772s-.022-.239.139-.36l.312-.252c.15-.122.254-.41.094-.695a7.498 7.498 0 00-.856-1.194.475.475 0 00-.28-.167zm2.486.495c-.221 0-.221.334.003.334A2.098 2.098 0 0110 5.572 1.94 1.94 0 0110.5 7a.168.168 0 00.167.165l.007.009a.169.169 0 00.167-.167c.015-.662-.191-1.218-.595-1.663C9.84 4.9 9.273 4.65 8.549 4.6h-.024zm.274.898c-.228-.006-.236.335-.01.341.55.029.816.306.851.877a.166.166 0 00.165.163h.007a.168.168 0 00.16-.178c-.039-.744-.445-1.164-1.166-1.202H8.8z"/></symbol><symbol viewBox="0 0 24 24" id="vk" xmlns="http://www.w3.org/2000/svg"><path d="M21.579 6.855c.14-.465 0-.806-.662-.806h-2.193c-.558 0-.813.295-.953.619 0 0-1.115 2.719-2.695 4.482-.51.513-.743.675-1.021.675-.139 0-.341-.162-.341-.627V6.855c0-.558-.161-.806-.626-.806H9.642c-.348 0-.558.258-.558.504 0 .528.79.65.871 2.138v3.228c0 .707-.127.836-.407.836-.743 0-2.551-2.73-3.624-5.853-.209-.607-.42-.852-.98-.852H2.752c-.627 0-.752.295-.752.619 0 .582.743 3.462 3.461 7.27 1.812 2.602 4.363 4.012 6.687 4.012 1.393 0 1.565-.313 1.565-.853v-1.966c0-.626.133-.752.574-.752.324 0 .882.164 2.183 1.417 1.486 1.486 1.732 2.153 2.567 2.153h2.192c.626 0 .939-.313.759-.931-.197-.615-.907-1.51-1.849-2.57-.512-.603-1.277-1.253-1.51-1.578-.325-.42-.231-.604 0-.976.001 0 2.672-3.761 2.95-5.04z"/></symbol><symbol viewBox="0 0 16 16" id="whatsapp" xmlns="http://www.w3.org/2000/svg"><path fill-rule="evenodd" clip-rule="evenodd" d="M12.269 3.755A5.947 5.947 0 008.035 2 5.994 5.994 0 002.05 7.985a5.98 5.98 0 00.799 2.992L2 14.077l3.173-.832c.877.477 1.86.728 2.86.728h.002a5.993 5.993 0 005.533-8.276 5.953 5.953 0 00-1.3-1.942zm-4.234 9.208h-.002c-.89 0-1.765-.24-2.532-.694l-.181-.108-1.883.494.502-1.835-.118-.188a4.965 4.965 0 01-.76-2.647 4.982 4.982 0 016.88-4.597c.604.25 1.152.618 1.613 1.081a4.946 4.946 0 011.455 3.52 4.982 4.982 0 01-4.974 4.974zm2.729-3.726c-.15-.075-.885-.436-1.022-.486-.137-.05-.236-.075-.336.074-.1.15-.387.486-.474.586-.087.1-.175.112-.324.038-.15-.075-.631-.233-1.203-.742a4.505 4.505 0 01-.832-1.036c-.087-.15-.009-.231.066-.306.068-.066.15-.174.224-.262.075-.087.1-.149.15-.249.05-.1.025-.187-.013-.262-.037-.075-.337-.811-.461-1.11-.121-.29-.244-.252-.336-.256a6.418 6.418 0 00-.286-.005.55.55 0 00-.4.186c-.137.15-.523.512-.523 1.248s.536 1.447.61 1.547c.075.1 1.055 1.61 2.555 2.258.358.154.636.246.853.315.358.114.684.098.942.06.287-.043.885-.362 1.01-.711.124-.35.124-.649.087-.711-.038-.063-.138-.101-.287-.176z"/></symbol></svg>