<svg width="20" height="20" viewBox="0 0 20 20" fill="none" xmlns="http://www.w3.org/2000/svg">
<g clip-path="url(#clip0)">
<path d="M9.99993 0C7.22466 0 4.95361 2.25793 4.95361 5.03327V16.3248C4.95361 18.3513 6.60884 20 8.63536 20C10.6619 20 12.3171 18.3513 12.3171 16.3248V6.46194C12.3171 5.18425 11.2776 4.14476 9.99993 4.14476C8.72224 4.14476 7.68275 5.18425 7.68275 6.46194V15.0005C7.68275 15.427 8.02857 15.7729 8.45513 15.7729C8.88169 15.7729 9.22751 15.427 9.22751 15.0005V6.46194C9.22751 6.03604 9.574 5.68956 9.99989 5.68956C10.4258 5.68956 10.7723 6.03604 10.7723 6.46194V16.3248C10.7723 17.4995 9.81001 18.4552 8.63533 18.4552C7.46064 18.4552 6.49838 17.4995 6.49838 16.3248V5.03327C6.49838 3.10976 8.07638 1.5448 9.99993 1.5448C11.9235 1.5448 13.5015 3.10972 13.5015 5.03327V15.6017C13.5015 16.0283 13.8473 16.3741 14.2739 16.3741C14.7004 16.3741 15.0463 16.0283 15.0463 15.6017V5.03327C15.0463 2.25793 12.7752 0 9.99993 0Z" fill="#584475"/>
</g>
<defs>
<clipPath id="clip0">
<rect width="20" height="20" fill="white"/>
</clipPath>
</defs>
</svg>
