<svg width="20" height="20" viewBox="0 0 20 20" fill="none" xmlns="http://www.w3.org/2000/svg">
<g clip-path="url(#clip0)">
<path d="M19.7909 7.35229L14.7908 2.3522C14.5118 2.07329 14.0596 2.07337 13.7806 2.35236C13.6468 2.4863 13.5715 2.66786 13.5715 2.85724V5.00013H8.57141C8.1769 5.00013 7.8571 5.31994 7.8571 5.71444C7.8571 6.10895 8.1769 6.42876 8.57141 6.42876H14.2858C14.6803 6.42876 15.0001 6.10895 15.0001 5.71444V4.58152L18.2759 7.85729L15.0001 11.1331V10.0002C15.0001 9.60568 14.6803 9.28587 14.2858 9.28587H6.42852V7.14298C6.42843 6.74847 6.10855 6.42876 5.71408 6.42884C5.52474 6.42888 5.34313 6.50409 5.2092 6.63798L0.209152 11.6381C-0.0697172 11.917 -0.0697172 12.3692 0.209152 12.6481L5.20925 17.6482C5.34318 17.7821 5.52482 17.8574 5.71425 17.8575C5.80813 17.8578 5.90117 17.8393 5.9878 17.8032C6.25466 17.6925 6.4286 17.4321 6.42852 17.1432V15.0003H11.4286C11.8231 15.0003 12.1429 14.6805 12.1429 14.286C12.1429 13.8915 11.8231 13.5717 11.4286 13.5717H5.71425C5.31974 13.5717 4.99994 13.8915 4.99994 14.286V15.4189L1.72416 12.1431L4.99994 8.8673V10.0002C4.99994 10.3947 5.31974 10.7145 5.71425 10.7145H13.5715V12.8574C13.5716 13.2519 13.8915 13.5716 14.2859 13.5715C14.4753 13.5715 14.6569 13.4963 14.7908 13.3624L19.7909 8.3623C20.0697 8.08334 20.0697 7.6312 19.7909 7.35229Z" fill="#3C3249"/>
</g>
<defs>
<clipPath id="clip0">
<rect width="20" height="20" fill="white"/>
</clipPath>
</defs>
</svg>
