<svg width="10" height="6" viewBox="0 0 10 6" fill="none" xmlns="http://www.w3.org/2000/svg">
<path d="M5.3902 5.77839L9.84025 1.32826C9.94325 1.22534 10 1.08794 10 0.941436C10 0.794934 9.94325 0.657536 9.84025 0.55461L9.51261 0.226889C9.29911 0.0136391 8.95212 0.0136391 8.73895 0.226889L5.00207 3.96377L1.26105 0.222743C1.15804 0.119817 1.02072 0.0629879 0.874302 0.0629879C0.727717 0.0629879 0.590401 0.119817 0.487312 0.222743L0.159754 0.550464C0.0567474 0.653471 -3.18131e-08 0.790787 -3.8217e-08 0.93729C-4.46208e-08 1.08379 0.0567474 1.22119 0.159754 1.32412L4.61386 5.77839C4.7172 5.88156 4.85516 5.93823 5.00183 5.9379C5.14906 5.93823 5.28695 5.88156 5.3902 5.77839Z" fill="#1DC9B7"/>
</svg>
