<svg width="18" height="18" viewBox="0 0 18 18" fill="none" xmlns="http://www.w3.org/2000/svg">
<path d="M9.04558 0.000140625C9.04495 0.000140625 9.04435 0.000140625 9.04372 0.000105469C9.04083 0.000105469 9.03799 0 9.03514 0C9.03472 0 9.0343 0 9.03387 0C9.03275 0 9.03159 3.51562e-05 9.03046 3.51562e-05C4.07059 0.0025664 0 4.01666 0 8.96483C0 10.1748 0.240996 11.3531 0.716342 12.467C1.63663 14.6238 3.37158 16.3613 5.53292 17.2836C6.64673 17.7589 7.82489 17.9999 9.03465 17.9999C9.03496 17.9999 9.03528 18 9.0356 18C9.0364 18 9.03725 17.9999 9.03806 17.9999C14.0145 17.9983 18 13.8982 18 8.96483C18 4.01744 14.0007 0.00573046 9.04558 0.000140625ZM7.28847 1.24604C6.38914 2.09865 5.65434 3.09722 5.10102 4.21874H2.65482C3.77669 2.74078 5.40832 1.66377 7.28847 1.24604ZM1.9788 5.2664H4.65035C4.28146 6.27703 4.06335 7.35422 4.00707 8.43748H1.07286C1.14869 7.30095 1.46774 6.2224 1.9788 5.2664ZM1.99866 12.7265C1.47519 11.7513 1.14883 10.6554 1.07258 9.49217H4.00348C4.05382 10.5994 4.27355 11.694 4.65042 12.7265H1.99866ZM2.6764 13.7812H5.10102C5.65329 14.9007 6.38707 15.8989 7.28612 16.7517C5.41887 16.3325 3.79711 15.2572 2.6764 13.7812ZM5.05971 9.49217H8.50776V12.7265H5.78762C5.36652 11.712 5.11628 10.62 5.05971 9.49217ZM8.50783 16.422C7.61121 15.6754 6.8678 14.779 6.30245 13.7812H8.5078V16.422H8.50783ZM8.50783 8.43748H5.06326C5.12651 7.33453 5.37531 6.26687 5.78769 5.27343H8.50783V8.43748ZM8.50783 4.21874H6.30252C6.86783 3.22101 7.61124 2.32453 8.50783 1.57795V4.21874ZM16.0293 5.27343C16.5359 6.22943 16.8521 7.30095 16.9273 8.43748H14.0632C14.0069 7.35422 13.7888 6.28406 13.4199 5.27343H16.0293ZM15.3593 4.21874H12.9693C12.4174 3.10018 11.6845 2.10273 10.7865 1.2504C12.6416 1.67136 14.2512 2.74605 15.3593 4.21874ZM9.56252 1.57816C10.4591 2.32474 11.2028 3.22101 11.7681 4.21874H9.56252V1.57816ZM9.56248 5.27343H12.2833C12.6956 6.2668 12.9438 7.3346 13.0071 8.43748H9.56248V5.27343ZM13.0109 9.48514C12.9544 10.6129 12.7044 11.7121 12.2833 12.7265H9.56248V9.48514H13.0109ZM9.56252 16.4218V13.7742H11.7681C11.2028 14.7719 10.4591 15.6752 9.56252 16.4218ZM10.7889 16.7473C11.6851 15.8961 12.4176 14.8925 12.9693 13.7742H15.3378C14.2311 15.2448 12.6313 16.3249 10.7889 16.7473ZM13.4199 12.7265C13.7968 11.694 14.0165 10.5924 14.0669 9.48514H16.9276C16.852 10.6484 16.5285 11.7513 16.0097 12.7265H13.4199Z" fill="white"/>
</svg>
