<svg width="26" height="26" viewBox="0 0 26 26" fill="none" xmlns="http://www.w3.org/2000/svg">
<path d="M12.9984 0.270508C5.82075 0.270508 0 6.11401 0 13.3225C0 19.088 3.7245 23.9793 8.892 25.7066C9.542 25.8269 9.77925 25.4239 9.77925 25.0778C9.77925 24.7674 9.76787 23.9468 9.76138 22.858C6.14575 23.6461 5.382 21.1079 5.382 21.1079C4.79213 19.5999 3.939 19.1985 3.939 19.1985C2.75763 18.3893 4.02675 18.4055 4.02675 18.4055C5.33162 18.4981 6.01737 19.751 6.01737 19.751C7.17763 21.7449 9.061 21.1696 9.802 20.8349C9.919 19.9915 10.2554 19.4163 10.6275 19.0896C7.7415 18.7598 4.706 17.6401 4.706 12.64C4.706 11.2149 5.213 10.0498 6.045 9.13651C5.91013 8.80663 5.46488 7.47901 6.17175 5.68338C6.17175 5.68338 7.26375 5.33238 9.74675 7.02076C10.7835 6.73151 11.895 6.58688 13.0016 6.58201C14.105 6.58851 15.2181 6.73151 16.2565 7.02238C18.7379 5.33401 19.8282 5.68501 19.8282 5.68501C20.5367 7.48226 20.0915 8.80826 19.9583 9.13813C20.7919 10.0514 21.294 11.2165 21.294 12.6416C21.294 17.6548 18.2552 18.7581 15.3595 19.0815C15.8259 19.4845 16.2419 20.2808 16.2419 21.4979C16.2419 23.2431 16.2256 24.6504 16.2256 25.0778C16.2256 25.4271 16.4596 25.8334 17.1194 25.705C22.2787 23.976 26 19.0864 26 13.3225C26 6.11401 20.1793 0.270508 12.9984 0.270508Z" fill="#736786"/>
</svg>
