<svg width="30" height="30" viewBox="0 0 30 30" fill="none" xmlns="http://www.w3.org/2000/svg">
<path d="M15 0C6.72914 0 0 6.72914 0 15C0 23.2709 6.72914 30 15 30C23.2709 30 30 23.2709 30 15C30 6.72914 23.2709 0 15 0ZM17.5 24.375C17.5 24.7205 17.2205 25 16.875 25H13.125C12.7795 25 12.5 24.7205 12.5 24.375V15H11.875C11.5295 15 11.2499 14.7204 11.2499 14.375V11.875C11.2499 11.5295 11.5295 11.2499 11.875 11.2499H16.875C17.2205 11.2499 17.5 11.5295 17.5 11.875V24.375ZM15 10C13.6212 10 12.5 8.87883 12.5 7.5C12.5 6.12117 13.6212 4.99998 15 4.99998C16.3788 4.99998 17.5 6.12117 17.5 7.5C17.5 8.87883 16.3788 10 15 10Z" fill="#1DC9B7"/>
</svg>
