<svg width="18" height="18" viewBox="0 0 18 18" fill="none" xmlns="http://www.w3.org/2000/svg">
<g clip-path="url(#clip0)">
<path d="M9 0.374512C4.03875 0.374512 0 3.67301 0 7.72676C0 11.3575 3.2025 14.3995 7.52625 14.9778C7.8195 15.04 8.2185 15.1728 8.31975 15.4233C8.40975 15.6505 8.379 16.0015 8.34825 16.2385L8.22525 17.008C8.1915 17.2353 8.04525 17.9028 9.012 17.4948C9.98025 17.0883 14.199 14.4168 16.089 12.2305C17.382 10.8055 18 9.34526 18 7.72676C18 3.67301 13.9613 0.374512 9 0.374512ZM5.47725 10.1373H3.68775C3.429 10.1373 3.21525 9.92201 3.21525 9.66251V6.06176C3.21525 5.80151 3.429 5.58626 3.68775 5.58626C3.94875 5.58626 4.16025 5.80151 4.16025 6.06176V9.18701H5.47725C5.73825 9.18701 5.949 9.40076 5.949 9.66251C5.949 9.92201 5.7375 10.1373 5.47725 10.1373ZM7.32675 9.66251C7.32675 9.92201 7.11525 10.1373 6.8535 10.1373C6.59475 10.1373 6.38325 9.92201 6.38325 9.66251V6.06176C6.38325 5.80151 6.59475 5.58626 6.85575 5.58626C7.11525 5.58626 7.32675 5.80151 7.32675 6.06176V9.66251ZM11.6325 9.66251C11.6325 9.86651 11.502 10.0473 11.3085 10.1125C11.2605 10.1283 11.2087 10.1358 11.1593 10.1358C11.001 10.1358 10.866 10.0675 10.7768 9.94676L8.9445 7.44326V9.66176C8.9445 9.92126 8.73525 10.1365 8.47125 10.1365C8.21175 10.1365 8.00175 9.92126 8.00175 9.66176V6.06176C8.00175 5.85776 8.1315 5.67701 8.32425 5.61251C8.36925 5.59526 8.42625 5.58776 8.46975 5.58776C8.616 5.58776 8.751 5.66651 8.841 5.77976L10.6875 8.29301V6.06176C10.6875 5.80151 10.899 5.58626 11.16 5.58626C11.4187 5.58626 11.6325 5.80151 11.6325 6.06176V9.66251ZM14.5238 7.38626C14.7855 7.38626 14.9963 7.60151 14.9963 7.86251C14.9963 8.12276 14.7855 8.33801 14.5238 8.33801H13.2075V9.18701H14.5238C14.7855 9.18701 14.9963 9.40076 14.9963 9.66251C14.9963 9.92201 14.7855 10.1373 14.5238 10.1373H12.7343C12.4755 10.1373 12.264 9.92201 12.264 9.66251V6.06176C12.264 5.80151 12.4755 5.58626 12.7365 5.58626H14.526C14.7855 5.58626 14.9963 5.80151 14.9963 6.06176C14.9963 6.32501 14.7855 6.53726 14.5238 6.53726H13.2075V7.38626H14.5238Z" fill="white"/>
</g>
<defs>
<clipPath id="clip0">
<rect width="18" height="18" fill="white"/>
</clipPath>
</defs>
</svg>
