<svg width="14" height="16" viewBox="0 0 14 16" fill="none" xmlns="http://www.w3.org/2000/svg">
<path d="M11.5714 5.33332H10.8095V3.8095C10.8095 1.70668 9.10283 0 6.99997 0C4.89712 0 3.19044 1.70668 3.19044 3.80954V5.33336H2.42855C1.58665 5.33336 0.904724 6.01525 0.904724 6.85718V14.4762C0.904724 15.3181 1.58665 16 2.42855 16H11.5714C12.4133 16 13.0952 15.3181 13.0952 14.4762V6.85714C13.0952 6.01525 12.4133 5.33332 11.5714 5.33332ZM6.99997 12.1905C6.15808 12.1905 5.47615 11.5086 5.47615 10.6666C5.47615 9.82475 6.15808 9.14286 6.99997 9.14286C7.84187 9.14286 8.52379 9.82475 8.52379 10.6667C8.52379 11.5086 7.84187 12.1905 6.99997 12.1905ZM9.36187 5.33332H4.63808V3.8095C4.63808 2.50664 5.69712 1.44761 6.99997 1.44761C8.30283 1.44761 9.36187 2.50664 9.36187 3.8095V5.33332Z" fill="#584475"/>
</svg>
