<svg width="26" height="26" viewBox="0 0 26 26" fill="none" xmlns="http://www.w3.org/2000/svg">
<path d="M13.0007 0C5.82125 0 0.00100708 5.82042 0.00100708 12.9999C0.00100708 20.1791 5.82125 26 13.0007 26C20.1802 26 26.0008 20.1791 26.0008 12.9999C26.0008 5.82042 20.1802 0 13.0007 0ZM13.001 4.56617L20.6938 9.36321H5.30809L13.001 4.56617ZM20.7897 17.0235H20.7889C20.7889 17.7929 20.1653 18.4164 19.396 18.4164H6.60594C5.8365 18.4164 5.21302 17.7928 5.21302 17.0235V9.66846C5.21302 9.58708 5.22134 9.50795 5.23486 9.43021L12.585 14.0134C12.594 14.0191 12.6036 14.0229 12.6129 14.0281C12.6226 14.0335 12.6325 14.0387 12.6423 14.0436C12.6942 14.0704 12.7477 14.092 12.8024 14.1061C12.808 14.1077 12.8137 14.1083 12.8193 14.1096C12.8793 14.1238 12.94 14.1326 13.0007 14.1326H13.0011C13.0016 14.1326 13.002 14.1326 13.002 14.1326C13.0627 14.1326 13.1234 14.124 13.1834 14.1096C13.189 14.1083 13.1947 14.1077 13.2003 14.1061C13.2549 14.092 13.3082 14.0704 13.3604 14.0436C13.3703 14.0387 13.3801 14.0335 13.3898 14.0281C13.399 14.0229 13.4087 14.0191 13.4177 14.0134L20.7678 9.43021C20.7814 9.50795 20.7897 9.5869 20.7897 9.66846V17.0235Z" fill="#736786"/>
</svg>
