<svg width="18" height="18" viewBox="0 0 18 18" fill="none" xmlns="http://www.w3.org/2000/svg">
<g clip-path="url(#clip0)">
<path d="M8.99929 12.4612C9.95134 12.4612 10.7661 12.1223 11.4439 11.4447C12.1217 10.7671 12.4606 9.95195 12.4606 8.99998V3.46163C12.4606 2.50966 12.1219 1.69484 11.4439 1.01691C10.7661 0.339135 9.95134 0 8.99929 0C8.04736 0 7.23251 0.339135 6.55462 1.01691C5.87669 1.69473 5.53778 2.50966 5.53778 3.46163V8.99998C5.53778 9.95192 5.87684 10.7671 6.55462 11.4447C7.23239 12.1223 8.04736 12.4612 8.99929 12.4612Z" fill="white"/>
<path d="M15.0241 7.12892C14.8875 6.99188 14.7249 6.92334 14.5373 6.92334C14.35 6.92334 14.1878 6.99188 14.0506 7.12892C13.9137 7.26592 13.8452 7.42816 13.8452 7.61559V9.00028C13.8452 10.3345 13.3709 11.4756 12.4226 12.4239C11.4746 13.3722 10.3333 13.8464 8.99904 13.8464C7.66485 13.8464 6.52367 13.3722 5.57529 12.4239C4.62703 11.4759 4.15294 10.3345 4.15294 9.00028V7.61559C4.15294 7.42816 4.0844 7.26592 3.94744 7.12892C3.8104 6.99188 3.64831 6.92334 3.46069 6.92334C3.27307 6.92334 3.11079 6.99188 2.97383 7.12892C2.83675 7.26592 2.76825 7.42816 2.76825 7.61559V9.00028C2.76825 10.594 3.3002 11.9805 4.36379 13.1595C5.42742 14.3385 6.74171 15.0145 8.30671 15.1875V16.6155H5.53752C5.35001 16.6155 5.18777 16.6841 5.05077 16.8212C4.91373 16.9581 4.84519 17.1204 4.84519 17.3079C4.84519 17.4951 4.91373 17.6577 5.05077 17.7946C5.18777 17.9316 5.35001 18.0003 5.53752 18.0003H12.4604C12.6478 18.0003 12.8103 17.9316 12.9471 17.7946C13.0843 17.6578 13.1529 17.4951 13.1529 17.3079C13.1529 17.1204 13.0843 16.9581 12.9471 16.8212C12.8103 16.6841 12.6479 16.6155 12.4604 16.6155H9.69152V15.1875C11.2563 15.0145 12.5704 14.3385 13.6342 13.1595C14.6979 11.9805 15.23 10.594 15.23 9.00028V7.61559C15.23 7.4282 15.1613 7.26607 15.0241 7.12892Z" fill="white"/>
</g>
<defs>
<clipPath id="clip0">
<rect width="18" height="18" fill="white"/>
</clipPath>
</defs>
</svg>
