<svg width="14" height="14" viewBox="0 0 14 14" fill="none" xmlns="http://www.w3.org/2000/svg">
<g clip-path="url(#clip0)">
<path d="M10.0625 7H8.3125C8.07086 7 7.875 7.19586 7.875 7.4375V10.9375C7.875 11.1791 8.07086 11.375 8.3125 11.375H10.0625C10.5457 11.375 10.9375 10.9832 10.9375 10.5V7.875C10.9375 7.39175 10.5457 7 10.0625 7ZM10.0625 10.5H8.75V7.875H10.0625V10.5Z" fill="white"/>
<path d="M14 7.875V7H11.8125C11.5709 7 11.375 7.19586 11.375 7.4375V11.375H12.25V9.625H14V8.75H12.25V7.875H14Z" fill="white"/>
<path d="M0.875 12.6873V1.31226C0.875 1.07063 1.07086 0.874763 1.3125 0.874763H7.875V2.62476C7.875 3.10801 8.26675 3.49976 8.75 3.49976H10.5V4.81226H11.375V3.06226C11.3757 2.94597 11.33 2.83419 11.2481 2.75164L8.62312 0.126638C8.54057 0.0447433 8.42879 -0.00089341 8.3125 -0.00023716H1.3125C0.587617 -0.00023716 0 0.587407 0 1.31226V12.6873C0 13.4121 0.587617 13.9998 1.3125 13.9998H4.375V13.1248H1.3125C1.07089 13.1248 0.875 12.9289 0.875 12.6873Z" fill="white"/>
<path d="M6.5625 7H4.8125C4.57086 7 4.375 7.19586 4.375 7.4375V11.375H5.25V10.0625H6.5625C7.04575 10.0625 7.4375 9.67075 7.4375 9.1875V7.875C7.4375 7.39175 7.04575 7 6.5625 7ZM6.5625 9.1875H5.25V7.875H6.5625V9.1875Z" fill="white"/>
</g>
<defs>
<clipPath id="clip0">
<rect width="14" height="14" fill="white"/>
</clipPath>
</defs>
</svg>
