<svg width="50" height="50" viewBox="0 0 50 50" fill="none" xmlns="http://www.w3.org/2000/svg">
<path d="M33.2466 24.0225L22.8643 16.4754C22.4832 16.1992 21.9774 16.1576 21.5598 16.3722C21.1389 16.5852 20.876 17.0178 20.876 17.4853V32.5746C20.876 33.0472 21.1389 33.4781 21.5598 33.6911C21.7378 33.7809 21.9325 33.8259 22.1288 33.8259C22.3851 33.8259 22.6446 33.7443 22.8643 33.5829L33.2466 26.0424C33.5744 25.8012 33.7657 25.4285 33.7657 25.0325C33.7674 24.6298 33.5711 24.2588 33.2466 24.0225Z" fill="#1DC9B7"/>
<path d="M25.0008 0.0032959C11.191 0.0032959 0 11.1943 0 25.0041C0 38.809 11.191 49.9966 25.0008 49.9966C38.8074 49.9966 50 38.8073 50 25.0041C50.0017 11.1943 38.8074 0.0032959 25.0008 0.0032959ZM25.0008 45.8254C13.5004 45.8254 4.17623 36.5062 4.17623 25.0041C4.17623 13.507 13.5004 4.1762 25.0008 4.1762C36.4996 4.1762 45.8221 13.5053 45.8221 25.0041C45.8238 36.5062 36.4996 45.8254 25.0008 45.8254Z" fill="#1DC9B7"/>
</svg>
