<svg width="18" height="18" viewBox="0 0 18 18" fill="none" xmlns="http://www.w3.org/2000/svg">
<path d="M15.3872 0H2.61216C1.33117 0 0.289429 1.04174 0.289429 2.32273V12.775C0.289429 14.056 1.33117 15.0977 2.61216 15.0977V17.4193C2.61216 17.6446 2.74223 17.849 2.94663 17.9454C3.02444 17.9814 3.10922 18 3.19284 18C3.3264 18 3.4588 17.9547 3.56448 17.8653L6.88715 15.0977H15.3872C16.6682 15.0977 17.7099 14.056 17.7099 12.775V2.32273C17.7099 1.04174 16.6682 0 15.3872 0ZM4.35421 6.96819C5.31466 6.96819 6.09626 7.74979 6.09626 8.71024C6.09626 9.67069 5.31466 10.4523 4.35421 10.4523H3.19284C2.87231 10.4523 2.61216 10.1921 2.61216 9.8716C2.61216 9.55107 2.87231 9.29092 3.19284 9.29092H4.35421C4.67475 9.29092 4.93489 9.03078 4.93489 8.71024C4.93489 8.3897 4.67475 8.12956 4.35421 8.12956C3.39376 8.12956 2.61216 7.34796 2.61216 6.38751C2.61216 5.42706 3.39376 4.64546 4.35421 4.64546H5.51557C5.83611 4.64546 6.09626 4.90561 6.09626 5.22614C6.09626 5.54668 5.83611 5.80683 5.51557 5.80683H4.35421C4.03367 5.80683 3.77353 6.06697 3.77353 6.38751C3.77353 6.70805 4.03367 6.96819 4.35421 6.96819ZM10.7417 9.8716C10.7417 10.1921 10.4816 10.4523 10.161 10.4523C9.8405 10.4523 9.58035 10.1921 9.58035 9.8716V7.68592L9.5188 7.80902C9.32137 8.20272 8.67681 8.20272 8.47938 7.80902L8.41899 7.68592V9.8716C8.41899 10.1921 8.15884 10.4523 7.8383 10.4523C7.51777 10.4523 7.25762 10.1921 7.25762 9.8716V5.22614C7.25762 4.95671 7.44344 4.72211 7.70475 4.66056C7.96373 4.59785 8.23665 4.7256 8.35744 4.966L8.99967 6.25047L9.6419 4.96716C9.76153 4.72443 10.0275 4.59901 10.2946 4.66056C10.5571 4.72211 10.7417 4.95671 10.7417 5.22614V9.8716ZM13.6451 6.96819C14.6056 6.96819 15.3872 7.74979 15.3872 8.71024C15.3872 9.67069 14.6056 10.4523 13.6451 10.4523H12.4838C12.1632 10.4523 11.9031 10.1921 11.9031 9.8716C11.9031 9.55107 12.1632 9.29092 12.4838 9.29092H13.6451C13.9645 9.29092 14.2258 9.03078 14.2258 8.71024C14.2258 8.3897 13.9645 8.12956 13.6451 8.12956C12.6847 8.12956 11.9031 7.34796 11.9031 6.38751C11.9031 5.42706 12.6847 4.64546 13.6451 4.64546H14.8065C15.127 4.64546 15.3872 4.90561 15.3872 5.22614C15.3872 5.54668 15.127 5.80683 14.8065 5.80683H13.6451C13.3258 5.80683 13.0644 6.06697 13.0644 6.38751C13.0644 6.70805 13.3258 6.96819 13.6451 6.96819Z" fill="white"/>
</svg>
