<svg width="40" height="40" viewBox="0 0 40 40" fill="none" xmlns="http://www.w3.org/2000/svg">
<path d="M38.8281 0H1.17188C0.524597 0 0 0.524597 0 1.17188V38.75C0 39.3973 0.524597 39.9219 1.17188 39.9219H38.8281C39.4754 39.9219 40 39.3973 40 38.75V1.17188C40 0.524597 39.4754 0 38.8281 0ZM37.6562 18.8281H32.9688C31.6763 18.8281 30.625 19.8795 30.625 21.1719V22.4567C30.625 23.1244 30.0818 23.6676 29.4141 23.6676C28.7463 23.6676 28.2031 23.1244 28.2031 22.4567V21.1719C28.2031 19.8795 27.1518 18.8281 25.8594 18.8281H21.1719V14.1406H22.4567C24.4165 14.1406 26.0114 12.5461 26.0114 10.5859C26.0114 8.62579 24.4165 7.03125 22.4567 7.03125H21.1719V2.34375H37.6562V18.8281ZM2.34375 2.34375H18.8281V7.03125C18.8281 8.32367 19.8795 9.375 21.1719 9.375H22.4567C23.1244 9.375 23.6676 9.91821 23.6676 10.5859C23.6676 11.2537 23.1244 11.7969 22.4567 11.7969H21.1719C19.8795 11.7969 18.8281 12.8482 18.8281 14.1406V18.8281H2.34375V2.34375ZM2.34375 21.1719H18.8281V25.8594H17.5391C15.5789 25.8594 13.9844 27.4539 13.9844 29.4141C13.9844 31.3742 15.5789 32.9688 17.5391 32.9688H18.8281V37.5781H2.34375V21.1719ZM37.6562 37.5781H21.1719V32.9688C21.1719 31.6763 20.1205 30.625 18.8281 30.625H17.5391C16.8713 30.625 16.3281 30.0818 16.3281 29.4141C16.3281 28.7463 16.8713 28.2031 17.5391 28.2031H18.8281C20.1205 28.2031 21.1719 27.1518 21.1719 25.8594V21.1719H25.8594V22.4567C25.8594 24.4165 27.4539 26.0114 29.4141 26.0114C31.3742 26.0114 32.9688 24.4165 32.9688 22.4567V21.1719H37.6562V37.5781Z" fill="#8C7EA1"/>
</svg>
