<svg width="40" height="40" viewBox="0 0 40 40" fill="none" xmlns="http://www.w3.org/2000/svg">
<g clip-path="url(#clip0)">
<path d="M31.6667 15.8333C31.6667 24.5667 24.5667 31.6667 15.8333 31.6667C10.2167 31.6667 5.28333 28.7333 2.46667 24.3167C1.85 23.35 1.33333 22.3 0.95 21.2167C0.333333 19.5333 0 17.7167 0 15.8333C0 7.1 7.1 0 15.8333 0C20.7 0 25.05 2.2 27.95 5.65L25.5 7.93333C23.2167 5.11667 19.7333 3.33333 15.8333 3.33333C8.93333 3.33333 3.33333 8.93333 3.33333 15.8333V15.9C3.33333 16.9333 3.46667 17.9167 3.71667 18.8667C4 20.0333 4.45 21.1167 5.05 22.1167C5.48333 22.85 5.96667 23.5333 6.51667 24.15C8.8 26.7167 12.1333 28.3333 15.8333 28.3333C22.4333 28.3333 27.85 23.2 28.2833 16.7167L29.8 15.3L31.5167 13.7167C31.6167 14.4167 31.6667 15.1167 31.6667 15.8333Z" fill="#8C7EA1"/>
<path d="M38.3335 40.0002C37.9069 40.0002 37.4802 39.8369 37.1552 39.5119L24.8452 27.2019C24.1935 26.5502 24.1935 25.4969 24.8452 24.8452C25.4969 24.1935 26.5502 24.1935 27.2019 24.8452L39.5119 37.1552C40.1635 37.8069 40.1635 38.8602 39.5119 39.5119C39.1869 39.8369 38.7602 40.0002 38.3335 40.0002Z" fill="#8C7EA1"/>
<path d="M39.4668 2.88332L30.8668 10.9L28.1001 13.4667L21.1335 19.9667C20.5168 20.55 19.5501 20.5667 18.9001 20L13.3168 15.1167L5.05013 22.1167C4.45013 21.1167 4.00013 20.0333 3.7168 18.8667L12.2501 11.65C12.8835 11.1167 13.8168 11.1167 14.4335 11.6667L19.9668 16.5L26.9001 10.05L29.4335 7.68332L37.2001 0.449985C37.8668 -0.183348 38.9335 -0.150015 39.5501 0.533319C40.1835 1.19999 40.1501 2.24999 39.4668 2.88332Z" fill="#8C7EA1"/>
<path d="M38.3329 9.16667C37.8996 9.16667 37.4729 8.99667 37.1546 8.67833L31.3213 2.845C30.8446 2.36833 30.7013 1.65167 30.9596 1.02833C31.218 0.406667 31.8263 0 32.4996 0H38.3329C39.2529 0 39.9996 0.746667 39.9996 1.66667V7.5C39.9996 8.17333 39.5929 8.78167 38.9713 9.04C38.7646 9.125 38.5479 9.16667 38.3329 9.16667Z" fill="#8C7EA1"/>
</g>
<defs>
<clipPath id="clip0">
<rect width="40" height="40" fill="white"/>
</clipPath>
</defs>
</svg>
