<svg xmlns="http://www.w3.org/2000/svg" width="50" height="50" viewBox="0 0 50 50"><g><g><g><path fill="#584475" d="M15.23 24.996c0 1.078.874 1.953 1.953 1.953h5.86v5.86a1.953 1.953 0 1 0 3.906 0v-5.86h5.86a1.953 1.953 0 0 0 0-3.907h-5.86v-5.859a1.953 1.953 0 0 0-3.907 0v5.86h-5.859a1.953 1.953 0 0 0-1.953 1.953z"/></g><g><path fill="#584475" d="M15.661 6.035l2.526-1.047a1.953 1.953 0 0 0-1.495-3.609l-2.526 1.047a1.953 1.953 0 0 0 1.495 3.609z"/></g><g><path fill="#584475" d="M25 0a1.953 1.953 0 1 0 0 3.906c11.658 0 21.094 9.435 21.094 21.094 0 11.658-9.435 21.094-21.094 21.094-11.658 0-21.094-9.435-21.094-21.094A1.953 1.953 0 1 0 0 25c0 13.817 11.181 25 25 25 13.817 0 25-11.181 25-25C50 11.183 38.819 0 25 0z"/></g><g><path fill="#584475" d="M9.114 11.048l1.934-1.934a1.953 1.953 0 1 0-2.762-2.762L6.352 8.286a1.953 1.953 0 1 0 2.762 2.762z"/></g><g><path fill="#584475" d="M2.436 19.244a1.953 1.953 0 0 0 2.552-1.056l1.047-2.527a1.953 1.953 0 0 0-3.61-1.495L1.38 16.692c-.413.997.06 2.14 1.057 2.552z"/></g></g></g></svg>