<svg width="40" height="40" viewBox="0 0 40 40" fill="none" xmlns="http://www.w3.org/2000/svg">
<path d="M19.992 11.7633C15.395 11.7633 11.6552 15.5033 11.6552 20.1001C11.6552 24.697 15.3951 28.4369 19.992 28.4369C24.5889 28.4369 28.3288 24.697 28.3288 20.1001C28.3288 15.5033 24.5889 11.7633 19.992 11.7633ZM19.992 25.1022C17.2342 25.1022 14.9899 22.8579 14.9899 20.1001C14.9899 17.3423 17.2342 15.098 19.992 15.098C22.7514 15.098 24.9941 17.3423 24.9941 20.1001C24.9941 22.8579 22.7498 25.1022 19.992 25.1022Z" fill="#8C7EA1"/>
<path d="M38.5694 15.1182L33.8291 14.3545L36.6636 10.5863C37.1605 9.92433 37.0988 9.00066 36.5185 8.41207L31.7816 3.60839C31.1946 3.01144 30.2609 2.94308 29.5956 3.44332L25.7223 6.16449L24.972 1.49589C24.842 0.687222 24.145 0.0936279 23.3263 0.0936279H16.6569C15.8266 0.0936279 15.1229 0.703862 15.0062 1.52425L14.2259 6.24957L10.3727 3.4316C9.70734 2.94472 8.79203 3.01472 8.21008 3.59667L3.49148 8.29863C2.90125 8.8855 2.83617 9.81761 3.33641 10.4828L6.09922 14.3495L1.43062 15.0164C0.610234 15.1332 0 15.8368 0 16.6671V23.3366C0 24.1669 0.610234 24.8706 1.43062 24.9839L6.17094 25.7476L3.33641 29.5158C2.83617 30.1811 2.90125 31.1098 3.48984 31.6984L8.20844 36.417C8.79703 37.0089 9.72742 37.0689 10.391 36.5703L14.2559 33.8075L14.9229 38.4761C15.0396 39.2964 15.7432 39.9067 16.5736 39.9067H23.243C24.0734 39.9067 24.777 39.2982 24.8938 38.4811L25.6574 33.7408L29.4256 36.5753C30.0926 37.0756 31.0212 37.0122 31.6082 36.422L36.3268 31.7034C36.9154 31.1148 36.9804 30.1844 36.4802 29.5208L33.674 25.6609L38.526 25.094C39.3664 24.9973 40 24.2853 40 23.4383V16.7689C40 15.9385 39.3898 15.2349 38.5694 15.1182ZM36.667 21.9527L33.2639 22.3495C32.0251 22.5112 30.9896 23.3416 30.6045 24.412C30.1209 25.5057 30.2627 26.7846 30.983 27.7568L32.9471 30.3662L30.276 33.0373L27.6549 31.0648C26.6895 30.3512 25.4106 30.2094 24.4252 30.6546C23.2514 31.0798 22.4211 32.1153 22.2593 33.3357L21.7991 36.5721H18.0209L17.559 33.3557C17.3973 32.1169 16.5669 31.0814 15.4981 30.698C14.406 30.2145 13.1305 30.3528 12.1517 31.0748L9.54227 33.0389L6.87117 30.3678L8.84367 27.7468C9.55562 26.7847 9.69734 25.5075 9.25383 24.5171C8.82695 23.3432 7.7932 22.5112 6.57102 22.3511L3.33469 21.891V18.1127L6.55266 17.6508C7.79148 17.4891 8.82695 16.6587 9.21047 15.59C9.6957 14.4962 9.55391 13.2207 8.83531 12.2435L6.87281 9.63582L9.55227 6.96472L12.2484 8.93558C13.2121 9.64917 14.4877 9.78597 15.478 9.34574C16.6535 8.91886 17.4822 7.88011 17.6406 6.66464L18.1025 3.4266H21.9058L22.4227 6.64128C22.5827 7.88183 23.4114 8.91886 24.4852 9.30574C25.5773 9.78597 26.8545 9.64917 27.8248 8.93058L30.4293 6.98308L33.1387 9.72753L31.1596 12.357C30.4477 13.3191 30.3059 14.5963 30.7495 15.5883C31.1763 16.7638 32.2151 17.5925 33.4305 17.7509L36.6669 18.2128V21.9527H36.667Z" fill="#8C7EA1"/>
</svg>
