<svg xmlns="http://www.w3.org/2000/svg" width="50" height="44" viewBox="0 0 50 44"><g><g><g><path fill="#584475" d="M45.605 2.96A4.4 4.4 0 0 1 50 7.354a4.4 4.4 0 0 1-4.394 4.395H8.788v2.93H0V.03h8.79v2.93zm-39.746 0H2.93v8.789h2.93zm39.746 5.86a1.466 1.466 0 0 0 0-2.93H8.79v2.93z"/></g><g><path fill="#584475" d="M41.21 29.32H50v14.648h-8.79v-2.93H4.396A4.4 4.4 0 0 1 0 36.645a4.4 4.4 0 0 1 4.395-4.394H41.21zm0 8.79v-2.93H4.396c-.808 0-1.465.657-1.465 1.464 0 .808.657 1.465 1.465 1.465zm2.93 2.929h2.93v-8.79h-2.93z"/></g><g><path fill="#584475" d="M45.605 17.61A4.4 4.4 0 0 1 50 22.004a4.4 4.4 0 0 1-4.394 4.395H29.393v2.93h-8.788v-2.93H4.395A4.4 4.4 0 0 1 0 22.004a4.4 4.4 0 0 1 4.395-4.394h16.21v-2.93h8.79v2.93zm-25 5.86v-2.93H4.395c-.808 0-1.465.656-1.465 1.464 0 .808.657 1.465 1.465 1.465zm5.86-5.86h-2.93v8.789h2.93zm19.14 5.86a1.466 1.466 0 0 0 0-2.93h-16.21v2.93z"/></g></g></g></svg>