<svg width="40" height="40" viewBox="0 0 40 40" fill="none" xmlns="http://www.w3.org/2000/svg">
<path d="M31.7762 16.5364C31.2956 16.5364 30.8372 16.4455 30.4119 16.2864V19.2836C30.4119 19.7858 30.1131 20.2376 29.6509 20.4342L20.6253 24.2717V8.1992C20.2325 8.33202 19.8131 8.40733 19.3753 8.40733C18.9375 8.40733 18.5181 8.33202 18.1253 8.1992V24.2714L9.09937 20.4339C8.63718 20.2376 8.33874 19.7861 8.33874 19.2836V16.2864C7.91343 16.4451 7.45499 16.5364 6.97437 16.5364C6.57906 16.5364 6.19812 16.4764 5.83875 16.3673V19.2839C5.83875 20.7908 6.73468 22.1455 8.12156 22.7348L18.1253 26.988V30.5511C18.5181 30.4183 18.9375 30.343 19.3753 30.343C19.8131 30.343 20.2325 30.4183 20.6253 30.5511V26.988L30.6287 22.7351C32.0156 22.1458 32.9119 20.7911 32.9119 19.2839V16.3673C32.5525 16.4764 32.1712 16.5364 31.7762 16.5364Z" fill="white"/>
<path d="M19.375 38.1555C21.5324 38.1555 23.2812 36.4067 23.2812 34.2493C23.2812 32.0919 21.5324 30.343 19.375 30.343C17.2176 30.343 15.4688 32.0919 15.4688 34.2493C15.4688 36.4067 17.2176 38.1555 19.375 38.1555Z" fill="white"/>
<path d="M19.375 8.40732C21.5324 8.40732 23.2812 6.65843 23.2812 4.50107C23.2812 2.34371 21.5324 0.594818 19.375 0.594818C17.2176 0.594818 15.4688 2.34371 15.4688 4.50107C15.4688 6.65843 17.2176 8.40732 19.375 8.40732Z" fill="white"/>
<path d="M19.375 1.53232C21.3734 1.53232 23.0184 3.03388 23.2506 4.96982C23.2691 4.81576 23.2812 4.66013 23.2812 4.50107C23.2812 2.34357 21.5325 0.594818 19.375 0.594818C17.2175 0.594818 15.4688 2.34357 15.4688 4.50107C15.4688 4.66013 15.4809 4.81576 15.4994 4.96982C15.7316 3.03388 17.3766 1.53232 19.375 1.53232Z" fill="white"/>
<path d="M6.97436 16.5362C9.13173 16.5362 10.8806 14.7873 10.8806 12.6299C10.8806 10.4726 9.13173 8.72366 6.97436 8.72366C4.817 8.72366 3.06812 10.4726 3.06812 12.6299C3.06812 14.7873 4.817 16.5362 6.97436 16.5362Z" fill="white"/>
<path d="M31.7755 16.5362C33.9329 16.5362 35.6818 14.7873 35.6818 12.6299C35.6818 10.4726 33.9329 8.72366 31.7755 8.72366C29.6182 8.72366 27.8693 10.4726 27.8693 12.6299C27.8693 14.7873 29.6182 16.5362 31.7755 16.5362Z" fill="white"/>
<path d="M20.6251 10.8333C20.4526 10.8333 20.3126 10.973 20.3126 11.1458V16.5693C20.3126 16.7422 20.4526 16.419 20.6251 16.419C20.7976 16.419 20.9376 16.8394 20.9376 16.6666V11.1458C20.9376 10.9733 20.7976 10.8333 20.6251 10.8333Z" fill="white"/>
<path d="M35.995 12.6301C35.995 10.3039 34.1025 8.41138 31.7762 8.41138C29.45 8.41138 27.5575 10.3039 27.5575 12.6301C27.5575 14.3608 28.6056 15.8495 30.0994 16.4995V19.2839C30.0994 19.6608 29.8753 19.9995 29.5287 20.147L20.9378 23.7992V16.3673C20.9378 16.1945 20.7978 16.0548 20.6253 16.0548C20.4528 16.0548 20.3128 16.1945 20.3128 16.3673V24.2717C20.3128 24.3767 20.3653 24.4742 20.4528 24.5323C20.5047 24.5667 20.5647 24.5842 20.6253 24.5842C20.6669 24.5842 20.7084 24.5761 20.7475 24.5592L29.7731 20.722C30.3509 20.4767 30.7244 19.912 30.7244 19.2839V16.7108C31.0612 16.7976 31.4125 16.8489 31.7762 16.8489C32.0581 16.8489 32.3331 16.8198 32.5994 16.767V19.2839C32.5994 20.6654 31.7781 21.9073 30.5066 22.4476L20.5031 26.7004C20.3878 26.7492 20.3128 26.8623 20.3128 26.9879V30.1392C20.0109 30.0704 19.6978 30.0304 19.3753 30.0304C19.0528 30.0304 18.7397 30.0701 18.4378 30.1392V26.9879C18.4378 26.8626 18.3628 26.7492 18.2475 26.7004L8.24343 22.4473C6.97249 21.907 6.15093 20.6654 6.15093 19.2839V16.767C6.41749 16.8198 6.69249 16.8489 6.97405 16.8489C7.3378 16.8489 7.68905 16.7976 8.02593 16.7108V19.2839C8.02593 19.912 8.39905 20.4764 8.97687 20.7217L18.0028 24.5592C18.0419 24.5761 18.0834 24.5842 18.125 24.5842C18.1853 24.5842 18.2456 24.5667 18.2975 24.5323C18.3853 24.4745 18.4378 24.3767 18.4378 24.2717V8.61107C18.7397 8.67982 19.0528 8.71982 19.3753 8.71982C19.6978 8.71982 20.0109 8.68013 20.3128 8.61107V11.5411C20.3128 11.7139 20.4528 11.8536 20.6253 11.8536C20.7978 11.8536 20.9378 11.7139 20.9378 11.5411V8.41638C22.4922 7.79388 23.5941 6.27513 23.5941 4.50107C23.5941 2.17482 21.7016 0.282318 19.3753 0.282318C17.0491 0.282318 15.1566 2.17482 15.1566 4.50107C15.1566 6.27513 16.2584 7.79388 17.8128 8.41638V23.7995L9.22155 20.1464C8.87499 19.9992 8.65124 19.6608 8.65124 19.2839V16.4995C10.1453 15.8495 11.1931 14.3608 11.1931 12.6301C11.1931 10.3039 9.30061 8.41138 6.97436 8.41138C4.64811 8.41138 2.75562 10.3039 2.75562 12.6301C2.75562 14.447 3.91218 15.9948 5.52624 16.5873V19.2839C5.52624 20.9167 6.49686 22.3842 7.99936 23.0223L17.8128 27.1945V30.3339C16.2584 30.9564 15.1566 32.4751 15.1566 34.2492C15.1566 36.5754 17.0491 38.4679 19.3753 38.4679C21.7016 38.4679 23.5941 36.5754 23.5941 34.2492C23.5941 32.4751 22.4922 30.9564 20.9378 30.3339V27.1945L30.7509 23.0226C32.2534 22.3842 33.2244 20.917 33.2244 19.2839V16.5873C34.8381 15.9948 35.995 14.447 35.995 12.6301ZM15.7816 4.50076C15.7816 2.51919 17.3937 0.907006 19.3753 0.907006C21.3569 0.907006 22.9691 2.51919 22.9691 4.50076C22.9691 6.48232 21.3569 8.09451 19.3753 8.09451C17.3937 8.09451 15.7816 6.48232 15.7816 4.50076ZM3.38062 12.6301C3.38062 10.6486 4.9928 9.03638 6.97436 9.03638C8.95593 9.03638 10.5681 10.6486 10.5681 12.6301C10.5681 14.6117 8.95593 16.2239 6.97436 16.2239C4.9928 16.2239 3.38062 14.6117 3.38062 12.6301ZM22.9691 34.2492C22.9691 36.2308 21.3569 37.8429 19.3753 37.8429C17.3937 37.8429 15.7816 36.2308 15.7816 34.2492C15.7816 32.2676 17.3937 30.6554 19.3753 30.6554C21.3569 30.6554 22.9691 32.2676 22.9691 34.2492ZM31.7762 16.2239C29.7947 16.2239 28.1825 14.6117 28.1825 12.6301C28.1825 10.6486 29.7947 9.03638 31.7762 9.03638C33.7578 9.03638 35.37 10.6486 35.37 12.6301C35.37 14.6117 33.7578 16.2239 31.7762 16.2239Z" fill="white"/>
</svg>
